%FSLAX25Y25*%
%MOIN*%
G70*
G01*
G75*
G04 Layer_Color=65535*
%ADD10C,0.01000*%
%ADD11R,0.07874X0.07874*%
%ADD12R,0.02992X0.19685*%
%ADD13R,0.03937X0.05906*%
%ADD14R,0.03150X0.06299*%
%ADD15R,0.08268X0.11811*%
%ADD16C,0.01200*%
%ADD17C,0.00600*%
%ADD18C,0.02500*%
%ADD19C,0.00800*%
%ADD20C,0.02362*%
%ADD21C,0.02400*%
%ADD22R,0.01260X0.13780*%
%ADD23R,0.05906X0.07874*%
%ADD24R,0.05512X0.03937*%
%ADD25R,0.03543X0.05118*%
%ADD26C,0.02000*%
%ADD27R,0.02600X0.08500*%
D10*
X129706Y-104789D02*
Y-94589D01*
Y-104789D02*
X155006D01*
X129706Y-94589D02*
X155006D01*
Y-104789D02*
Y-94589D01*
X32807Y-36464D02*
Y-26264D01*
X14007D02*
X32807D01*
X14007Y-36464D02*
X32807D01*
X14007D02*
Y-26264D01*
X68326Y-23017D02*
Y-3017D01*
X90373Y-23017D02*
Y-3017D01*
X65429Y-23017D02*
Y-3017D01*
X43382Y-23017D02*
Y-3017D01*
X93270Y-23017D02*
Y-3017D01*
X115318Y-23017D02*
Y-3017D01*
X140262Y-23017D02*
Y-3017D01*
X118215Y-23017D02*
Y-3017D01*
X143159Y-23017D02*
Y-3017D01*
X165206Y-23017D02*
Y-3017D01*
X130605Y-152789D02*
Y-145152D01*
Y-152789D02*
X146005D01*
X130605Y-145152D02*
X146005D01*
Y-152789D02*
Y-145152D01*
X149206Y-132452D02*
X160406D01*
Y-119013D01*
X120106Y-132552D02*
X130605D01*
X133606Y-115752D02*
X148172D01*
X120106Y-132552D02*
Y-119308D01*
X1328418Y-93700D02*
X1352040D01*
X1328418Y-138200D02*
X1352040D01*
X127706Y-99988D02*
X123707D01*
X125706Y-101987D02*
Y-97988D01*
X161706Y-99888D02*
X157707D01*
D19*
X120006Y-111824D02*
Y-107825D01*
X122005D01*
X122671Y-108491D01*
Y-109824D01*
X122005Y-110491D01*
X120006D01*
X124004Y-107825D02*
X126670D01*
Y-108491D01*
X124004Y-111157D01*
Y-111824D01*
X170599Y-95700D02*
X166600D01*
Y-97699D01*
X167266Y-98366D01*
X169932D01*
X170599Y-97699D01*
Y-95700D01*
X166600Y-102365D02*
Y-99699D01*
X169266Y-102365D01*
X169932D01*
X170599Y-101698D01*
Y-100365D01*
X169932Y-99699D01*
X133900Y-139701D02*
Y-143700D01*
X135899D01*
X136566Y-143034D01*
Y-140368D01*
X135899Y-139701D01*
X133900D01*
X137899Y-143700D02*
X139232D01*
X138565D01*
Y-139701D01*
X137899Y-140368D01*
X146705Y-31217D02*
Y-35216D01*
X144706D01*
X144040Y-34549D01*
Y-33217D01*
X144706Y-32550D01*
X146705D01*
X140041Y-35216D02*
X142707D01*
Y-33217D01*
X141374Y-33883D01*
X140707D01*
X140041Y-33217D01*
Y-31884D01*
X140707Y-31217D01*
X142040D01*
X142707Y-31884D01*
X136305Y-31217D02*
Y-35216D01*
X134306D01*
X133640Y-34549D01*
Y-33217D01*
X134306Y-32550D01*
X136305D01*
X130307Y-31217D02*
Y-35216D01*
X132307Y-33217D01*
X129641D01*
X122505Y-31217D02*
Y-35216D01*
X120506D01*
X119840Y-34549D01*
Y-33217D01*
X120506Y-32550D01*
X122505D01*
X118507Y-34549D02*
X117840Y-35216D01*
X116507D01*
X115841Y-34549D01*
Y-33883D01*
X116507Y-33217D01*
X117174D01*
X116507D01*
X115841Y-32550D01*
Y-31884D01*
X116507Y-31217D01*
X117840D01*
X118507Y-31884D01*
X61500Y-31227D02*
Y-35225D01*
X59501D01*
X58834Y-34559D01*
Y-33226D01*
X59501Y-32560D01*
X61500D01*
X57501Y-31227D02*
X56168D01*
X56835D01*
Y-35225D01*
X57501Y-34559D01*
X91206Y-31217D02*
Y-35216D01*
X89206D01*
X88540Y-34549D01*
Y-33217D01*
X89206Y-32550D01*
X91206D01*
X84541Y-31217D02*
X87207D01*
X84541Y-33883D01*
Y-34549D01*
X85207Y-35216D01*
X86540D01*
X87207Y-34549D01*
D26*
X1328418Y-138200D02*
Y-93700D01*
X1352040Y-138200D02*
Y-93700D01*
X1611862Y-100232D02*
X1643328Y-131698D01*
X1604331Y-92700D02*
X1611862Y-100232D01*
X1643328Y-131698D02*
X1650431Y-138800D01*
D27*
X129306Y-149002D02*
D03*
M02*
