%FSLAX25Y25*%
%MOIN*%
G70*
G01*
G75*
G04 Layer_Physical_Order=1*
G04 Layer_Color=255*
%ADD10C,0.01000*%
%ADD11R,0.07874X0.07874*%
%ADD12R,0.02992X0.19685*%
%ADD13R,0.03937X0.05906*%
%ADD14R,0.03150X0.06299*%
%ADD15R,0.08268X0.11811*%
%ADD16C,0.01200*%
%ADD17C,0.00600*%
%ADD18C,0.02500*%
%ADD19C,0.00800*%
%ADD20C,0.02362*%
%ADD21C,0.02400*%
G36*
X129300Y-2127D02*
Y-26827D01*
X122300Y-33827D01*
X108300D01*
Y-31972D01*
X109404Y-30868D01*
X109404Y-30868D01*
X109647Y-30505D01*
X109647Y-30505D01*
X109647Y-30505D01*
X109733Y-30075D01*
X109733Y-30075D01*
Y-28170D01*
X109647Y-27741D01*
X109404Y-27377D01*
X109404Y-27377D01*
X108300Y-26273D01*
Y-25027D01*
X122900D01*
X124700Y-23227D01*
Y-2127D01*
X125000Y-1827D01*
X129000D01*
X129300Y-2127D01*
D02*
G37*
G36*
X163500Y-34842D02*
X149300D01*
Y-2327D01*
X163500D01*
Y-34842D01*
D02*
G37*
G36*
X2337794Y-139703D02*
X2306381D01*
X2306031Y-139346D01*
X2306479Y-117204D01*
X2337794D01*
Y-139703D01*
D02*
G37*
G36*
X207286Y96D02*
X207270Y-22153D01*
X206829Y-22388D01*
X206467Y-22147D01*
X205734Y-22001D01*
X205000Y-22147D01*
X204379Y-22562D01*
X203963Y-23184D01*
X203818Y-23917D01*
X203963Y-24651D01*
X204379Y-25272D01*
X205000Y-25688D01*
X205734Y-25833D01*
X206467Y-25688D01*
X206826Y-25448D01*
X207267Y-25684D01*
X207259Y-36479D01*
X167459D01*
X167223Y-36038D01*
X167296Y-35929D01*
X167435Y-35227D01*
X167296Y-34525D01*
X166898Y-33929D01*
X166302Y-33531D01*
X165600Y-33391D01*
X164898Y-33531D01*
X164590Y-33737D01*
X164149Y-33501D01*
Y-2327D01*
X163959Y-1867D01*
X163500Y-1677D01*
X149300D01*
X148841Y-1867D01*
X148651Y-2327D01*
Y-34842D01*
X129811D01*
X129382Y-34927D01*
X129018Y-35171D01*
X129018Y-35171D01*
X128018Y-36171D01*
X127775Y-36534D01*
X127690Y-36964D01*
X127690Y-36964D01*
Y-44427D01*
X83826D01*
Y-35855D01*
X84213Y-35538D01*
X84339Y-35563D01*
X90188D01*
X90333Y-36042D01*
X89902Y-36329D01*
X89504Y-36924D01*
X89365Y-37627D01*
X89504Y-38329D01*
X89902Y-38925D01*
X90498Y-39322D01*
X91200Y-39462D01*
X91902Y-39322D01*
X92498Y-38925D01*
X92615Y-38748D01*
X103297D01*
X103297Y-38748D01*
X103726Y-38663D01*
X104090Y-38420D01*
X106948Y-35561D01*
X106949Y-35561D01*
X107192Y-35197D01*
X107192Y-35197D01*
X107192Y-35197D01*
X107277Y-34768D01*
X107277Y-34768D01*
Y-34207D01*
X107767Y-34109D01*
X107841Y-34286D01*
X108300Y-34476D01*
X122300D01*
X122625Y-34342D01*
X122759Y-34286D01*
X129759Y-27286D01*
X129949Y-26827D01*
Y-2127D01*
X129815Y-1802D01*
X129759Y-1667D01*
X129459Y-1367D01*
X129000Y-1177D01*
X125000D01*
X124675Y-1312D01*
X124541Y-1367D01*
X124241Y-1667D01*
X124051Y-2127D01*
Y-22958D01*
X122631Y-24377D01*
X108300D01*
X108092Y-24463D01*
X107775Y-24077D01*
X108030Y-23695D01*
X108077Y-23460D01*
X108890D01*
Y-2974D01*
X109698D01*
Y-23460D01*
X113890D01*
Y-2575D01*
X112658D01*
X112642Y-2493D01*
X112443Y-2196D01*
X111655Y-1407D01*
X111357Y-1208D01*
X111006Y-1139D01*
X92598D01*
X92247Y-1208D01*
X91949Y-1407D01*
X91750Y-1705D01*
X91680Y-2056D01*
Y-3625D01*
X91311Y-3928D01*
X90609Y-4068D01*
X90013Y-4466D01*
X89615Y-5061D01*
X89476Y-5764D01*
X89615Y-6466D01*
X90013Y-7061D01*
X90609Y-7459D01*
X91311Y-7599D01*
X92013Y-7459D01*
X92609Y-7061D01*
X93007Y-6466D01*
X93146Y-5764D01*
X93057Y-5315D01*
X93247Y-5125D01*
X93446Y-4828D01*
X93457Y-4769D01*
X93516Y-4477D01*
Y-2974D01*
X94698D01*
Y-14542D01*
X93626D01*
X93509Y-14366D01*
X92913Y-13968D01*
X92211Y-13828D01*
X91509Y-13968D01*
X90913Y-14366D01*
X90516Y-14961D01*
X90376Y-15664D01*
X90516Y-16366D01*
X90913Y-16961D01*
X91509Y-17359D01*
X92211Y-17499D01*
X92913Y-17359D01*
X93509Y-16961D01*
X93626Y-16785D01*
X94698D01*
Y-23460D01*
X98890D01*
Y-2974D01*
X104698D01*
Y-22003D01*
X104620D01*
X104152Y-22096D01*
X103755Y-22362D01*
X102013Y-24103D01*
X93107D01*
X92018Y-23014D01*
X92035Y-22927D01*
X91896Y-22224D01*
X91498Y-21629D01*
X90902Y-21231D01*
X90200Y-21091D01*
X89498Y-21231D01*
X88902Y-21629D01*
X88504Y-22224D01*
X88365Y-22927D01*
X88396Y-23084D01*
X88042Y-23438D01*
X87900Y-23409D01*
X83946D01*
Y-2575D01*
X79754D01*
Y-23460D01*
X80932D01*
Y-23802D01*
X80956Y-23923D01*
X80639Y-24309D01*
X77767D01*
Y-23460D01*
X78946D01*
Y-2575D01*
X74754D01*
Y-23460D01*
X75932D01*
Y-24802D01*
X75932Y-24802D01*
X75932D01*
X75992Y-25104D01*
X75890Y-25228D01*
X75498Y-25490D01*
X63792D01*
Y-23460D01*
X64002D01*
Y-14037D01*
X64410D01*
X64800Y-13959D01*
X65131Y-13738D01*
X66072Y-12797D01*
X66400Y-12862D01*
X67102Y-12722D01*
X67698Y-12325D01*
X68096Y-11729D01*
X68235Y-11027D01*
X68096Y-10324D01*
X67698Y-9729D01*
X67102Y-9331D01*
X66400Y-9191D01*
X65698Y-9331D01*
X65102Y-9729D01*
X64704Y-10324D01*
X64565Y-11027D01*
X64578Y-11091D01*
X64191Y-11408D01*
X64002Y-11330D01*
Y-2575D01*
X59809D01*
Y-23460D01*
X60019D01*
Y-27421D01*
X60019Y-27421D01*
X60019D01*
X60163Y-28143D01*
X60572Y-28755D01*
X61184Y-29164D01*
X61905Y-29307D01*
X62129Y-29263D01*
X76782D01*
X77018Y-29704D01*
X77004Y-29724D01*
X76865Y-30427D01*
X77004Y-31129D01*
X77402Y-31725D01*
X77998Y-32122D01*
X78700Y-32262D01*
X78908Y-32221D01*
X79983Y-33296D01*
Y-36209D01*
X79597Y-36526D01*
X79357Y-36479D01*
X1223D01*
Y-17810D01*
X1664Y-17574D01*
X2023Y-17814D01*
X2756Y-17959D01*
X3489Y-17814D01*
X4111Y-17398D01*
X4526Y-16776D01*
X4672Y-16043D01*
X4526Y-15310D01*
X4111Y-14688D01*
X3489Y-14273D01*
X2756Y-14127D01*
X2023Y-14273D01*
X1664Y-14512D01*
X1223Y-14276D01*
Y450D01*
X206933D01*
X207286Y96D01*
D02*
G37*
%LPC*%
G36*
X10630Y-14127D02*
X9897Y-14273D01*
X9275Y-14688D01*
X8859Y-15310D01*
X8714Y-16043D01*
X8859Y-16776D01*
X9275Y-17398D01*
X9897Y-17814D01*
X10630Y-17959D01*
X11363Y-17814D01*
X11985Y-17398D01*
X12400Y-16776D01*
X12546Y-16043D01*
X12400Y-15310D01*
X11985Y-14688D01*
X11363Y-14273D01*
X10630Y-14127D01*
D02*
G37*
G36*
X49002Y-2575D02*
X44809D01*
Y-23460D01*
X45993D01*
Y-31412D01*
X45613Y-31666D01*
X45215Y-32261D01*
X45076Y-32964D01*
X45215Y-33666D01*
X45613Y-34261D01*
X46209Y-34659D01*
X46911Y-34799D01*
X47613Y-34659D01*
X48209Y-34261D01*
X48607Y-33666D01*
X48746Y-32964D01*
X48607Y-32261D01*
X48209Y-31666D01*
X47829Y-31412D01*
Y-23460D01*
X49002D01*
Y-2575D01*
D02*
G37*
G36*
X197860Y-22001D02*
X197126Y-22147D01*
X196505Y-22562D01*
X196089Y-23184D01*
X195943Y-23917D01*
X196089Y-24651D01*
X196505Y-25272D01*
X197126Y-25688D01*
X197860Y-25833D01*
X198593Y-25688D01*
X199215Y-25272D01*
X199630Y-24651D01*
X199776Y-23917D01*
X199630Y-23184D01*
X199215Y-22562D01*
X198593Y-22147D01*
X197860Y-22001D01*
D02*
G37*
G36*
X54002Y-2575D02*
X49809D01*
Y-23460D01*
X50893D01*
Y-30812D01*
X50513Y-31066D01*
X50116Y-31661D01*
X49976Y-32364D01*
X50116Y-33066D01*
X50513Y-33661D01*
X51109Y-34059D01*
X51811Y-34199D01*
X52513Y-34059D01*
X53109Y-33661D01*
X53507Y-33066D01*
X53646Y-32364D01*
X53507Y-31661D01*
X53109Y-31066D01*
X52729Y-30812D01*
Y-23460D01*
X54002D01*
Y-2575D01*
D02*
G37*
%LPD*%
D10*
X2362304Y-104269D02*
G03*
X2360067Y-102032I-2237J0D01*
G01*
X2269784Y-96395D02*
G03*
X2275421Y-102032I5637J0D01*
G01*
X2265310Y-143639D02*
G03*
X2259673Y-138002I-5637J0D01*
G01*
X130411Y-92428D02*
G03*
X134468Y-94158I4064J3907D01*
G01*
X142605Y-129152D02*
G03*
X138484Y-130556I-2300J0D01*
G01*
X141684Y-130993D02*
G03*
X142605Y-129152I-1379J1841D01*
G01*
X132686Y-133552D02*
G03*
X132705Y-133252I-2280J300D01*
G01*
X134088Y-135534D02*
G03*
X133678Y-134545I-1400J0D01*
G01*
X134088Y-135534D02*
G03*
X133678Y-134545I-1400J0D01*
G01*
X128611Y-100920D02*
G03*
X129368Y-101344I1131J1131D01*
G01*
X128610Y-100919D02*
G03*
X129368Y-101344I1133J1130D01*
G01*
X127211Y-98857D02*
G03*
X127681Y-99990I1600J0D01*
G01*
X127211Y-98857D02*
G03*
X127680Y-99989I1600J0D01*
G01*
X132705Y-133252D02*
G03*
X130706Y-135532I-2300J0D01*
G01*
X128519Y-135005D02*
G03*
X127388Y-134537I-1131J-1131D01*
G01*
X128520Y-135007D02*
G03*
X127388Y-134537I-1133J-1130D01*
G01*
X152006Y-138002D02*
G03*
X151608Y-138049I0J-1700D01*
G01*
Y-138049D02*
G03*
X146652Y-142865I582J-5558D01*
G01*
X146652D02*
G03*
X146617Y-143206I1665J-341D01*
G01*
X144380Y-154538D02*
G03*
X146617Y-152301I0J2237D01*
G01*
X143956Y-141001D02*
G03*
X144946Y-140591I0J1400D01*
G01*
X143956Y-141001D02*
G03*
X144946Y-140591I0J1400D01*
G01*
X129042Y-143331D02*
G03*
X129027Y-142915I-5525J0D01*
G01*
X138971Y-149983D02*
G03*
X139837Y-150430I1131J1131D01*
G01*
X138970Y-149982D02*
G03*
X139837Y-150430I1133J1130D01*
G01*
X129042Y-152350D02*
G03*
X131231Y-154538I2188J0D01*
G01*
X2212889Y-94158D02*
X2256733Y-138002D01*
X2210971D02*
X2254815Y-94158D01*
X2214507Y-138002D02*
X2258351Y-94158D01*
X2207436Y-138002D02*
X2251280Y-94158D01*
X2205818D02*
X2249662Y-138002D01*
X2209354Y-94158D02*
X2253198Y-138002D01*
X2269784Y-96395D02*
Y-94158D01*
X2269458D02*
X2269784Y-94485D01*
X2265922Y-94158D02*
X2270146Y-98382D01*
X2221578Y-138002D02*
X2265422Y-94158D01*
X2218042Y-138002D02*
X2261886Y-94158D01*
X2225113Y-138002D02*
X2268957Y-94158D01*
X2191676D02*
X2235520Y-138002D01*
X2189758D02*
X2233602Y-94158D01*
X2193294Y-138002D02*
X2237138Y-94158D01*
X2186222Y-138002D02*
X2230067Y-94158D01*
X2184605D02*
X2228449Y-138002D01*
X2188140Y-94158D02*
X2231985Y-138002D01*
X2202283Y-94158D02*
X2246127Y-138002D01*
X2200365D02*
X2244209Y-94158D01*
X2203900Y-138002D02*
X2247744Y-94158D01*
X2196829Y-138002D02*
X2240673Y-94158D01*
X2195211D02*
X2239056Y-138002D01*
X2198747Y-94158D02*
X2242591Y-138002D01*
X2170463Y-94158D02*
X2214307Y-138002D01*
X2168545D02*
X2212389Y-94158D01*
X2172080Y-138002D02*
X2215924Y-94158D01*
X2165009Y-138002D02*
X2208853Y-94158D01*
X2163392D02*
X2207236Y-138002D01*
X2166927Y-94158D02*
X2210771Y-138002D01*
X2181069Y-94158D02*
X2224913Y-138002D01*
X2179151D02*
X2222996Y-94158D01*
X2182687Y-138002D02*
X2226531Y-94158D01*
X2175616Y-138002D02*
X2219460Y-94158D01*
X2173998D02*
X2217842Y-138002D01*
X2177534Y-94158D02*
X2221378Y-138002D01*
X2149250Y-94158D02*
X2193094Y-138002D01*
X2147332D02*
X2191176Y-94158D01*
X2150867Y-138002D02*
X2194711Y-94158D01*
X2143796Y-138002D02*
X2187640Y-94158D01*
X2142179D02*
X2186023Y-138002D01*
X2145714Y-94158D02*
X2189558Y-138002D01*
X2159856Y-94158D02*
X2203700Y-138002D01*
X2157938D02*
X2201782Y-94158D01*
X2161474Y-138002D02*
X2205318Y-94158D01*
X2154403Y-138002D02*
X2198247Y-94158D01*
X2152785D02*
X2196629Y-138002D01*
X2156321Y-94158D02*
X2200165Y-138002D01*
X2087228D02*
X2131072Y-94158D01*
X2085610D02*
X2129454Y-138002D01*
X2089146Y-94158D02*
X2132990Y-138002D01*
X2082075Y-94158D02*
X2125919Y-138002D01*
X2080157D02*
X2124001Y-94158D01*
X2083692Y-138002D02*
X2127536Y-94158D01*
X2097834Y-138002D02*
X2141678Y-94158D01*
X2096217D02*
X2140061Y-138002D01*
X2099752Y-94158D02*
X2143596Y-138002D01*
X2092681Y-94158D02*
X2136525Y-138002D01*
X2090763D02*
X2134607Y-94158D01*
X2094299Y-138002D02*
X2138143Y-94158D01*
X1974091Y-138002D02*
X2017935Y-94158D01*
X1972473D02*
X2016317Y-138002D01*
X1976009Y-94158D02*
X2019853Y-138002D01*
X1968938Y-94158D02*
X2012782Y-138002D01*
X1967020D02*
X2010864Y-94158D01*
X1970555Y-138002D02*
X2014399Y-94158D01*
X1984697Y-138002D02*
X2028541Y-94158D01*
X1983080D02*
X2026924Y-138002D01*
X2078539Y-94158D02*
X2122383Y-138002D01*
X1979544Y-94158D02*
X2023388Y-138002D01*
X1977626D02*
X2021470Y-94158D01*
X1981162Y-138002D02*
X2025006Y-94158D01*
X2128036D02*
X2171881Y-138002D01*
X2126118D02*
X2169963Y-94158D01*
X2129654Y-138002D02*
X2173498Y-94158D01*
X2122583Y-138002D02*
X2166427Y-94158D01*
X2120965D02*
X2164809Y-138002D01*
X2124501Y-94158D02*
X2168345Y-138002D01*
X2138643Y-94158D02*
X2182487Y-138002D01*
X2136725D02*
X2180569Y-94158D01*
X2140261Y-138002D02*
X2184105Y-94158D01*
X2133190Y-138002D02*
X2177034Y-94158D01*
X2131572D02*
X2175416Y-138002D01*
X2135107Y-94158D02*
X2178952Y-138002D01*
X2108441D02*
X2152285Y-94158D01*
X2106823D02*
X2150667Y-138002D01*
X2110359Y-94158D02*
X2154203Y-138002D01*
X2103288Y-94158D02*
X2147132Y-138002D01*
X2101370D02*
X2145214Y-94158D01*
X2104905Y-138002D02*
X2148749Y-94158D01*
X2117430D02*
X2161274Y-138002D01*
X2115512D02*
X2159356Y-94158D01*
X2119047Y-138002D02*
X2162892Y-94158D01*
X2111976Y-138002D02*
X2155820Y-94158D01*
X2113894D02*
X2157738Y-138002D01*
X2358651Y-102032D02*
X2362304Y-105685D01*
X2355116Y-102032D02*
X2362304Y-109220D01*
X2351580Y-102032D02*
X2362304Y-112756D01*
X2275427Y-102032D02*
X2360067D01*
X2348045D02*
X2362304Y-116291D01*
X2340974Y-102032D02*
X2362304Y-123362D01*
X2344509Y-102032D02*
X2362304Y-119827D01*
X2337438Y-102032D02*
X2362304Y-126898D01*
X2330367Y-102032D02*
X2362304Y-133969D01*
X2333903Y-102032D02*
X2362304Y-130433D01*
X2326832Y-102032D02*
X2362304Y-137504D01*
X2235720Y-138002D02*
X2272504Y-101219D01*
X2232184Y-138002D02*
X2270704Y-99482D01*
X2076621Y-138002D02*
X2120465Y-94158D01*
X2075003D02*
X2118848Y-138002D01*
X2228649D02*
X2269802Y-96849D01*
X2253398Y-138002D02*
X2289368Y-102032D01*
X2249862Y-138002D02*
X2285832Y-102032D01*
X2256933Y-138002D02*
X2292903Y-102032D01*
X2242791Y-138002D02*
X2278761Y-102032D01*
X2239255Y-138002D02*
X2275229Y-102029D01*
X2246326Y-138002D02*
X2282297Y-102032D01*
X2060861Y-94158D02*
X2104705Y-138002D01*
X2058943D02*
X2102788Y-94158D01*
X2062479Y-138002D02*
X2106323Y-94158D01*
X2055408Y-138002D02*
X2099252Y-94158D01*
X2053790D02*
X2097634Y-138002D01*
X2057326Y-94158D02*
X2101170Y-138002D01*
X2071468Y-94158D02*
X2115312Y-138002D01*
X2069550D02*
X2113394Y-94158D01*
X2073086Y-138002D02*
X2116930Y-94158D01*
X2066014Y-138002D02*
X2109859Y-94158D01*
X2064397D02*
X2108241Y-138002D01*
X2067932Y-94158D02*
X2111777Y-138002D01*
X2039648Y-94158D02*
X2083492Y-138002D01*
X2037730D02*
X2081574Y-94158D01*
X2041266Y-138002D02*
X2085110Y-94158D01*
X2034195Y-138002D02*
X2078039Y-94158D01*
X2032577D02*
X2076421Y-138002D01*
X2036113Y-94158D02*
X2079957Y-138002D01*
X2050255Y-94158D02*
X2094099Y-138002D01*
X2048337D02*
X2092181Y-94158D01*
X2051872Y-138002D02*
X2095716Y-94158D01*
X2044801Y-138002D02*
X2088645Y-94158D01*
X2043184D02*
X2087028Y-138002D01*
X2046719Y-94158D02*
X2090563Y-138002D01*
X1958331Y-94158D02*
X2002175Y-138002D01*
X1956413D02*
X2000257Y-94158D01*
X1959949Y-138002D02*
X2003793Y-94158D01*
X1952877Y-138002D02*
X1996722Y-94158D01*
X1951260D02*
X1995104Y-138002D01*
X1954795Y-94158D02*
X1998640Y-138002D01*
X1988233D02*
X2032077Y-94158D01*
X1986615D02*
X2030459Y-138002D01*
X1990151Y-94158D02*
X2033995Y-138002D01*
X1963484D02*
X2007328Y-94158D01*
X1961867D02*
X2005711Y-138002D01*
X1965402Y-94158D02*
X2009246Y-138002D01*
X1937118Y-94158D02*
X1980962Y-138002D01*
X1935200D02*
X1979044Y-94158D01*
X1938735Y-138002D02*
X1982579Y-94158D01*
X1931664Y-138002D02*
X1975508Y-94158D01*
X1930047D02*
X1973891Y-138002D01*
X1933582Y-94158D02*
X1977426Y-138002D01*
X1947724Y-94158D02*
X1991569Y-138002D01*
X1945806D02*
X1989651Y-94158D01*
X1949342Y-138002D02*
X1993186Y-94158D01*
X1942271Y-138002D02*
X1986115Y-94158D01*
X1940653D02*
X1984497Y-138002D01*
X1944189Y-94158D02*
X1988033Y-138002D01*
X2018435Y-94158D02*
X2062279Y-138002D01*
X2016517D02*
X2060361Y-94158D01*
X2020053Y-138002D02*
X2063897Y-94158D01*
X2012981Y-138002D02*
X2056826Y-94158D01*
X2011364D02*
X2055208Y-138002D01*
X2014899Y-94158D02*
X2058744Y-138002D01*
X2029042Y-94158D02*
X2072886Y-138002D01*
X2027124D02*
X2070968Y-94158D01*
X2030659Y-138002D02*
X2074503Y-94158D01*
X2023588Y-138002D02*
X2067432Y-94158D01*
X2021971D02*
X2065815Y-138002D01*
X2025506Y-94158D02*
X2069350Y-138002D01*
X1998839D02*
X2042683Y-94158D01*
X1997222D02*
X2041066Y-138002D01*
X2000757Y-94158D02*
X2044601Y-138002D01*
X1993686Y-94158D02*
X2037530Y-138002D01*
X1991768D02*
X2035612Y-94158D01*
X1995304Y-138002D02*
X2039148Y-94158D01*
X2007828D02*
X2051673Y-138002D01*
X2005910D02*
X2049755Y-94158D01*
X2009446Y-138002D02*
X2053290Y-94158D01*
X2002375Y-138002D02*
X2046219Y-94158D01*
X2004293D02*
X2048137Y-138002D01*
X1707308Y-94158D02*
X1751152Y-138002D01*
X1705390D02*
X1749235Y-94158D01*
X1708926Y-138002D02*
X1752770Y-94158D01*
X1701855Y-138002D02*
X1745699Y-94158D01*
X1700237D02*
X1744081Y-138002D01*
X1703773Y-94158D02*
X1747617Y-138002D01*
X1717915Y-94158D02*
X1761759Y-138002D01*
X1715997D02*
X1759841Y-94158D01*
X1719533Y-138002D02*
X1763377Y-94158D01*
X1712461Y-138002D02*
X1756306Y-94158D01*
X1710844D02*
X1754688Y-138002D01*
X1714379Y-94158D02*
X1758224Y-138002D01*
X1686095Y-94158D02*
X1729939Y-138002D01*
X1684177D02*
X1728021Y-94158D01*
X1687713Y-138002D02*
X1731557Y-94158D01*
X1680642Y-138002D02*
X1724486Y-94158D01*
X1679024D02*
X1722868Y-138002D01*
X1682560Y-94158D02*
X1726404Y-138002D01*
X1696702Y-94158D02*
X1740546Y-138002D01*
X1694784D02*
X1738628Y-94158D01*
X1698319Y-138002D02*
X1742163Y-94158D01*
X1691248Y-138002D02*
X1735092Y-94158D01*
X1689631D02*
X1733475Y-138002D01*
X1693166Y-94158D02*
X1737010Y-138002D01*
X1749735Y-94158D02*
X1793579Y-138002D01*
X1747817D02*
X1791661Y-94158D01*
X1751352Y-138002D02*
X1795196Y-94158D01*
X1744281Y-138002D02*
X1788125Y-94158D01*
X1742664D02*
X1786508Y-138002D01*
X1746199Y-94158D02*
X1790043Y-138002D01*
X1760341Y-94158D02*
X1804185Y-138002D01*
X1758423D02*
X1802267Y-94158D01*
X1761959Y-138002D02*
X1805803Y-94158D01*
X1754888Y-138002D02*
X1798732Y-94158D01*
X1753270D02*
X1797114Y-138002D01*
X1756806Y-94158D02*
X1800650Y-138002D01*
X1728522Y-94158D02*
X1772366Y-138002D01*
X1726604D02*
X1770448Y-94158D01*
X1730139Y-138002D02*
X1773983Y-94158D01*
X1723068Y-138002D02*
X1766912Y-94158D01*
X1721450D02*
X1765295Y-138002D01*
X1724986Y-94158D02*
X1768830Y-138002D01*
X1739128Y-94158D02*
X1782972Y-138002D01*
X1737210D02*
X1781054Y-94158D01*
X1740746Y-138002D02*
X1784590Y-94158D01*
X1733675Y-138002D02*
X1777519Y-94158D01*
X1732057D02*
X1775901Y-138002D01*
X1735593Y-94158D02*
X1779437Y-138002D01*
X1245772D02*
X1289616Y-94158D01*
X1244154D02*
X1287998Y-138002D01*
X1247690Y-94158D02*
X1291534Y-138002D01*
X1238700D02*
X1282545Y-94158D01*
X1237083D02*
X1280927Y-138002D01*
X1242236D02*
X1286080Y-94158D01*
X1256378Y-138002D02*
X1300222Y-94158D01*
X1254760D02*
X1298605Y-138002D01*
X1258296Y-94158D02*
X1302140Y-138002D01*
X1251225Y-94158D02*
X1295069Y-138002D01*
X1249307D02*
X1293151Y-94158D01*
X1252843Y-138002D02*
X1296687Y-94158D01*
X1213952Y-138002D02*
X1257796Y-94158D01*
X1212334D02*
X1256178Y-138002D01*
X1215870Y-94158D02*
X1259714Y-138002D01*
X1208799Y-94158D02*
X1252643Y-138002D01*
X1206881D02*
X1250725Y-94158D01*
X1210416Y-138002D02*
X1254260Y-94158D01*
X1224558Y-138002D02*
X1268402Y-94158D01*
X1222941D02*
X1266785Y-138002D01*
X1235165D02*
X1279009Y-94158D01*
X1219405D02*
X1263249Y-138002D01*
X1217487D02*
X1261331Y-94158D01*
X1221023Y-138002D02*
X1264867Y-94158D01*
X1664882D02*
X1708726Y-138002D01*
X1662964D02*
X1706808Y-94158D01*
X1666500Y-138002D02*
X1710344Y-94158D01*
X1659428Y-138002D02*
X1703273Y-94158D01*
X1279509D02*
X1323353Y-138002D01*
X1661346Y-94158D02*
X1705191Y-138002D01*
X1675489Y-94158D02*
X1719333Y-138002D01*
X1673571D02*
X1717415Y-94158D01*
X1677106Y-138002D02*
X1720950Y-94158D01*
X1670035Y-138002D02*
X1713879Y-94158D01*
X1668418D02*
X1712262Y-138002D01*
X1671953Y-94158D02*
X1715797Y-138002D01*
X1266985D02*
X1310829Y-94158D01*
X1265367D02*
X1309211Y-138002D01*
X1268903Y-94158D02*
X1312747Y-138002D01*
X1261832Y-94158D02*
X1305676Y-138002D01*
X1259914D02*
X1303758Y-94158D01*
X1263449Y-138002D02*
X1307293Y-94158D01*
X1275974D02*
X1319818Y-138002D01*
X1274056D02*
X1317900Y-94158D01*
X1277591Y-138002D02*
X1321435Y-94158D01*
X1270520Y-138002D02*
X1314364Y-94158D01*
X1272438D02*
X1316282Y-138002D01*
X1875096D02*
X1918940Y-94158D01*
X1873478D02*
X1917322Y-138002D01*
X1877014Y-94158D02*
X1920858Y-138002D01*
X1869943Y-94158D02*
X1913787Y-138002D01*
X1868025D02*
X1911869Y-94158D01*
X1871560Y-138002D02*
X1915404Y-94158D01*
X1885702Y-138002D02*
X1929547Y-94158D01*
X1884085D02*
X1927929Y-138002D01*
X1887620Y-94158D02*
X1931465Y-138002D01*
X1880549Y-94158D02*
X1924393Y-138002D01*
X1878631D02*
X1922475Y-94158D01*
X1882167Y-138002D02*
X1926011Y-94158D01*
X1853883Y-138002D02*
X1897727Y-94158D01*
X1852265D02*
X1896109Y-138002D01*
X1855801Y-94158D02*
X1899645Y-138002D01*
X1848730Y-94158D02*
X1892574Y-138002D01*
X1846812D02*
X1890656Y-94158D01*
X1850347Y-138002D02*
X1894191Y-94158D01*
X1864489Y-138002D02*
X1908333Y-94158D01*
X1862872D02*
X1906716Y-138002D01*
X1866407Y-94158D02*
X1910251Y-138002D01*
X1859336Y-94158D02*
X1903180Y-138002D01*
X1857418D02*
X1901262Y-94158D01*
X1860954Y-138002D02*
X1904798Y-94158D01*
X1915905D02*
X1959749Y-138002D01*
X1913987D02*
X1957831Y-94158D01*
X1917522Y-138002D02*
X1961366Y-94158D01*
X1910451Y-138002D02*
X1954295Y-94158D01*
X1908834D02*
X1952678Y-138002D01*
X1912369Y-94158D02*
X1956213Y-138002D01*
X1926511Y-94158D02*
X1970355Y-138002D01*
X1924593D02*
X1968437Y-94158D01*
X1928129Y-138002D02*
X1971973Y-94158D01*
X1921058Y-138002D02*
X1964902Y-94158D01*
X1919440D02*
X1963284Y-138002D01*
X1922976Y-94158D02*
X1966820Y-138002D01*
X1896309D02*
X1940153Y-94158D01*
X1894691D02*
X1938536Y-138002D01*
X1898227Y-94158D02*
X1942071Y-138002D01*
X1891156Y-94158D02*
X1935000Y-138002D01*
X1889238D02*
X1933082Y-94158D01*
X1892773Y-138002D02*
X1936618Y-94158D01*
X1905298D02*
X1949142Y-138002D01*
X1903380D02*
X1947224Y-94158D01*
X1906916Y-138002D02*
X1950760Y-94158D01*
X1899845Y-138002D02*
X1943689Y-94158D01*
X1901763D02*
X1945607Y-138002D01*
X1792161Y-94158D02*
X1836005Y-138002D01*
X1790243D02*
X1834087Y-94158D01*
X1793779Y-138002D02*
X1837623Y-94158D01*
X1786707Y-138002D02*
X1830552Y-94158D01*
X1785090D02*
X1828934Y-138002D01*
X1788626Y-94158D02*
X1832470Y-138002D01*
X1802768Y-94158D02*
X1846612Y-138002D01*
X1800850D02*
X1844694Y-94158D01*
X1804385Y-138002D02*
X1848229Y-94158D01*
X1797314Y-138002D02*
X1841158Y-94158D01*
X1795697D02*
X1839541Y-138002D01*
X1799232Y-94158D02*
X1843076Y-138002D01*
X1770948Y-94158D02*
X1814792Y-138002D01*
X1769030D02*
X1812874Y-94158D01*
X1772565Y-138002D02*
X1816409Y-94158D01*
X1765494Y-138002D02*
X1809339Y-94158D01*
X1763877D02*
X1807721Y-138002D01*
X1767412Y-94158D02*
X1811256Y-138002D01*
X1781554Y-94158D02*
X1825399Y-138002D01*
X1779637D02*
X1823481Y-94158D01*
X1783172Y-138002D02*
X1827016Y-94158D01*
X1776101Y-138002D02*
X1819945Y-94158D01*
X1774483D02*
X1818328Y-138002D01*
X1778019Y-94158D02*
X1821863Y-138002D01*
X1832669D02*
X1876514Y-94158D01*
X1831052D02*
X1874896Y-138002D01*
X1834587Y-94158D02*
X1878432Y-138002D01*
X1827516Y-94158D02*
X1871361Y-138002D01*
X1825598D02*
X1869443Y-94158D01*
X1829134Y-138002D02*
X1872978Y-94158D01*
X1843276Y-138002D02*
X1887120Y-94158D01*
X1841659D02*
X1885503Y-138002D01*
X1845194Y-94158D02*
X1889038Y-138002D01*
X1838123Y-94158D02*
X1881967Y-138002D01*
X1836205D02*
X1880049Y-94158D01*
X1839741Y-138002D02*
X1883585Y-94158D01*
X1813374D02*
X1857218Y-138002D01*
X1811456D02*
X1855300Y-94158D01*
X1814992Y-138002D02*
X1858836Y-94158D01*
X1807921Y-138002D02*
X1851765Y-94158D01*
X1806303D02*
X1850147Y-138002D01*
X1809839Y-94158D02*
X1853683Y-138002D01*
X1822063D02*
X1865907Y-94158D01*
X1820445D02*
X1864289Y-138002D01*
X1823981Y-94158D02*
X1867825Y-138002D01*
X1816910Y-94158D02*
X1860754Y-138002D01*
X1818527D02*
X1862371Y-94158D01*
X1627609Y-138002D02*
X1671453Y-94158D01*
X1625991D02*
X1669835Y-138002D01*
X1629527Y-94158D02*
X1673371Y-138002D01*
X1622456Y-94158D02*
X1666300Y-138002D01*
X1620538D02*
X1664382Y-94158D01*
X1624073Y-138002D02*
X1667917Y-94158D01*
X1638215Y-138002D02*
X1682059Y-94158D01*
X1636598D02*
X1680442Y-138002D01*
X1640133Y-94158D02*
X1683977Y-138002D01*
X1633062Y-94158D02*
X1676906Y-138002D01*
X1631144D02*
X1674988Y-94158D01*
X1634680Y-138002D02*
X1678524Y-94158D01*
X1606396Y-138002D02*
X1650240Y-94158D01*
X1604778D02*
X1648622Y-138002D01*
X1608314Y-94158D02*
X1652158Y-138002D01*
X1601242Y-94158D02*
X1645087Y-138002D01*
X1599325D02*
X1643169Y-94158D01*
X1602860Y-138002D02*
X1646704Y-94158D01*
X1617002Y-138002D02*
X1660846Y-94158D01*
X1615385D02*
X1659229Y-138002D01*
X1618920Y-94158D02*
X1662764Y-138002D01*
X1611849Y-94158D02*
X1655693Y-138002D01*
X1609931D02*
X1653775Y-94158D01*
X1613467Y-138002D02*
X1657311Y-94158D01*
X2237638D02*
X2299199Y-155719D01*
X2234102Y-94158D02*
X2295663Y-155719D01*
X2241173Y-94158D02*
X2302734Y-155719D01*
X2227031Y-94158D02*
X2288592Y-155719D01*
X2223496Y-94158D02*
X2285056Y-155719D01*
X2230567Y-94158D02*
X2292127Y-155719D01*
X2258851Y-94158D02*
X2320412Y-155719D01*
X2255316Y-94158D02*
X2316876Y-155719D01*
X2262387Y-94158D02*
X2323947Y-155719D01*
X2248244Y-94158D02*
X2309805Y-155719D01*
X2244709Y-94158D02*
X2306270Y-155719D01*
X2251780Y-94158D02*
X2313341Y-155719D01*
X1648822Y-138002D02*
X1692666Y-94158D01*
X1647204D02*
X1691048Y-138002D01*
X1650740Y-94158D02*
X1694584Y-138002D01*
X1643669Y-94158D02*
X1687513Y-138002D01*
X1641751D02*
X1685595Y-94158D01*
X1645286Y-138002D02*
X1689131Y-94158D01*
X2216425D02*
X2260304Y-138038D01*
X1657811Y-94158D02*
X1701655Y-138002D01*
X2219960Y-94158D02*
X2281521Y-155719D01*
X1654275Y-94158D02*
X1698120Y-138002D01*
X1652357D02*
X1696202Y-94158D01*
X1655893Y-138002D02*
X1699737Y-94158D01*
X1486187Y-138002D02*
X1530032Y-94158D01*
X1484570D02*
X1528414Y-138002D01*
X1488105Y-94158D02*
X1531950Y-138002D01*
X1481034Y-94158D02*
X1524879Y-138002D01*
X1479116D02*
X1522961Y-94158D01*
X1482652Y-138002D02*
X1526496Y-94158D01*
X1496794Y-138002D02*
X1540638Y-94158D01*
X1495177D02*
X1539021Y-138002D01*
X1498712Y-94158D02*
X1542556Y-138002D01*
X1491641Y-94158D02*
X1535485Y-138002D01*
X1489723D02*
X1533567Y-94158D01*
X1493259Y-138002D02*
X1537103Y-94158D01*
X1459821D02*
X1503665Y-138002D01*
X1457903D02*
X1501747Y-94158D01*
X1461439Y-138002D02*
X1505283Y-94158D01*
X1454368Y-138002D02*
X1498212Y-94158D01*
X1452750D02*
X1496594Y-138002D01*
X1456286Y-94158D02*
X1500130Y-138002D01*
X1475581D02*
X1519425Y-94158D01*
X1473963D02*
X1517807Y-138002D01*
X1477499Y-94158D02*
X1521343Y-138002D01*
X1464974D02*
X1508818Y-94158D01*
X1463357D02*
X1507201Y-138002D01*
X1468510D02*
X1512354Y-94158D01*
X1585182Y-138002D02*
X1629026Y-94158D01*
X1583565D02*
X1627409Y-138002D01*
X1587100Y-94158D02*
X1630944Y-138002D01*
X1580029Y-94158D02*
X1623873Y-138002D01*
X1578111D02*
X1621955Y-94158D01*
X1581647Y-138002D02*
X1625491Y-94158D01*
X1595789Y-138002D02*
X1639633Y-94158D01*
X1594171D02*
X1638016Y-138002D01*
X1597707Y-94158D02*
X1641551Y-138002D01*
X1590636Y-94158D02*
X1634480Y-138002D01*
X1588718D02*
X1632562Y-94158D01*
X1592253Y-138002D02*
X1636098Y-94158D01*
X1507401Y-138002D02*
X1551245Y-94158D01*
X1505783D02*
X1549627Y-138002D01*
X1567505D02*
X1611349Y-94158D01*
X1502248D02*
X1546092Y-138002D01*
X1500330D02*
X1544174Y-94158D01*
X1503865Y-138002D02*
X1547709Y-94158D01*
X1574576Y-138002D02*
X1618420Y-94158D01*
X1572958D02*
X1616802Y-138002D01*
X1576494Y-94158D02*
X1620338Y-138002D01*
X1569423Y-94158D02*
X1613267Y-138002D01*
X1571040D02*
X1614884Y-94158D01*
X2319761Y-102032D02*
X2362304Y-144576D01*
X2323296Y-102032D02*
X2362304Y-141040D01*
X2316225Y-102032D02*
X2362304Y-148111D01*
X2309154Y-102032D02*
X2362304Y-155182D01*
X2312690Y-102032D02*
X2362304Y-151647D01*
X2313463Y-155719D02*
X2362304Y-106878D01*
X2331140Y-155719D02*
X2362304Y-124555D01*
X2327605Y-155719D02*
X2362304Y-121020D01*
X2352353Y-155719D02*
X2362304Y-145769D01*
X2320534Y-155719D02*
X2362304Y-113949D01*
X2316998Y-155719D02*
X2362304Y-110413D01*
X2324069Y-155719D02*
X2362304Y-117484D01*
X2334676Y-155719D02*
X2362304Y-128091D01*
X2309927Y-155719D02*
X2362162Y-103484D01*
X2362304Y-155719D02*
Y-104269D01*
X2265310Y-147303D02*
X2310581Y-102032D01*
X2265310Y-143767D02*
X2307045Y-102032D01*
X2306392Y-155719D02*
X2360078Y-102032D01*
X2355889Y-155719D02*
X2362304Y-149304D01*
X2348818Y-155719D02*
X2362304Y-142233D01*
X2359425Y-155719D02*
X2362304Y-152840D01*
X2341747Y-155719D02*
X2362304Y-135162D01*
X2338211Y-155719D02*
X2362304Y-131626D01*
X2345282Y-155719D02*
X2362304Y-138698D01*
X2295009Y-102032D02*
X2348696Y-155719D01*
X2292249D02*
X2345936Y-102032D01*
X2295785Y-155719D02*
X2349472Y-102032D01*
X2288714Y-155719D02*
X2342401Y-102032D01*
X2287938D02*
X2341625Y-155719D01*
X2291474Y-102032D02*
X2345160Y-155719D01*
X2302856D02*
X2356543Y-102032D01*
X2302083D02*
X2355770Y-155719D01*
X2305618Y-102032D02*
X2359305Y-155719D01*
X2299320D02*
X2353007Y-102032D01*
X2298545D02*
X2352231Y-155719D01*
X2302080Y-102032D02*
X2355767Y-155719D01*
X2284403Y-102032D02*
X2338089Y-155719D01*
X2281643D02*
X2335329Y-102032D01*
X2285178Y-155719D02*
X2338865Y-102032D01*
X2278107Y-155719D02*
X2331794Y-102032D01*
X2273434Y-101671D02*
X2327483Y-155719D01*
X2280867Y-102032D02*
X2334554Y-155719D01*
X2274572D02*
X2328258Y-102032D01*
X2271036Y-155719D02*
X2324723Y-102032D01*
X2277332D02*
X2331018Y-155719D01*
X2265310Y-146579D02*
X2274450Y-155719D01*
X2267501D02*
X2321187Y-102032D01*
X1553363Y-138002D02*
X1597207Y-94158D01*
X1551745D02*
X1595589Y-138002D01*
X1555281Y-94158D02*
X1599125Y-138002D01*
X1548209Y-94158D02*
X1592054Y-138002D01*
X1546292D02*
X1590136Y-94158D01*
X1549827Y-138002D02*
X1593671Y-94158D01*
X1563969Y-138002D02*
X1607813Y-94158D01*
X1562352D02*
X1606196Y-138002D01*
X1565887Y-94158D02*
X1609731Y-138002D01*
X1558816Y-94158D02*
X1602660Y-138002D01*
X1556898D02*
X1600742Y-94158D01*
X1560434Y-138002D02*
X1604278Y-94158D01*
X1516390D02*
X1560234Y-138002D01*
X1514472D02*
X1558316Y-94158D01*
X1518007Y-138002D02*
X1561851Y-94158D01*
X1510936Y-138002D02*
X1554780Y-94158D01*
X1470428D02*
X1514272Y-138002D01*
X1512854Y-94158D02*
X1556698Y-138002D01*
X1542756D02*
X1586600Y-94158D01*
X1541138D02*
X1584983Y-138002D01*
X1544674Y-94158D02*
X1588518Y-138002D01*
X1537603Y-94158D02*
X1581447Y-138002D01*
X1535685D02*
X1579529Y-94158D01*
X1539220Y-138002D02*
X1583065Y-94158D01*
X2265310Y-150839D02*
X2314116Y-102032D01*
X2264615Y-140927D02*
X2303510Y-102032D01*
X2265310Y-154374D02*
X2317652Y-102032D01*
X2260419Y-138052D02*
X2296439Y-102032D01*
X1534067Y-94158D02*
X1577911Y-138002D01*
X2262952Y-139054D02*
X2299974Y-102032D01*
X2265310Y-150115D02*
X2270914Y-155719D01*
X2265310Y-153650D02*
X2267379Y-155719D01*
X2265310D02*
X2362304D01*
X2265275Y-143008D02*
X2277985Y-155719D01*
X2265310D02*
Y-143639D01*
X1521543Y-138002D02*
X1565387Y-94158D01*
X1519925D02*
X1563769Y-138002D01*
X1523461Y-94158D02*
X1567305Y-138002D01*
X1472045D02*
X1515889Y-94158D01*
X1466892D02*
X1510736Y-138002D01*
X1509319Y-94158D02*
X1553163Y-138002D01*
X1530532Y-94158D02*
X1574376Y-138002D01*
X1528614D02*
X1572458Y-94158D01*
X1532149Y-138002D02*
X1575994Y-94158D01*
X1525078Y-138002D02*
X1568923Y-94158D01*
X1526996D02*
X1570840Y-138002D01*
X1166372Y-94158D02*
X1210216Y-138002D01*
X1164454D02*
X1208298Y-94158D01*
X1167990Y-138002D02*
X1211834Y-94158D01*
X1160919Y-138002D02*
X1204763Y-94158D01*
X1159301D02*
X1203145Y-138002D01*
X1162837Y-94158D02*
X1206681Y-138002D01*
X1176979Y-94158D02*
X1220823Y-138002D01*
X1175061D02*
X1218905Y-94158D01*
X1178596Y-138002D02*
X1222441Y-94158D01*
X1171525Y-138002D02*
X1215369Y-94158D01*
X1169908D02*
X1213752Y-138002D01*
X1173443Y-94158D02*
X1217287Y-138002D01*
X1145159Y-94158D02*
X1189003Y-138002D01*
X1143241D02*
X1187085Y-94158D01*
X1146777Y-138002D02*
X1190621Y-94158D01*
X1139706Y-138002D02*
X1183550Y-94158D01*
X1138088D02*
X1181932Y-138002D01*
X1141624Y-94158D02*
X1185468Y-138002D01*
X1155766Y-94158D02*
X1199610Y-138002D01*
X1153848D02*
X1197692Y-94158D01*
X1157383Y-138002D02*
X1201227Y-94158D01*
X1150312Y-138002D02*
X1194156Y-94158D01*
X1148695D02*
X1192539Y-138002D01*
X1152230Y-94158D02*
X1196074Y-138002D01*
X1228094D02*
X1271938Y-94158D01*
X1226476D02*
X1270320Y-138002D01*
X1230012Y-94158D02*
X1273856Y-138002D01*
X1203345D02*
X1247189Y-94158D01*
X1201728D02*
X1245572Y-138002D01*
X1205263Y-94158D02*
X1249107Y-138002D01*
X1283045Y-94158D02*
X1326889Y-138002D01*
X1281127D02*
X1324971Y-94158D01*
X1284662Y-138002D02*
X1328506Y-94158D01*
X1233547D02*
X1277392Y-138002D01*
X1231629D02*
X1275473Y-94158D01*
X1240618D02*
X1284463Y-138002D01*
X1187585Y-94158D02*
X1231430Y-138002D01*
X1185667D02*
X1229512Y-94158D01*
X1189203Y-138002D02*
X1233047Y-94158D01*
X1182132Y-138002D02*
X1225976Y-94158D01*
X1180514D02*
X1224358Y-138002D01*
X1184050Y-94158D02*
X1227894Y-138002D01*
X1198192Y-94158D02*
X1242036Y-138002D01*
X1196274D02*
X1240118Y-94158D01*
X1199810Y-138002D02*
X1243654Y-94158D01*
X1192739Y-138002D02*
X1236583Y-94158D01*
X1191121D02*
X1234965Y-138002D01*
X1194656Y-94158D02*
X1238501Y-138002D01*
X1083137D02*
X1126981Y-94158D01*
X1081520D02*
X1125364Y-138002D01*
X1085055Y-94158D02*
X1128899Y-138002D01*
X1077984Y-94158D02*
X1121828Y-138002D01*
X1076066D02*
X1119910Y-94158D01*
X1079601Y-138002D02*
X1123446Y-94158D01*
X1093744Y-138002D02*
X1137588Y-94158D01*
X1092126D02*
X1135970Y-138002D01*
X1095662Y-94158D02*
X1139506Y-138002D01*
X1088591Y-94158D02*
X1132435Y-138002D01*
X1086673D02*
X1130517Y-94158D01*
X1090208Y-138002D02*
X1134052Y-94158D01*
X1061924Y-138002D02*
X1105768Y-94158D01*
X1060306D02*
X1104150Y-138002D01*
X1063842Y-94158D02*
X1107686Y-138002D01*
X1056771Y-94158D02*
X1100615Y-138002D01*
X1054853D02*
X1098697Y-94158D01*
X1058388Y-138002D02*
X1102232Y-94158D01*
X1072530Y-138002D02*
X1116375Y-94158D01*
X1070913D02*
X1114757Y-138002D01*
X1074448Y-94158D02*
X1118293Y-138002D01*
X1067377Y-94158D02*
X1111222Y-138002D01*
X1065459D02*
X1109303Y-94158D01*
X1068995Y-138002D02*
X1112839Y-94158D01*
X1123946D02*
X1167790Y-138002D01*
X1122028D02*
X1165872Y-94158D01*
X1125563Y-138002D02*
X1169408Y-94158D01*
X1118492Y-138002D02*
X1162337Y-94158D01*
X1116875D02*
X1160719Y-138002D01*
X1120410Y-94158D02*
X1164254Y-138002D01*
X1134552Y-94158D02*
X1178397Y-138002D01*
X1132635D02*
X1176479Y-94158D01*
X1136170Y-138002D02*
X1180014Y-94158D01*
X1129099Y-138002D02*
X1172943Y-94158D01*
X1127481D02*
X1171325Y-138002D01*
X1131017Y-94158D02*
X1174861Y-138002D01*
X1104350D02*
X1148194Y-94158D01*
X1102733D02*
X1146577Y-138002D01*
X1106268Y-94158D02*
X1150112Y-138002D01*
X1099197Y-94158D02*
X1143041Y-138002D01*
X1097279D02*
X1141123Y-94158D01*
X1100815Y-138002D02*
X1144659Y-94158D01*
X1113339D02*
X1157183Y-138002D01*
X1111421D02*
X1155265Y-94158D01*
X1114957Y-138002D02*
X1158801Y-94158D01*
X1107886Y-138002D02*
X1151730Y-94158D01*
X1109804D02*
X1153648Y-138002D01*
X1397799D02*
X1441643Y-94158D01*
X1396182D02*
X1440026Y-138002D01*
X1399717Y-94158D02*
X1443561Y-138002D01*
X1392646Y-94158D02*
X1436490Y-138002D01*
X1390728D02*
X1434572Y-94158D01*
X1394264Y-138002D02*
X1438108Y-94158D01*
X1408406Y-138002D02*
X1452250Y-94158D01*
X1406788D02*
X1450632Y-138002D01*
X1410324Y-94158D02*
X1454168Y-138002D01*
X1403253Y-94158D02*
X1447097Y-138002D01*
X1401335D02*
X1445179Y-94158D01*
X1404870Y-138002D02*
X1448714Y-94158D01*
X1376586Y-138002D02*
X1420430Y-94158D01*
X1374969D02*
X1418813Y-138002D01*
X1378504Y-94158D02*
X1422348Y-138002D01*
X1371433Y-94158D02*
X1415277Y-138002D01*
X1369515D02*
X1413359Y-94158D01*
X1373050Y-138002D02*
X1416895Y-94158D01*
X1387193Y-138002D02*
X1431037Y-94158D01*
X1385575D02*
X1429419Y-138002D01*
X1389111Y-94158D02*
X1432955Y-138002D01*
X1382040Y-94158D02*
X1425884Y-138002D01*
X1380122D02*
X1423966Y-94158D01*
X1383657Y-138002D02*
X1427501Y-94158D01*
X1438608D02*
X1482452Y-138002D01*
X1436690D02*
X1480534Y-94158D01*
X1440226Y-138002D02*
X1484070Y-94158D01*
X1433155Y-138002D02*
X1476999Y-94158D01*
X1431537D02*
X1475381Y-138002D01*
X1435073Y-94158D02*
X1478917Y-138002D01*
X1449215Y-94158D02*
X1493059Y-138002D01*
X1447297D02*
X1491141Y-94158D01*
X1450832Y-138002D02*
X1494676Y-94158D01*
X1443761Y-138002D02*
X1487605Y-94158D01*
X1442144D02*
X1485988Y-138002D01*
X1445679Y-94158D02*
X1489523Y-138002D01*
X1419012D02*
X1462857Y-94158D01*
X1417395D02*
X1461239Y-138002D01*
X1420930Y-94158D02*
X1464775Y-138002D01*
X1413859Y-94158D02*
X1457703Y-138002D01*
X1411941D02*
X1455785Y-94158D01*
X1415477Y-138002D02*
X1459321Y-94158D01*
X1428001D02*
X1471846Y-138002D01*
X1426083D02*
X1469928Y-94158D01*
X1429619Y-138002D02*
X1473463Y-94158D01*
X1422548Y-138002D02*
X1466392Y-94158D01*
X1424466D02*
X1468310Y-138002D01*
X1314865Y-94158D02*
X1358709Y-138002D01*
X1312947D02*
X1356791Y-94158D01*
X1316482Y-138002D02*
X1360326Y-94158D01*
X1309411Y-138002D02*
X1353255Y-94158D01*
X1307794D02*
X1351638Y-138002D01*
X1311329Y-94158D02*
X1355173Y-138002D01*
X1325471Y-94158D02*
X1369315Y-138002D01*
X1323553D02*
X1367397Y-94158D01*
X1327089Y-138002D02*
X1370933Y-94158D01*
X1320018Y-138002D02*
X1363862Y-94158D01*
X1318400D02*
X1362244Y-138002D01*
X1321936Y-94158D02*
X1365780Y-138002D01*
X1293651Y-94158D02*
X1337496Y-138002D01*
X1291733D02*
X1335577Y-94158D01*
X1295269Y-138002D02*
X1339113Y-94158D01*
X1288198Y-138002D02*
X1332042Y-94158D01*
X1286580D02*
X1330424Y-138002D01*
X1290116Y-94158D02*
X1333960Y-138002D01*
X1304258Y-94158D02*
X1348102Y-138002D01*
X1302340D02*
X1346184Y-94158D01*
X1305875Y-138002D02*
X1349720Y-94158D01*
X1298804Y-138002D02*
X1342649Y-94158D01*
X1297187D02*
X1341031Y-138002D01*
X1300722Y-94158D02*
X1344567Y-138002D01*
X1355373D02*
X1399217Y-94158D01*
X1353755D02*
X1397600Y-138002D01*
X1357291Y-94158D02*
X1401135Y-138002D01*
X1350220Y-94158D02*
X1394064Y-138002D01*
X1348302D02*
X1392146Y-94158D01*
X1351837Y-138002D02*
X1395681Y-94158D01*
X1365979Y-138002D02*
X1409824Y-94158D01*
X1364362D02*
X1408206Y-138002D01*
X1367898Y-94158D02*
X1411742Y-138002D01*
X1360826Y-94158D02*
X1404671Y-138002D01*
X1358908D02*
X1402752Y-94158D01*
X1362444Y-138002D02*
X1406288Y-94158D01*
X1336078D02*
X1379922Y-138002D01*
X1334160D02*
X1378004Y-94158D01*
X1337695Y-138002D02*
X1381539Y-94158D01*
X1330624Y-138002D02*
X1374468Y-94158D01*
X1329007D02*
X1372851Y-138002D01*
X1332542Y-94158D02*
X1376386Y-138002D01*
X1344766D02*
X1388610Y-94158D01*
X1343149D02*
X1386993Y-138002D01*
X1346684Y-94158D02*
X1390528Y-138002D01*
X1339613Y-94158D02*
X1383457Y-138002D01*
X1341231D02*
X1385075Y-94158D01*
X687158Y-138002D02*
X731002Y-94158D01*
X685540D02*
X729384Y-138002D01*
X689076Y-94158D02*
X732920Y-138002D01*
X682005Y-94158D02*
X725849Y-138002D01*
X680087D02*
X723931Y-94158D01*
X683622Y-138002D02*
X727466Y-94158D01*
X697764Y-138002D02*
X741608Y-94158D01*
X696147D02*
X739991Y-138002D01*
X699682Y-94158D02*
X743526Y-138002D01*
X692611Y-94158D02*
X736455Y-138002D01*
X690693D02*
X734537Y-94158D01*
X694229Y-138002D02*
X738073Y-94158D01*
X665944Y-138002D02*
X709789Y-94158D01*
X664327D02*
X708171Y-138002D01*
X667863Y-94158D02*
X711707Y-138002D01*
X660791Y-94158D02*
X704636Y-138002D01*
X658874D02*
X702718Y-94158D01*
X662409Y-138002D02*
X706253Y-94158D01*
X676551Y-138002D02*
X720395Y-94158D01*
X674934D02*
X718778Y-138002D01*
X678469Y-94158D02*
X722313Y-138002D01*
X671398Y-94158D02*
X715242Y-138002D01*
X669480D02*
X713324Y-94158D01*
X673016Y-138002D02*
X716860Y-94158D01*
X729584Y-138002D02*
X773428Y-94158D01*
X727966D02*
X771811Y-138002D01*
X731502Y-94158D02*
X775346Y-138002D01*
X724431Y-94158D02*
X768275Y-138002D01*
X722513D02*
X766357Y-94158D01*
X726049Y-138002D02*
X769893Y-94158D01*
X740191Y-138002D02*
X784035Y-94158D01*
X738573D02*
X782417Y-138002D01*
X742109Y-94158D02*
X785953Y-138002D01*
X735038Y-94158D02*
X778882Y-138002D01*
X733120D02*
X776964Y-94158D01*
X736655Y-138002D02*
X780499Y-94158D01*
X708371Y-138002D02*
X752215Y-94158D01*
X706753D02*
X750597Y-138002D01*
X710289Y-94158D02*
X754133Y-138002D01*
X703218Y-94158D02*
X747062Y-138002D01*
X701300D02*
X745144Y-94158D01*
X704835Y-138002D02*
X748679Y-94158D01*
X718977Y-138002D02*
X762822Y-94158D01*
X717360D02*
X761204Y-138002D01*
X720895Y-94158D02*
X764740Y-138002D01*
X713824Y-94158D02*
X757668Y-138002D01*
X711906D02*
X755751Y-94158D01*
X715442Y-138002D02*
X759286Y-94158D01*
X604223D02*
X648067Y-138002D01*
X602305D02*
X646149Y-94158D01*
X605840Y-138002D02*
X649685Y-94158D01*
X598770Y-138002D02*
X642614Y-94158D01*
X597152D02*
X640996Y-138002D01*
X600688Y-94158D02*
X644532Y-138002D01*
X614830Y-94158D02*
X658674Y-138002D01*
X612912D02*
X656756Y-94158D01*
X616447Y-138002D02*
X660291Y-94158D01*
X609376Y-138002D02*
X653220Y-94158D01*
X607759D02*
X651603Y-138002D01*
X611294Y-94158D02*
X655138Y-138002D01*
X583010Y-94158D02*
X626854Y-138002D01*
X581092D02*
X624936Y-94158D01*
X584627Y-138002D02*
X628472Y-94158D01*
X577556Y-138002D02*
X621400Y-94158D01*
X575939D02*
X619783Y-138002D01*
X579474Y-94158D02*
X623318Y-138002D01*
X593616Y-94158D02*
X637461Y-138002D01*
X591698D02*
X635542Y-94158D01*
X595234Y-138002D02*
X639078Y-94158D01*
X588163Y-138002D02*
X632007Y-94158D01*
X586545D02*
X630389Y-138002D01*
X590081Y-94158D02*
X633925Y-138002D01*
X644731D02*
X688576Y-94158D01*
X643114D02*
X686958Y-138002D01*
X646649Y-94158D02*
X690493Y-138002D01*
X639578Y-94158D02*
X683422Y-138002D01*
X637660D02*
X681504Y-94158D01*
X641196Y-138002D02*
X685040Y-94158D01*
X655338Y-138002D02*
X699182Y-94158D01*
X653720D02*
X697565Y-138002D01*
X657256Y-94158D02*
X701100Y-138002D01*
X650185Y-94158D02*
X694029Y-138002D01*
X648267D02*
X692111Y-94158D01*
X651802Y-138002D02*
X695646Y-94158D01*
X625436D02*
X669280Y-138002D01*
X623518D02*
X667362Y-94158D01*
X627054Y-138002D02*
X670898Y-94158D01*
X619983Y-138002D02*
X663827Y-94158D01*
X618365D02*
X662209Y-138002D01*
X621901Y-94158D02*
X665745Y-138002D01*
X634125D02*
X677969Y-94158D01*
X632507D02*
X676351Y-138002D01*
X636043Y-94158D02*
X679887Y-138002D01*
X628972Y-94158D02*
X672816Y-138002D01*
X630589D02*
X674433Y-94158D01*
X984142Y-138002D02*
X1027986Y-94158D01*
X982525D02*
X1026369Y-138002D01*
X986060Y-94158D02*
X1029904Y-138002D01*
X978989Y-94158D02*
X1022833Y-138002D01*
X977071D02*
X1020915Y-94158D01*
X980607Y-138002D02*
X1024451Y-94158D01*
X994749Y-138002D02*
X1038593Y-94158D01*
X993131D02*
X1036975Y-138002D01*
X996667Y-94158D02*
X1040511Y-138002D01*
X989596Y-94158D02*
X1033440Y-138002D01*
X987678D02*
X1031522Y-94158D01*
X991213Y-138002D02*
X1035057Y-94158D01*
X962929Y-138002D02*
X1006773Y-94158D01*
X961312D02*
X1005156Y-138002D01*
X964847Y-94158D02*
X1008691Y-138002D01*
X957776Y-94158D02*
X1001620Y-138002D01*
X955858D02*
X999702Y-94158D01*
X959394Y-138002D02*
X1003238Y-94158D01*
X973536Y-138002D02*
X1017380Y-94158D01*
X971918D02*
X1015762Y-138002D01*
X975454Y-94158D02*
X1019298Y-138002D01*
X968383Y-94158D02*
X1012227Y-138002D01*
X966465D02*
X1010309Y-94158D01*
X970000Y-138002D02*
X1013844Y-94158D01*
X1040711Y-138002D02*
X1084555Y-94158D01*
X1039093D02*
X1082937Y-138002D01*
X1042629Y-94158D02*
X1086473Y-138002D01*
X1035558Y-94158D02*
X1079402Y-138002D01*
X1033640D02*
X1077484Y-94158D01*
X1037175Y-138002D02*
X1081019Y-94158D01*
X1051317Y-138002D02*
X1095161Y-94158D01*
X1049700D02*
X1093544Y-138002D01*
X1053235Y-94158D02*
X1097079Y-138002D01*
X1046164Y-94158D02*
X1090008Y-138002D01*
X1044246D02*
X1088090Y-94158D01*
X1047782Y-138002D02*
X1091626Y-94158D01*
X1019497Y-138002D02*
X1063342Y-94158D01*
X1014345D02*
X1058189Y-138002D01*
X1021416Y-94158D02*
X1065260Y-138002D01*
X1000202Y-94158D02*
X1044046Y-138002D01*
X998284D02*
X1042128Y-94158D01*
X1001820Y-138002D02*
X1045664Y-94158D01*
X1030104Y-138002D02*
X1073948Y-94158D01*
X1028487D02*
X1072331Y-138002D01*
X1032022Y-94158D02*
X1075866Y-138002D01*
X1024951Y-94158D02*
X1068795Y-138002D01*
X1023033D02*
X1066877Y-94158D01*
X1026569Y-138002D02*
X1070413Y-94158D01*
X772010Y-138002D02*
X815855Y-94158D01*
X770393D02*
X814237Y-138002D01*
X773928Y-94158D02*
X817772Y-138002D01*
X766857Y-94158D02*
X810701Y-138002D01*
X764939D02*
X808784Y-94158D01*
X768475Y-138002D02*
X812319Y-94158D01*
X781000D02*
X824844Y-138002D01*
X779081D02*
X822926Y-94158D01*
X782617Y-138002D02*
X826461Y-94158D01*
X134475D02*
X2269784D01*
X775546Y-138002D02*
X819390Y-94158D01*
X777464D02*
X821308Y-138002D01*
X750797D02*
X794641Y-94158D01*
X749180D02*
X793024Y-138002D01*
X752715Y-94158D02*
X796559Y-138002D01*
X745644Y-94158D02*
X789488Y-138002D01*
X743726D02*
X787570Y-94158D01*
X747262Y-138002D02*
X791106Y-94158D01*
X761404Y-138002D02*
X805248Y-94158D01*
X759786D02*
X803630Y-138002D01*
X763322Y-94158D02*
X807166Y-138002D01*
X756251Y-94158D02*
X800095Y-138002D01*
X754333D02*
X798177Y-94158D01*
X757868Y-138002D02*
X801712Y-94158D01*
X941716Y-138002D02*
X985560Y-94158D01*
X940098D02*
X983943Y-138002D01*
X943634Y-94158D02*
X987478Y-138002D01*
X936563Y-94158D02*
X980407Y-138002D01*
X934645D02*
X978489Y-94158D01*
X938180Y-138002D02*
X982024Y-94158D01*
X952322Y-138002D02*
X996167Y-94158D01*
X950705D02*
X994549Y-138002D01*
X954241Y-94158D02*
X998085Y-138002D01*
X947169Y-94158D02*
X991014Y-138002D01*
X945251D02*
X989095Y-94158D01*
X948787Y-138002D02*
X992631Y-94158D01*
X791606D02*
X835450Y-138002D01*
X789688D02*
X833532Y-94158D01*
X924038Y-138002D02*
X967882Y-94158D01*
X786153Y-138002D02*
X829997Y-94158D01*
X784535D02*
X828379Y-138002D01*
X788071Y-94158D02*
X831915Y-138002D01*
X931109D02*
X974953Y-94158D01*
X929492D02*
X973336Y-138002D01*
X933027Y-94158D02*
X976871Y-138002D01*
X925956Y-94158D02*
X969800Y-138002D01*
X927574D02*
X971418Y-94158D01*
X133975Y-94136D02*
X134591Y-94752D01*
X132904D02*
X133570Y-94085D01*
X160224Y-116929D02*
X182995Y-94158D01*
X128404Y-116929D02*
X151175Y-94158D01*
X128404Y-116929D02*
X151175Y-94158D01*
X139443Y-102355D02*
X147639Y-94158D01*
X139443Y-95284D02*
X140568Y-94158D01*
X153153Y-116929D02*
X175924Y-94158D01*
X137533D02*
X138127Y-94752D01*
X136439D02*
X137033Y-94158D01*
X139443Y-98820D02*
X144104Y-94158D01*
X120530Y-41800D02*
X127211Y-48481D01*
X124066Y-41800D02*
X127211Y-44945D01*
X116995Y-41800D02*
X127211Y-52017D01*
X109924Y-41800D02*
X127211Y-59088D01*
X113459Y-41800D02*
X127211Y-55552D01*
X106388Y-41800D02*
X127211Y-62623D01*
X130411Y-93709D02*
X131091Y-93029D01*
X130411Y-94752D02*
Y-92428D01*
Y-94107D02*
X131055Y-94752D01*
X99317Y-41800D02*
X127211Y-69694D01*
X102852Y-41800D02*
X127211Y-66159D01*
Y-98857D02*
Y-41800D01*
X561797Y-94158D02*
X605641Y-138002D01*
X559879D02*
X603723Y-94158D01*
X563414Y-138002D02*
X607258Y-94158D01*
X556343Y-138002D02*
X600187Y-94158D01*
X554726D02*
X598570Y-138002D01*
X558261Y-94158D02*
X602105Y-138002D01*
X572403Y-94158D02*
X616247Y-138002D01*
X570485D02*
X614329Y-94158D01*
X574021Y-138002D02*
X617865Y-94158D01*
X566950Y-138002D02*
X610794Y-94158D01*
X565332D02*
X609176Y-138002D01*
X568868Y-94158D02*
X612712Y-138002D01*
X139576Y-126971D02*
X172388Y-94158D01*
X130358Y-129118D02*
X165317Y-94158D01*
X131676Y-131335D02*
X168853Y-94158D01*
X130358Y-122047D02*
X158246Y-94158D01*
X130358Y-118511D02*
X154710Y-94158D01*
X130358Y-125582D02*
X161782Y-94158D01*
X551190D02*
X595034Y-138002D01*
X535130D02*
X578974Y-94158D01*
X552808Y-138002D02*
X596652Y-94158D01*
X160279Y-120410D02*
X186530Y-94158D01*
X156688Y-116929D02*
X179459Y-94158D01*
X160279Y-123945D02*
X190066Y-94158D01*
X92246Y-41800D02*
X127211Y-76765D01*
X95781Y-41800D02*
X127211Y-73230D01*
X88710Y-41800D02*
X127211Y-80301D01*
X85175Y-41800D02*
X127211Y-83836D01*
X84305Y-41800D02*
X127211D01*
X84305Y-86782D02*
X127211Y-43876D01*
X84305Y-51537D02*
X127211Y-94443D01*
X84305Y-93853D02*
X127211Y-50947D01*
X84305Y-97389D02*
X127211Y-54483D01*
X84305Y-90318D02*
X127211Y-47412D01*
X84305Y-44466D02*
X127211Y-87372D01*
X84305Y-48001D02*
X127211Y-90907D01*
X84305Y-58498D02*
X101003Y-41800D01*
X84305Y-54962D02*
X97467Y-41800D01*
X84305Y-62034D02*
X104538Y-41800D01*
X84305Y-47891D02*
X90396Y-41800D01*
X84305Y-44356D02*
X86861Y-41800D01*
X84305Y-51427D02*
X93932Y-41800D01*
X84305Y-79711D02*
X122216Y-41800D01*
X84305Y-76176D02*
X118681Y-41800D01*
X84305Y-83247D02*
X125751Y-41800D01*
X84305Y-69105D02*
X111609Y-41800D01*
X84305Y-65569D02*
X108074Y-41800D01*
X84305Y-72640D02*
X115145Y-41800D01*
X84305Y-111531D02*
X127211Y-68625D01*
X84305Y-107995D02*
X127211Y-65089D01*
X84305Y-69214D02*
X146193Y-131102D01*
X84305Y-58608D02*
X129368Y-103671D01*
X84305Y-104460D02*
X127211Y-61554D01*
X84305Y-62143D02*
X149811Y-127649D01*
X84506Y-132543D02*
X127211Y-89838D01*
X84305Y-122138D02*
X127211Y-79231D01*
X86274Y-134311D02*
X127211Y-93374D01*
X84305Y-72750D02*
X128484Y-116929D01*
X84305Y-115067D02*
X127211Y-72160D01*
X84305Y-118602D02*
X127211Y-75696D01*
X84305Y-76285D02*
X124948Y-116929D01*
X84305Y-79821D02*
X121413Y-116929D01*
X84305Y-125673D02*
X127211Y-82767D01*
X84305Y-100924D02*
X127211Y-58018D01*
X84305Y-55072D02*
X127211Y-97978D01*
X84305Y-132342D02*
Y-41800D01*
Y-90428D02*
X119890Y-126012D01*
X84305Y-86892D02*
X119890Y-122477D01*
X84305Y-93963D02*
X119890Y-129548D01*
X84305Y-83356D02*
X119890Y-118941D01*
X84305Y-129209D02*
X127211Y-86302D01*
X139443Y-99603D02*
X156768Y-116929D01*
X139443Y-103139D02*
X153233Y-116929D01*
X160279Y-127481D02*
X193601Y-94158D01*
X134058Y-104826D02*
X149811Y-120578D01*
X137594Y-104826D02*
X149811Y-117043D01*
X130523Y-104826D02*
X149811Y-124114D01*
X160279Y-130940D02*
Y-116929D01*
X149811D02*
X160279D01*
X149811Y-130940D02*
X160279D01*
X142515Y-131102D02*
X149811Y-123806D01*
X142214Y-127868D02*
X149811Y-120271D01*
X146051Y-131102D02*
X149811Y-127342D01*
X139443Y-104826D02*
Y-94752D01*
X149811Y-130940D02*
Y-116929D01*
X130411Y-94752D02*
X139443D01*
X130358Y-118802D02*
X138892Y-127337D01*
X130358Y-130940D02*
Y-116929D01*
X142331Y-131102D02*
X142759D01*
X142331D02*
X142759D01*
X147680D01*
X142120Y-130565D02*
X142657Y-131102D01*
X137409D02*
X138484D01*
X547654Y-94158D02*
X591499Y-138002D01*
X545737D02*
X589581Y-94158D01*
X549272Y-138002D02*
X593116Y-94158D01*
X542201Y-138002D02*
X586045Y-94158D01*
X540583D02*
X584428Y-138002D01*
X544119Y-94158D02*
X587963Y-138002D01*
X537048Y-94158D02*
X580892Y-138002D01*
X533512Y-94158D02*
X577356Y-138002D01*
X538665D02*
X582510Y-94158D01*
X147680Y-136544D02*
X153284Y-130940D01*
X147680Y-133008D02*
X149811Y-130877D01*
X531594Y-138002D02*
X575438Y-94158D01*
X141684Y-131102D02*
X142331D01*
X138484D02*
Y-130556D01*
X134088Y-135994D02*
X137409Y-132673D01*
X130358Y-125874D02*
X137409Y-132925D01*
X132840Y-133706D02*
X138124Y-128422D01*
X132686Y-133552D02*
X133678Y-134545D01*
X130706Y-135532D02*
X131288Y-136114D01*
Y-137775D02*
Y-136114D01*
X129368Y-104826D02*
X139443D01*
X129368D02*
Y-101344D01*
X127681Y-99990D02*
X128610Y-100919D01*
X121333Y-116929D02*
X133436Y-104826D01*
X130358Y-122338D02*
X138304Y-130284D01*
X128353Y-130940D02*
X128914Y-131501D01*
X124938Y-134537D02*
X128535Y-130940D01*
X124869Y-116929D02*
X136972Y-104826D01*
X119890Y-116929D02*
X130358D01*
X119890Y-130940D02*
X130358D01*
X84305Y-104570D02*
X114272Y-134537D01*
X84305Y-108105D02*
X110737Y-134537D01*
X84305Y-111641D02*
X107201Y-134537D01*
X84305Y-115176D02*
X103665Y-134537D01*
X121403D02*
X125000Y-130940D01*
X119890D02*
Y-116929D01*
X84305Y-122247D02*
X96594Y-134537D01*
X84305Y-129318D02*
X89523Y-134537D01*
X84305Y-132342D02*
X86500Y-134537D01*
X84305Y-125783D02*
X93059Y-134537D01*
X130358Y-129409D02*
X137409Y-136461D01*
X124817Y-130940D02*
X131288Y-137411D01*
X96654Y-134537D02*
X129368Y-101823D01*
X93119Y-134537D02*
X127673Y-99982D01*
X100190Y-134537D02*
X129901Y-104826D01*
X130030Y-136516D02*
X130860Y-135686D01*
X128233Y-134778D02*
X128488Y-134522D01*
X128520Y-135007D02*
X131288Y-137775D01*
X86500Y-134537D02*
X127388D01*
X89583D02*
X127211Y-96909D01*
X103725Y-134537D02*
X119890Y-118372D01*
X107261Y-134537D02*
X119890Y-121908D01*
X84305Y-101034D02*
X117807Y-134537D01*
X84305Y-118712D02*
X100130Y-134537D01*
X84305Y-97499D02*
X121343Y-134537D01*
X117868D02*
X121464Y-130940D01*
X114332Y-134537D02*
X119890Y-128979D01*
X121282Y-130940D02*
X124879Y-134537D01*
X110796D02*
X119890Y-125443D01*
X110796Y-134537D02*
X119890Y-125443D01*
X455731Y-94158D02*
X499575Y-138002D01*
X453813D02*
X497657Y-94158D01*
X457348Y-138002D02*
X501192Y-94158D01*
X450277Y-138002D02*
X494121Y-94158D01*
X448660D02*
X492504Y-138002D01*
X452195Y-94158D02*
X496039Y-138002D01*
X466337Y-94158D02*
X510181Y-138002D01*
X464419D02*
X508263Y-94158D01*
X467955Y-138002D02*
X511799Y-94158D01*
X460884Y-138002D02*
X504728Y-94158D01*
X459266D02*
X503110Y-138002D01*
X462802Y-94158D02*
X506646Y-138002D01*
X434518Y-94158D02*
X478362Y-138002D01*
X432600D02*
X476444Y-94158D01*
X436135Y-138002D02*
X479979Y-94158D01*
X429064Y-138002D02*
X472908Y-94158D01*
X427447D02*
X471291Y-138002D01*
X430982Y-94158D02*
X474826Y-138002D01*
X445124Y-94158D02*
X488968Y-138002D01*
X443206D02*
X487050Y-94158D01*
X446742Y-138002D02*
X490586Y-94158D01*
X439671Y-138002D02*
X483515Y-94158D01*
X438053D02*
X481897Y-138002D01*
X441589Y-94158D02*
X485433Y-138002D01*
X498157Y-94158D02*
X542001Y-138002D01*
X496239D02*
X540083Y-94158D01*
X499775Y-138002D02*
X543619Y-94158D01*
X492704Y-138002D02*
X536548Y-94158D01*
X491086D02*
X534930Y-138002D01*
X494622Y-94158D02*
X538466Y-138002D01*
X508764Y-94158D02*
X552608Y-138002D01*
X506846D02*
X550690Y-94158D01*
X510381Y-138002D02*
X554225Y-94158D01*
X503310Y-138002D02*
X547154Y-94158D01*
X501693D02*
X545537Y-138002D01*
X505228Y-94158D02*
X549072Y-138002D01*
X476944Y-94158D02*
X520788Y-138002D01*
X475026D02*
X518870Y-94158D01*
X478561Y-138002D02*
X522406Y-94158D01*
X471490Y-138002D02*
X515335Y-94158D01*
X469873D02*
X513717Y-138002D01*
X473408Y-94158D02*
X517252Y-138002D01*
X487550Y-94158D02*
X531395Y-138002D01*
X485633D02*
X529477Y-94158D01*
X489168Y-138002D02*
X533012Y-94158D01*
X482097Y-138002D02*
X525941Y-94158D01*
X480479D02*
X524324Y-138002D01*
X484015Y-94158D02*
X527859Y-138002D01*
X372496D02*
X416340Y-94158D01*
X370878D02*
X414722Y-138002D01*
X374413Y-94158D02*
X418258Y-138002D01*
X367342Y-94158D02*
X411187Y-138002D01*
X365424D02*
X409269Y-94158D01*
X368960Y-138002D02*
X412804Y-94158D01*
X383102Y-138002D02*
X426946Y-94158D01*
X381485D02*
X425329Y-138002D01*
X385020Y-94158D02*
X428864Y-138002D01*
X377949Y-94158D02*
X421793Y-138002D01*
X376031D02*
X419875Y-94158D01*
X379567Y-138002D02*
X423411Y-94158D01*
X351282Y-138002D02*
X395127Y-94158D01*
X349665D02*
X393509Y-138002D01*
X353200Y-94158D02*
X397044Y-138002D01*
X346129Y-94158D02*
X389973Y-138002D01*
X344211D02*
X388055Y-94158D01*
X347747Y-138002D02*
X391591Y-94158D01*
X361889Y-138002D02*
X405733Y-94158D01*
X360271D02*
X404115Y-138002D01*
X363807Y-94158D02*
X407651Y-138002D01*
X356736Y-94158D02*
X400580Y-138002D01*
X354818D02*
X398662Y-94158D01*
X358353Y-138002D02*
X402198Y-94158D01*
X413304D02*
X457149Y-138002D01*
X411386D02*
X455231Y-94158D01*
X414922Y-138002D02*
X458766Y-94158D01*
X407851Y-138002D02*
X451695Y-94158D01*
X406233D02*
X450077Y-138002D01*
X409769Y-94158D02*
X453613Y-138002D01*
X423911Y-94158D02*
X467755Y-138002D01*
X421993D02*
X465837Y-94158D01*
X425528Y-138002D02*
X469373Y-94158D01*
X418457Y-138002D02*
X462302Y-94158D01*
X416840D02*
X460684Y-138002D01*
X420375Y-94158D02*
X464220Y-138002D01*
X393709D02*
X437553Y-94158D01*
X392091D02*
X435935Y-138002D01*
X395627Y-94158D02*
X439471Y-138002D01*
X388556Y-94158D02*
X432400Y-138002D01*
X386638D02*
X430482Y-94158D01*
X390173Y-138002D02*
X434017Y-94158D01*
X402698D02*
X446542Y-138002D01*
X400780D02*
X444624Y-94158D01*
X404315Y-138002D02*
X448159Y-94158D01*
X397244Y-138002D02*
X441088Y-94158D01*
X399162D02*
X443006Y-138002D01*
X883530Y-94158D02*
X927374Y-138002D01*
X881612D02*
X925456Y-94158D01*
X885147Y-138002D02*
X928992Y-94158D01*
X878076Y-138002D02*
X921920Y-94158D01*
X876459D02*
X920303Y-138002D01*
X879994Y-94158D02*
X923839Y-138002D01*
X894136Y-94158D02*
X937981Y-138002D01*
X892218D02*
X936063Y-94158D01*
X895754Y-138002D02*
X939598Y-94158D01*
X888683Y-138002D02*
X932527Y-94158D01*
X887065D02*
X930910Y-138002D01*
X890601Y-94158D02*
X934445Y-138002D01*
X862317Y-94158D02*
X906161Y-138002D01*
X860399D02*
X904243Y-94158D01*
X863934Y-138002D02*
X907778Y-94158D01*
X856863Y-138002D02*
X900707Y-94158D01*
X855246D02*
X899090Y-138002D01*
X858781Y-94158D02*
X902625Y-138002D01*
X872923Y-94158D02*
X916767Y-138002D01*
X871005D02*
X914849Y-94158D01*
X874541Y-138002D02*
X918385Y-94158D01*
X867470Y-138002D02*
X911314Y-94158D01*
X865852D02*
X909696Y-138002D01*
X869388Y-94158D02*
X913232Y-138002D01*
X1003738Y-94158D02*
X1047582Y-138002D01*
X922421Y-94158D02*
X966265Y-138002D01*
X1005355D02*
X1049199Y-94158D01*
X918885D02*
X962729Y-138002D01*
X916967D02*
X960811Y-94158D01*
X920503Y-138002D02*
X964347Y-94158D01*
X1015962Y-138002D02*
X1059806Y-94158D01*
X1012426Y-138002D02*
X1056271Y-94158D01*
X1017880D02*
X1061724Y-138002D01*
X1008891D02*
X1052735Y-94158D01*
X1007273D02*
X1051118Y-138002D01*
X1010809Y-94158D02*
X1054653Y-138002D01*
X904743Y-94158D02*
X948587Y-138002D01*
X902825D02*
X946669Y-94158D01*
X906361Y-138002D02*
X950205Y-94158D01*
X899290Y-138002D02*
X943134Y-94158D01*
X897672D02*
X941516Y-138002D01*
X901208Y-94158D02*
X945052Y-138002D01*
X913432D02*
X957276Y-94158D01*
X911814D02*
X955658Y-138002D01*
X915350Y-94158D02*
X959194Y-138002D01*
X908279Y-94158D02*
X952123Y-138002D01*
X909896D02*
X953740Y-94158D01*
X802213D02*
X846057Y-138002D01*
X800295D02*
X844139Y-94158D01*
X803830Y-138002D02*
X847674Y-94158D01*
X796759Y-138002D02*
X840603Y-94158D01*
X795142D02*
X838986Y-138002D01*
X798677Y-94158D02*
X842521Y-138002D01*
X810901D02*
X854745Y-94158D01*
X809284D02*
X853128Y-138002D01*
X812819Y-94158D02*
X856663Y-138002D01*
X152006D02*
X2259670D01*
X805748Y-94158D02*
X849592Y-138002D01*
X807366D02*
X851210Y-94158D01*
X519370D02*
X563214Y-138002D01*
X517452D02*
X561296Y-94158D01*
X520988Y-138002D02*
X564832Y-94158D01*
X513917Y-138002D02*
X557761Y-94158D01*
X512299D02*
X556143Y-138002D01*
X515835Y-94158D02*
X559679Y-138002D01*
X529977Y-94158D02*
X573821Y-138002D01*
X528059D02*
X571903Y-94158D01*
X793224Y-138002D02*
X837068Y-94158D01*
X524523Y-138002D02*
X568367Y-94158D01*
X522906D02*
X566750Y-138002D01*
X526441Y-94158D02*
X570286Y-138002D01*
X841103Y-94158D02*
X884948Y-138002D01*
X839186D02*
X883030Y-94158D01*
X842721Y-138002D02*
X886565Y-94158D01*
X835650Y-138002D02*
X879494Y-94158D01*
X834032D02*
X877877Y-138002D01*
X837568Y-94158D02*
X881412Y-138002D01*
X851710Y-94158D02*
X895554Y-138002D01*
X849792D02*
X893636Y-94158D01*
X853328Y-138002D02*
X897172Y-94158D01*
X846257Y-138002D02*
X890101Y-94158D01*
X844639D02*
X888483Y-138002D01*
X848175Y-94158D02*
X892019Y-138002D01*
X821508D02*
X865352Y-94158D01*
X819890D02*
X863734Y-138002D01*
X823426Y-94158D02*
X867270Y-138002D01*
X816355Y-94158D02*
X860199Y-138002D01*
X814437D02*
X858281Y-94158D01*
X817972Y-138002D02*
X861817Y-94158D01*
X830497D02*
X874341Y-138002D01*
X828579D02*
X872423Y-94158D01*
X832115Y-138002D02*
X875959Y-94158D01*
X825043Y-138002D02*
X868888Y-94158D01*
X826961D02*
X870805Y-138002D01*
X287643D02*
X331487Y-94158D01*
X286025D02*
X329869Y-138002D01*
X289561Y-94158D02*
X333405Y-138002D01*
X282490Y-94158D02*
X326334Y-138002D01*
X280572D02*
X324416Y-94158D01*
X284107Y-138002D02*
X327951Y-94158D01*
X298249Y-138002D02*
X342093Y-94158D01*
X296632D02*
X340476Y-138002D01*
X300167Y-94158D02*
X344011Y-138002D01*
X293096Y-94158D02*
X336941Y-138002D01*
X291178D02*
X335022Y-94158D01*
X294714Y-138002D02*
X338558Y-94158D01*
X266430Y-138002D02*
X310274Y-94158D01*
X264812D02*
X308656Y-138002D01*
X268348Y-94158D02*
X312192Y-138002D01*
X261277Y-94158D02*
X305121Y-138002D01*
X259359D02*
X303203Y-94158D01*
X262894Y-138002D02*
X306738Y-94158D01*
X277036Y-138002D02*
X320880Y-94158D01*
X275419D02*
X319263Y-138002D01*
X278954Y-94158D02*
X322798Y-138002D01*
X271883Y-94158D02*
X315727Y-138002D01*
X269965D02*
X313809Y-94158D01*
X273501Y-138002D02*
X317345Y-94158D01*
X330069Y-138002D02*
X373913Y-94158D01*
X328452D02*
X372296Y-138002D01*
X331987Y-94158D02*
X375831Y-138002D01*
X324916Y-94158D02*
X368760Y-138002D01*
X322998D02*
X366842Y-94158D01*
X326534Y-138002D02*
X370378Y-94158D01*
X340676Y-138002D02*
X384520Y-94158D01*
X339058D02*
X382902Y-138002D01*
X342594Y-94158D02*
X386438Y-138002D01*
X335523Y-94158D02*
X379367Y-138002D01*
X333605D02*
X377449Y-94158D01*
X337140Y-138002D02*
X380984Y-94158D01*
X308856Y-138002D02*
X352700Y-94158D01*
X307239D02*
X351083Y-138002D01*
X310774Y-94158D02*
X354618Y-138002D01*
X303703Y-94158D02*
X347547Y-138002D01*
X301785D02*
X345629Y-94158D01*
X305321Y-138002D02*
X349165Y-94158D01*
X319463Y-138002D02*
X363307Y-94158D01*
X317845D02*
X361689Y-138002D01*
X321381Y-94158D02*
X365225Y-138002D01*
X314310Y-94158D02*
X358154Y-138002D01*
X312391D02*
X356236Y-94158D01*
X315927Y-138002D02*
X359771Y-94158D01*
X204708D02*
X248552Y-138002D01*
X202790D02*
X246634Y-94158D01*
X206326Y-138002D02*
X250170Y-94158D01*
X199255Y-138002D02*
X243099Y-94158D01*
X197637D02*
X241481Y-138002D01*
X201173Y-94158D02*
X245017Y-138002D01*
X215315Y-94158D02*
X259159Y-138002D01*
X213397D02*
X257241Y-94158D01*
X216932Y-138002D02*
X260776Y-94158D01*
X209861Y-138002D02*
X253705Y-94158D01*
X208244D02*
X252088Y-138002D01*
X211779Y-94158D02*
X255623Y-138002D01*
X183495Y-94158D02*
X227339Y-138002D01*
X181577D02*
X225421Y-94158D01*
X185113Y-138002D02*
X228957Y-94158D01*
X178041Y-138002D02*
X221885Y-94158D01*
X84305Y-65679D02*
X156628Y-138002D01*
X179959Y-94158D02*
X223803Y-138002D01*
X194102Y-94158D02*
X237946Y-138002D01*
X192183D02*
X236028Y-94158D01*
X195719Y-138002D02*
X239563Y-94158D01*
X188648Y-138002D02*
X232492Y-94158D01*
X187030D02*
X230875Y-138002D01*
X190566Y-94158D02*
X234410Y-138002D01*
X245216D02*
X289061Y-94158D01*
X243599D02*
X287443Y-138002D01*
X247134Y-94158D02*
X290979Y-138002D01*
X240063Y-94158D02*
X283908Y-138002D01*
X238145D02*
X281990Y-94158D01*
X241681Y-138002D02*
X285525Y-94158D01*
X255823Y-138002D02*
X299667Y-94158D01*
X254205D02*
X298050Y-138002D01*
X257741Y-94158D02*
X301585Y-138002D01*
X250670Y-94158D02*
X294514Y-138002D01*
X248752D02*
X292596Y-94158D01*
X252288Y-138002D02*
X296132Y-94158D01*
X225921D02*
X269765Y-138002D01*
X224003D02*
X267847Y-94158D01*
X227539Y-138002D02*
X271383Y-94158D01*
X220468Y-138002D02*
X264312Y-94158D01*
X218850D02*
X262694Y-138002D01*
X222386Y-94158D02*
X266230Y-138002D01*
X234610D02*
X278454Y-94158D01*
X232992D02*
X276836Y-138002D01*
X236528Y-94158D02*
X280372Y-138002D01*
X229457Y-94158D02*
X273301Y-138002D01*
X231074D02*
X274919Y-94158D01*
X163899Y-138002D02*
X207743Y-94158D01*
X162282D02*
X206126Y-138002D01*
X165817Y-94158D02*
X209661Y-138002D01*
X158746Y-94158D02*
X202590Y-138002D01*
X156828D02*
X200672Y-94158D01*
X160364Y-138002D02*
X204208Y-94158D01*
X174506Y-138002D02*
X218350Y-94158D01*
X172888D02*
X216733Y-138002D01*
X176424Y-94158D02*
X220268Y-138002D01*
X169353Y-94158D02*
X213197Y-138002D01*
X167435D02*
X211279Y-94158D01*
X170970Y-138002D02*
X214814Y-94158D01*
X155211D02*
X199055Y-138002D01*
X153293D02*
X197137Y-94158D01*
X160279Y-120440D02*
X177842Y-138002D01*
X148140Y-94158D02*
X191984Y-138002D01*
X144604Y-94158D02*
X188448Y-138002D01*
X151675Y-94158D02*
X195519Y-138002D01*
X160279Y-123975D02*
X174306Y-138002D01*
X160173Y-130940D02*
X167235Y-138002D01*
X160279Y-127511D02*
X170771Y-138002D01*
X153102Y-130940D02*
X160164Y-138002D01*
X147680Y-132590D02*
X153093Y-138002D01*
X156637Y-130940D02*
X163699Y-138002D01*
X147680Y-136125D02*
X150015Y-138460D01*
X147680Y-139601D02*
Y-131102D01*
X147621Y-139601D02*
X147967Y-139948D01*
X145936Y-139601D02*
X147680D01*
X145974Y-145321D02*
X146617Y-144678D01*
X145974Y-145026D02*
X146617Y-145669D01*
X145010Y-140527D02*
X146763Y-142279D01*
X145974Y-152392D02*
X146617Y-151749D01*
Y-152301D02*
Y-143206D01*
X145747Y-144799D02*
X145974Y-145026D01*
Y-152904D02*
Y-144799D01*
X144946Y-140591D02*
X145936Y-139601D01*
X145974Y-148561D02*
X146617Y-149204D01*
X145974Y-148857D02*
X146617Y-148213D01*
X145974Y-152097D02*
X146581Y-152703D01*
X145462Y-152904D02*
X145974Y-152392D01*
X143828Y-154538D02*
X145462Y-152904D01*
X141069Y-94158D02*
X184913Y-138002D01*
X141950Y-141001D02*
X145747Y-144799D01*
X142961D02*
X156820Y-130940D01*
X139443Y-96068D02*
X181377Y-138002D01*
X134515Y-141001D02*
X143956D01*
X138869Y-145355D02*
X143223Y-141001D01*
X139837Y-144799D02*
X145974D01*
X138414Y-141001D02*
X142212Y-144799D01*
X139837Y-146324D02*
Y-144799D01*
X134879Y-141001D02*
X139837Y-145960D01*
X137101Y-143588D02*
X139687Y-141001D01*
X134515D02*
X139837Y-146324D01*
X135416Y-138201D02*
X137409Y-136208D01*
Y-138201D02*
Y-131102D01*
X135333Y-141820D02*
X136152Y-141001D01*
X134088Y-138201D02*
X137409D01*
X134088Y-136675D02*
X135614Y-138201D01*
X134088D02*
Y-135534D01*
X130388Y-144799D02*
X130911D01*
X129042Y-144575D02*
X129865Y-143753D01*
X129042Y-148110D02*
X130388Y-146765D01*
X129027Y-142915D02*
X130911Y-144799D01*
X129042Y-145772D02*
X130388Y-147117D01*
X139837Y-152904D02*
Y-150430D01*
X136525Y-147537D02*
X138970Y-149982D01*
X136525Y-151234D02*
X138374Y-149386D01*
X136525Y-149719D02*
X141344Y-154538D01*
X139837Y-152904D02*
X145974D01*
X143246D02*
X144833Y-154491D01*
X140293Y-154538D02*
X141926Y-152904D01*
X131231Y-154538D02*
X144380D01*
X136175Y-152904D02*
X137809Y-154538D01*
X136757D02*
X139837Y-151458D01*
X130388Y-152904D02*
Y-144799D01*
X129042Y-152350D02*
Y-143331D01*
X136525Y-152904D02*
Y-147537D01*
X129042Y-151646D02*
X130388Y-150300D01*
X129042Y-149307D02*
X130388Y-150653D01*
Y-152904D02*
X136525D01*
X132640D02*
X134273Y-154538D01*
X133222D02*
X134855Y-152904D01*
X130039Y-154185D02*
X131319Y-152904D01*
X129118Y-152918D02*
X130662Y-154463D01*
X85837Y-136137D02*
X127388D01*
X82705Y-133005D02*
X85837Y-136137D01*
X82705Y-133005D02*
Y-32500D01*
X81105Y-134205D02*
X84637Y-137737D01*
X81105Y-134205D02*
Y-32832D01*
X84637Y-137737D02*
X126111D01*
X164863Y-35964D02*
X165600Y-35227D01*
X129811Y-35964D02*
X164863D01*
X128811Y-36964D02*
X129811Y-35964D01*
X102910Y-30569D02*
X104865D01*
X106000Y-26127D02*
X106696Y-26823D01*
X106000D02*
Y-26027D01*
X104865Y-30569D02*
X106311Y-29123D01*
X107264Y-26823D02*
X108611Y-28170D01*
Y-30075D02*
Y-28170D01*
X106696Y-26823D02*
X107264D01*
X78700Y-30427D02*
X81105Y-32832D01*
X92211Y-15664D02*
X96794D01*
X127388Y-136137D02*
X140103Y-148852D01*
X126111Y-137737D02*
X133457Y-145082D01*
Y-148852D02*
Y-145082D01*
X140103Y-148852D02*
X142905D01*
X128811Y-98857D02*
Y-36964D01*
Y-98857D02*
X129743Y-99789D01*
X134406D01*
X140084Y-135352D02*
Y-129152D01*
X84800Y-27927D02*
X85641D01*
X88131Y-30417D01*
X95038D01*
X95947Y-31327D01*
X97853D01*
X106156Y-32531D02*
X108611Y-30075D01*
X103297Y-37627D02*
X106156Y-34768D01*
X91411Y-37627D02*
X103297D01*
X106156Y-34768D02*
Y-32531D01*
X97853Y-31327D02*
X98153Y-31027D01*
X102453D01*
X102910Y-30569D01*
D11*
X134406Y-99789D02*
D03*
X150154D02*
D03*
D12*
X71850Y-13017D02*
D03*
X76850D02*
D03*
X81850D02*
D03*
X86850D02*
D03*
X61905D02*
D03*
X56906D02*
D03*
X51906D02*
D03*
X46905D02*
D03*
X96794D02*
D03*
X101794D02*
D03*
X106794D02*
D03*
X111794D02*
D03*
X136738D02*
D03*
X131738D02*
D03*
X126738D02*
D03*
X121738D02*
D03*
X146683D02*
D03*
X151683D02*
D03*
X156683D02*
D03*
X161683D02*
D03*
D13*
X133457Y-148852D02*
D03*
X142905D02*
D03*
D14*
X145006Y-135352D02*
D03*
X140084D02*
D03*
X135163D02*
D03*
D15*
X155045Y-123934D02*
D03*
X125124D02*
D03*
D16*
X102520Y-25327D02*
X104620Y-23227D01*
X92600Y-25327D02*
X102520D01*
X90200Y-22927D02*
X92600Y-25327D01*
X104620Y-23227D02*
X106900D01*
X90196Y-22923D02*
X90200Y-22927D01*
X106794Y-13017D02*
X106900Y-13123D01*
Y-23227D02*
Y-13123D01*
D17*
X99700Y-26927D02*
X101500Y-28727D01*
X90500Y-26927D02*
X99700D01*
X87900Y-24327D02*
X90500Y-26927D01*
X96900Y-29027D02*
Y-28275D01*
X96905Y-28269D01*
X89642D02*
X96905D01*
X111006Y-2056D02*
X111794Y-2844D01*
X92598Y-2056D02*
X111006D01*
X111794Y-13017D02*
Y-2844D01*
X82374Y-24327D02*
X87900D01*
X86900Y-25527D02*
X89642Y-28269D01*
X81154Y-25527D02*
X86900D01*
X80854Y-25227D02*
X81154Y-25527D01*
X77274Y-25227D02*
X80854D01*
X81850Y-23802D02*
X82374Y-24327D01*
X81850Y-23802D02*
Y-13017D01*
X92598Y-4477D02*
Y-2056D01*
X91311Y-5764D02*
X92598Y-4477D01*
X76850Y-24802D02*
X77274Y-25227D01*
X76850Y-24802D02*
Y-13017D01*
X145006Y-138552D02*
Y-135352D01*
X132688Y-138874D02*
Y-135534D01*
Y-138874D02*
X133415Y-139601D01*
X143956D01*
X145006Y-138552D01*
X130405Y-133252D02*
X132688Y-135534D01*
X46911Y-32964D02*
Y-13023D01*
X51811Y-32364D02*
Y-13112D01*
D18*
X84339Y-33677D02*
X99061D01*
X84095Y-33432D02*
X84339Y-33677D01*
X83455Y-32793D02*
Y-30911D01*
X81750Y-29206D02*
X83455Y-30911D01*
X81750Y-29206D02*
Y-29049D01*
X80428Y-27727D02*
X81750Y-29049D01*
X80313Y-27727D02*
X80428D01*
X79963Y-27377D02*
X80313Y-27727D01*
X61950Y-27377D02*
X79963D01*
X61905Y-27421D02*
X61950Y-27377D01*
X61905Y-27421D02*
Y-13017D01*
X99573Y-33700D02*
X103438D01*
D19*
X61905Y-13017D02*
X64410D01*
X66400Y-11027D01*
D20*
X2756Y-16043D02*
D03*
X10630D02*
D03*
X197860Y-23917D02*
D03*
X205734D02*
D03*
D21*
X177400Y-4127D02*
D03*
X180600Y-4227D02*
D03*
X184100D02*
D03*
X187600D02*
D03*
X191100D02*
D03*
X194600D02*
D03*
X165600Y-35227D02*
D03*
X24500Y-18427D02*
D03*
X27700Y-18527D02*
D03*
X31200D02*
D03*
X34700D02*
D03*
X38200D02*
D03*
X41700D02*
D03*
X24500Y-14527D02*
D03*
X27700Y-14627D02*
D03*
X31200D02*
D03*
X34700D02*
D03*
X38200D02*
D03*
X41700D02*
D03*
X41600Y-6027D02*
D03*
X38100D02*
D03*
X34600D02*
D03*
X31100D02*
D03*
X27600D02*
D03*
X96900Y-29027D02*
D03*
X90200Y-22927D02*
D03*
X101500Y-28727D02*
D03*
X106000Y-26027D02*
D03*
X115900Y-4727D02*
D03*
X116000Y-927D02*
D03*
X24400Y-5927D02*
D03*
X106311Y-29123D02*
D03*
X109710Y-32632D02*
D03*
X91200Y-37627D02*
D03*
X84800Y-27927D02*
D03*
X78700Y-30427D02*
D03*
X110100Y-26227D02*
D03*
X111100Y-29827D02*
D03*
X66400Y-11027D02*
D03*
X91311Y-5764D02*
D03*
X160800Y-32927D02*
D03*
X151800D02*
D03*
X154800D02*
D03*
X157800D02*
D03*
X160800Y-29427D02*
D03*
X151800D02*
D03*
X154800D02*
D03*
X157800D02*
D03*
X157790Y-26021D02*
D03*
X154790D02*
D03*
X151790D02*
D03*
X92211Y-15664D02*
D03*
X2285679Y-138530D02*
D03*
X140305Y-129152D02*
D03*
X130405Y-133252D02*
D03*
X2296779Y-137430D02*
D03*
X2289980Y-138930D02*
D03*
X2273079Y-137230D02*
D03*
X160790Y-26021D02*
D03*
X2312779Y-139304D02*
D03*
Y-136304D02*
D03*
Y-133304D02*
D03*
Y-127304D02*
D03*
Y-130304D02*
D03*
Y-124304D02*
D03*
Y-121304D02*
D03*
X2315779D02*
D03*
X2321779D02*
D03*
X2327780D02*
D03*
X2330779D02*
D03*
X2315779Y-139304D02*
D03*
X2321779D02*
D03*
X2324780D02*
D03*
X2327780D02*
D03*
X2330779D02*
D03*
X2333780D02*
D03*
X2318780D02*
D03*
X2315779Y-136304D02*
D03*
X2321779D02*
D03*
X2324780D02*
D03*
X2327780D02*
D03*
X2330779D02*
D03*
X2333780D02*
D03*
X2318780D02*
D03*
X2315779Y-133304D02*
D03*
X2321779D02*
D03*
X2324780D02*
D03*
X2327780D02*
D03*
X2330779D02*
D03*
X2333780D02*
D03*
X2318780D02*
D03*
X2315779Y-130304D02*
D03*
X2321779D02*
D03*
X2324780D02*
D03*
X2327780D02*
D03*
X2330779D02*
D03*
X2333780D02*
D03*
X2318780D02*
D03*
X2315779Y-127304D02*
D03*
X2321779D02*
D03*
X2324780D02*
D03*
X2327780D02*
D03*
X2330779D02*
D03*
X2333780D02*
D03*
X2318780D02*
D03*
X2315779Y-124304D02*
D03*
X2321779D02*
D03*
X2324780D02*
D03*
X2327780D02*
D03*
X2330779D02*
D03*
X2333780D02*
D03*
X2318780D02*
D03*
X2324780Y-121304D02*
D03*
X2318780D02*
D03*
X2333780D02*
D03*
X2274680Y-139730D02*
D03*
X46911Y-32964D02*
D03*
X51811Y-32364D02*
D03*
X99300Y-33800D02*
D03*
X103800D02*
D03*
M02*
