%FSLAX25Y25*%
%MOIN*%
G70*
G01*
G75*
G04 Layer_Physical_Order=2*
G04 Layer_Color=16711680*
%ADD10C,0.01000*%
%ADD11R,0.07874X0.07874*%
%ADD12R,0.02992X0.19685*%
%ADD13R,0.03937X0.05906*%
%ADD14R,0.03150X0.06299*%
%ADD15R,0.08268X0.11811*%
%ADD16C,0.01200*%
%ADD17C,0.00600*%
%ADD18C,0.02500*%
%ADD19C,0.00800*%
%ADD20C,0.02362*%
%ADD21C,0.02400*%
%ADD22R,0.01260X0.13780*%
%ADD23R,0.05906X0.07874*%
%ADD24R,0.05512X0.03937*%
%ADD25R,0.03543X0.05118*%
G36*
X163605Y-36479D02*
X130538D01*
X130069Y-36572D01*
X129673Y-36837D01*
X129407Y-37234D01*
X129314Y-37702D01*
Y-88521D01*
X129293D01*
X129470Y-89862D01*
X129988Y-91112D01*
X130811Y-92185D01*
X131884Y-93008D01*
X133134Y-93526D01*
X134475Y-93703D01*
Y-93682D01*
X2270261D01*
Y-95937D01*
Y-96395D01*
X2270240D01*
X2270416Y-97736D01*
X2270934Y-98986D01*
X2271757Y-100059D01*
X2272830Y-100882D01*
X2274080Y-101400D01*
X2275421Y-101577D01*
Y-101556D01*
X2275421Y-101556D01*
X2360067D01*
Y-101559D01*
X2360768Y-101652D01*
X2361422Y-101922D01*
X2361983Y-102353D01*
X2362414Y-102914D01*
X2362685Y-103568D01*
X2362777Y-104269D01*
X2362780D01*
Y-138200D01*
X2335806D01*
Y-118637D01*
X2335615Y-118178D01*
X2335156Y-117987D01*
X2308285D01*
X2307826Y-118178D01*
X2307774Y-118304D01*
X2303920D01*
X2298606Y-112990D01*
X2298601Y-112983D01*
X2298270Y-112762D01*
X2297880Y-112684D01*
X151317D01*
X151139Y-112418D01*
X146339Y-107618D01*
X145727Y-107209D01*
X145006Y-107065D01*
X112787D01*
X110692Y-104971D01*
Y-35476D01*
X112200D01*
X112659Y-35286D01*
X112849Y-34827D01*
Y-30258D01*
X112935Y-29827D01*
X112849Y-29395D01*
Y-24937D01*
X163605D01*
Y-36479D01*
D02*
G37*
G36*
X207286Y96D02*
X207270Y-22153D01*
X206829Y-22388D01*
X206467Y-22147D01*
X205734Y-22001D01*
X205000Y-22147D01*
X204379Y-22562D01*
X203963Y-23184D01*
X203818Y-23917D01*
X203963Y-24651D01*
X204379Y-25272D01*
X205000Y-25688D01*
X205734Y-25833D01*
X206467Y-25688D01*
X206826Y-25448D01*
X207267Y-25684D01*
X207259Y-36479D01*
X167459D01*
X167223Y-36038D01*
X167296Y-35929D01*
X167435Y-35227D01*
X167296Y-34525D01*
X166898Y-33929D01*
X166722Y-33811D01*
Y-24027D01*
X166722Y-24027D01*
X166636Y-23598D01*
X166393Y-23234D01*
X166393Y-23234D01*
X164493Y-21334D01*
X164129Y-21091D01*
X163700Y-21005D01*
X163700Y-21005D01*
X106700D01*
X106700Y-21005D01*
X106271Y-21091D01*
X105907Y-21334D01*
X104481Y-22759D01*
X104020Y-22568D01*
Y-16849D01*
X108822Y-12046D01*
X178978D01*
X186254Y-19323D01*
X186585Y-19544D01*
X186975Y-19622D01*
X188992D01*
Y-21171D01*
X193826D01*
X194017Y-21633D01*
X191699Y-23950D01*
X191500Y-24248D01*
X191430Y-24599D01*
Y-26664D01*
X188992D01*
Y-31801D01*
X195704D01*
Y-26664D01*
X193266D01*
Y-24979D01*
X197149Y-21096D01*
X197348Y-20798D01*
X197418Y-20447D01*
Y-12979D01*
X197348Y-12628D01*
X197149Y-12330D01*
X192897Y-8078D01*
X192599Y-7879D01*
X192248Y-7809D01*
X102000D01*
X101707Y-7867D01*
X101649Y-7879D01*
X101351Y-8078D01*
X95885Y-13544D01*
X95423Y-13353D01*
Y-5988D01*
X95353Y-5637D01*
X95154Y-5339D01*
X92293Y-2478D01*
X91995Y-2279D01*
X91644Y-2209D01*
X16548D01*
X16197Y-2279D01*
X15899Y-2478D01*
X11551Y-6826D01*
X11352Y-7123D01*
X11282Y-7475D01*
Y-13862D01*
X10896Y-14180D01*
X10630Y-14127D01*
X9897Y-14273D01*
X9275Y-14688D01*
X8859Y-15310D01*
X8714Y-16043D01*
X8859Y-16776D01*
X9275Y-17398D01*
X9897Y-17814D01*
X10630Y-17959D01*
X11363Y-17814D01*
X11985Y-17398D01*
X12400Y-16776D01*
X12467Y-16441D01*
X12946Y-16296D01*
X14977Y-18328D01*
X14786Y-18789D01*
X12786D01*
Y-23927D01*
X19498D01*
Y-18789D01*
X17059D01*
Y-18194D01*
X16989Y-17843D01*
X16791Y-17545D01*
X13118Y-13872D01*
Y-13297D01*
X19498D01*
Y-11748D01*
X64717D01*
X65102Y-12325D01*
X65698Y-12722D01*
X66400Y-12862D01*
X67102Y-12722D01*
X67698Y-12325D01*
X68096Y-11729D01*
X68235Y-11027D01*
X68096Y-10324D01*
X67698Y-9729D01*
X67102Y-9331D01*
X66400Y-9191D01*
X65698Y-9331D01*
X65133Y-9708D01*
X19498D01*
Y-8160D01*
X13466D01*
X13275Y-7698D01*
X16928Y-4044D01*
X89732D01*
X89896Y-4290D01*
X90000Y-4485D01*
X89615Y-5061D01*
X89476Y-5764D01*
X89565Y-6212D01*
X86057Y-9720D01*
X85858Y-10018D01*
X85788Y-10369D01*
Y-25894D01*
X85401Y-26211D01*
X84800Y-26092D01*
X84098Y-26231D01*
X83502Y-26629D01*
X83104Y-27224D01*
X82965Y-27927D01*
X83006Y-28135D01*
X81835Y-29305D01*
X80115D01*
X79998Y-29129D01*
X79402Y-28731D01*
X78700Y-28591D01*
X77998Y-28731D01*
X77402Y-29129D01*
X77004Y-29724D01*
X76865Y-30427D01*
X77004Y-31129D01*
X77081Y-31244D01*
X76845Y-31684D01*
X58330D01*
X55060Y-28415D01*
X54762Y-28216D01*
X54411Y-28146D01*
X50444D01*
X50093Y-28216D01*
X49795Y-28415D01*
X49664Y-28546D01*
X35444D01*
X31612Y-24715D01*
X31315Y-24516D01*
X30964Y-24446D01*
X20400D01*
X20107Y-24504D01*
X20049Y-24516D01*
X19751Y-24715D01*
X18265Y-26201D01*
X18066Y-26498D01*
X18021Y-26727D01*
X15361D01*
Y-35801D01*
X22467D01*
Y-26727D01*
X22467D01*
Y-26635D01*
X22820Y-26281D01*
X24554D01*
Y-26727D01*
X24554D01*
Y-35801D01*
X31660D01*
Y-32181D01*
X44837D01*
X45155Y-32568D01*
X45076Y-32964D01*
X45215Y-33666D01*
X45613Y-34261D01*
X46209Y-34659D01*
X46911Y-34799D01*
X47359Y-34710D01*
X48666Y-36017D01*
X48475Y-36479D01*
X1223D01*
Y-17810D01*
X1664Y-17574D01*
X2023Y-17814D01*
X2756Y-17959D01*
X3489Y-17814D01*
X4111Y-17398D01*
X4526Y-16776D01*
X4672Y-16043D01*
X4526Y-15310D01*
X4111Y-14688D01*
X3489Y-14273D01*
X2756Y-14127D01*
X2023Y-14273D01*
X1664Y-14512D01*
X1223Y-14276D01*
Y450D01*
X206933D01*
X207286Y96D01*
D02*
G37*
G36*
X112200Y-34827D02*
X107500D01*
Y-30493D01*
X107609Y-30420D01*
X108007Y-29825D01*
X108146Y-29123D01*
X108007Y-28420D01*
X107609Y-27825D01*
X107500Y-27752D01*
Y-27022D01*
X107696Y-26729D01*
X107835Y-26027D01*
X107696Y-25324D01*
X107500Y-25032D01*
Y-23248D01*
X112200D01*
Y-34827D01*
D02*
G37*
G36*
X2276080Y-137403D02*
Y-146930D01*
X2272779D01*
Y-136130D01*
X2274806D01*
X2276080Y-137403D01*
D02*
G37*
G36*
X2335156Y-144700D02*
X2312084D01*
Y-141729D01*
X2311599D01*
Y-126406D01*
X2311522Y-126015D01*
X2311300Y-125684D01*
X2308285Y-122669D01*
Y-118637D01*
X2335156D01*
Y-144700D01*
D02*
G37*
G36*
X2298017Y-113705D02*
X2310908Y-126414D01*
X2310856Y-140600D01*
X2308696D01*
X2308624Y-131555D01*
X2292839Y-116117D01*
X2291736D01*
X2291580Y-116086D01*
X151319D01*
X151162Y-116117D01*
X149969D01*
X147877Y-114026D01*
X147881Y-113487D01*
X2298017Y-113705D01*
D02*
G37*
%LPC*%
G36*
X2235800Y-104337D02*
X273306D01*
Y-105037D01*
X2235800D01*
Y-104337D01*
D02*
G37*
G36*
Y-107037D02*
X273306D01*
Y-107737D01*
X2235800D01*
Y-107037D01*
D02*
G37*
G36*
Y-109853D02*
X273306D01*
Y-110537D01*
X2235800D01*
Y-109853D01*
D02*
G37*
G36*
Y-101537D02*
X273306D01*
Y-102237D01*
X2235800D01*
Y-101537D01*
D02*
G37*
G36*
X197860Y-22001D02*
X197126Y-22147D01*
X196505Y-22562D01*
X196089Y-23184D01*
X195943Y-23917D01*
X196089Y-24651D01*
X196505Y-25272D01*
X197126Y-25688D01*
X197860Y-25833D01*
X198593Y-25688D01*
X199215Y-25272D01*
X199630Y-24651D01*
X199776Y-23917D01*
X199630Y-23184D01*
X199215Y-22562D01*
X198593Y-22147D01*
X197860Y-22001D01*
D02*
G37*
G36*
X205350Y-12293D02*
X200606D01*
Y-18612D01*
X205350D01*
Y-12293D01*
D02*
G37*
G36*
X7884Y-4420D02*
X3140D01*
Y-10738D01*
X7884D01*
Y-4420D01*
D02*
G37*
G36*
Y-21349D02*
X3140D01*
Y-27667D01*
X7884D01*
Y-21349D01*
D02*
G37*
G36*
X2235800Y-98737D02*
X273306D01*
Y-99437D01*
X2235800D01*
Y-98737D01*
D02*
G37*
G36*
Y-95937D02*
X273306D01*
Y-96637D01*
X2235800D01*
Y-95937D01*
D02*
G37*
G36*
X205350Y-29223D02*
X200606D01*
Y-35541D01*
X205350D01*
Y-29223D01*
D02*
G37*
%LPD*%
D10*
X163700Y-22127D02*
X165600Y-24027D01*
Y-35227D02*
Y-24027D01*
X106700Y-22127D02*
X163700D01*
X105200Y-23627D02*
X106700Y-22127D01*
X105200Y-25327D02*
Y-23627D01*
X92200Y-25180D02*
X93106Y-24274D01*
X92200Y-35163D02*
X93500Y-36463D01*
X92200Y-35163D02*
Y-25180D01*
X93106Y-24274D02*
Y-16558D01*
X106000Y-26823D02*
Y-26027D01*
X105200Y-25327D02*
X106000Y-26127D01*
X93500Y-38791D02*
Y-36463D01*
X93106Y-39185D02*
X93500Y-38791D01*
X93106Y-112201D02*
Y-39185D01*
X91411Y-112204D02*
Y-37627D01*
X91200D02*
X91411D01*
X82300Y-30427D02*
X84800Y-27927D01*
X78700Y-30427D02*
X82300D01*
X106311Y-104837D02*
Y-29123D01*
X92211Y-15664D02*
X93106Y-16558D01*
X142766Y-113652D02*
X147673Y-118559D01*
X143406Y-118252D02*
X146513Y-121359D01*
X141258Y-126852D02*
X143365Y-128959D01*
X140305Y-130559D02*
Y-129152D01*
X139406Y-118252D02*
X143406D01*
X134806Y-128652D02*
X137553D01*
X139353Y-126852D01*
X141258D01*
X147673Y-118559D02*
X2291150D01*
X2304921Y-153747D02*
Y-132327D01*
X2291153Y-118559D02*
X2304921Y-132327D01*
X140305Y-130559D02*
X2274459D01*
X2281299Y-137399D01*
Y-149330D02*
Y-137399D01*
X143365Y-128959D02*
X2276159D01*
X2283268Y-136068D01*
Y-149330D02*
Y-136068D01*
X146513Y-121359D02*
X2289159D01*
X2300984Y-133184D01*
Y-144509D02*
Y-133184D01*
D16*
X2362008Y-153000D02*
Y-105100D01*
X2336379Y-152700D02*
Y-114004D01*
X2338402Y-153300D02*
Y-112504D01*
X2340371Y-153300D02*
Y-110904D01*
X2342339Y-153300D02*
Y-109104D01*
X2344279Y-153000D02*
Y-107904D01*
X2345453Y-105377D02*
X2346302Y-106227D01*
Y-153000D02*
Y-106227D01*
X2358071Y-153500D02*
Y-104900D01*
X2348271Y-152900D02*
Y-104704D01*
X2350239Y-152800D02*
Y-105300D01*
X2352208Y-152800D02*
Y-105400D01*
X2356102Y-152700D02*
Y-105200D01*
X2354079Y-153200D02*
Y-105400D01*
X2360039Y-152400D02*
Y-104739D01*
D17*
X35064Y-29464D02*
X50044D01*
X30964Y-25364D02*
X35064Y-29464D01*
X20400Y-25364D02*
X30964D01*
X192348Y-29232D02*
Y-24599D01*
X196500Y-20447D02*
Y-12979D01*
X192348Y-24599D02*
X196500Y-20447D01*
X192248Y-8727D02*
X196500Y-12979D01*
X12200Y-7475D02*
X16548Y-3127D01*
X12200Y-14253D02*
Y-7475D01*
Y-14253D02*
X16142Y-18194D01*
X102000Y-8727D02*
X192248D01*
X95705Y-15021D02*
X102000Y-8727D01*
X95705Y-25351D02*
Y-15021D01*
X16548Y-3127D02*
X91644D01*
X94506Y-5988D01*
Y-24854D02*
Y-5988D01*
X93600Y-25760D02*
X94506Y-24854D01*
X93600Y-34583D02*
X94900Y-35883D01*
X94800Y-26257D02*
X95705Y-25351D01*
X94800Y-34086D02*
X96100Y-35386D01*
X94800Y-34086D02*
Y-26257D01*
X93600Y-34583D02*
Y-25760D01*
X96900Y-29027D02*
Y-28275D01*
X96905Y-28269D01*
X86705Y-26862D02*
Y-10369D01*
X101600Y-31627D02*
Y-29427D01*
X94900Y-39370D02*
Y-35883D01*
X86900Y-28797D02*
Y-27057D01*
X86705Y-28991D02*
X86900Y-28797D01*
X86705Y-31758D02*
Y-28991D01*
Y-31758D02*
X86867Y-31919D01*
Y-33700D02*
Y-31919D01*
X86000Y-34567D02*
X86867Y-33700D01*
X86000Y-114246D02*
Y-34567D01*
X86705Y-26862D02*
X86900Y-27057D01*
X96905Y-34495D02*
Y-28269D01*
Y-34495D02*
X97300Y-34889D01*
Y-40365D02*
Y-34889D01*
X96100Y-39867D02*
Y-35386D01*
X96905Y-40759D02*
X97300Y-40365D01*
X96905Y-110910D02*
Y-40759D01*
X86000Y-114246D02*
X103712Y-131959D01*
X95705Y-40262D02*
X96100Y-39867D01*
X94506Y-39765D02*
X94900Y-39370D01*
X95705Y-111407D02*
Y-40262D01*
X94506Y-111904D02*
Y-39765D01*
X86705Y-10369D02*
X91311Y-5764D01*
X16142Y-21358D02*
Y-18194D01*
X2289173Y-139736D02*
X2289980Y-138930D01*
X2287205Y-149230D02*
Y-139974D01*
X2287779Y-139400D01*
Y-137660D01*
X2277678Y-127559D02*
X2287779Y-137660D01*
X2291142Y-149230D02*
Y-140737D01*
X2289173Y-149230D02*
Y-139736D01*
X2285236Y-149230D02*
Y-139430D01*
X93106Y-112201D02*
X105856Y-124952D01*
X92809Y-113601D02*
X105659Y-126452D01*
X92526Y-113601D02*
X92809D01*
X91411Y-112486D02*
X92526Y-113601D01*
X91411Y-112486D02*
Y-112204D01*
X96905Y-110910D02*
X107347Y-121352D01*
X95705Y-111407D02*
X106850Y-122552D01*
X94506Y-111904D02*
X106353Y-123752D01*
X106506Y-106492D02*
X111365Y-111352D01*
X147072Y-134252D02*
X147968Y-133355D01*
X131405Y-134252D02*
X147072D01*
X130405Y-133252D02*
X131405Y-134252D01*
X143086Y-115952D02*
X147093Y-119959D01*
X143826Y-120652D02*
X145933Y-122759D01*
X143329Y-121852D02*
X145436Y-123959D01*
X142832Y-123052D02*
X144939Y-125159D01*
X142335Y-124252D02*
X144442Y-126359D01*
X141838Y-125452D02*
X143945Y-127559D01*
X138276Y-124252D02*
X142335D01*
X131275Y-131152D02*
X132127Y-132004D01*
X129536Y-131152D02*
X131275D01*
X128729Y-131959D02*
X129536Y-131152D01*
X103712Y-131959D02*
X128729D01*
X101605Y-107852D02*
X109705Y-115952D01*
X137773Y-126452D02*
X138773Y-125452D01*
X105659Y-126452D02*
X137773D01*
X136085Y-121352D02*
X136785Y-120652D01*
X107347Y-121352D02*
X136085D01*
X136582Y-122552D02*
X137282Y-121852D01*
X106850Y-122552D02*
X136582D01*
X137079Y-123752D02*
X137779Y-123052D01*
X106353Y-123752D02*
X137079D01*
X137576Y-124952D02*
X138276Y-124252D01*
X105856Y-124952D02*
X137576D01*
X109705Y-115952D02*
X143086D01*
X136785Y-120652D02*
X143826D01*
X137282Y-121852D02*
X143329D01*
X137779Y-123052D02*
X142832D01*
X138773Y-125452D02*
X141838D01*
X111365Y-111352D02*
X143905D01*
X149679Y-117125D01*
X106311Y-104837D02*
X106506Y-105031D01*
Y-106492D02*
Y-105031D01*
X151197Y-117125D02*
X151319Y-117004D01*
X149679Y-117125D02*
X151197D01*
X151319Y-117004D02*
X2291580D01*
X2300984Y-149330D02*
Y-136634D01*
X2297047Y-149230D02*
Y-137430D01*
X2306890Y-152300D02*
Y-132316D01*
X2291578Y-117004D02*
X2306890Y-132316D01*
X80857Y-116357D02*
Y-37081D01*
X79978Y-36202D02*
X80857Y-37081D01*
X102476Y-137976D02*
X123517D01*
X80857Y-116357D02*
X102476Y-137976D01*
X123517D02*
Y-137960D01*
X50150Y-36202D02*
X79978D01*
X46911Y-32964D02*
X50150Y-36202D01*
X126834Y-139052D02*
X149060D01*
X125788Y-138006D02*
X126834Y-139052D01*
X124770Y-138006D02*
X125788D01*
X123517Y-137960D02*
X124724D01*
X124770Y-138006D01*
X149060Y-139052D02*
X149957Y-138155D01*
X82400Y-116203D02*
Y-36927D01*
X80475Y-35002D02*
X82400Y-36927D01*
X102973Y-136776D02*
X123004D01*
X82400Y-116203D02*
X102973Y-136776D01*
X123004D02*
X123020Y-136760D01*
X54450Y-35002D02*
X80475D01*
X51811Y-32364D02*
X54450Y-35002D01*
X127331Y-137852D02*
X148563D01*
X126285Y-136806D02*
X127331Y-137852D01*
X125268Y-136806D02*
X126285D01*
X123020Y-136760D02*
X125222D01*
X125268Y-136806D01*
X148563Y-137852D02*
X149459Y-136955D01*
X83600Y-115706D02*
Y-36430D01*
X52681Y-30264D02*
X56219Y-33802D01*
X103470Y-135576D02*
X122507D01*
X80972Y-33802D02*
X83600Y-36430D01*
Y-115706D02*
X103470Y-135576D01*
X28200Y-31264D02*
X45641D01*
X46241Y-30664D01*
X50541D01*
X56219Y-33802D02*
X80972D01*
X50541Y-30664D02*
X50941Y-30264D01*
X52681D01*
X127828Y-136652D02*
X148066D01*
X126782Y-135606D02*
X127828Y-136652D01*
X148066D02*
X148962Y-135756D01*
X125719Y-135560D02*
X125765Y-135606D01*
X122507Y-135576D02*
X122523Y-135560D01*
X125719D01*
X125765Y-135606D02*
X126782D01*
X57950Y-32602D02*
X81469D01*
X54411Y-29064D02*
X57950Y-32602D01*
X84800Y-115209D02*
X103967Y-134376D01*
X81469Y-32602D02*
X84800Y-35933D01*
Y-115209D02*
Y-35933D01*
X18914Y-30697D02*
Y-26850D01*
X20400Y-25364D01*
X50044Y-29464D02*
X50444Y-29064D01*
X54411D01*
X128325Y-135452D02*
X147569D01*
X127279Y-134406D02*
X128325Y-135452D01*
X147569D02*
X148465Y-134555D01*
X103967Y-134376D02*
X122010D01*
X122026Y-134360D01*
X126216D01*
X126262Y-134406D01*
X127279D01*
X148465Y-134555D02*
X2266629D01*
X149459Y-136955D02*
X2264429D01*
X149957Y-138155D02*
X2263630D01*
X132127Y-132004D02*
X2273680D01*
X147968Y-133355D02*
X2273330D01*
X148962Y-135756D02*
X2265730D01*
X2265579Y-149219D02*
Y-140105D01*
X2263630Y-138155D02*
X2265579Y-140105D01*
X2267547Y-149219D02*
Y-140073D01*
X2264429Y-136955D02*
X2267547Y-140073D01*
X2269516Y-149219D02*
Y-139542D01*
X2265730Y-135756D02*
X2269516Y-139542D01*
X2271484Y-149219D02*
Y-139410D01*
X2266629Y-134555D02*
X2271484Y-139410D01*
X2277362Y-149330D02*
Y-137388D01*
X2273330Y-133355D02*
X2277362Y-137388D01*
X2279331Y-149330D02*
Y-137743D01*
X2273678Y-132004D02*
X2279374Y-137700D01*
X143945Y-127559D02*
X2277678D01*
X144939Y-125159D02*
X2283259D01*
X144442Y-126359D02*
X2281059D01*
X2292080Y-137380D01*
Y-139799D02*
Y-137380D01*
X2291142Y-140737D02*
X2292080Y-139799D01*
X2283259Y-125159D02*
X2293279Y-135179D01*
Y-149060D02*
Y-135179D01*
X2295079Y-148931D02*
Y-138699D01*
X2294679Y-138300D02*
X2295079Y-138699D01*
X2294679Y-138300D02*
Y-136560D01*
X2295079Y-136160D01*
X145436Y-123959D02*
X2286059D01*
X2295079Y-132980D01*
Y-136160D02*
Y-132980D01*
X145933Y-122759D02*
X2287359D01*
X2299016Y-134416D01*
Y-149330D02*
Y-134416D01*
X147093Y-119959D02*
X2290059D01*
X2302953Y-132853D01*
Y-149330D02*
Y-132853D01*
X101600Y-31627D02*
X101605Y-31632D01*
Y-107852D02*
Y-31632D01*
D18*
X89000Y-22927D02*
X90200D01*
X88855Y-23071D02*
X89000Y-22927D01*
X88855Y-25972D02*
Y-23071D01*
X108806Y-105752D02*
Y-32852D01*
Y-105752D02*
X112005Y-108952D01*
X89017Y-34591D02*
Y-30725D01*
X88150Y-35458D02*
X89017Y-34591D01*
X88150Y-112296D02*
Y-35458D01*
X88855Y-25972D02*
X89050Y-26166D01*
Y-30369D02*
Y-26166D01*
X88855Y-30564D02*
X89050Y-30369D01*
X88855Y-30564D02*
X89017Y-30725D01*
X99305Y-109052D02*
Y-41399D01*
X99450Y-41255D01*
X88150Y-112296D02*
X104506Y-128652D01*
X99450Y-41255D02*
Y-33577D01*
X103805Y-107011D02*
Y-33332D01*
X108505Y-118252D02*
X139406D01*
X104506Y-128652D02*
X134806D01*
X103805Y-107011D02*
X110446Y-113652D01*
X99305Y-109052D02*
X108505Y-118252D01*
X110446Y-113652D02*
X142766D01*
X112005Y-108952D02*
X145006D01*
X149805Y-113752D01*
D19*
X103000Y-26238D02*
X103805Y-27044D01*
Y-33332D02*
Y-27044D01*
X103000Y-26238D02*
Y-16427D01*
X186975Y-18602D02*
X192348D01*
X179400Y-11027D02*
X186975Y-18602D01*
X108400Y-11027D02*
X179400D01*
X103000Y-16427D02*
X108400Y-11027D01*
X66101Y-10728D02*
X66400Y-11027D01*
X16142Y-10728D02*
X66101D01*
X2265085Y-112237D02*
X2265152Y-112304D01*
X2336379Y-114004D02*
Y-113704D01*
X2337254Y-111078D02*
X2338402Y-112227D01*
Y-112504D02*
Y-112227D01*
X2339079Y-109704D02*
X2339171D01*
X2340371Y-110904D01*
X2341704Y-108228D02*
X2342339Y-108864D01*
Y-109104D02*
Y-108864D01*
X2343478Y-106803D02*
X2344279Y-107604D01*
Y-107904D02*
Y-107604D01*
X2334979Y-112304D02*
X2336379Y-113704D01*
X2265152Y-112304D02*
X2334979D01*
X2265085Y-112237D02*
Y-94237D01*
X149805Y-113752D02*
X150605Y-115704D01*
Y-113704D02*
X2297880D01*
X2297878D02*
X2310579Y-126406D01*
Y-153900D02*
Y-126406D01*
X150605Y-115704D02*
X2292280D01*
X2292278D02*
X2308858Y-132284D01*
Y-153100D02*
Y-132284D01*
D20*
X2756Y-16043D02*
D03*
X10630D02*
D03*
X197860Y-23917D02*
D03*
X205734D02*
D03*
D21*
X177400Y-4127D02*
D03*
X180600Y-4227D02*
D03*
X184100D02*
D03*
X187600D02*
D03*
X191100D02*
D03*
X194600D02*
D03*
X165600Y-35227D02*
D03*
X24500Y-18427D02*
D03*
X27700Y-18527D02*
D03*
X31200D02*
D03*
X34700D02*
D03*
X38200D02*
D03*
X41700D02*
D03*
X24500Y-14527D02*
D03*
X27700Y-14627D02*
D03*
X31200D02*
D03*
X34700D02*
D03*
X38200D02*
D03*
X41700D02*
D03*
X41600Y-6027D02*
D03*
X38100D02*
D03*
X34600D02*
D03*
X31100D02*
D03*
X27600D02*
D03*
X96900Y-29027D02*
D03*
X90200Y-22927D02*
D03*
X101500Y-28727D02*
D03*
X106000Y-26027D02*
D03*
X115900Y-4727D02*
D03*
X116000Y-927D02*
D03*
X24400Y-5927D02*
D03*
X106311Y-29123D02*
D03*
X109710Y-32632D02*
D03*
X91200Y-37627D02*
D03*
X84800Y-27927D02*
D03*
X78700Y-30427D02*
D03*
X110100Y-26227D02*
D03*
X111100Y-29827D02*
D03*
X66400Y-11027D02*
D03*
X91311Y-5764D02*
D03*
X160800Y-32927D02*
D03*
X151800D02*
D03*
X154800D02*
D03*
X157800D02*
D03*
X160800Y-29427D02*
D03*
X151800D02*
D03*
X154800D02*
D03*
X157800D02*
D03*
X157790Y-26021D02*
D03*
X154790D02*
D03*
X151790D02*
D03*
X92211Y-15664D02*
D03*
X2285679Y-138530D02*
D03*
X140305Y-129152D02*
D03*
X130405Y-133252D02*
D03*
X2296779Y-137430D02*
D03*
X2289980Y-138930D02*
D03*
X2273079Y-137230D02*
D03*
X160790Y-26021D02*
D03*
X2312779Y-139304D02*
D03*
Y-136304D02*
D03*
Y-133304D02*
D03*
Y-127304D02*
D03*
Y-130304D02*
D03*
Y-124304D02*
D03*
Y-121304D02*
D03*
X2315779D02*
D03*
X2321779D02*
D03*
X2327780D02*
D03*
X2330779D02*
D03*
X2315779Y-139304D02*
D03*
X2321779D02*
D03*
X2324780D02*
D03*
X2327780D02*
D03*
X2330779D02*
D03*
X2333780D02*
D03*
X2318780D02*
D03*
X2315779Y-136304D02*
D03*
X2321779D02*
D03*
X2324780D02*
D03*
X2327780D02*
D03*
X2330779D02*
D03*
X2333780D02*
D03*
X2318780D02*
D03*
X2315779Y-133304D02*
D03*
X2321779D02*
D03*
X2324780D02*
D03*
X2327780D02*
D03*
X2330779D02*
D03*
X2333780D02*
D03*
X2318780D02*
D03*
X2315779Y-130304D02*
D03*
X2321779D02*
D03*
X2324780D02*
D03*
X2327780D02*
D03*
X2330779D02*
D03*
X2333780D02*
D03*
X2318780D02*
D03*
X2315779Y-127304D02*
D03*
X2321779D02*
D03*
X2324780D02*
D03*
X2327780D02*
D03*
X2330779D02*
D03*
X2333780D02*
D03*
X2318780D02*
D03*
X2315779Y-124304D02*
D03*
X2321779D02*
D03*
X2324780D02*
D03*
X2327780D02*
D03*
X2330779D02*
D03*
X2333780D02*
D03*
X2318780D02*
D03*
X2324780Y-121304D02*
D03*
X2318780D02*
D03*
X2333780D02*
D03*
X2274680Y-139730D02*
D03*
X46911Y-32964D02*
D03*
X51811Y-32364D02*
D03*
X99300Y-33800D02*
D03*
X103800D02*
D03*
D22*
X2362035Y-149219D02*
D03*
X2360067D02*
D03*
X2358098D02*
D03*
X2356130D02*
D03*
X2354161D02*
D03*
X2352193D02*
D03*
X2350224D02*
D03*
X2348256D02*
D03*
X2346287D02*
D03*
X2344319D02*
D03*
X2342350D02*
D03*
X2340382D02*
D03*
X2338413D02*
D03*
X2336445D02*
D03*
X2334476D02*
D03*
X2332508D02*
D03*
X2330539D02*
D03*
X2328571D02*
D03*
X2326602D02*
D03*
X2324634D02*
D03*
X2322665D02*
D03*
X2320697D02*
D03*
X2318728D02*
D03*
X2316760D02*
D03*
X2314791D02*
D03*
X2312823D02*
D03*
X2310854D02*
D03*
X2308886D02*
D03*
X2306917D02*
D03*
X2304949D02*
D03*
X2302980D02*
D03*
X2301012D02*
D03*
X2299043D02*
D03*
X2297075D02*
D03*
X2295106D02*
D03*
X2293138D02*
D03*
X2291169D02*
D03*
X2289201D02*
D03*
X2287232D02*
D03*
X2285264D02*
D03*
X2283295D02*
D03*
X2281327D02*
D03*
X2279358D02*
D03*
X2277390D02*
D03*
X2275421D02*
D03*
X2273453D02*
D03*
X2271484D02*
D03*
X2269516D02*
D03*
X2267547D02*
D03*
X2265579D02*
D03*
D23*
X28107Y-31264D02*
D03*
X18914D02*
D03*
D24*
X16142Y-10728D02*
D03*
Y-21358D02*
D03*
X192348Y-18602D02*
D03*
Y-29232D02*
D03*
D25*
X5512Y-24508D02*
D03*
Y-7579D02*
D03*
X202978Y-32382D02*
D03*
Y-15452D02*
D03*
M02*
