M48
;Layer_Color=9474304
;FILE_FORMAT=2:5
INCH,TZ
;TYPE=PLATED
T1F00S00C0.01200
T2F00S00C0.01968
T3F00S00C0.03937
;TYPE=NON_PLATED
T4F00S00C0.12598
T5F00S00C0.31496
%
T01
X155300Y10500
X156200Y48200
Y52200
Y56200
X156700Y59700
Y63200
Y66700
Y70200
X160200
X163700
X167200
X170700
Y66700
X167200
X163700
X160200
Y63200
X163700
X167200
X170700
X177900Y65900
X185100Y63300
Y59800
Y56300
X189100
Y59800
Y63300
X193100
Y59800
Y56300
X197100
Y59800
Y63300
X196900Y80100
X193400
X189900
X186400
Y84900
X189900
X193400
X196900
X181610Y91481
Y96481
Y101481
Y106481
Y111481
Y116481
X176610Y111481
Y106481
X171610
Y101481
X176610
Y96481
X171610
X166610
Y101481
X161610Y96481
Y91481
X166610
X171610
X176610
Y86481
X171610
Y81481
X176610
Y76481
X171610
X151610
Y81481
Y86481
X156610
Y91481
Y106481
Y111481
Y116481
Y121481
X161610
Y126481
X166610
Y131481
Y136481
X171610
Y131481
X176610
Y126481
X171610
Y121481
X166610
Y116481
X161610
Y111481
X151610Y116481
Y131481
X156610Y136481
X186610Y106481
Y101481
X163700Y59700
X160200
Y56200
X163700
X160200Y52200
Y48200
X149600Y49700
X151610Y61481
Y66481
Y71481
X191100Y30900
X190100Y20800
X198100Y18800
X196600Y14900
X193800Y12300
X130900Y15100
X132400Y23200
X129500Y26200
X132000Y28800
X137100Y31400
X116100Y33200
X109000Y33000
X110700Y49000
X100100Y46700
X100000Y43100
X95600
Y46600
X101000Y52600
X103700Y55700
X97500Y58100
X93100Y60500
X88800Y62800
X85700Y52200
X82300Y54300
X79300Y45900
X77900Y42900
X81500Y36900
Y33000
X77200Y30400
X69732Y29925
X66700Y43000
X50700Y50600
X53000Y56900
X47800Y58100
X47900Y29400
X51200Y29100
X52800Y8900
X45900Y10100
X26900Y14600
Y18100
X23200Y16400
X20400Y3600
X15600Y4700
X5600Y10400
X700Y10300
X11500Y25300
X21500Y30300
X21100Y35100
X17600Y36200
X27531Y39057
X27600Y42200
X25900Y93100
X21400
X16900
X12400
Y97600
X16900
X21400
X25900
X30400
Y93100
Y102100
X25900
X21400
X16900
X12400
X52600Y135600
X101610Y136481
Y131481
Y126481
Y121481
X106610
X111610
X116610Y126481
X131610Y131481
Y136481
X141610
X146610
X141610Y131481
X136610
X111610Y106481
X106610
X103700Y101600
X96610Y101481
Y96481
Y91481
X91610
X93800Y99000
X86610Y101481
Y106481
X111610Y101481
Y96481
X106610
Y91481
X111610
X121610
Y81481
X126610
X131610
X136610
X141610
X146610
Y76481
X141610
X131610
X126610
Y71481
Y66481
X121610
Y61481
X126610
X131610
X141610
X146610
Y66481
Y71481
X143200Y55800
X121100Y54200
X119900Y73600
X120100Y76900
X115700Y77000
X115900Y73500
X111610Y71481
Y76481
Y81481
X106610Y76481
Y71481
X101610
X106610Y66481
X111610
X96610Y86481
X90800Y26600
X87000
X83200Y21600
X83100Y18100
X83600Y11200
X82147Y4547
X68635Y7225
X65100Y14900
X74800Y13600
X123100Y4700
X126610Y141481
Y146481
Y151481
X131610
Y156481
X136610
X141610
Y151481
X146610
Y146481
Y141481
X121610Y146481
Y151481
X116610
X111610Y146481
Y141481
X116610
X106610
X126700Y187400
Y191500
X131000
Y187400
X135300
Y191500
X146100Y191700
Y187600
X143000Y213600
X124600Y233500
X120600
X116600
X112600
X108600
Y237500
Y241500
X112600
X116600
X120600
X124600
Y237500
X120600
X116600
X112600
Y245500
X108600
Y249500
X112600
X116600
Y245500
X120600
X124600
Y249500
X120600
X66500Y249200
X62500
X58500
Y245200
X54500
X50500
Y249200
X54500
Y241200
X58500
Y237200
X54500
X50500
Y241200
Y233200
X54500
X58500
X62500
Y237200
X66500
Y241200
Y245200
X62500
Y241200
X66500Y233200
X55400Y218600
Y214600
Y210600
Y206600
X65700Y204300
X73500Y205900
Y209900
Y213900
X86500Y214000
X46600Y201300
X8500Y223200
Y227200
X4500
X500
Y223200
X4500
X-3500
Y227200
Y231300
X500
X4500
X8500
X2900Y241100
X166800
Y237100
X170800
Y233100
X174800
Y237100
Y241100
Y245100
Y249100
X170800
X166800
Y245100
X170800
Y241100
X178800
X182800
Y237100
Y233100
X178800
Y237100
Y245100
X182800
Y249100
X178800
X166800Y233100
X163400Y199700
X166900Y191700
Y187600
X171200
Y191700
X175500
Y187600
X186900Y187700
Y191800
X191200
Y187700
X195500
Y191800
X182400Y199100
X154700Y191700
Y187600
X150400
Y191700
X156610Y151481
Y146481
Y141481
X166610
Y146481
X171610Y141481
T02
X118300Y165400
Y173274
T03
X80100Y138302
X117800Y191000
T04
X163000Y80000
X136600Y69100
X110164Y132927
X25000Y117300
X136600Y143800
T05
X136610Y106481
M30
