M48
;Layer_Color=9474304
;FILE_FORMAT=2:5
INCH,TZ
;TYPE=PLATED
T1F00S00C0.01200
T2F00S00C0.12598
%
T01
X2800Y9500
Y13000
Y16500
Y20000
X13600
Y16500
Y13000
Y9500
X43100Y12600
Y16300
X43200Y20000
X54500Y21300
Y17800
Y14300
Y10800
X65300
Y14300
Y17800
Y21300
X95700Y20000
X95600Y16300
Y12600
X133700Y10900
Y14400
Y17900
Y21400
X144500
Y17900
Y14400
Y10900
X174600Y12849
Y16549
X174700Y20249
X205800Y21400
Y17900
Y14400
Y10900
X216600
Y14400
Y17900
Y21400
X246800Y20249
X246700Y16549
Y12849
X277900Y14400
Y10900
Y17900
Y21400
X288700
Y17900
Y14400
Y10900
X318800Y12849
Y16549
X318900Y20249
X350000Y21400
Y17900
Y14400
Y10900
X360800
Y14400
Y17900
Y21400
X391000Y20249
X390900Y16549
Y12849
X422100Y14400
Y10900
Y17900
Y21400
X432900
Y17900
Y14400
Y10900
X463000Y14316
Y17283
X463100Y20249
X504300Y19800
Y16300
Y12800
Y9300
X515100
Y12800
Y16300
Y19800
X545400Y20049
X545300Y16349
Y12649
X576400Y14200
Y10700
Y17700
Y21200
X587200
Y17700
Y14200
Y10700
X617400Y12649
Y16349
X617500Y20049
X638400Y21500
Y18000
Y14500
Y11000
X649200
Y14500
Y18000
Y21500
X679400Y19949
X679300Y16249
Y12549
X849200Y15500
X852700
X856200
Y19000
X852700
X849200
Y22500
X852700
X856200
Y26000
X852700
X849200
X847700Y2500
X851200
X854700
X858200
X861700
Y-1000
X858200
X854700
X851200
X847700
Y-4500
X851200
X854700
X858200
X861700
Y-8000
X858200
X854700
X851200
X847700
T02
X114173Y19685
X483640
M30
