%FSLAX25Y25*%
%MOIN*%
G70*
G01*
G75*
G04 Layer_Color=65535*
%ADD10R,0.02756X0.03543*%
%ADD11R,0.06299X0.02756*%
%ADD12R,0.17716X0.03937*%
%ADD13R,0.13386X0.05906*%
%ADD14C,0.03937*%
%ADD15C,0.02500*%
%ADD16C,0.23622*%
%ADD17C,0.02400*%
%ADD18C,0.02000*%
%ADD19C,0.00787*%
%ADD20C,0.00600*%
%ADD21C,0.01000*%
%ADD22C,0.00800*%
G36*
X763150Y5500D02*
X749650Y28300D01*
X776750D01*
X763150Y5500D01*
D02*
G37*
D18*
X642093Y25700D02*
G03*
X642093Y25700I-1140J0D01*
G01*
X580093D02*
G03*
X580093Y25700I-1140J0D01*
G01*
X508054D02*
G03*
X508054Y25700I-1140J0D01*
G01*
X425693D02*
G03*
X425693Y25700I-1140J0D01*
G01*
X353618D02*
G03*
X353618Y25700I-1140J0D01*
G01*
X281543D02*
G03*
X281543Y25700I-1140J0D01*
G01*
X209468D02*
G03*
X209468Y25700I-1140J0D01*
G01*
X137393D02*
G03*
X137393Y25700I-1140J0D01*
G01*
X58193D02*
G03*
X58193Y25700I-1140J0D01*
G01*
X6054D02*
G03*
X6054Y25700I-1140J0D01*
G01*
D19*
X669065Y22378D02*
X670640D01*
X669065Y19622D02*
X670640D01*
X607065Y22378D02*
X608640D01*
X607065Y19622D02*
X608640D01*
X535027Y22378D02*
X536602D01*
X535027Y19622D02*
X536602D01*
X452665Y22378D02*
X454240D01*
X452665Y19622D02*
X454240D01*
X380590Y22378D02*
X382165D01*
X380590Y19622D02*
X382165D01*
X308515Y22378D02*
X310090D01*
X308515Y19622D02*
X310090D01*
X236440Y22378D02*
X238015D01*
X236440Y19622D02*
X238015D01*
X164365Y22378D02*
X165940D01*
X164365Y19622D02*
X165940D01*
X85165Y22378D02*
X86740D01*
X85165Y19622D02*
X86740D01*
X33027Y22378D02*
X34602D01*
X33027Y19622D02*
X34602D01*
X669065Y17428D02*
X670640D01*
X669065Y14672D02*
X670640D01*
X607065Y17428D02*
X608640D01*
X607065Y14672D02*
X608640D01*
X535027Y17428D02*
X536602D01*
X535027Y14672D02*
X536602D01*
X452665Y17428D02*
X454240D01*
X452665Y14672D02*
X454240D01*
X380590Y17428D02*
X382165D01*
X380590Y14672D02*
X382165D01*
X308515Y17428D02*
X310090D01*
X308515Y14672D02*
X310090D01*
X236440Y17428D02*
X238015D01*
X236440Y14672D02*
X238015D01*
X164365Y17428D02*
X165940D01*
X164365Y14672D02*
X165940D01*
X85165Y17428D02*
X86740D01*
X85165Y14672D02*
X86740D01*
X33027Y17428D02*
X34602D01*
X33027Y14672D02*
X34602D01*
X669065Y12478D02*
X670640D01*
X669065Y9722D02*
X670640D01*
X607065Y12478D02*
X608640D01*
X607065Y9722D02*
X608640D01*
X535027Y12478D02*
X536602D01*
X535027Y9722D02*
X536602D01*
X452665Y12478D02*
X454240D01*
X452665Y9722D02*
X454240D01*
X380590Y12478D02*
X382165D01*
X380590Y9722D02*
X382165D01*
X308515Y12478D02*
X310090D01*
X308515Y9722D02*
X310090D01*
X236440Y12478D02*
X238015D01*
X236440Y9722D02*
X238015D01*
X164365Y12478D02*
X165940D01*
X164365Y9722D02*
X165940D01*
X85165Y12478D02*
X86740D01*
X85165Y9722D02*
X86740D01*
X33027Y12478D02*
X34602D01*
X33027Y9722D02*
X34602D01*
D20*
X643553Y9027D02*
Y23200D01*
Y9027D02*
X657726D01*
Y23200D01*
X643553D02*
X657726D01*
X581553Y9027D02*
Y23200D01*
Y9027D02*
X595726D01*
Y23200D01*
X581553D02*
X595726D01*
X509514Y9027D02*
Y23200D01*
Y9027D02*
X523687D01*
Y23200D01*
X509514D02*
X523687D01*
X427153Y9027D02*
Y23200D01*
Y9027D02*
X441326D01*
Y23200D01*
X427153D02*
X441326D01*
X355078Y9027D02*
Y23200D01*
Y9027D02*
X369251D01*
Y23200D01*
X355078D02*
X369251D01*
X283003Y9027D02*
Y23200D01*
Y9027D02*
X297176D01*
Y23200D01*
X283003D02*
X297176D01*
X210928Y9027D02*
Y23200D01*
Y9027D02*
X225101D01*
Y23200D01*
X210928D02*
X225101D01*
X138853Y9027D02*
Y23200D01*
Y9027D02*
X153026D01*
Y23200D01*
X138853D02*
X153026D01*
X59653Y9027D02*
Y23200D01*
Y9027D02*
X73826D01*
Y23200D01*
X59653D02*
X73826D01*
X7514Y9027D02*
Y23200D01*
Y9027D02*
X21687D01*
Y23200D01*
X7514D02*
X21687D01*
X660600Y36015D02*
Y39514D01*
X662349D01*
X662933Y38931D01*
Y37764D01*
X662349Y37181D01*
X660600D01*
X661766D02*
X662933Y36015D01*
X664099Y38931D02*
X664682Y39514D01*
X665848D01*
X666432Y38931D01*
Y38348D01*
X665848Y37764D01*
X665265D01*
X665848D01*
X666432Y37181D01*
Y36598D01*
X665848Y36015D01*
X664682D01*
X664099Y36598D01*
X667598Y35432D02*
X669930D01*
X671097Y39514D02*
Y36015D01*
X673429D01*
X676928Y38931D02*
X676345Y39514D01*
X675179D01*
X674595Y38931D01*
Y38348D01*
X675179Y37764D01*
X676345D01*
X676928Y37181D01*
Y36598D01*
X676345Y36015D01*
X675179D01*
X674595Y36598D01*
X678094Y36015D02*
X679261D01*
X678678D01*
Y39514D01*
X678094Y38931D01*
X681010D02*
X681593Y39514D01*
X682760D01*
X683343Y38931D01*
Y36598D01*
X682760Y36015D01*
X681593D01*
X681010Y36598D01*
Y38931D01*
X598600Y36015D02*
Y39514D01*
X600349D01*
X600933Y38931D01*
Y37764D01*
X600349Y37181D01*
X598600D01*
X599766D02*
X600933Y36015D01*
X602099Y38931D02*
X602682Y39514D01*
X603848D01*
X604431Y38931D01*
Y38348D01*
X603848Y37764D01*
X603265D01*
X603848D01*
X604431Y37181D01*
Y36598D01*
X603848Y36015D01*
X602682D01*
X602099Y36598D01*
X605598Y35432D02*
X607930D01*
X609097Y39514D02*
Y36015D01*
X611429D01*
X614928Y38931D02*
X614345Y39514D01*
X613179D01*
X612596Y38931D01*
Y38348D01*
X613179Y37764D01*
X614345D01*
X614928Y37181D01*
Y36598D01*
X614345Y36015D01*
X613179D01*
X612596Y36598D01*
X616094D02*
X616678Y36015D01*
X617844D01*
X618427Y36598D01*
Y38931D01*
X617844Y39514D01*
X616678D01*
X616094Y38931D01*
Y38348D01*
X616678Y37764D01*
X618427D01*
X526600Y36015D02*
Y39514D01*
X528349D01*
X528933Y38931D01*
Y37764D01*
X528349Y37181D01*
X526600D01*
X527766D02*
X528933Y36015D01*
X530099Y38931D02*
X530682Y39514D01*
X531848D01*
X532432Y38931D01*
Y38348D01*
X531848Y37764D01*
X531265D01*
X531848D01*
X532432Y37181D01*
Y36598D01*
X531848Y36015D01*
X530682D01*
X530099Y36598D01*
X533598Y35432D02*
X535930D01*
X537097Y39514D02*
Y36015D01*
X539429D01*
X542928Y38931D02*
X542345Y39514D01*
X541179D01*
X540595Y38931D01*
Y38348D01*
X541179Y37764D01*
X542345D01*
X542928Y37181D01*
Y36598D01*
X542345Y36015D01*
X541179D01*
X540595Y36598D01*
X544094Y38931D02*
X544677Y39514D01*
X545844D01*
X546427Y38931D01*
Y38348D01*
X545844Y37764D01*
X546427Y37181D01*
Y36598D01*
X545844Y36015D01*
X544677D01*
X544094Y36598D01*
Y37181D01*
X544677Y37764D01*
X544094Y38348D01*
Y38931D01*
X544677Y37764D02*
X545844D01*
X444200Y36015D02*
Y39514D01*
X445949D01*
X446533Y38931D01*
Y37764D01*
X445949Y37181D01*
X444200D01*
X445366D02*
X446533Y36015D01*
X447699Y38931D02*
X448282Y39514D01*
X449448D01*
X450032Y38931D01*
Y38348D01*
X449448Y37764D01*
X448865D01*
X449448D01*
X450032Y37181D01*
Y36598D01*
X449448Y36015D01*
X448282D01*
X447699Y36598D01*
X451198Y35432D02*
X453530D01*
X454697Y39514D02*
Y36015D01*
X457029D01*
X460528Y38931D02*
X459945Y39514D01*
X458779D01*
X458195Y38931D01*
Y38348D01*
X458779Y37764D01*
X459945D01*
X460528Y37181D01*
Y36598D01*
X459945Y36015D01*
X458779D01*
X458195Y36598D01*
X461694Y39514D02*
X464027D01*
Y38931D01*
X461694Y36598D01*
Y36015D01*
X372200D02*
Y39514D01*
X373949D01*
X374533Y38931D01*
Y37764D01*
X373949Y37181D01*
X372200D01*
X373366D02*
X374533Y36015D01*
X375699Y38931D02*
X376282Y39514D01*
X377448D01*
X378031Y38931D01*
Y38348D01*
X377448Y37764D01*
X376865D01*
X377448D01*
X378031Y37181D01*
Y36598D01*
X377448Y36015D01*
X376282D01*
X375699Y36598D01*
X379198Y35432D02*
X381530D01*
X382697Y39514D02*
Y36015D01*
X385029D01*
X388528Y38931D02*
X387945Y39514D01*
X386779D01*
X386195Y38931D01*
Y38348D01*
X386779Y37764D01*
X387945D01*
X388528Y37181D01*
Y36598D01*
X387945Y36015D01*
X386779D01*
X386195Y36598D01*
X392027Y39514D02*
X390861Y38931D01*
X389694Y37764D01*
Y36598D01*
X390278Y36015D01*
X391444D01*
X392027Y36598D01*
Y37181D01*
X391444Y37764D01*
X389694D01*
X300100Y36015D02*
Y39514D01*
X301849D01*
X302433Y38931D01*
Y37764D01*
X301849Y37181D01*
X300100D01*
X301266D02*
X302433Y36015D01*
X303599Y38931D02*
X304182Y39514D01*
X305348D01*
X305931Y38931D01*
Y38348D01*
X305348Y37764D01*
X304765D01*
X305348D01*
X305931Y37181D01*
Y36598D01*
X305348Y36015D01*
X304182D01*
X303599Y36598D01*
X307098Y35432D02*
X309430D01*
X310597Y39514D02*
Y36015D01*
X312929D01*
X316428Y38931D02*
X315845Y39514D01*
X314679D01*
X314095Y38931D01*
Y38348D01*
X314679Y37764D01*
X315845D01*
X316428Y37181D01*
Y36598D01*
X315845Y36015D01*
X314679D01*
X314095Y36598D01*
X319927Y39514D02*
X317594D01*
Y37764D01*
X318761Y38348D01*
X319344D01*
X319927Y37764D01*
Y36598D01*
X319344Y36015D01*
X318178D01*
X317594Y36598D01*
X228000Y36015D02*
Y39514D01*
X229749D01*
X230333Y38931D01*
Y37764D01*
X229749Y37181D01*
X228000D01*
X229166D02*
X230333Y36015D01*
X231499Y38931D02*
X232082Y39514D01*
X233248D01*
X233831Y38931D01*
Y38348D01*
X233248Y37764D01*
X232665D01*
X233248D01*
X233831Y37181D01*
Y36598D01*
X233248Y36015D01*
X232082D01*
X231499Y36598D01*
X234998Y35432D02*
X237330D01*
X238497Y39514D02*
Y36015D01*
X240829D01*
X244328Y38931D02*
X243745Y39514D01*
X242579D01*
X241996Y38931D01*
Y38348D01*
X242579Y37764D01*
X243745D01*
X244328Y37181D01*
Y36598D01*
X243745Y36015D01*
X242579D01*
X241996Y36598D01*
X247244Y36015D02*
Y39514D01*
X245494Y37764D01*
X247827D01*
X155900Y36015D02*
Y39514D01*
X157649D01*
X158233Y38931D01*
Y37764D01*
X157649Y37181D01*
X155900D01*
X157066D02*
X158233Y36015D01*
X159399Y38931D02*
X159982Y39514D01*
X161148D01*
X161731Y38931D01*
Y38348D01*
X161148Y37764D01*
X160565D01*
X161148D01*
X161731Y37181D01*
Y36598D01*
X161148Y36015D01*
X159982D01*
X159399Y36598D01*
X162898Y35432D02*
X165230D01*
X166397Y39514D02*
Y36015D01*
X168729D01*
X172228Y38931D02*
X171645Y39514D01*
X170479D01*
X169896Y38931D01*
Y38348D01*
X170479Y37764D01*
X171645D01*
X172228Y37181D01*
Y36598D01*
X171645Y36015D01*
X170479D01*
X169896Y36598D01*
X173394Y38931D02*
X173977Y39514D01*
X175144D01*
X175727Y38931D01*
Y38348D01*
X175144Y37764D01*
X174561D01*
X175144D01*
X175727Y37181D01*
Y36598D01*
X175144Y36015D01*
X173977D01*
X173394Y36598D01*
X80900Y35400D02*
Y38899D01*
X82649D01*
X83233Y38316D01*
Y37149D01*
X82649Y36566D01*
X80900D01*
X82066D02*
X83233Y35400D01*
X84399Y38316D02*
X84982Y38899D01*
X86148D01*
X86731Y38316D01*
Y37733D01*
X86148Y37149D01*
X85565D01*
X86148D01*
X86731Y36566D01*
Y35983D01*
X86148Y35400D01*
X84982D01*
X84399Y35983D01*
X87898Y34817D02*
X90230D01*
X91397Y38899D02*
Y35400D01*
X93729D01*
X97228Y38316D02*
X96645Y38899D01*
X95479D01*
X94895Y38316D01*
Y37733D01*
X95479Y37149D01*
X96645D01*
X97228Y36566D01*
Y35983D01*
X96645Y35400D01*
X95479D01*
X94895Y35983D01*
X100727Y35400D02*
X98394D01*
X100727Y37733D01*
Y38316D01*
X100144Y38899D01*
X98978D01*
X98394Y38316D01*
X29600Y35100D02*
Y38599D01*
X31349D01*
X31933Y38016D01*
Y36849D01*
X31349Y36266D01*
X29600D01*
X30766D02*
X31933Y35100D01*
X33099Y38016D02*
X33682Y38599D01*
X34848D01*
X35432Y38016D01*
Y37433D01*
X34848Y36849D01*
X34265D01*
X34848D01*
X35432Y36266D01*
Y35683D01*
X34848Y35100D01*
X33682D01*
X33099Y35683D01*
X36598Y34517D02*
X38930D01*
X40097Y38599D02*
Y35100D01*
X42429D01*
X45928Y38016D02*
X45345Y38599D01*
X44179D01*
X43595Y38016D01*
Y37433D01*
X44179Y36849D01*
X45345D01*
X45928Y36266D01*
Y35683D01*
X45345Y35100D01*
X44179D01*
X43595Y35683D01*
X47094Y35100D02*
X48261D01*
X47677D01*
Y38599D01*
X47094Y38016D01*
X660600Y31115D02*
Y34614D01*
X662349D01*
X662933Y34031D01*
Y32864D01*
X662349Y32281D01*
X660600D01*
X661766D02*
X662933Y31115D01*
X666432D02*
X664099D01*
X666432Y33448D01*
Y34031D01*
X665848Y34614D01*
X664682D01*
X664099Y34031D01*
X667598Y30532D02*
X669930D01*
X671097Y34614D02*
Y31115D01*
X673429D01*
X676928Y34031D02*
X676345Y34614D01*
X675179D01*
X674595Y34031D01*
Y33448D01*
X675179Y32864D01*
X676345D01*
X676928Y32281D01*
Y31698D01*
X676345Y31115D01*
X675179D01*
X674595Y31698D01*
X678094Y31115D02*
X679261D01*
X678678D01*
Y34614D01*
X678094Y34031D01*
X681010D02*
X681593Y34614D01*
X682760D01*
X683343Y34031D01*
Y31698D01*
X682760Y31115D01*
X681593D01*
X681010Y31698D01*
Y34031D01*
X598600Y31115D02*
Y34614D01*
X600349D01*
X600933Y34031D01*
Y32864D01*
X600349Y32281D01*
X598600D01*
X599766D02*
X600933Y31115D01*
X604431D02*
X602099D01*
X604431Y33448D01*
Y34031D01*
X603848Y34614D01*
X602682D01*
X602099Y34031D01*
X605598Y30532D02*
X607930D01*
X609097Y34614D02*
Y31115D01*
X611429D01*
X614928Y34031D02*
X614345Y34614D01*
X613179D01*
X612596Y34031D01*
Y33448D01*
X613179Y32864D01*
X614345D01*
X614928Y32281D01*
Y31698D01*
X614345Y31115D01*
X613179D01*
X612596Y31698D01*
X616094D02*
X616678Y31115D01*
X617844D01*
X618427Y31698D01*
Y34031D01*
X617844Y34614D01*
X616678D01*
X616094Y34031D01*
Y33448D01*
X616678Y32864D01*
X618427D01*
X526600Y31115D02*
Y34614D01*
X528349D01*
X528933Y34031D01*
Y32864D01*
X528349Y32281D01*
X526600D01*
X527766D02*
X528933Y31115D01*
X532432D02*
X530099D01*
X532432Y33448D01*
Y34031D01*
X531848Y34614D01*
X530682D01*
X530099Y34031D01*
X533598Y30532D02*
X535930D01*
X537097Y34614D02*
Y31115D01*
X539429D01*
X542928Y34031D02*
X542345Y34614D01*
X541179D01*
X540595Y34031D01*
Y33448D01*
X541179Y32864D01*
X542345D01*
X542928Y32281D01*
Y31698D01*
X542345Y31115D01*
X541179D01*
X540595Y31698D01*
X544094Y34031D02*
X544677Y34614D01*
X545844D01*
X546427Y34031D01*
Y33448D01*
X545844Y32864D01*
X546427Y32281D01*
Y31698D01*
X545844Y31115D01*
X544677D01*
X544094Y31698D01*
Y32281D01*
X544677Y32864D01*
X544094Y33448D01*
Y34031D01*
X544677Y32864D02*
X545844D01*
X444200Y31115D02*
Y34614D01*
X445949D01*
X446533Y34031D01*
Y32864D01*
X445949Y32281D01*
X444200D01*
X445366D02*
X446533Y31115D01*
X450032D02*
X447699D01*
X450032Y33448D01*
Y34031D01*
X449448Y34614D01*
X448282D01*
X447699Y34031D01*
X451198Y30532D02*
X453530D01*
X454697Y34614D02*
Y31115D01*
X457029D01*
X460528Y34031D02*
X459945Y34614D01*
X458779D01*
X458195Y34031D01*
Y33448D01*
X458779Y32864D01*
X459945D01*
X460528Y32281D01*
Y31698D01*
X459945Y31115D01*
X458779D01*
X458195Y31698D01*
X461694Y34614D02*
X464027D01*
Y34031D01*
X461694Y31698D01*
Y31115D01*
X372200D02*
Y34614D01*
X373949D01*
X374533Y34031D01*
Y32864D01*
X373949Y32281D01*
X372200D01*
X373366D02*
X374533Y31115D01*
X378031D02*
X375699D01*
X378031Y33448D01*
Y34031D01*
X377448Y34614D01*
X376282D01*
X375699Y34031D01*
X379198Y30532D02*
X381530D01*
X382697Y34614D02*
Y31115D01*
X385029D01*
X388528Y34031D02*
X387945Y34614D01*
X386779D01*
X386195Y34031D01*
Y33448D01*
X386779Y32864D01*
X387945D01*
X388528Y32281D01*
Y31698D01*
X387945Y31115D01*
X386779D01*
X386195Y31698D01*
X392027Y34614D02*
X390861Y34031D01*
X389694Y32864D01*
Y31698D01*
X390278Y31115D01*
X391444D01*
X392027Y31698D01*
Y32281D01*
X391444Y32864D01*
X389694D01*
X300100Y31115D02*
Y34614D01*
X301849D01*
X302433Y34031D01*
Y32864D01*
X301849Y32281D01*
X300100D01*
X301266D02*
X302433Y31115D01*
X305931D02*
X303599D01*
X305931Y33448D01*
Y34031D01*
X305348Y34614D01*
X304182D01*
X303599Y34031D01*
X307098Y30532D02*
X309430D01*
X310597Y34614D02*
Y31115D01*
X312929D01*
X316428Y34031D02*
X315845Y34614D01*
X314679D01*
X314095Y34031D01*
Y33448D01*
X314679Y32864D01*
X315845D01*
X316428Y32281D01*
Y31698D01*
X315845Y31115D01*
X314679D01*
X314095Y31698D01*
X319927Y34614D02*
X317594D01*
Y32864D01*
X318761Y33448D01*
X319344D01*
X319927Y32864D01*
Y31698D01*
X319344Y31115D01*
X318178D01*
X317594Y31698D01*
X228000Y31115D02*
Y34614D01*
X229749D01*
X230333Y34031D01*
Y32864D01*
X229749Y32281D01*
X228000D01*
X229166D02*
X230333Y31115D01*
X233831D02*
X231499D01*
X233831Y33448D01*
Y34031D01*
X233248Y34614D01*
X232082D01*
X231499Y34031D01*
X234998Y30532D02*
X237330D01*
X238497Y34614D02*
Y31115D01*
X240829D01*
X244328Y34031D02*
X243745Y34614D01*
X242579D01*
X241996Y34031D01*
Y33448D01*
X242579Y32864D01*
X243745D01*
X244328Y32281D01*
Y31698D01*
X243745Y31115D01*
X242579D01*
X241996Y31698D01*
X247244Y31115D02*
Y34614D01*
X245494Y32864D01*
X247827D01*
X155900Y31115D02*
Y34614D01*
X157649D01*
X158233Y34031D01*
Y32864D01*
X157649Y32281D01*
X155900D01*
X157066D02*
X158233Y31115D01*
X161731D02*
X159399D01*
X161731Y33448D01*
Y34031D01*
X161148Y34614D01*
X159982D01*
X159399Y34031D01*
X162898Y30532D02*
X165230D01*
X166397Y34614D02*
Y31115D01*
X168729D01*
X172228Y34031D02*
X171645Y34614D01*
X170479D01*
X169896Y34031D01*
Y33448D01*
X170479Y32864D01*
X171645D01*
X172228Y32281D01*
Y31698D01*
X171645Y31115D01*
X170479D01*
X169896Y31698D01*
X173394Y34031D02*
X173977Y34614D01*
X175144D01*
X175727Y34031D01*
Y33448D01*
X175144Y32864D01*
X174561D01*
X175144D01*
X175727Y32281D01*
Y31698D01*
X175144Y31115D01*
X173977D01*
X173394Y31698D01*
X80500Y29700D02*
Y33199D01*
X82249D01*
X82833Y32616D01*
Y31449D01*
X82249Y30866D01*
X80500D01*
X81666D02*
X82833Y29700D01*
X86331D02*
X83999D01*
X86331Y32033D01*
Y32616D01*
X85748Y33199D01*
X84582D01*
X83999Y32616D01*
X87498Y29117D02*
X89830D01*
X90997Y33199D02*
Y29700D01*
X93329D01*
X96828Y32616D02*
X96245Y33199D01*
X95079D01*
X94495Y32616D01*
Y32033D01*
X95079Y31449D01*
X96245D01*
X96828Y30866D01*
Y30283D01*
X96245Y29700D01*
X95079D01*
X94495Y30283D01*
X100327Y29700D02*
X97994D01*
X100327Y32033D01*
Y32616D01*
X99744Y33199D01*
X98577D01*
X97994Y32616D01*
X29700Y30000D02*
Y33499D01*
X31449D01*
X32033Y32916D01*
Y31749D01*
X31449Y31166D01*
X29700D01*
X30866D02*
X32033Y30000D01*
X35531D02*
X33199D01*
X35531Y32333D01*
Y32916D01*
X34948Y33499D01*
X33782D01*
X33199Y32916D01*
X36698Y29417D02*
X39030D01*
X40197Y33499D02*
Y30000D01*
X42529D01*
X46028Y32916D02*
X45445Y33499D01*
X44279D01*
X43696Y32916D01*
Y32333D01*
X44279Y31749D01*
X45445D01*
X46028Y31166D01*
Y30583D01*
X45445Y30000D01*
X44279D01*
X43696Y30583D01*
X47194Y30000D02*
X48361D01*
X47778D01*
Y33499D01*
X47194Y32916D01*
X660600Y26115D02*
Y29614D01*
X662349D01*
X662933Y29031D01*
Y27864D01*
X662349Y27281D01*
X660600D01*
X661766D02*
X662933Y26115D01*
X664099D02*
X665265D01*
X664682D01*
Y29614D01*
X664099Y29031D01*
X667015Y25532D02*
X669347D01*
X670513Y29614D02*
Y26115D01*
X672846D01*
X676345Y29031D02*
X675762Y29614D01*
X674595D01*
X674012Y29031D01*
Y28447D01*
X674595Y27864D01*
X675762D01*
X676345Y27281D01*
Y26698D01*
X675762Y26115D01*
X674595D01*
X674012Y26698D01*
X677511Y26115D02*
X678678D01*
X678094D01*
Y29614D01*
X677511Y29031D01*
X680427D02*
X681010Y29614D01*
X682176D01*
X682760Y29031D01*
Y26698D01*
X682176Y26115D01*
X681010D01*
X680427Y26698D01*
Y29031D01*
X598600Y26115D02*
Y29614D01*
X600349D01*
X600933Y29031D01*
Y27864D01*
X600349Y27281D01*
X598600D01*
X599766D02*
X600933Y26115D01*
X602099D02*
X603265D01*
X602682D01*
Y29614D01*
X602099Y29031D01*
X605015Y25532D02*
X607347D01*
X608513Y29614D02*
Y26115D01*
X610846D01*
X614345Y29031D02*
X613762Y29614D01*
X612596D01*
X612012Y29031D01*
Y28447D01*
X612596Y27864D01*
X613762D01*
X614345Y27281D01*
Y26698D01*
X613762Y26115D01*
X612596D01*
X612012Y26698D01*
X615511D02*
X616094Y26115D01*
X617261D01*
X617844Y26698D01*
Y29031D01*
X617261Y29614D01*
X616094D01*
X615511Y29031D01*
Y28447D01*
X616094Y27864D01*
X617844D01*
X526600Y26115D02*
Y29614D01*
X528349D01*
X528933Y29031D01*
Y27864D01*
X528349Y27281D01*
X526600D01*
X527766D02*
X528933Y26115D01*
X530099D02*
X531265D01*
X530682D01*
Y29614D01*
X530099Y29031D01*
X533015Y25532D02*
X535347D01*
X536514Y29614D02*
Y26115D01*
X538846D01*
X542345Y29031D02*
X541762Y29614D01*
X540595D01*
X540012Y29031D01*
Y28447D01*
X540595Y27864D01*
X541762D01*
X542345Y27281D01*
Y26698D01*
X541762Y26115D01*
X540595D01*
X540012Y26698D01*
X543511Y29031D02*
X544094Y29614D01*
X545261D01*
X545844Y29031D01*
Y28447D01*
X545261Y27864D01*
X545844Y27281D01*
Y26698D01*
X545261Y26115D01*
X544094D01*
X543511Y26698D01*
Y27281D01*
X544094Y27864D01*
X543511Y28447D01*
Y29031D01*
X544094Y27864D02*
X545261D01*
X444200Y26115D02*
Y29614D01*
X445949D01*
X446533Y29031D01*
Y27864D01*
X445949Y27281D01*
X444200D01*
X445366D02*
X446533Y26115D01*
X447699D02*
X448865D01*
X448282D01*
Y29614D01*
X447699Y29031D01*
X450615Y25532D02*
X452947D01*
X454113Y29614D02*
Y26115D01*
X456446D01*
X459945Y29031D02*
X459362Y29614D01*
X458195D01*
X457612Y29031D01*
Y28447D01*
X458195Y27864D01*
X459362D01*
X459945Y27281D01*
Y26698D01*
X459362Y26115D01*
X458195D01*
X457612Y26698D01*
X461111Y29614D02*
X463444D01*
Y29031D01*
X461111Y26698D01*
Y26115D01*
X372200D02*
Y29614D01*
X373949D01*
X374533Y29031D01*
Y27864D01*
X373949Y27281D01*
X372200D01*
X373366D02*
X374533Y26115D01*
X375699D02*
X376865D01*
X376282D01*
Y29614D01*
X375699Y29031D01*
X378615Y25532D02*
X380947D01*
X382114Y29614D02*
Y26115D01*
X384446D01*
X387945Y29031D02*
X387362Y29614D01*
X386195D01*
X385612Y29031D01*
Y28447D01*
X386195Y27864D01*
X387362D01*
X387945Y27281D01*
Y26698D01*
X387362Y26115D01*
X386195D01*
X385612Y26698D01*
X391444Y29614D02*
X390278Y29031D01*
X389111Y27864D01*
Y26698D01*
X389694Y26115D01*
X390861D01*
X391444Y26698D01*
Y27281D01*
X390861Y27864D01*
X389111D01*
X300100Y26115D02*
Y29614D01*
X301849D01*
X302433Y29031D01*
Y27864D01*
X301849Y27281D01*
X300100D01*
X301266D02*
X302433Y26115D01*
X303599D02*
X304765D01*
X304182D01*
Y29614D01*
X303599Y29031D01*
X306515Y25532D02*
X308847D01*
X310014Y29614D02*
Y26115D01*
X312346D01*
X315845Y29031D02*
X315262Y29614D01*
X314095D01*
X313512Y29031D01*
Y28447D01*
X314095Y27864D01*
X315262D01*
X315845Y27281D01*
Y26698D01*
X315262Y26115D01*
X314095D01*
X313512Y26698D01*
X319344Y29614D02*
X317011D01*
Y27864D01*
X318178Y28447D01*
X318761D01*
X319344Y27864D01*
Y26698D01*
X318761Y26115D01*
X317594D01*
X317011Y26698D01*
X228000Y26115D02*
Y29614D01*
X229749D01*
X230333Y29031D01*
Y27864D01*
X229749Y27281D01*
X228000D01*
X229166D02*
X230333Y26115D01*
X231499D02*
X232665D01*
X232082D01*
Y29614D01*
X231499Y29031D01*
X234415Y25532D02*
X236747D01*
X237913Y29614D02*
Y26115D01*
X240246D01*
X243745Y29031D02*
X243162Y29614D01*
X241996D01*
X241412Y29031D01*
Y28447D01*
X241996Y27864D01*
X243162D01*
X243745Y27281D01*
Y26698D01*
X243162Y26115D01*
X241996D01*
X241412Y26698D01*
X246661Y26115D02*
Y29614D01*
X244911Y27864D01*
X247244D01*
X155900Y26115D02*
Y29614D01*
X157649D01*
X158233Y29031D01*
Y27864D01*
X157649Y27281D01*
X155900D01*
X157066D02*
X158233Y26115D01*
X159399D02*
X160565D01*
X159982D01*
Y29614D01*
X159399Y29031D01*
X162315Y25532D02*
X164647D01*
X165814Y29614D02*
Y26115D01*
X168146D01*
X171645Y29031D02*
X171062Y29614D01*
X169896D01*
X169312Y29031D01*
Y28447D01*
X169896Y27864D01*
X171062D01*
X171645Y27281D01*
Y26698D01*
X171062Y26115D01*
X169896D01*
X169312Y26698D01*
X172811Y29031D02*
X173394Y29614D01*
X174561D01*
X175144Y29031D01*
Y28447D01*
X174561Y27864D01*
X173977D01*
X174561D01*
X175144Y27281D01*
Y26698D01*
X174561Y26115D01*
X173394D01*
X172811Y26698D01*
X80600Y24800D02*
Y28299D01*
X82349D01*
X82933Y27716D01*
Y26549D01*
X82349Y25966D01*
X80600D01*
X81766D02*
X82933Y24800D01*
X84099D02*
X85265D01*
X84682D01*
Y28299D01*
X84099Y27716D01*
X87015Y24217D02*
X89347D01*
X90513Y28299D02*
Y24800D01*
X92846D01*
X96345Y27716D02*
X95762Y28299D01*
X94595D01*
X94012Y27716D01*
Y27133D01*
X94595Y26549D01*
X95762D01*
X96345Y25966D01*
Y25383D01*
X95762Y24800D01*
X94595D01*
X94012Y25383D01*
X99844Y24800D02*
X97511D01*
X99844Y27133D01*
Y27716D01*
X99261Y28299D01*
X98094D01*
X97511Y27716D01*
X29800Y24900D02*
Y28399D01*
X31549D01*
X32133Y27816D01*
Y26649D01*
X31549Y26066D01*
X29800D01*
X30966D02*
X32133Y24900D01*
X33299D02*
X34465D01*
X33882D01*
Y28399D01*
X33299Y27816D01*
X36215Y24317D02*
X38547D01*
X39713Y28399D02*
Y24900D01*
X42046D01*
X45545Y27816D02*
X44962Y28399D01*
X43795D01*
X43212Y27816D01*
Y27233D01*
X43795Y26649D01*
X44962D01*
X45545Y26066D01*
Y25483D01*
X44962Y24900D01*
X43795D01*
X43212Y25483D01*
X46711Y24900D02*
X47877D01*
X47294D01*
Y28399D01*
X46711Y27816D01*
X661700Y2501D02*
Y6000D01*
X659951D01*
X659367Y5417D01*
Y3084D01*
X659951Y2501D01*
X661700D01*
X658201Y6000D02*
X657035D01*
X657618D01*
Y2501D01*
X658201Y3084D01*
X655285Y6583D02*
X652953D01*
X651787Y2501D02*
Y6000D01*
X649454D01*
X645955Y3084D02*
X646538Y2501D01*
X647705D01*
X648288Y3084D01*
Y3667D01*
X647705Y4251D01*
X646538D01*
X645955Y4834D01*
Y5417D01*
X646538Y6000D01*
X647705D01*
X648288Y5417D01*
X644789Y6000D02*
X643622D01*
X644206D01*
Y2501D01*
X644789Y3084D01*
X641873D02*
X641290Y2501D01*
X640124D01*
X639540Y3084D01*
Y5417D01*
X640124Y6000D01*
X641290D01*
X641873Y5417D01*
Y3084D01*
X597700Y2801D02*
Y6300D01*
X595951D01*
X595367Y5717D01*
Y3384D01*
X595951Y2801D01*
X597700D01*
X594201Y6300D02*
X593035D01*
X593618D01*
Y2801D01*
X594201Y3384D01*
X591285Y6883D02*
X588953D01*
X587786Y2801D02*
Y6300D01*
X585454D01*
X581955Y3384D02*
X582538Y2801D01*
X583705D01*
X584288Y3384D01*
Y3967D01*
X583705Y4551D01*
X582538D01*
X581955Y5134D01*
Y5717D01*
X582538Y6300D01*
X583705D01*
X584288Y5717D01*
X580789D02*
X580206Y6300D01*
X579039D01*
X578456Y5717D01*
Y3384D01*
X579039Y2801D01*
X580206D01*
X580789Y3384D01*
Y3967D01*
X580206Y4551D01*
X578456D01*
X526200Y2001D02*
Y5500D01*
X524451D01*
X523867Y4917D01*
Y2584D01*
X524451Y2001D01*
X526200D01*
X522701Y5500D02*
X521535D01*
X522118D01*
Y2001D01*
X522701Y2584D01*
X519785Y6083D02*
X517453D01*
X516287Y2001D02*
Y5500D01*
X513954D01*
X510455Y2584D02*
X511038Y2001D01*
X512205D01*
X512788Y2584D01*
Y3167D01*
X512205Y3751D01*
X511038D01*
X510455Y4334D01*
Y4917D01*
X511038Y5500D01*
X512205D01*
X512788Y4917D01*
X509289Y2584D02*
X508706Y2001D01*
X507539D01*
X506956Y2584D01*
Y3167D01*
X507539Y3751D01*
X506956Y4334D01*
Y4917D01*
X507539Y5500D01*
X508706D01*
X509289Y4917D01*
Y4334D01*
X508706Y3751D01*
X509289Y3167D01*
Y2584D01*
X508706Y3751D02*
X507539D01*
X443900Y2801D02*
Y6300D01*
X442151D01*
X441567Y5717D01*
Y3384D01*
X442151Y2801D01*
X443900D01*
X440401Y6300D02*
X439235D01*
X439818D01*
Y2801D01*
X440401Y3384D01*
X437485Y6883D02*
X435153D01*
X433987Y2801D02*
Y6300D01*
X431654D01*
X428155Y3384D02*
X428738Y2801D01*
X429905D01*
X430488Y3384D01*
Y3967D01*
X429905Y4551D01*
X428738D01*
X428155Y5134D01*
Y5717D01*
X428738Y6300D01*
X429905D01*
X430488Y5717D01*
X426989Y2801D02*
X424656D01*
Y3384D01*
X426989Y5717D01*
Y6300D01*
X371500Y2401D02*
Y5900D01*
X369751D01*
X369167Y5317D01*
Y2984D01*
X369751Y2401D01*
X371500D01*
X368001Y5900D02*
X366835D01*
X367418D01*
Y2401D01*
X368001Y2984D01*
X365085Y6483D02*
X362753D01*
X361586Y2401D02*
Y5900D01*
X359254D01*
X355755Y2984D02*
X356338Y2401D01*
X357505D01*
X358088Y2984D01*
Y3567D01*
X357505Y4151D01*
X356338D01*
X355755Y4734D01*
Y5317D01*
X356338Y5900D01*
X357505D01*
X358088Y5317D01*
X352256Y2401D02*
X353422Y2984D01*
X354589Y4151D01*
Y5317D01*
X354006Y5900D01*
X352839D01*
X352256Y5317D01*
Y4734D01*
X352839Y4151D01*
X354589D01*
X299800Y2801D02*
Y6300D01*
X298051D01*
X297467Y5717D01*
Y3384D01*
X298051Y2801D01*
X299800D01*
X296301Y6300D02*
X295135D01*
X295718D01*
Y2801D01*
X296301Y3384D01*
X293385Y6883D02*
X291053D01*
X289886Y2801D02*
Y6300D01*
X287554D01*
X284055Y3384D02*
X284638Y2801D01*
X285805D01*
X286388Y3384D01*
Y3967D01*
X285805Y4551D01*
X284638D01*
X284055Y5134D01*
Y5717D01*
X284638Y6300D01*
X285805D01*
X286388Y5717D01*
X280556Y2801D02*
X282889D01*
Y4551D01*
X281722Y3967D01*
X281139D01*
X280556Y4551D01*
Y5717D01*
X281139Y6300D01*
X282306D01*
X282889Y5717D01*
X227700Y2401D02*
Y5900D01*
X225951D01*
X225367Y5317D01*
Y2984D01*
X225951Y2401D01*
X227700D01*
X224201Y5900D02*
X223035D01*
X223618D01*
Y2401D01*
X224201Y2984D01*
X221285Y6483D02*
X218953D01*
X217787Y2401D02*
Y5900D01*
X215454D01*
X211955Y2984D02*
X212538Y2401D01*
X213704D01*
X214288Y2984D01*
Y3567D01*
X213704Y4151D01*
X212538D01*
X211955Y4734D01*
Y5317D01*
X212538Y5900D01*
X213704D01*
X214288Y5317D01*
X209039Y5900D02*
Y2401D01*
X210789Y4151D01*
X208456D01*
X156200Y2301D02*
Y5800D01*
X154451D01*
X153867Y5217D01*
Y2884D01*
X154451Y2301D01*
X156200D01*
X152701Y5800D02*
X151535D01*
X152118D01*
Y2301D01*
X152701Y2884D01*
X149785Y6383D02*
X147453D01*
X146286Y2301D02*
Y5800D01*
X143954D01*
X140455Y2884D02*
X141038Y2301D01*
X142204D01*
X142788Y2884D01*
Y3467D01*
X142204Y4051D01*
X141038D01*
X140455Y4634D01*
Y5217D01*
X141038Y5800D01*
X142204D01*
X142788Y5217D01*
X139289Y2884D02*
X138706Y2301D01*
X137539D01*
X136956Y2884D01*
Y3467D01*
X137539Y4051D01*
X138122D01*
X137539D01*
X136956Y4634D01*
Y5217D01*
X137539Y5800D01*
X138706D01*
X139289Y5217D01*
X76700Y2301D02*
Y5800D01*
X74951D01*
X74367Y5217D01*
Y2884D01*
X74951Y2301D01*
X76700D01*
X73201Y5800D02*
X72035D01*
X72618D01*
Y2301D01*
X73201Y2884D01*
X70285Y6383D02*
X67953D01*
X66786Y2301D02*
Y5800D01*
X64454D01*
X60955Y2884D02*
X61538Y2301D01*
X62704D01*
X63288Y2884D01*
Y3467D01*
X62704Y4051D01*
X61538D01*
X60955Y4634D01*
Y5217D01*
X61538Y5800D01*
X62704D01*
X63288Y5217D01*
X57456Y5800D02*
X59789D01*
X57456Y3467D01*
Y2884D01*
X58039Y2301D01*
X59206D01*
X59789Y2884D01*
X24100Y2501D02*
Y6000D01*
X22351D01*
X21767Y5417D01*
Y3084D01*
X22351Y2501D01*
X24100D01*
X20601Y6000D02*
X19435D01*
X20018D01*
Y2501D01*
X20601Y3084D01*
X17685Y6583D02*
X15353D01*
X14187Y2501D02*
Y6000D01*
X11854D01*
X8355Y3084D02*
X8938Y2501D01*
X10104D01*
X10688Y3084D01*
Y3667D01*
X10104Y4251D01*
X8938D01*
X8355Y4834D01*
Y5417D01*
X8938Y6000D01*
X10104D01*
X10688Y5417D01*
X7189Y6000D02*
X6022D01*
X6606D01*
Y2501D01*
X7189Y3084D01*
X826600Y31800D02*
X823101D01*
Y33549D01*
X823684Y34133D01*
X824851D01*
X825434Y33549D01*
Y31800D01*
X826600Y35299D02*
Y36465D01*
Y35882D01*
X823101D01*
X823684Y35299D01*
X25899Y37367D02*
Y39700D01*
X24149D01*
Y38534D01*
Y39700D01*
X22400D01*
X25899Y36201D02*
Y35035D01*
Y35618D01*
X22400D01*
Y36201D01*
Y35035D01*
X25899Y33285D02*
X22400D01*
Y31536D01*
X22983Y30953D01*
X25316D01*
X25899Y31536D01*
Y33285D01*
X22400Y29787D02*
Y28620D01*
Y29203D01*
X25899D01*
X25316Y29787D01*
X257333Y19814D02*
X255000D01*
Y18064D01*
X256166D01*
X255000D01*
Y16315D01*
X258499Y19814D02*
X259665D01*
X259082D01*
Y16315D01*
X258499D01*
X259665D01*
X261415Y19814D02*
Y16315D01*
X263164D01*
X263747Y16898D01*
Y19231D01*
X263164Y19814D01*
X261415D01*
X267246Y16315D02*
X264914D01*
X267246Y18647D01*
Y19231D01*
X266663Y19814D01*
X265497D01*
X264914Y19231D01*
X739999Y34667D02*
Y37000D01*
X738249D01*
Y35834D01*
Y37000D01*
X736500D01*
X739999Y33501D02*
Y32335D01*
Y32918D01*
X736500D01*
Y33501D01*
Y32335D01*
X739999Y30585D02*
X736500D01*
Y28836D01*
X737083Y28253D01*
X739416D01*
X739999Y28836D01*
Y30585D01*
X739416Y27086D02*
X739999Y26503D01*
Y25337D01*
X739416Y24754D01*
X738833D01*
X738249Y25337D01*
Y25920D01*
Y25337D01*
X737666Y24754D01*
X737083D01*
X736500Y25337D01*
Y26503D01*
X737083Y27086D01*
X113140Y36378D02*
Y32879D01*
Y34629D01*
X115473D01*
Y36378D01*
Y32879D01*
X116639D02*
X117805D01*
X117222D01*
Y36378D01*
X116639Y35795D01*
X480200Y38599D02*
Y35100D01*
Y36849D01*
X482533D01*
Y38599D01*
Y35100D01*
X486031D02*
X483699D01*
X486031Y37433D01*
Y38016D01*
X485448Y38599D01*
X484282D01*
X483699Y38016D01*
X691400Y9599D02*
Y6100D01*
X693733D01*
X696648D02*
X695482D01*
X694899Y6683D01*
Y7849D01*
X695482Y8433D01*
X696648D01*
X697231Y7849D01*
Y7266D01*
X694899D01*
X700730Y9599D02*
Y6100D01*
X698981D01*
X698398Y6683D01*
Y7849D01*
X698981Y8433D01*
X700730D01*
X701897Y9599D02*
Y6100D01*
X703646D01*
X704229Y6683D01*
Y7266D01*
X703646Y7849D01*
X701897D01*
X703646D01*
X704229Y8433D01*
Y9016D01*
X703646Y9599D01*
X701897D01*
X705979Y6100D02*
X707145D01*
X707728Y6683D01*
Y7849D01*
X707145Y8433D01*
X705979D01*
X705396Y7849D01*
Y6683D01*
X705979Y6100D01*
X709478Y8433D02*
X710644D01*
X711227Y7849D01*
Y6100D01*
X709478D01*
X708894Y6683D01*
X709478Y7266D01*
X711227D01*
X712393Y8433D02*
Y6100D01*
Y7266D01*
X712976Y7849D01*
X713559Y8433D01*
X714143D01*
X718225Y9599D02*
Y6100D01*
X716475D01*
X715892Y6683D01*
Y7849D01*
X716475Y8433D01*
X718225D01*
X722890Y9599D02*
Y7266D01*
X724056Y6100D01*
X725222Y7266D01*
Y9599D01*
X726389Y6100D02*
X727555D01*
X726972D01*
Y9599D01*
X726389Y9016D01*
X729304Y6100D02*
Y6683D01*
X729888D01*
Y6100D01*
X729304D01*
X732220Y9016D02*
X732803Y9599D01*
X733970D01*
X734553Y9016D01*
Y6683D01*
X733970Y6100D01*
X732803D01*
X732220Y6683D01*
Y9016D01*
X735719Y6100D02*
X736885D01*
X736302D01*
Y9599D01*
X735719Y9016D01*
D21*
X829748Y37685D02*
X850516D01*
X864182Y31578D02*
X864197Y-10346D01*
X829748Y29811D02*
Y37685D01*
X830142Y-16941D02*
X850811D01*
X830043Y-16941D02*
Y-9067D01*
D22*
X778932Y19998D02*
X775600D01*
Y17499D01*
X777266D01*
X775600D01*
Y15000D01*
X780598D02*
Y18332D01*
X782265Y19998D01*
X783931Y18332D01*
Y15000D01*
Y17499D01*
X780598D01*
X785597Y19998D02*
Y15000D01*
X788096D01*
X788929Y15833D01*
Y16666D01*
X788096Y17499D01*
X785597D01*
X788096D01*
X788929Y18332D01*
Y19165D01*
X788096Y19998D01*
X785597D01*
X791428Y19165D02*
Y18332D01*
X790595D01*
X792261D01*
X791428D01*
Y15833D01*
X792261Y15000D01*
X795594D02*
X797260D01*
X798093Y15833D01*
Y17499D01*
X797260Y18332D01*
X795594D01*
X794761Y17499D01*
Y15833D01*
X795594Y15000D01*
X800592Y19165D02*
Y18332D01*
X799759D01*
X801425D01*
X800592D01*
Y15833D01*
X801425Y15000D01*
X803924Y18332D02*
Y15833D01*
X804757Y15000D01*
X807256D01*
Y18332D01*
X808922Y15000D02*
Y18332D01*
X809756D01*
X810589Y17499D01*
Y15000D01*
Y17499D01*
X811422Y18332D01*
X812255Y17499D01*
Y15000D01*
M02*
