%FSLAX25Y25*%
%MOIN*%
G70*
G01*
G75*
G04 Layer_Color=8388736*
%ADD10R,0.02756X0.03543*%
%ADD11R,0.06299X0.02756*%
%ADD12R,0.17716X0.03937*%
%ADD13R,0.13386X0.05906*%
%ADD14C,0.03937*%
%ADD15C,0.02500*%
%ADD16C,0.23622*%
%ADD17C,0.02400*%
%ADD18C,0.02000*%
%ADD19C,0.00787*%
%ADD20C,0.00600*%
%ADD21C,0.01000*%
%ADD22C,0.00800*%
%ADD23R,0.03356X0.04143*%
%ADD24R,0.06899X0.03356*%
%ADD25R,0.17116X0.03337*%
%ADD26R,0.12786X0.05306*%
%ADD27R,0.18316X0.04537*%
%ADD28R,0.13986X0.06506*%
%ADD29C,0.11811*%
%ADD30C,0.24222*%
D23*
X666900Y21000D02*
D03*
X672806D02*
D03*
X604900D02*
D03*
X610806D02*
D03*
X532861D02*
D03*
X538767D02*
D03*
X450500D02*
D03*
X456405D02*
D03*
X378425D02*
D03*
X384331D02*
D03*
X306350D02*
D03*
X312256D02*
D03*
X234275D02*
D03*
X240180D02*
D03*
X162200D02*
D03*
X168105D02*
D03*
X83000D02*
D03*
X88906D02*
D03*
X30861D02*
D03*
X36767D02*
D03*
X666900Y16050D02*
D03*
X672806D02*
D03*
X604900D02*
D03*
X610806D02*
D03*
X532861D02*
D03*
X538767D02*
D03*
X450500D02*
D03*
X456405D02*
D03*
X378425D02*
D03*
X384331D02*
D03*
X306350D02*
D03*
X312256D02*
D03*
X234275D02*
D03*
X240180D02*
D03*
X162200D02*
D03*
X168105D02*
D03*
X83000D02*
D03*
X88906D02*
D03*
X30861D02*
D03*
X36767D02*
D03*
X666900Y11100D02*
D03*
X672806D02*
D03*
X604900D02*
D03*
X610806D02*
D03*
X532861D02*
D03*
X538767D02*
D03*
X450500D02*
D03*
X456405D02*
D03*
X378425D02*
D03*
X384331D02*
D03*
X306350D02*
D03*
X312256D02*
D03*
X234275D02*
D03*
X240180D02*
D03*
X162200D02*
D03*
X168105D02*
D03*
X83000D02*
D03*
X88906D02*
D03*
X30861D02*
D03*
X36767D02*
D03*
D24*
X657139Y20200D02*
D03*
Y16066D02*
D03*
Y11932D02*
D03*
X643753D02*
D03*
Y16066D02*
D03*
Y20200D02*
D03*
X595139D02*
D03*
Y16066D02*
D03*
Y11932D02*
D03*
X581753D02*
D03*
Y16066D02*
D03*
Y20200D02*
D03*
X523100D02*
D03*
Y16066D02*
D03*
Y11932D02*
D03*
X509714D02*
D03*
Y16066D02*
D03*
Y20200D02*
D03*
X440739D02*
D03*
Y16066D02*
D03*
Y11932D02*
D03*
X427353D02*
D03*
Y16066D02*
D03*
Y20200D02*
D03*
X368664D02*
D03*
Y16066D02*
D03*
Y11932D02*
D03*
X355278D02*
D03*
Y16066D02*
D03*
Y20200D02*
D03*
X296589D02*
D03*
Y16066D02*
D03*
Y11932D02*
D03*
X283203D02*
D03*
Y16066D02*
D03*
Y20200D02*
D03*
X224514D02*
D03*
Y16066D02*
D03*
Y11932D02*
D03*
X211128D02*
D03*
Y16066D02*
D03*
Y20200D02*
D03*
X152439D02*
D03*
Y16066D02*
D03*
Y11932D02*
D03*
X139053D02*
D03*
Y16066D02*
D03*
Y20200D02*
D03*
X73239D02*
D03*
Y16066D02*
D03*
Y11932D02*
D03*
X59853D02*
D03*
Y16066D02*
D03*
Y20200D02*
D03*
X21100D02*
D03*
Y16066D02*
D03*
Y11932D02*
D03*
X7714D02*
D03*
Y16066D02*
D03*
Y20200D02*
D03*
D27*
X834472Y26563D02*
D03*
Y18689D02*
D03*
Y10815D02*
D03*
Y-4933D02*
D03*
Y2941D02*
D03*
D28*
X858291Y35815D02*
D03*
Y-14185D02*
D03*
D29*
X13400Y34200D02*
D03*
X260300Y7800D02*
D03*
X727000Y32600D02*
D03*
D30*
X114173Y19685D02*
D03*
X483640D02*
D03*
M02*
