%FSLAX25Y25*%
%MOIN*%
G70*
G01*
G75*
G04 Layer_Physical_Order=1*
G04 Layer_Color=255*
%ADD10R,0.02756X0.03543*%
%ADD11R,0.06299X0.02756*%
%ADD12R,0.17716X0.03937*%
%ADD13R,0.13386X0.05906*%
%ADD14C,0.03937*%
%ADD15C,0.02500*%
%ADD16C,0.23622*%
%ADD17C,0.02400*%
G36*
X363600Y7400D02*
X344800D01*
Y26400D01*
X363600D01*
Y7400D01*
D02*
G37*
G36*
X291500D02*
X272700D01*
Y26400D01*
X291500D01*
Y7400D01*
D02*
G37*
G36*
X219400D02*
X200600D01*
Y26400D01*
X219400D01*
Y7400D01*
D02*
G37*
G36*
X824451Y15600D02*
X824641Y15141D01*
X825100Y14951D01*
X844851D01*
Y12300D01*
X845041Y11841D01*
X845500Y11651D01*
X846100D01*
Y5649D01*
X843931D01*
X843593Y5509D01*
X825352D01*
X825014Y5649D01*
X824039D01*
X823580Y5459D01*
X823390Y5000D01*
Y1356D01*
X823003Y1039D01*
X822663Y1107D01*
X1122D01*
Y5351D01*
X16400D01*
X16859Y5541D01*
X17049Y6000D01*
Y9954D01*
X17350D01*
Y9954D01*
X24850D01*
Y10046D01*
X28883D01*
Y8728D01*
X32839D01*
Y13472D01*
D01*
Y13472D01*
X32839Y13472D01*
Y13678D01*
X32839D01*
Y16400D01*
X34151D01*
Y14000D01*
X34341Y13541D01*
X34800Y13351D01*
X39451D01*
Y10200D01*
Y9900D01*
X39641Y9441D01*
X40100Y9251D01*
X45500D01*
X45959Y9441D01*
X46149Y9900D01*
Y16400D01*
X48651D01*
Y7300D01*
X48841Y6841D01*
X49300Y6651D01*
X68100D01*
X68559Y6841D01*
X68749Y7300D01*
Y16400D01*
X69489D01*
Y14088D01*
X69489Y14088D01*
X69489Y13910D01*
X69489D01*
Y9954D01*
X76988D01*
Y10046D01*
X81022D01*
Y8728D01*
X84978D01*
Y13472D01*
D01*
Y13472D01*
X84978Y13472D01*
Y13678D01*
X84978D01*
Y16400D01*
X86651D01*
Y14000D01*
X86841Y13541D01*
X87300Y13351D01*
X91951D01*
Y10200D01*
Y9900D01*
X92141Y9441D01*
X92600Y9251D01*
X98000D01*
X98459Y9441D01*
X98649Y9900D01*
Y16400D01*
X102198D01*
X102333Y15838D01*
X103081Y14033D01*
X104101Y12368D01*
X105370Y10882D01*
X106856Y9613D01*
X108521Y8592D01*
X110326Y7845D01*
X112226Y7389D01*
X114173Y7236D01*
X116121Y7389D01*
X118020Y7845D01*
X119825Y8592D01*
X121491Y9613D01*
X122976Y10882D01*
X124245Y12368D01*
X125266Y14033D01*
X126013Y15838D01*
X126148Y16400D01*
X127851D01*
Y7400D01*
X128041Y6941D01*
X128500Y6751D01*
X147300D01*
X147759Y6941D01*
X147949Y7400D01*
Y16400D01*
X148689D01*
Y14088D01*
X148689Y14088D01*
X148689Y13910D01*
X148689D01*
Y9954D01*
X156188D01*
Y10046D01*
X160222D01*
Y8728D01*
X164178D01*
Y13472D01*
D01*
Y13472D01*
X164178Y13472D01*
Y13678D01*
X164178D01*
Y16400D01*
X165651D01*
Y14249D01*
X165841Y13790D01*
X166300Y13600D01*
X170951D01*
Y10449D01*
Y10149D01*
X171141Y9690D01*
X171600Y9500D01*
X177000D01*
X177459Y9690D01*
X177649Y10149D01*
Y16400D01*
X199951D01*
Y7400D01*
X200141Y6941D01*
X200600Y6751D01*
X219400D01*
X219859Y6941D01*
X220049Y7400D01*
Y16400D01*
X220764D01*
Y14088D01*
X220764Y14088D01*
X220764Y13910D01*
X220764D01*
Y9954D01*
X228263D01*
Y10046D01*
X232297D01*
Y8728D01*
X236253D01*
Y13472D01*
D01*
Y13472D01*
X236253Y13472D01*
Y13678D01*
X236253D01*
Y16400D01*
X237751D01*
Y14249D01*
X237941Y13790D01*
X238203Y13682D01*
Y13678D01*
X238211D01*
X238400Y13600D01*
X243051D01*
Y10449D01*
Y10149D01*
X243241Y9690D01*
X243700Y9500D01*
X249100D01*
X249559Y9690D01*
X249749Y10149D01*
Y16400D01*
X272051D01*
Y7400D01*
X272241Y6941D01*
X272700Y6751D01*
X291500D01*
X291959Y6941D01*
X292149Y7400D01*
Y16400D01*
X292839D01*
Y14088D01*
X292839Y14088D01*
X292839Y13910D01*
X292839D01*
Y9954D01*
X300338D01*
Y10046D01*
X304372D01*
Y8728D01*
X308328D01*
Y13472D01*
D01*
Y13472D01*
X308328Y13472D01*
Y13678D01*
X308328D01*
Y16400D01*
X309851D01*
Y14249D01*
X310041Y13790D01*
X310278Y13692D01*
Y13678D01*
X310311D01*
X310500Y13600D01*
X315151D01*
Y10449D01*
Y10149D01*
X315341Y9690D01*
X315800Y9500D01*
X321200D01*
X321659Y9690D01*
X321849Y10149D01*
Y16400D01*
X344151D01*
Y7400D01*
X344341Y6941D01*
X344800Y6751D01*
X363600D01*
X364059Y6941D01*
X364249Y7400D01*
Y16400D01*
X364914D01*
Y14088D01*
X364914Y14088D01*
X364914Y13910D01*
X364914D01*
Y9954D01*
X372413D01*
Y10046D01*
X376447D01*
Y8728D01*
X380403D01*
Y13472D01*
D01*
Y13472D01*
X380403Y13472D01*
Y13678D01*
X380403D01*
Y16400D01*
X381951D01*
Y14249D01*
X382141Y13790D01*
X382353Y13702D01*
Y13678D01*
X382411D01*
X382600Y13600D01*
X387251D01*
Y10449D01*
Y10149D01*
X387441Y9690D01*
X387900Y9500D01*
X393300D01*
X393759Y9690D01*
X393949Y10149D01*
Y16400D01*
X416251D01*
Y7400D01*
X416441Y6941D01*
X416900Y6751D01*
X435700D01*
X436159Y6941D01*
X436349Y7400D01*
Y16400D01*
X436989D01*
Y14088D01*
X436989Y14088D01*
X436989Y13910D01*
X436989D01*
Y9954D01*
X444488D01*
Y10046D01*
X448522D01*
Y8728D01*
X452478D01*
Y13472D01*
D01*
Y13472D01*
X452478Y13472D01*
Y13678D01*
X452478D01*
Y16400D01*
X454051D01*
Y14249D01*
X454241Y13790D01*
X454428Y13713D01*
Y13678D01*
X454511D01*
X454700Y13600D01*
X459351D01*
Y10449D01*
Y10149D01*
X459541Y9690D01*
X460000Y9500D01*
X465400D01*
X465859Y9690D01*
X466049Y10149D01*
Y16400D01*
X471665D01*
X471800Y15838D01*
X472548Y14033D01*
X473568Y12368D01*
X474837Y10882D01*
X476323Y9613D01*
X477988Y8592D01*
X479793Y7845D01*
X481693Y7389D01*
X483640Y7236D01*
X485588Y7389D01*
X487487Y7845D01*
X489292Y8592D01*
X490958Y9613D01*
X492443Y10882D01*
X493712Y12368D01*
X494733Y14033D01*
X495480Y15838D01*
X495615Y16400D01*
X498451D01*
Y5800D01*
X498641Y5341D01*
X499100Y5151D01*
X517900D01*
X518359Y5341D01*
X518549Y5800D01*
Y16400D01*
X519350D01*
Y14088D01*
X519350Y14088D01*
X519350Y13910D01*
X519350D01*
Y9954D01*
X526850D01*
Y10046D01*
X530884D01*
Y8728D01*
X534839D01*
Y13472D01*
D01*
Y13472D01*
X534839Y13472D01*
Y13678D01*
X534839D01*
Y16400D01*
X536351D01*
Y14049D01*
X536541Y13590D01*
X537000Y13400D01*
X541651D01*
Y10249D01*
Y9949D01*
X541841Y9490D01*
X542300Y9300D01*
X547700D01*
X548159Y9490D01*
X548349Y9949D01*
Y16400D01*
X570551D01*
Y7200D01*
X570741Y6741D01*
X571200Y6551D01*
X590000D01*
X590459Y6741D01*
X590649Y7200D01*
Y16400D01*
X591389D01*
Y14088D01*
X591389Y14088D01*
X591389Y13910D01*
X591389D01*
Y9954D01*
X598888D01*
Y10046D01*
X602922D01*
Y8728D01*
X606878D01*
Y13472D01*
D01*
Y13472D01*
X606878Y13472D01*
Y13678D01*
X606878D01*
Y16400D01*
X608451D01*
Y14049D01*
X608641Y13590D01*
X609100Y13400D01*
X613751D01*
Y10249D01*
Y9949D01*
X613941Y9490D01*
X614400Y9300D01*
X619800D01*
X620259Y9490D01*
X620449Y9949D01*
Y16400D01*
X632551D01*
Y7500D01*
X632741Y7041D01*
X633200Y6851D01*
X652000D01*
X652459Y7041D01*
X652649Y7500D01*
Y16400D01*
X653389D01*
Y14088D01*
X653389Y14088D01*
X653389Y13910D01*
X653389D01*
Y9954D01*
X660888D01*
Y10046D01*
X664922D01*
Y8728D01*
X668878D01*
Y13472D01*
D01*
Y13472D01*
X668878Y13472D01*
Y13678D01*
X668878D01*
Y16400D01*
X670351D01*
Y13949D01*
X670541Y13490D01*
X671000Y13300D01*
X675651D01*
Y10149D01*
Y9849D01*
X675841Y9390D01*
X676300Y9200D01*
X681700D01*
X682159Y9390D01*
X682349Y9849D01*
Y16400D01*
X824451D01*
Y15600D01*
D02*
G37*
G36*
X652000Y7500D02*
X633200D01*
Y26500D01*
X652000D01*
Y7500D01*
D02*
G37*
G36*
X435700Y7400D02*
X416900D01*
Y26400D01*
X435700D01*
Y7400D01*
D02*
G37*
G36*
X16400Y6000D02*
X1122D01*
Y25000D01*
X16400D01*
Y6000D01*
D02*
G37*
G36*
X517900Y5800D02*
X499100D01*
Y24800D01*
X517900D01*
Y5800D01*
D02*
G37*
G36*
X865020Y-10632D02*
X850998D01*
Y-17738D01*
X865020D01*
Y-18578D01*
X824039D01*
Y5000D01*
X825014D01*
Y372D01*
X843931D01*
Y5000D01*
X865020D01*
Y-10632D01*
D02*
G37*
G36*
X147300Y7400D02*
X128500D01*
Y26400D01*
X147300D01*
Y7400D01*
D02*
G37*
G36*
X68100Y7300D02*
X49300D01*
Y26300D01*
X68100D01*
Y7300D01*
D02*
G37*
G36*
X590000Y7200D02*
X571200D01*
Y26200D01*
X590000D01*
Y7200D01*
D02*
G37*
G36*
X860200Y12300D02*
X845500D01*
Y15600D01*
X825100D01*
Y22200D01*
Y22400D01*
X845500D01*
Y28500D01*
X860200D01*
Y12300D01*
D02*
G37*
G36*
X321200Y10149D02*
X315800D01*
Y10449D01*
Y14249D01*
X310500D01*
Y18111D01*
X310854Y18464D01*
X315800Y18449D01*
Y21949D01*
X321200D01*
Y10149D01*
D02*
G37*
G36*
X249100D02*
X243700D01*
Y10449D01*
Y14249D01*
X238400D01*
Y18111D01*
X238754Y18464D01*
X243700Y18449D01*
Y21949D01*
X249100D01*
Y10149D01*
D02*
G37*
G36*
X393300D02*
X387900D01*
Y10449D01*
Y14249D01*
X382600D01*
Y18111D01*
X382954Y18464D01*
X387900Y18449D01*
Y21949D01*
X393300D01*
Y10149D01*
D02*
G37*
G36*
X844800Y23049D02*
X825100D01*
X824641Y22859D01*
X824451Y22400D01*
Y22200D01*
Y18500D01*
X807800D01*
X682349Y18532D01*
Y21649D01*
X682159Y22109D01*
X681700Y22299D01*
X676300D01*
X675841Y22109D01*
X675651Y21649D01*
Y19155D01*
X675296Y18802D01*
X671356Y18813D01*
X671355Y18813D01*
X671355Y18813D01*
X671128Y18720D01*
X670896Y18624D01*
X670896Y18624D01*
X670895Y18624D01*
X670807Y18535D01*
X668878Y18536D01*
Y18628D01*
X668878D01*
Y23372D01*
X664922D01*
Y22086D01*
X660888D01*
Y22178D01*
X653389D01*
Y18893D01*
X653111Y18616D01*
X652649Y18807D01*
Y26500D01*
X652459Y26959D01*
X652000Y27149D01*
X633200D01*
X632741Y26959D01*
X632551Y26500D01*
Y18899D01*
X632197Y18545D01*
X620449Y18549D01*
Y21749D01*
X620259Y22209D01*
X619800Y22399D01*
X614400D01*
X613941Y22209D01*
X613751Y21749D01*
Y19255D01*
X613397Y18902D01*
X609456Y18913D01*
X609455Y18913D01*
X609455Y18913D01*
X609228Y18820D01*
X608996Y18724D01*
X608996Y18724D01*
X608995Y18724D01*
X608823Y18552D01*
X606878Y18552D01*
Y18628D01*
X606878D01*
Y23372D01*
X602922D01*
Y22086D01*
X598888D01*
Y22178D01*
X591389D01*
Y18910D01*
X591111Y18632D01*
X590649Y18823D01*
Y26200D01*
X590459Y26659D01*
X590000Y26849D01*
X571200D01*
X570741Y26659D01*
X570551Y26200D01*
Y18915D01*
X570197Y18562D01*
X548349Y18567D01*
Y21749D01*
X548159Y22209D01*
X547700Y22399D01*
X542300D01*
X541841Y22209D01*
X541651Y21749D01*
Y19255D01*
X541296Y18902D01*
X537356Y18913D01*
X537356Y18913D01*
X537355Y18913D01*
X537128Y18820D01*
X536896Y18724D01*
X536896Y18724D01*
X536896Y18724D01*
X536741Y18570D01*
X534839Y18571D01*
Y18628D01*
X534839D01*
Y23372D01*
X530884D01*
Y22086D01*
X526850D01*
Y22178D01*
X519350D01*
Y18928D01*
X519011Y18589D01*
X518549Y18781D01*
Y24800D01*
X518359Y25259D01*
X517900Y25449D01*
X499100D01*
X498641Y25259D01*
X498451Y24800D01*
Y18934D01*
X498097Y18580D01*
X496371Y18581D01*
X496032Y18948D01*
X496090Y19685D01*
X495936Y21633D01*
X495480Y23532D01*
X494733Y25337D01*
X493712Y27003D01*
X492443Y28488D01*
X490958Y29757D01*
X489292Y30777D01*
X487487Y31525D01*
X485588Y31981D01*
X483640Y32134D01*
X481693Y31981D01*
X479793Y31525D01*
X477988Y30777D01*
X476323Y29757D01*
X474837Y28488D01*
X473568Y27003D01*
X472548Y25337D01*
X471800Y23532D01*
X471344Y21633D01*
X471191Y19685D01*
X471248Y18954D01*
X470909Y18587D01*
X466049Y18588D01*
Y21949D01*
X465859Y22409D01*
X465400Y22599D01*
X460000D01*
X459541Y22409D01*
X459351Y21949D01*
Y19455D01*
X458996Y19102D01*
X455056Y19113D01*
X455056Y19113D01*
X455055Y19113D01*
X454828Y19019D01*
X454596Y18924D01*
X454596Y18924D01*
X454596Y18924D01*
X454262Y18591D01*
X452478Y18592D01*
Y18628D01*
X452478D01*
Y23372D01*
X448522D01*
Y22086D01*
X444488D01*
Y22178D01*
X436989D01*
Y18949D01*
X436811Y18772D01*
X436349Y18963D01*
Y26400D01*
X436159Y26859D01*
X435700Y27049D01*
X416900D01*
X416441Y26859D01*
X416251Y26400D01*
Y18955D01*
X415897Y18601D01*
X393949Y18607D01*
Y21949D01*
X393759Y22409D01*
X393300Y22599D01*
X387900D01*
X387441Y22409D01*
X387251Y21949D01*
Y19455D01*
X386896Y19102D01*
X382956Y19113D01*
X382956Y19113D01*
X382955Y19113D01*
X382728Y19019D01*
X382496Y18924D01*
X382496Y18924D01*
X382495Y18924D01*
X382181Y18610D01*
X380403Y18611D01*
Y18628D01*
X380403D01*
Y23372D01*
X376447D01*
Y22086D01*
X372413D01*
Y22178D01*
X364914D01*
Y18968D01*
X364711Y18766D01*
X364249Y18957D01*
Y26400D01*
X364059Y26859D01*
X363600Y27049D01*
X344800D01*
X344341Y26859D01*
X344151Y26400D01*
Y18974D01*
X343797Y18620D01*
X321849Y18626D01*
Y21949D01*
X321659Y22409D01*
X321200Y22599D01*
X315800D01*
X315341Y22409D01*
X315151Y21949D01*
Y19455D01*
X314796Y19102D01*
X310856Y19113D01*
X310856Y19113D01*
X310855Y19113D01*
X310628Y19019D01*
X310396Y18924D01*
X310396Y18924D01*
X310396Y18924D01*
X310100Y18629D01*
X308328Y18629D01*
Y23372D01*
X304372D01*
Y22086D01*
X300338D01*
Y22178D01*
X292839D01*
Y18987D01*
X292611Y18759D01*
X292149Y18951D01*
Y26400D01*
X291959Y26859D01*
X291500Y27049D01*
X272700D01*
X272241Y26859D01*
X272051Y26400D01*
Y18992D01*
X271697Y18639D01*
X249749Y18644D01*
Y21949D01*
X249559Y22409D01*
X249100Y22599D01*
X243700D01*
X243241Y22409D01*
X243051Y21949D01*
Y19455D01*
X242696Y19102D01*
X238756Y19113D01*
X238755Y19113D01*
X238755Y19113D01*
X238528Y19019D01*
X238296Y18924D01*
X238296Y18924D01*
X238296Y18924D01*
X238018Y18647D01*
X236253Y18648D01*
Y23372D01*
X232297D01*
Y22086D01*
X228263D01*
Y22178D01*
X220764D01*
Y19005D01*
X220511Y18753D01*
X220049Y18944D01*
Y26400D01*
X219859Y26859D01*
X219400Y27049D01*
X200600D01*
X200141Y26859D01*
X199951Y26400D01*
Y19011D01*
X199597Y18657D01*
X177649Y18663D01*
Y21949D01*
X177459Y22409D01*
X177000Y22599D01*
X171600D01*
X171141Y22409D01*
X170951Y21949D01*
Y19455D01*
X170597Y19102D01*
X166656Y19113D01*
X166656Y19113D01*
X166655Y19113D01*
X166428Y19019D01*
X166196Y18924D01*
X166196Y18924D01*
X166195Y18924D01*
X165937Y18666D01*
X164178Y18666D01*
Y23372D01*
X160222D01*
Y22086D01*
X156188D01*
Y22178D01*
X148689D01*
Y19024D01*
X148411Y18747D01*
X147949Y18938D01*
Y26400D01*
X147759Y26859D01*
X147300Y27049D01*
X128500D01*
X128041Y26859D01*
X127851Y26400D01*
Y19029D01*
X127497Y18676D01*
X126911Y18676D01*
X126572Y19043D01*
X126623Y19685D01*
X126469Y21633D01*
X126013Y23532D01*
X125266Y25337D01*
X124245Y27003D01*
X122976Y28488D01*
X121491Y29757D01*
X119825Y30777D01*
X118020Y31525D01*
X116121Y31981D01*
X114173Y32134D01*
X112226Y31981D01*
X110326Y31525D01*
X108521Y30777D01*
X106856Y29757D01*
X105370Y28488D01*
X104101Y27003D01*
X103081Y25337D01*
X102333Y23532D01*
X101877Y21633D01*
X101724Y19685D01*
X101774Y19050D01*
X101434Y18683D01*
X98649Y18683D01*
Y21700D01*
X98459Y22159D01*
X98000Y22349D01*
X92600D01*
X92141Y22159D01*
X91951Y21700D01*
Y19205D01*
X91597Y18852D01*
X87656Y18864D01*
X87656Y18864D01*
X87655Y18864D01*
X87428Y18770D01*
X87224Y18686D01*
X84978Y18687D01*
Y23372D01*
X81022D01*
Y22086D01*
X76988D01*
Y22178D01*
X69489D01*
Y19045D01*
X69211Y18767D01*
X68749Y18958D01*
Y26300D01*
X68559Y26759D01*
X68100Y26949D01*
X49300D01*
X48841Y26759D01*
X48651Y26300D01*
Y19050D01*
X48297Y18697D01*
X46149Y18697D01*
Y21700D01*
X45959Y22159D01*
X45500Y22349D01*
X40100D01*
X39641Y22159D01*
X39451Y21700D01*
Y19205D01*
X39097Y18852D01*
X35156Y18864D01*
X35155Y18864D01*
X35155Y18864D01*
X34928Y18770D01*
X34757Y18700D01*
X32839Y18700D01*
Y23372D01*
X28883D01*
Y22086D01*
X24850D01*
Y22178D01*
X17350D01*
D01*
X17350D01*
X17049Y22479D01*
Y25000D01*
X16859Y25459D01*
X16400Y25649D01*
X1122D01*
Y40178D01*
X11061D01*
X11134Y39684D01*
X11129Y39682D01*
X10103Y39134D01*
X9204Y38396D01*
X8466Y37497D01*
X7918Y36471D01*
X7580Y35358D01*
X7466Y34200D01*
X7580Y33042D01*
X7918Y31929D01*
X8466Y30903D01*
X9204Y30004D01*
X10103Y29266D01*
X11129Y28718D01*
X12242Y28380D01*
X13400Y28266D01*
X14558Y28380D01*
X15671Y28718D01*
X16697Y29266D01*
X17596Y30004D01*
X18334Y30903D01*
X18882Y31929D01*
X19220Y33042D01*
X19334Y34200D01*
X19220Y35358D01*
X18882Y36471D01*
X18334Y37497D01*
X17596Y38396D01*
X16697Y39134D01*
X15671Y39682D01*
X15666Y39684D01*
X15739Y40178D01*
X844800D01*
Y23049D01*
D02*
G37*
G36*
X465400Y10149D02*
X460000D01*
Y10449D01*
Y14249D01*
X454700D01*
Y18111D01*
X455054Y18464D01*
X460000Y18449D01*
Y21949D01*
X465400D01*
Y10149D01*
D02*
G37*
G36*
X177000D02*
X171600D01*
Y10449D01*
Y14249D01*
X166300D01*
Y18111D01*
X166654Y18464D01*
X171600Y18449D01*
Y21949D01*
X177000D01*
Y10149D01*
D02*
G37*
G36*
X45500Y9900D02*
X40100D01*
Y10200D01*
Y14000D01*
X34800D01*
Y17861D01*
X35154Y18214D01*
X40100Y18200D01*
Y21700D01*
X45500D01*
Y9900D01*
D02*
G37*
G36*
X681700Y9849D02*
X676300D01*
Y10149D01*
Y13949D01*
X671000D01*
Y17811D01*
X671354Y18164D01*
X676300Y18149D01*
Y21649D01*
X681700D01*
Y9849D01*
D02*
G37*
G36*
X98000Y9900D02*
X92600D01*
Y10200D01*
Y14000D01*
X87300D01*
Y17861D01*
X87654Y18214D01*
X92600Y18200D01*
Y21700D01*
X98000D01*
Y9900D01*
D02*
G37*
G36*
X619800Y9949D02*
X614400D01*
Y10249D01*
Y14049D01*
X609100D01*
Y17911D01*
X609454Y18264D01*
X614400Y18249D01*
Y21749D01*
X619800D01*
Y9949D01*
D02*
G37*
G36*
X547700D02*
X542300D01*
Y10249D01*
Y14049D01*
X537000D01*
Y17911D01*
X537354Y18264D01*
X542300Y18249D01*
Y21749D01*
X547700D01*
Y9949D01*
D02*
G37*
%LPC*%
G36*
X260300Y13734D02*
X259142Y13620D01*
X258029Y13282D01*
X257003Y12734D01*
X256104Y11996D01*
X255366Y11097D01*
X254818Y10071D01*
X254480Y8958D01*
X254366Y7800D01*
X254480Y6642D01*
X254818Y5529D01*
X255366Y4503D01*
X256104Y3604D01*
X257003Y2866D01*
X258029Y2318D01*
X259142Y1980D01*
X260300Y1866D01*
X261458Y1980D01*
X262571Y2318D01*
X263597Y2866D01*
X264496Y3604D01*
X265234Y4503D01*
X265782Y5529D01*
X266120Y6642D01*
X266234Y7800D01*
X266120Y8958D01*
X265782Y10071D01*
X265234Y11097D01*
X264496Y11996D01*
X263597Y12734D01*
X262571Y13282D01*
X261458Y13620D01*
X260300Y13734D01*
D02*
G37*
G36*
X727000Y38534D02*
X725842Y38420D01*
X724729Y38082D01*
X723703Y37534D01*
X722804Y36796D01*
X722066Y35897D01*
X721518Y34871D01*
X721180Y33758D01*
X721066Y32600D01*
X721180Y31442D01*
X721518Y30329D01*
X722066Y29303D01*
X722804Y28404D01*
X723703Y27666D01*
X724729Y27118D01*
X725842Y26780D01*
X727000Y26666D01*
X728158Y26780D01*
X729271Y27118D01*
X730297Y27666D01*
X731196Y28404D01*
X731934Y29303D01*
X732482Y30329D01*
X732820Y31442D01*
X732934Y32600D01*
X732820Y33758D01*
X732482Y34871D01*
X731934Y35897D01*
X731196Y36796D01*
X730297Y37534D01*
X729271Y38082D01*
X728158Y38420D01*
X727000Y38534D01*
D02*
G37*
%LPD*%
D10*
X666900Y21000D02*
D03*
X672806D02*
D03*
X604900D02*
D03*
X610806D02*
D03*
X532861D02*
D03*
X538767D02*
D03*
X450500D02*
D03*
X456405D02*
D03*
X378425D02*
D03*
X384331D02*
D03*
X306350D02*
D03*
X312256D02*
D03*
X234275D02*
D03*
X240180D02*
D03*
X162200D02*
D03*
X168105D02*
D03*
X83000D02*
D03*
X88906D02*
D03*
X30861D02*
D03*
X36767D02*
D03*
X666900Y16050D02*
D03*
X672806D02*
D03*
X604900D02*
D03*
X610806D02*
D03*
X532861D02*
D03*
X538767D02*
D03*
X450500D02*
D03*
X456405D02*
D03*
X378425D02*
D03*
X384331D02*
D03*
X306350D02*
D03*
X312256D02*
D03*
X234275D02*
D03*
X240180D02*
D03*
X162200D02*
D03*
X168105D02*
D03*
X83000D02*
D03*
X88906D02*
D03*
X30861D02*
D03*
X36767D02*
D03*
X666900Y11100D02*
D03*
X672806D02*
D03*
X604900D02*
D03*
X610806D02*
D03*
X532861D02*
D03*
X538767D02*
D03*
X450500D02*
D03*
X456405D02*
D03*
X378425D02*
D03*
X384331D02*
D03*
X306350D02*
D03*
X312256D02*
D03*
X234275D02*
D03*
X240180D02*
D03*
X162200D02*
D03*
X168105D02*
D03*
X83000D02*
D03*
X88906D02*
D03*
X30861D02*
D03*
X36767D02*
D03*
D11*
X657139Y20200D02*
D03*
Y16066D02*
D03*
Y11932D02*
D03*
X643753D02*
D03*
Y16066D02*
D03*
Y20200D02*
D03*
X595139D02*
D03*
Y16066D02*
D03*
Y11932D02*
D03*
X581753D02*
D03*
Y16066D02*
D03*
Y20200D02*
D03*
X523100D02*
D03*
Y16066D02*
D03*
Y11932D02*
D03*
X509714D02*
D03*
Y16066D02*
D03*
Y20200D02*
D03*
X440739D02*
D03*
Y16066D02*
D03*
Y11932D02*
D03*
X427353D02*
D03*
Y16066D02*
D03*
Y20200D02*
D03*
X368664D02*
D03*
Y16066D02*
D03*
Y11932D02*
D03*
X355278D02*
D03*
Y16066D02*
D03*
Y20200D02*
D03*
X296589D02*
D03*
Y16066D02*
D03*
Y11932D02*
D03*
X283203D02*
D03*
Y16066D02*
D03*
Y20200D02*
D03*
X224514D02*
D03*
Y16066D02*
D03*
Y11932D02*
D03*
X211128D02*
D03*
Y16066D02*
D03*
Y20200D02*
D03*
X152439D02*
D03*
Y16066D02*
D03*
Y11932D02*
D03*
X139053D02*
D03*
Y16066D02*
D03*
Y20200D02*
D03*
X73239D02*
D03*
Y16066D02*
D03*
Y11932D02*
D03*
X59853D02*
D03*
Y16066D02*
D03*
Y20200D02*
D03*
X21100D02*
D03*
Y16066D02*
D03*
Y11932D02*
D03*
X7714D02*
D03*
Y16066D02*
D03*
Y20200D02*
D03*
D12*
X834472Y26563D02*
D03*
Y18689D02*
D03*
Y10815D02*
D03*
Y-4933D02*
D03*
Y2941D02*
D03*
D13*
X858291Y35815D02*
D03*
Y-14185D02*
D03*
D14*
X13400Y34200D02*
D03*
X260300Y7800D02*
D03*
X727000Y32600D02*
D03*
D15*
X657139Y11932D02*
X666068D01*
X657139Y16066D02*
X666884D01*
X657139Y20200D02*
X666100D01*
X595139Y11932D02*
X604068D01*
X595139Y16066D02*
X604884D01*
X595139Y20200D02*
X604100D01*
X523100Y11932D02*
X532029D01*
X523100Y16066D02*
X532845D01*
X523100Y20200D02*
X532061D01*
X440739Y11932D02*
X449668D01*
X440739Y16066D02*
X450484D01*
X440739Y20200D02*
X449700D01*
X368664Y11932D02*
X377593D01*
X368664Y16066D02*
X378409D01*
X368664Y20200D02*
X377625D01*
X296589Y11932D02*
X305518D01*
X296589Y16066D02*
X306334D01*
X296589Y20200D02*
X305550D01*
X224514Y11932D02*
X233443D01*
X224514Y16066D02*
X234259D01*
X224514Y20200D02*
X233475D01*
X152439Y11932D02*
X161368D01*
X152439Y16066D02*
X162184D01*
X152439Y20200D02*
X161400D01*
X73239Y11932D02*
X82168D01*
X73239Y16066D02*
X82984D01*
X73239Y20200D02*
X82200D01*
X21100Y11932D02*
X30029D01*
X21100Y16066D02*
X30845D01*
X21100Y20200D02*
X30061D01*
D16*
X114173Y19685D02*
D03*
X483640D02*
D03*
D17*
X463000Y14316D02*
D03*
Y17283D02*
D03*
X463100Y20249D02*
D03*
X390900Y12849D02*
D03*
Y16549D02*
D03*
X391000Y20249D02*
D03*
X318800Y12849D02*
D03*
Y16549D02*
D03*
X318900Y20249D02*
D03*
X246700Y12849D02*
D03*
Y16549D02*
D03*
X246800Y20249D02*
D03*
X174600Y12849D02*
D03*
Y16549D02*
D03*
X174700Y20249D02*
D03*
X95700Y20000D02*
D03*
X95600Y16300D02*
D03*
Y12600D02*
D03*
X43100D02*
D03*
Y16300D02*
D03*
X43200Y20000D02*
D03*
X649200Y21500D02*
D03*
Y18000D02*
D03*
Y14500D02*
D03*
Y11000D02*
D03*
X638400D02*
D03*
Y14500D02*
D03*
Y18000D02*
D03*
Y21500D02*
D03*
X587200Y21200D02*
D03*
Y17700D02*
D03*
Y14200D02*
D03*
Y10700D02*
D03*
X576400D02*
D03*
Y14200D02*
D03*
Y17700D02*
D03*
Y21200D02*
D03*
X515100Y19800D02*
D03*
Y16300D02*
D03*
Y12800D02*
D03*
Y9300D02*
D03*
X504300D02*
D03*
Y12800D02*
D03*
Y16300D02*
D03*
Y19800D02*
D03*
X432900Y21400D02*
D03*
Y17900D02*
D03*
Y14400D02*
D03*
Y10900D02*
D03*
X422100D02*
D03*
Y14400D02*
D03*
Y17900D02*
D03*
Y21400D02*
D03*
X360800D02*
D03*
Y17900D02*
D03*
Y14400D02*
D03*
Y10900D02*
D03*
X350000D02*
D03*
Y14400D02*
D03*
Y17900D02*
D03*
Y21400D02*
D03*
X288700D02*
D03*
Y17900D02*
D03*
Y14400D02*
D03*
Y10900D02*
D03*
X277900D02*
D03*
Y14400D02*
D03*
Y17900D02*
D03*
Y21400D02*
D03*
X216600D02*
D03*
Y17900D02*
D03*
Y14400D02*
D03*
Y10900D02*
D03*
X205800D02*
D03*
Y14400D02*
D03*
Y17900D02*
D03*
Y21400D02*
D03*
X144500D02*
D03*
Y17900D02*
D03*
Y14400D02*
D03*
Y10900D02*
D03*
X133700Y17900D02*
D03*
Y21400D02*
D03*
Y14400D02*
D03*
Y10900D02*
D03*
X54500Y21300D02*
D03*
Y17800D02*
D03*
Y14300D02*
D03*
Y10800D02*
D03*
X65300D02*
D03*
Y14300D02*
D03*
Y17800D02*
D03*
Y21300D02*
D03*
X13600Y20000D02*
D03*
Y16500D02*
D03*
Y13000D02*
D03*
Y9500D02*
D03*
X2800D02*
D03*
Y13000D02*
D03*
Y16500D02*
D03*
Y20000D02*
D03*
X847700Y2500D02*
D03*
X851200D02*
D03*
X854700D02*
D03*
X858200D02*
D03*
X861700D02*
D03*
Y-1000D02*
D03*
X858200D02*
D03*
X854700D02*
D03*
X851200D02*
D03*
X847700D02*
D03*
X861700Y-4500D02*
D03*
X858200D02*
D03*
X854700D02*
D03*
X851200D02*
D03*
X847700D02*
D03*
X861700Y-8000D02*
D03*
X858200D02*
D03*
X854700D02*
D03*
X851200D02*
D03*
X847700D02*
D03*
X849200Y15500D02*
D03*
X852700D02*
D03*
X856200D02*
D03*
X849200Y19000D02*
D03*
X852700D02*
D03*
X856200D02*
D03*
X849200Y22500D02*
D03*
X852700D02*
D03*
X856200D02*
D03*
Y26000D02*
D03*
X852700D02*
D03*
X849200D02*
D03*
X545400Y20049D02*
D03*
X545300Y16349D02*
D03*
Y12649D02*
D03*
X617500Y20049D02*
D03*
X617400Y16349D02*
D03*
Y12649D02*
D03*
X679400Y19949D02*
D03*
X679300Y16249D02*
D03*
Y12549D02*
D03*
M02*
