M48
;Layer_Color=9474304
;FILE_FORMAT=2:5
INCH,TZ
;TYPE=PLATED
T1F00S00C0.01200
T2F00S00C0.03150
T3F00S00C0.03543
T4F00S00C0.12598
%
T01
X28400Y26900
X31400
Y29900
X34400
Y26900
X37400
X40400
Y29900
X43400
Y26900
X37400Y29900
X28400
X83600Y36100
X84000Y44200
X90000Y50820
Y54160
X93100Y54420
X100400Y47600
X101400Y29900
X96200
X112900Y26300
X120300Y38400
X123700
X127200
X130500Y38500
X134000
X132600Y42600
X129600
X126600
X135900
X138900
X141900
X152000Y42900
Y45900
X155700
Y42900
Y39800
Y36800
Y33800
Y30900
X159400
Y33800
Y36800
Y39800
Y42900
Y45900
X163100
Y42900
Y39800
Y36800
Y33800
Y30900
X166800Y31000
Y33900
Y36900
Y39900
Y43000
Y46000
X170500
Y43000
Y39900
Y36900
Y33900
Y31000
X181400Y30900
Y34000
Y36900
Y39900
Y42900
Y46000
Y49000
X185100
Y46000
Y42900
Y39900
Y36900
Y34000
Y30900
X188800
Y34000
Y36900
Y39900
Y42900
Y46000
Y49000
X192500
Y46000
Y42900
Y39900
Y36900
Y34000
Y30900
X196200
Y34000
Y36900
Y39900
Y42900
Y46000
Y49000
X199900
Y46000
Y42900
Y39900
Y36900
Y34000
Y30900
X195800Y53400
X192800
X189800
X186800
X183800
X180800
X177800
X150200Y55000
X147200
X144200
X141200
X138200
X135200
X132200
X152000Y39800
Y36800
Y33800
Y30900
X207900Y49500
Y52400
Y55400
X211978
Y52400
Y49500
X216055
Y52400
Y55400
X220133
Y52400
Y49500
X224211
Y52400
Y55400
X228289
Y52400
Y49500
X232367
Y52400
Y55400
X236444
Y52400
Y49500
X257200Y53981
X260200Y43400
Y40300
Y37300
X265800Y41000
X275500Y54900
X267900Y65100
X269900Y72600
X271300Y81200
X274300Y79200
X257500Y79800
X254700Y83500
X260400Y91100
X255100Y100300
X257000Y103500
X252900Y103300
X253200Y106400
X249800Y101300
X245300Y94600
X244400Y107200
X242300Y109900
X234700Y105700
X231700
X228700
X225700
X222700
Y102600
X225700
X228700
X231700
X234700
X243900Y120400
X243500Y129600
X240400
Y141900
Y144900
X237300
Y141900
X241000Y158000
X247700Y158500
X247500Y165300
X247300Y168100
X243700
X251900Y155000
X249300Y151300
X267753Y153700
X265800Y143000
X261300Y140700
X263400Y138100
X261100Y136200
X263300Y133400
X263700Y116600
X259800Y116300
X260300Y112200
X281500Y110300
X284500
X279800Y97400
X277100
X274200Y97300
X291300Y90800
X290300Y75300
X299900Y79800
X308400Y79600
X311400
X314400
Y82600
Y85600
Y88600
Y91600
X311400
Y88600
Y85600
Y82600
X308400
Y85600
Y88600
Y91600
X305700Y104000
Y107000
X302700
Y110000
X305700
Y115300
Y118300
X302700
Y115300
Y104000
X316300Y112900
X342500Y114000
Y111000
Y117000
Y120000
Y123000
Y126000
Y129000
Y132000
Y135000
Y138000
X343504Y159700
X346504
X349504
Y162725
X346504
X343504
X340504
X337504
X334504
X331504
X328504
X325504
X322504
X319504
X316504
Y159700
X319504
X322504
X325504
X328504
X331504
X334504
X337504
X340504
Y165750
X343504
X346504
X349504
Y168775
Y171700
X346504
Y168775
X343504
Y171700
Y174700
Y177700
X340504
Y174700
Y171700
Y168775
X337504
Y171700
X334504
Y168775
X331504
Y171700
X328504
Y168775
X325504
Y171700
X322504
Y168775
X319504
Y171700
X316504
Y168775
Y165750
X319504
X322504
X325504
X328504
X331504
X334504
X337504
Y174700
X334504
Y177700
X337504
X348329Y176700
Y179700
Y182700
Y185700
Y188700
Y191700
Y194700
Y197700
Y200700
Y203700
Y206700
Y209700
X351354
Y206700
Y203700
Y200700
Y197700
Y194700
Y191700
Y188700
Y185700
Y182700
Y179700
Y176700
X354379
Y179700
Y182700
Y185700
Y188700
Y191700
Y194700
Y197700
Y200700
Y203700
Y206700
Y209700
X357404
Y206700
Y203700
Y200700
Y197700
Y194700
Y191700
Y188700
Y185700
Y182700
Y179700
Y176700
X307800Y162000
X291500Y161500
X289800Y166700
Y169700
Y172700
X283525Y172800
Y169800
Y166800
X281300Y176800
Y179800
Y182800
Y186000
X280300Y189200
Y192200
Y195200
Y198200
Y201200
X283325
Y198200
Y195200
Y192200
Y189200
X285800Y185900
X286350Y198200
Y201200
X289375
Y198200
X294249Y199004
Y203335
X298579
Y199004
X302910
Y203335
X276900Y201300
Y198275
Y195250
Y192225
X242700Y191500
Y194500
Y197500
X239700
X236700
X233700
Y194500
Y191500
X236700
Y194500
X239700
Y191500
Y200500
Y203500
X236700
X233700
Y200500
X236700
X242700
Y203500
X222700Y199400
X219700
Y196300
X222700
X224800Y189800
X227800Y184800
X232800Y182000
X221700Y177800
X222500Y171900
X217000Y183000
X223600Y211100
X213600Y123300
X216055Y58500
X220133
X224211
X228289
X232367
X236444
X257200Y57081
X260300Y61781
X305900Y56900
X292500Y124900
X283900Y141800
X280900Y142400
X282600Y144500
X279200
X287400Y146000
X204000Y143500
Y140300
X206500Y137800
X208300Y134800
X206700Y131200
X202200Y132700
X199500Y130400
X196500Y131600
X191300Y131300
X191000Y134400
X185100Y134100
Y130900
X188300Y128000
X181200Y128400
X177400Y127500
X178600Y130500
Y133500
X177700Y136500
X180900Y136600
X180400Y142600
X176100Y142700
X177100Y148600
X181300
X179300Y146600
X177700Y156700
Y159700
Y162700
Y165700
Y168700
X181000Y168800
Y165800
Y162800
Y159800
Y156800
X174400Y160000
Y163000
Y166000
Y169000
X170600Y163300
X164800Y165500
X162100
X167200Y157300
X167700Y153100
X169800Y150900
X167600Y148600
X165400Y146600
X163300Y148600
X164500Y143200
X165100Y137700
X168300
Y140700
X166100Y134800
X174500Y135300
X172900Y131900
X168783Y127983
X170900Y114800
Y111800
X174100
Y114800
X167700Y112900
X165000Y114500
X157200Y114900
Y111900
X154000
Y114900
Y117900
X157200
X149800
Y115000
X146800Y117900
X140400Y125500
Y128500
Y131500
X137400
X134400
X137400Y128500
X129000Y132500
X129200Y136300
X124500Y135680
Y139220
Y142800
X120700Y142700
Y139160
Y135620
Y132080
Y128540
X117000
Y132080
Y135620
Y139160
Y142700
X109300Y141960
Y138620
Y135280
Y131940
Y128600
X109100Y123920
Y120580
Y117240
Y113900
X108800Y109400
X113267
X117733
X117900Y112840
Y116580
Y120320
Y124060
X122300
Y120320
Y116580
Y112840
X122200Y109400
X120650Y101600
Y98256
Y94884
Y91512
Y88140
X116700
Y91512
Y94884
Y98256
Y101600
X109000Y101560
Y98220
Y94880
Y91540
Y88200
X108800Y83520
Y80180
Y76840
Y73500
X103600Y74320
Y77660
Y81000
X99400
Y77660
Y74320
Y87680
Y91020
Y94360
Y97700
X99500Y101700
X96500Y101600
X102700Y101700
X103600Y97700
Y94360
Y91020
Y87680
X117600Y84160
Y80420
Y76680
Y72940
X121800
Y76680
Y80420
Y84160
X124600Y88140
Y91512
Y94884
Y98256
Y101628
X136200Y107100
X140300Y110000
X140900Y141000
X135900Y145400
X131500Y146100
X133200Y138500
X124500Y132140
Y128600
X103900Y131420
Y134760
Y138100
X99700
Y134760
Y131420
Y124740
Y121400
Y118060
Y114720
X103900
Y118060
Y121400
Y124740
X102900Y142500
X99700
X96700Y142400
X84800Y138300
X81800Y138200
X83000Y135100
X77531Y130938
X73200
X68869
Y126607
Y122276
X73200
Y126607
X77531
Y122276
X71700Y113300
X64000Y115200
X61300Y115400
X63400Y117900
X63700Y105900
X62800Y97300
X63400Y94600
X60700Y94800
X68869Y90038
X73200
X77531
Y85707
Y81376
X73200
Y85707
X68869
Y81376
X63100Y77500
X63700Y74800
X61000Y75000
X71400Y72000
X74100Y63360
X78200
X81400Y63460
Y60120
X78200Y60020
X74700Y59700
X93100Y57760
X96600Y57620
Y60960
X132200Y58000
X135200
X138200
X141200
X144200
Y61000
X147200
Y64000
X150200
Y61000
Y58000
X147200
X177800Y56400
X180800
X183800
X186800
X189800
X192800
X195800
Y59400
X192800
X189800
X186800
X183800
X180800
X186800Y62400
X189800
X192800
X195800
Y65400
X192800
X189800
Y68400
X186800
Y65400
Y71400
X189800
X192800
Y68400
X195800
Y71400
X196500Y83400
X184300Y87200
X176700Y95700
X182200Y105600
X189100Y109200
X193400Y109600
X196100Y113200
X199000Y110400
X198400Y97600
X160600Y93400
X159300Y85700
X162400Y80400
Y77400
X165600
Y80400
X207900Y58500
X211978
X202200Y153400
X204400Y171800
X200000Y172900
X192700Y172200
X186200Y162500
X186300Y192300
X189100Y192400
X179900Y191400
Y188400
X175300
Y191400
X176000Y195800
Y198800
Y201800
Y204800
Y207800
Y210800
X180600
Y207800
Y204800
Y201800
Y198800
Y195800
X161500
X165000Y204900
Y207900
Y210900
X138500Y212300
X136500Y206500
X122800Y206860
Y203220
Y199580
Y195940
Y192300
X118600
X115400
X112200
X108500Y191700
X108800Y196200
Y199540
Y202880
Y206220
X109000Y210900
X103600Y210380
X99400
Y203700
Y200360
Y197020
X103600
Y200360
Y203700
X118600Y203220
Y199580
Y195940
Y206860
X119700Y210840
X115700
X123800Y210900
X132100Y194900
X133300Y189100
X141500Y186800
X144000Y184000
X144200Y190600
X140600Y192800
X144200Y199800
X140700Y175000
X146500Y173200
X149100Y159300
X138700Y148500
X122900Y150800
X119300
X115700
X112100
X108500
X108800Y155300
Y158640
Y161980
Y165320
X109000Y170000
Y173340
Y176680
Y180020
Y183360
X102700Y183400
X99500
X96500Y183300
X99400Y179500
Y176160
Y172820
Y169480
X103600
Y172820
Y176160
Y179500
X116700Y179960
Y183200
X120500
Y179960
Y176620
Y173280
Y169940
X116700
Y173280
Y176620
X124400Y176680
Y180020
X124500Y183200
X124400Y173340
Y170000
X122900Y165560
Y162020
Y158480
Y154940
X118600
Y158480
Y162020
Y165560
X103600Y162800
Y159460
Y156120
X99400
Y159460
Y162800
X77531Y163176
Y167507
Y171838
X73200
X68869
Y167507
X73200
Y163176
X68869
X63100Y159300
X63700Y156600
X61000Y156800
X63500Y146900
X63100Y137700
X63700Y135000
X61000Y135200
X71400Y153800
X63400Y176400
X60700Y176600
X62800Y179100
X63900Y188000
X63700Y197500
X61000Y197700
X63100Y200200
X68869Y204076
Y208407
X73200
Y204076
X77531
Y208407
X71400Y194700
X81500Y179600
X85400
X82700Y176500
X158900Y179700
X201175Y194700
X204500Y194400
X206600Y192200
X212000Y186700
X212400Y197500
X85400Y97800
X81500
X82700Y94700
X49700
X49800Y91100
X49400Y80000
X49500Y76400
X49400Y117200
X49300Y120800
X50100Y131500
X50000Y135100
X49600Y158200
X49500Y161800
X49800Y172900
X49700Y176500
X50200Y199100
X50100Y202700
X49800Y213800
X49700Y217400
X50200Y241200
X50100Y244800
X49800Y254700
X49700Y258300
X48500Y268900
X53100Y270100
X51500Y272500
X54900
X48700Y288900
X42200Y288800
X39000Y293000
X36600Y286100
X29600Y288600
X28000Y282600
X25300Y294500
X22000Y295600
X19765Y300565
X17643Y298443
X19043Y305643
X20742Y308187
X22579Y321300
X26468
X30358
X34247
X38137
X42026
X45916
X49805
X53695
Y325300
X49805
X45916
X42026
X38137
X34247
X30358
X26468
X22579
X18689
X14800
Y321300
X18689
Y329400
X22579
X26468
X30358
X34247
X38137
X42026
X45916
X49805
X53695
X55682Y317900
X49300Y307000
X36000Y308900
X14800Y329400
X57584Y329500
X61474
X65363
X69253
X73142
X77031
X80921
Y325400
X77031
X73142
X69253
X65363
X61474
X57584
Y321400
X61474
X65363
X69253
X73142
X77031
X80921
X84100Y296100
X87860Y293100
X91200
X83400Y287800
X71800Y288100
X67200Y286000
X68300Y295300
X72700Y295600
X62500Y303400
X62400Y272500
X58500
X56700Y270200
X60400
X67200Y272800
X72900Y274000
X87800Y273600
X85400Y261400
X81500
X82700Y258300
X77531Y253638
Y249307
Y244976
X73200
Y249307
X68869
Y244976
Y253638
X73200
X63400Y258200
X60700Y258400
X62800Y260900
X63100Y241100
X63700Y238400
X61000Y238600
X64200Y228800
X62800Y220000
X63400Y217300
X60700Y217500
X68869Y212738
X73200
X77531
X82700Y217400
X81500Y220500
X85400
X99400Y220400
Y217060
Y213720
X103600
Y217060
Y220400
X102800Y224200
X99600
X96600Y224100
X109000Y224260
Y220920
Y217580
Y214240
X115700Y214280
Y217720
Y221160
Y224600
X119700
Y221160
Y217720
Y214280
X123800Y214340
Y217780
Y221220
Y224600
X123000Y232700
Y236440
Y240180
Y243920
Y247660
X118600
Y243920
Y240180
Y236440
Y232700
X115400Y233200
X112200
X108500Y232600
X108800Y237100
Y240440
Y243780
Y247120
X109000Y251800
Y255140
Y258480
Y261820
Y265160
X102800Y265300
X99600
X96600Y265200
X99400Y261300
Y257960
Y254620
Y251280
X103600
Y254620
Y257960
Y261300
X116400Y262260
Y258920
Y255580
Y252240
X120200
Y255580
Y258920
Y262260
X124100Y262320
Y258980
Y255640
Y252300
X139200Y251440
Y248100
X139900Y259160
Y262500
X139700Y269380
Y272720
Y276060
Y278900
X135500Y279000
X132300Y278900
X135200Y275400
X144500Y274960
Y277800
X150500Y275200
Y272360
X150700Y291280
Y294620
Y297960
X154500
Y294620
Y291280
X158400Y291340
Y294680
Y298020
Y315900
Y318800
Y321800
Y324800
Y327900
Y330900
X162100
Y327900
Y324800
Y321800
Y318800
Y315900
X154700Y315800
Y318700
Y321700
Y324700
Y327800
Y330800
X151000
Y327800
Y324700
Y321700
Y318700
Y315800
X147300
Y318700
Y321700
Y324700
Y327800
Y330800
X143600
Y327800
Y324700
Y321700
Y318700
Y315800
X173100Y315900
Y318800
Y321800
Y324800
Y327900
Y330900
X176800
Y327900
Y324800
Y321800
Y318800
Y315900
Y312800
X173100
X180500
Y315900
Y318800
Y321800
Y324800
Y327900
Y330900
X184200
Y327900
Y324800
Y321800
Y318800
Y315900
Y312800
X187900
Y315900
Y318800
Y321800
Y324800
Y327900
Y330900
X191600
Y327900
Y324800
Y321800
Y318800
Y315900
Y312800
X199400Y256800
X202400
X202200Y238300
Y235300
Y232300
Y225700
X195400Y227100
Y220300
X191400Y232940
Y236280
Y239620
X174200Y242700
X170000Y243600
X167000Y246000
X153700Y236600
X150700
Y232000
X153700
X153800Y226900
X150800
X144000
X141000
X136300Y226300
X147900Y213000
X154200Y216600
X158800
X212000Y232000
Y235000
Y238000
X103600Y237920
Y241260
Y244600
X99400
Y241260
Y237920
X71400Y235600
X103660Y279300
X107000
X117700Y265600
X120900
X127500Y266200
X130400Y268800
X218544Y269100
Y272500
Y265700
Y262200
Y258800
X220100Y254500
Y251500
X224100
Y254500
X228300
Y251500
Y248500
X224100
X224800Y229900
X220600Y228100
X218000Y225600
X215300Y223000
X212900Y220600
X242000Y240900
X249700Y244700
X249300Y248900
X249700Y256100
X243100
X262500Y257000
Y251100
X263279Y238100
X267168
Y234000
X263279
X259389
Y230000
X263279
X267168
X276400Y230300
X280290
X284179
X288068
Y234300
X284179
X280290
X276400
Y238400
X280290
X284179
X288068
X288159Y251041
X287200Y258500
Y261500
Y264500
X283200Y262500
X279500Y262300
X278400Y265600
X282300Y258300
Y254700
X280100Y244600
X259389Y238100
X253500
Y234000
Y230000
X258400Y265100
X258700Y269800
X263500Y267400
X264300Y264500
X265670Y272867
X266500Y281200
X263500
X260500
X255100Y279800
X256700Y277300
X272100Y276800
X276000Y277000
X279000
X282000
X294204Y278000
Y275000
Y272000
X297204
Y275000
Y278000
Y281000
X294204
Y284000
X294328Y286700
X297204Y287000
Y284000
X300204
X303204
Y281000
Y278000
Y275000
Y272000
Y269000
X306204
Y272000
Y275000
Y278000
Y281000
Y284000
Y287000
X303204
X300204
Y281000
Y278000
Y275000
Y272000
X309204
X312204
X315204
X318204
Y269000
X321204
X324204
X327204
X330204
X333204
X336204
Y272000
X333204
X330204
X327204
X324204
X321204
Y275000
X324204
X327204
X330204
X333204
X336204
Y278000
X333204
X330204
X327204
X324204
X321204
X318204
Y275000
X315204
Y278000
Y281000
X318204
X321204
X324204
X327204
X330204
X333204
X336204
Y284000
X333204
X330204
X327204
X324204
X321204
X318204
Y287000
X321204
X324204
X327204
X330204
X333204
X336204
X315204
Y284000
X312204
Y287000
X309204
Y284000
Y281000
X312204
Y278000
Y275000
X309204
Y278000
Y269000
X312204
X315204
X318204Y266000
X321204
X324204
X327204
X330204
X333204
X336204
Y260000
X333204
X330204
X327204
X324204
X321204
X318204
Y257000
Y254000
Y251000
X321204
X324204
X327204
X330204
X333204
X336204
Y248000
Y245000
Y242000
X333204
X330204
X327204
X324204
X321204
X318204
Y245000
X321204
X324204
X327204
X330204
X333204
Y248000
X330204
X327204
X324204
X321204
X318204
X321204Y254000
X324204
X327204
X330204
X333204
X336204
Y257000
X333204
X330204
X327204
X324204
X321204
X347700Y253000
X357600Y248200
X357404Y212700
X354379
X351354
X348329
X345304
X342279
X339254
X336229
X333204
X307800Y228200
X295100Y223700
X295000Y263100
X296600Y314000
X288748Y314348
X304400Y314400
X312500Y314600
X320100Y314900
X254800Y314200
X267500Y301300
X242100Y281000
X237700Y281400
X226200Y308500
Y312150
Y315800
Y319450
Y323100
X234100Y329600
T02
X342400Y263605
Y289195
T03
X19900Y6500
X29900
X39900
X49900
Y16500
X39900
X29900
X19900
X59900
X69900
X79900
X89900
X99900
X109900
X119900
X129900
X139900
Y6500
X129900
X119900
X109900
X99900
X89900
X79900
X69900
X59900
X192300Y92500
X202300
X212300
Y102500
X202300
X192300
T04
X63300Y49600
X221000Y72600
X14300Y280600
X345900Y318100
M30
