%FSLAX25Y25*%
%MOIN*%
G70*
G01*
G75*
G04 Layer_Color=65535*
%ADD10R,0.04331X0.06693*%
%ADD11R,0.05315X0.11024*%
%ADD12R,0.03543X0.03150*%
%ADD13O,0.08661X0.02362*%
%ADD14O,0.06496X0.02165*%
%ADD15O,0.02165X0.06496*%
%ADD16R,0.21260X0.21850*%
%ADD17R,0.12008X0.03937*%
%ADD18R,0.21850X0.21260*%
%ADD19R,0.03937X0.12008*%
%ADD20R,0.02362X0.04331*%
%ADD21R,0.03937X0.21654*%
%ADD22R,0.05906X0.13386*%
%ADD23R,0.21654X0.03937*%
%ADD24R,0.13386X0.05906*%
%ADD25R,0.06693X0.04331*%
%ADD26R,0.09646X0.10039*%
%ADD27R,0.03347X0.04134*%
%ADD28R,0.01378X0.03937*%
%ADD29C,0.06000*%
%ADD30R,0.03543X0.02756*%
%ADD31R,0.02756X0.03543*%
%ADD32R,0.21850X0.25590*%
%ADD33R,0.04921X0.12008*%
%ADD34R,0.09449X0.06693*%
%ADD35R,0.03150X0.03543*%
%ADD36C,0.02500*%
%ADD37C,0.02000*%
%ADD38C,0.00800*%
%ADD39C,0.01000*%
%ADD40C,0.01200*%
%ADD41C,0.00600*%
%ADD42C,0.04000*%
%ADD43C,0.01500*%
%ADD44C,0.11811*%
%ADD45O,0.11811X0.05906*%
%ADD46O,0.05906X0.11811*%
%ADD47C,0.05906*%
%ADD48C,0.02000*%
%ADD49C,0.02400*%
%ADD50C,0.33896*%
%ADD51C,0.06337*%
%ADD52C,0.04369*%
%ADD53C,0.14998*%
%ADD54C,0.03600*%
%ADD55R,0.02795X0.05000*%
%ADD56C,0.00984*%
%ADD57C,0.02362*%
%ADD58C,0.01575*%
%ADD59C,0.00787*%
%ADD60R,0.02500X0.02400*%
%ADD61R,0.17100X0.03700*%
%ADD62R,0.07087X0.03743*%
G36*
X5600Y101200D02*
X-7900Y124000D01*
X19200D01*
X5600Y101200D01*
D02*
G37*
D37*
X8500Y10800D02*
G03*
X8500Y10800I-700J0D01*
G01*
X201100Y79500D02*
G03*
X201100Y79500I-1000J0D01*
G01*
X201550Y205200D02*
G03*
X201550Y205200I-1000J0D01*
G01*
X140800Y206400D02*
G03*
X140800Y206400I-1000J0D01*
G01*
X161050Y205200D02*
G03*
X161050Y205200I-1000J0D01*
G01*
X181300D02*
G03*
X181300Y205200I-1000J0D01*
G01*
D39*
X34000Y13500D02*
G03*
X34000Y13500I-400J0D01*
G01*
Y37800D02*
G03*
X34000Y37800I-400J0D01*
G01*
Y61500D02*
G03*
X34000Y61500I-400J0D01*
G01*
X49355Y136458D02*
X57229D01*
X49355Y131439D02*
Y136360D01*
X72485Y136753D02*
X80359D01*
X48961Y113328D02*
X80474Y113300D01*
X80359Y131242D02*
Y136753D01*
X72129Y104134D02*
Y112008D01*
X67110Y112008D02*
X72031D01*
X72424Y73130D02*
Y81004D01*
X49100Y111200D02*
X49102Y73015D01*
X66913Y73130D02*
X72424D01*
X67900Y212100D02*
X91800D01*
Y131700D02*
Y212100D01*
X67900Y131700D02*
X91800D01*
X67900D02*
Y212100D01*
X113100Y178174D02*
X123800D01*
Y160174D02*
Y178174D01*
X113100Y160174D02*
X123800D01*
X113100D02*
Y178174D01*
X170700Y21600D02*
X200700D01*
Y41600D01*
X170700Y21600D02*
Y41600D01*
X200700D01*
X38301Y95200D02*
X40967D01*
X42300Y96533D01*
X40967Y97866D01*
X38301D01*
X42300Y99199D02*
Y100532D01*
Y99865D01*
X38301D01*
X38968Y99199D01*
X42300Y102531D02*
X41634D01*
Y103197D01*
X42300D01*
Y102531D01*
X38968Y105863D02*
X38301Y106530D01*
Y107863D01*
X38968Y108529D01*
X41634D01*
X42300Y107863D01*
Y106530D01*
X41634Y105863D01*
X38968D01*
X42300Y109862D02*
Y111195D01*
Y110528D01*
X38301D01*
X38968Y109862D01*
D41*
X32500Y21800D02*
X33500D01*
Y15200D02*
Y21800D01*
X32700Y15200D02*
X33500D01*
X29200Y21700D02*
X30000D01*
X29200Y15100D02*
Y21700D01*
Y15100D02*
X30200D01*
X29200Y39400D02*
X30200D01*
X29200D02*
Y46000D01*
X30000D01*
X32700Y39500D02*
X33500D01*
Y46100D01*
X32500D02*
X33500D01*
X32500Y69800D02*
X33500D01*
Y63200D02*
Y69800D01*
X32700Y63200D02*
X33500D01*
X29200Y69700D02*
X30000D01*
X29200Y63100D02*
Y69700D01*
Y63100D02*
X30200D01*
X4966Y26683D02*
X4550Y27099D01*
X3717D01*
X3300Y26683D01*
Y25016D01*
X3717Y24600D01*
X4550D01*
X4966Y25016D01*
X7465Y24600D02*
X5799D01*
X7465Y26266D01*
Y26683D01*
X7049Y27099D01*
X6216D01*
X5799Y26683D01*
X8298Y24600D02*
X9131D01*
X8715D01*
Y27099D01*
X8298Y26683D01*
X19817Y244566D02*
X19401Y244150D01*
Y243317D01*
X19817Y242900D01*
X21484D01*
X21900Y243317D01*
Y244150D01*
X21484Y244566D01*
X21900Y247065D02*
Y245399D01*
X20234Y247065D01*
X19817D01*
X19401Y246649D01*
Y245816D01*
X19817Y245399D01*
Y247898D02*
X19401Y248315D01*
Y249148D01*
X19817Y249565D01*
X21484D01*
X21900Y249148D01*
Y248315D01*
X21484Y247898D01*
X19817D01*
X168417Y5466D02*
X168001Y5050D01*
Y4216D01*
X168417Y3800D01*
X170083D01*
X170500Y4216D01*
Y5050D01*
X170083Y5466D01*
X170500Y6299D02*
Y7132D01*
Y6716D01*
X168001D01*
X168417Y6299D01*
X170083Y8382D02*
X170500Y8798D01*
Y9631D01*
X170083Y10048D01*
X168417D01*
X168001Y9631D01*
Y8798D01*
X168417Y8382D01*
X168834D01*
X169250Y8798D01*
Y10048D01*
X46900Y71499D02*
Y69416D01*
X47317Y69000D01*
X48150D01*
X48566Y69416D01*
Y71499D01*
X51065D02*
X49399D01*
Y70250D01*
X50232Y70666D01*
X50649D01*
X51065Y70250D01*
Y69416D01*
X50649Y69000D01*
X49816D01*
X49399Y69416D01*
X56100Y47899D02*
Y45816D01*
X56516Y45400D01*
X57350D01*
X57766Y45816D01*
Y47899D01*
X59849Y45400D02*
Y47899D01*
X58599Y46650D01*
X60265D01*
X118301Y4400D02*
X120384D01*
X120800Y4817D01*
Y5650D01*
X120384Y6066D01*
X118301D01*
X118717Y6899D02*
X118301Y7316D01*
Y8149D01*
X118717Y8565D01*
X119134D01*
X119550Y8149D01*
Y7732D01*
Y8149D01*
X119967Y8565D01*
X120384D01*
X120800Y8149D01*
Y7316D01*
X120384Y6899D01*
X56300Y25199D02*
Y23117D01*
X56717Y22700D01*
X57550D01*
X57966Y23117D01*
Y25199D01*
X60465Y22700D02*
X58799D01*
X60465Y24366D01*
Y24783D01*
X60049Y25199D01*
X59216D01*
X58799Y24783D01*
X12366Y244416D02*
Y246083D01*
X11950Y246499D01*
X11117D01*
X10700Y246083D01*
Y244416D01*
X11117Y244000D01*
X11950D01*
X11533Y244833D02*
X12366Y244000D01*
X11950D02*
X12366Y244416D01*
X14865Y246499D02*
X14032Y246083D01*
X13199Y245250D01*
Y244416D01*
X13616Y244000D01*
X14449D01*
X14865Y244416D01*
Y244833D01*
X14449Y245250D01*
X13199D01*
X52634Y203584D02*
Y201917D01*
X53050Y201501D01*
X53883D01*
X54300Y201917D01*
Y203584D01*
X53883Y204000D01*
X53050D01*
X53467Y203167D02*
X52634Y204000D01*
X53050D02*
X52634Y203584D01*
X50135Y201501D02*
X51801D01*
Y202750D01*
X50968Y202334D01*
X50551D01*
X50135Y202750D01*
Y203584D01*
X50551Y204000D01*
X51384D01*
X51801Y203584D01*
X74683Y217666D02*
X73017D01*
X72601Y217250D01*
Y216417D01*
X73017Y216000D01*
X74683D01*
X75100Y216417D01*
Y217250D01*
X74267Y216833D02*
X75100Y217666D01*
Y217250D02*
X74683Y217666D01*
X75100Y219749D02*
X72601D01*
X73850Y218499D01*
Y220165D01*
X104483Y211766D02*
X102817D01*
X102401Y211350D01*
Y210517D01*
X102817Y210100D01*
X104483D01*
X104900Y210517D01*
Y211350D01*
X104067Y210933D02*
X104900Y211766D01*
Y211350D02*
X104483Y211766D01*
X102817Y212599D02*
X102401Y213016D01*
Y213849D01*
X102817Y214265D01*
X103234D01*
X103650Y213849D01*
Y213432D01*
Y213849D01*
X104067Y214265D01*
X104483D01*
X104900Y213849D01*
Y213016D01*
X104483Y212599D01*
X132984Y213266D02*
X131317D01*
X130901Y212850D01*
Y212017D01*
X131317Y211600D01*
X132984D01*
X133400Y212017D01*
Y212850D01*
X132567Y212433D02*
X133400Y213266D01*
Y212850D02*
X132984Y213266D01*
X133400Y215765D02*
Y214099D01*
X131734Y215765D01*
X131317D01*
X130901Y215349D01*
Y214516D01*
X131317Y214099D01*
X161583Y212366D02*
X159917D01*
X159501Y211950D01*
Y211117D01*
X159917Y210700D01*
X161583D01*
X162000Y211117D01*
Y211950D01*
X161167Y211533D02*
X162000Y212366D01*
Y211950D02*
X161583Y212366D01*
X162000Y213199D02*
Y214032D01*
Y213616D01*
X159501D01*
X159917Y213199D01*
X189800Y142399D02*
Y139900D01*
Y141150D01*
X191466D01*
Y142399D01*
Y139900D01*
X192299D02*
X193132D01*
X192716D01*
Y142399D01*
X192299Y141983D01*
X11500Y3801D02*
Y5883D01*
X11084Y6300D01*
X10250D01*
X9834Y5883D01*
Y3801D01*
X9001Y6300D02*
X8168D01*
X8584D01*
Y3801D01*
X9001Y4217D01*
X51500Y138000D02*
Y140499D01*
X52750D01*
X53166Y140083D01*
Y139250D01*
X52750Y138833D01*
X51500D01*
X53999Y138417D02*
X54416Y138000D01*
X55249D01*
X55665Y138417D01*
Y140083D01*
X55249Y140499D01*
X54416D01*
X53999Y140083D01*
Y139666D01*
X54416Y139250D01*
X55665D01*
X47700Y83800D02*
X45201D01*
Y85050D01*
X45617Y85466D01*
X46450D01*
X46867Y85050D01*
Y83800D01*
X47700Y86299D02*
Y87132D01*
Y86716D01*
X45201D01*
X45617Y86299D01*
Y88382D02*
X45201Y88798D01*
Y89631D01*
X45617Y90048D01*
X47284D01*
X47700Y89631D01*
Y88798D01*
X47284Y88382D01*
X45617D01*
X94400Y203100D02*
X96899D01*
Y201850D01*
X96483Y201434D01*
X95650D01*
X95233Y201850D01*
Y203100D01*
X94400Y200601D02*
Y199768D01*
Y200184D01*
X96899D01*
X96483Y200601D01*
X94400Y198518D02*
Y197685D01*
Y198102D01*
X96899D01*
X96483Y198518D01*
X110700Y163600D02*
X108201D01*
Y164850D01*
X108617Y165266D01*
X109450D01*
X109867Y164850D01*
Y163600D01*
X110700Y166099D02*
Y166932D01*
Y166516D01*
X108201D01*
X108617Y166099D01*
X110700Y169848D02*
Y168182D01*
X109034Y169848D01*
X108617D01*
X108201Y169431D01*
Y168598D01*
X108617Y168182D01*
X167534Y38517D02*
X167950Y38101D01*
X168783D01*
X169200Y38517D01*
Y40183D01*
X168783Y40600D01*
X167950D01*
X167534Y40183D01*
X166701Y40600D02*
X165868D01*
X166284D01*
Y38101D01*
X166701Y38517D01*
X182066Y79283D02*
X181650Y79699D01*
X180816D01*
X180400Y79283D01*
Y77617D01*
X180816Y77200D01*
X181650D01*
X182066Y77617D01*
X184149Y77200D02*
Y79699D01*
X182899Y78450D01*
X184565D01*
X193134Y164717D02*
X193550Y164301D01*
X194384D01*
X194800Y164717D01*
Y166384D01*
X194384Y166800D01*
X193550D01*
X193134Y166384D01*
X190635Y164301D02*
X192301D01*
Y165550D01*
X191468Y165134D01*
X191051D01*
X190635Y165550D01*
Y166384D01*
X191051Y166800D01*
X191884D01*
X192301Y166384D01*
X132634Y165317D02*
X133050Y164901D01*
X133884D01*
X134300Y165317D01*
Y166983D01*
X133884Y167400D01*
X133050D01*
X132634Y166983D01*
X130135Y164901D02*
X130968Y165317D01*
X131801Y166150D01*
Y166983D01*
X131384Y167400D01*
X130551D01*
X130135Y166983D01*
Y166567D01*
X130551Y166150D01*
X131801D01*
X152034Y164417D02*
X152450Y164001D01*
X153284D01*
X153700Y164417D01*
Y166084D01*
X153284Y166500D01*
X152450D01*
X152034Y166084D01*
X151201Y164417D02*
X150784Y164001D01*
X149951D01*
X149535Y164417D01*
Y164834D01*
X149951Y165250D01*
X149535Y165667D01*
Y166084D01*
X149951Y166500D01*
X150784D01*
X151201Y166084D01*
Y165667D01*
X150784Y165250D01*
X151201Y164834D01*
Y164417D01*
X150784Y165250D02*
X149951D01*
X172234Y164817D02*
X172650Y164401D01*
X173484D01*
X173900Y164817D01*
Y166483D01*
X173484Y166900D01*
X172650D01*
X172234Y166483D01*
X171401D02*
X170984Y166900D01*
X170151D01*
X169735Y166483D01*
Y164817D01*
X170151Y164401D01*
X170984D01*
X171401Y164817D01*
Y165234D01*
X170984Y165650D01*
X169735D01*
X35166Y84883D02*
X34750Y85299D01*
X33917D01*
X33500Y84883D01*
Y83217D01*
X33917Y82800D01*
X34750D01*
X35166Y83217D01*
X35999Y82800D02*
X36832D01*
X36416D01*
Y85299D01*
X35999Y84883D01*
X39748Y82800D02*
X38082D01*
X39748Y84466D01*
Y84883D01*
X39331Y85299D01*
X38498D01*
X38082Y84883D01*
X-6499Y93000D02*
X-4000D01*
Y94250D01*
X-4417Y94666D01*
X-6083D01*
X-6499Y94250D01*
Y93000D01*
X-4000Y95499D02*
Y96332D01*
Y95916D01*
X-6499D01*
X-6083Y95499D01*
X22201Y20300D02*
X24700D01*
Y21550D01*
X24284Y21966D01*
X22617D01*
X22201Y21550D01*
Y20300D01*
X24700Y24465D02*
Y22799D01*
X23034Y24465D01*
X22617D01*
X22201Y24049D01*
Y23216D01*
X22617Y22799D01*
X21601Y41100D02*
X24100D01*
Y42350D01*
X23684Y42766D01*
X22017D01*
X21601Y42350D01*
Y41100D01*
X22017Y43599D02*
X21601Y44016D01*
Y44849D01*
X22017Y45265D01*
X22434D01*
X22850Y44849D01*
Y44432D01*
Y44849D01*
X23267Y45265D01*
X23684D01*
X24100Y44849D01*
Y44016D01*
X23684Y43599D01*
X25001Y62200D02*
X27500D01*
Y63450D01*
X27084Y63866D01*
X25417D01*
X25001Y63450D01*
Y62200D01*
X27500Y65949D02*
X25001D01*
X26250Y64699D01*
Y66365D01*
X169300Y29900D02*
X166801D01*
Y31150D01*
X167217Y31566D01*
X168050D01*
X168467Y31150D01*
Y29900D01*
X166801Y32399D02*
Y34065D01*
X167217D01*
X168884Y32399D01*
X169300D01*
X175200Y59400D02*
X172701D01*
Y60650D01*
X173117Y61066D01*
X173950D01*
X174367Y60650D01*
Y59400D01*
Y60233D02*
X175200Y61066D01*
Y61899D02*
Y62732D01*
Y62316D01*
X172701D01*
X173117Y61899D01*
X180400Y47600D02*
X182899D01*
Y46350D01*
X182483Y45934D01*
X181650D01*
X181233Y46350D01*
Y47600D01*
Y46767D02*
X180400Y45934D01*
Y43435D02*
Y45101D01*
X182066Y43435D01*
X182483D01*
X182899Y43851D01*
Y44684D01*
X182483Y45101D01*
X159300Y42100D02*
X156801D01*
Y43350D01*
X157217Y43766D01*
X158050D01*
X158467Y43350D01*
Y42100D01*
Y42933D02*
X159300Y43766D01*
X157217Y44599D02*
X156801Y45016D01*
Y45849D01*
X157217Y46265D01*
X157634D01*
X158050Y45849D01*
Y45432D01*
Y45849D01*
X158467Y46265D01*
X158884D01*
X159300Y45849D01*
Y45016D01*
X158884Y44599D01*
X8100Y96600D02*
X10599D01*
Y95350D01*
X10183Y94934D01*
X9350D01*
X8933Y95350D01*
Y96600D01*
Y95767D02*
X8100Y94934D01*
Y92851D02*
X10599D01*
X9350Y94101D01*
Y92435D01*
X124300Y47000D02*
Y44501D01*
X123050D01*
X122634Y44917D01*
Y45750D01*
X123050Y46167D01*
X124300D01*
X123467D02*
X122634Y47000D01*
X120135Y44501D02*
X121801D01*
Y45750D01*
X120968Y45334D01*
X120551D01*
X120135Y45750D01*
Y46584D01*
X120551Y47000D01*
X121384D01*
X121801Y46584D01*
X84400Y46800D02*
X86899D01*
Y45550D01*
X86483Y45134D01*
X85650D01*
X85233Y45550D01*
Y46800D01*
Y45967D02*
X84400Y45134D01*
X86899Y42635D02*
X86483Y43468D01*
X85650Y44301D01*
X84816D01*
X84400Y43884D01*
Y43051D01*
X84816Y42635D01*
X85233D01*
X85650Y43051D01*
Y44301D01*
X71200Y57300D02*
X73699D01*
Y56050D01*
X73283Y55634D01*
X72450D01*
X72033Y56050D01*
Y57300D01*
Y56467D02*
X71200Y55634D01*
X73699Y54801D02*
Y53135D01*
X73283D01*
X71617Y54801D01*
X71200D01*
Y35700D02*
Y38199D01*
X72450D01*
X72866Y37783D01*
Y36950D01*
X72450Y36533D01*
X71200D01*
X72033D02*
X72866Y35700D01*
X73699Y37783D02*
X74116Y38199D01*
X74949D01*
X75365Y37783D01*
Y37366D01*
X74949Y36950D01*
X75365Y36533D01*
Y36116D01*
X74949Y35700D01*
X74116D01*
X73699Y36116D01*
Y36533D01*
X74116Y36950D01*
X73699Y37366D01*
Y37783D01*
X74116Y36950D02*
X74949D01*
X65300Y35700D02*
Y38199D01*
X66550D01*
X66966Y37783D01*
Y36950D01*
X66550Y36533D01*
X65300D01*
X66133D02*
X66966Y35700D01*
X67799Y36116D02*
X68216Y35700D01*
X69049D01*
X69465Y36116D01*
Y37783D01*
X69049Y38199D01*
X68216D01*
X67799Y37783D01*
Y37366D01*
X68216Y36950D01*
X69465D01*
X113300Y14500D02*
X115799D01*
Y13250D01*
X115383Y12834D01*
X114550D01*
X114133Y13250D01*
Y14500D01*
Y13667D02*
X113300Y12834D01*
Y12001D02*
Y11168D01*
Y11584D01*
X115799D01*
X115383Y12001D01*
Y9918D02*
X115799Y9502D01*
Y8669D01*
X115383Y8252D01*
X113716D01*
X113300Y8669D01*
Y9502D01*
X113716Y9918D01*
X115383D01*
X70700Y16200D02*
Y18699D01*
X71950D01*
X72366Y18283D01*
Y17450D01*
X71950Y17033D01*
X70700D01*
X71533D02*
X72366Y16200D01*
X73199D02*
X74032D01*
X73616D01*
Y18699D01*
X73199Y18283D01*
X75282Y16200D02*
X76115D01*
X75698D01*
Y18699D01*
X75282Y18283D01*
X66700Y12700D02*
Y15199D01*
X67950D01*
X68366Y14783D01*
Y13950D01*
X67950Y13533D01*
X66700D01*
X67533D02*
X68366Y12700D01*
X69199D02*
X70032D01*
X69616D01*
Y15199D01*
X69199Y14783D01*
X72948Y12700D02*
X71282D01*
X72948Y14366D01*
Y14783D01*
X72531Y15199D01*
X71698D01*
X71282Y14783D01*
X75300Y58700D02*
Y61199D01*
X76550D01*
X76966Y60783D01*
Y59950D01*
X76550Y59533D01*
X75300D01*
X76133D02*
X76966Y58700D01*
X77799D02*
X78632D01*
X78216D01*
Y61199D01*
X77799Y60783D01*
X79882D02*
X80298Y61199D01*
X81131D01*
X81548Y60783D01*
Y60366D01*
X81131Y59950D01*
X80715D01*
X81131D01*
X81548Y59533D01*
Y59117D01*
X81131Y58700D01*
X80298D01*
X79882Y59117D01*
X80800Y23900D02*
Y21401D01*
X79550D01*
X79134Y21817D01*
Y22650D01*
X79550Y23067D01*
X80800D01*
X79967D02*
X79134Y23900D01*
X78301D02*
X77468D01*
X77884D01*
Y21401D01*
X78301Y21817D01*
X74969Y23900D02*
Y21401D01*
X76218Y22650D01*
X74552D01*
X77600Y13300D02*
Y15799D01*
X78850D01*
X79266Y15383D01*
Y14550D01*
X78850Y14133D01*
X77600D01*
X78433D02*
X79266Y13300D01*
X80099D02*
X80932D01*
X80516D01*
Y15799D01*
X80099Y15383D01*
X83848Y15799D02*
X82182D01*
Y14550D01*
X83015Y14966D01*
X83431D01*
X83848Y14550D01*
Y13716D01*
X83431Y13300D01*
X82598D01*
X82182Y13716D01*
X110800Y39500D02*
X108301D01*
Y40750D01*
X108717Y41166D01*
X109550D01*
X109967Y40750D01*
Y39500D01*
Y40333D02*
X110800Y41166D01*
Y41999D02*
Y42832D01*
Y42416D01*
X108301D01*
X108717Y41999D01*
X108301Y45748D02*
X108717Y44915D01*
X109550Y44082D01*
X110383D01*
X110800Y44498D01*
Y45331D01*
X110383Y45748D01*
X109967D01*
X109550Y45331D01*
Y44082D01*
X1200Y35001D02*
Y36667D01*
X367Y37500D01*
X-466Y36667D01*
Y35001D01*
X-1299Y37500D02*
Y35001D01*
X-2549D01*
X-2965Y35417D01*
Y36250D01*
X-2549Y36667D01*
X-1299D01*
X-2132D02*
X-2965Y37500D01*
X-3798D02*
X-4631D01*
X-4215D01*
Y35001D01*
X-3798Y35417D01*
X97800Y29599D02*
Y29183D01*
X98633Y28350D01*
X99466Y29183D01*
Y29599D01*
X98633Y28350D02*
Y27100D01*
X100299D02*
X101132D01*
X100716D01*
Y29599D01*
X100299Y29183D01*
X26117Y52566D02*
X25701Y52150D01*
Y51316D01*
X26117Y50900D01*
X27784D01*
X28200Y51316D01*
Y52150D01*
X27784Y52566D01*
X28200Y53399D02*
Y54232D01*
Y53816D01*
X25701D01*
X26117Y53399D01*
X25701Y57148D02*
Y55482D01*
X26950D01*
X26534Y56315D01*
Y56731D01*
X26950Y57148D01*
X27784D01*
X28200Y56731D01*
Y55898D01*
X27784Y55482D01*
X25217Y29866D02*
X24801Y29450D01*
Y28616D01*
X25217Y28200D01*
X26884D01*
X27300Y28616D01*
Y29450D01*
X26884Y29866D01*
X27300Y30699D02*
Y31532D01*
Y31116D01*
X24801D01*
X25217Y30699D01*
X27300Y34032D02*
X24801D01*
X26050Y32782D01*
Y34448D01*
X29834Y3417D02*
X30250Y3001D01*
X31084D01*
X31500Y3417D01*
Y5083D01*
X31084Y5500D01*
X30250D01*
X29834Y5083D01*
X29001Y5500D02*
X28168D01*
X28584D01*
Y3001D01*
X29001Y3417D01*
X26918D02*
X26502Y3001D01*
X25668D01*
X25252Y3417D01*
Y3834D01*
X25668Y4250D01*
X26085D01*
X25668D01*
X25252Y4667D01*
Y5083D01*
X25668Y5500D01*
X26502D01*
X26918Y5083D01*
X162366Y28483D02*
X161950Y28899D01*
X161117D01*
X160700Y28483D01*
Y26816D01*
X161117Y26400D01*
X161950D01*
X162366Y26816D01*
X163199Y28899D02*
X164865D01*
Y28483D01*
X163199Y26816D01*
Y26400D01*
X10566Y35683D02*
X10150Y36099D01*
X9317D01*
X8900Y35683D01*
Y34016D01*
X9317Y33600D01*
X10150D01*
X10566Y34016D01*
X11399Y33600D02*
X12232D01*
X11816D01*
Y36099D01*
X11399Y35683D01*
X13482D02*
X13898Y36099D01*
X14731D01*
X15148Y35683D01*
Y34016D01*
X14731Y33600D01*
X13898D01*
X13482Y34016D01*
Y35683D01*
X23566Y81683D02*
X23150Y82099D01*
X22317D01*
X21900Y81683D01*
Y80016D01*
X22317Y79600D01*
X23150D01*
X23566Y80016D01*
X24399Y79600D02*
X25232D01*
X24816D01*
Y82099D01*
X24399Y81683D01*
X26482Y79600D02*
X27315D01*
X26898D01*
Y82099D01*
X26482Y81683D01*
X84517Y6966D02*
X84101Y6550D01*
Y5717D01*
X84517Y5300D01*
X86184D01*
X86600Y5717D01*
Y6550D01*
X86184Y6966D01*
X86600Y9465D02*
Y7799D01*
X84934Y9465D01*
X84517D01*
X84101Y9049D01*
Y8216D01*
X84517Y7799D01*
X89866Y31383D02*
X89450Y31799D01*
X88617D01*
X88200Y31383D01*
Y29717D01*
X88617Y29300D01*
X89450D01*
X89866Y29717D01*
X90699Y31383D02*
X91116Y31799D01*
X91949D01*
X92365Y31383D01*
Y30966D01*
X91949Y30550D01*
X91532D01*
X91949D01*
X92365Y30133D01*
Y29717D01*
X91949Y29300D01*
X91116D01*
X90699Y29717D01*
X111066Y30483D02*
X110650Y30899D01*
X109817D01*
X109400Y30483D01*
Y28817D01*
X109817Y28400D01*
X110650D01*
X111066Y28817D01*
X111899Y28400D02*
X112732D01*
X112316D01*
Y30899D01*
X111899Y30483D01*
X115648Y30899D02*
X114815Y30483D01*
X113982Y29650D01*
Y28817D01*
X114398Y28400D01*
X115231D01*
X115648Y28817D01*
Y29233D01*
X115231Y29650D01*
X113982D01*
X165434Y11417D02*
X165850Y11001D01*
X166683D01*
X167100Y11417D01*
Y13083D01*
X166683Y13500D01*
X165850D01*
X165434Y13083D01*
X164601Y13500D02*
X163768D01*
X164184D01*
Y11001D01*
X164601Y11417D01*
X162518Y11001D02*
X160852D01*
Y11417D01*
X162518Y13083D01*
Y13500D01*
X110866Y36683D02*
X110450Y37099D01*
X109616D01*
X109200Y36683D01*
Y35017D01*
X109616Y34600D01*
X110450D01*
X110866Y35017D01*
X111699Y34600D02*
X112532D01*
X112116D01*
Y37099D01*
X111699Y36683D01*
X113782D02*
X114198Y37099D01*
X115031D01*
X115448Y36683D01*
Y36266D01*
X115031Y35850D01*
X115448Y35433D01*
Y35017D01*
X115031Y34600D01*
X114198D01*
X113782Y35017D01*
Y35433D01*
X114198Y35850D01*
X113782Y36266D01*
Y36683D01*
X114198Y35850D02*
X115031D01*
X190267Y155367D02*
X188500Y153600D01*
X189384Y154484D01*
X190562Y153305D01*
X191445Y154189D01*
X189678Y152422D01*
X191445Y150655D02*
X190267Y151833D01*
X192623D01*
X192918Y152127D01*
Y152716D01*
X192329Y153305D01*
X191740D01*
X196467Y133467D02*
X194700Y131700D01*
X195584Y132584D01*
X196762Y131405D01*
X197645Y132289D01*
X195878Y130522D01*
X197940Y131405D02*
X198529D01*
X199118Y130816D01*
Y130227D01*
X198823Y129933D01*
X198234D01*
X197940Y130227D01*
X198234Y129933D01*
X198234Y129344D01*
X197940Y129049D01*
X197351D01*
X196762Y129638D01*
Y130227D01*
X183967Y151967D02*
X182200Y150200D01*
X183084Y151084D01*
X184262Y149906D01*
X185145Y150789D01*
X183378Y149022D01*
X184851Y147549D02*
X186618Y149316D01*
X184851Y149316D01*
X186029Y148138D01*
X187867Y131967D02*
X186100Y130200D01*
X186984Y131084D01*
X188162Y129905D01*
X189045Y130789D01*
X187278Y129022D01*
X190813D02*
X189634Y130200D01*
X188751Y129316D01*
X189634Y129022D01*
X189929Y128727D01*
Y128138D01*
X189340Y127549D01*
X188751D01*
X188162Y128138D01*
Y128727D01*
X22600Y127799D02*
Y125300D01*
Y126550D01*
X24266D01*
Y127799D01*
Y125300D01*
X26765Y127799D02*
X25932Y127383D01*
X25099Y126550D01*
Y125716D01*
X25516Y125300D01*
X26349D01*
X26765Y125716D01*
Y126133D01*
X26349Y126550D01*
X25099D01*
X59234Y201968D02*
X59901Y201301D01*
X61234D01*
X61900Y201968D01*
Y204633D01*
X61234Y205300D01*
X59901D01*
X59234Y204633D01*
X120200Y202301D02*
Y206300D01*
X118201D01*
X117534Y205634D01*
Y204967D01*
X118201Y204301D01*
X120200D01*
X118201D01*
X117534Y203634D01*
Y202968D01*
X118201Y202301D01*
X120200D01*
X188500Y214600D02*
X191166D01*
X192499Y213267D01*
X191166Y211934D01*
X188500D01*
X190499D01*
Y214600D01*
D56*
X40143Y68946D02*
G03*
X40143Y68946I-492J0D01*
G01*
X40543Y46047D02*
G03*
X40543Y46047I-492J0D01*
G01*
X122557Y38672D02*
G03*
X122557Y38672I-492J0D01*
G01*
X40543Y23447D02*
G03*
X40543Y23447I-492J0D01*
G01*
X-5650Y46758D02*
G03*
X-5650Y46758I-492J0D01*
G01*
D57*
X132104Y32077D02*
G03*
X132104Y32077I-1181J0D01*
G01*
D58*
X4087Y88400D02*
G03*
X4087Y88400I-787J0D01*
G01*
D59*
X30125Y243847D02*
X33275D01*
X30125Y249753D02*
X33275D01*
X179028Y5882D02*
X182572D01*
X179028Y16118D02*
X182572D01*
X45557Y48257D02*
X52643D01*
X45557Y67943D02*
X52643D01*
Y48257D02*
Y67943D01*
X45557Y48257D02*
Y67943D01*
X45957Y25357D02*
X53043D01*
X45957Y45042D02*
X53043D01*
Y25357D02*
Y45042D01*
X45957Y25357D02*
Y45042D01*
X126986Y12786D02*
Y36014D01*
X150214Y12786D02*
Y36014D01*
X126986D02*
X150214D01*
X126986Y12786D02*
X150214D01*
X45957Y2757D02*
X53043D01*
X45957Y22443D02*
X53043D01*
Y2757D02*
Y22443D01*
X45957Y2757D02*
Y22443D01*
X10976Y214211D02*
X18654D01*
X10976D02*
Y240589D01*
X18654D01*
X72189Y221076D02*
Y228753D01*
X45811Y221076D02*
X72189D01*
X45811D02*
Y228753D01*
X100889Y221076D02*
Y228753D01*
X74511Y221076D02*
X100889D01*
X74511D02*
Y228753D01*
X130089Y221076D02*
Y228753D01*
X103711Y221076D02*
X130089D01*
X103711D02*
Y228753D01*
X158889Y221076D02*
Y228753D01*
X132511Y221076D02*
X158889D01*
X132511D02*
Y228753D01*
X187689Y219876D02*
Y227554D01*
X161311Y219876D02*
X187689D01*
X161311D02*
Y227554D01*
X9298Y14516D02*
Y16484D01*
X21502Y14516D02*
Y16484D01*
X9298Y14516D02*
X21502D01*
X9298Y16484D02*
X21502D01*
X168147Y49025D02*
Y52175D01*
X174053Y49025D02*
Y52175D01*
X201055Y46039D02*
Y75961D01*
X182945Y46039D02*
Y75961D01*
X198398D02*
X201055D01*
X198398Y46039D02*
X201055D01*
X182945Y75961D02*
X185602D01*
X182945Y46039D02*
X185602D01*
X183395Y171739D02*
X186052D01*
X183395Y201661D02*
X186052D01*
X198848Y171739D02*
X201505D01*
X198848Y201661D02*
X201505D01*
X183395Y171739D02*
Y201661D01*
X201505Y171739D02*
Y201661D01*
X140755Y172939D02*
Y202861D01*
X122645Y172939D02*
Y202861D01*
X138098D02*
X140755D01*
X138098Y172939D02*
X140755D01*
X122645Y202861D02*
X125302D01*
X122645Y172939D02*
X125302D01*
X142895Y171739D02*
X145552D01*
X142895Y201661D02*
X145552D01*
X158348Y171739D02*
X161005D01*
X158348Y201661D02*
X161005D01*
X142895Y171739D02*
Y201661D01*
X161005Y171739D02*
Y201661D01*
X181255Y171739D02*
Y201661D01*
X163145Y171739D02*
Y201661D01*
X178598D02*
X181255D01*
X178598Y171739D02*
X181255D01*
X163145Y201661D02*
X165802D01*
X163145Y171739D02*
X165802D01*
X34825Y80253D02*
X37975D01*
X34825Y74347D02*
X37975D01*
X176522Y57813D02*
Y59387D01*
X179278Y57813D02*
Y59387D01*
X176222Y47213D02*
Y48787D01*
X178978Y47213D02*
Y48787D01*
X163122Y46713D02*
Y48287D01*
X165878Y46713D02*
Y48287D01*
X4122Y93413D02*
Y94987D01*
X6878Y93413D02*
Y94987D01*
X122113Y48422D02*
X123687D01*
X122113Y51178D02*
X123687D01*
X71922Y45813D02*
Y47387D01*
X74678Y45813D02*
Y47387D01*
X66622Y51813D02*
Y53387D01*
X69378Y51813D02*
Y53387D01*
X74078Y28913D02*
Y30487D01*
X71322Y28913D02*
Y30487D01*
X65922Y28913D02*
Y30487D01*
X68678Y28913D02*
Y30487D01*
X111778Y9513D02*
Y11087D01*
X109022Y9513D02*
Y11087D01*
X74678Y6213D02*
Y7787D01*
X71922Y6213D02*
Y7787D01*
X66422Y6213D02*
Y7787D01*
X69178Y6213D02*
Y7787D01*
X79878Y51813D02*
Y53387D01*
X77122Y51813D02*
Y53387D01*
X79413Y25722D02*
X80987D01*
X79413Y28478D02*
X80987D01*
X80178Y6213D02*
Y7787D01*
X77422Y6213D02*
Y7787D01*
X112322Y41513D02*
Y43087D01*
X115078Y41513D02*
Y43087D01*
X20689Y54632D02*
Y57979D01*
X-5689Y54632D02*
X20689D01*
X-5689D02*
Y57979D01*
X93400Y4157D02*
X99900D01*
X93400D02*
Y23843D01*
X106400D01*
Y4157D02*
Y23843D01*
X99900Y4157D02*
X106400D01*
D60*
X10550Y15500D02*
D03*
D61*
X185750Y19750D02*
D03*
D62*
X49257Y65729D02*
D03*
X49357Y43029D02*
D03*
X49557Y20329D02*
D03*
M02*
