%FSLAX25Y25*%
%MOIN*%
G70*
G01*
G75*
G04 Layer_Physical_Order=3*
G04 Layer_Color=128*
%ADD10R,0.04331X0.06693*%
%ADD11R,0.05315X0.11024*%
%ADD12R,0.03543X0.03150*%
%ADD13O,0.08661X0.02362*%
%ADD14O,0.06496X0.02165*%
%ADD15O,0.02165X0.06496*%
%ADD16R,0.21260X0.21850*%
%ADD17R,0.12008X0.03937*%
%ADD18R,0.21850X0.21260*%
%ADD19R,0.03937X0.12008*%
%ADD20R,0.02362X0.04331*%
%ADD21R,0.03937X0.21654*%
%ADD22R,0.05906X0.13386*%
%ADD23R,0.21654X0.03937*%
%ADD24R,0.13386X0.05906*%
%ADD25R,0.06693X0.04331*%
%ADD26R,0.09646X0.10039*%
%ADD27R,0.03347X0.04134*%
%ADD28R,0.01378X0.03937*%
%ADD29C,0.06000*%
%ADD30R,0.03543X0.02756*%
%ADD31R,0.02756X0.03543*%
%ADD32R,0.21850X0.25590*%
%ADD33R,0.04921X0.12008*%
%ADD34R,0.09449X0.06693*%
%ADD35R,0.03150X0.03543*%
%ADD36C,0.02500*%
%ADD37C,0.02000*%
%ADD38C,0.00800*%
%ADD39C,0.01000*%
%ADD40C,0.01200*%
%ADD41C,0.00600*%
%ADD42C,0.04000*%
%ADD43C,0.01500*%
%ADD44C,0.11811*%
%ADD45O,0.11811X0.05906*%
%ADD46O,0.05906X0.11811*%
%ADD47C,0.05906*%
%ADD48C,0.02000*%
%ADD49C,0.02400*%
%ADD50C,0.33896*%
%ADD51C,0.06337*%
%ADD52C,0.04369*%
%ADD53C,0.14998*%
%ADD54C,0.03600*%
D42*
X79503Y150744D02*
G03*
X79540Y197988I0J23622D01*
G01*
X12610Y252969D02*
G03*
X-11012Y229347I0J-23622D01*
G01*
X202917D02*
G03*
X179295Y252969I-23622J0D01*
G01*
Y881D02*
G03*
X202917Y24503I0J23622D01*
G01*
X-11012D02*
G03*
X12610Y881I23622J0D01*
G01*
X-11012Y24503D02*
Y131453D01*
X42925D01*
Y150801D01*
X79503Y150744D01*
X42925Y197988D02*
X79540D01*
X42925D02*
Y210193D01*
X-11012D02*
X42925D01*
X-11012D02*
Y229347D01*
X12610Y252969D02*
X179295D01*
X202917Y24503D02*
Y229347D01*
X12610Y881D02*
X179295D01*
D50*
X136610Y106481D02*
D03*
D51*
X80100Y138302D02*
D03*
X117800Y191000D02*
D03*
D52*
X118300Y165400D02*
D03*
Y173274D02*
D03*
D53*
X136600Y143800D02*
D03*
X163000Y80000D02*
D03*
X110164Y132927D02*
D03*
X136600Y69100D02*
D03*
X25000Y117300D02*
D03*
D54*
X182400Y199100D02*
D03*
X163400Y199700D02*
D03*
X45900Y10100D02*
D03*
X52800Y8900D02*
D03*
X65100Y14900D02*
D03*
X27531Y39057D02*
D03*
X27600Y42200D02*
D03*
X47900Y29400D02*
D03*
X5600Y10400D02*
D03*
X700Y10300D02*
D03*
X23200Y16400D02*
D03*
X20400Y3600D02*
D03*
X74800Y13600D02*
D03*
X15600Y4700D02*
D03*
X65700Y204300D02*
D03*
X53000Y56900D02*
D03*
X97500Y58100D02*
D03*
X93100Y60500D02*
D03*
X88800Y62800D02*
D03*
X95600Y46600D02*
D03*
X100000Y43100D02*
D03*
X100100Y46700D02*
D03*
X103700Y55700D02*
D03*
X110700Y49000D02*
D03*
X93800Y99000D02*
D03*
X103700Y101600D02*
D03*
X121100Y54200D02*
D03*
X52600Y135600D02*
D03*
X66700Y43000D02*
D03*
X51200Y29100D02*
D03*
X11500Y25300D02*
D03*
X95600Y43100D02*
D03*
X116100Y33200D02*
D03*
X137100Y31400D02*
D03*
X191100Y30900D02*
D03*
X190100Y20800D02*
D03*
X155300Y10500D02*
D03*
X132000Y28800D02*
D03*
X77200Y30400D02*
D03*
X149600Y49700D02*
D03*
X82147Y4547D02*
D03*
X77900Y42900D02*
D03*
X50700Y50600D02*
D03*
X68635Y7225D02*
D03*
X69732Y29925D02*
D03*
X79300Y45900D02*
D03*
X46600Y201300D02*
D03*
X55400Y210600D02*
D03*
X73500Y213900D02*
D03*
X55400Y214600D02*
D03*
X47800Y58100D02*
D03*
X130900Y15100D02*
D03*
X123100Y4700D02*
D03*
X2900Y241100D02*
D03*
X73500Y209900D02*
D03*
X55400Y218600D02*
D03*
X8500Y227200D02*
D03*
X4500D02*
D03*
X500D02*
D03*
X73500Y205900D02*
D03*
X86500Y214000D02*
D03*
X143000Y213600D02*
D03*
X8500Y223200D02*
D03*
X4500D02*
D03*
X500D02*
D03*
X-3500D02*
D03*
X8500Y231300D02*
D03*
X4500D02*
D03*
X500D02*
D03*
X-3500D02*
D03*
Y227200D02*
D03*
X55400Y206600D02*
D03*
X115700Y77000D02*
D03*
X120100Y76900D02*
D03*
X115900Y73500D02*
D03*
X119900Y73600D02*
D03*
X143200Y55800D02*
D03*
X12400Y93100D02*
D03*
X16900D02*
D03*
X21400D02*
D03*
X25900D02*
D03*
X30400D02*
D03*
X12400Y97600D02*
D03*
X16900D02*
D03*
X21400D02*
D03*
X25900D02*
D03*
X30400D02*
D03*
X12400Y102100D02*
D03*
X16900D02*
D03*
X21400D02*
D03*
X25900D02*
D03*
X30400D02*
D03*
X21100Y35100D02*
D03*
X21500Y30300D02*
D03*
X26900Y18100D02*
D03*
Y14600D02*
D03*
X129500Y26200D02*
D03*
X132400Y23200D02*
D03*
X193800Y12300D02*
D03*
X196600Y14900D02*
D03*
X198100Y18800D02*
D03*
X185100Y63300D02*
D03*
Y59800D02*
D03*
Y56300D02*
D03*
X189100D02*
D03*
Y59800D02*
D03*
Y63300D02*
D03*
X193100Y56300D02*
D03*
Y59800D02*
D03*
Y63300D02*
D03*
X197100Y56300D02*
D03*
Y59800D02*
D03*
Y63300D02*
D03*
X141610Y156481D02*
D03*
X136610D02*
D03*
X131610D02*
D03*
X156610Y151481D02*
D03*
X146610D02*
D03*
X141610D02*
D03*
X131610D02*
D03*
X126610D02*
D03*
X121610D02*
D03*
X116610D02*
D03*
X166610Y146481D02*
D03*
X156610D02*
D03*
X146610D02*
D03*
X126610D02*
D03*
X121610D02*
D03*
X111610D02*
D03*
X171610Y141481D02*
D03*
X166610D02*
D03*
X156610D02*
D03*
X146610D02*
D03*
X126610D02*
D03*
X116610D02*
D03*
X111610D02*
D03*
X106610D02*
D03*
X171610Y136481D02*
D03*
X166610D02*
D03*
X156610D02*
D03*
X146610D02*
D03*
X141610D02*
D03*
X131610D02*
D03*
X101610D02*
D03*
X176610Y131481D02*
D03*
X171610D02*
D03*
X166610D02*
D03*
X151610D02*
D03*
X141610D02*
D03*
X136610D02*
D03*
X131610D02*
D03*
X101610D02*
D03*
X176610Y126481D02*
D03*
X171610D02*
D03*
X166610D02*
D03*
X161610D02*
D03*
X116610D02*
D03*
X101610D02*
D03*
X171610Y121481D02*
D03*
X166610D02*
D03*
X161610D02*
D03*
X156610D02*
D03*
X111610D02*
D03*
X106610D02*
D03*
X101610D02*
D03*
X181610Y116481D02*
D03*
X166610D02*
D03*
X161610D02*
D03*
X156610D02*
D03*
X151610D02*
D03*
X181610Y111481D02*
D03*
X176610D02*
D03*
X161610D02*
D03*
X156610D02*
D03*
X186610Y106481D02*
D03*
X181610D02*
D03*
X176610D02*
D03*
X171610D02*
D03*
X156610D02*
D03*
X111610D02*
D03*
X106610D02*
D03*
X86610D02*
D03*
X186610Y101481D02*
D03*
X181610D02*
D03*
X176610D02*
D03*
X171610D02*
D03*
X166610D02*
D03*
X111610D02*
D03*
X96610D02*
D03*
X86610D02*
D03*
X181610Y96481D02*
D03*
X176610D02*
D03*
X171610D02*
D03*
X166610D02*
D03*
X161610D02*
D03*
X111610D02*
D03*
X106610D02*
D03*
X96610D02*
D03*
X181610Y91481D02*
D03*
X176610D02*
D03*
X171610D02*
D03*
X166610D02*
D03*
X161610D02*
D03*
X156610D02*
D03*
X121610D02*
D03*
X111610D02*
D03*
X106610D02*
D03*
X96610D02*
D03*
X91610D02*
D03*
X176610Y86481D02*
D03*
X171610D02*
D03*
X156610D02*
D03*
X151610D02*
D03*
X96610D02*
D03*
X176610Y81481D02*
D03*
X171610D02*
D03*
X151610D02*
D03*
X146610D02*
D03*
X141610D02*
D03*
X136610D02*
D03*
X131610D02*
D03*
X126610D02*
D03*
X121610D02*
D03*
X111610D02*
D03*
X176610Y76481D02*
D03*
X171610D02*
D03*
X151610D02*
D03*
X146610D02*
D03*
X141610D02*
D03*
X131610D02*
D03*
X126610D02*
D03*
X111610D02*
D03*
X106610D02*
D03*
X151610Y71481D02*
D03*
X146610D02*
D03*
X126610D02*
D03*
X111610D02*
D03*
X106610D02*
D03*
X101610D02*
D03*
X151610Y66481D02*
D03*
X146610D02*
D03*
X126610D02*
D03*
X121610D02*
D03*
X111610D02*
D03*
X106610D02*
D03*
X151610Y61481D02*
D03*
X146610D02*
D03*
X141610D02*
D03*
X131610D02*
D03*
X126610D02*
D03*
X121610D02*
D03*
X83600Y11200D02*
D03*
X87000Y26600D02*
D03*
X83200Y21600D02*
D03*
X83100Y18100D02*
D03*
X90800Y26600D02*
D03*
X81500Y36900D02*
D03*
Y33000D02*
D03*
X82300Y54300D02*
D03*
X85700Y52200D02*
D03*
X101000Y52600D02*
D03*
X109000Y33000D02*
D03*
M02*
