%FSLAX25Y25*%
%MOIN*%
G70*
G01*
G75*
G04 Layer_Physical_Order=1*
G04 Layer_Color=255*
%ADD10R,0.04331X0.06693*%
%ADD11R,0.05315X0.11024*%
%ADD12R,0.03543X0.03150*%
%ADD13O,0.08661X0.02362*%
%ADD14O,0.06496X0.02165*%
%ADD15O,0.02165X0.06496*%
%ADD16R,0.21260X0.21850*%
%ADD17R,0.12008X0.03937*%
%ADD18R,0.21850X0.21260*%
%ADD19R,0.03937X0.12008*%
%ADD20R,0.02362X0.04331*%
%ADD21R,0.03937X0.21654*%
%ADD22R,0.05906X0.13386*%
%ADD23R,0.21654X0.03937*%
%ADD24R,0.13386X0.05906*%
%ADD25R,0.06693X0.04331*%
%ADD26R,0.09646X0.10039*%
%ADD27R,0.03347X0.04134*%
%ADD28R,0.01378X0.03937*%
%ADD29C,0.06000*%
%ADD30R,0.03543X0.02756*%
%ADD31R,0.02756X0.03543*%
%ADD32R,0.21850X0.25590*%
%ADD33R,0.04921X0.12008*%
%ADD34R,0.09449X0.06693*%
%ADD35R,0.03150X0.03543*%
%ADD36C,0.02500*%
%ADD37C,0.02000*%
%ADD38C,0.00800*%
%ADD39C,0.01000*%
%ADD40C,0.01200*%
%ADD41C,0.00600*%
%ADD42C,0.04000*%
%ADD43C,0.01500*%
%ADD44C,0.11811*%
%ADD45O,0.11811X0.05906*%
%ADD46O,0.05906X0.11811*%
%ADD47C,0.05906*%
%ADD48C,0.02000*%
%ADD49C,0.02400*%
G36*
X138500Y183700D02*
X124000D01*
Y205500D01*
X124019Y205800D01*
X138500D01*
Y183700D01*
D02*
G37*
G36*
X109004Y48298D02*
X109402Y47702D01*
X109998Y47304D01*
X110700Y47165D01*
X110787Y47182D01*
X111328Y46738D01*
Y43275D01*
X116072D01*
Y44080D01*
X117678D01*
X123972Y37786D01*
X123704Y37139D01*
X119899D01*
X119243Y37009D01*
X118686Y36637D01*
X118489Y36341D01*
X118324D01*
X117973Y36271D01*
X117675Y36072D01*
X116548Y34946D01*
X116100Y35035D01*
X115398Y34896D01*
X114802Y34498D01*
X114404Y33902D01*
X114265Y33200D01*
X114392Y32559D01*
X114158Y32273D01*
X113459Y32239D01*
X112049Y33649D01*
X111751Y33848D01*
X111400Y33918D01*
X110552D01*
X110298Y34298D01*
X109702Y34696D01*
X109000Y34835D01*
X108298Y34696D01*
X107702Y34298D01*
X107304Y33702D01*
X107165Y33000D01*
X107304Y32298D01*
X107702Y31702D01*
X108298Y31304D01*
X109000Y31165D01*
X109702Y31304D01*
X110298Y31702D01*
X110433Y31904D01*
X111129Y31973D01*
X112651Y30451D01*
X112949Y30252D01*
X113300Y30182D01*
X116970D01*
X117321Y30252D01*
X117619Y30451D01*
X117724Y30556D01*
X118417Y30454D01*
X118571Y30165D01*
X118314Y29781D01*
X118184Y29124D01*
X118314Y28468D01*
X118686Y27911D01*
X119243Y27539D01*
X119899Y27409D01*
X124230D01*
X124887Y27539D01*
X125443Y27911D01*
X125730Y28341D01*
X126400Y28138D01*
Y23812D01*
X125730Y23609D01*
X125443Y24038D01*
X124887Y24410D01*
X124230Y24541D01*
X119899D01*
X119243Y24410D01*
X118686Y24038D01*
X118314Y23482D01*
X118184Y22825D01*
X118314Y22169D01*
X118686Y21612D01*
X119243Y21240D01*
X119899Y21110D01*
X120657D01*
X120987Y20492D01*
X120793Y20202D01*
X120688Y19676D01*
X120793Y19149D01*
X120987Y18859D01*
X120657Y18242D01*
X119899D01*
X119243Y18111D01*
X118686Y17739D01*
X118625Y17648D01*
X116026D01*
X116026Y17648D01*
X115597Y17562D01*
X115504Y17500D01*
X111919D01*
Y21872D01*
X111375D01*
Y23128D01*
X111919D01*
Y27872D01*
X107569D01*
Y27861D01*
X93400D01*
Y48500D01*
X108964D01*
X109004Y48298D01*
D02*
G37*
G36*
X198800Y184000D02*
X185100D01*
Y205398D01*
X186045D01*
Y206100D01*
X198800D01*
Y184000D01*
D02*
G37*
G36*
X178900Y183700D02*
X164579D01*
Y198323D01*
X164698Y198402D01*
X165096Y198998D01*
X165235Y199700D01*
X165096Y200402D01*
X165093Y200407D01*
X166317Y201630D01*
X166317Y201631D01*
X166560Y201994D01*
X166645Y202424D01*
Y205398D01*
X168092D01*
Y205800D01*
X178900D01*
Y183700D01*
D02*
G37*
G36*
X201300Y66261D02*
X183100D01*
Y88061D01*
X183124Y88361D01*
X201300D01*
Y66261D01*
D02*
G37*
G36*
X36269Y67370D02*
X35807Y67278D01*
X35217Y66884D01*
X34824Y66295D01*
X34686Y65600D01*
X34824Y64905D01*
X34997Y64646D01*
X34762Y64205D01*
X32589D01*
Y65325D01*
X30011D01*
Y63708D01*
X29793Y63381D01*
X29669Y62757D01*
Y59231D01*
X28928D01*
Y54881D01*
X32630D01*
X32679Y54383D01*
X32507Y54349D01*
X32110Y54084D01*
X31745Y53719D01*
X28928D01*
Y49369D01*
X33672D01*
Y51995D01*
X48937D01*
X49173Y51554D01*
X49004Y51302D01*
X48865Y50600D01*
X49004Y49898D01*
X49402Y49302D01*
X49998Y48904D01*
X50700Y48765D01*
X51402Y48904D01*
X51998Y49302D01*
X52115Y49478D01*
X54006D01*
X54115Y49316D01*
X54704Y48922D01*
X55399Y48784D01*
X61698D01*
X62393Y48922D01*
X62982Y49316D01*
X63376Y49905D01*
X63514Y50600D01*
X63376Y51295D01*
X62982Y51884D01*
X62393Y52278D01*
X61698Y52416D01*
X55399D01*
X54704Y52278D01*
X54115Y51884D01*
X54006Y51722D01*
X53217D01*
X53072Y52200D01*
X53302Y52354D01*
X54383Y53435D01*
X54383Y53435D01*
X54383Y53435D01*
X54843Y53895D01*
X55399Y53784D01*
X61698D01*
X62393Y53922D01*
X62982Y54316D01*
X63023Y54377D01*
X65628D01*
Y53575D01*
X70372D01*
Y56913D01*
X82789D01*
X84351Y55351D01*
X84351D01*
X84351Y55351D01*
X84351Y55351D01*
Y55351D01*
X84649Y55152D01*
X85000Y55082D01*
X99200D01*
X99551Y55152D01*
X99849Y55351D01*
X101378Y56880D01*
X101872Y56807D01*
X102051Y56472D01*
X102004Y56402D01*
X101865Y55700D01*
X102004Y54998D01*
X102402Y54402D01*
X102998Y54004D01*
X103700Y53865D01*
X104402Y54004D01*
X104998Y54402D01*
X105118Y54582D01*
X108730D01*
X108827Y54602D01*
X109063Y54161D01*
X105467Y50565D01*
X80872D01*
Y51625D01*
X76128D01*
Y51531D01*
X75672D01*
Y51531D01*
X70928D01*
Y50565D01*
X70372D01*
Y51625D01*
X65628D01*
Y47669D01*
X67618D01*
X67810Y47207D01*
X67420Y46818D01*
X66000D01*
X65707Y46759D01*
X65649Y46748D01*
X65351Y46549D01*
X63531Y44728D01*
X63332Y44431D01*
X63332Y44431D01*
D01*
D01*
D01*
Y44431D01*
X63250Y44073D01*
X62793Y44378D01*
X62098Y44516D01*
X55799D01*
X55104Y44378D01*
X54515Y43984D01*
X54475Y43924D01*
X51632D01*
X51164Y43830D01*
X50767Y43565D01*
X48525Y41324D01*
X44954D01*
X44718Y41765D01*
X44879Y42005D01*
X45017Y42700D01*
X44879Y43395D01*
X44485Y43984D01*
X43896Y44378D01*
X43201Y44516D01*
X36902D01*
X36207Y44378D01*
X36137Y44331D01*
X35419D01*
X32589Y47161D01*
Y48712D01*
X30011D01*
Y47775D01*
X27531D01*
Y68212D01*
X30011D01*
Y67275D01*
X32589D01*
Y68212D01*
X36269D01*
Y67370D01*
D02*
G37*
G36*
X30011Y43575D02*
X31561D01*
X33590Y41546D01*
X34119Y41193D01*
X34581Y41101D01*
X34726Y40622D01*
X34384Y40280D01*
X32589D01*
Y41625D01*
X30011D01*
Y40007D01*
X29793Y39681D01*
X29669Y39057D01*
Y35731D01*
X28928D01*
Y31381D01*
X33672D01*
Y35731D01*
X32931D01*
Y37833D01*
X34891D01*
X34942Y37843D01*
X35086Y37700D01*
X35224Y37005D01*
X35618Y36416D01*
X36207Y36022D01*
X36902Y35884D01*
X43201D01*
X43896Y36022D01*
X44485Y36416D01*
X44730Y36782D01*
X50400D01*
X50751Y36852D01*
X51049Y37051D01*
X51049Y37051D01*
X51049Y37051D01*
X53080Y39082D01*
X54050D01*
X54286Y38641D01*
X54122Y38395D01*
X53983Y37700D01*
X54122Y37005D01*
X54515Y36416D01*
X54872Y36177D01*
X54727Y35699D01*
X47081D01*
X46730Y35629D01*
X46432Y35430D01*
X45996Y34994D01*
X44485Y33984D01*
X43896Y34378D01*
X43201Y34516D01*
X36902D01*
X36207Y34378D01*
X35618Y33984D01*
X35224Y33395D01*
X35086Y32700D01*
X35224Y32005D01*
X35300Y31891D01*
X35300Y31560D01*
X35193Y31302D01*
X34832Y31230D01*
X34435Y30965D01*
X33684Y30214D01*
X33672Y30219D01*
Y30219D01*
X33672Y30219D01*
X28928D01*
Y25869D01*
X33672D01*
Y26906D01*
X33712Y26914D01*
X34109Y27179D01*
X35807Y28877D01*
X44521D01*
X44989Y28970D01*
X45386Y29235D01*
X47628Y31477D01*
X54475D01*
X54515Y31416D01*
X55104Y31022D01*
X55799Y30884D01*
X62098D01*
X62793Y31022D01*
X63383Y31416D01*
X63423Y31477D01*
X64928D01*
Y30675D01*
X66268D01*
X66311Y30457D01*
X66532Y30126D01*
X67471Y29187D01*
X67280Y28725D01*
X64928D01*
Y24769D01*
X69672D01*
Y25830D01*
X70328D01*
Y24769D01*
X75072D01*
Y24769D01*
X75228D01*
X75269Y24728D01*
Y24728D01*
X78882D01*
Y23880D01*
X72651Y17649D01*
X72452Y17351D01*
X72382Y17000D01*
Y13600D01*
X72382Y13600D01*
X72382D01*
Y11931D01*
X71546D01*
Y12172D01*
X71476Y12523D01*
X71277Y12821D01*
X71049Y13049D01*
X70751Y13248D01*
X70400Y13318D01*
X66738D01*
X66502Y13759D01*
X66796Y14198D01*
X66935Y14900D01*
X66796Y15602D01*
X66398Y16198D01*
X65802Y16596D01*
X65100Y16735D01*
X64398Y16596D01*
X63990Y16323D01*
X63423D01*
X63383Y16384D01*
X62793Y16778D01*
X62098Y16916D01*
X55799D01*
X55104Y16778D01*
X54515Y16384D01*
X54122Y15795D01*
X54115Y15763D01*
X53636Y15617D01*
X53505Y15749D01*
X53207Y15948D01*
X52856Y16018D01*
X49003D01*
X48858Y16496D01*
X49065Y16635D01*
X51307Y18877D01*
X54475D01*
X54515Y18816D01*
X55104Y18422D01*
X55799Y18284D01*
X62098D01*
X62793Y18422D01*
X63383Y18816D01*
X63776Y19405D01*
X63914Y20100D01*
X63776Y20795D01*
X63383Y21384D01*
X62793Y21778D01*
X62098Y21916D01*
X55799D01*
X55104Y21778D01*
X54515Y21384D01*
X54475Y21324D01*
X50800D01*
X50332Y21230D01*
X50173Y21124D01*
X49935Y20965D01*
X47693Y18723D01*
X44954D01*
X44718Y19164D01*
X44879Y19405D01*
X45017Y20100D01*
X44879Y20795D01*
X44485Y21384D01*
X43896Y21778D01*
X43201Y21916D01*
X36902D01*
X36207Y21778D01*
X36137Y21731D01*
X33719D01*
X32589Y22861D01*
Y24412D01*
X30011D01*
Y23475D01*
X29132D01*
X27531Y25076D01*
Y36728D01*
X27407Y37353D01*
X27053Y37882D01*
X26363Y38573D01*
Y42615D01*
X27053Y43306D01*
X27407Y43835D01*
X27531Y44460D01*
Y44460D01*
X27531Y44460D01*
X27636Y44512D01*
X30011D01*
Y43575D01*
D02*
G37*
G36*
X92751Y48500D02*
Y27861D01*
X92941Y27402D01*
X93400Y27212D01*
X107569D01*
X107594Y27222D01*
X111269D01*
Y23734D01*
X111226Y23716D01*
X110916Y23588D01*
X110726Y23128D01*
Y21872D01*
X110916Y21412D01*
X111269Y21266D01*
Y17500D01*
X111460Y17041D01*
X111919Y16851D01*
X114111D01*
X114303Y16389D01*
X114107Y16193D01*
X113864Y15829D01*
X113778Y15400D01*
X113778Y15400D01*
Y14465D01*
X113688Y14374D01*
X112772D01*
Y15231D01*
X108028D01*
Y14374D01*
X101612D01*
X101022Y14965D01*
Y17337D01*
X105224D01*
Y25230D01*
X94576D01*
Y23177D01*
X92172D01*
Y24231D01*
X87428D01*
Y19881D01*
X92172D01*
Y20934D01*
X94576D01*
Y17337D01*
X98778D01*
Y14500D01*
X98778Y14500D01*
X98864Y14071D01*
X99107Y13707D01*
X100354Y12460D01*
X100354Y12460D01*
X100718Y12217D01*
X100718Y12217D01*
X100718Y12217D01*
D01*
X100718Y12217D01*
X100718Y12217D01*
X101147Y12131D01*
X108028D01*
Y11275D01*
X112772D01*
Y12131D01*
X114153D01*
X114153Y12131D01*
X114582Y12217D01*
X114946Y12460D01*
X115284Y12798D01*
X115495Y12756D01*
X115778Y12639D01*
Y10665D01*
X113583Y8469D01*
X112772D01*
Y9325D01*
X108028D01*
Y7838D01*
X105224D01*
Y10663D01*
X94576D01*
Y7266D01*
X91972D01*
Y8319D01*
X87228D01*
Y3969D01*
X91972D01*
Y5023D01*
X94576D01*
Y3318D01*
X87161D01*
X85165Y5314D01*
Y5417D01*
X85107Y5710D01*
X85095Y5768D01*
X84896Y6066D01*
X83213Y7749D01*
X82916Y7948D01*
X82564Y8018D01*
X75672D01*
Y11931D01*
X75672Y11931D01*
X75672D01*
X75650Y12003D01*
X76098Y12302D01*
X76496Y12898D01*
X76635Y13600D01*
X76496Y14302D01*
X76098Y14898D01*
X75502Y15296D01*
X74800Y15435D01*
X74604Y15396D01*
X74218Y15713D01*
Y16620D01*
X80449Y22851D01*
X80648Y23149D01*
X80718Y23500D01*
X80718Y23500D01*
X80718Y23500D01*
Y23500D01*
Y30770D01*
X80648Y31121D01*
X80449Y31419D01*
X78566Y33302D01*
X78268Y33500D01*
X77917Y33570D01*
X75072D01*
Y34631D01*
X74218D01*
Y41669D01*
X75672D01*
Y42326D01*
X76169Y42375D01*
X76204Y42198D01*
X76602Y41602D01*
X77198Y41204D01*
X77900Y41065D01*
X78602Y41204D01*
X79198Y41602D01*
X79596Y42198D01*
X79735Y42900D01*
X79596Y43602D01*
X79538Y43688D01*
X79729Y44150D01*
X80002Y44204D01*
X80598Y44602D01*
X80996Y45198D01*
X81135Y45900D01*
X80996Y46602D01*
X80598Y47198D01*
X80598Y47198D01*
Y47198D01*
Y47198D01*
D01*
X80598D01*
X80010Y47669D01*
X80872D01*
Y48730D01*
X92597D01*
X92751Y48500D01*
D02*
G37*
G36*
X185700Y206900D02*
X174300D01*
Y218700D01*
X185700D01*
Y206900D01*
D02*
G37*
G36*
X127900Y207200D02*
X116500D01*
Y219000D01*
X127900D01*
Y207200D01*
D02*
G37*
G36*
X12610Y251745D02*
X47475D01*
Y248431D01*
X39780D01*
Y250746D01*
X34250D01*
Y242853D01*
X39780D01*
Y245169D01*
X47475D01*
Y229728D01*
X70525D01*
Y251745D01*
X76175D01*
Y229728D01*
X85078D01*
Y228500D01*
X85078Y228500D01*
X85167Y227821D01*
X85429Y227189D01*
X85846Y226646D01*
X88546Y223946D01*
X88546Y223946D01*
X89089Y223529D01*
X89274Y223452D01*
X89721Y223267D01*
X90400Y223178D01*
X90400Y223178D01*
X122414D01*
X123254Y222337D01*
Y219649D01*
X116500D01*
X116041Y219459D01*
X115851Y219000D01*
Y207200D01*
X116041Y206741D01*
X116500Y206551D01*
X118980D01*
Y204522D01*
X107979Y193521D01*
X107758Y193190D01*
X107680Y192800D01*
Y153622D01*
X96679Y142621D01*
X96458Y142290D01*
X96380Y141900D01*
Y120900D01*
X96380Y120900D01*
X96380D01*
X96458Y120510D01*
X96679Y120179D01*
X102680Y114178D01*
Y103084D01*
X102402Y102898D01*
X102004Y102302D01*
X101865Y101600D01*
X102004Y100898D01*
X102402Y100302D01*
X102998Y99904D01*
X103700Y99765D01*
X104402Y99904D01*
X104998Y100302D01*
X105396Y100898D01*
X105535Y101600D01*
X105396Y102302D01*
X104998Y102898D01*
X104720Y103084D01*
Y114600D01*
X104642Y114990D01*
X104421Y115321D01*
X98420Y121322D01*
Y141478D01*
X109421Y152479D01*
X109642Y152810D01*
X109720Y153200D01*
X109720Y153200D01*
X109720Y153200D01*
Y153200D01*
Y192378D01*
X120721Y203379D01*
X120942Y203710D01*
X121020Y204100D01*
Y206551D01*
X123003D01*
X123263Y206423D01*
X123424Y205950D01*
X123371Y205841D01*
X123352Y205541D01*
X123359Y205520D01*
X123351Y205500D01*
Y183700D01*
X123541Y183241D01*
X124000Y183051D01*
X138500D01*
X138959Y183241D01*
X139149Y183700D01*
Y205800D01*
X138991Y206183D01*
X139269Y206598D01*
X139292D01*
Y212081D01*
X142034D01*
X142298Y211904D01*
X143000Y211765D01*
X143702Y211904D01*
X144298Y212302D01*
X144696Y212898D01*
X144835Y213600D01*
X144696Y214302D01*
X144298Y214898D01*
X143702Y215296D01*
X143000Y215435D01*
X142298Y215296D01*
X141702Y214898D01*
X141319Y214324D01*
X139292D01*
Y219806D01*
X134155D01*
Y206803D01*
X134155Y206803D01*
X134155D01*
X134155Y206598D01*
X134006Y206449D01*
X128594D01*
X128445Y206598D01*
X128445Y206803D01*
X128445D01*
Y206803D01*
Y206803D01*
D01*
X128549Y207200D01*
Y207200D01*
Y219000D01*
X128499Y219122D01*
Y223424D01*
X128499Y223424D01*
X128410Y224102D01*
X128147Y224735D01*
X127731Y225278D01*
X127731Y225278D01*
X125354Y227654D01*
X124811Y228071D01*
X124179Y228333D01*
X123500Y228422D01*
X123500Y228422D01*
X91486D01*
X90642Y229266D01*
X90834Y229728D01*
X99225D01*
Y251745D01*
X105375D01*
Y229728D01*
X128425D01*
Y251745D01*
X134175D01*
Y229728D01*
X143078D01*
Y228400D01*
X143078Y228400D01*
X143167Y227721D01*
X143429Y227089D01*
X143846Y226546D01*
X146346Y224046D01*
X146346Y224046D01*
X146889Y223629D01*
X146889Y223629D01*
X146889Y223629D01*
D01*
X146889Y223629D01*
X146889Y223629D01*
X147521Y223367D01*
X148200Y223278D01*
X180314D01*
X180854Y222737D01*
Y219349D01*
X174300D01*
X173841Y219159D01*
X173651Y218700D01*
Y206900D01*
X173665Y206865D01*
X173387Y206449D01*
X168092D01*
Y218606D01*
X162955D01*
Y205398D01*
X164402D01*
Y202888D01*
X162962Y201448D01*
X162698Y201396D01*
X162102Y200998D01*
X161704Y200402D01*
X161565Y199700D01*
X161704Y198998D01*
X162102Y198402D01*
X162698Y198004D01*
X163400Y197865D01*
X163543Y197893D01*
X163930Y197576D01*
Y183700D01*
X164120Y183241D01*
X164579Y183051D01*
X178900D01*
X179359Y183241D01*
X179549Y183700D01*
Y199955D01*
X180011Y200147D01*
X180647Y199512D01*
X180565Y199100D01*
X180704Y198398D01*
X181102Y197802D01*
X181698Y197404D01*
X182400Y197265D01*
X183102Y197404D01*
X183698Y197802D01*
X183972Y198213D01*
X184451Y198068D01*
Y184000D01*
X184641Y183541D01*
X185100Y183351D01*
X198800D01*
X199259Y183541D01*
X199449Y184000D01*
Y206100D01*
X199259Y206559D01*
X198800Y206749D01*
X186450D01*
X186349Y206900D01*
Y218700D01*
X186159Y219159D01*
X186099Y219184D01*
Y223824D01*
X186010Y224502D01*
X185748Y225135D01*
X185331Y225678D01*
X185331Y225678D01*
X183254Y227754D01*
X182863Y228055D01*
X183024Y228528D01*
X186025D01*
Y250259D01*
X186432Y250550D01*
X187874Y250060D01*
X190505Y248763D01*
X192943Y247134D01*
X195148Y245200D01*
X197082Y242995D01*
X198711Y240557D01*
X200008Y237927D01*
X200951Y235150D01*
X201523Y232273D01*
X201709Y229428D01*
X201693Y229347D01*
Y89273D01*
X201300Y89010D01*
X183124D01*
X182916Y88924D01*
X182703Y88855D01*
X182690Y88831D01*
X182665Y88820D01*
X182579Y88612D01*
X182476Y88412D01*
X182453Y88112D01*
X182461Y88086D01*
X182451Y88061D01*
Y66261D01*
X182641Y65802D01*
X183100Y65611D01*
X201300D01*
X201693Y65349D01*
Y24503D01*
X201709Y24422D01*
X201523Y21577D01*
X200951Y18700D01*
X200008Y15924D01*
X198711Y13293D01*
X197082Y10855D01*
X195148Y8650D01*
X192943Y6716D01*
X190505Y5087D01*
X187874Y3790D01*
X185097Y2847D01*
X182221Y2275D01*
X182069Y2265D01*
X181862Y2720D01*
X182521Y3379D01*
X182742Y3710D01*
X182820Y4100D01*
X182820Y4100D01*
X182820Y4100D01*
Y4100D01*
Y22100D01*
X182742Y22490D01*
X182521Y22821D01*
X181320Y24022D01*
Y30778D01*
X183964Y33422D01*
X184760Y33093D01*
X185700Y32969D01*
X186640Y33093D01*
X187515Y33455D01*
X188268Y34032D01*
X188845Y34784D01*
X189207Y35660D01*
X189331Y36600D01*
X189207Y37540D01*
X188845Y38416D01*
X188268Y39167D01*
X187515Y39745D01*
X186640Y40107D01*
X185700Y40231D01*
X184760Y40107D01*
X183885Y39745D01*
X183132Y39167D01*
X182555Y38416D01*
X182193Y37540D01*
X182069Y36600D01*
X182193Y35660D01*
X182522Y34864D01*
X179579Y31921D01*
X179358Y31590D01*
X179280Y31200D01*
Y28625D01*
X178807Y28465D01*
X178268Y29168D01*
X177515Y29745D01*
X176640Y30107D01*
X175700Y30231D01*
X174760Y30107D01*
X173884Y29745D01*
X173132Y29168D01*
X172897Y28861D01*
X172424Y29021D01*
Y31593D01*
X174168Y33338D01*
X174760Y33093D01*
X175700Y32969D01*
X176640Y33093D01*
X177515Y33455D01*
X178268Y34032D01*
X178845Y34784D01*
X179207Y35660D01*
X179331Y36600D01*
X179207Y37540D01*
X178845Y38416D01*
X178268Y39167D01*
X177515Y39745D01*
X176640Y40107D01*
X175700Y40231D01*
X174760Y40107D01*
X173884Y39745D01*
X173132Y39167D01*
X172555Y38416D01*
X172193Y37540D01*
X172069Y36600D01*
X172193Y35660D01*
X172438Y35068D01*
X170335Y32965D01*
X170070Y32568D01*
X169976Y32100D01*
Y22200D01*
X169976Y22200D01*
X169976D01*
X170070Y21732D01*
X170335Y21335D01*
X174096Y17574D01*
X173905Y17112D01*
X171539D01*
Y12631D01*
X163675D01*
Y14328D01*
X164219D01*
Y19072D01*
X159869D01*
Y18157D01*
X158840D01*
X158605Y18598D01*
X158886Y19019D01*
X159016Y19676D01*
X158886Y20332D01*
X158514Y20889D01*
X158347Y21000D01*
Y21500D01*
X158514Y21612D01*
X158575Y21704D01*
X159869D01*
Y20328D01*
X164219D01*
Y25072D01*
X159869D01*
Y23947D01*
X158575D01*
X158514Y24038D01*
X157957Y24410D01*
X157301Y24541D01*
X152970D01*
X152313Y24410D01*
X151757Y24038D01*
X151385Y23482D01*
X151254Y22825D01*
X151385Y22169D01*
X151757Y21612D01*
X151924Y21500D01*
Y21000D01*
X151757Y20889D01*
X151385Y20332D01*
X151254Y19676D01*
X151385Y19019D01*
X151757Y18462D01*
X151879Y18381D01*
X151734Y17902D01*
X142244D01*
X139498Y20649D01*
X139051Y20947D01*
X138524Y21052D01*
X125199D01*
X124887Y21261D01*
X124230Y21391D01*
X121242D01*
X121229Y21416D01*
X121153Y21478D01*
X121116Y21569D01*
X120968Y21630D01*
X120845Y21731D01*
X120747Y21721D01*
X120657Y21759D01*
X119963D01*
X119496Y21852D01*
X119154Y22080D01*
X118926Y22422D01*
X118846Y22825D01*
X118926Y23228D01*
X119154Y23570D01*
X119496Y23799D01*
X119963Y23891D01*
X124166D01*
X124633Y23799D01*
X124975Y23570D01*
X125190Y23248D01*
X125323Y23159D01*
X125424Y23036D01*
X125522Y23026D01*
X125603Y22972D01*
X125760Y23003D01*
X125919Y22987D01*
X126588Y23190D01*
X126712Y23292D01*
X126859Y23353D01*
X126897Y23444D01*
X126973Y23506D01*
X126988Y23664D01*
X127049Y23812D01*
Y28138D01*
X126988Y28285D01*
X126973Y28444D01*
X126897Y28506D01*
X126859Y28597D01*
X126712Y28658D01*
X126588Y28759D01*
X125919Y28962D01*
X125760Y28947D01*
X125603Y28978D01*
X125522Y28923D01*
X125424Y28914D01*
X125323Y28790D01*
X125190Y28702D01*
X124975Y28379D01*
X124633Y28151D01*
X124166Y28058D01*
X119963D01*
X119496Y28151D01*
X119154Y28379D01*
X118926Y28721D01*
X118846Y29124D01*
X118926Y29528D01*
X119111Y29804D01*
X119130Y29901D01*
X119192Y29976D01*
X119177Y30135D01*
X119208Y30292D01*
X119208Y30292D01*
X119208D01*
X119674Y30603D01*
X119899Y30558D01*
X124230D01*
X124887Y30689D01*
X125443Y31061D01*
X125815Y31618D01*
X125946Y32274D01*
X125815Y32931D01*
X125443Y33487D01*
X125276Y33599D01*
Y34099D01*
X125443Y34211D01*
X125815Y34767D01*
X125907Y35228D01*
X126385Y35373D01*
X126779Y34979D01*
X127110Y34758D01*
X127500Y34680D01*
X135280D01*
Y32200D01*
X135352Y31839D01*
X135265Y31400D01*
X135404Y30698D01*
X135765Y30159D01*
X135529Y29718D01*
X133552D01*
X133298Y30098D01*
X132702Y30496D01*
X132000Y30635D01*
X131298Y30496D01*
X130702Y30098D01*
X130304Y29502D01*
X130165Y28800D01*
X130304Y28098D01*
X130702Y27502D01*
X131298Y27104D01*
X132000Y26965D01*
X132702Y27104D01*
X133298Y27502D01*
X133552Y27882D01*
X143600D01*
X143951Y27952D01*
X144249Y28151D01*
X144249Y28151D01*
X144249Y28151D01*
X147123Y31025D01*
X147322Y31323D01*
X147392Y31674D01*
X147392Y31674D01*
X147392Y31674D01*
Y31674D01*
Y37359D01*
X147687Y37557D01*
X147799Y37724D01*
X148299D01*
X148410Y37557D01*
X148967Y37185D01*
X149624Y37054D01*
X150280Y37185D01*
X150837Y37557D01*
X151209Y38113D01*
X151339Y38770D01*
Y43101D01*
X151209Y43757D01*
X150837Y44314D01*
X150518Y44527D01*
Y48148D01*
X150898Y48402D01*
X151296Y48998D01*
X151435Y49700D01*
X151296Y50402D01*
X150898Y50998D01*
X150302Y51396D01*
X149600Y51535D01*
X148898Y51396D01*
X148302Y50998D01*
X147904Y50402D01*
X147765Y49700D01*
X147904Y48998D01*
X148302Y48402D01*
X148682Y48148D01*
Y44496D01*
X148410Y44314D01*
X148299Y44147D01*
X147799D01*
X147687Y44314D01*
X147131Y44686D01*
X146474Y44816D01*
X145817Y44686D01*
X145261Y44314D01*
X145149Y44147D01*
X144649D01*
X144538Y44314D01*
X144218Y44528D01*
Y54315D01*
X144498Y54502D01*
X144896Y55098D01*
X145035Y55800D01*
X144896Y56502D01*
X144498Y57098D01*
X143902Y57496D01*
X143200Y57635D01*
X142498Y57496D01*
X141902Y57098D01*
X141504Y56502D01*
X141365Y55800D01*
X141504Y55098D01*
X141902Y54502D01*
X142382Y54181D01*
Y44495D01*
X142111Y44314D01*
X142000Y44147D01*
X141500D01*
X141388Y44314D01*
X140831Y44686D01*
X140175Y44816D01*
X139518Y44686D01*
X138962Y44314D01*
X138850Y44147D01*
X138350D01*
X138238Y44314D01*
X137682Y44686D01*
X137025Y44816D01*
X136369Y44686D01*
X135812Y44314D01*
X135700Y44147D01*
X135200D01*
X135089Y44314D01*
X134793Y44511D01*
Y50724D01*
X134723Y51076D01*
X134525Y51373D01*
X127418Y58480D01*
X127120Y58679D01*
X126769Y58748D01*
X101031D01*
X100680Y58679D01*
X100382Y58480D01*
X99892Y57989D01*
X99335Y58100D01*
X99196Y58802D01*
X98798Y59398D01*
X98202Y59796D01*
X97500Y59935D01*
X96798Y59796D01*
X96202Y59398D01*
X95948Y59018D01*
X94805D01*
X94569Y59459D01*
X94796Y59798D01*
X94935Y60500D01*
X94796Y61202D01*
X94398Y61798D01*
X93802Y62196D01*
X93100Y62335D01*
X92398Y62196D01*
X91802Y61798D01*
X91686Y61624D01*
X90709D01*
X90473Y62064D01*
X90496Y62098D01*
X90635Y62800D01*
X90496Y63502D01*
X90431Y63598D01*
Y83900D01*
X90307Y84524D01*
X89954Y85053D01*
X81728Y93279D01*
X81198Y93633D01*
X80574Y93757D01*
X79127D01*
Y94695D01*
X56273D01*
Y89557D01*
X79127D01*
Y90495D01*
X79898D01*
X87169Y83224D01*
Y63598D01*
X87104Y63502D01*
X86965Y62800D01*
X86436Y62695D01*
X84224Y64907D01*
Y67500D01*
X84130Y67968D01*
X83865Y68365D01*
X70282Y81949D01*
X69885Y82214D01*
X69416Y82307D01*
X56883D01*
X53425Y85765D01*
X53028Y86030D01*
X52560Y86124D01*
X37207D01*
X33465Y89865D01*
X33068Y90130D01*
X32600Y90223D01*
X8254D01*
X7872Y90606D01*
Y93225D01*
X3128D01*
Y89269D01*
X5748D01*
X6882Y88135D01*
X7279Y87870D01*
X7747Y87776D01*
X32093D01*
X35835Y84035D01*
X36073Y83876D01*
X36232Y83770D01*
X36700Y83676D01*
X52053D01*
X55511Y80218D01*
X55511D01*
X55511Y80218D01*
X55511D01*
X55511Y80218D01*
Y80218D01*
X55511Y80218D01*
Y80218D01*
X55908Y79953D01*
X56376Y79860D01*
X68910D01*
X81776Y66993D01*
Y64400D01*
X81776Y64400D01*
X81776D01*
X81870Y63932D01*
X82135Y63535D01*
X84680Y60990D01*
X84444Y60549D01*
X84100Y60618D01*
X71680D01*
X68968Y63330D01*
X68670Y63529D01*
X68319Y63599D01*
X62770D01*
X62625Y64077D01*
X62982Y64316D01*
X63376Y64905D01*
X63514Y65600D01*
X63376Y66295D01*
X62982Y66884D01*
X62393Y67278D01*
X61698Y67416D01*
X55399D01*
X54704Y67278D01*
X54115Y66884D01*
X54075Y66824D01*
X51300D01*
X50832Y66730D01*
X50435Y66465D01*
X48174Y64205D01*
X44541D01*
X44305Y64646D01*
X44479Y64905D01*
X44617Y65600D01*
X44479Y66295D01*
X44085Y66884D01*
X43496Y67278D01*
X42801Y67416D01*
X40142D01*
X39531Y68027D01*
Y69843D01*
Y73353D01*
X44480D01*
Y81247D01*
X38950D01*
Y78723D01*
X38546Y78453D01*
X36746Y76653D01*
X36393Y76124D01*
X36269Y75500D01*
Y71475D01*
X32589D01*
Y72412D01*
X30011D01*
Y71475D01*
X27872D01*
Y72719D01*
X23128D01*
Y68369D01*
X24269D01*
Y48390D01*
X19576D01*
Y53362D01*
X13455D01*
Y40154D01*
X19576D01*
Y45127D01*
X23607D01*
X23712Y44873D01*
X23780Y44649D01*
X23578Y44513D01*
X23224Y43984D01*
X23100Y43360D01*
Y37897D01*
X23100Y37897D01*
X23100D01*
X23224Y37273D01*
X23578Y36743D01*
X24269Y36053D01*
Y24400D01*
X24393Y23776D01*
X24746Y23246D01*
X27303Y20690D01*
X27303Y20690D01*
X27303D01*
X27303Y20690D01*
X27303D01*
X27303Y20690D01*
Y20690D01*
Y20690D01*
D01*
D01*
X27303D01*
Y20690D01*
X27832Y20336D01*
X28457Y20212D01*
X30011D01*
Y19275D01*
X31561D01*
X31890Y18947D01*
X32419Y18593D01*
X32722Y18533D01*
X32867Y18054D01*
X32138Y17325D01*
X30011D01*
Y15708D01*
X29793Y15381D01*
X29669Y14757D01*
Y11472D01*
X28881D01*
Y7352D01*
X27719D01*
Y11472D01*
X23369D01*
Y6728D01*
X24321D01*
Y6613D01*
X24414Y6144D01*
X24679Y5747D01*
X25163Y5263D01*
X25163D01*
X25163Y5263D01*
X25163Y5263D01*
Y5263D01*
X25560Y4998D01*
X26028Y4905D01*
X33128D01*
X33596Y4998D01*
X33993Y5263D01*
X35106Y6376D01*
X47400D01*
X47868Y6470D01*
X48265Y6735D01*
X50501Y8971D01*
X50980Y8826D01*
X51104Y8198D01*
X51502Y7602D01*
X51778Y7418D01*
Y7100D01*
X51778Y7100D01*
X51864Y6671D01*
X52107Y6307D01*
X54107Y4307D01*
X54107Y4307D01*
X54252Y4210D01*
X54515Y3816D01*
X55104Y3422D01*
X55799Y3284D01*
X62098D01*
X62793Y3422D01*
X63383Y3816D01*
X63776Y4405D01*
X63914Y5100D01*
X63776Y5795D01*
X63383Y6384D01*
X62793Y6778D01*
X62098Y6916D01*
X55799D01*
X55104Y6778D01*
X54927Y6659D01*
X54088Y7499D01*
X54098Y7602D01*
X54496Y8198D01*
X54519Y8314D01*
X54981Y8505D01*
X55104Y8422D01*
X55799Y8284D01*
X62098D01*
X62793Y8422D01*
X63383Y8816D01*
X63423Y8877D01*
X65428D01*
Y7975D01*
X66780D01*
Y7700D01*
X66838Y7413D01*
X66800Y7225D01*
X66940Y6523D01*
X66978Y6466D01*
X66742Y6025D01*
X65428D01*
Y2105D01*
X22096D01*
X21860Y2546D01*
X22096Y2898D01*
X22235Y3600D01*
X22096Y4302D01*
X21698Y4898D01*
X21102Y5296D01*
X20400Y5435D01*
X20058Y7156D01*
Y8010D01*
X20921D01*
Y13541D01*
X17359D01*
Y8010D01*
X18223D01*
Y5060D01*
X18292Y4709D01*
X18491Y4411D01*
X18687Y4215D01*
X18565Y3600D01*
X18704Y2898D01*
X18940Y2546D01*
X18704Y2105D01*
X12610D01*
X12529Y2089D01*
X9684Y2275D01*
X6808Y2847D01*
X4030Y3790D01*
X1400Y5087D01*
X-1038Y6716D01*
X-3243Y8650D01*
X-5177Y10855D01*
X-6806Y13293D01*
X-8103Y15924D01*
X-9046Y18700D01*
X-9618Y21577D01*
X-9804Y24422D01*
X-9788Y24503D01*
Y130229D01*
X42925D01*
X43393Y130323D01*
X43790Y130588D01*
X44056Y130985D01*
X44149Y131453D01*
Y149222D01*
X44503Y149575D01*
X79501Y149521D01*
X79503Y149512D01*
Y149505D01*
X82287Y149662D01*
X85035Y150129D01*
X87714Y150900D01*
X90290Y151967D01*
X92730Y153316D01*
X95004Y154929D01*
X97083Y156787D01*
X98940Y158866D01*
X100554Y161140D01*
X101902Y163580D01*
X102969Y166155D01*
X103741Y168834D01*
X103780Y169066D01*
X104278Y169024D01*
Y155265D01*
X92607Y143593D01*
X92364Y143229D01*
X92278Y142800D01*
X92278Y142800D01*
Y99963D01*
X92104Y99702D01*
X91965Y99000D01*
X92104Y98298D01*
X92502Y97702D01*
X93098Y97304D01*
X93800Y97165D01*
X94502Y97304D01*
X95098Y97702D01*
X95496Y98298D01*
X95635Y99000D01*
X95496Y99702D01*
X95098Y100298D01*
X94522Y100683D01*
Y142335D01*
X106193Y154007D01*
X106193Y154007D01*
X106436Y154371D01*
X106522Y154800D01*
Y196435D01*
X108717Y198630D01*
X108717Y198631D01*
X108960Y198994D01*
X108960Y198994D01*
X108960Y198994D01*
X109045Y199424D01*
X109045Y199424D01*
Y206598D01*
X110492D01*
Y219806D01*
X105355D01*
Y206598D01*
X106802D01*
Y199888D01*
X104607Y197693D01*
X104364Y197329D01*
X104278Y196900D01*
X104278Y196900D01*
Y179709D01*
X103780Y179667D01*
X103741Y179899D01*
X102969Y182578D01*
X101902Y185153D01*
X100554Y187593D01*
X98940Y189867D01*
X97083Y191946D01*
X95004Y193804D01*
X92730Y195417D01*
X90290Y196766D01*
X87714Y197833D01*
X85035Y198604D01*
X82287Y199071D01*
X79541Y199225D01*
X79541Y199214D01*
X79540Y199212D01*
X47576D01*
X47431Y199690D01*
X47898Y200002D01*
X48296Y200598D01*
X48435Y201300D01*
X48346Y201748D01*
X50673Y204075D01*
X50871Y204373D01*
X50941Y204724D01*
X50941Y204724D01*
X50941Y204724D01*
Y204724D01*
Y206598D01*
X52592D01*
Y219806D01*
X47455D01*
Y206598D01*
X49106D01*
Y205104D01*
X47048Y203046D01*
X46600Y203135D01*
X45898Y202996D01*
X45302Y202598D01*
X44904Y202002D01*
X44765Y201300D01*
X44904Y200598D01*
X45302Y200002D01*
X45769Y199690D01*
X45624Y199212D01*
X44149D01*
Y210193D01*
X44056Y210662D01*
X43790Y211058D01*
X43393Y211324D01*
X42925Y211417D01*
X-9788D01*
Y229347D01*
X-9804Y229428D01*
X-9618Y232273D01*
X-9046Y235150D01*
X-8103Y237927D01*
X-6806Y240557D01*
X-5177Y242995D01*
X-3243Y245200D01*
X-1038Y247134D01*
X1400Y248763D01*
X4030Y250060D01*
X6808Y251003D01*
X9684Y251575D01*
X12529Y251762D01*
X12610Y251745D01*
D02*
G37*
%LPC*%
G36*
X136600Y76033D02*
X135248Y75899D01*
X133947Y75505D01*
X132748Y74864D01*
X131698Y74002D01*
X130836Y72952D01*
X130195Y71753D01*
X129801Y70452D01*
X129667Y69100D01*
X129801Y67747D01*
X130195Y66447D01*
X130836Y65249D01*
X131698Y64198D01*
X132748Y63336D01*
X133947Y62695D01*
X135248Y62301D01*
X136600Y62167D01*
X137952Y62301D01*
X139253Y62695D01*
X140452Y63336D01*
X141502Y64198D01*
X142364Y65249D01*
X143005Y66447D01*
X143399Y67747D01*
X143533Y69100D01*
X143399Y70452D01*
X143005Y71753D01*
X142364Y72952D01*
X141502Y74002D01*
X140452Y74864D01*
X139253Y75505D01*
X137952Y75899D01*
X136600Y76033D01*
D02*
G37*
G36*
X177900Y67735D02*
X177198Y67596D01*
X176602Y67198D01*
X176204Y66602D01*
X176065Y65900D01*
X176204Y65198D01*
X176602Y64602D01*
X176676Y64553D01*
Y63531D01*
X175528D01*
Y59575D01*
X180272D01*
Y63531D01*
X179123D01*
Y64553D01*
X179198Y64602D01*
X179596Y65198D01*
X179735Y65900D01*
X179596Y66602D01*
X179198Y67198D01*
X178602Y67596D01*
X177900Y67735D01*
D02*
G37*
G36*
X20921Y22990D02*
X17359D01*
Y17459D01*
X20921D01*
Y22990D01*
D02*
G37*
G36*
X66135Y78553D02*
X51549D01*
Y71447D01*
X66135D01*
Y78553D01*
D02*
G37*
G36*
X170700Y72035D02*
X169998Y71896D01*
X169402Y71498D01*
X169200Y71195D01*
X168700D01*
X168498Y71498D01*
X167902Y71896D01*
X167200Y72035D01*
X166498Y71896D01*
X165902Y71498D01*
X165700Y71195D01*
X165200D01*
X164998Y71498D01*
X164402Y71896D01*
X163700Y72035D01*
X162998Y71896D01*
X162402Y71498D01*
X162200Y71195D01*
X161700D01*
X161498Y71498D01*
X160902Y71896D01*
X160200Y72035D01*
X159498Y71896D01*
X158902Y71498D01*
X158700Y71195D01*
X158200D01*
X157998Y71498D01*
X157402Y71896D01*
X156700Y72035D01*
X155998Y71896D01*
X155402Y71498D01*
X155004Y70902D01*
X154865Y70200D01*
X155004Y69498D01*
X155402Y68902D01*
X155705Y68700D01*
Y68200D01*
X155402Y67998D01*
X155004Y67402D01*
X154865Y66700D01*
X155004Y65998D01*
X155402Y65402D01*
X155705Y65200D01*
Y64700D01*
X155402Y64498D01*
X155004Y63902D01*
X154865Y63200D01*
X155004Y62498D01*
X155402Y61902D01*
X155705Y61700D01*
Y61200D01*
X155402Y60998D01*
X155004Y60402D01*
X154865Y59700D01*
X155004Y58998D01*
X155402Y58402D01*
X155455Y58367D01*
Y57867D01*
X154902Y57498D01*
X154504Y56902D01*
X154365Y56200D01*
X154504Y55498D01*
X154902Y54902D01*
X155498Y54504D01*
X155771Y54450D01*
Y53950D01*
X155498Y53896D01*
X154902Y53498D01*
X154504Y52902D01*
X154365Y52200D01*
X154504Y51498D01*
X154902Y50902D01*
X155498Y50504D01*
X155771Y50450D01*
Y49950D01*
X155498Y49896D01*
X154902Y49498D01*
X154504Y48902D01*
X154365Y48200D01*
X154504Y47498D01*
X154902Y46902D01*
X155498Y46504D01*
X156200Y46365D01*
X156902Y46504D01*
X157498Y46902D01*
X157896Y47498D01*
X157950Y47771D01*
X158450D01*
X158504Y47498D01*
X158902Y46902D01*
X159498Y46504D01*
X160200Y46365D01*
X160902Y46504D01*
X161498Y46902D01*
X161896Y47498D01*
X162035Y48200D01*
X161896Y48902D01*
X161498Y49498D01*
X160902Y49896D01*
X160629Y49950D01*
Y50450D01*
X160902Y50504D01*
X161498Y50902D01*
X161896Y51498D01*
X162035Y52200D01*
X161896Y52902D01*
X161498Y53498D01*
X160902Y53896D01*
X160629Y53950D01*
Y54450D01*
X160902Y54504D01*
X161498Y54902D01*
X161700Y55205D01*
X162200D01*
X162402Y54902D01*
X162998Y54504D01*
X163700Y54365D01*
X164402Y54504D01*
X164998Y54902D01*
X165396Y55498D01*
X165535Y56200D01*
X165396Y56902D01*
X164998Y57498D01*
X164695Y57700D01*
Y58200D01*
X164998Y58402D01*
X165396Y58998D01*
X165535Y59700D01*
X165396Y60402D01*
X164998Y60998D01*
X164695Y61200D01*
Y61700D01*
X164998Y61902D01*
X165200Y62205D01*
X165700D01*
X165902Y61902D01*
X166498Y61504D01*
X167200Y61365D01*
X167902Y61504D01*
X168498Y61902D01*
X168700Y62205D01*
X169200D01*
X169402Y61902D01*
X169998Y61504D01*
X170700Y61365D01*
X171402Y61504D01*
X171998Y61902D01*
X172396Y62498D01*
X172535Y63200D01*
X172396Y63902D01*
X171998Y64498D01*
X171695Y64700D01*
Y65200D01*
X171998Y65402D01*
X172396Y65998D01*
X172535Y66700D01*
X172396Y67402D01*
X171998Y67998D01*
X171695Y68200D01*
Y68700D01*
X171998Y68902D01*
X172396Y69498D01*
X172535Y70200D01*
X172396Y70902D01*
X171998Y71498D01*
X171402Y71896D01*
X170700Y72035D01*
D02*
G37*
G36*
X13441Y13541D02*
X9879D01*
Y8010D01*
X10742D01*
Y5840D01*
X10742Y5840D01*
X10742D01*
X10812Y5489D01*
X11011Y5191D01*
X12151Y4051D01*
X12449Y3852D01*
X12800Y3782D01*
X14048D01*
X14302Y3402D01*
X14898Y3004D01*
X15600Y2865D01*
X16302Y3004D01*
X16898Y3402D01*
X17296Y3998D01*
X17435Y4700D01*
X17296Y5402D01*
X16898Y5998D01*
X16302Y6396D01*
X15600Y6535D01*
X14898Y6396D01*
X14302Y5998D01*
X14048Y5618D01*
X13180D01*
X12577Y6220D01*
Y8010D01*
X13441D01*
Y13541D01*
D02*
G37*
G36*
X180272Y57625D02*
X175528D01*
Y53669D01*
X176982D01*
Y52931D01*
X175228D01*
Y48975D01*
X179972D01*
Y52931D01*
X178818D01*
Y53669D01*
X180272D01*
Y57625D01*
D02*
G37*
G36*
X1545Y53362D02*
X-4576D01*
Y40154D01*
X1545D01*
Y44695D01*
X2007Y44886D01*
X4669Y42224D01*
Y38100D01*
X4793Y37476D01*
X5147Y36946D01*
X7247Y34846D01*
X7247D01*
X7247Y34846D01*
X7247Y34846D01*
Y34846D01*
X7776Y34493D01*
X8400Y34369D01*
X9813D01*
Y32672D01*
X9269D01*
Y27928D01*
X13619D01*
Y32672D01*
X13075D01*
Y34528D01*
X16862D01*
X16898Y34504D01*
X17600Y34365D01*
X18302Y34504D01*
X18898Y34902D01*
X19296Y35498D01*
X19435Y36200D01*
X19296Y36902D01*
X18898Y37498D01*
X18302Y37896D01*
X17600Y38035D01*
X16898Y37896D01*
X16741Y37791D01*
X11860D01*
X11236Y37667D01*
X11182Y37631D01*
X9076D01*
X7931Y38776D01*
Y42900D01*
X7807Y43524D01*
X7453Y44054D01*
X3595Y47912D01*
X3066Y48265D01*
X2442Y48390D01*
X1545D01*
Y53362D01*
D02*
G37*
G36*
X11500Y27135D02*
X10798Y26996D01*
X10202Y26598D01*
X9804Y26002D01*
X9665Y25300D01*
X9804Y24598D01*
X10202Y24002D01*
X10481Y23817D01*
Y22990D01*
X9879D01*
Y21477D01*
X7972D01*
Y22531D01*
X3228D01*
Y18181D01*
X7972D01*
Y19234D01*
X9879D01*
Y17459D01*
X13441D01*
Y22990D01*
X12520D01*
Y23817D01*
X12798Y24002D01*
X13196Y24598D01*
X13335Y25300D01*
X13196Y26002D01*
X12798Y26598D01*
X12202Y26996D01*
X11500Y27135D01*
D02*
G37*
G36*
X51200Y30935D02*
X50498Y30796D01*
X49902Y30398D01*
X49504Y29802D01*
X49365Y29100D01*
X49504Y28398D01*
X49902Y27802D01*
X50498Y27404D01*
X51200Y27265D01*
X51408Y27306D01*
X51807Y26907D01*
X51807Y26907D01*
X52171Y26664D01*
X52600Y26578D01*
X52600Y26578D01*
X54406D01*
X54515Y26416D01*
X55104Y26022D01*
X55799Y25884D01*
X62098D01*
X62793Y26022D01*
X63383Y26416D01*
X63776Y27005D01*
X63914Y27700D01*
X63776Y28395D01*
X63383Y28984D01*
X62793Y29378D01*
X62098Y29516D01*
X55799D01*
X55104Y29378D01*
X54515Y28984D01*
X54406Y28822D01*
X53065D01*
X53035Y29100D01*
X53035Y29100D01*
X53035D01*
X52896Y29802D01*
X52498Y30398D01*
X51902Y30796D01*
X51200Y30935D01*
D02*
G37*
G36*
X191100Y32735D02*
X190398Y32596D01*
X189802Y32198D01*
X189404Y31602D01*
X189265Y30900D01*
X189404Y30198D01*
X189802Y29602D01*
X190398Y29204D01*
X191100Y29065D01*
X191428Y29130D01*
X192435Y28124D01*
X192193Y27540D01*
X192069Y26600D01*
X192193Y25660D01*
X192555Y24784D01*
X193132Y24033D01*
X193885Y23455D01*
X194760Y23093D01*
X195700Y22969D01*
X196640Y23093D01*
X197515Y23455D01*
X198268Y24033D01*
X198845Y24784D01*
X199207Y25660D01*
X199331Y26600D01*
X199207Y27540D01*
X198845Y28416D01*
X198268Y29168D01*
X197515Y29745D01*
X196640Y30107D01*
X195700Y30231D01*
X194760Y30107D01*
X193885Y29745D01*
X193779Y29663D01*
X192870Y30572D01*
X192935Y30900D01*
X192796Y31602D01*
X192398Y32198D01*
X191802Y32596D01*
X191100Y32735D01*
D02*
G37*
G36*
X175047Y48050D02*
X167154D01*
Y46525D01*
X166872D01*
Y46525D01*
X162128D01*
Y42569D01*
X163582D01*
Y32180D01*
X161444Y30042D01*
X158711D01*
X158514Y30338D01*
X158347Y30449D01*
Y30949D01*
X158514Y31061D01*
X158886Y31618D01*
X159016Y32274D01*
X158886Y32931D01*
X158514Y33487D01*
X158347Y33599D01*
Y34099D01*
X158514Y34211D01*
X158886Y34767D01*
X159016Y35424D01*
X158886Y36080D01*
X158514Y36637D01*
X157957Y37009D01*
X157301Y37139D01*
X152970D01*
X152313Y37009D01*
X151757Y36637D01*
X151385Y36080D01*
X151254Y35424D01*
X151385Y34767D01*
X151757Y34211D01*
X151924Y34099D01*
Y33599D01*
X151757Y33487D01*
X151385Y32931D01*
X151254Y32274D01*
X151385Y31618D01*
X151757Y31061D01*
X151924Y30949D01*
Y30449D01*
X151757Y30338D01*
X151385Y29781D01*
X151254Y29124D01*
X151385Y28468D01*
X151757Y27911D01*
X152313Y27539D01*
X152970Y27409D01*
X157301D01*
X157957Y27539D01*
X158514Y27911D01*
X158711Y28207D01*
X161824D01*
X162176Y28277D01*
X162473Y28476D01*
X165149Y31151D01*
X165348Y31449D01*
X165418Y31800D01*
X165418Y31800D01*
X165418Y31800D01*
Y31800D01*
Y42569D01*
X166872D01*
Y42569D01*
X167104D01*
X167154Y42520D01*
Y42520D01*
X175047D01*
Y43069D01*
X175228D01*
Y43069D01*
X179972D01*
Y47025D01*
X175228D01*
D01*
X175228D01*
X175047Y47207D01*
Y48050D01*
D02*
G37*
G36*
X185700Y30231D02*
X184760Y30107D01*
X183885Y29745D01*
X183132Y29168D01*
X182555Y28416D01*
X182193Y27540D01*
X182069Y26600D01*
X182193Y25660D01*
X182555Y24784D01*
X183132Y24033D01*
X183885Y23455D01*
X184760Y23093D01*
X185700Y22969D01*
X186397Y23061D01*
X188330Y21128D01*
X188265Y20800D01*
X188404Y20098D01*
X188802Y19502D01*
X189398Y19104D01*
X190100Y18965D01*
X190802Y19104D01*
X191398Y19502D01*
X191796Y20098D01*
X191935Y20800D01*
X191796Y21502D01*
X191398Y22098D01*
X190802Y22496D01*
X190100Y22635D01*
X189772Y22570D01*
X188286Y24056D01*
X188845Y24784D01*
X189207Y25660D01*
X189331Y26600D01*
X189207Y27540D01*
X188845Y28416D01*
X188268Y29168D01*
X187515Y29745D01*
X186640Y30107D01*
X185700Y30231D01*
D02*
G37*
G36*
X63932Y143456D02*
X58794D01*
Y137231D01*
X53398D01*
X53302Y137296D01*
X52600Y137435D01*
X51898Y137296D01*
X51302Y136898D01*
X50904Y136302D01*
X50765Y135600D01*
X50904Y134898D01*
X51302Y134302D01*
X51898Y133904D01*
X52600Y133765D01*
X53302Y133904D01*
X53398Y133969D01*
X58794D01*
Y120602D01*
X63932D01*
Y143456D01*
D02*
G37*
G36*
X158300Y206449D02*
X144418D01*
X144205Y206361D01*
X143988Y206286D01*
X143979Y206267D01*
X143959Y206259D01*
X143871Y206046D01*
X143770Y205839D01*
X143752Y205539D01*
X143759Y205520D01*
X143751Y205500D01*
Y183700D01*
X143941Y183241D01*
X144400Y183051D01*
X158300D01*
X158759Y183241D01*
X158949Y183700D01*
Y205800D01*
X158759Y206259D01*
X158300Y206449D01*
D02*
G37*
G36*
X110164Y139859D02*
X108812Y139726D01*
X107511Y139331D01*
X106313Y138691D01*
X105262Y137829D01*
X104400Y136778D01*
X103760Y135580D01*
X103365Y134279D01*
X103232Y132927D01*
X103365Y131574D01*
X103760Y130274D01*
X104400Y129075D01*
X105262Y128025D01*
X106313Y127162D01*
X107511Y126522D01*
X108812Y126127D01*
X110164Y125994D01*
X111517Y126127D01*
X112817Y126522D01*
X114016Y127162D01*
X115066Y128025D01*
X115929Y129075D01*
X116569Y130274D01*
X116964Y131574D01*
X117097Y132927D01*
X116964Y134279D01*
X116569Y135580D01*
X115929Y136778D01*
X115066Y137829D01*
X114016Y138691D01*
X112817Y139331D01*
X111517Y139726D01*
X110164Y139859D01*
D02*
G37*
G36*
X136600Y150733D02*
X135248Y150599D01*
X133947Y150205D01*
X132748Y149564D01*
X131698Y148702D01*
X130836Y147652D01*
X130195Y146453D01*
X129801Y145152D01*
X129667Y143800D01*
X129801Y142447D01*
X130195Y141147D01*
X130836Y139948D01*
X131698Y138898D01*
X132748Y138036D01*
X133947Y137395D01*
X135248Y137001D01*
X136600Y136867D01*
X137952Y137001D01*
X139253Y137395D01*
X140452Y138036D01*
X141502Y138898D01*
X142364Y139948D01*
X143005Y141147D01*
X143399Y142447D01*
X143533Y143800D01*
X143399Y145152D01*
X143005Y146453D01*
X142364Y147652D01*
X141502Y148702D01*
X140452Y149564D01*
X139253Y150205D01*
X137952Y150599D01*
X136600Y150733D01*
D02*
G37*
G36*
X81292Y219806D02*
X76155D01*
Y206598D01*
X81292D01*
Y212878D01*
X85085D01*
X85202Y212702D01*
X85798Y212304D01*
X86500Y212165D01*
X87202Y212304D01*
X87798Y212702D01*
X88196Y213298D01*
X88335Y214000D01*
X88196Y214702D01*
X87798Y215298D01*
X87202Y215696D01*
X86500Y215835D01*
X85798Y215696D01*
X85202Y215298D01*
X85085Y215122D01*
X81292D01*
Y219806D01*
D02*
G37*
G36*
X2900Y242935D02*
X2198Y242796D01*
X1602Y242398D01*
X1204Y241802D01*
X1065Y241100D01*
X1204Y240398D01*
X1602Y239802D01*
X1778Y239685D01*
Y238945D01*
X-3502D01*
Y233808D01*
X9706D01*
Y238945D01*
X4022D01*
Y239685D01*
X4198Y239802D01*
X4596Y240398D01*
X4735Y241100D01*
X4596Y241802D01*
X4198Y242398D01*
X3602Y242796D01*
X2900Y242935D01*
D02*
G37*
G36*
X117800Y197536D02*
X116873Y197414D01*
X116008Y197056D01*
X115266Y196487D01*
X114697Y195745D01*
X114339Y194880D01*
X114217Y193953D01*
Y190084D01*
X111316Y187184D01*
X110907Y186572D01*
X110764Y185850D01*
Y149950D01*
X110764Y149950D01*
X110764D01*
X110907Y149228D01*
X111316Y148616D01*
X122114Y137819D01*
Y127581D01*
X114966Y120434D01*
X114557Y119822D01*
X114414Y119100D01*
Y79449D01*
X113900D01*
X113441Y79259D01*
X113251Y78800D01*
Y71800D01*
X113441Y71341D01*
X113900Y71151D01*
X122200D01*
X122659Y71341D01*
X122849Y71800D01*
Y78800D01*
X122659Y79259D01*
X122200Y79449D01*
X118186D01*
Y118319D01*
X125334Y125466D01*
X125607Y125875D01*
X125743Y126078D01*
X125886Y126800D01*
Y138600D01*
X125743Y139322D01*
X125607Y139525D01*
X125334Y139934D01*
X114536Y150731D01*
Y163921D01*
X115027Y164019D01*
X115197Y163608D01*
X115766Y162866D01*
X116508Y162297D01*
X117373Y161939D01*
X118300Y161817D01*
X119227Y161939D01*
X120092Y162297D01*
X120834Y162866D01*
X121403Y163608D01*
X121761Y164473D01*
X121883Y165400D01*
X121761Y166327D01*
X121403Y167192D01*
X120834Y167934D01*
X120092Y168503D01*
X119227Y168861D01*
X118300Y168983D01*
X117373Y168861D01*
X116508Y168503D01*
X115766Y167934D01*
X115197Y167192D01*
X115027Y166781D01*
X114536Y166879D01*
Y171795D01*
X115027Y171893D01*
X115197Y171482D01*
X115766Y170740D01*
X116508Y170171D01*
X117373Y169813D01*
X118300Y169691D01*
X119227Y169813D01*
X120092Y170171D01*
X120834Y170740D01*
X121403Y171482D01*
X121761Y172347D01*
X121883Y173274D01*
X121761Y174202D01*
X121403Y175066D01*
X120834Y175808D01*
X120092Y176377D01*
X119227Y176735D01*
X118300Y176857D01*
X117373Y176735D01*
X116508Y176377D01*
X115766Y175808D01*
X115197Y175066D01*
X115027Y174655D01*
X114536Y174753D01*
Y185069D01*
X114998Y185531D01*
X115266Y185513D01*
X116008Y184944D01*
X116873Y184586D01*
X117800Y184464D01*
X118727Y184586D01*
X119592Y184944D01*
X120334Y185513D01*
X120903Y186256D01*
X121261Y187120D01*
X121383Y188047D01*
Y193953D01*
X121261Y194880D01*
X120903Y195745D01*
X120334Y196487D01*
X119592Y197056D01*
X118727Y197414D01*
X117800Y197536D01*
D02*
G37*
G36*
X42088Y238925D02*
X19628D01*
Y215875D01*
X42088D01*
Y223278D01*
X64214D01*
X65354Y222137D01*
Y219349D01*
X58800D01*
X58341Y219159D01*
X58151Y218700D01*
Y206900D01*
X58341Y206441D01*
X58800Y206251D01*
X64280D01*
Y205415D01*
X64004Y205002D01*
X63865Y204300D01*
X64004Y203598D01*
X64402Y203002D01*
X64998Y202604D01*
X65700Y202465D01*
X66402Y202604D01*
X66998Y203002D01*
X67396Y203598D01*
X67535Y204300D01*
X67396Y205002D01*
X66998Y205598D01*
X66737Y205772D01*
X66882Y206251D01*
X70200D01*
X70659Y206441D01*
X70849Y206900D01*
Y218700D01*
X70659Y219159D01*
X70599Y219184D01*
Y223224D01*
X70509Y223902D01*
X70248Y224535D01*
X69831Y225078D01*
X69831Y225078D01*
X67154Y227754D01*
X66611Y228171D01*
X65979Y228433D01*
X65300Y228522D01*
X65300Y228522D01*
X42088D01*
Y238925D01*
D02*
G37*
G36*
X82042Y130464D02*
X74936D01*
Y115878D01*
X82042D01*
Y130464D01*
D02*
G37*
G36*
X1773Y99713D02*
X-2773D01*
Y94380D01*
X1773D01*
Y96031D01*
X3128D01*
Y95175D01*
X7872D01*
Y99131D01*
X3128D01*
Y98274D01*
X1773D01*
Y99713D01*
D02*
G37*
G36*
X136610Y122864D02*
X134472Y122724D01*
X132370Y122306D01*
X130341Y121617D01*
X128419Y120669D01*
X126637Y119479D01*
X125026Y118066D01*
X123613Y116455D01*
X122422Y114673D01*
X121474Y112751D01*
X120785Y110722D01*
X120367Y108620D01*
X120227Y106481D01*
X120367Y104343D01*
X120785Y102241D01*
X121474Y100212D01*
X122422Y98290D01*
X123613Y96508D01*
X125026Y94897D01*
X126637Y93484D01*
X128419Y92293D01*
X130341Y91345D01*
X132370Y90656D01*
X134472Y90238D01*
X136610Y90098D01*
X138749Y90238D01*
X140851Y90656D01*
X142880Y91345D01*
X144802Y92293D01*
X146584Y93484D01*
X148195Y94897D01*
X149608Y96508D01*
X150798Y98290D01*
X151746Y100212D01*
X152435Y102241D01*
X152853Y104343D01*
X152993Y106481D01*
X152853Y108620D01*
X152435Y110722D01*
X151746Y112751D01*
X150798Y114673D01*
X149608Y116455D01*
X148195Y118066D01*
X146584Y119479D01*
X144802Y120669D01*
X142880Y121617D01*
X140851Y122306D01*
X138749Y122724D01*
X136610Y122864D01*
D02*
G37*
G36*
X163000Y86933D02*
X161647Y86799D01*
X160347Y86405D01*
X159149Y85764D01*
X158098Y84902D01*
X157236Y83851D01*
X156595Y82653D01*
X156201Y81353D01*
X156067Y80000D01*
X156201Y78648D01*
X156595Y77347D01*
X157236Y76148D01*
X158098Y75098D01*
X159149Y74236D01*
X160347Y73595D01*
X161647Y73201D01*
X163000Y73067D01*
X164353Y73201D01*
X165653Y73595D01*
X166851Y74236D01*
X167902Y75098D01*
X168764Y76148D01*
X169405Y77347D01*
X169799Y78648D01*
X169933Y80000D01*
X169799Y81353D01*
X169405Y82653D01*
X168764Y83851D01*
X167902Y84902D01*
X166851Y85764D01*
X165653Y86405D01*
X164353Y86799D01*
X163000Y86933D01*
D02*
G37*
G36*
X79127Y102568D02*
X56273D01*
Y97431D01*
X79127D01*
Y102568D01*
D02*
G37*
G36*
X25000Y124233D02*
X23648Y124099D01*
X22347Y123705D01*
X21148Y123064D01*
X20098Y122202D01*
X19236Y121151D01*
X18595Y119953D01*
X18201Y118652D01*
X18067Y117300D01*
X18201Y115947D01*
X18595Y114647D01*
X19236Y113449D01*
X20098Y112398D01*
X21148Y111536D01*
X22347Y110895D01*
X23648Y110501D01*
X25000Y110367D01*
X26353Y110501D01*
X27653Y110895D01*
X28852Y111536D01*
X29902Y112398D01*
X30764Y113449D01*
X31405Y114647D01*
X31799Y115947D01*
X31933Y117300D01*
X31799Y118652D01*
X31405Y119953D01*
X30764Y121151D01*
X29902Y122202D01*
X28852Y123064D01*
X27653Y123705D01*
X26353Y124099D01*
X25000Y124233D01*
D02*
G37*
G36*
X55664Y130464D02*
X48558D01*
Y115878D01*
X55664D01*
Y130464D01*
D02*
G37*
G36*
X66135Y112805D02*
X51549D01*
Y105699D01*
X66135D01*
Y112805D01*
D02*
G37*
%LPD*%
G36*
X122200Y71800D02*
X113900D01*
Y78800D01*
X122200D01*
Y71800D01*
D02*
G37*
G36*
X158300Y183700D02*
X144400D01*
Y205500D01*
X144418Y205800D01*
X158300D01*
Y183700D01*
D02*
G37*
G36*
X70200Y206900D02*
X58800D01*
Y218700D01*
X70200D01*
Y206900D01*
D02*
G37*
D10*
X37015Y246800D02*
D03*
X26385D02*
D03*
X31085Y77300D02*
D03*
X41715D02*
D03*
D11*
X186804Y11000D02*
D03*
X174796D02*
D03*
D12*
X5600Y14844D02*
D03*
Y20356D02*
D03*
X31300Y57056D02*
D03*
Y51544D02*
D03*
Y33556D02*
D03*
Y28044D02*
D03*
X25500Y70544D02*
D03*
Y76056D02*
D03*
X89600Y11656D02*
D03*
Y6144D02*
D03*
X89800Y16544D02*
D03*
Y22056D02*
D03*
D13*
X58549Y50600D02*
D03*
Y55600D02*
D03*
Y60600D02*
D03*
Y65600D02*
D03*
X39651Y50600D02*
D03*
Y55600D02*
D03*
Y60600D02*
D03*
Y65600D02*
D03*
X58949Y27700D02*
D03*
Y32700D02*
D03*
Y37700D02*
D03*
Y42700D02*
D03*
X40051Y27700D02*
D03*
Y32700D02*
D03*
Y37700D02*
D03*
Y42700D02*
D03*
X58949Y5100D02*
D03*
Y10100D02*
D03*
Y15100D02*
D03*
Y20100D02*
D03*
X40051Y5100D02*
D03*
Y10100D02*
D03*
Y15100D02*
D03*
Y20100D02*
D03*
D14*
X122065Y35424D02*
D03*
Y32274D02*
D03*
Y29124D02*
D03*
Y25975D02*
D03*
Y22825D02*
D03*
Y19676D02*
D03*
Y16526D02*
D03*
Y13376D02*
D03*
X155135D02*
D03*
Y16526D02*
D03*
Y19676D02*
D03*
Y22825D02*
D03*
Y25975D02*
D03*
Y29124D02*
D03*
Y32274D02*
D03*
Y35424D02*
D03*
D15*
X127576Y7865D02*
D03*
X130726D02*
D03*
X133876D02*
D03*
X137025D02*
D03*
X140175D02*
D03*
X143324D02*
D03*
X146474D02*
D03*
X149624D02*
D03*
Y40935D02*
D03*
X146474D02*
D03*
X143324D02*
D03*
X140175D02*
D03*
X137025D02*
D03*
X133876D02*
D03*
X130726D02*
D03*
X127576D02*
D03*
D16*
X30858Y227400D02*
D03*
D17*
X3102Y218424D02*
D03*
Y236376D02*
D03*
D18*
X59000Y240958D02*
D03*
X87700D02*
D03*
X116900D02*
D03*
X145700D02*
D03*
X174500Y239758D02*
D03*
D19*
X67976Y213202D02*
D03*
X50024D02*
D03*
X96676D02*
D03*
X78724D02*
D03*
X125876D02*
D03*
X107924D02*
D03*
X154676D02*
D03*
X136724D02*
D03*
X183476Y212002D02*
D03*
X165524D02*
D03*
D20*
X11660Y10776D02*
D03*
X15400D02*
D03*
X19140D02*
D03*
Y20224D02*
D03*
X11660D02*
D03*
D21*
X69237Y132029D02*
D03*
X61363D02*
D03*
D22*
X52111Y123171D02*
D03*
X78489D02*
D03*
D23*
X67700Y84252D02*
D03*
Y100000D02*
D03*
Y92126D02*
D03*
D24*
X58842Y109252D02*
D03*
Y75000D02*
D03*
D25*
X171100Y45285D02*
D03*
Y55915D02*
D03*
D26*
X192000Y72909D02*
D03*
Y49091D02*
D03*
X192450Y174791D02*
D03*
Y198609D02*
D03*
X131700Y199809D02*
D03*
Y175991D02*
D03*
X151950Y174791D02*
D03*
Y198609D02*
D03*
X172200D02*
D03*
Y174791D02*
D03*
D27*
X-500Y90354D02*
D03*
Y97047D02*
D03*
D28*
X31300Y14757D02*
D03*
Y21843D02*
D03*
Y46143D02*
D03*
Y39057D02*
D03*
Y62757D02*
D03*
Y69843D02*
D03*
D29*
X195700Y26600D02*
D03*
Y36600D02*
D03*
X185700Y26600D02*
D03*
Y36600D02*
D03*
X175700D02*
D03*
Y26600D02*
D03*
D30*
X177900Y55647D02*
D03*
Y61553D02*
D03*
X177600Y45047D02*
D03*
Y50953D02*
D03*
X164500Y44547D02*
D03*
Y50453D02*
D03*
X5500Y91247D02*
D03*
Y97153D02*
D03*
X73300Y43647D02*
D03*
Y49553D02*
D03*
X68000Y49647D02*
D03*
Y55553D02*
D03*
X72700Y32653D02*
D03*
Y26747D02*
D03*
X67300Y26747D02*
D03*
Y32653D02*
D03*
X110400Y13253D02*
D03*
Y7347D02*
D03*
X73300Y9953D02*
D03*
Y4047D02*
D03*
X67800Y4047D02*
D03*
Y9953D02*
D03*
X78500Y55553D02*
D03*
Y49647D02*
D03*
X78800Y9953D02*
D03*
Y4047D02*
D03*
X113700Y39347D02*
D03*
Y45253D02*
D03*
D31*
X125853Y49800D02*
D03*
X119947D02*
D03*
X83153Y27100D02*
D03*
X77247D02*
D03*
D32*
X7500Y72349D02*
D03*
D33*
X16516Y46758D02*
D03*
X-1516D02*
D03*
D34*
X99900Y21283D02*
D03*
Y6717D02*
D03*
D35*
X31056Y9100D02*
D03*
X25544D02*
D03*
X162044Y22700D02*
D03*
X167556D02*
D03*
X11444Y30300D02*
D03*
X16956D02*
D03*
X115256Y19500D02*
D03*
X109744D02*
D03*
X162044Y16700D02*
D03*
X167556D02*
D03*
X115256Y25500D02*
D03*
X109744D02*
D03*
D36*
X116300Y119100D02*
X124000Y126800D01*
X116300Y76400D02*
Y119100D01*
X115700Y77000D02*
X116300Y76400D01*
X28958Y225500D02*
X30858Y227400D01*
X124000Y126800D02*
Y138600D01*
X112650Y149950D02*
X124000Y138600D01*
X112650Y149950D02*
Y185850D01*
X117800Y191000D01*
D37*
X53158Y246800D02*
X59000Y240958D01*
X37015Y246800D02*
X53158D01*
X25900Y46143D02*
Y69843D01*
X16516Y46758D02*
X25285D01*
X39700Y77300D02*
X41715D01*
X37900Y75500D02*
X39700Y77300D01*
X37900Y69843D02*
Y75500D01*
X25500Y69843D02*
X25900D01*
Y70544D01*
X25500Y69843D02*
Y70544D01*
X25900D01*
X88800Y62800D02*
Y83900D01*
X80574Y92126D02*
X88800Y83900D01*
X67700Y92126D02*
X80574D01*
X25900Y44460D02*
Y46143D01*
X24800Y43360D02*
X25900Y44460D01*
X24731Y37897D02*
Y43360D01*
Y37897D02*
X25900Y36728D01*
Y24400D02*
Y36728D01*
Y24400D02*
X28457Y21843D01*
X11700Y36000D02*
X11860Y36160D01*
X11444Y35744D02*
X11700Y36000D01*
X11800D01*
X8400D02*
X11700D01*
X6300Y38100D02*
X8400Y36000D01*
X6300Y38100D02*
Y42900D01*
X2442Y46758D02*
X6300Y42900D01*
X-1516Y46758D02*
X2442D01*
X25900Y69843D02*
X31300D01*
X11444Y30300D02*
Y35744D01*
X11860Y36160D02*
X17560D01*
X31300Y69843D02*
X37900D01*
Y67351D02*
Y69843D01*
Y67351D02*
X39651Y65600D01*
X162100Y11000D02*
X175796D01*
X162044Y11056D02*
X162100Y11000D01*
X162044Y11056D02*
Y16700D01*
X161870Y16526D02*
X162044Y16700D01*
X155135Y16526D02*
X161870D01*
X25900Y46143D02*
X31300D01*
X28457Y21843D02*
X31300D01*
Y9456D02*
Y14757D01*
Y57056D02*
Y62757D01*
Y46143D02*
X34743Y42700D01*
X31300Y21843D02*
X33043Y20100D01*
X31300Y33556D02*
Y39057D01*
X34743Y42700D02*
X40051D01*
X33043Y20100D02*
X40051D01*
X17560Y36160D02*
X17600Y36200D01*
X109744Y19500D02*
Y25500D01*
X109014Y26230D02*
X109744Y25500D01*
X91170Y26230D02*
X109014D01*
X52600Y135600D02*
X60700D01*
Y132029D02*
Y135600D01*
D38*
X171212Y4488D02*
X178868D01*
X167835Y7865D02*
X171212Y4488D01*
X149624Y7865D02*
X167835D01*
X180300Y23600D02*
X181800Y22100D01*
Y4100D02*
Y22100D01*
X180484Y2784D02*
X181800Y4100D01*
X175700Y23100D02*
X179700Y19100D01*
Y5320D02*
Y19100D01*
X178868Y4488D02*
X179700Y5320D01*
X180500Y201100D02*
X182350Y199250D01*
X180500Y201100D02*
Y213000D01*
X65300Y204700D02*
Y209400D01*
Y204700D02*
X65700Y204300D01*
X53000Y54818D02*
Y56900D01*
Y54818D02*
X53518Y54300D01*
X97400Y120900D02*
Y141900D01*
X120000Y204100D02*
Y213300D01*
X97400Y120900D02*
X103700Y114600D01*
Y101600D02*
Y114600D01*
X11500Y20384D02*
Y25300D01*
X119147Y49000D02*
X119947Y49800D01*
X110700Y49000D02*
X119147D01*
X127500Y35700D02*
X136300D01*
X127576Y40935D02*
Y49424D01*
X127200Y49800D02*
X127576Y49424D01*
X125853Y49800D02*
X127200D01*
X136300Y32200D02*
Y35700D01*
Y32200D02*
X137100Y31400D01*
X191100Y30900D02*
X195400Y26600D01*
X195700D01*
X185700Y25200D02*
Y26600D01*
Y25200D02*
X190100Y20800D01*
X155135Y10665D02*
X155300Y10500D01*
X155135Y10665D02*
Y13376D01*
X180300Y31200D02*
X185700Y36600D01*
X180300Y23600D02*
Y31200D01*
X175700Y23100D02*
Y26600D01*
X147116Y2784D02*
X180484D01*
X146474Y3426D02*
X147116Y2784D01*
X146474Y3426D02*
Y7865D01*
X137025Y36425D02*
Y40935D01*
X136300Y35700D02*
X137025Y36425D01*
X67800Y7700D02*
X68275Y7225D01*
X68635D01*
X67800Y7700D02*
Y9953D01*
X68500Y29600D02*
X69800D01*
X67253Y30847D02*
Y32700D01*
X123300Y212000D02*
X124674D01*
X69732Y29925D02*
X69800Y29858D01*
Y29600D02*
Y29858D01*
X67253Y30847D02*
X68500Y29600D01*
X108700Y192800D02*
X120000Y204100D01*
X97400Y141900D02*
X108700Y153200D01*
Y192800D01*
X113700Y45100D02*
X118100D01*
X127500Y35700D01*
D39*
X-394Y97153D02*
X5500D01*
X52900Y7100D02*
Y8800D01*
X52800Y8900D02*
X52900Y8800D01*
Y7100D02*
X54900Y5100D01*
X58949D01*
X93400Y99400D02*
Y142800D01*
Y99400D02*
X93800Y99000D01*
X93400Y142800D02*
X105400Y154800D01*
X107924Y199424D02*
Y213202D01*
X105400Y196900D02*
X107924Y199424D01*
X105400Y154800D02*
Y196900D01*
X66600Y42900D02*
X66700Y43000D01*
X51200Y29100D02*
X52600Y27700D01*
X58949D01*
X51200Y28500D02*
Y29100D01*
X5600Y20356D02*
X11528D01*
X8400Y14844D02*
X14456D01*
X114900Y15400D02*
X116026Y16526D01*
X114900Y14000D02*
Y15400D01*
X116900Y10200D02*
Y12700D01*
X155135Y22825D02*
X161919D01*
X15400Y10776D02*
Y13900D01*
X14456Y14844D02*
X15400Y13900D01*
X66600Y39700D02*
Y42900D01*
X64600Y37700D02*
X66600Y39700D01*
X66100Y42900D02*
X66600D01*
X58949Y37700D02*
X64600D01*
X165524Y202424D02*
Y213202D01*
X163400Y200300D02*
X165524Y202424D01*
X89600Y6144D02*
X99328D01*
X99900Y6717D02*
X109769D01*
X114047Y7347D02*
X116900Y10200D01*
X110400Y7347D02*
X114047D01*
X99900Y14500D02*
Y21283D01*
Y14500D02*
X101147Y13253D01*
X110400D01*
X117576Y13376D02*
X122065D01*
X117100Y12900D02*
X117576Y13376D01*
X116026Y16526D02*
X122065D01*
X114153Y13253D02*
X114900Y14000D01*
X110400Y13253D02*
X114153D01*
X89800Y22056D02*
X99128D01*
X99528Y4444D02*
X100100Y5017D01*
X2900Y236579D02*
X3102Y236376D01*
X2900Y236579D02*
Y241100D01*
X50700Y50600D02*
X58549D01*
X79521Y214000D02*
X86500D01*
X136724Y213202D02*
X142602D01*
X143000Y213600D01*
D40*
X5500Y91247D02*
X7747Y89000D01*
X32600D01*
X52560Y84900D02*
X56376Y81084D01*
X36700Y84900D02*
X52560D01*
X32600Y89000D02*
X36700Y84900D01*
X47400Y7600D02*
X51100Y11300D01*
X53894D01*
X55094Y10100D02*
X58949D01*
X53894Y11300D02*
X55094Y10100D01*
X65100Y14900D02*
X65600D01*
X51632Y42700D02*
X58949D01*
X49013Y40081D02*
X51632Y42700D01*
X44521Y30100D02*
X47121Y32700D01*
X35300Y30100D02*
X44521D01*
X25544Y6613D02*
Y9100D01*
Y6613D02*
X26028Y6128D01*
X33128D01*
X34599Y7600D01*
X53518Y54300D02*
X54818Y55600D01*
X52437Y53219D02*
X53518Y54300D01*
X48681Y62981D02*
X51300Y65600D01*
X31524Y62981D02*
X48681D01*
X93000Y60400D02*
X93100Y60500D01*
X87000Y60400D02*
X93000D01*
X83000Y64400D02*
X87000Y60400D01*
X83000Y64400D02*
Y67500D01*
X69416Y81084D02*
X83000Y67500D01*
X56376Y81084D02*
X69416D01*
X47121Y32700D02*
X58949D01*
X35934Y40100D02*
X48994D01*
X34891Y39057D02*
X35934Y40100D01*
X31300Y39057D02*
X34891D01*
X48994Y40100D02*
X49013Y40081D01*
X34599Y7600D02*
X47400D01*
X175796Y11000D02*
Y17604D01*
X171200Y22200D02*
X175796Y17604D01*
X171200Y22200D02*
Y32100D01*
X175700Y36600D01*
X32975Y53219D02*
X52437D01*
X54818Y55600D02*
X58549D01*
X67953D01*
X58949Y32700D02*
X67253D01*
X58949Y10100D02*
X67653D01*
X31300Y62757D02*
X31524Y62981D01*
X51300Y65600D02*
X58549D01*
X50800Y20100D02*
X58949D01*
X31300Y14757D02*
X34043Y17500D01*
X48200D01*
X50800Y20100D01*
X31300Y51544D02*
X32975Y53219D01*
X31300Y28044D02*
X33244D01*
X35300Y30100D01*
X125876Y213202D02*
X126553Y212526D01*
X183476Y213202D02*
X183623Y213056D01*
X177900Y61553D02*
Y65900D01*
X177900Y65900D02*
X177900Y65900D01*
X58949Y15100D02*
X65000D01*
D41*
X40051Y10100D02*
X45900D01*
X55556Y12400D02*
X70400D01*
X52856Y15100D02*
X55556Y12400D01*
X70400D02*
X70628Y12172D01*
X62341Y40000D02*
X64179Y41838D01*
X52700Y40000D02*
X62341D01*
X50400Y37700D02*
X52700Y40000D01*
X40051Y37700D02*
X50400D01*
X47081Y34781D02*
X62123D01*
X45130Y32830D02*
X47081Y34781D01*
X40181Y32830D02*
X45130D01*
X20400Y3600D02*
Y3800D01*
X19140Y5060D02*
X20400Y3800D01*
X19140Y5060D02*
Y10776D01*
X73300Y13600D02*
Y17000D01*
Y9953D02*
Y13600D01*
X74800D01*
X12800Y4700D02*
X15600D01*
X11660Y5840D02*
X12800Y4700D01*
X11660Y5840D02*
Y10776D01*
X50900Y55638D02*
Y57770D01*
X50862Y55600D02*
X50900Y55638D01*
X53870Y59000D02*
X55039Y57831D01*
X52130Y59000D02*
X53870D01*
X50900Y57770D02*
X52130Y59000D01*
X39651Y55600D02*
X50862D01*
X48603Y60600D02*
X50684Y62681D01*
X39651Y60600D02*
X48603D01*
X99200Y56000D02*
X101031Y57831D01*
X126769D01*
X68319Y62681D02*
X71300Y59700D01*
X78500Y49647D02*
X105847D01*
X110400Y54200D01*
X126769Y57831D02*
X133876Y50724D01*
X103900Y55500D02*
X108730D01*
X125500Y56300D02*
X130726Y51074D01*
X108730Y55500D02*
X109530Y56300D01*
X125500D01*
X110400Y54200D02*
X121100D01*
X40051Y32700D02*
X40181Y32830D01*
X117570Y31700D02*
X121491D01*
X116970Y31100D02*
X117570Y31700D01*
X113300Y31100D02*
X116970D01*
X164500Y31800D02*
Y44547D01*
X161824Y29124D02*
X164500Y31800D01*
X155135Y29124D02*
X161824D01*
X76700Y30400D02*
X77247Y29853D01*
X146474Y31674D02*
Y40935D01*
X143600Y28800D02*
X146474Y31674D01*
X132000Y28800D02*
X143600D01*
X79800Y23500D02*
Y30770D01*
X72700Y32653D02*
X77917D01*
X79800Y30770D01*
X76700Y30400D02*
X77200D01*
X77247Y27100D02*
Y29853D01*
X73300Y49647D02*
X78500D01*
X130726Y40935D02*
Y51074D01*
X133876Y40935D02*
Y50724D01*
X149600Y40959D02*
Y49700D01*
X78800Y4047D02*
X82147D01*
X72000Y7100D02*
X82564D01*
X84247Y5417D01*
Y4934D02*
X86781Y2400D01*
X84247Y4934D02*
Y5417D01*
X82147Y4047D02*
Y4547D01*
X77900Y42900D02*
Y43470D01*
X70628Y8202D02*
X71156Y7675D01*
X70628Y8202D02*
Y12172D01*
X71156Y7675D02*
X71425D01*
X75445Y45925D02*
X77900Y43470D01*
X77167Y45900D02*
X79300D01*
X75941Y47125D02*
X77167Y45900D01*
X69025Y47125D02*
X75941D01*
X67800Y45900D02*
X69025Y47125D01*
X70425Y45925D02*
X75445D01*
X69521Y45021D02*
X70425Y45925D01*
X66000Y45900D02*
X67800D01*
X64179Y44080D02*
X66000Y45900D01*
X73300Y33253D02*
Y43647D01*
X177900Y51253D02*
Y55647D01*
X171338Y45047D02*
X177600D01*
X164500Y44547D02*
X170362D01*
X76894Y26747D02*
X77247Y27100D01*
X72700Y26747D02*
X76894D01*
X73300Y17000D02*
X79800Y23500D01*
X50024Y204724D02*
Y213202D01*
X46600Y201300D02*
X50024Y204724D01*
X47800Y58100D02*
X50300Y60600D01*
X50684Y62681D02*
X68319D01*
X50300Y60600D02*
X58549D01*
X69521Y38921D02*
Y45021D01*
X66900Y36300D02*
X69521Y38921D01*
X63642Y36300D02*
X66900D01*
X64179Y41838D02*
Y44080D01*
X62123Y34781D02*
X63642Y36300D01*
X103700Y55700D02*
X103900Y55500D01*
X118324Y35424D02*
X122065D01*
X116100Y33200D02*
X118324Y35424D01*
X130900Y8039D02*
Y15100D01*
X73300Y9953D02*
X73300Y9953D01*
X71425Y7675D02*
X72000Y7100D01*
X86781Y2400D02*
X132000D01*
X133876Y4276D01*
X67300Y26747D02*
X72700D01*
X72700Y26747D01*
X133876Y4276D02*
Y7865D01*
X40051Y15100D02*
X52856D01*
X73300Y49647D02*
X73300Y49647D01*
X68000Y49647D02*
X73300D01*
X73300Y4047D02*
X78800D01*
X73300Y4047D02*
X73300Y4047D01*
X67800Y4047D02*
X73300D01*
X124265Y7865D02*
X127576D01*
X123100Y6700D02*
X124265Y7865D01*
X123100Y4700D02*
Y6700D01*
X55039Y57831D02*
X83169D01*
X85000Y56000D01*
X99200D01*
X71300Y59700D02*
X84100D01*
X85700Y58100D01*
X97500D01*
X143200Y55800D02*
X143300Y55700D01*
Y41311D02*
Y55700D01*
X109000Y33000D02*
X111400D01*
X113300Y31100D01*
D42*
X90400Y225800D02*
X123500D01*
X34700Y225900D02*
X65300D01*
X67976Y223224D01*
Y213202D02*
Y223224D01*
X123500Y225800D02*
X125876Y223424D01*
Y213202D02*
Y223424D01*
X145700Y228400D02*
Y240958D01*
Y228400D02*
X148200Y225900D01*
X181400D01*
X183476Y223824D01*
Y213202D02*
Y223824D01*
X87700Y228500D02*
Y240958D01*
Y228500D02*
X90400Y225800D01*
D43*
X141674Y16526D02*
X155135D01*
X138524Y19676D02*
X141674Y16526D01*
X122065Y19676D02*
X138524D01*
D44*
X136610Y106481D02*
D03*
X136600Y143800D02*
D03*
X163000Y80000D02*
D03*
X110164Y132927D02*
D03*
X136600Y69100D02*
D03*
D45*
X80100Y138302D02*
D03*
D46*
X117800Y191000D02*
D03*
D47*
X118300Y165400D02*
D03*
Y173274D02*
D03*
D48*
X25000Y117300D02*
D03*
D49*
X54500Y245200D02*
D03*
X50500D02*
D03*
X182400Y199100D02*
D03*
X163400Y199700D02*
D03*
X45900Y10100D02*
D03*
X52800Y8900D02*
D03*
X65100Y14900D02*
D03*
X27531Y39057D02*
D03*
X27600Y42200D02*
D03*
X47900Y29400D02*
D03*
X5600Y10400D02*
D03*
X700Y10300D02*
D03*
X23200Y16400D02*
D03*
X20400Y3600D02*
D03*
X74800Y13600D02*
D03*
X15600Y4700D02*
D03*
X65700Y204300D02*
D03*
X53000Y56900D02*
D03*
X97500Y58100D02*
D03*
X93100Y60500D02*
D03*
X88800Y62800D02*
D03*
X95600Y46600D02*
D03*
X100000Y43100D02*
D03*
X100100Y46700D02*
D03*
X103700Y55700D02*
D03*
X110700Y49000D02*
D03*
X93800Y99000D02*
D03*
X103700Y101600D02*
D03*
X121100Y54200D02*
D03*
X52600Y135600D02*
D03*
X66700Y43000D02*
D03*
X51200Y29100D02*
D03*
X11500Y25300D02*
D03*
X95600Y43100D02*
D03*
X116100Y33200D02*
D03*
X137100Y31400D02*
D03*
X191100Y30900D02*
D03*
X190100Y20800D02*
D03*
X155300Y10500D02*
D03*
X132000Y28800D02*
D03*
X77200Y30400D02*
D03*
X149600Y49700D02*
D03*
X82147Y4547D02*
D03*
X170800Y237100D02*
D03*
X174800Y233100D02*
D03*
X166800D02*
D03*
X170800D02*
D03*
X166800Y237100D02*
D03*
Y241100D02*
D03*
Y245100D02*
D03*
X174800Y237100D02*
D03*
Y241100D02*
D03*
Y245100D02*
D03*
Y249100D02*
D03*
X77900Y42900D02*
D03*
X50700Y50600D02*
D03*
X68635Y7225D02*
D03*
X69732Y29925D02*
D03*
X79300Y45900D02*
D03*
X46600Y201300D02*
D03*
X55400Y210600D02*
D03*
X73500Y213900D02*
D03*
X55400Y214600D02*
D03*
X47800Y58100D02*
D03*
X166800Y249100D02*
D03*
X170800D02*
D03*
X130900Y15100D02*
D03*
X123100Y4700D02*
D03*
X2900Y241100D02*
D03*
X73500Y209900D02*
D03*
X55400Y218600D02*
D03*
X8500Y227200D02*
D03*
X4500D02*
D03*
X500D02*
D03*
X62500Y233200D02*
D03*
X58500Y237200D02*
D03*
Y241200D02*
D03*
Y245200D02*
D03*
Y249200D02*
D03*
X54500D02*
D03*
Y241200D02*
D03*
X73500Y205900D02*
D03*
X86500Y214000D02*
D03*
X143000Y213600D02*
D03*
X50500Y249200D02*
D03*
X62500D02*
D03*
X66500D02*
D03*
Y245200D02*
D03*
X62500D02*
D03*
X50500Y237200D02*
D03*
X54500D02*
D03*
X62500D02*
D03*
X66500D02*
D03*
Y241200D02*
D03*
X62500D02*
D03*
X50500D02*
D03*
X66500Y233200D02*
D03*
X58500D02*
D03*
X54500D02*
D03*
X50500D02*
D03*
X108600Y233500D02*
D03*
X112600D02*
D03*
X116600D02*
D03*
X120600D02*
D03*
X124600D02*
D03*
X108600Y241500D02*
D03*
X112600D02*
D03*
X116600D02*
D03*
X120600D02*
D03*
X124600D02*
D03*
Y237500D02*
D03*
X120600D02*
D03*
X116600D02*
D03*
X112600D02*
D03*
X108600D02*
D03*
Y245500D02*
D03*
X112600D02*
D03*
X116600D02*
D03*
X120600D02*
D03*
X124600D02*
D03*
Y249500D02*
D03*
X120600D02*
D03*
X116600D02*
D03*
X112600D02*
D03*
X108600D02*
D03*
X178800Y233100D02*
D03*
X182800D02*
D03*
X170800Y241100D02*
D03*
X178800D02*
D03*
X182800D02*
D03*
Y237100D02*
D03*
X178800D02*
D03*
X170800Y245100D02*
D03*
X178800D02*
D03*
X182800D02*
D03*
Y249100D02*
D03*
X178800D02*
D03*
X8500Y223200D02*
D03*
X4500D02*
D03*
X500D02*
D03*
X-3500D02*
D03*
X8500Y231300D02*
D03*
X4500D02*
D03*
X500D02*
D03*
X-3500D02*
D03*
Y227200D02*
D03*
X55400Y206600D02*
D03*
X115700Y77000D02*
D03*
X120100Y76900D02*
D03*
X115900Y73500D02*
D03*
X119900Y73600D02*
D03*
X143200Y55800D02*
D03*
X170700Y70200D02*
D03*
X167200D02*
D03*
X163700D02*
D03*
X160200D02*
D03*
X156700D02*
D03*
X170700Y66700D02*
D03*
X167200D02*
D03*
X163700D02*
D03*
X160200D02*
D03*
X156700D02*
D03*
X170700Y63200D02*
D03*
X167200D02*
D03*
X163700D02*
D03*
X160200D02*
D03*
X156700D02*
D03*
X163700Y59700D02*
D03*
X160200D02*
D03*
X156700D02*
D03*
X163700Y56200D02*
D03*
X160200D02*
D03*
X156200D02*
D03*
X160200Y52200D02*
D03*
X156200D02*
D03*
X160200Y48200D02*
D03*
X156200D02*
D03*
X177900Y65900D02*
D03*
X186400Y80100D02*
D03*
X189900D02*
D03*
X193400D02*
D03*
X196900D02*
D03*
X186400Y84900D02*
D03*
X189900D02*
D03*
X193400D02*
D03*
X196900D02*
D03*
X126700Y187400D02*
D03*
X131000D02*
D03*
X135300D02*
D03*
X126700Y191500D02*
D03*
X131000D02*
D03*
X135300D02*
D03*
X146100Y187600D02*
D03*
X150400D02*
D03*
X154700D02*
D03*
X146100Y191700D02*
D03*
X150400D02*
D03*
X154700D02*
D03*
X166900Y187600D02*
D03*
X171200D02*
D03*
X175500D02*
D03*
X166900Y191700D02*
D03*
X171200D02*
D03*
X175500D02*
D03*
X186900Y187700D02*
D03*
X191200D02*
D03*
X195500D02*
D03*
X186900Y191800D02*
D03*
X191200D02*
D03*
X195500D02*
D03*
X12400Y93100D02*
D03*
X16900D02*
D03*
X21400D02*
D03*
X25900D02*
D03*
X30400D02*
D03*
X12400Y97600D02*
D03*
X16900D02*
D03*
X21400D02*
D03*
X25900D02*
D03*
X30400D02*
D03*
X12400Y102100D02*
D03*
X16900D02*
D03*
X21400D02*
D03*
X25900D02*
D03*
X30400D02*
D03*
X21100Y35100D02*
D03*
X21500Y30300D02*
D03*
X26900Y18100D02*
D03*
Y14600D02*
D03*
X17600Y36200D02*
D03*
X129500Y26200D02*
D03*
X132400Y23200D02*
D03*
X193800Y12300D02*
D03*
X196600Y14900D02*
D03*
X198100Y18800D02*
D03*
X185100Y63300D02*
D03*
Y59800D02*
D03*
Y56300D02*
D03*
X189100D02*
D03*
Y59800D02*
D03*
Y63300D02*
D03*
X193100Y56300D02*
D03*
Y59800D02*
D03*
Y63300D02*
D03*
X197100Y56300D02*
D03*
Y59800D02*
D03*
Y63300D02*
D03*
X141610Y156481D02*
D03*
X136610D02*
D03*
X131610D02*
D03*
X156610Y151481D02*
D03*
X146610D02*
D03*
X141610D02*
D03*
X131610D02*
D03*
X126610D02*
D03*
X121610D02*
D03*
X116610D02*
D03*
X166610Y146481D02*
D03*
X156610D02*
D03*
X146610D02*
D03*
X126610D02*
D03*
X121610D02*
D03*
X111610D02*
D03*
X171610Y141481D02*
D03*
X166610D02*
D03*
X156610D02*
D03*
X146610D02*
D03*
X126610D02*
D03*
X116610D02*
D03*
X111610D02*
D03*
X106610D02*
D03*
X171610Y136481D02*
D03*
X166610D02*
D03*
X156610D02*
D03*
X146610D02*
D03*
X141610D02*
D03*
X131610D02*
D03*
X101610D02*
D03*
X176610Y131481D02*
D03*
X171610D02*
D03*
X166610D02*
D03*
X151610D02*
D03*
X141610D02*
D03*
X136610D02*
D03*
X131610D02*
D03*
X101610D02*
D03*
X176610Y126481D02*
D03*
X171610D02*
D03*
X166610D02*
D03*
X161610D02*
D03*
X116610D02*
D03*
X101610D02*
D03*
X171610Y121481D02*
D03*
X166610D02*
D03*
X161610D02*
D03*
X156610D02*
D03*
X111610D02*
D03*
X106610D02*
D03*
X101610D02*
D03*
X181610Y116481D02*
D03*
X166610D02*
D03*
X161610D02*
D03*
X156610D02*
D03*
X151610D02*
D03*
X181610Y111481D02*
D03*
X176610D02*
D03*
X161610D02*
D03*
X156610D02*
D03*
X186610Y106481D02*
D03*
X181610D02*
D03*
X176610D02*
D03*
X171610D02*
D03*
X156610D02*
D03*
X111610D02*
D03*
X106610D02*
D03*
X86610D02*
D03*
X186610Y101481D02*
D03*
X181610D02*
D03*
X176610D02*
D03*
X171610D02*
D03*
X166610D02*
D03*
X111610D02*
D03*
X96610D02*
D03*
X86610D02*
D03*
X181610Y96481D02*
D03*
X176610D02*
D03*
X171610D02*
D03*
X166610D02*
D03*
X161610D02*
D03*
X111610D02*
D03*
X106610D02*
D03*
X96610D02*
D03*
X181610Y91481D02*
D03*
X176610D02*
D03*
X171610D02*
D03*
X166610D02*
D03*
X161610D02*
D03*
X156610D02*
D03*
X121610D02*
D03*
X111610D02*
D03*
X106610D02*
D03*
X96610D02*
D03*
X91610D02*
D03*
X176610Y86481D02*
D03*
X171610D02*
D03*
X156610D02*
D03*
X151610D02*
D03*
X96610D02*
D03*
X176610Y81481D02*
D03*
X171610D02*
D03*
X151610D02*
D03*
X146610D02*
D03*
X141610D02*
D03*
X136610D02*
D03*
X131610D02*
D03*
X126610D02*
D03*
X121610D02*
D03*
X111610D02*
D03*
X176610Y76481D02*
D03*
X171610D02*
D03*
X151610D02*
D03*
X146610D02*
D03*
X141610D02*
D03*
X131610D02*
D03*
X126610D02*
D03*
X111610D02*
D03*
X106610D02*
D03*
X151610Y71481D02*
D03*
X146610D02*
D03*
X126610D02*
D03*
X111610D02*
D03*
X106610D02*
D03*
X101610D02*
D03*
X151610Y66481D02*
D03*
X146610D02*
D03*
X126610D02*
D03*
X121610D02*
D03*
X111610D02*
D03*
X106610D02*
D03*
X151610Y61481D02*
D03*
X146610D02*
D03*
X141610D02*
D03*
X131610D02*
D03*
X126610D02*
D03*
X121610D02*
D03*
X83600Y11200D02*
D03*
X87000Y26600D02*
D03*
X83200Y21600D02*
D03*
X83100Y18100D02*
D03*
X90800Y26600D02*
D03*
X81500Y36900D02*
D03*
Y33000D02*
D03*
X82300Y54300D02*
D03*
X85700Y52200D02*
D03*
X101000Y52600D02*
D03*
X109000Y33000D02*
D03*
M02*
