%FSLAX25Y25*%
%MOIN*%
G70*
G01*
G75*
G04 Layer_Physical_Order=4*
G04 Layer_Color=16711680*
%ADD10R,0.04331X0.06693*%
%ADD11R,0.05315X0.11024*%
%ADD12R,0.03543X0.03150*%
%ADD13O,0.08661X0.02362*%
%ADD14O,0.06496X0.02165*%
%ADD15O,0.02165X0.06496*%
%ADD16R,0.21260X0.21850*%
%ADD17R,0.12008X0.03937*%
%ADD18R,0.21850X0.21260*%
%ADD19R,0.03937X0.12008*%
%ADD20R,0.02362X0.04331*%
%ADD21R,0.03937X0.21654*%
%ADD22R,0.05906X0.13386*%
%ADD23R,0.21654X0.03937*%
%ADD24R,0.13386X0.05906*%
%ADD25R,0.06693X0.04331*%
%ADD26R,0.09646X0.10039*%
%ADD27R,0.03347X0.04134*%
%ADD28R,0.01378X0.03937*%
%ADD29C,0.06000*%
%ADD30R,0.03543X0.02756*%
%ADD31R,0.02756X0.03543*%
%ADD32R,0.21850X0.25590*%
%ADD33R,0.04921X0.12008*%
%ADD34R,0.09449X0.06693*%
%ADD35R,0.03150X0.03543*%
%ADD36C,0.02500*%
%ADD37C,0.02000*%
%ADD38C,0.00800*%
%ADD39C,0.01000*%
%ADD40C,0.01200*%
%ADD41C,0.00600*%
%ADD42C,0.04000*%
%ADD43C,0.01500*%
%ADD44C,0.11811*%
%ADD45O,0.11811X0.05906*%
%ADD46O,0.05906X0.11811*%
%ADD47C,0.05906*%
%ADD48C,0.02000*%
%ADD49C,0.02400*%
%ADD50C,0.33896*%
%ADD51C,0.06337*%
%ADD52C,0.04369*%
%ADD53C,0.14998*%
%ADD54C,0.03600*%
%ADD55R,0.02795X0.05000*%
G36*
X86907Y61923D02*
Y40389D01*
X86541D01*
Y40346D01*
X86048Y40248D01*
X85849Y40546D01*
X81029Y45366D01*
X81135Y45900D01*
X80996Y46602D01*
X80598Y47198D01*
X80002Y47596D01*
X79300Y47735D01*
X78598Y47596D01*
X78002Y47198D01*
X77604Y46602D01*
X77465Y45900D01*
X77604Y45198D01*
X77662Y45112D01*
X77530Y44793D01*
X77059Y44625D01*
X76720Y44807D01*
Y52389D01*
X86445Y62115D01*
X86907Y61923D01*
D02*
G37*
G36*
X182221Y251575D02*
X185097Y251003D01*
X187874Y250060D01*
X190505Y248763D01*
X192943Y247134D01*
X195148Y245200D01*
X197082Y242995D01*
X198711Y240557D01*
X200008Y237927D01*
X200951Y235150D01*
X201523Y232273D01*
X201709Y229428D01*
X201693Y229347D01*
Y24503D01*
X201709Y24422D01*
X201523Y21577D01*
X200951Y18700D01*
X200008Y15924D01*
X198711Y13293D01*
X197082Y10855D01*
X195148Y8650D01*
X192943Y6716D01*
X190505Y5087D01*
X187874Y3790D01*
X185097Y2847D01*
X182221Y2275D01*
X179376Y2089D01*
X179295Y2105D01*
X122456D01*
X122264Y2567D01*
X122652Y2954D01*
X123100Y2865D01*
X123802Y3004D01*
X124398Y3402D01*
X124796Y3998D01*
X124935Y4700D01*
X124796Y5402D01*
X124398Y5998D01*
X123802Y6396D01*
X123100Y6535D01*
X122398Y6396D01*
X121802Y5998D01*
X121404Y5402D01*
X121265Y4700D01*
X121354Y4252D01*
X120401Y3299D01*
X84008D01*
X83773Y3740D01*
X83843Y3845D01*
X83982Y4547D01*
X83893Y4996D01*
X88880Y9982D01*
X132900D01*
X133251Y10052D01*
X133549Y10251D01*
X135149Y11851D01*
X135348Y12149D01*
X135418Y12500D01*
Y14047D01*
X135880Y14238D01*
X136239Y13879D01*
X136569Y13658D01*
X136959Y13580D01*
X174800D01*
X175190Y13658D01*
X175521Y13879D01*
X175521Y13879D01*
X175521Y13879D01*
X190772Y29130D01*
X191100Y29065D01*
X191802Y29204D01*
X192398Y29602D01*
X192796Y30198D01*
X192935Y30900D01*
X192796Y31602D01*
X192398Y32198D01*
X191802Y32596D01*
X191100Y32735D01*
X190398Y32596D01*
X189802Y32198D01*
X189404Y31602D01*
X189265Y30900D01*
X189330Y30572D01*
X174378Y15620D01*
X137382D01*
X137049Y15952D01*
Y22773D01*
X137821Y23545D01*
X138042Y23875D01*
X138120Y24266D01*
X138120Y24266D01*
X138120Y24266D01*
Y24266D01*
Y29916D01*
X138398Y30102D01*
X138796Y30698D01*
X138935Y31400D01*
X138796Y32102D01*
X138398Y32698D01*
X137802Y33096D01*
X137100Y33235D01*
X136398Y33096D01*
X135859Y32735D01*
X135418Y32971D01*
Y41020D01*
X140680Y46282D01*
X147100D01*
X147451Y46352D01*
X147749Y46551D01*
X147749Y46551D01*
X147749Y46551D01*
X149152Y47954D01*
X149600Y47865D01*
X150302Y48004D01*
X150898Y48402D01*
X151296Y48998D01*
X151435Y49700D01*
X151296Y50402D01*
X150898Y50998D01*
X150302Y51396D01*
X149600Y51535D01*
X148898Y51396D01*
X148302Y50998D01*
X147904Y50402D01*
X147765Y49700D01*
X147854Y49252D01*
X146720Y48118D01*
X140300D01*
X139949Y48048D01*
X139651Y47849D01*
X133851Y42049D01*
X133652Y41751D01*
X133582Y41400D01*
Y30438D01*
X133141Y30202D01*
X132702Y30496D01*
X132000Y30635D01*
X131298Y30496D01*
X130702Y30098D01*
X130448Y29718D01*
X91780D01*
X91177Y30320D01*
X91369Y30782D01*
X107700D01*
X108051Y30852D01*
X108349Y31051D01*
X108552Y31254D01*
X109000Y31165D01*
X109702Y31304D01*
X110298Y31702D01*
X110696Y32298D01*
X110810Y32871D01*
X111288Y33016D01*
X111753Y32551D01*
X112050Y32352D01*
X112402Y32282D01*
X114548D01*
X114802Y31902D01*
X115398Y31504D01*
X116100Y31365D01*
X116802Y31504D01*
X117398Y31902D01*
X117796Y32498D01*
X117935Y33200D01*
X117815Y33803D01*
X118133Y34189D01*
X120481D01*
Y40389D01*
X120369D01*
Y52116D01*
X120756Y52433D01*
X121100Y52365D01*
X121802Y52504D01*
X122398Y52902D01*
X122796Y53498D01*
X122935Y54200D01*
X122876Y54496D01*
X123194Y54882D01*
X141648D01*
X141902Y54502D01*
X142498Y54104D01*
X143200Y53965D01*
X143902Y54104D01*
X144498Y54502D01*
X144896Y55098D01*
X145035Y55800D01*
X144896Y56502D01*
X144498Y57098D01*
X143902Y57496D01*
X143200Y57635D01*
X142498Y57496D01*
X141902Y57098D01*
X141648Y56718D01*
X122700D01*
X122349Y56648D01*
X122051Y56449D01*
X121548Y55946D01*
X121100Y56035D01*
X120398Y55896D01*
X119802Y55498D01*
X119665Y55292D01*
X119186Y55437D01*
Y71151D01*
X122200D01*
X122659Y71341D01*
X122849Y71800D01*
Y78800D01*
X122659Y79259D01*
X122200Y79449D01*
X113900D01*
X113441Y79259D01*
X113251Y78800D01*
Y71800D01*
X113441Y71341D01*
X113900Y71151D01*
X115414D01*
Y53687D01*
X115557Y52965D01*
X115966Y52353D01*
X116597Y51722D01*
Y40389D01*
X116485D01*
Y35352D01*
X116100Y35035D01*
X115398Y34896D01*
X114802Y34498D01*
X114548Y34118D01*
X112782D01*
X111151Y35749D01*
X110853Y35948D01*
X110502Y36018D01*
X108130D01*
X107779Y35948D01*
X107481Y35749D01*
X105998Y34266D01*
X105536Y34457D01*
Y40389D01*
X104558D01*
Y41416D01*
X110372Y47230D01*
X110700Y47165D01*
X111402Y47304D01*
X111998Y47702D01*
X112396Y48298D01*
X112535Y49000D01*
X112396Y49702D01*
X111998Y50298D01*
X111402Y50696D01*
X110700Y50835D01*
X109998Y50696D01*
X109402Y50298D01*
X109004Y49702D01*
X108865Y49000D01*
X108930Y48672D01*
X103811Y43553D01*
X103349Y43745D01*
Y48500D01*
X103159Y48959D01*
X102700Y49149D01*
X96824D01*
Y50500D01*
X96730Y50968D01*
X96465Y51365D01*
X94323Y53507D01*
Y59153D01*
X94398Y59202D01*
X94796Y59798D01*
X94935Y60500D01*
X94796Y61202D01*
X94398Y61798D01*
X93802Y62196D01*
X93100Y62335D01*
X92398Y62196D01*
X91802Y61798D01*
X91404Y61202D01*
X91265Y60500D01*
X91404Y59798D01*
X91802Y59202D01*
X91877Y59153D01*
Y53000D01*
X91877Y53000D01*
X91877D01*
X91970Y52532D01*
X92235Y52135D01*
X94376Y49993D01*
Y47947D01*
X94302Y47898D01*
X93904Y47302D01*
X93863Y47094D01*
X93836Y47091D01*
X93643Y46988D01*
X93441Y46904D01*
X93428Y46873D01*
X93398Y46857D01*
X93334Y46647D01*
X93251Y46445D01*
Y40389D01*
X93441Y39930D01*
X93900Y39740D01*
X94887D01*
Y34189D01*
X94744Y34118D01*
X90536D01*
Y34189D01*
X90536D01*
Y40389D01*
X90170D01*
Y61611D01*
X90496Y62098D01*
X90635Y62800D01*
X90496Y63502D01*
X90098Y64098D01*
X89502Y64496D01*
X89459Y64504D01*
X89313Y64983D01*
X110011Y85680D01*
X145000D01*
X145390Y85758D01*
X145721Y85979D01*
X183021Y123279D01*
X183242Y123610D01*
X183320Y124000D01*
X183320Y124000D01*
X183320Y124000D01*
Y124000D01*
Y197550D01*
X183698Y197802D01*
X184096Y198398D01*
X184235Y199100D01*
X184096Y199802D01*
X183698Y200398D01*
X183102Y200796D01*
X182400Y200935D01*
X181698Y200796D01*
X181102Y200398D01*
X180704Y199802D01*
X180565Y199100D01*
X180704Y198398D01*
X181102Y197802D01*
X181280Y197683D01*
Y124422D01*
X144578Y87720D01*
X109589D01*
X109199Y87642D01*
X108868Y87421D01*
X74979Y53532D01*
X74758Y53201D01*
X74680Y52811D01*
Y41649D01*
X74570Y41485D01*
X74558Y41466D01*
X74480Y41076D01*
X74540Y40775D01*
X74223Y40389D01*
X71956D01*
Y56925D01*
X104421Y89390D01*
X104642Y89721D01*
X104720Y90111D01*
X104720Y90111D01*
X104720Y90111D01*
Y90111D01*
Y100116D01*
X104998Y100302D01*
X105396Y100898D01*
X105535Y101600D01*
X105396Y102302D01*
X104998Y102898D01*
X104402Y103296D01*
X103700Y103435D01*
X102998Y103296D01*
X102402Y102898D01*
X102004Y102302D01*
X101865Y101600D01*
X102004Y100898D01*
X102402Y100302D01*
X102680Y100116D01*
Y90534D01*
X70215Y58069D01*
X69994Y57738D01*
X69917Y57348D01*
Y40389D01*
X67270D01*
X66992Y40805D01*
X66992Y40804D01*
X67181Y41260D01*
X67402Y41304D01*
X67998Y41702D01*
X68396Y42298D01*
X68535Y43000D01*
X68396Y43702D01*
X67998Y44298D01*
X67402Y44696D01*
X66700Y44835D01*
X66422Y45064D01*
Y70235D01*
X93425Y97239D01*
X93800Y97165D01*
X94502Y97304D01*
X95098Y97702D01*
X95496Y98298D01*
X95635Y99000D01*
X95496Y99702D01*
X95098Y100298D01*
X94502Y100696D01*
X93800Y100835D01*
X93098Y100696D01*
X92502Y100298D01*
X92104Y99702D01*
X91965Y99000D01*
X91973Y98959D01*
X65284Y72270D01*
X64822Y72461D01*
Y73735D01*
X100565Y109478D01*
X112300D01*
X112300Y109478D01*
X112729Y109564D01*
X113093Y109807D01*
X127465Y124178D01*
X153000D01*
X153000Y124178D01*
X153429Y124264D01*
X153793Y124507D01*
X164193Y134907D01*
X164193Y134907D01*
X164436Y135271D01*
X164436Y135271D01*
X164436Y135271D01*
X164522Y135700D01*
X164522Y135700D01*
Y198285D01*
X164698Y198402D01*
X165096Y198998D01*
X165235Y199700D01*
X165096Y200402D01*
X164698Y200998D01*
X164102Y201396D01*
X163400Y201535D01*
X162698Y201396D01*
X162102Y200998D01*
X161704Y200402D01*
X161565Y199700D01*
X161704Y198998D01*
X162102Y198402D01*
X162278Y198285D01*
Y136165D01*
X152535Y126422D01*
X127000D01*
X127000Y126422D01*
X126571Y126336D01*
X126207Y126093D01*
X111835Y111722D01*
X100100D01*
X99671Y111636D01*
X99307Y111393D01*
X99307Y111393D01*
X62907Y74993D01*
X62664Y74629D01*
X62578Y74200D01*
X62578Y74200D01*
Y42581D01*
X62578Y42581D01*
X62664Y42152D01*
X62907Y41788D01*
X64915Y39780D01*
Y33761D01*
X61676Y30522D01*
X61214Y30713D01*
Y85128D01*
X90565Y114478D01*
X112700D01*
X112700Y114478D01*
X113129Y114564D01*
X113493Y114807D01*
X126265Y127578D01*
X143200D01*
X143200Y127578D01*
X143629Y127664D01*
X143993Y127907D01*
X150693Y134607D01*
X150693Y134607D01*
X150936Y134971D01*
X150936Y134971D01*
X150936Y134971D01*
X151022Y135400D01*
X151022Y135400D01*
Y157700D01*
X150936Y158129D01*
X150693Y158493D01*
X150693Y158493D01*
X144122Y165065D01*
Y186460D01*
X144600Y186605D01*
X144802Y186302D01*
X145398Y185904D01*
X146100Y185765D01*
X146802Y185904D01*
X147398Y186302D01*
X147796Y186898D01*
X147935Y187600D01*
X147796Y188302D01*
X147398Y188898D01*
X146802Y189296D01*
X146277Y189400D01*
Y189900D01*
X146802Y190004D01*
X147398Y190402D01*
X147796Y190998D01*
X147935Y191700D01*
X147796Y192402D01*
X147398Y192998D01*
X146802Y193396D01*
X146100Y193535D01*
X145398Y193396D01*
X144802Y192998D01*
X144600Y192695D01*
X144122Y192840D01*
Y212185D01*
X144298Y212302D01*
X144696Y212898D01*
X144835Y213600D01*
X144696Y214302D01*
X144298Y214898D01*
X143702Y215296D01*
X143000Y215435D01*
X142298Y215296D01*
X141702Y214898D01*
X141304Y214302D01*
X141165Y213600D01*
X141304Y212898D01*
X141702Y212302D01*
X141878Y212185D01*
Y164600D01*
X141878Y164600D01*
X141964Y164171D01*
X142207Y163807D01*
X148778Y157235D01*
Y135865D01*
X142735Y129822D01*
X125800D01*
X125800Y129822D01*
X125371Y129736D01*
X125007Y129493D01*
X125007Y129493D01*
X112235Y116722D01*
X90100D01*
X90100Y116722D01*
X89671Y116636D01*
X89307Y116393D01*
X89307Y116393D01*
X59480Y86566D01*
X59018Y86757D01*
Y88920D01*
X95666Y125569D01*
X95865Y125866D01*
X95877Y125925D01*
X95935Y126218D01*
Y135740D01*
X117449Y157254D01*
X117648Y157552D01*
X117659Y157610D01*
X117718Y157903D01*
Y161514D01*
X118094Y161844D01*
X118300Y161817D01*
X119227Y161939D01*
X120092Y162297D01*
X120834Y162866D01*
X121403Y163608D01*
X121761Y164473D01*
X121883Y165400D01*
X121761Y166327D01*
X121403Y167192D01*
X120834Y167934D01*
X120092Y168503D01*
X119227Y168861D01*
X118300Y168983D01*
X117373Y168861D01*
X116508Y168503D01*
X115766Y167934D01*
X115491Y167575D01*
X115018Y167736D01*
Y169920D01*
X115807Y170709D01*
X116508Y170171D01*
X117373Y169813D01*
X118300Y169691D01*
X119227Y169813D01*
X120092Y170171D01*
X120834Y170740D01*
X121403Y171482D01*
X121761Y172347D01*
X121883Y173274D01*
X121761Y174202D01*
X121403Y175066D01*
X120834Y175808D01*
X120092Y176377D01*
X119227Y176735D01*
X118300Y176857D01*
X117373Y176735D01*
X116508Y176377D01*
X115766Y175808D01*
X115197Y175066D01*
X114839Y174202D01*
X114717Y173274D01*
X114839Y172347D01*
X114842Y172339D01*
X114183Y171681D01*
X113722Y171873D01*
Y187985D01*
X114220Y188018D01*
X114339Y187120D01*
X114697Y186256D01*
X115266Y185513D01*
X116008Y184944D01*
X116873Y184586D01*
X117800Y184464D01*
X118727Y184586D01*
X119592Y184944D01*
X120334Y185513D01*
X120903Y186256D01*
X121261Y187120D01*
X121383Y188047D01*
Y193953D01*
X121261Y194880D01*
X120903Y195745D01*
X120334Y196487D01*
X119592Y197056D01*
X118727Y197414D01*
X117800Y197536D01*
X116873Y197414D01*
X116008Y197056D01*
X115266Y196487D01*
X114697Y195745D01*
X114339Y194880D01*
X114220Y193982D01*
X113722Y194015D01*
Y196600D01*
X113722Y196600D01*
X113636Y197029D01*
X113393Y197393D01*
X113393Y197393D01*
X101893Y208893D01*
X101529Y209136D01*
X101100Y209222D01*
X101100Y209222D01*
X90565D01*
X88022Y211765D01*
Y213037D01*
X88196Y213298D01*
X88335Y214000D01*
X88196Y214702D01*
X87798Y215298D01*
X87202Y215696D01*
X86500Y215835D01*
X85798Y215696D01*
X85202Y215298D01*
X84804Y214702D01*
X84665Y214000D01*
X84804Y213298D01*
X85202Y212702D01*
X85778Y212317D01*
Y211300D01*
X85778Y211300D01*
X85864Y210871D01*
X86107Y210507D01*
X89307Y207307D01*
X89307Y207307D01*
X89671Y207064D01*
X90100Y206979D01*
X100635D01*
X111478Y196135D01*
Y194144D01*
X110981Y194095D01*
X110942Y194290D01*
X110721Y194621D01*
X100921Y204421D01*
X100590Y204642D01*
X100200Y204720D01*
X67452D01*
X67396Y205002D01*
X66998Y205598D01*
X66402Y205996D01*
X65700Y206135D01*
X64998Y205996D01*
X64402Y205598D01*
X64004Y205002D01*
X63865Y204300D01*
X64004Y203598D01*
X64028Y203562D01*
X63792Y203122D01*
X52265D01*
X47722Y207665D01*
Y217300D01*
X47722Y217300D01*
X47636Y217729D01*
X47393Y218093D01*
X47393Y218093D01*
X27593Y237893D01*
X27229Y238136D01*
X26800Y238222D01*
X26800Y238222D01*
X7365D01*
X4694Y240892D01*
X4735Y241100D01*
X4596Y241802D01*
X4198Y242398D01*
X3602Y242796D01*
X2900Y242935D01*
X2198Y242796D01*
X1602Y242398D01*
X1204Y241802D01*
X1065Y241100D01*
X1204Y240398D01*
X1602Y239802D01*
X2198Y239404D01*
X2900Y239265D01*
X3108Y239306D01*
X6107Y236307D01*
X6107Y236307D01*
X6471Y236064D01*
X6900Y235979D01*
X26335D01*
X45478Y216835D01*
Y207200D01*
X45478Y207200D01*
X45564Y206771D01*
X45807Y206407D01*
X50232Y201981D01*
X50041Y201520D01*
X48392D01*
X48296Y202002D01*
X47898Y202598D01*
X47302Y202996D01*
X46600Y203135D01*
X45898Y202996D01*
X45302Y202598D01*
X44904Y202002D01*
X44765Y201300D01*
X44904Y200598D01*
X45302Y200002D01*
X45769Y199690D01*
X45624Y199212D01*
X44149D01*
Y210193D01*
X44056Y210662D01*
X43790Y211058D01*
X43393Y211324D01*
X42925Y211417D01*
X-9788D01*
Y229347D01*
X-9804Y229428D01*
X-9618Y232273D01*
X-9046Y235150D01*
X-8103Y237927D01*
X-6806Y240557D01*
X-5177Y242995D01*
X-3243Y245200D01*
X-1038Y247134D01*
X1400Y248763D01*
X4030Y250060D01*
X6808Y251003D01*
X9684Y251575D01*
X12529Y251762D01*
X12610Y251745D01*
X108111D01*
X108160Y251248D01*
X107898Y251196D01*
X107302Y250798D01*
X106904Y250202D01*
X106765Y249500D01*
X106904Y248798D01*
X107302Y248202D01*
X107898Y247804D01*
X108171Y247750D01*
Y247250D01*
X107898Y247196D01*
X107302Y246798D01*
X106904Y246202D01*
X106765Y245500D01*
X106904Y244798D01*
X107302Y244202D01*
X107898Y243804D01*
X108171Y243750D01*
Y243250D01*
X107898Y243196D01*
X107302Y242798D01*
X106904Y242202D01*
X106765Y241500D01*
X106904Y240798D01*
X107302Y240202D01*
X107898Y239804D01*
X108171Y239750D01*
Y239250D01*
X107898Y239196D01*
X107302Y238798D01*
X106904Y238202D01*
X106765Y237500D01*
X106904Y236798D01*
X107302Y236202D01*
X107898Y235804D01*
X108171Y235750D01*
Y235250D01*
X107898Y235196D01*
X107302Y234798D01*
X106904Y234202D01*
X106765Y233500D01*
X106904Y232798D01*
X107302Y232202D01*
X107898Y231804D01*
X108600Y231665D01*
X109302Y231804D01*
X109898Y232202D01*
X110296Y232798D01*
X110350Y233071D01*
X110850D01*
X110904Y232798D01*
X111302Y232202D01*
X111898Y231804D01*
X112600Y231665D01*
X113302Y231804D01*
X113898Y232202D01*
X114296Y232798D01*
X114350Y233071D01*
X114850D01*
X114904Y232798D01*
X115302Y232202D01*
X115898Y231804D01*
X116600Y231665D01*
X117302Y231804D01*
X117898Y232202D01*
X118296Y232798D01*
X118350Y233071D01*
X118850D01*
X118904Y232798D01*
X119302Y232202D01*
X119898Y231804D01*
X120600Y231665D01*
X121302Y231804D01*
X121898Y232202D01*
X122296Y232798D01*
X122350Y233071D01*
X122850D01*
X122904Y232798D01*
X123302Y232202D01*
X123898Y231804D01*
X124600Y231665D01*
X125302Y231804D01*
X125898Y232202D01*
X126296Y232798D01*
X126435Y233500D01*
X126296Y234202D01*
X125898Y234798D01*
X125302Y235196D01*
X125029Y235250D01*
Y235750D01*
X125302Y235804D01*
X125898Y236202D01*
X126296Y236798D01*
X126435Y237500D01*
X126296Y238202D01*
X125898Y238798D01*
X125302Y239196D01*
X125029Y239250D01*
Y239750D01*
X125302Y239804D01*
X125898Y240202D01*
X126296Y240798D01*
X126435Y241500D01*
X126296Y242202D01*
X125898Y242798D01*
X125302Y243196D01*
X125029Y243250D01*
Y243750D01*
X125302Y243804D01*
X125898Y244202D01*
X126296Y244798D01*
X126435Y245500D01*
X126296Y246202D01*
X125898Y246798D01*
X125302Y247196D01*
X125029Y247250D01*
Y247750D01*
X125302Y247804D01*
X125898Y248202D01*
X126296Y248798D01*
X126435Y249500D01*
X126296Y250202D01*
X125898Y250798D01*
X125302Y251196D01*
X125040Y251248D01*
X125089Y251745D01*
X179295D01*
X179376Y251762D01*
X182221Y251575D01*
D02*
G37*
G36*
X87138Y144644D02*
X86312Y143819D01*
X86069Y143455D01*
X85984Y143026D01*
X85984Y143026D01*
Y137088D01*
X49907Y101011D01*
X49664Y100647D01*
X49578Y100218D01*
X49578Y100218D01*
Y59540D01*
X49221Y59431D01*
X48820Y59729D01*
Y118878D01*
X75048Y145106D01*
X86947D01*
X87138Y144644D01*
D02*
G37*
G36*
X92011Y152353D02*
X86803Y147145D01*
X74626D01*
X74235Y147068D01*
X73905Y146847D01*
X47079Y120021D01*
X46858Y119690D01*
X46780Y119300D01*
Y59584D01*
X46502Y59398D01*
X46104Y58802D01*
X45965Y58100D01*
X46104Y57398D01*
X46502Y56802D01*
X47098Y56404D01*
X47800Y56265D01*
X48502Y56404D01*
X49098Y56802D01*
X49100Y56806D01*
X49578Y56660D01*
Y52015D01*
X49402Y51898D01*
X49004Y51302D01*
X48865Y50600D01*
X49004Y49898D01*
X49402Y49302D01*
X49998Y48904D01*
X50700Y48765D01*
X51402Y48904D01*
X51998Y49302D01*
X52396Y49898D01*
X52535Y50600D01*
X52396Y51302D01*
X51998Y51898D01*
X51822Y52015D01*
Y54992D01*
X52263Y55228D01*
X52298Y55204D01*
X53000Y55065D01*
X53702Y55204D01*
X53838Y55295D01*
X54278Y55059D01*
Y44082D01*
X53816Y43891D01*
X49253Y48454D01*
X48724Y48807D01*
X48100Y48931D01*
X46576D01*
X44031Y51476D01*
Y122524D01*
X53754Y132246D01*
X54107Y132776D01*
X54231Y133400D01*
Y134802D01*
X54296Y134898D01*
X54435Y135600D01*
X54296Y136302D01*
X53898Y136898D01*
X53302Y137296D01*
X52600Y137435D01*
X51898Y137296D01*
X51302Y136898D01*
X50904Y136302D01*
X50765Y135600D01*
X50904Y134898D01*
X50969Y134802D01*
Y134076D01*
X41247Y124354D01*
X40893Y123824D01*
X40769Y123200D01*
Y50800D01*
X40769Y50800D01*
X40769D01*
X40893Y50176D01*
X41247Y49646D01*
X44747Y46147D01*
X44746D01*
X44747Y46146D01*
X44747Y46146D01*
Y46146D01*
X45276Y45793D01*
X45900Y45669D01*
X47424D01*
X51963Y41130D01*
Y40389D01*
X51597D01*
Y34189D01*
X54050D01*
X54241Y33727D01*
X51408Y30894D01*
X51200Y30935D01*
X50498Y30796D01*
X49902Y30398D01*
X49504Y29802D01*
X49365Y29100D01*
X49504Y28398D01*
X49531Y28359D01*
X49295Y27918D01*
X47080D01*
X44418Y30580D01*
Y34189D01*
X45592D01*
Y40389D01*
X41597D01*
Y34189D01*
X42582D01*
Y30200D01*
X42621Y30004D01*
X42304Y29618D01*
X41680D01*
X39512Y31786D01*
Y34189D01*
X40592D01*
Y40389D01*
X36597D01*
Y34189D01*
X37677D01*
Y31405D01*
X37677Y31405D01*
X37677D01*
X37747Y31054D01*
X37946Y30757D01*
X40651Y28051D01*
X40949Y27852D01*
X41300Y27782D01*
X42923D01*
X43924Y26781D01*
X43732Y26320D01*
X12984D01*
X12798Y26598D01*
X12202Y26996D01*
X11500Y27135D01*
X10798Y26996D01*
X10202Y26598D01*
X9804Y26002D01*
X9665Y25300D01*
X9804Y24598D01*
X10202Y24002D01*
X10798Y23605D01*
X11500Y23465D01*
X12202Y23605D01*
X12798Y24002D01*
X12984Y24280D01*
X44442D01*
X44879Y23843D01*
X44705Y23423D01*
X44678Y23381D01*
X41597D01*
Y17181D01*
X45592D01*
Y23381D01*
X45592Y23381D01*
X45592D01*
X45604Y23440D01*
X45665Y23480D01*
X51597D01*
Y23381D01*
X51597D01*
Y17181D01*
X55592D01*
Y23381D01*
X54614D01*
Y23505D01*
X54536Y23896D01*
X54315Y24227D01*
X54110Y24432D01*
X54297Y24882D01*
X54648Y24952D01*
X54946Y25151D01*
X57565Y27770D01*
X58027Y27579D01*
Y15213D01*
X53425Y10611D01*
X52800Y10735D01*
X52098Y10596D01*
X51502Y10198D01*
X51104Y9602D01*
X50965Y8900D01*
X51104Y8198D01*
X51502Y7602D01*
X52098Y7204D01*
X52800Y7065D01*
X53502Y7204D01*
X54098Y7602D01*
X54496Y8198D01*
X54573Y8587D01*
X59942Y13955D01*
X59942Y13956D01*
X60185Y14319D01*
X60232Y14558D01*
X60711Y14703D01*
X60907Y14507D01*
X60907Y14507D01*
X61271Y14264D01*
X61271Y14264D01*
X61271Y14264D01*
D01*
X61271Y14264D01*
X61271Y14264D01*
X61299Y14258D01*
X61432Y14170D01*
X61900Y14076D01*
X63485D01*
X63802Y13602D01*
X64398Y13204D01*
X65100Y13065D01*
X65802Y13204D01*
X66398Y13602D01*
X66796Y14198D01*
X66935Y14900D01*
X66796Y15602D01*
X66398Y16198D01*
X65802Y16596D01*
X65100Y16735D01*
X64398Y16596D01*
X64290Y16523D01*
X62163D01*
Y27837D01*
X66829Y32504D01*
X66830Y32504D01*
X67073Y32868D01*
X67158Y33297D01*
Y34189D01*
X68680D01*
X68915Y33748D01*
X68790Y33561D01*
X68713Y33171D01*
Y31409D01*
X68435Y31223D01*
X68037Y30628D01*
X67897Y29925D01*
X68037Y29223D01*
X68435Y28627D01*
X69030Y28230D01*
X69732Y28090D01*
X69732Y28090D01*
X69732Y28090D01*
X69994Y28027D01*
X69917Y27636D01*
Y23381D01*
X66541D01*
Y17181D01*
X68282D01*
Y11180D01*
X62801Y5699D01*
X51299D01*
X50218Y6780D01*
Y11367D01*
X50159Y11660D01*
X50148Y11718D01*
X49949Y12016D01*
X47716Y14249D01*
X47418Y14448D01*
X47067Y14518D01*
X44733D01*
X44440Y14459D01*
X44382Y14448D01*
X44084Y14249D01*
X41851Y12016D01*
X41652Y11718D01*
X41582Y11367D01*
Y7080D01*
X41220Y6718D01*
X16700D01*
X16407Y6659D01*
X16349Y6648D01*
X16051Y6449D01*
X16048Y6446D01*
X15600Y6535D01*
X14898Y6396D01*
X14302Y5998D01*
X13904Y5402D01*
X13765Y4700D01*
X13904Y3998D01*
X14302Y3402D01*
X14898Y3004D01*
X15600Y2865D01*
X16302Y3004D01*
X16898Y3402D01*
X17296Y3998D01*
X17435Y4700D01*
X17585Y4882D01*
X18562D01*
X18797Y4441D01*
X18704Y4302D01*
X18565Y3600D01*
X18704Y2898D01*
X18940Y2546D01*
X18704Y2105D01*
X12610D01*
X12529Y2089D01*
X9684Y2275D01*
X6808Y2847D01*
X4030Y3790D01*
X1400Y5087D01*
X-1038Y6716D01*
X-3243Y8650D01*
X-5177Y10855D01*
X-6806Y13293D01*
X-8103Y15924D01*
X-9046Y18700D01*
X-9618Y21577D01*
X-9804Y24422D01*
X-9788Y24503D01*
Y130229D01*
X42925D01*
X43393Y130323D01*
X43790Y130588D01*
X44056Y130985D01*
X44149Y131453D01*
Y149222D01*
X44503Y149575D01*
X79501Y149521D01*
X79503Y149512D01*
Y149505D01*
X82287Y149662D01*
X85035Y150129D01*
X87714Y150900D01*
X90290Y151967D01*
X91710Y152752D01*
X92011Y152353D01*
D02*
G37*
G36*
X124400Y251375D02*
X124394Y251311D01*
X124457Y251102D01*
X124500Y250887D01*
X124528Y250868D01*
X124538Y250836D01*
X124731Y250732D01*
X124913Y250611D01*
X125049Y250584D01*
X125429Y250329D01*
X125684Y249949D01*
X125773Y249500D01*
X125684Y249051D01*
X125429Y248671D01*
X125049Y248416D01*
X124902Y248387D01*
X124744Y248282D01*
X124569Y248209D01*
X124544Y248148D01*
X124489Y248111D01*
X124452Y247925D01*
X124379Y247750D01*
Y247250D01*
X124452Y247075D01*
X124489Y246889D01*
X124544Y246852D01*
X124569Y246791D01*
X124744Y246718D01*
X124902Y246613D01*
X125049Y246584D01*
X125429Y246329D01*
X125684Y245949D01*
X125773Y245500D01*
X125684Y245051D01*
X125429Y244671D01*
X125049Y244416D01*
X124902Y244387D01*
X124744Y244282D01*
X124569Y244209D01*
X124544Y244148D01*
X124489Y244111D01*
X124452Y243925D01*
X124379Y243750D01*
Y243250D01*
X124452Y243075D01*
X124489Y242889D01*
X124544Y242852D01*
X124569Y242791D01*
X124744Y242718D01*
X124902Y242613D01*
X125049Y242584D01*
X125429Y242330D01*
X125684Y241949D01*
X125773Y241500D01*
X125684Y241051D01*
X125429Y240670D01*
X125049Y240416D01*
X124902Y240387D01*
X124744Y240282D01*
X124569Y240209D01*
X124544Y240148D01*
X124489Y240111D01*
X124452Y239925D01*
X124379Y239750D01*
Y239250D01*
X124452Y239075D01*
X124489Y238889D01*
X124544Y238852D01*
X124569Y238791D01*
X124744Y238718D01*
X124902Y238613D01*
X125049Y238584D01*
X125429Y238330D01*
X125684Y237949D01*
X125773Y237500D01*
X125684Y237051D01*
X125429Y236670D01*
X125049Y236416D01*
X124902Y236387D01*
X124744Y236282D01*
X124569Y236209D01*
X124544Y236148D01*
X124489Y236111D01*
X124452Y235925D01*
X124379Y235750D01*
Y235250D01*
X124452Y235075D01*
X124489Y234889D01*
X124544Y234852D01*
X124569Y234791D01*
X124744Y234718D01*
X124902Y234613D01*
X125049Y234584D01*
X125429Y234330D01*
X125684Y233949D01*
X125773Y233500D01*
X125684Y233051D01*
X125429Y232670D01*
X125049Y232416D01*
X124600Y232327D01*
X124151Y232416D01*
X123770Y232670D01*
X123516Y233051D01*
X123487Y233198D01*
X123382Y233356D01*
X123309Y233531D01*
X123248Y233556D01*
X123211Y233611D01*
X123025Y233648D01*
X122850Y233721D01*
X122350D01*
X122175Y233648D01*
X121989Y233611D01*
X121952Y233556D01*
X121891Y233531D01*
X121818Y233356D01*
X121713Y233198D01*
X121684Y233051D01*
X121430Y232670D01*
X121049Y232416D01*
X120600Y232327D01*
X120151Y232416D01*
X119771Y232670D01*
X119516Y233051D01*
X119487Y233198D01*
X119382Y233356D01*
X119309Y233531D01*
X119248Y233556D01*
X119211Y233611D01*
X119025Y233648D01*
X118850Y233721D01*
X118350D01*
X118175Y233648D01*
X117989Y233611D01*
X117952Y233556D01*
X117891Y233531D01*
X117818Y233356D01*
X117713Y233198D01*
X117684Y233051D01*
X117429Y232670D01*
X117049Y232416D01*
X116600Y232327D01*
X116151Y232416D01*
X115770Y232670D01*
X115516Y233051D01*
X115487Y233198D01*
X115382Y233356D01*
X115309Y233531D01*
X115248Y233556D01*
X115211Y233611D01*
X115025Y233648D01*
X114850Y233721D01*
X114350D01*
X114175Y233648D01*
X113989Y233611D01*
X113952Y233556D01*
X113891Y233531D01*
X113818Y233356D01*
X113713Y233198D01*
X113684Y233051D01*
X113429Y232670D01*
X113049Y232416D01*
X112600Y232327D01*
X112151Y232416D01*
X111770Y232670D01*
X111516Y233051D01*
X111487Y233198D01*
X111382Y233356D01*
X111309Y233531D01*
X111248Y233556D01*
X111211Y233611D01*
X111025Y233648D01*
X110850Y233721D01*
X110350D01*
X110175Y233648D01*
X109989Y233611D01*
X109952Y233556D01*
X109891Y233531D01*
X109818Y233356D01*
X109713Y233198D01*
X109684Y233051D01*
X109430Y232670D01*
X109049Y232416D01*
X108600Y232327D01*
X108151Y232416D01*
X107771Y232670D01*
X107516Y233051D01*
X107427Y233500D01*
X107516Y233949D01*
X107771Y234330D01*
X108151Y234584D01*
X108298Y234613D01*
X108456Y234718D01*
X108631Y234791D01*
X108656Y234852D01*
X108711Y234889D01*
X108748Y235075D01*
X108821Y235250D01*
Y235750D01*
X108748Y235925D01*
X108711Y236111D01*
X108656Y236148D01*
X108631Y236209D01*
X108456Y236282D01*
X108298Y236387D01*
X108151Y236416D01*
X107771Y236670D01*
X107516Y237051D01*
X107427Y237500D01*
X107516Y237949D01*
X107771Y238330D01*
X108151Y238584D01*
X108298Y238613D01*
X108456Y238718D01*
X108631Y238791D01*
X108656Y238852D01*
X108711Y238889D01*
X108748Y239075D01*
X108821Y239250D01*
Y239750D01*
X108748Y239925D01*
X108711Y240111D01*
X108656Y240148D01*
X108631Y240209D01*
X108456Y240282D01*
X108298Y240387D01*
X108151Y240416D01*
X107771Y240670D01*
X107516Y241051D01*
X107427Y241500D01*
X107516Y241949D01*
X107771Y242330D01*
X108151Y242584D01*
X108298Y242613D01*
X108456Y242718D01*
X108631Y242791D01*
X108656Y242852D01*
X108711Y242889D01*
X108748Y243075D01*
X108821Y243250D01*
Y243750D01*
X108748Y243925D01*
X108711Y244111D01*
X108656Y244148D01*
X108631Y244209D01*
X108456Y244282D01*
X108298Y244387D01*
X108151Y244416D01*
X107771Y244671D01*
X107516Y245051D01*
X107427Y245500D01*
X107516Y245949D01*
X107771Y246329D01*
X108151Y246584D01*
X108298Y246613D01*
X108456Y246718D01*
X108631Y246791D01*
X108656Y246852D01*
X108711Y246889D01*
X108748Y247075D01*
X108821Y247250D01*
Y247750D01*
X108748Y247925D01*
X108711Y248111D01*
X108656Y248148D01*
X108631Y248209D01*
X108456Y248282D01*
X108298Y248387D01*
X108151Y248416D01*
X107771Y248671D01*
X107516Y249051D01*
X107427Y249500D01*
X107516Y249949D01*
X107771Y250329D01*
X108151Y250584D01*
X108287Y250611D01*
X108469Y250732D01*
X108662Y250836D01*
X108672Y250868D01*
X108700Y250887D01*
X108743Y251102D01*
X108806Y251311D01*
X108800Y251375D01*
X109136Y251745D01*
X124064D01*
X124400Y251375D01*
D02*
G37*
G36*
X102700Y42383D02*
X102597Y42229D01*
X102519Y41839D01*
Y40389D01*
X101541D01*
Y34189D01*
D01*
Y34189D01*
X101470Y34118D01*
X95536D01*
Y34189D01*
X95536D01*
Y40389D01*
X93900D01*
Y46445D01*
X94398Y46494D01*
X94470Y46132D01*
X94735Y45735D01*
X95132Y45470D01*
X95600Y45377D01*
X96068Y45470D01*
X96465Y45735D01*
X96730Y46132D01*
X96824Y46600D01*
Y48500D01*
X102700D01*
Y42383D01*
D02*
G37*
G36*
X75431Y30066D02*
X75504Y29698D01*
X75902Y29102D01*
X76498Y28704D01*
X77200Y28565D01*
X77902Y28704D01*
X78498Y29102D01*
X78752Y29482D01*
X89420D01*
X90751Y28151D01*
X91049Y27952D01*
X91400Y27882D01*
X130448D01*
X130702Y27502D01*
X131298Y27104D01*
X132000Y26965D01*
X132702Y27104D01*
X133141Y27398D01*
X133582Y27162D01*
Y12880D01*
X132520Y11818D01*
X88500D01*
X88207Y11759D01*
X88149Y11748D01*
X87851Y11549D01*
X82596Y6293D01*
X82147Y6382D01*
X81445Y6243D01*
X80849Y5845D01*
X80452Y5249D01*
X80312Y4547D01*
X80452Y3845D01*
X80522Y3740D01*
X80286Y3299D01*
X69750D01*
X69559Y3761D01*
X70131Y4333D01*
X70195Y4376D01*
X73349Y7530D01*
X73548Y7828D01*
X73618Y8179D01*
X73618Y8179D01*
X73618Y8179D01*
Y8179D01*
Y11695D01*
X74059Y11931D01*
X74098Y11904D01*
X74800Y11765D01*
X75502Y11904D01*
X76098Y12302D01*
X76352Y12682D01*
X131000D01*
X131351Y12752D01*
X131649Y12951D01*
X131848Y13249D01*
X131918Y13600D01*
X131918Y13600D01*
D01*
D01*
D01*
X132198Y13802D01*
Y13802D01*
X132198Y13802D01*
X132198D01*
X132596Y14398D01*
X132735Y15100D01*
X132596Y15802D01*
X132198Y16398D01*
X131602Y16796D01*
X130900Y16935D01*
X130198Y16796D01*
X129602Y16398D01*
X129204Y15802D01*
X129065Y15100D01*
X129104Y14904D01*
X128787Y14518D01*
X76352D01*
X76098Y14898D01*
X75502Y15296D01*
X74800Y15435D01*
X74456Y15717D01*
Y17181D01*
X75536D01*
Y23381D01*
X71956D01*
Y27214D01*
X74953Y30211D01*
X75431Y30066D01*
D02*
G37*
G36*
X122200Y71800D02*
X113900D01*
Y78800D01*
X122200D01*
Y71800D01*
D02*
G37*
G36*
X82782Y39320D02*
Y33000D01*
X82782Y33000D01*
X82782D01*
X82852Y32649D01*
X83051Y32351D01*
X83623Y31780D01*
X83431Y31318D01*
X78752D01*
X78498Y31698D01*
X77902Y32096D01*
X77200Y32235D01*
X77200Y32235D01*
D01*
X76956Y32636D01*
Y40640D01*
X76925Y40796D01*
X77022Y40942D01*
X77270Y41190D01*
X77900Y41065D01*
X78602Y41204D01*
X79198Y41602D01*
X79452Y41982D01*
X80120D01*
X82782Y39320D01*
D02*
G37*
%LPC*%
G36*
X97500Y59935D02*
X96798Y59796D01*
X96202Y59398D01*
X95804Y58802D01*
X95665Y58100D01*
X95804Y57398D01*
X96202Y56802D01*
X96798Y56404D01*
X97500Y56265D01*
X97948Y56354D01*
X99251Y55051D01*
X99549Y54852D01*
X99607Y54841D01*
X99900Y54782D01*
X102148D01*
X102402Y54402D01*
X102998Y54004D01*
X103700Y53865D01*
X104402Y54004D01*
X104998Y54402D01*
X105396Y54998D01*
X105535Y55700D01*
X105396Y56402D01*
X104998Y56998D01*
X104402Y57396D01*
X103700Y57535D01*
X102998Y57396D01*
X102402Y56998D01*
X102148Y56618D01*
X100280D01*
X99246Y57652D01*
X99335Y58100D01*
X99196Y58802D01*
X98798Y59398D01*
X98202Y59796D01*
X97500Y59935D01*
D02*
G37*
G36*
X196900Y81935D02*
X196198Y81796D01*
X195602Y81398D01*
X195400Y81095D01*
X194900D01*
X194698Y81398D01*
X194102Y81796D01*
X193400Y81935D01*
X192698Y81796D01*
X192102Y81398D01*
X191900Y81095D01*
X191400D01*
X191198Y81398D01*
X190602Y81796D01*
X189900Y81935D01*
X189198Y81796D01*
X188602Y81398D01*
X188400Y81095D01*
X187900D01*
X187698Y81398D01*
X187102Y81796D01*
X186400Y81935D01*
X185698Y81796D01*
X185102Y81398D01*
X184704Y80802D01*
X184565Y80100D01*
X184704Y79398D01*
X185102Y78802D01*
X185698Y78404D01*
X186400Y78265D01*
X187102Y78404D01*
X187698Y78802D01*
X187900Y79105D01*
X188400D01*
X188602Y78802D01*
X189198Y78404D01*
X189900Y78265D01*
X190602Y78404D01*
X191198Y78802D01*
X191400Y79105D01*
X191900D01*
X192102Y78802D01*
X192698Y78404D01*
X193400Y78265D01*
X194102Y78404D01*
X194698Y78802D01*
X194900Y79105D01*
X195400D01*
X195602Y78802D01*
X196198Y78404D01*
X196900Y78265D01*
X197602Y78404D01*
X198198Y78802D01*
X198596Y79398D01*
X198735Y80100D01*
X198596Y80802D01*
X198198Y81398D01*
X197602Y81796D01*
X196900Y81935D01*
D02*
G37*
G36*
Y86735D02*
X196198Y86596D01*
X195602Y86198D01*
X195400Y85895D01*
X194900D01*
X194698Y86198D01*
X194102Y86596D01*
X193400Y86735D01*
X192698Y86596D01*
X192102Y86198D01*
X191900Y85895D01*
X191400D01*
X191198Y86198D01*
X190602Y86596D01*
X189900Y86735D01*
X189198Y86596D01*
X188602Y86198D01*
X188400Y85895D01*
X187900D01*
X187698Y86198D01*
X187102Y86596D01*
X186400Y86735D01*
X185698Y86596D01*
X185102Y86198D01*
X184704Y85602D01*
X184565Y84900D01*
X184704Y84198D01*
X185102Y83602D01*
X185698Y83204D01*
X186400Y83065D01*
X187102Y83204D01*
X187698Y83602D01*
X187900Y83905D01*
X188400D01*
X188602Y83602D01*
X189198Y83204D01*
X189900Y83065D01*
X190602Y83204D01*
X191198Y83602D01*
X191400Y83905D01*
X191900D01*
X192102Y83602D01*
X192698Y83204D01*
X193400Y83065D01*
X194102Y83204D01*
X194698Y83602D01*
X194900Y83905D01*
X195400D01*
X195602Y83602D01*
X196198Y83204D01*
X196900Y83065D01*
X197602Y83204D01*
X198198Y83602D01*
X198596Y84198D01*
X198735Y84900D01*
X198596Y85602D01*
X198198Y86198D01*
X197602Y86596D01*
X196900Y86735D01*
D02*
G37*
G36*
X136600Y76033D02*
X135248Y75899D01*
X133947Y75505D01*
X132748Y74864D01*
X131698Y74002D01*
X130836Y72952D01*
X130195Y71753D01*
X129801Y70452D01*
X129667Y69100D01*
X129801Y67747D01*
X130195Y66447D01*
X130836Y65249D01*
X131698Y64198D01*
X132748Y63336D01*
X133947Y62695D01*
X135248Y62301D01*
X136600Y62167D01*
X137952Y62301D01*
X139253Y62695D01*
X140452Y63336D01*
X141502Y64198D01*
X142364Y65249D01*
X143005Y66447D01*
X143399Y67747D01*
X143533Y69100D01*
X143399Y70452D01*
X143005Y71753D01*
X142364Y72952D01*
X141502Y74002D01*
X140452Y74864D01*
X139253Y75505D01*
X137952Y75899D01*
X136600Y76033D01*
D02*
G37*
G36*
X177900Y67735D02*
X177198Y67596D01*
X176602Y67198D01*
X176204Y66602D01*
X176065Y65900D01*
X176204Y65198D01*
X176602Y64602D01*
X177198Y64204D01*
X177900Y64065D01*
X178602Y64204D01*
X179198Y64602D01*
X179596Y65198D01*
X179735Y65900D01*
X179596Y66602D01*
X179198Y67198D01*
X178602Y67596D01*
X177900Y67735D01*
D02*
G37*
G36*
X90536Y23381D02*
X86541D01*
Y17181D01*
X90536D01*
Y23381D01*
D02*
G37*
G36*
X100536D02*
X96541D01*
Y17181D01*
X100536D01*
Y23381D01*
D02*
G37*
G36*
X163000Y86933D02*
X161647Y86799D01*
X160347Y86405D01*
X159149Y85764D01*
X158098Y84902D01*
X157236Y83851D01*
X156595Y82653D01*
X156201Y81353D01*
X156067Y80000D01*
X156201Y78648D01*
X156595Y77347D01*
X157236Y76148D01*
X158098Y75098D01*
X159149Y74236D01*
X160347Y73595D01*
X161175Y73344D01*
X161101Y72849D01*
X154900D01*
X154441Y72659D01*
X154251Y72200D01*
Y46669D01*
X148620Y41038D01*
X141430D01*
X140971Y40848D01*
X140780Y40389D01*
Y17181D01*
X140971Y16722D01*
X141430Y16532D01*
X155425D01*
X155884Y16722D01*
X156074Y17181D01*
Y31256D01*
X174459Y49641D01*
X174649Y50100D01*
Y72200D01*
X174459Y72659D01*
X174000Y72849D01*
X164899D01*
X164825Y73344D01*
X165653Y73595D01*
X166851Y74236D01*
X167902Y75098D01*
X168764Y76148D01*
X169405Y77347D01*
X169799Y78648D01*
X169933Y80000D01*
X169799Y81353D01*
X169405Y82653D01*
X168764Y83851D01*
X167902Y84902D01*
X166851Y85764D01*
X165653Y86405D01*
X164353Y86799D01*
X163000Y86933D01*
D02*
G37*
G36*
X40592Y23381D02*
X36597D01*
Y17181D01*
X40592D01*
Y23381D01*
D02*
G37*
G36*
X190100Y22635D02*
X189398Y22496D01*
X188802Y22098D01*
X188404Y21502D01*
X188265Y20800D01*
X188330Y20472D01*
X179378Y11520D01*
X156784D01*
X156598Y11798D01*
X156002Y12196D01*
X155300Y12335D01*
X154598Y12196D01*
X154002Y11798D01*
X153604Y11202D01*
X153465Y10500D01*
X153604Y9798D01*
X154002Y9202D01*
X154598Y8804D01*
X155300Y8665D01*
X156002Y8804D01*
X156598Y9202D01*
X156784Y9480D01*
X179800D01*
X180190Y9558D01*
X180521Y9779D01*
X180521Y9779D01*
X180521Y9779D01*
X189772Y19030D01*
X190100Y18965D01*
X190802Y19104D01*
X191398Y19502D01*
X191796Y20098D01*
X191935Y20800D01*
X191796Y21502D01*
X191398Y22098D01*
X190802Y22496D01*
X190100Y22635D01*
D02*
G37*
G36*
X17600Y38035D02*
X16898Y37896D01*
X16302Y37498D01*
X15904Y36902D01*
X15765Y36200D01*
X15904Y35498D01*
X16302Y34902D01*
X16898Y34504D01*
X17600Y34365D01*
X18302Y34504D01*
X18898Y34902D01*
X19296Y35498D01*
X19435Y36200D01*
X19296Y36902D01*
X18898Y37498D01*
X18302Y37896D01*
X17600Y38035D01*
D02*
G37*
G36*
X105536Y23381D02*
X101541D01*
Y17181D01*
X105536D01*
Y23381D01*
D02*
G37*
G36*
X120481D02*
X116485D01*
Y17181D01*
X120481D01*
Y23381D01*
D02*
G37*
G36*
X175500Y193535D02*
X174798Y193396D01*
X174202Y192998D01*
X173804Y192402D01*
X173665Y191700D01*
X173804Y190998D01*
X174202Y190402D01*
X174798Y190004D01*
X175323Y189900D01*
Y189400D01*
X174798Y189296D01*
X174202Y188898D01*
X173804Y188302D01*
X173665Y187600D01*
X173804Y186898D01*
X174202Y186302D01*
X174798Y185904D01*
X175500Y185765D01*
X176202Y185904D01*
X176798Y186302D01*
X177196Y186898D01*
X177335Y187600D01*
X177196Y188302D01*
X176798Y188898D01*
X176202Y189296D01*
X175677Y189400D01*
Y189900D01*
X176202Y190004D01*
X176798Y190402D01*
X177196Y190998D01*
X177335Y191700D01*
X177196Y192402D01*
X176798Y192998D01*
X176202Y193396D01*
X175500Y193535D01*
D02*
G37*
G36*
X186900Y193635D02*
X186198Y193496D01*
X185602Y193098D01*
X185204Y192502D01*
X185065Y191800D01*
X185204Y191098D01*
X185602Y190502D01*
X186198Y190104D01*
X186723Y190000D01*
Y189500D01*
X186198Y189396D01*
X185602Y188998D01*
X185204Y188402D01*
X185065Y187700D01*
X185204Y186998D01*
X185602Y186402D01*
X186198Y186004D01*
X186900Y185865D01*
X187602Y186004D01*
X188198Y186402D01*
X188596Y186998D01*
X188735Y187700D01*
X188596Y188402D01*
X188198Y188998D01*
X187602Y189396D01*
X187077Y189500D01*
Y190000D01*
X187602Y190104D01*
X188198Y190502D01*
X188596Y191098D01*
X188735Y191800D01*
X188596Y192502D01*
X188198Y193098D01*
X187602Y193496D01*
X186900Y193635D01*
D02*
G37*
G36*
X166900Y193535D02*
X166198Y193396D01*
X165602Y192998D01*
X165204Y192402D01*
X165065Y191700D01*
X165204Y190998D01*
X165602Y190402D01*
X166198Y190004D01*
X166723Y189900D01*
Y189400D01*
X166198Y189296D01*
X165602Y188898D01*
X165204Y188302D01*
X165065Y187600D01*
X165204Y186898D01*
X165602Y186302D01*
X166198Y185904D01*
X166900Y185765D01*
X167602Y185904D01*
X168198Y186302D01*
X168596Y186898D01*
X168735Y187600D01*
X168596Y188302D01*
X168198Y188898D01*
X167602Y189296D01*
X167077Y189400D01*
Y189900D01*
X167602Y190004D01*
X168198Y190402D01*
X168596Y190998D01*
X168735Y191700D01*
X168596Y192402D01*
X168198Y192998D01*
X167602Y193396D01*
X166900Y193535D01*
D02*
G37*
G36*
X171200D02*
X170498Y193396D01*
X169902Y192998D01*
X169504Y192402D01*
X169365Y191700D01*
X169504Y190998D01*
X169902Y190402D01*
X170498Y190004D01*
X171023Y189900D01*
Y189400D01*
X170498Y189296D01*
X169902Y188898D01*
X169504Y188302D01*
X169365Y187600D01*
X169504Y186898D01*
X169902Y186302D01*
X170498Y185904D01*
X171200Y185765D01*
X171902Y185904D01*
X172498Y186302D01*
X172896Y186898D01*
X173035Y187600D01*
X172896Y188302D01*
X172498Y188898D01*
X171902Y189296D01*
X171377Y189400D01*
Y189900D01*
X171902Y190004D01*
X172498Y190402D01*
X172896Y190998D01*
X173035Y191700D01*
X172896Y192402D01*
X172498Y192998D01*
X171902Y193396D01*
X171200Y193535D01*
D02*
G37*
G36*
X182800Y250935D02*
X182098Y250796D01*
X181502Y250398D01*
X181104Y249802D01*
X181050Y249529D01*
X180550D01*
X180496Y249802D01*
X180098Y250398D01*
X179502Y250796D01*
X178800Y250935D01*
X178098Y250796D01*
X177502Y250398D01*
X177104Y249802D01*
X177050Y249529D01*
X176550D01*
X176496Y249802D01*
X176098Y250398D01*
X175502Y250796D01*
X174800Y250935D01*
X174098Y250796D01*
X173502Y250398D01*
X173104Y249802D01*
X173050Y249529D01*
X172550D01*
X172496Y249802D01*
X172098Y250398D01*
X171502Y250796D01*
X170800Y250935D01*
X170098Y250796D01*
X169502Y250398D01*
X169104Y249802D01*
X169050Y249529D01*
X168550D01*
X168496Y249802D01*
X168098Y250398D01*
X167502Y250796D01*
X166800Y250935D01*
X166098Y250796D01*
X165502Y250398D01*
X165104Y249802D01*
X164965Y249100D01*
X165104Y248398D01*
X165502Y247802D01*
X166098Y247404D01*
X166371Y247350D01*
Y246850D01*
X166098Y246796D01*
X165502Y246398D01*
X165104Y245802D01*
X164965Y245100D01*
X165104Y244398D01*
X165502Y243802D01*
X166098Y243404D01*
X166371Y243350D01*
Y242850D01*
X166098Y242796D01*
X165502Y242398D01*
X165104Y241802D01*
X164965Y241100D01*
X165104Y240398D01*
X165502Y239802D01*
X166098Y239404D01*
X166371Y239350D01*
Y238850D01*
X166098Y238796D01*
X165502Y238398D01*
X165104Y237802D01*
X164965Y237100D01*
X165104Y236398D01*
X165502Y235802D01*
X166098Y235404D01*
X166371Y235350D01*
Y234850D01*
X166098Y234796D01*
X165502Y234398D01*
X165104Y233802D01*
X164965Y233100D01*
X165104Y232398D01*
X165502Y231802D01*
X166098Y231404D01*
X166800Y231265D01*
X167502Y231404D01*
X168098Y231802D01*
X168496Y232398D01*
X168550Y232671D01*
X169050D01*
X169104Y232398D01*
X169502Y231802D01*
X170098Y231404D01*
X170800Y231265D01*
X171502Y231404D01*
X172098Y231802D01*
X172496Y232398D01*
X172550Y232671D01*
X173050D01*
X173104Y232398D01*
X173502Y231802D01*
X174098Y231404D01*
X174800Y231265D01*
X175502Y231404D01*
X176098Y231802D01*
X176496Y232398D01*
X176550Y232671D01*
X177050D01*
X177104Y232398D01*
X177502Y231802D01*
X178098Y231404D01*
X178800Y231265D01*
X179502Y231404D01*
X180098Y231802D01*
X180496Y232398D01*
X180550Y232671D01*
X181050D01*
X181104Y232398D01*
X181502Y231802D01*
X182098Y231404D01*
X182800Y231265D01*
X183502Y231404D01*
X184098Y231802D01*
X184496Y232398D01*
X184635Y233100D01*
X184496Y233802D01*
X184098Y234398D01*
X183502Y234796D01*
X183229Y234850D01*
Y235350D01*
X183502Y235404D01*
X184098Y235802D01*
X184496Y236398D01*
X184635Y237100D01*
X184496Y237802D01*
X184098Y238398D01*
X183502Y238796D01*
X183229Y238850D01*
Y239350D01*
X183502Y239404D01*
X184098Y239802D01*
X184496Y240398D01*
X184635Y241100D01*
X184496Y241802D01*
X184098Y242398D01*
X183502Y242796D01*
X183229Y242850D01*
Y243350D01*
X183502Y243404D01*
X184098Y243802D01*
X184496Y244398D01*
X184635Y245100D01*
X184496Y245802D01*
X184098Y246398D01*
X183502Y246796D01*
X183229Y246850D01*
Y247350D01*
X183502Y247404D01*
X184098Y247802D01*
X184496Y248398D01*
X184635Y249100D01*
X184496Y249802D01*
X184098Y250398D01*
X183502Y250796D01*
X182800Y250935D01*
D02*
G37*
G36*
X66500Y251035D02*
X65798Y250896D01*
X65202Y250498D01*
X64804Y249902D01*
X64750Y249629D01*
X64250D01*
X64196Y249902D01*
X63798Y250498D01*
X63202Y250896D01*
X62500Y251035D01*
X61798Y250896D01*
X61202Y250498D01*
X60804Y249902D01*
X60750Y249629D01*
X60250D01*
X60196Y249902D01*
X59798Y250498D01*
X59202Y250896D01*
X58500Y251035D01*
X57798Y250896D01*
X57202Y250498D01*
X56804Y249902D01*
X56750Y249629D01*
X56250D01*
X56196Y249902D01*
X55798Y250498D01*
X55202Y250896D01*
X54500Y251035D01*
X53798Y250896D01*
X53202Y250498D01*
X52804Y249902D01*
X52750Y249629D01*
X52250D01*
X52196Y249902D01*
X51798Y250498D01*
X51202Y250896D01*
X50500Y251035D01*
X49798Y250896D01*
X49202Y250498D01*
X48804Y249902D01*
X48665Y249200D01*
X48804Y248498D01*
X49202Y247902D01*
X49798Y247504D01*
X50071Y247450D01*
Y246950D01*
X49798Y246896D01*
X49202Y246498D01*
X48804Y245902D01*
X48665Y245200D01*
X48804Y244498D01*
X49202Y243902D01*
X49798Y243504D01*
X50071Y243450D01*
Y242950D01*
X49798Y242896D01*
X49202Y242498D01*
X48804Y241902D01*
X48665Y241200D01*
X48804Y240498D01*
X49202Y239902D01*
X49798Y239504D01*
X50071Y239450D01*
Y238950D01*
X49798Y238896D01*
X49202Y238498D01*
X48804Y237902D01*
X48665Y237200D01*
X48804Y236498D01*
X49202Y235902D01*
X49798Y235504D01*
X50071Y235450D01*
Y234950D01*
X49798Y234896D01*
X49202Y234498D01*
X48804Y233902D01*
X48665Y233200D01*
X48804Y232498D01*
X49202Y231902D01*
X49798Y231504D01*
X50500Y231365D01*
X51202Y231504D01*
X51798Y231902D01*
X52196Y232498D01*
X52250Y232771D01*
X52750D01*
X52804Y232498D01*
X53202Y231902D01*
X53798Y231504D01*
X54500Y231365D01*
X55202Y231504D01*
X55798Y231902D01*
X56196Y232498D01*
X56250Y232771D01*
X56750D01*
X56804Y232498D01*
X57202Y231902D01*
X57798Y231504D01*
X58500Y231365D01*
X59202Y231504D01*
X59798Y231902D01*
X60196Y232498D01*
X60250Y232771D01*
X60750D01*
X60804Y232498D01*
X61202Y231902D01*
X61798Y231504D01*
X62500Y231365D01*
X63202Y231504D01*
X63798Y231902D01*
X64196Y232498D01*
X64250Y232771D01*
X64750D01*
X64804Y232498D01*
X65202Y231902D01*
X65798Y231504D01*
X66500Y231365D01*
X67202Y231504D01*
X67798Y231902D01*
X68196Y232498D01*
X68335Y233200D01*
X68196Y233902D01*
X67798Y234498D01*
X67202Y234896D01*
X66929Y234950D01*
Y235450D01*
X67202Y235504D01*
X67798Y235902D01*
X68196Y236498D01*
X68335Y237200D01*
X68196Y237902D01*
X67798Y238498D01*
X67202Y238896D01*
X66929Y238950D01*
Y239450D01*
X67202Y239504D01*
X67798Y239902D01*
X68196Y240498D01*
X68335Y241200D01*
X68196Y241902D01*
X67798Y242498D01*
X67202Y242896D01*
X66929Y242950D01*
Y243450D01*
X67202Y243504D01*
X67798Y243902D01*
X68196Y244498D01*
X68335Y245200D01*
X68196Y245902D01*
X67798Y246498D01*
X67202Y246896D01*
X66929Y246950D01*
Y247450D01*
X67202Y247504D01*
X67798Y247902D01*
X68196Y248498D01*
X68335Y249200D01*
X68196Y249902D01*
X67798Y250498D01*
X67202Y250896D01*
X66500Y251035D01*
D02*
G37*
G36*
X191200Y193635D02*
X190498Y193496D01*
X189902Y193098D01*
X189504Y192502D01*
X189365Y191800D01*
X189504Y191098D01*
X189902Y190502D01*
X190498Y190104D01*
X191023Y190000D01*
Y189500D01*
X190498Y189396D01*
X189902Y188998D01*
X189504Y188402D01*
X189365Y187700D01*
X189504Y186998D01*
X189902Y186402D01*
X190498Y186004D01*
X191200Y185865D01*
X191902Y186004D01*
X192498Y186402D01*
X192896Y186998D01*
X193035Y187700D01*
X192896Y188402D01*
X192498Y188998D01*
X191902Y189396D01*
X191377Y189500D01*
Y190000D01*
X191902Y190104D01*
X192498Y190502D01*
X192896Y191098D01*
X193035Y191800D01*
X192896Y192502D01*
X192498Y193098D01*
X191902Y193496D01*
X191200Y193635D01*
D02*
G37*
G36*
X195500D02*
X194798Y193496D01*
X194202Y193098D01*
X193804Y192502D01*
X193665Y191800D01*
X193804Y191098D01*
X194202Y190502D01*
X194798Y190104D01*
X195323Y190000D01*
Y189500D01*
X194798Y189396D01*
X194202Y188998D01*
X193804Y188402D01*
X193665Y187700D01*
X193804Y186998D01*
X194202Y186402D01*
X194798Y186004D01*
X195500Y185865D01*
X196202Y186004D01*
X196798Y186402D01*
X197196Y186998D01*
X197335Y187700D01*
X197196Y188402D01*
X196798Y188998D01*
X196202Y189396D01*
X195677Y189500D01*
Y190000D01*
X196202Y190104D01*
X196798Y190502D01*
X197196Y191098D01*
X197335Y191800D01*
X197196Y192502D01*
X196798Y193098D01*
X196202Y193496D01*
X195500Y193635D01*
D02*
G37*
G36*
X154700Y193535D02*
X153998Y193396D01*
X153402Y192998D01*
X153004Y192402D01*
X152865Y191700D01*
X153004Y190998D01*
X153402Y190402D01*
X153998Y190004D01*
X154523Y189900D01*
Y189400D01*
X153998Y189296D01*
X153402Y188898D01*
X153004Y188302D01*
X152865Y187600D01*
X153004Y186898D01*
X153402Y186302D01*
X153998Y185904D01*
X154700Y185765D01*
X155402Y185904D01*
X155998Y186302D01*
X156396Y186898D01*
X156535Y187600D01*
X156396Y188302D01*
X155998Y188898D01*
X155402Y189296D01*
X154877Y189400D01*
Y189900D01*
X155402Y190004D01*
X155998Y190402D01*
X156396Y190998D01*
X156535Y191700D01*
X156396Y192402D01*
X155998Y192998D01*
X155402Y193396D01*
X154700Y193535D01*
D02*
G37*
G36*
X110164Y139859D02*
X108812Y139726D01*
X107511Y139331D01*
X106313Y138691D01*
X105262Y137829D01*
X104400Y136778D01*
X103760Y135580D01*
X103365Y134279D01*
X103232Y132927D01*
X103365Y131574D01*
X103760Y130274D01*
X104400Y129075D01*
X105262Y128025D01*
X106313Y127162D01*
X107511Y126522D01*
X108812Y126127D01*
X110164Y125994D01*
X111517Y126127D01*
X112817Y126522D01*
X114016Y127162D01*
X115066Y128025D01*
X115929Y129075D01*
X116569Y130274D01*
X116964Y131574D01*
X117097Y132927D01*
X116964Y134279D01*
X116569Y135580D01*
X115929Y136778D01*
X115066Y137829D01*
X114016Y138691D01*
X112817Y139331D01*
X111517Y139726D01*
X110164Y139859D01*
D02*
G37*
G36*
X136600Y150733D02*
X135248Y150599D01*
X133947Y150205D01*
X132748Y149564D01*
X131698Y148702D01*
X130836Y147652D01*
X130195Y146453D01*
X129801Y145152D01*
X129667Y143800D01*
X129801Y142447D01*
X130195Y141147D01*
X130836Y139948D01*
X131698Y138898D01*
X132748Y138036D01*
X133947Y137395D01*
X135248Y137001D01*
X136600Y136867D01*
X137952Y137001D01*
X139253Y137395D01*
X140452Y138036D01*
X141502Y138898D01*
X142364Y139948D01*
X143005Y141147D01*
X143399Y142447D01*
X143533Y143800D01*
X143399Y145152D01*
X143005Y146453D01*
X142364Y147652D01*
X141502Y148702D01*
X140452Y149564D01*
X139253Y150205D01*
X137952Y150599D01*
X136600Y150733D01*
D02*
G37*
G36*
X136610Y122864D02*
X134472Y122724D01*
X132370Y122306D01*
X130341Y121617D01*
X128419Y120669D01*
X126637Y119479D01*
X125026Y118066D01*
X123613Y116455D01*
X122422Y114673D01*
X121474Y112751D01*
X120785Y110722D01*
X120367Y108620D01*
X120227Y106481D01*
X120367Y104343D01*
X120785Y102241D01*
X121474Y100212D01*
X122422Y98290D01*
X123613Y96508D01*
X125026Y94897D01*
X126637Y93484D01*
X128419Y92293D01*
X130341Y91345D01*
X132370Y90656D01*
X134472Y90238D01*
X136610Y90098D01*
X138749Y90238D01*
X140851Y90656D01*
X142880Y91345D01*
X144802Y92293D01*
X146584Y93484D01*
X148195Y94897D01*
X149608Y96508D01*
X150798Y98290D01*
X151746Y100212D01*
X152435Y102241D01*
X152853Y104343D01*
X152993Y106481D01*
X152853Y108620D01*
X152435Y110722D01*
X151746Y112751D01*
X150798Y114673D01*
X149608Y116455D01*
X148195Y118066D01*
X146584Y119479D01*
X144802Y120669D01*
X142880Y121617D01*
X140851Y122306D01*
X138749Y122724D01*
X136610Y122864D01*
D02*
G37*
G36*
X25000Y124233D02*
X23648Y124099D01*
X22347Y123705D01*
X21148Y123064D01*
X20098Y122202D01*
X19236Y121151D01*
X18595Y119953D01*
X18201Y118652D01*
X18067Y117300D01*
X18201Y115947D01*
X18595Y114647D01*
X19236Y113449D01*
X20098Y112398D01*
X21148Y111536D01*
X22347Y110895D01*
X23648Y110501D01*
X25000Y110367D01*
X26353Y110501D01*
X27653Y110895D01*
X28852Y111536D01*
X29902Y112398D01*
X30764Y113449D01*
X31405Y114647D01*
X31799Y115947D01*
X31933Y117300D01*
X31799Y118652D01*
X31405Y119953D01*
X30764Y121151D01*
X29902Y122202D01*
X28852Y123064D01*
X27653Y123705D01*
X26353Y124099D01*
X25000Y124233D01*
D02*
G37*
G36*
X126700Y193335D02*
X125998Y193196D01*
X125402Y192798D01*
X125004Y192202D01*
X124865Y191500D01*
X125004Y190798D01*
X125402Y190202D01*
X125998Y189804D01*
X126523Y189700D01*
Y189200D01*
X125998Y189096D01*
X125402Y188698D01*
X125004Y188102D01*
X124865Y187400D01*
X125004Y186698D01*
X125402Y186102D01*
X125998Y185704D01*
X126700Y185565D01*
X127402Y185704D01*
X127998Y186102D01*
X128396Y186698D01*
X128535Y187400D01*
X128396Y188102D01*
X127998Y188698D01*
X127402Y189096D01*
X126877Y189200D01*
Y189700D01*
X127402Y189804D01*
X127998Y190202D01*
X128396Y190798D01*
X128535Y191500D01*
X128396Y192202D01*
X127998Y192798D01*
X127402Y193196D01*
X126700Y193335D01*
D02*
G37*
G36*
X135300D02*
X134598Y193196D01*
X134002Y192798D01*
X133604Y192202D01*
X133465Y191500D01*
X133604Y190798D01*
X134002Y190202D01*
X134598Y189804D01*
X135123Y189700D01*
Y189200D01*
X134598Y189096D01*
X134002Y188698D01*
X133604Y188102D01*
X133465Y187400D01*
X133604Y186698D01*
X134002Y186102D01*
X134598Y185704D01*
X135300Y185565D01*
X136002Y185704D01*
X136598Y186102D01*
X136996Y186698D01*
X137135Y187400D01*
X136996Y188102D01*
X136598Y188698D01*
X136002Y189096D01*
X135477Y189200D01*
Y189700D01*
X136002Y189804D01*
X136598Y190202D01*
X136996Y190798D01*
X137135Y191500D01*
X136996Y192202D01*
X136598Y192798D01*
X136002Y193196D01*
X135300Y193335D01*
D02*
G37*
G36*
X131000D02*
X130298Y193196D01*
X129702Y192798D01*
X129304Y192202D01*
X129165Y191500D01*
X129304Y190798D01*
X129702Y190202D01*
X130298Y189804D01*
X130823Y189700D01*
Y189200D01*
X130298Y189096D01*
X129702Y188698D01*
X129304Y188102D01*
X129165Y187400D01*
X129304Y186698D01*
X129702Y186102D01*
X130298Y185704D01*
X131000Y185565D01*
X131702Y185704D01*
X132298Y186102D01*
X132696Y186698D01*
X132835Y187400D01*
X132696Y188102D01*
X132298Y188698D01*
X131702Y189096D01*
X131177Y189200D01*
Y189700D01*
X131702Y189804D01*
X132298Y190202D01*
X132696Y190798D01*
X132835Y191500D01*
X132696Y192202D01*
X132298Y192798D01*
X131702Y193196D01*
X131000Y193335D01*
D02*
G37*
G36*
X150400Y193535D02*
X149698Y193396D01*
X149102Y192998D01*
X148704Y192402D01*
X148565Y191700D01*
X148704Y190998D01*
X149102Y190402D01*
X149698Y190004D01*
X150223Y189900D01*
Y189400D01*
X149698Y189296D01*
X149102Y188898D01*
X148704Y188302D01*
X148565Y187600D01*
X148704Y186898D01*
X149102Y186302D01*
X149698Y185904D01*
X150400Y185765D01*
X151102Y185904D01*
X151698Y186302D01*
X152096Y186898D01*
X152235Y187600D01*
X152096Y188302D01*
X151698Y188898D01*
X151102Y189296D01*
X150577Y189400D01*
Y189900D01*
X151102Y190004D01*
X151698Y190402D01*
X152096Y190998D01*
X152235Y191700D01*
X152096Y192402D01*
X151698Y192998D01*
X151102Y193396D01*
X150400Y193535D01*
D02*
G37*
%LPD*%
G36*
X66949Y250284D02*
X67330Y250029D01*
X67584Y249649D01*
X67673Y249200D01*
X67584Y248751D01*
X67330Y248371D01*
X66949Y248116D01*
X66802Y248087D01*
X66644Y247982D01*
X66469Y247909D01*
X66444Y247848D01*
X66389Y247811D01*
X66352Y247625D01*
X66279Y247450D01*
Y246950D01*
X66352Y246775D01*
X66389Y246589D01*
X66444Y246552D01*
X66469Y246491D01*
X66644Y246418D01*
X66802Y246313D01*
X66949Y246284D01*
X67330Y246029D01*
X67584Y245649D01*
X67673Y245200D01*
X67584Y244751D01*
X67330Y244371D01*
X66949Y244116D01*
X66802Y244087D01*
X66644Y243982D01*
X66469Y243909D01*
X66444Y243848D01*
X66389Y243811D01*
X66352Y243625D01*
X66279Y243450D01*
Y242950D01*
X66352Y242775D01*
X66389Y242589D01*
X66444Y242552D01*
X66469Y242491D01*
X66644Y242418D01*
X66802Y242313D01*
X66949Y242284D01*
X67330Y242030D01*
X67584Y241649D01*
X67673Y241200D01*
X67584Y240751D01*
X67330Y240370D01*
X66949Y240116D01*
X66802Y240087D01*
X66644Y239982D01*
X66469Y239909D01*
X66444Y239848D01*
X66389Y239811D01*
X66352Y239625D01*
X66279Y239450D01*
Y238950D01*
X66352Y238775D01*
X66389Y238589D01*
X66444Y238552D01*
X66469Y238491D01*
X66644Y238418D01*
X66802Y238313D01*
X66949Y238284D01*
X67330Y238030D01*
X67584Y237649D01*
X67673Y237200D01*
X67584Y236751D01*
X67330Y236370D01*
X66949Y236116D01*
X66802Y236087D01*
X66644Y235982D01*
X66469Y235909D01*
X66444Y235848D01*
X66389Y235811D01*
X66352Y235625D01*
X66279Y235450D01*
Y234950D01*
X66352Y234775D01*
X66389Y234589D01*
X66444Y234552D01*
X66469Y234491D01*
X66644Y234418D01*
X66802Y234313D01*
X66949Y234284D01*
X67330Y234030D01*
X67584Y233649D01*
X67673Y233200D01*
X67584Y232751D01*
X67330Y232370D01*
X66949Y232116D01*
X66500Y232027D01*
X66051Y232116D01*
X65671Y232370D01*
X65416Y232751D01*
X65387Y232898D01*
X65282Y233056D01*
X65209Y233231D01*
X65148Y233256D01*
X65111Y233311D01*
X64925Y233348D01*
X64750Y233421D01*
X64250D01*
X64075Y233348D01*
X63889Y233311D01*
X63852Y233256D01*
X63791Y233231D01*
X63718Y233056D01*
X63613Y232898D01*
X63584Y232751D01*
X63329Y232370D01*
X62949Y232116D01*
X62500Y232027D01*
X62051Y232116D01*
X61671Y232370D01*
X61416Y232751D01*
X61387Y232898D01*
X61282Y233056D01*
X61209Y233231D01*
X61148Y233256D01*
X61111Y233311D01*
X60925Y233348D01*
X60750Y233421D01*
X60250D01*
X60075Y233348D01*
X59889Y233311D01*
X59852Y233256D01*
X59791Y233231D01*
X59718Y233056D01*
X59613Y232898D01*
X59584Y232751D01*
X59329Y232370D01*
X58949Y232116D01*
X58500Y232027D01*
X58051Y232116D01*
X57670Y232370D01*
X57416Y232751D01*
X57387Y232898D01*
X57282Y233056D01*
X57209Y233231D01*
X57148Y233256D01*
X57111Y233311D01*
X56925Y233348D01*
X56750Y233421D01*
X56250D01*
X56075Y233348D01*
X55889Y233311D01*
X55852Y233256D01*
X55791Y233231D01*
X55718Y233056D01*
X55613Y232898D01*
X55584Y232751D01*
X55330Y232370D01*
X54949Y232116D01*
X54500Y232027D01*
X54051Y232116D01*
X53671Y232370D01*
X53416Y232751D01*
X53387Y232898D01*
X53282Y233056D01*
X53209Y233231D01*
X53148Y233256D01*
X53111Y233311D01*
X52925Y233348D01*
X52750Y233421D01*
X52250D01*
X52075Y233348D01*
X51889Y233311D01*
X51852Y233256D01*
X51791Y233231D01*
X51718Y233056D01*
X51613Y232898D01*
X51584Y232751D01*
X51329Y232370D01*
X50949Y232116D01*
X50500Y232027D01*
X50051Y232116D01*
X49670Y232370D01*
X49416Y232751D01*
X49327Y233200D01*
X49416Y233649D01*
X49670Y234030D01*
X50051Y234284D01*
X50198Y234313D01*
X50356Y234418D01*
X50531Y234491D01*
X50556Y234552D01*
X50611Y234589D01*
X50648Y234775D01*
X50721Y234950D01*
Y235450D01*
X50648Y235625D01*
X50611Y235811D01*
X50556Y235848D01*
X50531Y235909D01*
X50356Y235982D01*
X50198Y236087D01*
X50051Y236116D01*
X49670Y236370D01*
X49416Y236751D01*
X49327Y237200D01*
X49416Y237649D01*
X49670Y238030D01*
X50051Y238284D01*
X50198Y238313D01*
X50356Y238418D01*
X50531Y238491D01*
X50556Y238552D01*
X50611Y238589D01*
X50648Y238775D01*
X50721Y238950D01*
Y239450D01*
X50648Y239625D01*
X50611Y239811D01*
X50556Y239848D01*
X50531Y239909D01*
X50356Y239982D01*
X50198Y240087D01*
X50051Y240116D01*
X49670Y240370D01*
X49416Y240751D01*
X49327Y241200D01*
X49416Y241649D01*
X49670Y242030D01*
X50051Y242284D01*
X50198Y242313D01*
X50356Y242418D01*
X50531Y242491D01*
X50556Y242552D01*
X50611Y242589D01*
X50648Y242775D01*
X50721Y242950D01*
Y243450D01*
X50648Y243625D01*
X50611Y243811D01*
X50556Y243848D01*
X50531Y243909D01*
X50356Y243982D01*
X50198Y244087D01*
X50051Y244116D01*
X49670Y244371D01*
X49416Y244751D01*
X49327Y245200D01*
X49416Y245649D01*
X49670Y246029D01*
X50051Y246284D01*
X50198Y246313D01*
X50356Y246418D01*
X50531Y246491D01*
X50556Y246552D01*
X50611Y246589D01*
X50648Y246775D01*
X50721Y246950D01*
Y247450D01*
X50648Y247625D01*
X50611Y247811D01*
X50556Y247848D01*
X50531Y247909D01*
X50356Y247982D01*
X50198Y248087D01*
X50051Y248116D01*
X49670Y248371D01*
X49416Y248751D01*
X49327Y249200D01*
X49416Y249649D01*
X49670Y250029D01*
X50051Y250284D01*
X50500Y250373D01*
X50949Y250284D01*
X51329Y250029D01*
X51584Y249649D01*
X51613Y249502D01*
X51718Y249344D01*
X51791Y249169D01*
X51852Y249144D01*
X51889Y249089D01*
X52075Y249052D01*
X52250Y248979D01*
X52750D01*
X52925Y249052D01*
X53111Y249089D01*
X53148Y249144D01*
X53209Y249169D01*
X53282Y249344D01*
X53387Y249502D01*
X53416Y249649D01*
X53671Y250029D01*
X54051Y250284D01*
X54500Y250373D01*
X54949Y250284D01*
X55330Y250029D01*
X55584Y249649D01*
X55613Y249502D01*
X55718Y249344D01*
X55791Y249169D01*
X55852Y249144D01*
X55889Y249089D01*
X56075Y249052D01*
X56250Y248979D01*
X56750D01*
X56925Y249052D01*
X57111Y249089D01*
X57148Y249144D01*
X57209Y249169D01*
X57282Y249344D01*
X57387Y249502D01*
X57416Y249649D01*
X57670Y250029D01*
X58051Y250284D01*
X58500Y250373D01*
X58949Y250284D01*
X59329Y250029D01*
X59584Y249649D01*
X59613Y249502D01*
X59718Y249344D01*
X59791Y249169D01*
X59852Y249144D01*
X59889Y249089D01*
X60075Y249052D01*
X60250Y248979D01*
X60750D01*
X60925Y249052D01*
X61111Y249089D01*
X61148Y249144D01*
X61209Y249169D01*
X61282Y249344D01*
X61387Y249502D01*
X61416Y249649D01*
X61671Y250029D01*
X62051Y250284D01*
X62500Y250373D01*
X62949Y250284D01*
X63329Y250029D01*
X63584Y249649D01*
X63613Y249502D01*
X63718Y249344D01*
X63791Y249169D01*
X63852Y249144D01*
X63889Y249089D01*
X64075Y249052D01*
X64250Y248979D01*
X64750D01*
X64925Y249052D01*
X65111Y249089D01*
X65148Y249144D01*
X65209Y249169D01*
X65282Y249344D01*
X65387Y249502D01*
X65416Y249649D01*
X65671Y250029D01*
X66051Y250284D01*
X66500Y250373D01*
X66949Y250284D01*
D02*
G37*
G36*
X174000Y50100D02*
X155425Y31525D01*
Y17181D01*
X141430D01*
Y40389D01*
X148889D01*
X154900Y46400D01*
Y72200D01*
X174000D01*
Y50100D01*
D02*
G37*
G36*
X183249Y250184D02*
X183630Y249929D01*
X183884Y249549D01*
X183973Y249100D01*
X183884Y248651D01*
X183630Y248271D01*
X183249Y248016D01*
X183102Y247987D01*
X182944Y247882D01*
X182769Y247809D01*
X182744Y247748D01*
X182689Y247711D01*
X182652Y247525D01*
X182579Y247350D01*
Y246850D01*
X182652Y246675D01*
X182689Y246489D01*
X182744Y246452D01*
X182769Y246391D01*
X182944Y246318D01*
X183102Y246213D01*
X183249Y246184D01*
X183630Y245930D01*
X183884Y245549D01*
X183973Y245100D01*
X183884Y244651D01*
X183630Y244270D01*
X183249Y244016D01*
X183102Y243987D01*
X182944Y243882D01*
X182769Y243809D01*
X182744Y243748D01*
X182689Y243711D01*
X182652Y243525D01*
X182579Y243350D01*
Y242850D01*
X182652Y242675D01*
X182689Y242489D01*
X182744Y242452D01*
X182769Y242391D01*
X182944Y242318D01*
X183102Y242213D01*
X183249Y242184D01*
X183630Y241930D01*
X183884Y241549D01*
X183973Y241100D01*
X183884Y240651D01*
X183630Y240270D01*
X183249Y240016D01*
X183102Y239987D01*
X182944Y239882D01*
X182769Y239809D01*
X182744Y239748D01*
X182689Y239711D01*
X182652Y239525D01*
X182579Y239350D01*
Y238850D01*
X182652Y238675D01*
X182689Y238489D01*
X182744Y238452D01*
X182769Y238391D01*
X182944Y238318D01*
X183102Y238213D01*
X183249Y238184D01*
X183630Y237930D01*
X183884Y237549D01*
X183973Y237100D01*
X183884Y236651D01*
X183630Y236270D01*
X183249Y236016D01*
X183102Y235987D01*
X182944Y235882D01*
X182769Y235809D01*
X182744Y235748D01*
X182689Y235711D01*
X182652Y235525D01*
X182579Y235350D01*
Y234850D01*
X182652Y234675D01*
X182689Y234489D01*
X182744Y234452D01*
X182769Y234391D01*
X182944Y234318D01*
X183102Y234213D01*
X183249Y234184D01*
X183630Y233929D01*
X183884Y233549D01*
X183973Y233100D01*
X183884Y232651D01*
X183630Y232271D01*
X183249Y232016D01*
X182800Y231927D01*
X182351Y232016D01*
X181971Y232271D01*
X181716Y232651D01*
X181687Y232798D01*
X181582Y232956D01*
X181509Y233131D01*
X181448Y233156D01*
X181411Y233211D01*
X181225Y233248D01*
X181050Y233321D01*
X180550D01*
X180375Y233248D01*
X180189Y233211D01*
X180152Y233156D01*
X180091Y233131D01*
X180018Y232956D01*
X179913Y232798D01*
X179884Y232651D01*
X179630Y232271D01*
X179249Y232016D01*
X178800Y231927D01*
X178351Y232016D01*
X177971Y232271D01*
X177716Y232651D01*
X177687Y232798D01*
X177582Y232956D01*
X177509Y233131D01*
X177448Y233156D01*
X177411Y233211D01*
X177225Y233248D01*
X177050Y233321D01*
X176550D01*
X176375Y233248D01*
X176189Y233211D01*
X176152Y233156D01*
X176091Y233131D01*
X176018Y232956D01*
X175913Y232798D01*
X175884Y232651D01*
X175629Y232271D01*
X175249Y232016D01*
X174800Y231927D01*
X174351Y232016D01*
X173970Y232271D01*
X173716Y232651D01*
X173687Y232798D01*
X173582Y232956D01*
X173509Y233131D01*
X173448Y233156D01*
X173411Y233211D01*
X173225Y233248D01*
X173050Y233321D01*
X172550D01*
X172375Y233248D01*
X172189Y233211D01*
X172152Y233156D01*
X172091Y233131D01*
X172018Y232956D01*
X171913Y232798D01*
X171884Y232651D01*
X171630Y232271D01*
X171249Y232016D01*
X170800Y231927D01*
X170351Y232016D01*
X169971Y232271D01*
X169716Y232651D01*
X169687Y232798D01*
X169582Y232956D01*
X169509Y233131D01*
X169448Y233156D01*
X169411Y233211D01*
X169225Y233248D01*
X169050Y233321D01*
X168550D01*
X168375Y233248D01*
X168189Y233211D01*
X168152Y233156D01*
X168091Y233131D01*
X168018Y232956D01*
X167913Y232798D01*
X167884Y232651D01*
X167630Y232271D01*
X167249Y232016D01*
X166800Y231927D01*
X166351Y232016D01*
X165971Y232271D01*
X165716Y232651D01*
X165627Y233100D01*
X165716Y233549D01*
X165971Y233929D01*
X166351Y234184D01*
X166498Y234213D01*
X166656Y234318D01*
X166831Y234391D01*
X166856Y234452D01*
X166911Y234489D01*
X166948Y234675D01*
X167021Y234850D01*
Y235350D01*
X166948Y235525D01*
X166911Y235711D01*
X166856Y235748D01*
X166831Y235809D01*
X166656Y235882D01*
X166498Y235987D01*
X166351Y236016D01*
X165971Y236270D01*
X165716Y236651D01*
X165627Y237100D01*
X165716Y237549D01*
X165971Y237930D01*
X166351Y238184D01*
X166498Y238213D01*
X166656Y238318D01*
X166831Y238391D01*
X166856Y238452D01*
X166911Y238489D01*
X166948Y238675D01*
X167021Y238850D01*
Y239350D01*
X166948Y239525D01*
X166911Y239711D01*
X166856Y239748D01*
X166831Y239809D01*
X166656Y239882D01*
X166498Y239987D01*
X166351Y240016D01*
X165971Y240270D01*
X165716Y240651D01*
X165627Y241100D01*
X165716Y241549D01*
X165971Y241930D01*
X166351Y242184D01*
X166498Y242213D01*
X166656Y242318D01*
X166831Y242391D01*
X166856Y242452D01*
X166911Y242489D01*
X166948Y242675D01*
X167021Y242850D01*
Y243350D01*
X166948Y243525D01*
X166911Y243711D01*
X166856Y243748D01*
X166831Y243809D01*
X166656Y243882D01*
X166498Y243987D01*
X166351Y244016D01*
X165971Y244270D01*
X165716Y244651D01*
X165627Y245100D01*
X165716Y245549D01*
X165971Y245930D01*
X166351Y246184D01*
X166498Y246213D01*
X166656Y246318D01*
X166831Y246391D01*
X166856Y246452D01*
X166911Y246489D01*
X166948Y246675D01*
X167021Y246850D01*
Y247350D01*
X166948Y247525D01*
X166911Y247711D01*
X166856Y247748D01*
X166831Y247809D01*
X166656Y247882D01*
X166498Y247987D01*
X166351Y248016D01*
X165971Y248271D01*
X165716Y248651D01*
X165627Y249100D01*
X165716Y249549D01*
X165971Y249929D01*
X166351Y250184D01*
X166800Y250273D01*
X167249Y250184D01*
X167630Y249929D01*
X167884Y249549D01*
X167913Y249402D01*
X168018Y249244D01*
X168091Y249069D01*
X168152Y249044D01*
X168189Y248989D01*
X168375Y248952D01*
X168550Y248879D01*
X169050D01*
X169225Y248952D01*
X169411Y248989D01*
X169448Y249044D01*
X169509Y249069D01*
X169582Y249244D01*
X169687Y249402D01*
X169716Y249549D01*
X169971Y249929D01*
X170351Y250184D01*
X170800Y250273D01*
X171249Y250184D01*
X171630Y249929D01*
X171884Y249549D01*
X171913Y249402D01*
X172018Y249244D01*
X172091Y249069D01*
X172152Y249044D01*
X172189Y248989D01*
X172375Y248952D01*
X172550Y248879D01*
X173050D01*
X173225Y248952D01*
X173411Y248989D01*
X173448Y249044D01*
X173509Y249069D01*
X173582Y249244D01*
X173687Y249402D01*
X173716Y249549D01*
X173970Y249929D01*
X174351Y250184D01*
X174800Y250273D01*
X175249Y250184D01*
X175629Y249929D01*
X175884Y249549D01*
X175913Y249402D01*
X176018Y249244D01*
X176091Y249069D01*
X176152Y249044D01*
X176189Y248989D01*
X176375Y248952D01*
X176550Y248879D01*
X177050D01*
X177225Y248952D01*
X177411Y248989D01*
X177448Y249044D01*
X177509Y249069D01*
X177582Y249244D01*
X177687Y249402D01*
X177716Y249549D01*
X177971Y249929D01*
X178351Y250184D01*
X178800Y250273D01*
X179249Y250184D01*
X179630Y249929D01*
X179884Y249549D01*
X179913Y249402D01*
X180018Y249244D01*
X180091Y249069D01*
X180152Y249044D01*
X180189Y248989D01*
X180375Y248952D01*
X180550Y248879D01*
X181050D01*
X181225Y248952D01*
X181411Y248989D01*
X181448Y249044D01*
X181509Y249069D01*
X181582Y249244D01*
X181687Y249402D01*
X181716Y249549D01*
X181971Y249929D01*
X182351Y250184D01*
X182800Y250273D01*
X183249Y250184D01*
D02*
G37*
D36*
X117300Y53687D02*
X118483Y52504D01*
X115700Y77000D02*
X117300Y75400D01*
Y53687D02*
Y75400D01*
X118483Y37289D02*
Y52504D01*
D37*
X52600Y133400D02*
Y135600D01*
X42400Y123200D02*
X52600Y133400D01*
X42400Y50800D02*
Y123200D01*
Y50800D02*
X45900Y47300D01*
X48100D01*
X53594Y41805D01*
Y37289D02*
Y41805D01*
X88539Y62539D02*
X88800Y62800D01*
X88539Y37289D02*
Y62539D01*
D38*
X182300Y124000D02*
Y199000D01*
X145000Y86700D02*
X182300Y124000D01*
X109589Y86700D02*
X145000D01*
X75700Y52811D02*
X109589Y86700D01*
X74626Y146126D02*
X87226D01*
X105500Y164400D02*
Y186900D01*
X87226Y146126D02*
X105500Y164400D01*
X91900Y200500D02*
X105500Y186900D01*
X47300Y200500D02*
X91900D01*
X46600Y201200D02*
X47300Y200500D01*
X182300Y199000D02*
X182400Y199100D01*
X70936Y8997D02*
Y27636D01*
X68900Y6961D02*
X70936Y8997D01*
X47800Y119300D02*
X74626Y146126D01*
X47800Y58100D02*
Y119300D01*
X103539Y41839D02*
X110700Y49000D01*
X103700Y90111D02*
Y101600D01*
X75700Y41276D02*
Y52811D01*
X70936Y57348D02*
X103700Y90111D01*
X70936Y34375D02*
Y57348D01*
X52600Y24500D02*
X53594Y23505D01*
X45665Y24500D02*
X52600D01*
X44864Y25300D02*
X45665Y24500D01*
X11500Y25300D02*
X44864D01*
X53594Y20281D02*
Y23505D01*
X103539Y37289D02*
Y41839D01*
X179800Y10500D02*
X190100Y20800D01*
X155300Y10500D02*
X179800D01*
X70936Y27636D02*
X75936Y32636D01*
X75500Y41076D02*
X75700Y41276D01*
X75936Y32636D02*
Y40640D01*
X75500Y41076D02*
X75936Y40640D01*
X69732Y33171D02*
X70936Y34375D01*
X69732Y29925D02*
Y33171D01*
X68635Y7225D02*
X68900Y6961D01*
X46600Y201200D02*
Y201300D01*
X88605Y140305D02*
X110000Y161700D01*
X53000Y56900D02*
Y97400D01*
X88605Y133005D01*
Y140305D01*
X110000Y161700D02*
Y193900D01*
X65700Y204300D02*
X66300Y203700D01*
X100200D01*
X110000Y193900D01*
X137100Y24266D02*
Y31400D01*
X174800Y14600D02*
X191100Y30900D01*
X136030Y23195D02*
X137100Y24266D01*
X136030Y15530D02*
Y23195D01*
Y15530D02*
X136959Y14600D01*
X174800D01*
D39*
X143200Y128700D02*
X149900Y135400D01*
X125800Y128700D02*
X143200D01*
X112700Y115600D02*
X125800Y128700D01*
X153000Y125300D02*
X163400Y135700D01*
X127000Y125300D02*
X153000D01*
X112300Y110600D02*
X127000Y125300D01*
X149900Y135400D02*
Y157700D01*
X100100Y110600D02*
X112300D01*
X90100Y115600D02*
X112700D01*
X87106Y143026D02*
X107200Y163120D01*
Y190779D01*
X95979Y202000D02*
X107200Y190779D01*
X51800Y202000D02*
X95979D01*
X46600Y207200D02*
X51800Y202000D01*
X163400Y135700D02*
Y199700D01*
X52800Y8900D02*
X52900Y8800D01*
X65300Y70700D02*
X93700Y99100D01*
X65300Y43700D02*
Y70700D01*
Y43700D02*
X66100Y42900D01*
X63700Y74200D02*
X100100Y110600D01*
X63700Y42581D02*
Y74200D01*
Y42581D02*
X66036Y40245D01*
X61700Y15300D02*
X61900D01*
X61041Y15959D02*
X61700Y15300D01*
X61041Y15959D02*
Y28302D01*
X143000Y164600D02*
X149900Y157700D01*
X60092Y85592D02*
X90100Y115600D01*
X87106Y136624D02*
Y143026D01*
X50700Y50600D02*
Y100218D01*
X87106Y136624D01*
X60092Y29615D02*
Y85592D01*
X56092Y34333D02*
Y42278D01*
X55400Y42970D02*
X56092Y42278D01*
X143000Y164600D02*
Y213600D01*
X66036Y33297D02*
Y40245D01*
X61041Y28302D02*
X66036Y33297D01*
X59149Y14749D02*
Y28672D01*
X66600Y42900D02*
X66700Y43000D01*
X59149Y28672D02*
X60092Y29615D01*
X51200Y29100D02*
X56092Y33992D01*
X51200Y28500D02*
Y29100D01*
X46600Y207200D02*
Y217300D01*
X26800Y237100D02*
X46600Y217300D01*
X6900Y237100D02*
X26800D01*
X66100Y42900D02*
X66600D01*
X2900Y241100D02*
X6900Y237100D01*
X86500Y214000D02*
X86900D01*
X55400Y42970D02*
Y96000D01*
X86900Y211300D02*
X90100Y208100D01*
X86900Y211300D02*
Y214000D01*
X90100Y208100D02*
X101100D01*
X112600Y196600D01*
Y160700D02*
Y196600D01*
X55400Y96000D02*
X91500Y132100D01*
Y139600D01*
X112600Y160700D01*
X52900Y8500D02*
X59149Y14749D01*
D40*
X95600Y46600D02*
Y50500D01*
X93100Y53000D02*
X95600Y50500D01*
X93100Y53000D02*
Y60500D01*
X61900Y15300D02*
X65000D01*
D41*
X47067Y13600D02*
X49300Y11367D01*
X46670Y12300D02*
X48100Y10870D01*
Y5300D02*
Y10870D01*
Y5300D02*
X49819Y3581D01*
X44733Y13600D02*
X47067D01*
X45130Y12300D02*
X46670D01*
X46000Y10600D02*
X46500Y10100D01*
X46000Y3700D02*
Y10600D01*
Y3700D02*
X47319Y2381D01*
X42500Y6700D02*
Y11367D01*
X43800Y10970D02*
X45130Y12300D01*
X42500Y11367D02*
X44733Y13600D01*
X43800Y9230D02*
Y10970D01*
Y9230D02*
X44000Y9030D01*
Y5800D02*
Y9030D01*
X45900Y10100D02*
X46500D01*
X49300Y6400D02*
Y11367D01*
Y6400D02*
X50919Y4781D01*
X49819Y3581D02*
X68081D01*
X47319Y2381D02*
X120781D01*
X63181Y4781D02*
X69200Y10800D01*
X50919Y4781D02*
X63181D01*
X120781Y2381D02*
X123100Y4700D01*
X68081Y3581D02*
X69525Y5025D01*
X69200Y10800D02*
Y19620D01*
X69525Y5025D02*
X69547D01*
X68539Y20281D02*
X69200Y19620D01*
X69547Y5025D02*
X72700Y8179D01*
X73539Y15309D02*
Y20281D01*
X72700Y14470D02*
X73539Y15309D01*
X72700Y8179D02*
Y14470D01*
X42000Y3800D02*
X44000Y5800D01*
X20600Y3800D02*
X42000D01*
X20400Y3600D02*
X20600Y3800D01*
X41600Y5800D02*
X42500Y6700D01*
X16700Y5800D02*
X41600D01*
X15600Y4700D02*
X16700Y5800D01*
X74800Y13600D02*
X131000D01*
X117074Y173274D02*
X118300D01*
X99900Y55700D02*
X103700D01*
X97500Y58100D02*
X99900Y55700D01*
X58692Y30195D02*
Y43355D01*
X57492Y30692D02*
Y42858D01*
X56900Y43450D02*
X57492Y42858D01*
X58100Y43947D02*
X58692Y43355D01*
X43500Y37194D02*
X43595Y37289D01*
X43500Y30200D02*
Y37194D01*
Y30200D02*
X46700Y27000D01*
X41300Y28700D02*
X43303D01*
X38594Y31405D02*
X41300Y28700D01*
X38594Y31405D02*
Y37289D01*
X68539D02*
X68900Y37650D01*
X57749Y29252D02*
X58692Y30195D01*
X57749Y29252D02*
Y29252D01*
X53800Y27000D02*
X57492Y30692D01*
X54297Y25800D02*
X57749Y29252D01*
X46203Y25800D02*
X54297D01*
X43303Y28700D02*
X46203Y25800D01*
X46700Y27000D02*
X53800D01*
X91400Y28800D02*
X132000D01*
X89800Y30400D02*
X91400Y28800D01*
X77200Y30400D02*
X89800D01*
X132900Y10900D02*
X134500Y12500D01*
X88500Y10900D02*
X132900D01*
X82147Y4547D02*
X88500Y10900D01*
X77900Y42900D02*
X80500D01*
X79248Y45849D02*
X85200Y39897D01*
X112402Y33200D02*
X116100D01*
X85200Y33900D02*
X85900Y33200D01*
X85200Y33900D02*
Y39897D01*
X83700Y33000D02*
X85000Y31700D01*
X83700Y33000D02*
Y39700D01*
X80500Y42900D02*
X83700Y39700D01*
X130900Y15100D02*
X131000Y15000D01*
Y13600D02*
Y15000D01*
X116800Y157903D02*
Y165400D01*
X114100Y170300D02*
X117074Y173274D01*
X114100Y156900D02*
Y170300D01*
X58100Y43947D02*
Y89300D01*
X56900Y43450D02*
Y90500D01*
X93818Y127418D01*
Y136618D01*
X114100Y156900D01*
X95018Y136121D02*
X116800Y157903D01*
X95018Y126218D02*
Y136121D01*
X58100Y89300D02*
X95018Y126218D01*
X121100Y54200D02*
X122700Y55800D01*
X141900D01*
X140300Y47200D02*
X147100D01*
X149600Y49700D01*
X134500Y41400D02*
X140300Y47200D01*
X134500Y12500D02*
Y41400D01*
X108130Y35100D02*
X110502D01*
X85900Y33200D02*
X106230D01*
X108130Y35100D01*
X107700Y31700D02*
X109000Y33000D01*
X110502Y35100D02*
X112402Y33200D01*
X85000Y31700D02*
X107700D01*
D44*
X136610Y106481D02*
D03*
X136600Y143800D02*
D03*
X163000Y80000D02*
D03*
X110164Y132927D02*
D03*
X136600Y69100D02*
D03*
D45*
X80100Y138302D02*
D03*
D46*
X117800Y191000D02*
D03*
D47*
X118300Y165400D02*
D03*
Y173274D02*
D03*
D48*
X25000Y117300D02*
D03*
D49*
X54500Y245200D02*
D03*
X50500D02*
D03*
X182400Y199100D02*
D03*
X163400Y199700D02*
D03*
X45900Y10100D02*
D03*
X52800Y8900D02*
D03*
X65100Y14900D02*
D03*
X27531Y39057D02*
D03*
X27600Y42200D02*
D03*
X47900Y29400D02*
D03*
X5600Y10400D02*
D03*
X700Y10300D02*
D03*
X23200Y16400D02*
D03*
X20400Y3600D02*
D03*
X74800Y13600D02*
D03*
X15600Y4700D02*
D03*
X65700Y204300D02*
D03*
X53000Y56900D02*
D03*
X97500Y58100D02*
D03*
X93100Y60500D02*
D03*
X88800Y62800D02*
D03*
X95600Y46600D02*
D03*
X100000Y43100D02*
D03*
X100100Y46700D02*
D03*
X103700Y55700D02*
D03*
X110700Y49000D02*
D03*
X93800Y99000D02*
D03*
X103700Y101600D02*
D03*
X121100Y54200D02*
D03*
X52600Y135600D02*
D03*
X66700Y43000D02*
D03*
X51200Y29100D02*
D03*
X11500Y25300D02*
D03*
X95600Y43100D02*
D03*
X116100Y33200D02*
D03*
X137100Y31400D02*
D03*
X191100Y30900D02*
D03*
X190100Y20800D02*
D03*
X155300Y10500D02*
D03*
X132000Y28800D02*
D03*
X77200Y30400D02*
D03*
X149600Y49700D02*
D03*
X82147Y4547D02*
D03*
X170800Y237100D02*
D03*
X174800Y233100D02*
D03*
X166800D02*
D03*
X170800D02*
D03*
X166800Y237100D02*
D03*
Y241100D02*
D03*
Y245100D02*
D03*
X174800Y237100D02*
D03*
Y241100D02*
D03*
Y245100D02*
D03*
Y249100D02*
D03*
X77900Y42900D02*
D03*
X50700Y50600D02*
D03*
X68635Y7225D02*
D03*
X69732Y29925D02*
D03*
X79300Y45900D02*
D03*
X46600Y201300D02*
D03*
X55400Y210600D02*
D03*
X73500Y213900D02*
D03*
X55400Y214600D02*
D03*
X47800Y58100D02*
D03*
X166800Y249100D02*
D03*
X170800D02*
D03*
X130900Y15100D02*
D03*
X123100Y4700D02*
D03*
X2900Y241100D02*
D03*
X73500Y209900D02*
D03*
X55400Y218600D02*
D03*
X8500Y227200D02*
D03*
X4500D02*
D03*
X500D02*
D03*
X62500Y233200D02*
D03*
X58500Y237200D02*
D03*
Y241200D02*
D03*
Y245200D02*
D03*
Y249200D02*
D03*
X54500D02*
D03*
Y241200D02*
D03*
X73500Y205900D02*
D03*
X86500Y214000D02*
D03*
X143000Y213600D02*
D03*
X50500Y249200D02*
D03*
X62500D02*
D03*
X66500D02*
D03*
Y245200D02*
D03*
X62500D02*
D03*
X50500Y237200D02*
D03*
X54500D02*
D03*
X62500D02*
D03*
X66500D02*
D03*
Y241200D02*
D03*
X62500D02*
D03*
X50500D02*
D03*
X66500Y233200D02*
D03*
X58500D02*
D03*
X54500D02*
D03*
X50500D02*
D03*
X108600Y233500D02*
D03*
X112600D02*
D03*
X116600D02*
D03*
X120600D02*
D03*
X124600D02*
D03*
X108600Y241500D02*
D03*
X112600D02*
D03*
X116600D02*
D03*
X120600D02*
D03*
X124600D02*
D03*
Y237500D02*
D03*
X120600D02*
D03*
X116600D02*
D03*
X112600D02*
D03*
X108600D02*
D03*
Y245500D02*
D03*
X112600D02*
D03*
X116600D02*
D03*
X120600D02*
D03*
X124600D02*
D03*
Y249500D02*
D03*
X120600D02*
D03*
X116600D02*
D03*
X112600D02*
D03*
X108600D02*
D03*
X178800Y233100D02*
D03*
X182800D02*
D03*
X170800Y241100D02*
D03*
X178800D02*
D03*
X182800D02*
D03*
Y237100D02*
D03*
X178800D02*
D03*
X170800Y245100D02*
D03*
X178800D02*
D03*
X182800D02*
D03*
Y249100D02*
D03*
X178800D02*
D03*
X8500Y223200D02*
D03*
X4500D02*
D03*
X500D02*
D03*
X-3500D02*
D03*
X8500Y231300D02*
D03*
X4500D02*
D03*
X500D02*
D03*
X-3500D02*
D03*
Y227200D02*
D03*
X55400Y206600D02*
D03*
X115700Y77000D02*
D03*
X120100Y76900D02*
D03*
X115900Y73500D02*
D03*
X119900Y73600D02*
D03*
X143200Y55800D02*
D03*
X170700Y70200D02*
D03*
X167200D02*
D03*
X163700D02*
D03*
X160200D02*
D03*
X156700D02*
D03*
X170700Y66700D02*
D03*
X167200D02*
D03*
X163700D02*
D03*
X160200D02*
D03*
X156700D02*
D03*
X170700Y63200D02*
D03*
X167200D02*
D03*
X163700D02*
D03*
X160200D02*
D03*
X156700D02*
D03*
X163700Y59700D02*
D03*
X160200D02*
D03*
X156700D02*
D03*
X163700Y56200D02*
D03*
X160200D02*
D03*
X156200D02*
D03*
X160200Y52200D02*
D03*
X156200D02*
D03*
X160200Y48200D02*
D03*
X156200D02*
D03*
X177900Y65900D02*
D03*
X186400Y80100D02*
D03*
X189900D02*
D03*
X193400D02*
D03*
X196900D02*
D03*
X186400Y84900D02*
D03*
X189900D02*
D03*
X193400D02*
D03*
X196900D02*
D03*
X126700Y187400D02*
D03*
X131000D02*
D03*
X135300D02*
D03*
X126700Y191500D02*
D03*
X131000D02*
D03*
X135300D02*
D03*
X146100Y187600D02*
D03*
X150400D02*
D03*
X154700D02*
D03*
X146100Y191700D02*
D03*
X150400D02*
D03*
X154700D02*
D03*
X166900Y187600D02*
D03*
X171200D02*
D03*
X175500D02*
D03*
X166900Y191700D02*
D03*
X171200D02*
D03*
X175500D02*
D03*
X186900Y187700D02*
D03*
X191200D02*
D03*
X195500D02*
D03*
X186900Y191800D02*
D03*
X191200D02*
D03*
X195500D02*
D03*
X12400Y93100D02*
D03*
X16900D02*
D03*
X21400D02*
D03*
X25900D02*
D03*
X30400D02*
D03*
X12400Y97600D02*
D03*
X16900D02*
D03*
X21400D02*
D03*
X25900D02*
D03*
X30400D02*
D03*
X12400Y102100D02*
D03*
X16900D02*
D03*
X21400D02*
D03*
X25900D02*
D03*
X30400D02*
D03*
X21100Y35100D02*
D03*
X21500Y30300D02*
D03*
X26900Y18100D02*
D03*
Y14600D02*
D03*
X17600Y36200D02*
D03*
X129500Y26200D02*
D03*
X132400Y23200D02*
D03*
X193800Y12300D02*
D03*
X196600Y14900D02*
D03*
X198100Y18800D02*
D03*
X185100Y63300D02*
D03*
Y59800D02*
D03*
Y56300D02*
D03*
X189100D02*
D03*
Y59800D02*
D03*
Y63300D02*
D03*
X193100Y56300D02*
D03*
Y59800D02*
D03*
Y63300D02*
D03*
X197100Y56300D02*
D03*
Y59800D02*
D03*
Y63300D02*
D03*
X141610Y156481D02*
D03*
X136610D02*
D03*
X131610D02*
D03*
X156610Y151481D02*
D03*
X146610D02*
D03*
X141610D02*
D03*
X131610D02*
D03*
X126610D02*
D03*
X121610D02*
D03*
X116610D02*
D03*
X166610Y146481D02*
D03*
X156610D02*
D03*
X146610D02*
D03*
X126610D02*
D03*
X121610D02*
D03*
X111610D02*
D03*
X171610Y141481D02*
D03*
X166610D02*
D03*
X156610D02*
D03*
X146610D02*
D03*
X126610D02*
D03*
X116610D02*
D03*
X111610D02*
D03*
X106610D02*
D03*
X171610Y136481D02*
D03*
X166610D02*
D03*
X156610D02*
D03*
X146610D02*
D03*
X141610D02*
D03*
X131610D02*
D03*
X101610D02*
D03*
X176610Y131481D02*
D03*
X171610D02*
D03*
X166610D02*
D03*
X151610D02*
D03*
X141610D02*
D03*
X136610D02*
D03*
X131610D02*
D03*
X101610D02*
D03*
X176610Y126481D02*
D03*
X171610D02*
D03*
X166610D02*
D03*
X161610D02*
D03*
X116610D02*
D03*
X101610D02*
D03*
X171610Y121481D02*
D03*
X166610D02*
D03*
X161610D02*
D03*
X156610D02*
D03*
X111610D02*
D03*
X106610D02*
D03*
X101610D02*
D03*
X181610Y116481D02*
D03*
X166610D02*
D03*
X161610D02*
D03*
X156610D02*
D03*
X151610D02*
D03*
X181610Y111481D02*
D03*
X176610D02*
D03*
X161610D02*
D03*
X156610D02*
D03*
X186610Y106481D02*
D03*
X181610D02*
D03*
X176610D02*
D03*
X171610D02*
D03*
X156610D02*
D03*
X111610D02*
D03*
X106610D02*
D03*
X86610D02*
D03*
X186610Y101481D02*
D03*
X181610D02*
D03*
X176610D02*
D03*
X171610D02*
D03*
X166610D02*
D03*
X111610D02*
D03*
X96610D02*
D03*
X86610D02*
D03*
X181610Y96481D02*
D03*
X176610D02*
D03*
X171610D02*
D03*
X166610D02*
D03*
X161610D02*
D03*
X111610D02*
D03*
X106610D02*
D03*
X96610D02*
D03*
X181610Y91481D02*
D03*
X176610D02*
D03*
X171610D02*
D03*
X166610D02*
D03*
X161610D02*
D03*
X156610D02*
D03*
X121610D02*
D03*
X111610D02*
D03*
X106610D02*
D03*
X96610D02*
D03*
X91610D02*
D03*
X176610Y86481D02*
D03*
X171610D02*
D03*
X156610D02*
D03*
X151610D02*
D03*
X96610D02*
D03*
X176610Y81481D02*
D03*
X171610D02*
D03*
X151610D02*
D03*
X146610D02*
D03*
X141610D02*
D03*
X136610D02*
D03*
X131610D02*
D03*
X126610D02*
D03*
X121610D02*
D03*
X111610D02*
D03*
X176610Y76481D02*
D03*
X171610D02*
D03*
X151610D02*
D03*
X146610D02*
D03*
X141610D02*
D03*
X131610D02*
D03*
X126610D02*
D03*
X111610D02*
D03*
X106610D02*
D03*
X151610Y71481D02*
D03*
X146610D02*
D03*
X126610D02*
D03*
X111610D02*
D03*
X106610D02*
D03*
X101610D02*
D03*
X151610Y66481D02*
D03*
X146610D02*
D03*
X126610D02*
D03*
X121610D02*
D03*
X111610D02*
D03*
X106610D02*
D03*
X151610Y61481D02*
D03*
X146610D02*
D03*
X141610D02*
D03*
X131610D02*
D03*
X126610D02*
D03*
X121610D02*
D03*
X83600Y11200D02*
D03*
X87000Y26600D02*
D03*
X83200Y21600D02*
D03*
X83100Y18100D02*
D03*
X90800Y26600D02*
D03*
X81500Y36900D02*
D03*
Y33000D02*
D03*
X82300Y54300D02*
D03*
X85700Y52200D02*
D03*
X101000Y52600D02*
D03*
X109000Y33000D02*
D03*
D55*
X138427Y37289D02*
D03*
X143427D02*
D03*
X148427D02*
D03*
X153427D02*
D03*
X138427Y20281D02*
D03*
X143427D02*
D03*
X148427D02*
D03*
X153427D02*
D03*
X113483Y37289D02*
D03*
X118483D02*
D03*
X123483D02*
D03*
X128483D02*
D03*
X113483Y20281D02*
D03*
X118483D02*
D03*
X123483D02*
D03*
X128483D02*
D03*
X88539Y37289D02*
D03*
X93539D02*
D03*
X98539D02*
D03*
X103539D02*
D03*
X88539Y20281D02*
D03*
X93539D02*
D03*
X98539D02*
D03*
X103539D02*
D03*
X38594Y37289D02*
D03*
X43595D02*
D03*
X48594D02*
D03*
X53594D02*
D03*
X38594Y20281D02*
D03*
X43595D02*
D03*
X48594D02*
D03*
X53594D02*
D03*
X63539Y37289D02*
D03*
X68539D02*
D03*
X73539D02*
D03*
X78539D02*
D03*
X63539Y20281D02*
D03*
X68539D02*
D03*
X73539D02*
D03*
X78539D02*
D03*
M02*
