%FSLAX25Y25*%
%MOIN*%
G70*
G01*
G75*
G04 Layer_Physical_Order=2*
G04 Layer_Color=32768*
%ADD10R,0.04331X0.06693*%
%ADD11R,0.05315X0.11024*%
%ADD12R,0.03543X0.03150*%
%ADD13O,0.08661X0.02362*%
%ADD14O,0.06496X0.02165*%
%ADD15O,0.02165X0.06496*%
%ADD16R,0.21260X0.21850*%
%ADD17R,0.12008X0.03937*%
%ADD18R,0.21850X0.21260*%
%ADD19R,0.03937X0.12008*%
%ADD20R,0.02362X0.04331*%
%ADD21R,0.03937X0.21654*%
%ADD22R,0.05906X0.13386*%
%ADD23R,0.21654X0.03937*%
%ADD24R,0.13386X0.05906*%
%ADD25R,0.06693X0.04331*%
%ADD26R,0.09646X0.10039*%
%ADD27R,0.03347X0.04134*%
%ADD28R,0.01378X0.03937*%
%ADD29C,0.06000*%
%ADD30R,0.03543X0.02756*%
%ADD31R,0.02756X0.03543*%
%ADD32R,0.21850X0.25590*%
%ADD33R,0.04921X0.12008*%
%ADD34R,0.09449X0.06693*%
%ADD35R,0.03150X0.03543*%
%ADD36C,0.02500*%
%ADD37C,0.02000*%
%ADD38C,0.00800*%
%ADD39C,0.01000*%
%ADD40C,0.01200*%
%ADD41C,0.00600*%
%ADD42C,0.04000*%
%ADD43C,0.01500*%
%ADD44C,0.11811*%
%ADD45O,0.11811X0.05906*%
%ADD46O,0.05906X0.11811*%
%ADD47C,0.05906*%
%ADD48C,0.02000*%
%ADD49C,0.02400*%
%ADD50C,0.33896*%
%ADD51C,0.06337*%
%ADD52C,0.04369*%
%ADD53C,0.14998*%
%ADD54C,0.03600*%
D39*
X156500Y70900D02*
X171400D01*
Y62500D02*
Y70900D01*
X164400Y62500D02*
X171400D01*
X164400Y55700D02*
Y62500D01*
X160500Y55700D02*
X164400D01*
X160500Y48900D02*
Y55700D01*
X156500Y48900D02*
X160500D01*
X156500D02*
Y70900D01*
D42*
X79503Y150744D02*
G03*
X79540Y197988I0J23622D01*
G01*
X12610Y252969D02*
G03*
X-11012Y229347I0J-23622D01*
G01*
X202917D02*
G03*
X179295Y252969I-23622J0D01*
G01*
Y881D02*
G03*
X202917Y24503I0J23622D01*
G01*
X-11012D02*
G03*
X12610Y881I23622J0D01*
G01*
X-11012Y24503D02*
Y131453D01*
X42925D01*
Y150801D01*
X79503Y150744D01*
X42925Y197988D02*
X79540D01*
X42925D02*
Y210193D01*
X-11012D02*
X42925D01*
X-11012D02*
Y229347D01*
X12610Y252969D02*
X179295D01*
X202917Y24503D02*
Y229347D01*
X12610Y881D02*
X179295D01*
D50*
X136610Y106481D02*
D03*
D51*
X117800Y191000D02*
D03*
D52*
X118300Y165400D02*
D03*
Y173274D02*
D03*
D53*
X136600Y143800D02*
D03*
X163000Y80000D02*
D03*
X110164Y132927D02*
D03*
X136600Y69100D02*
D03*
X25000Y117300D02*
D03*
D54*
X54500Y245200D02*
D03*
X50500D02*
D03*
X182400Y199100D02*
D03*
X163400Y199700D02*
D03*
X45900Y10100D02*
D03*
X52800Y8900D02*
D03*
X65100Y14900D02*
D03*
X20400Y3600D02*
D03*
X74800Y13600D02*
D03*
X15600Y4700D02*
D03*
X65700Y204300D02*
D03*
X53000Y56900D02*
D03*
X97500Y58100D02*
D03*
X93100Y60500D02*
D03*
X88800Y62800D02*
D03*
X95600Y46600D02*
D03*
X100000Y43100D02*
D03*
X100100Y46700D02*
D03*
X103700Y55700D02*
D03*
X110700Y49000D02*
D03*
X93800Y99000D02*
D03*
X103700Y101600D02*
D03*
X121100Y54200D02*
D03*
X52600Y135600D02*
D03*
X66700Y43000D02*
D03*
X51200Y29100D02*
D03*
X11500Y25300D02*
D03*
X95600Y43100D02*
D03*
X116100Y33200D02*
D03*
X137100Y31400D02*
D03*
X191100Y30900D02*
D03*
X190100Y20800D02*
D03*
X155300Y10500D02*
D03*
X132000Y28800D02*
D03*
X77200Y30400D02*
D03*
X149600Y49700D02*
D03*
X82147Y4547D02*
D03*
X170800Y237100D02*
D03*
X174800Y233100D02*
D03*
X166800D02*
D03*
X170800D02*
D03*
X166800Y237100D02*
D03*
Y241100D02*
D03*
Y245100D02*
D03*
X174800Y237100D02*
D03*
Y241100D02*
D03*
Y245100D02*
D03*
Y249100D02*
D03*
X77900Y42900D02*
D03*
X50700Y50600D02*
D03*
X68635Y7225D02*
D03*
X69732Y29925D02*
D03*
X79300Y45900D02*
D03*
X46600Y201300D02*
D03*
X47800Y58100D02*
D03*
X166800Y249100D02*
D03*
X170800D02*
D03*
X130900Y15100D02*
D03*
X123100Y4700D02*
D03*
X2900Y241100D02*
D03*
X62500Y233200D02*
D03*
X58500Y237200D02*
D03*
Y241200D02*
D03*
Y245200D02*
D03*
Y249200D02*
D03*
X54500D02*
D03*
Y241200D02*
D03*
X86500Y214000D02*
D03*
X143000Y213600D02*
D03*
X50500Y249200D02*
D03*
X62500D02*
D03*
X66500D02*
D03*
Y245200D02*
D03*
X62500D02*
D03*
X50500Y237200D02*
D03*
X54500D02*
D03*
X62500D02*
D03*
X66500D02*
D03*
Y241200D02*
D03*
X62500D02*
D03*
X50500D02*
D03*
X66500Y233200D02*
D03*
X58500D02*
D03*
X54500D02*
D03*
X50500D02*
D03*
X108600Y233500D02*
D03*
X112600D02*
D03*
X116600D02*
D03*
X120600D02*
D03*
X124600D02*
D03*
X108600Y241500D02*
D03*
X112600D02*
D03*
X116600D02*
D03*
X120600D02*
D03*
X124600D02*
D03*
Y237500D02*
D03*
X120600D02*
D03*
X116600D02*
D03*
X112600D02*
D03*
X108600D02*
D03*
Y245500D02*
D03*
X112600D02*
D03*
X116600D02*
D03*
X120600D02*
D03*
X124600D02*
D03*
Y249500D02*
D03*
X120600D02*
D03*
X116600D02*
D03*
X112600D02*
D03*
X108600D02*
D03*
X178800Y233100D02*
D03*
X182800D02*
D03*
X170800Y241100D02*
D03*
X178800D02*
D03*
X182800D02*
D03*
Y237100D02*
D03*
X178800D02*
D03*
X170800Y245100D02*
D03*
X178800D02*
D03*
X182800D02*
D03*
Y249100D02*
D03*
X178800D02*
D03*
X115700Y77000D02*
D03*
X120100Y76900D02*
D03*
X115900Y73500D02*
D03*
X119900Y73600D02*
D03*
X143200Y55800D02*
D03*
X170700Y70200D02*
D03*
X167200D02*
D03*
X163700D02*
D03*
X160200D02*
D03*
X156700D02*
D03*
X170700Y66700D02*
D03*
X156700D02*
D03*
X170700Y63200D02*
D03*
X167200D02*
D03*
X163700D02*
D03*
X156700D02*
D03*
X163700Y59700D02*
D03*
X156700D02*
D03*
X163700Y56200D02*
D03*
X160200D02*
D03*
X156200D02*
D03*
X160200Y52200D02*
D03*
X156200D02*
D03*
X160200Y48200D02*
D03*
X156200D02*
D03*
X177900Y65900D02*
D03*
X186400Y80100D02*
D03*
X189900D02*
D03*
X193400D02*
D03*
X196900D02*
D03*
X186400Y84900D02*
D03*
X189900D02*
D03*
X193400D02*
D03*
X196900D02*
D03*
X126700Y187400D02*
D03*
X131000D02*
D03*
X135300D02*
D03*
X126700Y191500D02*
D03*
X131000D02*
D03*
X135300D02*
D03*
X146100Y187600D02*
D03*
X150400D02*
D03*
X154700D02*
D03*
X146100Y191700D02*
D03*
X150400D02*
D03*
X154700D02*
D03*
X166900Y187600D02*
D03*
X171200D02*
D03*
X175500D02*
D03*
X166900Y191700D02*
D03*
X171200D02*
D03*
X175500D02*
D03*
X186900Y187700D02*
D03*
X191200D02*
D03*
X195500D02*
D03*
X186900Y191800D02*
D03*
X191200D02*
D03*
X195500D02*
D03*
X17600Y36200D02*
D03*
X109000Y33000D02*
D03*
M02*
