%FSLAX25Y25*%
%MOIN*%
G70*
G01*
G75*
G04 Layer_Physical_Order=2*
G04 Layer_Color=32768*
%ADD10R,0.03543X0.02756*%
%ADD11R,0.02756X0.03543*%
%ADD12R,0.03150X0.03543*%
%ADD13R,0.01181X0.02559*%
%ADD14R,0.13780X0.08465*%
%ADD15R,0.05315X0.11024*%
%ADD16R,0.05906X0.13386*%
%ADD17R,0.03937X0.21654*%
%ADD18R,0.03347X0.01378*%
%ADD19R,0.02559X0.01181*%
%ADD20R,0.03543X0.03150*%
%ADD21C,0.03937*%
%ADD22R,0.13386X0.05906*%
%ADD23R,0.17716X0.03937*%
%ADD24R,0.12402X0.12402*%
%ADD25O,0.04134X0.00787*%
%ADD26O,0.00787X0.04134*%
%ADD27O,0.02362X0.08661*%
%ADD28R,0.21654X0.03937*%
%ADD29R,0.02756X0.13583*%
%ADD30R,0.25590X0.05709*%
%ADD31R,0.02362X0.04331*%
%ADD32R,0.01378X0.03543*%
%ADD33R,0.21850X0.21260*%
%ADD34R,0.03937X0.12008*%
%ADD35R,0.02362X0.03543*%
%ADD36R,0.03543X0.02362*%
%ADD37R,0.05118X0.07087*%
%ADD38R,0.07087X0.05118*%
%ADD39O,0.08661X0.02362*%
%ADD40R,0.04528X0.06890*%
%ADD41R,0.09055X0.12205*%
%ADD42R,0.00980X0.04331*%
%ADD43R,0.05000X0.11496*%
%ADD44R,0.11496X0.05000*%
%ADD45R,0.09449X0.06693*%
%ADD46O,0.01181X0.07087*%
%ADD47O,0.07087X0.01181*%
%ADD48R,0.15157X0.20276*%
%ADD49R,0.12205X0.07874*%
%ADD50R,0.03347X0.04134*%
%ADD51R,0.04134X0.03347*%
%ADD52R,0.03937X0.17716*%
%ADD53R,0.12598X0.03937*%
%ADD54R,0.01378X0.03347*%
%ADD55R,0.06890X0.04528*%
%ADD56C,0.00800*%
%ADD57C,0.01200*%
%ADD58C,0.00600*%
%ADD59C,0.02000*%
%ADD60C,0.01000*%
%ADD61C,0.02500*%
%ADD62C,0.01500*%
%ADD63R,0.10255X0.13405*%
%ADD64R,0.05906X0.05906*%
%ADD65C,0.05906*%
%ADD66C,0.23622*%
%ADD67C,0.06000*%
%ADD68C,0.02400*%
%ADD69C,0.04000*%
%ADD70C,0.05943*%
%ADD71C,0.05550*%
%ADD72C,0.03600*%
D69*
X0Y0D02*
X362204D01*
Y334646D01*
X0D02*
X362204D01*
X0Y0D02*
Y334646D01*
D70*
X139900Y6500D02*
D03*
Y16500D02*
D03*
X129900Y6500D02*
D03*
Y16500D02*
D03*
X119900Y6500D02*
D03*
X109900D02*
D03*
Y16500D02*
D03*
X99900D02*
D03*
X89900Y6500D02*
D03*
Y16500D02*
D03*
X79900Y6500D02*
D03*
X69900D02*
D03*
Y16500D02*
D03*
X59900Y6500D02*
D03*
Y16500D02*
D03*
X49900Y6500D02*
D03*
X39900D02*
D03*
Y16500D02*
D03*
X29900Y6500D02*
D03*
Y16500D02*
D03*
X19900D02*
D03*
X212300Y92500D02*
D03*
X202300Y102500D02*
D03*
Y92500D02*
D03*
X192300Y102500D02*
D03*
Y92500D02*
D03*
D71*
X342400Y263605D02*
D03*
D72*
X357600Y248200D02*
D03*
X136200Y107100D02*
D03*
X122200Y109400D02*
D03*
X176700Y95700D02*
D03*
X182200Y105600D02*
D03*
X170900Y114800D02*
D03*
Y111800D02*
D03*
X174100D02*
D03*
X167700Y112900D02*
D03*
X165000Y114500D02*
D03*
X177400Y127500D02*
D03*
X140300Y110000D02*
D03*
X83600Y36100D02*
D03*
X170000Y243600D02*
D03*
X174200Y242700D02*
D03*
X167000Y246000D02*
D03*
X188800Y30900D02*
D03*
X185100D02*
D03*
X181400D02*
D03*
X199900D02*
D03*
X196200D02*
D03*
X192500D02*
D03*
X188800Y34000D02*
D03*
X185100D02*
D03*
X181400D02*
D03*
X166800Y31000D02*
D03*
X199900Y34000D02*
D03*
X196200D02*
D03*
X192500D02*
D03*
X163100Y30900D02*
D03*
X159400D02*
D03*
X155700D02*
D03*
X152000D02*
D03*
X170500Y31000D02*
D03*
X188800Y49000D02*
D03*
X185100D02*
D03*
X181400D02*
D03*
X166800Y46000D02*
D03*
X199900Y49000D02*
D03*
X196200D02*
D03*
X192500D02*
D03*
X163100Y45900D02*
D03*
X159400D02*
D03*
X155700D02*
D03*
X152000D02*
D03*
X170500Y46000D02*
D03*
Y43000D02*
D03*
Y39900D02*
D03*
X152000Y42900D02*
D03*
X155700D02*
D03*
X159400D02*
D03*
X163100D02*
D03*
Y33800D02*
D03*
Y39800D02*
D03*
Y36800D02*
D03*
X159400D02*
D03*
Y39800D02*
D03*
X155700D02*
D03*
X152000D02*
D03*
Y36800D02*
D03*
X155700D02*
D03*
X159400Y33800D02*
D03*
X192500Y46000D02*
D03*
X196200D02*
D03*
X199900D02*
D03*
Y39900D02*
D03*
Y42900D02*
D03*
X196200D02*
D03*
X188800D02*
D03*
X192500D02*
D03*
Y39900D02*
D03*
Y36900D02*
D03*
X196200Y39900D02*
D03*
Y36900D02*
D03*
X199900D02*
D03*
X188800D02*
D03*
X185100Y39900D02*
D03*
Y36900D02*
D03*
X181400Y42900D02*
D03*
X188800Y39900D02*
D03*
X181400D02*
D03*
Y36900D02*
D03*
X170500D02*
D03*
Y33900D02*
D03*
X166800Y36900D02*
D03*
Y33900D02*
D03*
X185100Y42900D02*
D03*
X166800Y39900D02*
D03*
Y43000D02*
D03*
X181400Y46000D02*
D03*
X185100D02*
D03*
X188800D02*
D03*
X152000Y33800D02*
D03*
X155700D02*
D03*
X218544Y262200D02*
D03*
Y272500D02*
D03*
Y269100D02*
D03*
X224800Y229900D02*
D03*
X199400Y256800D02*
D03*
X202400D02*
D03*
X222700Y199400D02*
D03*
X320100Y314900D02*
D03*
X303204Y272000D02*
D03*
X297204D02*
D03*
X303204Y275000D02*
D03*
X294204Y272000D02*
D03*
X297204Y275000D02*
D03*
X303204Y278000D02*
D03*
X294204Y275000D02*
D03*
X297204Y278000D02*
D03*
X303204Y281000D02*
D03*
X294204Y278000D02*
D03*
X297204Y281000D02*
D03*
X303204Y284000D02*
D03*
X294204Y281000D02*
D03*
X297204Y284000D02*
D03*
X303204Y287000D02*
D03*
X294204Y284000D02*
D03*
X297204Y287000D02*
D03*
X306204D02*
D03*
Y284000D02*
D03*
Y281000D02*
D03*
Y278000D02*
D03*
Y275000D02*
D03*
X303204Y269000D02*
D03*
X306204Y272000D02*
D03*
X294328Y286700D02*
D03*
X312500Y314600D02*
D03*
X300204Y281000D02*
D03*
Y284000D02*
D03*
Y287000D02*
D03*
X280100Y244600D02*
D03*
X304400Y314400D02*
D03*
X296600Y314000D02*
D03*
X272100Y276800D02*
D03*
X279500Y262300D02*
D03*
X223600Y211100D02*
D03*
X221700Y177800D02*
D03*
X202200Y225700D02*
D03*
X130400Y268800D02*
D03*
X48500Y268900D02*
D03*
X218544Y258800D02*
D03*
Y265700D02*
D03*
X162400Y77400D02*
D03*
X267900Y65100D02*
D03*
X260300Y61781D02*
D03*
X233700Y191500D02*
D03*
X177800Y53400D02*
D03*
X180800D02*
D03*
X183800D02*
D03*
X186800D02*
D03*
X189800D02*
D03*
X192800D02*
D03*
X195800D02*
D03*
X177800Y56400D02*
D03*
X180800D02*
D03*
X183800D02*
D03*
X186800D02*
D03*
X189800D02*
D03*
X192800D02*
D03*
X195800D02*
D03*
X180800Y59400D02*
D03*
X183800D02*
D03*
X186800D02*
D03*
X189800D02*
D03*
X192800D02*
D03*
X195800D02*
D03*
X186800Y62400D02*
D03*
X189800D02*
D03*
X192800D02*
D03*
X195800D02*
D03*
X189800Y65400D02*
D03*
X192800D02*
D03*
X195800D02*
D03*
X186800Y68400D02*
D03*
X192800D02*
D03*
X195800D02*
D03*
X192800Y71400D02*
D03*
X195800D02*
D03*
X166100Y134800D02*
D03*
X180400Y142600D02*
D03*
X176100Y142700D02*
D03*
X168300Y140700D02*
D03*
Y137700D02*
D03*
X165100D02*
D03*
X161500Y195800D02*
D03*
X174400Y169000D02*
D03*
Y166000D02*
D03*
Y163000D02*
D03*
Y160000D02*
D03*
X177700Y156700D02*
D03*
X181000Y156800D02*
D03*
X177700Y162700D02*
D03*
X181000Y162800D02*
D03*
X177700Y165700D02*
D03*
X181000Y165800D02*
D03*
Y168800D02*
D03*
X177700Y168700D02*
D03*
X174100Y114800D02*
D03*
X154000Y111900D02*
D03*
X157200D02*
D03*
X154000Y114900D02*
D03*
X157200D02*
D03*
Y117900D02*
D03*
X154000D02*
D03*
X279800Y97400D02*
D03*
X263400Y138100D02*
D03*
X263300Y133400D02*
D03*
X261100Y136200D02*
D03*
X261300Y140700D02*
D03*
X265800Y143000D02*
D03*
X283900Y141800D02*
D03*
X280900Y142400D02*
D03*
X282600Y144500D02*
D03*
X279200D02*
D03*
X277100Y97400D02*
D03*
X257000Y103500D02*
D03*
X342500Y111000D02*
D03*
Y114000D02*
D03*
Y117000D02*
D03*
Y120000D02*
D03*
Y123000D02*
D03*
Y126000D02*
D03*
Y129000D02*
D03*
Y132000D02*
D03*
Y135000D02*
D03*
Y138000D02*
D03*
X134000Y38500D02*
D03*
X130500D02*
D03*
X127200Y38400D02*
D03*
X123700D02*
D03*
X120300D02*
D03*
X112900Y26300D02*
D03*
X71400Y235600D02*
D03*
X61000Y75000D02*
D03*
X63100Y77500D02*
D03*
X63700Y74800D02*
D03*
X63400Y94600D02*
D03*
X60700Y94800D02*
D03*
X62800Y97300D02*
D03*
X85400Y97800D02*
D03*
X81500D02*
D03*
X82700Y94700D02*
D03*
X99400Y97700D02*
D03*
X103600D02*
D03*
Y94360D02*
D03*
X99400D02*
D03*
X103600Y91020D02*
D03*
X99400D02*
D03*
X103600Y87680D02*
D03*
X99400D02*
D03*
X103600Y81000D02*
D03*
X99400D02*
D03*
X103600Y77660D02*
D03*
X99400D02*
D03*
X103600Y74320D02*
D03*
X99400D02*
D03*
X117600Y72940D02*
D03*
X121800D02*
D03*
X117600Y76680D02*
D03*
X121800D02*
D03*
X117600Y80420D02*
D03*
X121800D02*
D03*
Y84160D02*
D03*
X117600D02*
D03*
X108800Y83520D02*
D03*
Y80180D02*
D03*
Y76840D02*
D03*
Y73500D02*
D03*
X71400Y72000D02*
D03*
X63400Y117900D02*
D03*
X61300Y115400D02*
D03*
X64000Y115200D02*
D03*
X63700Y135000D02*
D03*
X61000Y135200D02*
D03*
X63100Y137700D02*
D03*
X84800Y138300D02*
D03*
X81800Y138200D02*
D03*
X83000Y135100D02*
D03*
X99700Y138100D02*
D03*
X103900D02*
D03*
Y134760D02*
D03*
X99700D02*
D03*
X103900Y131420D02*
D03*
X99700D02*
D03*
Y124740D02*
D03*
X103900Y121400D02*
D03*
X99700D02*
D03*
Y118060D02*
D03*
X103900Y114720D02*
D03*
X99700D02*
D03*
X117900Y112840D02*
D03*
X122300D02*
D03*
X117900Y116580D02*
D03*
X122300D02*
D03*
X117900Y120320D02*
D03*
X122300D02*
D03*
Y124060D02*
D03*
X117900D02*
D03*
X117733Y109400D02*
D03*
X113267D02*
D03*
X108800D02*
D03*
X109100Y123920D02*
D03*
Y120580D02*
D03*
Y117240D02*
D03*
Y113900D02*
D03*
X71700Y113300D02*
D03*
X63100Y159300D02*
D03*
X61000Y156800D02*
D03*
X63700Y156600D02*
D03*
X63400Y176400D02*
D03*
X60700Y176600D02*
D03*
X62800Y179100D02*
D03*
X85400Y179600D02*
D03*
X81500D02*
D03*
X82700Y176500D02*
D03*
X99400Y179500D02*
D03*
X103600D02*
D03*
Y176160D02*
D03*
X99400D02*
D03*
X103600Y172820D02*
D03*
X99400D02*
D03*
X103600Y169480D02*
D03*
X99400D02*
D03*
X103600Y162800D02*
D03*
X99400D02*
D03*
X103600Y159460D02*
D03*
X99400D02*
D03*
X103600Y156120D02*
D03*
X99400D02*
D03*
X119300Y150800D02*
D03*
X122900D02*
D03*
X118600Y154940D02*
D03*
X122900D02*
D03*
X118600Y158480D02*
D03*
X122900D02*
D03*
X118600Y162020D02*
D03*
X122900D02*
D03*
Y165560D02*
D03*
X118600D02*
D03*
X115700Y150800D02*
D03*
X112100D02*
D03*
X108500D02*
D03*
X108800Y165320D02*
D03*
Y161980D02*
D03*
Y158640D02*
D03*
Y155300D02*
D03*
X71400Y153800D02*
D03*
X63100Y200200D02*
D03*
X61000Y197700D02*
D03*
X63700Y197500D02*
D03*
X63400Y217300D02*
D03*
X60700Y217500D02*
D03*
X62800Y220000D02*
D03*
X85400Y220500D02*
D03*
X81500D02*
D03*
X82700Y217400D02*
D03*
X99400Y220400D02*
D03*
X103600D02*
D03*
Y217060D02*
D03*
X99400D02*
D03*
X103600Y213720D02*
D03*
X99400D02*
D03*
X103600Y203700D02*
D03*
X99400D02*
D03*
X103600Y200360D02*
D03*
X99400D02*
D03*
X103600Y197020D02*
D03*
X99400D02*
D03*
X118600Y192300D02*
D03*
X122800D02*
D03*
X118600Y195940D02*
D03*
X122800D02*
D03*
X118600Y199580D02*
D03*
X122800D02*
D03*
X118600Y203220D02*
D03*
X122800D02*
D03*
Y206860D02*
D03*
X118600D02*
D03*
X115400Y192300D02*
D03*
X112200D02*
D03*
X108500Y191700D02*
D03*
X108800Y206220D02*
D03*
Y202880D02*
D03*
Y199540D02*
D03*
Y196200D02*
D03*
X71400Y194700D02*
D03*
X108800Y237100D02*
D03*
Y240440D02*
D03*
Y243780D02*
D03*
Y247120D02*
D03*
X108500Y232600D02*
D03*
X112200Y233200D02*
D03*
X115400D02*
D03*
X118600Y247660D02*
D03*
X123000D02*
D03*
Y243920D02*
D03*
X118600D02*
D03*
X123000Y240180D02*
D03*
X118600D02*
D03*
X123000Y236440D02*
D03*
X118600D02*
D03*
X123000Y232700D02*
D03*
X118600D02*
D03*
X99400Y237920D02*
D03*
X103600D02*
D03*
X99400Y241260D02*
D03*
X103600D02*
D03*
X99400Y244600D02*
D03*
X103600D02*
D03*
X99400Y254620D02*
D03*
X103600D02*
D03*
X99400Y257960D02*
D03*
X103600D02*
D03*
Y261300D02*
D03*
X99400D02*
D03*
X62400Y272500D02*
D03*
X56700Y270200D02*
D03*
X60400D02*
D03*
X58500Y272500D02*
D03*
X54900D02*
D03*
X53100Y270100D02*
D03*
X51500Y272500D02*
D03*
X82700Y258300D02*
D03*
X81500Y261400D02*
D03*
X85400D02*
D03*
X336204Y251000D02*
D03*
X321204D02*
D03*
X318204D02*
D03*
Y254000D02*
D03*
X336204Y269000D02*
D03*
X333204D02*
D03*
X330204D02*
D03*
X327204D02*
D03*
X324204D02*
D03*
X321204D02*
D03*
X318204D02*
D03*
X336204Y272000D02*
D03*
X333204D02*
D03*
X330204D02*
D03*
X327204D02*
D03*
X324204D02*
D03*
X321204D02*
D03*
X318204D02*
D03*
X336204Y275000D02*
D03*
X333204D02*
D03*
X330204D02*
D03*
X327204D02*
D03*
X324204D02*
D03*
X321204D02*
D03*
X318204D02*
D03*
X336204Y278000D02*
D03*
X333204D02*
D03*
X330204D02*
D03*
X327204D02*
D03*
X324204D02*
D03*
X321204D02*
D03*
X318204D02*
D03*
X336204Y281000D02*
D03*
X333204D02*
D03*
X330204D02*
D03*
X327204D02*
D03*
X324204D02*
D03*
X321204D02*
D03*
X318204D02*
D03*
X336204Y284000D02*
D03*
X333204D02*
D03*
X330204D02*
D03*
X327204D02*
D03*
X324204D02*
D03*
X321204D02*
D03*
X318204D02*
D03*
X336204Y287000D02*
D03*
X333204D02*
D03*
X330204D02*
D03*
X327204D02*
D03*
X324204D02*
D03*
X321204D02*
D03*
X318204D02*
D03*
X315204D02*
D03*
Y284000D02*
D03*
Y281000D02*
D03*
Y278000D02*
D03*
Y275000D02*
D03*
Y272000D02*
D03*
Y269000D02*
D03*
X312204Y287000D02*
D03*
Y284000D02*
D03*
Y281000D02*
D03*
Y278000D02*
D03*
Y275000D02*
D03*
Y272000D02*
D03*
Y269000D02*
D03*
X309204Y287000D02*
D03*
Y284000D02*
D03*
Y281000D02*
D03*
Y278000D02*
D03*
Y275000D02*
D03*
Y272000D02*
D03*
Y269000D02*
D03*
X306204D02*
D03*
X300204Y278000D02*
D03*
Y275000D02*
D03*
Y272000D02*
D03*
X318204Y242000D02*
D03*
X324204D02*
D03*
Y251000D02*
D03*
X330204D02*
D03*
X336204Y242000D02*
D03*
X333204Y251000D02*
D03*
X327204D02*
D03*
X330204Y242000D02*
D03*
X321204D02*
D03*
X327204D02*
D03*
X333204D02*
D03*
X336204Y245000D02*
D03*
X333204D02*
D03*
X330204D02*
D03*
X327204D02*
D03*
X324204D02*
D03*
X321204D02*
D03*
X318204D02*
D03*
Y248000D02*
D03*
X321204D02*
D03*
X324204D02*
D03*
X327204D02*
D03*
X330204D02*
D03*
X336204D02*
D03*
X333204D02*
D03*
X136500Y206500D02*
D03*
X132100Y194900D02*
D03*
X138700Y148500D02*
D03*
X135900Y145400D02*
D03*
X131500Y146100D02*
D03*
X129200Y136300D02*
D03*
X129000Y132500D02*
D03*
X192700Y172200D02*
D03*
X236700Y203500D02*
D03*
X239700D02*
D03*
X233700D02*
D03*
X242700D02*
D03*
X233700Y194500D02*
D03*
Y197500D02*
D03*
Y200500D02*
D03*
X236700Y194500D02*
D03*
Y197500D02*
D03*
Y200500D02*
D03*
X239700Y197500D02*
D03*
Y200500D02*
D03*
X242700Y197500D02*
D03*
Y200500D02*
D03*
X160600Y93400D02*
D03*
X292500Y124900D02*
D03*
X147900Y213000D02*
D03*
X149100Y159300D02*
D03*
X29600Y288600D02*
D03*
X42200Y288800D02*
D03*
X36000Y308900D02*
D03*
X336204Y260000D02*
D03*
Y254000D02*
D03*
X333204Y260000D02*
D03*
Y254000D02*
D03*
X330204D02*
D03*
Y260000D02*
D03*
X327204D02*
D03*
Y254000D02*
D03*
X324204D02*
D03*
X321204D02*
D03*
X324204Y260000D02*
D03*
X321204D02*
D03*
X318204D02*
D03*
Y257000D02*
D03*
X321204D02*
D03*
X318204Y266000D02*
D03*
X324204Y257000D02*
D03*
X321204Y266000D02*
D03*
X327204Y257000D02*
D03*
X324204Y266000D02*
D03*
X330204Y257000D02*
D03*
X327204Y266000D02*
D03*
X333204Y257000D02*
D03*
X330204Y266000D02*
D03*
X336204Y257000D02*
D03*
Y266000D02*
D03*
X333204D02*
D03*
X245300Y94600D02*
D03*
X39000Y293000D02*
D03*
X25300Y294500D02*
D03*
X48700Y288900D02*
D03*
X71800Y288100D02*
D03*
X62500Y303400D02*
D03*
X49300Y307000D02*
D03*
X127500Y266200D02*
D03*
X174500Y135300D02*
D03*
X169800Y150900D02*
D03*
X172900Y131900D02*
D03*
X136300Y226300D02*
D03*
X195400Y227100D02*
D03*
X234100Y329600D02*
D03*
X237700Y281400D02*
D03*
X200000Y172900D02*
D03*
X204400Y171800D02*
D03*
X295000Y263100D02*
D03*
X242100Y281000D02*
D03*
X267500Y301300D02*
D03*
X213600Y123300D02*
D03*
X201175Y194700D02*
D03*
X204500Y194400D02*
D03*
X206600Y192200D02*
D03*
X217000Y183000D02*
D03*
X287400Y146000D02*
D03*
X224800Y189800D02*
D03*
X260300Y112200D02*
D03*
X316300Y112900D02*
D03*
X186200Y162500D02*
D03*
X184300Y87200D02*
D03*
X307800Y228200D02*
D03*
X295100Y223700D02*
D03*
X291500Y161500D02*
D03*
X285800Y185900D02*
D03*
X307800Y162000D02*
D03*
X55682Y317900D02*
D03*
X19765Y300565D02*
D03*
X17643Y298443D02*
D03*
X20742Y308187D02*
D03*
X19043Y305643D02*
D03*
X22000Y295600D02*
D03*
X28000Y282600D02*
D03*
X62800Y260900D02*
D03*
X60700Y258400D02*
D03*
X63400Y258200D02*
D03*
X63700Y238400D02*
D03*
X61000Y238600D02*
D03*
X63100Y241100D02*
D03*
X36600Y286100D02*
D03*
X138500Y212300D02*
D03*
X140700Y175000D02*
D03*
X133300Y189100D02*
D03*
X144200Y199800D02*
D03*
Y190600D02*
D03*
X140600Y192800D02*
D03*
X144000Y184000D02*
D03*
X141500Y186800D02*
D03*
X146500Y173200D02*
D03*
X168783Y127983D02*
D03*
X165600Y77400D02*
D03*
Y80400D02*
D03*
X162400D02*
D03*
X159300Y85700D02*
D03*
X84000Y44200D02*
D03*
X140900Y141000D02*
D03*
X133200Y138500D02*
D03*
X189100Y109200D02*
D03*
X291300Y90800D02*
D03*
X275500Y54900D02*
D03*
X254700Y83500D02*
D03*
X257500Y79800D02*
D03*
X305900Y56900D02*
D03*
X260400Y91100D02*
D03*
X267753Y153700D02*
D03*
X241000Y158000D02*
D03*
X247700Y158500D02*
D03*
X177700Y159700D02*
D03*
X181000Y159800D02*
D03*
X167700Y153100D02*
D03*
X167200Y157300D02*
D03*
X204000Y140300D02*
D03*
Y143500D02*
D03*
X202200Y153400D02*
D03*
X189800Y68400D02*
D03*
X186800Y65400D02*
D03*
Y71400D02*
D03*
X189800D02*
D03*
X158900Y179700D02*
D03*
X212000Y186700D02*
D03*
X212400Y197500D02*
D03*
X199000Y110400D02*
D03*
X196100Y113200D02*
D03*
X196500Y83400D02*
D03*
X193400Y109600D02*
D03*
X198400Y97600D02*
D03*
X147300Y318700D02*
D03*
X143600D02*
D03*
X180500Y327900D02*
D03*
X176800D02*
D03*
X173100D02*
D03*
X158400D02*
D03*
Y324800D02*
D03*
X176800D02*
D03*
X158400Y318800D02*
D03*
Y321800D02*
D03*
X162100Y318800D02*
D03*
Y321800D02*
D03*
X173100Y318800D02*
D03*
Y321800D02*
D03*
X180500D02*
D03*
X173100Y324800D02*
D03*
X176800Y318800D02*
D03*
Y321800D02*
D03*
X180500Y318800D02*
D03*
X191600D02*
D03*
X187900D02*
D03*
Y321800D02*
D03*
X184200Y318800D02*
D03*
Y321800D02*
D03*
Y324800D02*
D03*
X180500D02*
D03*
X187900D02*
D03*
X191600D02*
D03*
Y321800D02*
D03*
Y327900D02*
D03*
X187900D02*
D03*
X184200D02*
D03*
X151000Y318700D02*
D03*
X147300Y321700D02*
D03*
X143600D02*
D03*
Y324700D02*
D03*
X147300D02*
D03*
X151000D02*
D03*
Y321700D02*
D03*
X154700D02*
D03*
Y324700D02*
D03*
Y318700D02*
D03*
Y327800D02*
D03*
X151000D02*
D03*
X147300D02*
D03*
X143600D02*
D03*
X162100Y324800D02*
D03*
Y327900D02*
D03*
Y330900D02*
D03*
X143600Y330800D02*
D03*
X147300D02*
D03*
X151000D02*
D03*
X154700D02*
D03*
X184200Y330900D02*
D03*
X187900D02*
D03*
X191600D02*
D03*
X158400D02*
D03*
X173100D02*
D03*
X176800D02*
D03*
X180500D02*
D03*
X162100Y315900D02*
D03*
X143600Y315800D02*
D03*
X147300D02*
D03*
X151000D02*
D03*
X154700D02*
D03*
X184200Y315900D02*
D03*
X187900D02*
D03*
X191600D02*
D03*
X158400D02*
D03*
X173100D02*
D03*
X176800D02*
D03*
X180500D02*
D03*
X184200Y312800D02*
D03*
X187900D02*
D03*
X191600D02*
D03*
X173100D02*
D03*
X176800D02*
D03*
X180500D02*
D03*
X290300Y75300D02*
D03*
X269900Y72600D02*
D03*
X299900Y79800D02*
D03*
X274200Y97300D02*
D03*
X191300Y131300D02*
D03*
X164500Y143200D02*
D03*
X202200Y132700D02*
D03*
X208300Y134800D02*
D03*
X199500Y130400D02*
D03*
X196500Y131600D02*
D03*
X206500Y137800D02*
D03*
X176000Y210800D02*
D03*
Y207800D02*
D03*
Y204800D02*
D03*
X100400Y47600D02*
D03*
X249300Y151300D02*
D03*
X249800Y101300D02*
D03*
X103900Y118060D02*
D03*
Y124740D02*
D03*
X103600Y210380D02*
D03*
X99400D02*
D03*
Y251280D02*
D03*
X103600D02*
D03*
X170600Y163300D02*
D03*
X206700Y131200D02*
D03*
X227800Y184800D02*
D03*
X236700Y191500D02*
D03*
X239700Y194500D02*
D03*
X242700D02*
D03*
X222500Y171900D02*
D03*
X232800Y182000D02*
D03*
X242700Y191500D02*
D03*
X239700D02*
D03*
X222700Y196300D02*
D03*
X219700Y199400D02*
D03*
Y196300D02*
D03*
X262500Y251100D02*
D03*
X288159Y251041D02*
D03*
X265670Y272867D02*
D03*
X264300Y264500D02*
D03*
X263500Y267400D02*
D03*
X258700Y269800D02*
D03*
X265800Y41000D02*
D03*
X258400Y265100D02*
D03*
X242300Y109900D02*
D03*
X262500Y257000D02*
D03*
X243100Y256100D02*
D03*
X249300Y248900D02*
D03*
X249700Y256100D02*
D03*
Y244700D02*
D03*
X242000Y240900D02*
D03*
X72900Y274000D02*
D03*
X139200Y248100D02*
D03*
Y251440D02*
D03*
X103660Y279300D02*
D03*
X107000D02*
D03*
X87860Y293100D02*
D03*
X91200D02*
D03*
M02*
