%FSLAX25Y25*%
%MOIN*%
G70*
G01*
G75*
G04 Layer_Physical_Order=4*
G04 Layer_Color=16711680*
%ADD10R,0.03543X0.02756*%
%ADD11R,0.02756X0.03543*%
%ADD12R,0.03150X0.03543*%
%ADD13R,0.01181X0.02559*%
%ADD14R,0.13780X0.08465*%
%ADD15R,0.05315X0.11024*%
%ADD16R,0.05906X0.13386*%
%ADD17R,0.03937X0.21654*%
%ADD18R,0.03347X0.01378*%
%ADD19R,0.02559X0.01181*%
%ADD20R,0.03543X0.03150*%
%ADD21C,0.03937*%
%ADD22R,0.13386X0.05906*%
%ADD23R,0.17716X0.03937*%
%ADD24R,0.12402X0.12402*%
%ADD25O,0.04134X0.00787*%
%ADD26O,0.00787X0.04134*%
%ADD27O,0.02362X0.08661*%
%ADD28R,0.21654X0.03937*%
%ADD29R,0.02756X0.13583*%
%ADD30R,0.25590X0.05709*%
%ADD31R,0.02362X0.04331*%
%ADD32R,0.01378X0.03543*%
%ADD33R,0.21850X0.21260*%
%ADD34R,0.03937X0.12008*%
%ADD35R,0.02362X0.03543*%
%ADD36R,0.03543X0.02362*%
%ADD37R,0.05118X0.07087*%
%ADD38R,0.07087X0.05118*%
%ADD39O,0.08661X0.02362*%
%ADD40R,0.04528X0.06890*%
%ADD41R,0.09055X0.12205*%
%ADD42R,0.00980X0.04331*%
%ADD43R,0.05000X0.11496*%
%ADD44R,0.11496X0.05000*%
%ADD45R,0.09449X0.06693*%
%ADD46O,0.01181X0.07087*%
%ADD47O,0.07087X0.01181*%
%ADD48R,0.15157X0.20276*%
%ADD49R,0.12205X0.07874*%
%ADD50R,0.03347X0.04134*%
%ADD51R,0.04134X0.03347*%
%ADD52R,0.03937X0.17716*%
%ADD53R,0.12598X0.03937*%
%ADD54R,0.01378X0.03347*%
%ADD55R,0.06890X0.04528*%
%ADD56C,0.00800*%
%ADD57C,0.01200*%
%ADD58C,0.00600*%
%ADD59C,0.02000*%
%ADD60C,0.01000*%
%ADD61C,0.02500*%
%ADD62C,0.01500*%
%ADD63R,0.10255X0.13405*%
%ADD64R,0.05906X0.05906*%
%ADD65C,0.05906*%
%ADD66C,0.23622*%
%ADD67C,0.06000*%
%ADD68C,0.02400*%
%ADD69C,0.04000*%
%ADD70C,0.05943*%
%ADD71C,0.05550*%
%ADD72C,0.03600*%
%ADD73C,0.14998*%
G36*
X223982Y194600D02*
X217900D01*
Y201500D01*
X223982D01*
Y194600D01*
D02*
G37*
G36*
X309600Y194300D02*
X287600D01*
Y208400D01*
X309600D01*
Y194300D01*
D02*
G37*
G36*
X203400Y28300D02*
X149200D01*
Y49100D01*
Y49732D01*
X150868Y51400D01*
X203400D01*
Y28300D01*
D02*
G37*
G36*
X79665Y261400D02*
X79804Y260698D01*
X80202Y260102D01*
X80798Y259704D01*
X80953Y259674D01*
X81144Y259212D01*
X81004Y259002D01*
X80865Y258300D01*
X81004Y257598D01*
X81402Y257002D01*
X81998Y256604D01*
X82700Y256465D01*
X83402Y256604D01*
X83998Y257002D01*
X84396Y257598D01*
X84535Y258300D01*
X84396Y259002D01*
X84016Y259570D01*
X84370Y259924D01*
X84698Y259704D01*
X85400Y259565D01*
X85700Y259318D01*
Y222582D01*
X85400Y222335D01*
X84698Y222196D01*
X84102Y221798D01*
X83704Y221202D01*
X83700Y221180D01*
X83200D01*
X83196Y221202D01*
X82798Y221798D01*
X82202Y222196D01*
X81500Y222335D01*
X80798Y222196D01*
X80202Y221798D01*
X79804Y221202D01*
X79665Y220500D01*
X79804Y219798D01*
X80202Y219202D01*
X80798Y218804D01*
X80953Y218774D01*
X81144Y218312D01*
X81004Y218102D01*
X80865Y217400D01*
X81004Y216698D01*
X81402Y216102D01*
X81998Y215704D01*
X82700Y215565D01*
X83402Y215704D01*
X83998Y216102D01*
X84396Y216698D01*
X84535Y217400D01*
X84396Y218102D01*
X84016Y218670D01*
X84370Y219023D01*
X84698Y218804D01*
X85400Y218665D01*
X85700Y218419D01*
Y181682D01*
X85400Y181435D01*
X84698Y181296D01*
X84102Y180898D01*
X83704Y180302D01*
X83700Y180280D01*
X83200D01*
X83196Y180302D01*
X82798Y180898D01*
X82202Y181296D01*
X81500Y181435D01*
X80798Y181296D01*
X80202Y180898D01*
X79804Y180302D01*
X79665Y179600D01*
X79804Y178898D01*
X80202Y178302D01*
X80798Y177904D01*
X80953Y177874D01*
X81144Y177412D01*
X81004Y177202D01*
X80865Y176500D01*
X81004Y175798D01*
X81402Y175202D01*
X81998Y174804D01*
X82700Y174665D01*
X83402Y174804D01*
X83998Y175202D01*
X84396Y175798D01*
X84535Y176500D01*
X84396Y177202D01*
X84016Y177770D01*
X84370Y178123D01*
X84698Y177904D01*
X85400Y177765D01*
X85700Y177518D01*
Y140350D01*
X85313Y140033D01*
X84800Y140135D01*
X84098Y139996D01*
X83502Y139598D01*
X83502Y139598D01*
Y139598D01*
X83098Y139498D01*
D01*
X82502Y139896D01*
X81800Y140035D01*
X81098Y139896D01*
X80502Y139498D01*
X80104Y138902D01*
X79965Y138200D01*
X80104Y137498D01*
X80502Y136902D01*
X81098Y136504D01*
X81253Y136474D01*
X81444Y136012D01*
X81304Y135802D01*
X81165Y135100D01*
X81304Y134398D01*
X81702Y133802D01*
X82298Y133404D01*
X83000Y133265D01*
X83702Y133404D01*
X84298Y133802D01*
X84696Y134398D01*
X84835Y135100D01*
X84696Y135802D01*
X84675Y135834D01*
X84800Y136465D01*
X85313Y136567D01*
X85700Y136250D01*
Y99882D01*
X85400Y99635D01*
X84698Y99496D01*
X84102Y99098D01*
X83704Y98502D01*
X83700Y98480D01*
X83200D01*
X83196Y98502D01*
X82798Y99098D01*
X82202Y99496D01*
X81500Y99635D01*
X80798Y99496D01*
X80202Y99098D01*
X79804Y98502D01*
X79665Y97800D01*
X79804Y97098D01*
X80202Y96502D01*
X80798Y96104D01*
X80953Y96074D01*
X81144Y95612D01*
X81004Y95402D01*
X80865Y94700D01*
X81004Y93998D01*
X81402Y93402D01*
X81998Y93004D01*
X82700Y92865D01*
X83402Y93004D01*
X83998Y93402D01*
X84396Y93998D01*
X84535Y94700D01*
X84396Y95402D01*
X84016Y95970D01*
X84370Y96324D01*
X84698Y96104D01*
X85400Y95965D01*
X85700Y95718D01*
Y73500D01*
X85001Y73300D01*
X72694D01*
X72102Y73696D01*
X71400Y73835D01*
X70698Y73696D01*
X70106Y73300D01*
X65393D01*
X65157Y73741D01*
X65396Y74098D01*
X65535Y74800D01*
X65396Y75502D01*
X64998Y76098D01*
X64829Y76211D01*
X64731Y76701D01*
X64796Y76798D01*
X64935Y77500D01*
X64796Y78202D01*
X64398Y78798D01*
X63802Y79196D01*
X63100Y79335D01*
X62398Y79196D01*
X61802Y78798D01*
X61404Y78202D01*
X61265Y77500D01*
X61404Y76798D01*
D01*
X61000Y76835D01*
D01*
X61000Y76835D01*
Y76835D01*
X60298Y76696D01*
X59702Y76298D01*
X59304Y75702D01*
X59165Y75000D01*
X59304Y74298D01*
X59676Y73741D01*
X59470Y73354D01*
X59434Y73300D01*
X1223D01*
Y261700D01*
X60730D01*
X61047Y261314D01*
X60965Y260900D01*
X61104Y260198D01*
D01*
X60700Y260235D01*
D01*
X60700Y260235D01*
Y260235D01*
X59998Y260096D01*
X59402Y259698D01*
X59004Y259102D01*
X58865Y258400D01*
X59004Y257698D01*
X59402Y257102D01*
X59998Y256704D01*
X60700Y256565D01*
X61402Y256704D01*
X61791Y256964D01*
X62102Y256902D01*
X62698Y256504D01*
X63400Y256365D01*
X64102Y256504D01*
X64698Y256902D01*
X65096Y257498D01*
X65235Y258200D01*
X65096Y258902D01*
X64698Y259498D01*
X64235Y259807D01*
X64496Y260198D01*
X64635Y260900D01*
X64553Y261314D01*
X64870Y261700D01*
X79418D01*
X79665Y261400D01*
D02*
G37*
G36*
X203900Y253200D02*
X197800D01*
Y258500D01*
X203900D01*
Y253200D01*
D02*
G37*
G36*
X193600Y311100D02*
X171998D01*
X170249Y312849D01*
X169951Y313048D01*
X169600Y313118D01*
X141100D01*
Y333300D01*
X193600D01*
Y311100D01*
D02*
G37*
%LPC*%
G36*
X71400Y155635D02*
X70698Y155496D01*
X70102Y155098D01*
X69704Y154502D01*
X69565Y153800D01*
X69704Y153098D01*
X70102Y152502D01*
X70698Y152104D01*
X71400Y151965D01*
X72102Y152104D01*
X72698Y152502D01*
X73096Y153098D01*
X73235Y153800D01*
X73096Y154502D01*
X72698Y155098D01*
X72102Y155496D01*
X71400Y155635D01*
D02*
G37*
G36*
X63100Y139535D02*
X62398Y139396D01*
X61802Y138998D01*
X61404Y138402D01*
X61265Y137700D01*
X61404Y136998D01*
D01*
X61000Y137035D01*
D01*
X61000Y137035D01*
Y137035D01*
X60298Y136896D01*
X59702Y136498D01*
X59304Y135902D01*
X59165Y135200D01*
X59304Y134498D01*
X59702Y133902D01*
X60298Y133504D01*
X61000Y133365D01*
X61702Y133504D01*
X62091Y133764D01*
X62402Y133702D01*
X62998Y133304D01*
X63700Y133165D01*
X64402Y133304D01*
X64998Y133702D01*
X65396Y134298D01*
X65535Y135000D01*
X65396Y135702D01*
X64998Y136298D01*
X64829Y136411D01*
X64731Y136901D01*
X64796Y136998D01*
X64935Y137700D01*
X64796Y138402D01*
X64398Y138998D01*
X63802Y139396D01*
X63100Y139535D01*
D02*
G37*
G36*
X62800Y99135D02*
X62098Y98996D01*
X61502Y98598D01*
X61104Y98002D01*
X60965Y97300D01*
X61104Y96598D01*
D01*
X60700Y96635D01*
D01*
X60700Y96635D01*
Y96635D01*
X59998Y96496D01*
X59402Y96098D01*
X59004Y95502D01*
X58865Y94800D01*
X59004Y94098D01*
X59402Y93502D01*
X59998Y93104D01*
X60700Y92965D01*
X61402Y93104D01*
X61791Y93364D01*
X62102Y93302D01*
X62698Y92904D01*
X63400Y92765D01*
X64102Y92904D01*
X64698Y93302D01*
X65096Y93898D01*
X65235Y94600D01*
X65096Y95302D01*
X64698Y95898D01*
X64529Y96011D01*
X64431Y96501D01*
X64496Y96598D01*
X64635Y97300D01*
X64496Y98002D01*
X64098Y98598D01*
X63502Y98996D01*
X62800Y99135D01*
D02*
G37*
G36*
X71700Y115135D02*
X70998Y114996D01*
X70402Y114598D01*
X70004Y114002D01*
X69865Y113300D01*
X70004Y112598D01*
X70402Y112002D01*
X70998Y111604D01*
X71700Y111465D01*
X72402Y111604D01*
X72998Y112002D01*
X73396Y112598D01*
X73535Y113300D01*
X73396Y114002D01*
X72998Y114598D01*
X72402Y114996D01*
X71700Y115135D01*
D02*
G37*
G36*
X63400Y119735D02*
X62698Y119596D01*
X62102Y119198D01*
X61704Y118602D01*
X61565Y117900D01*
X61704Y117198D01*
D01*
X61300Y117235D01*
D01*
X61300Y117235D01*
Y117235D01*
X60598Y117096D01*
X60002Y116698D01*
X59604Y116102D01*
X59465Y115400D01*
X59604Y114698D01*
X60002Y114102D01*
X60598Y113704D01*
X61300Y113565D01*
X62002Y113704D01*
X62391Y113964D01*
X62702Y113902D01*
X63298Y113504D01*
X64000Y113365D01*
X64702Y113504D01*
X65298Y113902D01*
X65696Y114498D01*
X65835Y115200D01*
X65696Y115902D01*
X65298Y116498D01*
X65129Y116611D01*
X65031Y117101D01*
X65096Y117198D01*
X65235Y117900D01*
X65096Y118602D01*
X64698Y119198D01*
X64102Y119596D01*
X63400Y119735D01*
D02*
G37*
G36*
X63100Y161135D02*
X62398Y160996D01*
X61802Y160598D01*
X61404Y160002D01*
X61265Y159300D01*
X61404Y158598D01*
D01*
X61000Y158635D01*
D01*
X61000Y158635D01*
Y158635D01*
X60298Y158496D01*
X59702Y158098D01*
X59304Y157502D01*
X59165Y156800D01*
X59304Y156098D01*
X59702Y155502D01*
X60298Y155104D01*
X61000Y154965D01*
X61702Y155104D01*
X62091Y155364D01*
X62402Y155302D01*
X62998Y154904D01*
X63700Y154765D01*
X64402Y154904D01*
X64998Y155302D01*
X65396Y155898D01*
X65535Y156600D01*
X65396Y157302D01*
X64998Y157898D01*
X64829Y158011D01*
X64731Y158501D01*
X64796Y158598D01*
X64935Y159300D01*
X64796Y160002D01*
X64398Y160598D01*
X63802Y160996D01*
X63100Y161135D01*
D02*
G37*
G36*
X62800Y221835D02*
X62098Y221696D01*
X61502Y221298D01*
X61104Y220702D01*
X60965Y220000D01*
X61104Y219298D01*
D01*
X60700Y219335D01*
D01*
X60700Y219335D01*
Y219335D01*
X59998Y219196D01*
X59402Y218798D01*
X59004Y218202D01*
X58865Y217500D01*
X59004Y216798D01*
X59402Y216202D01*
X59998Y215804D01*
X60700Y215665D01*
X61402Y215804D01*
X61791Y216064D01*
X62102Y216002D01*
X62698Y215604D01*
X63400Y215465D01*
X64102Y215604D01*
X64698Y216002D01*
X65096Y216598D01*
X65235Y217300D01*
X65096Y218002D01*
X64698Y218598D01*
X64529Y218711D01*
X64431Y219201D01*
X64496Y219298D01*
X64635Y220000D01*
X64496Y220702D01*
X64098Y221298D01*
X63502Y221696D01*
X62800Y221835D01*
D02*
G37*
G36*
X71400Y237435D02*
X70698Y237296D01*
X70102Y236898D01*
X69704Y236302D01*
X69565Y235600D01*
X69704Y234898D01*
X70102Y234302D01*
X70698Y233904D01*
X71400Y233765D01*
X72102Y233904D01*
X72698Y234302D01*
X73096Y234898D01*
X73235Y235600D01*
X73096Y236302D01*
X72698Y236898D01*
X72102Y237296D01*
X71400Y237435D01*
D02*
G37*
G36*
X63100Y242935D02*
X62398Y242796D01*
X61802Y242398D01*
X61404Y241802D01*
X61265Y241100D01*
X61404Y240398D01*
D01*
X61000Y240435D01*
D01*
X61000Y240435D01*
Y240435D01*
X60298Y240296D01*
X59702Y239898D01*
X59304Y239302D01*
X59165Y238600D01*
X59304Y237898D01*
X59702Y237302D01*
X60298Y236904D01*
X61000Y236765D01*
X61702Y236904D01*
X62091Y237164D01*
X62402Y237102D01*
X62998Y236704D01*
X63700Y236565D01*
X64402Y236704D01*
X64998Y237102D01*
X65396Y237698D01*
X65535Y238400D01*
X65396Y239102D01*
X64998Y239698D01*
X64535Y240007D01*
X64796Y240398D01*
X64935Y241100D01*
X64796Y241802D01*
X64398Y242398D01*
X63802Y242796D01*
X63100Y242935D01*
D02*
G37*
G36*
X62800Y180935D02*
X62098Y180796D01*
X61502Y180398D01*
X61104Y179802D01*
X60965Y179100D01*
X61104Y178398D01*
D01*
X60700Y178435D01*
D01*
X60700Y178435D01*
Y178435D01*
X59998Y178296D01*
X59402Y177898D01*
X59004Y177302D01*
X58865Y176600D01*
X59004Y175898D01*
X59402Y175302D01*
X59998Y174904D01*
X60700Y174765D01*
X61402Y174904D01*
X61791Y175164D01*
X62102Y175102D01*
X62698Y174704D01*
X63400Y174565D01*
X64102Y174704D01*
X64698Y175102D01*
X65096Y175698D01*
X65235Y176400D01*
X65096Y177102D01*
X64698Y177698D01*
X64529Y177811D01*
X64431Y178301D01*
X64496Y178398D01*
X64635Y179100D01*
X64496Y179802D01*
X64098Y180398D01*
X63502Y180796D01*
X62800Y180935D01*
D02*
G37*
G36*
X71400Y196535D02*
X70698Y196396D01*
X70102Y195998D01*
X69704Y195402D01*
X69565Y194700D01*
X69704Y193998D01*
X70102Y193402D01*
X70698Y193004D01*
X71400Y192865D01*
X72102Y193004D01*
X72698Y193402D01*
X73096Y193998D01*
X73235Y194700D01*
X73096Y195402D01*
X72698Y195998D01*
X72102Y196396D01*
X71400Y196535D01*
D02*
G37*
G36*
X63100Y202035D02*
X62398Y201896D01*
X61802Y201498D01*
X61404Y200902D01*
X61265Y200200D01*
X61404Y199498D01*
D01*
X61000Y199535D01*
D01*
X61000Y199535D01*
Y199535D01*
X60298Y199396D01*
X59702Y198998D01*
X59304Y198402D01*
X59165Y197700D01*
X59304Y196998D01*
X59702Y196402D01*
X60298Y196004D01*
X61000Y195865D01*
X61702Y196004D01*
X62091Y196264D01*
X62402Y196202D01*
X62998Y195804D01*
X63700Y195665D01*
X64402Y195804D01*
X64998Y196202D01*
X65396Y196798D01*
X65535Y197500D01*
X65396Y198202D01*
X64998Y198798D01*
X64829Y198911D01*
X64731Y199401D01*
X64796Y199498D01*
X64935Y200200D01*
X64796Y200902D01*
X64398Y201498D01*
X63802Y201896D01*
X63100Y202035D01*
D02*
G37*
%LPD*%
D56*
X313100Y199500D02*
X357600Y244000D01*
Y248200D01*
X248611Y94800D02*
X289600D01*
X291300Y93100D01*
Y90900D02*
Y93100D01*
X176700Y95700D02*
Y96200D01*
X182900Y129989D02*
X184400Y128489D01*
X176700Y96200D02*
X184400Y103900D01*
Y128489D01*
X177400Y110400D02*
X182200Y105600D01*
X177400Y110400D02*
Y127500D01*
X161900Y97811D02*
Y121100D01*
X140300Y73200D02*
Y110000D01*
X87600Y33500D02*
X89400Y35300D01*
X82500Y33500D02*
X87600D01*
X81100Y34900D02*
X82500Y33500D01*
X89400Y35300D02*
X113800D01*
X125100Y24000D01*
Y11300D02*
X129900Y6500D01*
X125100Y11300D02*
Y24000D01*
X81100Y34900D02*
Y52000D01*
X95300Y66200D01*
X133300D01*
X95000Y63500D02*
X140500D01*
X84100Y52600D02*
X95000Y63500D01*
X84100Y44500D02*
Y52600D01*
X86200Y43700D02*
X104600Y62100D01*
X133300Y66200D02*
X140300Y73200D01*
X104600Y62100D02*
X141080D01*
X160200Y81220D01*
X140500Y63500D02*
X158800Y81800D01*
Y81891D01*
X160200Y81220D02*
Y81311D01*
X165000Y97800D02*
Y114500D01*
X160600Y93400D02*
X165000Y97800D01*
X168300Y89411D02*
Y112300D01*
X158400Y94311D02*
X161900Y97811D01*
X160200Y81311D02*
X168300Y89411D01*
X170000Y243600D02*
X170400D01*
X174200Y241300D02*
Y242700D01*
X172700Y239800D02*
X174200Y241300D01*
X167000Y164589D02*
Y246000D01*
X168400Y241600D02*
X170400Y243600D01*
X194500Y265400D02*
X198500D01*
X156500Y303400D02*
X194500Y265400D01*
X62500Y303400D02*
X156500D01*
X195200Y266800D02*
X200200D01*
X156800Y305200D02*
X195200Y266800D01*
X66000Y305200D02*
X156800D01*
X198500Y265400D02*
X230600Y233300D01*
X200200Y266800D02*
X232000Y235000D01*
X295505Y263605D02*
X342400D01*
X295000Y263100D02*
X295505Y263605D01*
X144200Y190600D02*
Y190700D01*
X49500Y267900D02*
X61211D01*
X48500Y268900D02*
X49500Y267900D01*
X126789Y232586D02*
X127500Y233297D01*
X129200Y218171D02*
X130400Y219371D01*
X143100Y118000D02*
Y141911D01*
X136300Y111200D02*
X143100Y118000D01*
X137100Y150100D02*
X138700Y148500D01*
X135700Y145600D02*
X135900Y145400D01*
X181100Y176400D02*
X199611D01*
X172700Y184800D02*
X181100Y176400D01*
X172700Y184800D02*
Y239800D01*
X301500Y146000D02*
X313100Y157600D01*
X138500Y212300D02*
X138700Y212100D01*
Y205589D02*
Y212100D01*
X131100Y146500D02*
X131500Y146100D01*
X131100Y193900D02*
X132100Y194900D01*
X140600Y192800D02*
X140900Y192500D01*
X137900Y204789D02*
X138700Y205589D01*
X144000Y184000D02*
X144300Y183700D01*
X144000Y173209D02*
X144300Y173509D01*
Y183700D01*
X143700Y154100D02*
X146900Y150900D01*
X144000Y158200D02*
X149000Y153200D01*
X144000Y158200D02*
Y173209D01*
X143700Y154100D02*
Y156080D01*
X142100Y157680D02*
X143700Y156080D01*
X140700Y157100D02*
X142300Y155500D01*
X140700Y157100D02*
Y175000D01*
X139300Y156520D02*
X140900Y154920D01*
Y141000D02*
Y154920D01*
X126789Y134711D02*
X129000Y132500D01*
X126789Y134711D02*
Y232586D01*
X167700Y112900D02*
X168300Y112300D01*
X313100Y157600D02*
Y199500D01*
X29600Y288600D02*
X42000D01*
X42200Y288800D01*
X287400Y146000D02*
X301500D01*
X49000Y306700D02*
X49300Y307000D01*
X64200D01*
X66000Y305200D01*
X174600Y135300D02*
X174700Y135400D01*
X174500Y135300D02*
X174600D01*
X173400Y136700D02*
X174700Y135400D01*
X172000Y132800D02*
X172900Y131900D01*
X191200Y162120D02*
X199780Y170700D01*
X200911D01*
X193400Y160800D02*
X204400Y171800D01*
X200911Y170700D02*
X202200Y171989D01*
Y173811D01*
X199611Y176400D02*
X202200Y173811D01*
X167800Y153300D02*
X167900Y153200D01*
X149000D02*
X167900D01*
X146900Y150900D02*
X169800D01*
X172000Y132800D02*
Y144861D01*
X173400Y136700D02*
Y144282D01*
X174700Y145582D01*
X172000Y144861D02*
X173300Y146161D01*
X202200Y225700D02*
X216800Y211100D01*
X188800Y109500D02*
X189100Y109200D01*
X188800Y161700D02*
X200000Y172900D01*
X22100Y317900D02*
X55682D01*
X15300Y311100D02*
X22100Y317900D01*
X15300Y297675D02*
Y311100D01*
Y297675D02*
X19564Y293411D01*
X19606D01*
X27111Y285907D01*
Y283089D02*
Y285907D01*
Y283089D02*
X27600Y282600D01*
X28000D01*
X135700Y145600D02*
Y177071D01*
X137100Y150100D02*
Y176491D01*
X139300Y156520D02*
Y173289D01*
X138500Y174089D02*
X139300Y173289D01*
X138500Y174089D02*
Y175911D01*
X142100Y157680D02*
Y173289D01*
X141500Y177311D02*
X142900Y175911D01*
Y174089D02*
Y175911D01*
X142100Y173289D02*
X142900Y174089D01*
X135700Y177071D02*
X136500Y177871D01*
X137100Y176491D02*
X137900Y177291D01*
X138500Y175911D02*
X139300Y176711D01*
X140900Y189311D02*
Y192500D01*
X142000Y196491D02*
Y200711D01*
X140600Y195911D02*
Y201291D01*
X133300Y189100D02*
X133700Y188700D01*
Y139000D02*
Y188700D01*
X129200Y136300D02*
Y218171D01*
X131100Y146500D02*
Y193900D01*
X140700Y201391D02*
Y213211D01*
X140600Y201291D02*
X140700Y201391D01*
X142100Y200811D02*
Y215600D01*
X142000Y200711D02*
X142100Y200811D01*
X141500Y177311D02*
Y186800D01*
X136500Y177871D02*
Y206500D01*
X137900Y177291D02*
Y204789D01*
X139300Y176711D02*
Y187711D01*
X140900Y189311D01*
X140600Y195911D02*
X142800Y193711D01*
Y192100D02*
Y193711D01*
Y192100D02*
X144200Y190700D01*
X142000Y196491D02*
X146400Y192091D01*
Y189800D02*
Y192091D01*
Y189800D02*
X146500Y189700D01*
Y173200D02*
Y189700D01*
X161900Y121100D02*
X168783Y127983D01*
X158400Y92489D02*
Y94311D01*
X161000Y87111D02*
Y89889D01*
X158400Y92489D02*
X161000Y89889D01*
Y87111D02*
X161500Y86611D01*
Y84591D02*
Y86611D01*
X158800Y81891D02*
X161500Y84591D01*
X133200Y138500D02*
X133700Y139000D01*
X142300Y142711D02*
X143100Y141911D01*
X142300Y142711D02*
Y155500D01*
X168111Y159500D02*
X173300Y154311D01*
X167700Y153100D02*
Y153200D01*
X167800Y153300D01*
X173300Y146161D02*
Y154311D01*
X196000Y113100D02*
X196100Y113200D01*
X196500Y83400D02*
X196800Y83700D01*
X196000Y113100D02*
X196800Y112300D01*
X212000Y186700D02*
Y197100D01*
X212400Y197500D01*
X192700Y110300D02*
X193400Y109600D01*
X192700Y110300D02*
Y114608D01*
X196800Y99117D02*
Y112300D01*
Y83700D02*
Y96089D01*
X196200Y96689D02*
X196800Y96089D01*
X196200Y96689D02*
Y98517D01*
X196800Y99117D01*
X198400Y97600D02*
X212790D01*
X214390Y96000D01*
X183800Y163300D02*
X192700Y172200D01*
X190500Y127089D02*
Y128911D01*
X193400Y137091D02*
Y160800D01*
X193500Y115408D02*
Y131809D01*
X191200Y131200D02*
X191300Y131300D01*
X191200Y137311D02*
Y162120D01*
Y131000D02*
Y131489D01*
X188800Y109500D02*
Y125389D01*
X190500Y127089D01*
X188800Y130611D02*
X190500Y128911D01*
X192700Y114608D02*
X193500Y115408D01*
X191200Y137311D02*
X193200Y135311D01*
X193400Y137091D02*
X194600Y135891D01*
X182900Y129989D02*
Y135011D01*
X183800Y135911D01*
Y163300D01*
X188800Y130611D02*
Y161700D01*
X191200Y131489D02*
X193200Y133489D01*
Y135311D01*
X193500Y131809D02*
X194600Y132909D01*
Y135891D01*
X83600Y36100D02*
Y41100D01*
X84500Y42000D01*
X84911D01*
X86200Y43289D01*
Y43700D01*
X101400Y29600D02*
Y29900D01*
X246211Y92400D02*
X248611Y94800D01*
X174700Y145582D02*
Y154891D01*
X168691Y160900D02*
X174700Y154891D01*
X168680Y160900D02*
X168691D01*
X166700Y164289D02*
X167000Y164589D01*
X168100Y163709D02*
X168400Y164009D01*
Y241600D01*
X166700Y160900D02*
Y164289D01*
X168100Y161480D02*
X168680Y160900D01*
X168100Y161480D02*
Y163709D01*
X166700Y160900D02*
X168000Y159600D01*
X199000Y110400D02*
X210300D01*
X228300Y92400D01*
X246211D01*
X227600Y185000D02*
X227800Y184800D01*
X229000Y186711D02*
X230980Y184731D01*
Y184720D02*
Y184731D01*
Y184720D02*
X232700Y183000D01*
X216800Y183200D02*
X217000Y183000D01*
X216800Y183200D02*
Y211100D01*
X232000Y227039D02*
Y235000D01*
X230600Y227618D02*
Y233300D01*
X227600Y224618D02*
X230600Y227618D01*
X229000Y224039D02*
X232000Y227039D01*
X229000Y186711D02*
Y224039D01*
X227600Y185000D02*
Y224618D01*
X219400Y96000D02*
X249800Y65600D01*
Y57000D02*
Y65600D01*
X214390Y96000D02*
X219400D01*
X249800Y57000D02*
X265800Y41000D01*
X132600Y221311D02*
X140700Y213211D01*
X134000Y223700D02*
X142100Y215600D01*
X127500Y233297D02*
Y266200D01*
X130400Y219371D02*
Y268800D01*
X132600Y221311D02*
Y269711D01*
X134000Y223700D02*
Y270291D01*
X128091Y276200D02*
X134000Y270291D01*
X36600Y286100D02*
X46500Y276200D01*
X128091D01*
X61211Y267900D02*
X63911Y270600D01*
X129089D01*
X129489Y271000D01*
X131311D01*
X132600Y269711D01*
D57*
X291804Y287570D02*
X297934Y293700D01*
X282100Y293000D02*
X296500Y307400D01*
Y313800D01*
X39000Y293000D02*
X91100D01*
X307800Y225700D02*
Y228200D01*
X305800Y223700D02*
X307800Y225700D01*
X295100Y223700D02*
X305800D01*
X260300Y61781D02*
X263619Y65100D01*
X267900D01*
X288159Y251041D02*
X291800Y254682D01*
Y256800D01*
X291804Y256104D02*
Y287570D01*
X280200Y247046D02*
X289900Y256746D01*
X280200Y244800D02*
Y247046D01*
X272100Y276800D02*
X282100Y286800D01*
Y293000D01*
X265400Y272800D02*
X268200D01*
X272200Y276800D01*
X304400Y309091D02*
Y314400D01*
X279500Y262300D02*
X285400Y268200D01*
Y290091D01*
X304400Y309091D01*
X289900Y290400D02*
X312500Y313000D01*
Y314600D01*
X289900Y256746D02*
Y290400D01*
X297934Y293700D02*
X298900D01*
X320100Y314900D01*
X139200Y248100D02*
Y251440D01*
Y256466D01*
X137300Y258366D02*
X139200Y256466D01*
X137300Y258366D02*
Y269600D01*
X127500Y279400D02*
X137300Y269600D01*
X103600Y279400D02*
X127500D01*
D58*
X262400Y54900D02*
X275500D01*
X254700Y62600D02*
X262400Y54900D01*
X254700Y62600D02*
Y83500D01*
X260600Y58500D02*
X304300D01*
X257500Y61600D02*
X260600Y58500D01*
X257500Y61600D02*
Y79800D01*
X186200Y89100D02*
Y129030D01*
X160600Y98350D02*
Y136200D01*
X136200Y107100D02*
Y111100D01*
X157100Y94850D02*
X160600Y98350D01*
X148000Y224216D02*
Y294300D01*
X146608Y225608D02*
Y292908D01*
X170300Y163300D02*
Y240700D01*
X211600Y243300D02*
X224800Y230100D01*
X176570Y243300D02*
X211600D01*
X175070Y244800D02*
X176570Y243300D01*
X172100Y242500D02*
Y243570D01*
X170300Y240700D02*
X172100Y242500D01*
X173330Y244800D02*
X175070D01*
X172100Y243570D02*
X173330Y244800D01*
X187400Y88603D02*
Y103049D01*
X100600Y47400D02*
X145570D01*
X183100Y85100D02*
X185170D01*
X152300Y54300D02*
X183100Y85100D01*
X145570Y47400D02*
X152300Y54130D01*
X186400Y87603D02*
X187400Y88603D01*
X186400Y86330D02*
Y87603D01*
X185170Y85100D02*
X186400Y86330D01*
X152300Y54130D02*
Y54300D01*
X147992Y224208D02*
X148000Y224216D01*
X141735Y300565D02*
X148000Y294300D01*
X141073Y298443D02*
X146608Y292908D01*
X144200Y223200D02*
X146608Y225608D01*
X191200Y274600D02*
X234000D01*
X222700Y190670D02*
X224900Y192870D01*
Y209800D01*
X222700Y188930D02*
Y190670D01*
Y188930D02*
X223000Y188630D01*
Y179100D02*
Y188630D01*
X221700Y177800D02*
X223000Y179100D01*
X223600Y211100D02*
X224900Y209800D01*
X199300Y156603D02*
X208900Y166203D01*
X197600Y156600D02*
X207700Y166700D01*
X292500Y124900D02*
Y140469D01*
X147900Y213000D02*
X149100Y211800D01*
X147900Y213000D02*
X147992Y213092D01*
Y224208D01*
X289069Y143900D02*
X292500Y140469D01*
X28900Y290900D02*
X39870D01*
X25300Y294500D02*
X28900Y290900D01*
X48700Y288900D02*
X49500Y288100D01*
X71800D01*
X36000Y308900D02*
X36200Y309100D01*
X19765Y300565D02*
X141735D01*
X27000Y311000D02*
X168832D01*
X195400Y227100D02*
X197700Y224800D01*
X234100Y285000D02*
Y329600D01*
Y285000D02*
X237700Y281400D01*
X36200Y309100D02*
X156700D01*
X191200Y274600D01*
X203200Y177667D02*
Y190100D01*
Y177667D02*
X207700Y173167D01*
X205600Y176964D02*
X209000Y173564D01*
X169600Y312200D02*
X202900Y278900D01*
X267200Y301000D02*
X267500Y301300D01*
X167200Y157200D02*
X171900Y152500D01*
X196100Y157500D02*
X206500Y167900D01*
Y172670D01*
X207700Y166700D02*
Y173167D01*
X208900Y166203D02*
Y173464D01*
X209000Y173564D01*
X248900Y245000D02*
X249700D01*
X201175Y194700D02*
X201300Y193500D01*
X197700Y209074D02*
Y224800D01*
X201100Y193300D02*
X201300Y193500D01*
X201100Y178070D02*
X206500Y172670D01*
X201100Y178070D02*
Y193300D01*
X197700Y209074D02*
X210200Y196574D01*
X204500Y194400D02*
X205300Y195200D01*
X205600Y176964D02*
Y187600D01*
X209000Y191000D01*
X205300Y195200D02*
X207300D01*
X209000Y191000D02*
Y193500D01*
X207300Y195200D02*
X209000Y193500D01*
X205300Y192200D02*
X206600D01*
X203200Y190100D02*
X205300Y192200D01*
X285300Y145130D02*
Y147669D01*
Y145130D02*
X286530Y143900D01*
X289069D01*
X224200Y189200D02*
X224800Y189800D01*
X260300Y112200D02*
X261000Y112900D01*
X316300D01*
X184300Y87200D02*
X186200Y89100D01*
X289100Y161500D02*
X291500D01*
X285800Y164800D02*
X289100Y161500D01*
X285800Y164800D02*
Y185900D01*
X25600Y312200D02*
X169600D01*
X20742Y308187D02*
X21165Y307765D01*
X25600Y312200D01*
X17643Y298443D02*
X141073D01*
X19043Y305643D02*
X22013D01*
X23265Y306895D01*
Y307265D01*
X27000Y311000D01*
X22000Y292856D02*
Y295600D01*
Y292856D02*
X28411Y286445D01*
Y285889D02*
Y286445D01*
X144200Y199800D02*
Y223200D01*
X149100Y159300D02*
Y211800D01*
X157100Y87900D02*
Y94850D01*
Y87900D02*
X159300Y85700D01*
X304300Y58500D02*
X305900Y56900D01*
X241000Y158000D02*
X247200D01*
X247700Y158500D01*
X167200Y157200D02*
Y157300D01*
X204700Y160306D02*
X210200Y165806D01*
X204700Y147170D02*
Y160306D01*
X201900Y144370D02*
X204700Y147170D01*
X199300Y135700D02*
Y156603D01*
X202200Y146367D02*
Y153400D01*
X200700Y144867D02*
X202200Y146367D01*
X187400Y103049D02*
X191851Y107500D01*
X210200Y165806D02*
Y185530D01*
X209900Y185830D02*
X210200Y185530D01*
X209900Y185830D02*
Y187570D01*
X210200Y187870D01*
Y196574D01*
X194000Y111970D02*
X195500Y110470D01*
X194000Y111970D02*
Y114070D01*
X191851Y107500D02*
X194270D01*
X195500Y108730D01*
Y110470D01*
X260400Y91100D02*
X280300D01*
X269900Y72600D02*
X296000D01*
X299900Y76500D02*
Y79800D01*
X296000Y72600D02*
X299900Y76500D01*
X280300Y91100D02*
X290300Y81100D01*
Y75300D02*
Y81100D01*
X207300Y138700D02*
Y142600D01*
X204000Y140300D02*
X206100Y142400D01*
Y143097D01*
X210300Y137400D02*
Y143200D01*
X213600Y123300D02*
Y144000D01*
X186200Y129030D02*
X187200Y130030D01*
X196100Y132000D02*
X196500Y131600D01*
X198600Y131300D02*
X199500Y130400D01*
X194000Y114070D02*
X204300Y124370D01*
X208300Y134800D02*
Y135400D01*
X210300Y137400D01*
X196100Y132000D02*
Y157500D01*
X198600Y131300D02*
Y132470D01*
X197600Y133470D02*
X198600Y132470D01*
X197600Y133470D02*
Y156600D01*
X199300Y135700D02*
X202000Y133000D01*
X187200Y130030D02*
Y134970D01*
X186200Y135970D02*
X187200Y134970D01*
X186200Y135970D02*
Y162500D01*
X206500Y137900D02*
X207300Y138700D01*
X247200Y150430D02*
Y155030D01*
X249800Y157630D01*
X249300Y101800D02*
Y151300D01*
Y101800D02*
X249800Y101300D01*
X170300Y163300D02*
X170600D01*
X206100Y131300D02*
Y133800D01*
X201900Y138000D02*
Y144370D01*
Y138000D02*
X206100Y133800D01*
X200700Y137300D02*
Y144867D01*
Y137300D02*
X204300Y133700D01*
Y124370D02*
Y133700D01*
X160600Y136200D02*
X171900Y147500D01*
Y152500D01*
X224200Y173600D02*
Y189200D01*
X222500Y171900D02*
X224200Y173600D01*
X206100Y143097D02*
X235300Y172297D01*
Y182800D01*
X230700Y187400D02*
X235300Y182800D01*
X207300Y142600D02*
X236500Y171800D01*
Y182330D01*
X210300Y143200D02*
X237800Y170700D01*
Y181933D01*
X213600Y144000D02*
X239200Y169600D01*
Y181636D01*
X249800Y157630D02*
Y200000D01*
X246400Y190533D02*
Y241700D01*
X239200Y181636D02*
X247600Y190036D01*
X237800Y181933D02*
X246400Y190533D01*
X236500Y182330D02*
X245200Y191030D01*
X249800Y200000D02*
X256300Y206500D01*
X241000Y267500D02*
X241100D01*
X234000Y274600D02*
X241100Y267500D01*
X230700Y187400D02*
Y223900D01*
X237200Y230400D01*
Y250200D01*
X245200Y245200D02*
X248900Y248900D01*
X245200Y191030D02*
Y245200D01*
X246400Y241700D02*
X249700Y245000D01*
X247600Y190036D02*
Y236400D01*
X252000Y240800D01*
Y254047D01*
X242100Y281200D02*
Y291200D01*
X168832Y311000D02*
X202731Y277100D01*
X202900Y278900D02*
X249300D01*
X256300Y206500D02*
Y239600D01*
X264600Y247900D01*
X268000Y153800D02*
X270400Y156200D01*
X272600Y160369D02*
X285300Y147669D01*
X242100Y291200D02*
X252200Y301300D01*
X267200D01*
Y301000D02*
Y301300D01*
X202731Y277100D02*
X246900D01*
X245300Y94600D02*
X246300Y95600D01*
Y149530D01*
X247200Y150430D01*
X261500Y263600D02*
X264600Y260500D01*
Y247900D02*
Y260500D01*
X264800Y270767D02*
X265433D01*
X264303Y269567D02*
X264936D01*
X272600Y160369D02*
Y263600D01*
X265433Y270767D02*
X272600Y263600D01*
X270400Y156200D02*
Y264103D01*
X264936Y269567D02*
X270400Y264103D01*
X249300Y278900D02*
X254500Y273700D01*
X261867D01*
X264800Y270767D01*
X246900Y277100D02*
X251800Y272200D01*
X261670D01*
X264303Y269567D01*
X260087Y267500D02*
X261500Y266087D01*
X241100Y267500D02*
X260087D01*
X261500Y263600D02*
Y266087D01*
X237200Y250200D02*
X243100Y256100D01*
X249700Y256347D02*
X252000Y254047D01*
X249300Y248600D02*
Y248900D01*
X249700Y244700D02*
Y245000D01*
X136300Y226300D02*
X142400Y232400D01*
Y284200D01*
X39870Y290900D02*
X39970Y291000D01*
X135600D01*
X142400Y284200D01*
X28411Y285889D02*
X39400Y274900D01*
X72900D01*
Y274000D02*
Y274900D01*
D59*
X202100Y254200D02*
X204500D01*
X227600Y231100D01*
X219700Y220840D02*
X227600Y228740D01*
X219700Y199400D02*
Y220840D01*
X227600Y228740D02*
Y231100D01*
X242700Y203900D02*
Y207500D01*
X243300Y208100D01*
X259500Y254100D02*
X262500Y251100D01*
X259400Y265400D02*
X259500D01*
X246900Y261800D02*
X250500Y265400D01*
X259400D02*
X259500Y265300D01*
X258400Y265100D02*
X259100D01*
X259400Y265400D01*
X259700Y257000D02*
X262500D01*
X259500Y254100D02*
Y265300D01*
X243300Y252340D02*
X246900Y255940D01*
Y261800D01*
X243300Y208100D02*
Y252340D01*
X250500Y265400D02*
X259400D01*
D60*
X161500Y182300D02*
Y195800D01*
X158900Y179700D02*
X161500Y182300D01*
X96200Y29600D02*
Y29900D01*
D61*
X81968Y30750D02*
X88032D01*
X78850Y33868D02*
X81968Y30750D01*
X88032D02*
X90232Y32950D01*
X106250D01*
X112900Y26300D01*
X78850Y33868D02*
Y52932D01*
X94368Y68450D01*
X94530D02*
X99200Y73120D01*
X94368Y68450D02*
X94530D01*
X99200Y73120D02*
Y74600D01*
D64*
X139900Y6500D02*
D03*
X192300Y92500D02*
D03*
D65*
X139900Y16500D02*
D03*
X129900Y6500D02*
D03*
Y16500D02*
D03*
X119900Y6500D02*
D03*
Y16500D02*
D03*
X109900Y6500D02*
D03*
Y16500D02*
D03*
X99900Y6500D02*
D03*
Y16500D02*
D03*
X89900Y6500D02*
D03*
Y16500D02*
D03*
X79900Y6500D02*
D03*
Y16500D02*
D03*
X69900Y6500D02*
D03*
Y16500D02*
D03*
X59900Y6500D02*
D03*
Y16500D02*
D03*
X49900Y6500D02*
D03*
Y16500D02*
D03*
X39900Y6500D02*
D03*
Y16500D02*
D03*
X29900Y6500D02*
D03*
Y16500D02*
D03*
X19900Y6500D02*
D03*
Y16500D02*
D03*
X212300Y102500D02*
D03*
Y92500D02*
D03*
X202300Y102500D02*
D03*
Y92500D02*
D03*
X192300Y102500D02*
D03*
D66*
X14300Y280600D02*
D03*
X345900Y318100D02*
D03*
X221000Y72600D02*
D03*
X63300Y49600D02*
D03*
D67*
X342400Y289195D02*
D03*
Y263605D02*
D03*
D68*
X77531Y90038D02*
D03*
Y85707D02*
D03*
Y81376D02*
D03*
X73200Y90038D02*
D03*
Y85707D02*
D03*
Y81376D02*
D03*
X68869Y90038D02*
D03*
Y85707D02*
D03*
Y81376D02*
D03*
Y122276D02*
D03*
Y126607D02*
D03*
Y130938D02*
D03*
X73200Y122276D02*
D03*
Y126607D02*
D03*
Y130938D02*
D03*
X77531Y122276D02*
D03*
Y126607D02*
D03*
Y130938D02*
D03*
Y171838D02*
D03*
Y167507D02*
D03*
Y163176D02*
D03*
X73200Y171838D02*
D03*
Y167507D02*
D03*
Y163176D02*
D03*
X68869Y171838D02*
D03*
Y167507D02*
D03*
Y163176D02*
D03*
Y204076D02*
D03*
Y208407D02*
D03*
Y212738D02*
D03*
X73200Y204076D02*
D03*
Y208407D02*
D03*
Y212738D02*
D03*
X77531Y204076D02*
D03*
Y208407D02*
D03*
Y212738D02*
D03*
Y253638D02*
D03*
Y249307D02*
D03*
Y244976D02*
D03*
X73200Y253638D02*
D03*
Y249307D02*
D03*
Y244976D02*
D03*
X68869Y253638D02*
D03*
Y249307D02*
D03*
Y244976D02*
D03*
X294249Y199004D02*
D03*
Y203335D02*
D03*
X298579Y199004D02*
D03*
Y203335D02*
D03*
X302910Y199004D02*
D03*
Y203335D02*
D03*
X357600Y248200D02*
D03*
X271300Y81200D02*
D03*
X136200Y107100D02*
D03*
X122200Y109400D02*
D03*
X124600Y101628D02*
D03*
X176700Y95700D02*
D03*
X182200Y105600D02*
D03*
X170900Y114800D02*
D03*
Y111800D02*
D03*
X174100D02*
D03*
X167700Y112900D02*
D03*
X165000Y114500D02*
D03*
X177400Y127500D02*
D03*
X140300Y110000D02*
D03*
X83600Y36100D02*
D03*
X90000Y50820D02*
D03*
Y54160D02*
D03*
X93100Y54420D02*
D03*
Y57760D02*
D03*
X96600Y57620D02*
D03*
Y60960D02*
D03*
X135200Y55000D02*
D03*
Y58000D02*
D03*
X138200D02*
D03*
X165000Y204900D02*
D03*
Y207900D02*
D03*
Y210900D02*
D03*
X150700Y232000D02*
D03*
X153800Y226900D02*
D03*
X153700Y232000D02*
D03*
Y236600D02*
D03*
X170000Y243600D02*
D03*
X174200Y242700D02*
D03*
X141000Y226900D02*
D03*
X144000D02*
D03*
X150800D02*
D03*
X150700Y236600D02*
D03*
X167000Y246000D02*
D03*
X191400Y239620D02*
D03*
X188800Y30900D02*
D03*
X185100D02*
D03*
X181400D02*
D03*
X199900D02*
D03*
X196200D02*
D03*
X192500D02*
D03*
X188800Y34000D02*
D03*
X185100D02*
D03*
X181400D02*
D03*
X166800Y31000D02*
D03*
X199900Y34000D02*
D03*
X196200D02*
D03*
X192500D02*
D03*
X163100Y30900D02*
D03*
X159400D02*
D03*
X155700D02*
D03*
X152000D02*
D03*
X170500Y31000D02*
D03*
X188800Y49000D02*
D03*
X185100D02*
D03*
X181400D02*
D03*
X166800Y46000D02*
D03*
X199900Y49000D02*
D03*
X196200D02*
D03*
X192500D02*
D03*
X163100Y45900D02*
D03*
X159400D02*
D03*
X155700D02*
D03*
X152000D02*
D03*
X170500Y46000D02*
D03*
Y43000D02*
D03*
Y39900D02*
D03*
X152000Y42900D02*
D03*
X155700D02*
D03*
X159400D02*
D03*
X163100D02*
D03*
Y33800D02*
D03*
Y39800D02*
D03*
Y36800D02*
D03*
X159400D02*
D03*
Y39800D02*
D03*
X155700D02*
D03*
X152000D02*
D03*
Y36800D02*
D03*
X155700D02*
D03*
X159400Y33800D02*
D03*
X192500Y46000D02*
D03*
X196200D02*
D03*
X199900D02*
D03*
Y39900D02*
D03*
Y42900D02*
D03*
X196200D02*
D03*
X188800D02*
D03*
X192500D02*
D03*
Y39900D02*
D03*
Y36900D02*
D03*
X196200Y39900D02*
D03*
Y36900D02*
D03*
X199900D02*
D03*
X188800D02*
D03*
X185100Y39900D02*
D03*
Y36900D02*
D03*
X181400Y42900D02*
D03*
X188800Y39900D02*
D03*
X181400D02*
D03*
Y36900D02*
D03*
X170500D02*
D03*
Y33900D02*
D03*
X166800Y36900D02*
D03*
Y33900D02*
D03*
X185100Y42900D02*
D03*
X166800Y39900D02*
D03*
Y43000D02*
D03*
X181400Y46000D02*
D03*
X185100D02*
D03*
X188800D02*
D03*
X152000Y33800D02*
D03*
X155700D02*
D03*
X266500Y281200D02*
D03*
X263500D02*
D03*
X260500D02*
D03*
X191400Y232940D02*
D03*
Y236280D02*
D03*
X150700Y291280D02*
D03*
X154500D02*
D03*
X150700Y294620D02*
D03*
X158400Y291340D02*
D03*
Y298020D02*
D03*
Y294680D02*
D03*
X154500Y294620D02*
D03*
Y297960D02*
D03*
X150700D02*
D03*
X288748Y314348D02*
D03*
X218544Y262200D02*
D03*
Y272500D02*
D03*
X224100Y251500D02*
D03*
Y254500D02*
D03*
X218544Y269100D02*
D03*
X224100Y248500D02*
D03*
X228300Y254500D02*
D03*
Y251500D02*
D03*
Y248500D02*
D03*
X220100Y251500D02*
D03*
X224800Y229900D02*
D03*
X199400Y256800D02*
D03*
X202400D02*
D03*
X222700Y199400D02*
D03*
X320100Y314900D02*
D03*
X303204Y272000D02*
D03*
X297204D02*
D03*
X303204Y275000D02*
D03*
X294204Y272000D02*
D03*
X297204Y275000D02*
D03*
X303204Y278000D02*
D03*
X294204Y275000D02*
D03*
X297204Y278000D02*
D03*
X303204Y281000D02*
D03*
X294204Y278000D02*
D03*
X297204Y281000D02*
D03*
X303204Y284000D02*
D03*
X294204Y281000D02*
D03*
X297204Y284000D02*
D03*
X303204Y287000D02*
D03*
X294204Y284000D02*
D03*
X297204Y287000D02*
D03*
X306204D02*
D03*
Y284000D02*
D03*
Y281000D02*
D03*
Y278000D02*
D03*
Y275000D02*
D03*
X303204Y269000D02*
D03*
X306204Y272000D02*
D03*
X294328Y286700D02*
D03*
X312500Y314600D02*
D03*
X300204Y281000D02*
D03*
Y284000D02*
D03*
Y287000D02*
D03*
X280100Y244600D02*
D03*
X304400Y314400D02*
D03*
X296600Y314000D02*
D03*
X272100Y276800D02*
D03*
X279500Y262300D02*
D03*
X223600Y211100D02*
D03*
X221700Y177800D02*
D03*
X202200Y232300D02*
D03*
Y225700D02*
D03*
Y235300D02*
D03*
X212000Y235000D02*
D03*
Y232000D02*
D03*
X117700Y265600D02*
D03*
X116400Y262260D02*
D03*
X120200D02*
D03*
Y258920D02*
D03*
X124100Y258980D02*
D03*
X120900Y265600D02*
D03*
X124100Y262320D02*
D03*
X130400Y268800D02*
D03*
X48500Y268900D02*
D03*
X218544Y258800D02*
D03*
Y265700D02*
D03*
X289800Y172700D02*
D03*
Y169700D02*
D03*
Y166700D02*
D03*
X162400Y77400D02*
D03*
X267900Y65100D02*
D03*
X260300Y61781D02*
D03*
X283525Y166800D02*
D03*
Y169800D02*
D03*
X281300Y176800D02*
D03*
Y179800D02*
D03*
Y182800D02*
D03*
Y186000D02*
D03*
X283525Y172800D02*
D03*
X280300Y189200D02*
D03*
X283325D02*
D03*
X280300Y192200D02*
D03*
X283325D02*
D03*
X280300Y195200D02*
D03*
X283325D02*
D03*
X289375Y198200D02*
D03*
X283325D02*
D03*
X280300D02*
D03*
X286350D02*
D03*
X289375Y201200D02*
D03*
X283325D02*
D03*
X280300D02*
D03*
X286350D02*
D03*
X276900Y198275D02*
D03*
Y192225D02*
D03*
Y195250D02*
D03*
Y201300D02*
D03*
X233700Y191500D02*
D03*
X177800Y53400D02*
D03*
X180800D02*
D03*
X183800D02*
D03*
X186800D02*
D03*
X189800D02*
D03*
X192800D02*
D03*
X195800D02*
D03*
X177800Y56400D02*
D03*
X180800D02*
D03*
X183800D02*
D03*
X186800D02*
D03*
X189800D02*
D03*
X192800D02*
D03*
X195800D02*
D03*
X180800Y59400D02*
D03*
X183800D02*
D03*
X186800D02*
D03*
X189800D02*
D03*
X192800D02*
D03*
X195800D02*
D03*
X186800Y62400D02*
D03*
X189800D02*
D03*
X192800D02*
D03*
X195800D02*
D03*
X189800Y65400D02*
D03*
X192800D02*
D03*
X195800D02*
D03*
X186800Y68400D02*
D03*
X192800D02*
D03*
X195800D02*
D03*
X192800Y71400D02*
D03*
X195800D02*
D03*
X166100Y134800D02*
D03*
X180400Y142600D02*
D03*
X176100Y142700D02*
D03*
X168300Y140700D02*
D03*
Y137700D02*
D03*
X165100D02*
D03*
X161500Y195800D02*
D03*
X174400Y169000D02*
D03*
Y166000D02*
D03*
Y163000D02*
D03*
Y160000D02*
D03*
X177700Y156700D02*
D03*
X181000Y156800D02*
D03*
X177700Y162700D02*
D03*
X181000Y162800D02*
D03*
X177700Y165700D02*
D03*
X181000Y165800D02*
D03*
Y168800D02*
D03*
X177700Y168700D02*
D03*
X174100Y114800D02*
D03*
X154000Y111900D02*
D03*
X157200D02*
D03*
X154000Y114900D02*
D03*
X157200D02*
D03*
Y117900D02*
D03*
X154000D02*
D03*
X279800Y97400D02*
D03*
X263400Y138100D02*
D03*
X263300Y133400D02*
D03*
X261100Y136200D02*
D03*
X261300Y140700D02*
D03*
X265800Y143000D02*
D03*
X283900Y141800D02*
D03*
X280900Y142400D02*
D03*
X282600Y144500D02*
D03*
X279200D02*
D03*
X277100Y97400D02*
D03*
X257000Y103500D02*
D03*
X342500Y111000D02*
D03*
Y114000D02*
D03*
Y117000D02*
D03*
Y120000D02*
D03*
Y123000D02*
D03*
Y126000D02*
D03*
Y129000D02*
D03*
Y132000D02*
D03*
Y135000D02*
D03*
Y138000D02*
D03*
X134000Y38500D02*
D03*
X130500D02*
D03*
X127200Y38400D02*
D03*
X123700D02*
D03*
X120300D02*
D03*
X112900Y26300D02*
D03*
X124500Y142800D02*
D03*
Y183200D02*
D03*
X123800Y224600D02*
D03*
X120500Y183200D02*
D03*
X116700D02*
D03*
X99600Y265300D02*
D03*
X102800D02*
D03*
X96600Y265200D02*
D03*
X99600Y224200D02*
D03*
X102800D02*
D03*
X96600Y224100D02*
D03*
X99500Y183400D02*
D03*
X102700D02*
D03*
X96500Y183300D02*
D03*
X99700Y142500D02*
D03*
X102900D02*
D03*
X96700Y142400D02*
D03*
X96500Y101600D02*
D03*
X102700Y101700D02*
D03*
X99500D02*
D03*
X71400Y235600D02*
D03*
X61000Y75000D02*
D03*
X63100Y77500D02*
D03*
X63700Y74800D02*
D03*
X63400Y94600D02*
D03*
X60700Y94800D02*
D03*
X62800Y97300D02*
D03*
X85400Y97800D02*
D03*
X81500D02*
D03*
X82700Y94700D02*
D03*
X99400Y97700D02*
D03*
X103600D02*
D03*
Y94360D02*
D03*
X99400D02*
D03*
X103600Y91020D02*
D03*
X99400D02*
D03*
X103600Y87680D02*
D03*
X99400D02*
D03*
X103600Y81000D02*
D03*
X99400D02*
D03*
X103600Y77660D02*
D03*
X99400D02*
D03*
X103600Y74320D02*
D03*
X99400D02*
D03*
X117600Y72940D02*
D03*
X121800D02*
D03*
X117600Y76680D02*
D03*
X121800D02*
D03*
X117600Y80420D02*
D03*
X121800D02*
D03*
Y84160D02*
D03*
X117600D02*
D03*
X108800Y83520D02*
D03*
Y80180D02*
D03*
Y76840D02*
D03*
Y73500D02*
D03*
X71400Y72000D02*
D03*
X49700Y94700D02*
D03*
X49800Y91100D02*
D03*
X49500Y76400D02*
D03*
X49400Y80000D02*
D03*
X116700Y88140D02*
D03*
X120650D02*
D03*
X116700Y91512D02*
D03*
X120650D02*
D03*
X116700Y94884D02*
D03*
X120650D02*
D03*
X116700Y98256D02*
D03*
X120650D02*
D03*
Y101600D02*
D03*
X116700D02*
D03*
X124600Y98256D02*
D03*
Y94884D02*
D03*
Y91512D02*
D03*
Y88140D02*
D03*
X109000Y101560D02*
D03*
Y98220D02*
D03*
Y94880D02*
D03*
Y91540D02*
D03*
Y88200D02*
D03*
X63400Y117900D02*
D03*
X61300Y115400D02*
D03*
X64000Y115200D02*
D03*
X63700Y135000D02*
D03*
X61000Y135200D02*
D03*
X63100Y137700D02*
D03*
X84800Y138300D02*
D03*
X81800Y138200D02*
D03*
X83000Y135100D02*
D03*
X99700Y138100D02*
D03*
X103900D02*
D03*
Y134760D02*
D03*
X99700D02*
D03*
X103900Y131420D02*
D03*
X99700D02*
D03*
Y124740D02*
D03*
X103900Y121400D02*
D03*
X99700D02*
D03*
Y118060D02*
D03*
X103900Y114720D02*
D03*
X99700D02*
D03*
X117900Y112840D02*
D03*
X122300D02*
D03*
X117900Y116580D02*
D03*
X122300D02*
D03*
X117900Y120320D02*
D03*
X122300D02*
D03*
Y124060D02*
D03*
X117900D02*
D03*
X117733Y109400D02*
D03*
X113267D02*
D03*
X108800D02*
D03*
X109100Y123920D02*
D03*
Y120580D02*
D03*
Y117240D02*
D03*
Y113900D02*
D03*
X71700Y113300D02*
D03*
X50000Y135100D02*
D03*
X50100Y131500D02*
D03*
X49400Y117200D02*
D03*
X49300Y120800D02*
D03*
X117000Y128540D02*
D03*
X120700D02*
D03*
X117000Y132080D02*
D03*
X120700D02*
D03*
X117000Y135620D02*
D03*
X120700D02*
D03*
X117000Y139160D02*
D03*
X120700D02*
D03*
Y142700D02*
D03*
X117000D02*
D03*
X124500Y139220D02*
D03*
Y135680D02*
D03*
Y132140D02*
D03*
Y128600D02*
D03*
X109300Y141960D02*
D03*
Y138620D02*
D03*
Y135280D02*
D03*
Y131940D02*
D03*
Y128600D02*
D03*
X63100Y159300D02*
D03*
X61000Y156800D02*
D03*
X63700Y156600D02*
D03*
X63400Y176400D02*
D03*
X60700Y176600D02*
D03*
X62800Y179100D02*
D03*
X85400Y179600D02*
D03*
X81500D02*
D03*
X82700Y176500D02*
D03*
X99400Y179500D02*
D03*
X103600D02*
D03*
Y176160D02*
D03*
X99400D02*
D03*
X103600Y172820D02*
D03*
X99400D02*
D03*
X103600Y169480D02*
D03*
X99400D02*
D03*
X103600Y162800D02*
D03*
X99400D02*
D03*
X103600Y159460D02*
D03*
X99400D02*
D03*
X103600Y156120D02*
D03*
X99400D02*
D03*
X119300Y150800D02*
D03*
X122900D02*
D03*
X118600Y154940D02*
D03*
X122900D02*
D03*
X118600Y158480D02*
D03*
X122900D02*
D03*
X118600Y162020D02*
D03*
X122900D02*
D03*
Y165560D02*
D03*
X118600D02*
D03*
X115700Y150800D02*
D03*
X112100D02*
D03*
X108500D02*
D03*
X108800Y165320D02*
D03*
Y161980D02*
D03*
Y158640D02*
D03*
Y155300D02*
D03*
X71400Y153800D02*
D03*
X49700Y176500D02*
D03*
X49800Y172900D02*
D03*
X49600Y158200D02*
D03*
X49500Y161800D02*
D03*
X116700Y169940D02*
D03*
X120500D02*
D03*
X116700Y173280D02*
D03*
X120500D02*
D03*
X116700Y176620D02*
D03*
X120500D02*
D03*
X116700Y179960D02*
D03*
X120500D02*
D03*
X124400Y180020D02*
D03*
Y176680D02*
D03*
Y173340D02*
D03*
Y170000D02*
D03*
X109000Y183360D02*
D03*
Y180020D02*
D03*
Y176680D02*
D03*
Y173340D02*
D03*
Y170000D02*
D03*
X63100Y200200D02*
D03*
X61000Y197700D02*
D03*
X63700Y197500D02*
D03*
X63400Y217300D02*
D03*
X60700Y217500D02*
D03*
X62800Y220000D02*
D03*
X85400Y220500D02*
D03*
X81500D02*
D03*
X82700Y217400D02*
D03*
X99400Y220400D02*
D03*
X103600D02*
D03*
Y217060D02*
D03*
X99400D02*
D03*
X103600Y213720D02*
D03*
X99400D02*
D03*
X103600Y203700D02*
D03*
X99400D02*
D03*
X103600Y200360D02*
D03*
X99400D02*
D03*
X103600Y197020D02*
D03*
X99400D02*
D03*
X118600Y192300D02*
D03*
X122800D02*
D03*
X118600Y195940D02*
D03*
X122800D02*
D03*
X118600Y199580D02*
D03*
X122800D02*
D03*
X118600Y203220D02*
D03*
X122800D02*
D03*
Y206860D02*
D03*
X118600D02*
D03*
X115400Y192300D02*
D03*
X112200D02*
D03*
X108500Y191700D02*
D03*
X108800Y206220D02*
D03*
Y202880D02*
D03*
Y199540D02*
D03*
Y196200D02*
D03*
X71400Y194700D02*
D03*
X49700Y217400D02*
D03*
X49800Y213800D02*
D03*
X50200Y199100D02*
D03*
X50100Y202700D02*
D03*
X115700Y210840D02*
D03*
X119700D02*
D03*
X115700Y214280D02*
D03*
X119700D02*
D03*
X115700Y217720D02*
D03*
X119700D02*
D03*
X115700Y221160D02*
D03*
X119700D02*
D03*
Y224600D02*
D03*
X115700D02*
D03*
X123800Y221220D02*
D03*
Y217780D02*
D03*
Y214340D02*
D03*
Y210900D02*
D03*
X109000Y224260D02*
D03*
Y220920D02*
D03*
Y217580D02*
D03*
Y214240D02*
D03*
Y210900D02*
D03*
Y251800D02*
D03*
Y255140D02*
D03*
Y258480D02*
D03*
Y261820D02*
D03*
Y265160D02*
D03*
X124100Y252300D02*
D03*
Y255640D02*
D03*
X116400Y258920D02*
D03*
X120200Y255580D02*
D03*
X116400D02*
D03*
X120200Y252240D02*
D03*
X116400D02*
D03*
X50100Y244800D02*
D03*
X50200Y241200D02*
D03*
X49800Y254700D02*
D03*
X49700Y258300D02*
D03*
X108800Y237100D02*
D03*
Y240440D02*
D03*
Y243780D02*
D03*
Y247120D02*
D03*
X108500Y232600D02*
D03*
X112200Y233200D02*
D03*
X115400D02*
D03*
X118600Y247660D02*
D03*
X123000D02*
D03*
Y243920D02*
D03*
X118600D02*
D03*
X123000Y240180D02*
D03*
X118600D02*
D03*
X123000Y236440D02*
D03*
X118600D02*
D03*
X123000Y232700D02*
D03*
X118600D02*
D03*
X99400Y237920D02*
D03*
X103600D02*
D03*
X99400Y241260D02*
D03*
X103600D02*
D03*
X99400Y244600D02*
D03*
X103600D02*
D03*
X99400Y254620D02*
D03*
X103600D02*
D03*
X99400Y257960D02*
D03*
X103600D02*
D03*
Y261300D02*
D03*
X99400D02*
D03*
X62400Y272500D02*
D03*
X56700Y270200D02*
D03*
X60400D02*
D03*
X58500Y272500D02*
D03*
X54900D02*
D03*
X53100Y270100D02*
D03*
X51500Y272500D02*
D03*
X82700Y258300D02*
D03*
X81500Y261400D02*
D03*
X85400D02*
D03*
X336204Y251000D02*
D03*
X321204D02*
D03*
X318204D02*
D03*
Y254000D02*
D03*
X336204Y269000D02*
D03*
X333204D02*
D03*
X330204D02*
D03*
X327204D02*
D03*
X324204D02*
D03*
X321204D02*
D03*
X318204D02*
D03*
X336204Y272000D02*
D03*
X333204D02*
D03*
X330204D02*
D03*
X327204D02*
D03*
X324204D02*
D03*
X321204D02*
D03*
X318204D02*
D03*
X336204Y275000D02*
D03*
X333204D02*
D03*
X330204D02*
D03*
X327204D02*
D03*
X324204D02*
D03*
X321204D02*
D03*
X318204D02*
D03*
X336204Y278000D02*
D03*
X333204D02*
D03*
X330204D02*
D03*
X327204D02*
D03*
X324204D02*
D03*
X321204D02*
D03*
X318204D02*
D03*
X336204Y281000D02*
D03*
X333204D02*
D03*
X330204D02*
D03*
X327204D02*
D03*
X324204D02*
D03*
X321204D02*
D03*
X318204D02*
D03*
X336204Y284000D02*
D03*
X333204D02*
D03*
X330204D02*
D03*
X327204D02*
D03*
X324204D02*
D03*
X321204D02*
D03*
X318204D02*
D03*
X336204Y287000D02*
D03*
X333204D02*
D03*
X330204D02*
D03*
X327204D02*
D03*
X324204D02*
D03*
X321204D02*
D03*
X318204D02*
D03*
X315204D02*
D03*
Y284000D02*
D03*
Y281000D02*
D03*
Y278000D02*
D03*
Y275000D02*
D03*
Y272000D02*
D03*
Y269000D02*
D03*
X312204Y287000D02*
D03*
Y284000D02*
D03*
Y281000D02*
D03*
Y278000D02*
D03*
Y275000D02*
D03*
Y272000D02*
D03*
Y269000D02*
D03*
X309204Y287000D02*
D03*
Y284000D02*
D03*
Y281000D02*
D03*
Y278000D02*
D03*
Y275000D02*
D03*
Y272000D02*
D03*
Y269000D02*
D03*
X306204D02*
D03*
X300204Y278000D02*
D03*
Y275000D02*
D03*
Y272000D02*
D03*
X357404Y212700D02*
D03*
Y209700D02*
D03*
Y206700D02*
D03*
X348329D02*
D03*
X354379Y203700D02*
D03*
X357404D02*
D03*
X354379Y200700D02*
D03*
X357404D02*
D03*
X351354D02*
D03*
X354379Y197700D02*
D03*
X357404D02*
D03*
X351354D02*
D03*
X354379Y194700D02*
D03*
X357404D02*
D03*
Y191700D02*
D03*
X351354D02*
D03*
X354379Y188700D02*
D03*
X351354D02*
D03*
X348329D02*
D03*
X354379Y185700D02*
D03*
X357404D02*
D03*
X351354D02*
D03*
X348329D02*
D03*
X354379Y182700D02*
D03*
X357404D02*
D03*
X351354D02*
D03*
X348329D02*
D03*
X354379Y179700D02*
D03*
X357404D02*
D03*
X351354D02*
D03*
X348329D02*
D03*
X354379Y176700D02*
D03*
X357404D02*
D03*
X351354D02*
D03*
X348329D02*
D03*
X349504Y159700D02*
D03*
Y162725D02*
D03*
Y168775D02*
D03*
Y165750D02*
D03*
X346504Y159700D02*
D03*
Y162725D02*
D03*
Y168775D02*
D03*
Y165750D02*
D03*
X334504Y159700D02*
D03*
Y162725D02*
D03*
Y168775D02*
D03*
Y165750D02*
D03*
X331504Y159700D02*
D03*
Y162725D02*
D03*
Y168775D02*
D03*
Y165750D02*
D03*
X325504Y159700D02*
D03*
Y162725D02*
D03*
Y165750D02*
D03*
X322504Y159700D02*
D03*
Y162725D02*
D03*
X319504Y159700D02*
D03*
X316504D02*
D03*
Y162725D02*
D03*
Y171700D02*
D03*
X331504D02*
D03*
X334504D02*
D03*
X346504D02*
D03*
X349504D02*
D03*
X334504Y174700D02*
D03*
Y177700D02*
D03*
X348329Y191700D02*
D03*
Y194700D02*
D03*
X316504Y165750D02*
D03*
X319504D02*
D03*
Y162725D02*
D03*
Y168775D02*
D03*
X316504D02*
D03*
X322504D02*
D03*
Y165750D02*
D03*
Y171700D02*
D03*
X325504D02*
D03*
Y168775D02*
D03*
X348329Y203700D02*
D03*
Y200700D02*
D03*
X351354Y203700D02*
D03*
X354379Y206700D02*
D03*
X351354D02*
D03*
Y209700D02*
D03*
X318204Y242000D02*
D03*
X324204D02*
D03*
Y251000D02*
D03*
X330204D02*
D03*
X336204Y242000D02*
D03*
X333204Y251000D02*
D03*
X327204D02*
D03*
X330204Y242000D02*
D03*
X321204D02*
D03*
X327204D02*
D03*
X333204D02*
D03*
X336204Y245000D02*
D03*
X333204D02*
D03*
X330204D02*
D03*
X327204D02*
D03*
X324204D02*
D03*
X321204D02*
D03*
X318204D02*
D03*
Y248000D02*
D03*
X321204D02*
D03*
X324204D02*
D03*
X327204D02*
D03*
X330204D02*
D03*
X336204D02*
D03*
X333204D02*
D03*
X354379Y209700D02*
D03*
Y212700D02*
D03*
X351354D02*
D03*
X348329D02*
D03*
Y209700D02*
D03*
X345304Y212700D02*
D03*
X337504Y159700D02*
D03*
X343504D02*
D03*
X339254Y212700D02*
D03*
X343504Y162725D02*
D03*
Y165750D02*
D03*
Y168775D02*
D03*
Y171700D02*
D03*
Y174700D02*
D03*
Y177700D02*
D03*
X336229Y212700D02*
D03*
X340504Y159700D02*
D03*
X337504Y162725D02*
D03*
X340504D02*
D03*
X337504Y165750D02*
D03*
X340504D02*
D03*
X337504Y168775D02*
D03*
X340504D02*
D03*
X337504Y171700D02*
D03*
X340504D02*
D03*
X337504Y174700D02*
D03*
X340504D02*
D03*
X337504Y177700D02*
D03*
X340504D02*
D03*
X342279Y212700D02*
D03*
X328504Y159700D02*
D03*
Y162725D02*
D03*
Y165750D02*
D03*
Y171700D02*
D03*
Y168775D02*
D03*
X319504Y171700D02*
D03*
X136500Y206500D02*
D03*
X132100Y194900D02*
D03*
X138700Y148500D02*
D03*
X135900Y145400D02*
D03*
X131500Y146100D02*
D03*
X129200Y136300D02*
D03*
X129000Y132500D02*
D03*
X192700Y172200D02*
D03*
X42026Y329400D02*
D03*
X45916D02*
D03*
X49805D02*
D03*
X53695D02*
D03*
Y325300D02*
D03*
Y321300D02*
D03*
X49805D02*
D03*
Y325300D02*
D03*
X45916D02*
D03*
X38137D02*
D03*
X42026D02*
D03*
Y321300D02*
D03*
X45916D02*
D03*
X34247D02*
D03*
X30358Y325300D02*
D03*
X38137Y321300D02*
D03*
X30358D02*
D03*
X26468D02*
D03*
X22579D02*
D03*
X18689D02*
D03*
X14800D02*
D03*
X34247Y325300D02*
D03*
X26468D02*
D03*
X14800D02*
D03*
X22579D02*
D03*
X18689D02*
D03*
Y329400D02*
D03*
X22579D02*
D03*
X14800D02*
D03*
X26468D02*
D03*
X30358D02*
D03*
X34247D02*
D03*
X38137D02*
D03*
X80921Y325400D02*
D03*
X77031Y321400D02*
D03*
X73142Y325400D02*
D03*
X80921Y321400D02*
D03*
X73142D02*
D03*
X69253D02*
D03*
X65363D02*
D03*
X61474D02*
D03*
X57584D02*
D03*
X77031Y325400D02*
D03*
X69253D02*
D03*
X57584D02*
D03*
X65363D02*
D03*
X61474D02*
D03*
Y329500D02*
D03*
X65363D02*
D03*
X57584D02*
D03*
X69253D02*
D03*
X73142D02*
D03*
X77031D02*
D03*
X80921D02*
D03*
X224211Y55400D02*
D03*
Y52400D02*
D03*
X220133D02*
D03*
X216055D02*
D03*
X211978D02*
D03*
X207900D02*
D03*
X220133Y55400D02*
D03*
X207900D02*
D03*
X216055D02*
D03*
X211978D02*
D03*
Y58500D02*
D03*
X216055D02*
D03*
X207900D02*
D03*
X220133D02*
D03*
X224211D02*
D03*
X236444Y52400D02*
D03*
X232367D02*
D03*
X228289D02*
D03*
Y55400D02*
D03*
X236444D02*
D03*
X232367D02*
D03*
Y58500D02*
D03*
X236444D02*
D03*
X228289D02*
D03*
Y49500D02*
D03*
X232367D02*
D03*
X236444D02*
D03*
X207900D02*
D03*
X211978D02*
D03*
X216055D02*
D03*
X220133D02*
D03*
X224211D02*
D03*
X236700Y203500D02*
D03*
X239700D02*
D03*
X233700D02*
D03*
X242700D02*
D03*
X233700Y194500D02*
D03*
Y197500D02*
D03*
Y200500D02*
D03*
X236700Y194500D02*
D03*
Y197500D02*
D03*
Y200500D02*
D03*
X239700Y197500D02*
D03*
Y200500D02*
D03*
X242700Y197500D02*
D03*
Y200500D02*
D03*
X160600Y93400D02*
D03*
X351354Y194700D02*
D03*
X354379Y191700D02*
D03*
X348329Y197700D02*
D03*
X333204Y212700D02*
D03*
X357404Y188700D02*
D03*
X292500Y124900D02*
D03*
X147900Y213000D02*
D03*
X149100Y159300D02*
D03*
X29600Y288600D02*
D03*
X42200Y288800D02*
D03*
X36000Y308900D02*
D03*
X336204Y260000D02*
D03*
Y254000D02*
D03*
X333204Y260000D02*
D03*
Y254000D02*
D03*
X330204D02*
D03*
Y260000D02*
D03*
X327204D02*
D03*
Y254000D02*
D03*
X324204D02*
D03*
X321204D02*
D03*
X324204Y260000D02*
D03*
X321204D02*
D03*
X318204D02*
D03*
Y257000D02*
D03*
X321204D02*
D03*
X318204Y266000D02*
D03*
X324204Y257000D02*
D03*
X321204Y266000D02*
D03*
X327204Y257000D02*
D03*
X324204Y266000D02*
D03*
X330204Y257000D02*
D03*
X327204Y266000D02*
D03*
X333204Y257000D02*
D03*
X330204Y266000D02*
D03*
X336204Y257000D02*
D03*
Y266000D02*
D03*
X333204D02*
D03*
X245300Y94600D02*
D03*
X39000Y293000D02*
D03*
X25300Y294500D02*
D03*
X48700Y288900D02*
D03*
X71800Y288100D02*
D03*
X62500Y303400D02*
D03*
X49300Y307000D02*
D03*
X127500Y266200D02*
D03*
X174500Y135300D02*
D03*
X169800Y150900D02*
D03*
X172900Y131900D02*
D03*
X136300Y226300D02*
D03*
X195400Y227100D02*
D03*
X234100Y329600D02*
D03*
X237700Y281400D02*
D03*
X200000Y172900D02*
D03*
X204400Y171800D02*
D03*
X295000Y263100D02*
D03*
X242100Y281000D02*
D03*
X267500Y301300D02*
D03*
X213600Y123300D02*
D03*
X201175Y194700D02*
D03*
X204500Y194400D02*
D03*
X206600Y192200D02*
D03*
X217000Y183000D02*
D03*
X287400Y146000D02*
D03*
X224800Y189800D02*
D03*
X260300Y112200D02*
D03*
X316300Y112900D02*
D03*
X186200Y162500D02*
D03*
X184300Y87200D02*
D03*
X307800Y228200D02*
D03*
X295100Y223700D02*
D03*
X291500Y161500D02*
D03*
X285800Y185900D02*
D03*
X307800Y162000D02*
D03*
X55682Y317900D02*
D03*
X19765Y300565D02*
D03*
X17643Y298443D02*
D03*
X20742Y308187D02*
D03*
X19043Y305643D02*
D03*
X22000Y295600D02*
D03*
X28000Y282600D02*
D03*
X62800Y260900D02*
D03*
X60700Y258400D02*
D03*
X63400Y258200D02*
D03*
X63700Y238400D02*
D03*
X61000Y238600D02*
D03*
X63100Y241100D02*
D03*
X36600Y286100D02*
D03*
X138500Y212300D02*
D03*
X140700Y175000D02*
D03*
X133300Y189100D02*
D03*
X144200Y199800D02*
D03*
Y190600D02*
D03*
X140600Y192800D02*
D03*
X144000Y184000D02*
D03*
X141500Y186800D02*
D03*
X146500Y173200D02*
D03*
X168783Y127983D02*
D03*
X165600Y77400D02*
D03*
Y80400D02*
D03*
X162400D02*
D03*
X159300Y85700D02*
D03*
X84000Y44200D02*
D03*
X140900Y141000D02*
D03*
X133200Y138500D02*
D03*
X189100Y109200D02*
D03*
X291300Y90800D02*
D03*
X275500Y54900D02*
D03*
X254700Y83500D02*
D03*
X257500Y79800D02*
D03*
X305900Y56900D02*
D03*
X260400Y91100D02*
D03*
X267753Y153700D02*
D03*
X241000Y158000D02*
D03*
X247700Y158500D02*
D03*
X177700Y159700D02*
D03*
X181000Y159800D02*
D03*
X167700Y153100D02*
D03*
X167200Y157300D02*
D03*
X204000Y140300D02*
D03*
Y143500D02*
D03*
X202200Y153400D02*
D03*
X189800Y68400D02*
D03*
X186800Y65400D02*
D03*
Y71400D02*
D03*
X189800D02*
D03*
X158900Y179700D02*
D03*
X212000Y186700D02*
D03*
X212400Y197500D02*
D03*
X199000Y110400D02*
D03*
X196100Y113200D02*
D03*
X196500Y83400D02*
D03*
X193400Y109600D02*
D03*
X198400Y97600D02*
D03*
X147300Y318700D02*
D03*
X143600D02*
D03*
X180500Y327900D02*
D03*
X176800D02*
D03*
X173100D02*
D03*
X158400D02*
D03*
Y324800D02*
D03*
X176800D02*
D03*
X158400Y318800D02*
D03*
Y321800D02*
D03*
X162100Y318800D02*
D03*
Y321800D02*
D03*
X173100Y318800D02*
D03*
Y321800D02*
D03*
X180500D02*
D03*
X173100Y324800D02*
D03*
X176800Y318800D02*
D03*
Y321800D02*
D03*
X180500Y318800D02*
D03*
X191600D02*
D03*
X187900D02*
D03*
Y321800D02*
D03*
X184200Y318800D02*
D03*
Y321800D02*
D03*
Y324800D02*
D03*
X180500D02*
D03*
X187900D02*
D03*
X191600D02*
D03*
Y321800D02*
D03*
Y327900D02*
D03*
X187900D02*
D03*
X184200D02*
D03*
X151000Y318700D02*
D03*
X147300Y321700D02*
D03*
X143600D02*
D03*
Y324700D02*
D03*
X147300D02*
D03*
X151000D02*
D03*
Y321700D02*
D03*
X154700D02*
D03*
Y324700D02*
D03*
Y318700D02*
D03*
Y327800D02*
D03*
X151000D02*
D03*
X147300D02*
D03*
X143600D02*
D03*
X162100Y324800D02*
D03*
Y327900D02*
D03*
Y330900D02*
D03*
X143600Y330800D02*
D03*
X147300D02*
D03*
X151000D02*
D03*
X154700D02*
D03*
X184200Y330900D02*
D03*
X187900D02*
D03*
X191600D02*
D03*
X158400D02*
D03*
X173100D02*
D03*
X176800D02*
D03*
X180500D02*
D03*
X162100Y315900D02*
D03*
X143600Y315800D02*
D03*
X147300D02*
D03*
X151000D02*
D03*
X154700D02*
D03*
X184200Y315900D02*
D03*
X187900D02*
D03*
X191600D02*
D03*
X158400D02*
D03*
X173100D02*
D03*
X176800D02*
D03*
X180500D02*
D03*
X184200Y312800D02*
D03*
X187900D02*
D03*
X191600D02*
D03*
X173100D02*
D03*
X176800D02*
D03*
X180500D02*
D03*
X290300Y75300D02*
D03*
X269900Y72600D02*
D03*
X299900Y79800D02*
D03*
X274200Y97300D02*
D03*
X274300Y79200D02*
D03*
X252900Y103300D02*
D03*
X253200Y106400D02*
D03*
X259800Y116300D02*
D03*
X263700Y116600D02*
D03*
X222700Y105700D02*
D03*
X225700D02*
D03*
X228700D02*
D03*
X231700D02*
D03*
X234700D02*
D03*
Y102600D02*
D03*
X231700D02*
D03*
X228700D02*
D03*
X225700D02*
D03*
X222700D02*
D03*
X243500Y129600D02*
D03*
X240400D02*
D03*
X237300Y141900D02*
D03*
Y144900D02*
D03*
X240400D02*
D03*
Y141900D02*
D03*
X251900Y155000D02*
D03*
X134400Y131500D02*
D03*
X137400D02*
D03*
X140400D02*
D03*
Y128500D02*
D03*
X137400D02*
D03*
X140400Y125500D02*
D03*
X149800Y117900D02*
D03*
X146800D02*
D03*
X149800Y115000D02*
D03*
X163300Y148600D02*
D03*
X167600D02*
D03*
X177100D02*
D03*
X181300D02*
D03*
X165400Y146600D02*
D03*
X179300D02*
D03*
X185100Y130900D02*
D03*
X188300Y128000D02*
D03*
X191300Y131300D02*
D03*
X177700Y136500D02*
D03*
X178600Y133500D02*
D03*
Y130500D02*
D03*
X180900Y136600D02*
D03*
X181200Y128400D02*
D03*
X164500Y143200D02*
D03*
X202200Y132700D02*
D03*
X208300Y134800D02*
D03*
X191000Y134400D02*
D03*
X199500Y130400D02*
D03*
X185100Y134100D02*
D03*
X196500Y131600D02*
D03*
X206500Y137800D02*
D03*
X63500Y146900D02*
D03*
X63900Y188000D02*
D03*
X64200Y228800D02*
D03*
X139700Y269380D02*
D03*
Y272720D02*
D03*
Y276060D02*
D03*
Y278900D02*
D03*
X139900Y262500D02*
D03*
Y259160D02*
D03*
X144500Y277800D02*
D03*
Y274960D02*
D03*
X150500Y275200D02*
D03*
Y272360D02*
D03*
X176000Y210800D02*
D03*
Y207800D02*
D03*
Y204800D02*
D03*
Y201800D02*
D03*
Y198800D02*
D03*
Y195800D02*
D03*
X180600D02*
D03*
Y198800D02*
D03*
Y201800D02*
D03*
Y204800D02*
D03*
Y207800D02*
D03*
Y210800D02*
D03*
X179900Y191400D02*
D03*
Y188400D02*
D03*
X175300D02*
D03*
Y191400D02*
D03*
X158800Y216600D02*
D03*
X154200D02*
D03*
X220100Y254500D02*
D03*
X202200Y238300D02*
D03*
X212000Y238000D02*
D03*
X226200Y315800D02*
D03*
Y312150D02*
D03*
Y308500D02*
D03*
Y319450D02*
D03*
Y323100D02*
D03*
X254800Y314200D02*
D03*
X347700Y253000D02*
D03*
X100400Y47600D02*
D03*
X74700Y59700D02*
D03*
X74100Y63360D02*
D03*
X78200Y60020D02*
D03*
Y63360D02*
D03*
X81400Y60120D02*
D03*
Y63460D02*
D03*
X132200Y58000D02*
D03*
Y55000D02*
D03*
X138200D02*
D03*
X141200Y58000D02*
D03*
Y55000D02*
D03*
X144200Y61000D02*
D03*
Y58000D02*
D03*
Y55000D02*
D03*
X147200Y64000D02*
D03*
Y61000D02*
D03*
Y58000D02*
D03*
Y55000D02*
D03*
X150200Y64000D02*
D03*
Y61000D02*
D03*
Y58000D02*
D03*
Y55000D02*
D03*
X129600Y42600D02*
D03*
X138900D02*
D03*
X132600D02*
D03*
X126600D02*
D03*
X135900D02*
D03*
X141900D02*
D03*
X96200Y29900D02*
D03*
X101400D02*
D03*
X34400D02*
D03*
X31400Y26900D02*
D03*
Y29900D02*
D03*
X34400Y26900D02*
D03*
X28400D02*
D03*
Y29900D02*
D03*
X43400D02*
D03*
X40400Y26900D02*
D03*
Y29900D02*
D03*
X43400Y26900D02*
D03*
X37400D02*
D03*
Y29900D02*
D03*
X302700Y110000D02*
D03*
X305700Y107000D02*
D03*
X302700D02*
D03*
X305700Y110000D02*
D03*
Y104000D02*
D03*
X302700D02*
D03*
X305700Y115300D02*
D03*
X302700Y118300D02*
D03*
X305700D02*
D03*
X302700Y115300D02*
D03*
X281500Y110300D02*
D03*
X284500D02*
D03*
X249300Y151300D02*
D03*
X249800Y101300D02*
D03*
X195400Y220300D02*
D03*
X212900Y220600D02*
D03*
X215300Y223000D02*
D03*
X218000Y225600D02*
D03*
X103900Y118060D02*
D03*
Y124740D02*
D03*
X103600Y210380D02*
D03*
X99400D02*
D03*
Y251280D02*
D03*
X103600D02*
D03*
X162100Y165500D02*
D03*
X164800D02*
D03*
X170600Y163300D02*
D03*
X206700Y131200D02*
D03*
X186300Y192300D02*
D03*
X189100Y192400D02*
D03*
X314400Y91600D02*
D03*
Y88600D02*
D03*
Y85600D02*
D03*
Y82600D02*
D03*
Y79600D02*
D03*
X311400D02*
D03*
Y82600D02*
D03*
Y85600D02*
D03*
Y88600D02*
D03*
Y91600D02*
D03*
X308400Y79600D02*
D03*
Y82600D02*
D03*
Y85600D02*
D03*
Y88600D02*
D03*
Y91600D02*
D03*
X63700Y105900D02*
D03*
X227800Y184800D02*
D03*
X236700Y191500D02*
D03*
X239700Y194500D02*
D03*
X242700D02*
D03*
X222500Y171900D02*
D03*
X232800Y182000D02*
D03*
X243700Y168100D02*
D03*
X247300D02*
D03*
X247500Y165300D02*
D03*
X242700Y191500D02*
D03*
X239700D02*
D03*
X222700Y196300D02*
D03*
X219700Y199400D02*
D03*
Y196300D02*
D03*
X220600Y228100D02*
D03*
X262500Y251100D02*
D03*
X288159Y251041D02*
D03*
X278400Y265600D02*
D03*
X265670Y272867D02*
D03*
X264300Y264500D02*
D03*
X263500Y267400D02*
D03*
X258700Y269800D02*
D03*
X255100Y279800D02*
D03*
X256700Y277300D02*
D03*
X276000Y277000D02*
D03*
X279000D02*
D03*
X282000D02*
D03*
X287200Y258500D02*
D03*
Y261500D02*
D03*
Y264500D02*
D03*
X283200Y262500D02*
D03*
X282300Y258300D02*
D03*
Y254700D02*
D03*
X288068Y238400D02*
D03*
X284179D02*
D03*
X280290D02*
D03*
X276400D02*
D03*
Y234300D02*
D03*
X284179D02*
D03*
X276400Y230300D02*
D03*
X280290D02*
D03*
X288068D02*
D03*
X280290Y234300D02*
D03*
X284179Y230300D02*
D03*
X288068Y234300D02*
D03*
X267168Y238100D02*
D03*
X263279D02*
D03*
X259389D02*
D03*
X253500D02*
D03*
Y234000D02*
D03*
X263279D02*
D03*
X253500Y230000D02*
D03*
X259389D02*
D03*
X267168D02*
D03*
X259389Y234000D02*
D03*
X263279Y230000D02*
D03*
X267168Y234000D02*
D03*
X265800Y41000D02*
D03*
X260200Y43400D02*
D03*
Y40300D02*
D03*
Y37300D02*
D03*
X257200Y57081D02*
D03*
Y53981D02*
D03*
X258400Y265100D02*
D03*
X242300Y109900D02*
D03*
X243900Y120400D02*
D03*
X244400Y107200D02*
D03*
X255100Y100300D02*
D03*
X262500Y257000D02*
D03*
X243100Y256100D02*
D03*
X249300Y248900D02*
D03*
X249700Y256100D02*
D03*
Y244700D02*
D03*
X242000Y240900D02*
D03*
X72700Y295600D02*
D03*
X72900Y274000D02*
D03*
X139200Y248100D02*
D03*
Y251440D02*
D03*
X132300Y278900D02*
D03*
X135200Y275400D02*
D03*
X135500Y279000D02*
D03*
X103660Y279300D02*
D03*
X107000D02*
D03*
X87860Y293100D02*
D03*
X91200D02*
D03*
X68300Y295300D02*
D03*
X83400Y287800D02*
D03*
X84100Y296100D02*
D03*
X67200Y286000D02*
D03*
Y272800D02*
D03*
X87800Y273600D02*
D03*
M02*
