%FSLAX25Y25*%
%MOIN*%
G70*
G01*
G75*
G04 Layer_Physical_Order=3*
G04 Layer_Color=128*
%ADD10R,0.03543X0.02756*%
%ADD11R,0.02756X0.03543*%
%ADD12R,0.03150X0.03543*%
%ADD13R,0.01181X0.02559*%
%ADD14R,0.13780X0.08465*%
%ADD15R,0.05315X0.11024*%
%ADD16R,0.05906X0.13386*%
%ADD17R,0.03937X0.21654*%
%ADD18R,0.03347X0.01378*%
%ADD19R,0.02559X0.01181*%
%ADD20R,0.03543X0.03150*%
%ADD21C,0.03937*%
%ADD22R,0.13386X0.05906*%
%ADD23R,0.17716X0.03937*%
%ADD24R,0.12402X0.12402*%
%ADD25O,0.04134X0.00787*%
%ADD26O,0.00787X0.04134*%
%ADD27O,0.02362X0.08661*%
%ADD28R,0.21654X0.03937*%
%ADD29R,0.02756X0.13583*%
%ADD30R,0.25590X0.05709*%
%ADD31R,0.02362X0.04331*%
%ADD32R,0.01378X0.03543*%
%ADD33R,0.21850X0.21260*%
%ADD34R,0.03937X0.12008*%
%ADD35R,0.02362X0.03543*%
%ADD36R,0.03543X0.02362*%
%ADD37R,0.05118X0.07087*%
%ADD38R,0.07087X0.05118*%
%ADD39O,0.08661X0.02362*%
%ADD40R,0.04528X0.06890*%
%ADD41R,0.09055X0.12205*%
%ADD42R,0.00980X0.04331*%
%ADD43R,0.05000X0.11496*%
%ADD44R,0.11496X0.05000*%
%ADD45R,0.09449X0.06693*%
%ADD46O,0.01181X0.07087*%
%ADD47O,0.07087X0.01181*%
%ADD48R,0.15157X0.20276*%
%ADD49R,0.12205X0.07874*%
%ADD50R,0.03347X0.04134*%
%ADD51R,0.04134X0.03347*%
%ADD52R,0.03937X0.17716*%
%ADD53R,0.12598X0.03937*%
%ADD54R,0.01378X0.03347*%
%ADD55R,0.06890X0.04528*%
%ADD56C,0.00800*%
%ADD57C,0.01200*%
%ADD58C,0.00600*%
%ADD59C,0.02000*%
%ADD60C,0.01000*%
%ADD61C,0.02500*%
%ADD62C,0.01500*%
%ADD63R,0.10255X0.13405*%
%ADD64R,0.05906X0.05906*%
%ADD65C,0.05906*%
%ADD66C,0.23622*%
%ADD67C,0.06000*%
%ADD68C,0.02400*%
%ADD69C,0.04000*%
%ADD70C,0.05943*%
%ADD71C,0.05550*%
%ADD72C,0.03600*%
%ADD73C,0.14998*%
D60*
X173800Y197039D02*
Y213200D01*
X158539Y197039D02*
X173800D01*
X178400D02*
X193660D01*
X178400D02*
Y213200D01*
X193660Y197039D02*
X214540D01*
X156739D02*
X158539D01*
X106400Y71500D02*
X135100D01*
X149200Y85600D01*
Y189500D01*
X214540Y197039D02*
X214900Y197400D01*
X173800Y213200D02*
X178400D01*
X149200Y189500D02*
X156739Y197039D01*
X201600Y95600D02*
X280100D01*
X148200Y42200D02*
X201600Y95600D01*
X80000Y42200D02*
X148200D01*
X261800Y197400D02*
X277200D01*
X250700Y208500D02*
X261800Y197400D01*
X214900D02*
X226000Y208500D01*
X293700Y109200D02*
X344200D01*
X280100Y95600D02*
X293700Y109200D01*
X80000Y42200D02*
Y69200D01*
X69100D02*
X80000D01*
X69100D02*
Y74300D01*
X80200D01*
Y111200D01*
X68900D02*
X80200D01*
X68900D02*
Y115000D01*
X80200D01*
Y151900D01*
X69100D02*
X80200D01*
X69100D02*
Y156400D01*
X80100D01*
Y192300D01*
X69800D02*
X80100D01*
X69800D02*
Y197300D01*
X80100D01*
Y234100D01*
X68900D02*
X80100D01*
X68900D02*
Y238400D01*
X80000D01*
Y261500D01*
X78000Y263500D02*
X80000Y261500D01*
X49700Y263500D02*
X78000D01*
X49000Y264200D02*
X49700Y263500D01*
X49000Y264200D02*
Y276000D01*
X106400D01*
X277200Y197400D02*
X278800D01*
Y195000D02*
Y197400D01*
Y149000D02*
Y195000D01*
Y149000D02*
X344200D01*
Y109200D02*
Y149000D01*
X106400Y71500D02*
Y276000D01*
X226000Y208500D02*
X250700D01*
D69*
X0Y0D02*
X362204D01*
Y334646D01*
X0D02*
X362204D01*
X0Y0D02*
Y334646D01*
D70*
X139900Y6500D02*
D03*
Y16500D02*
D03*
X129900Y6500D02*
D03*
Y16500D02*
D03*
X119900Y6500D02*
D03*
Y16500D02*
D03*
X109900Y6500D02*
D03*
Y16500D02*
D03*
X99900Y6500D02*
D03*
Y16500D02*
D03*
X89900Y6500D02*
D03*
Y16500D02*
D03*
X79900Y6500D02*
D03*
Y16500D02*
D03*
X69900Y6500D02*
D03*
Y16500D02*
D03*
X59900Y6500D02*
D03*
Y16500D02*
D03*
X49900Y6500D02*
D03*
Y16500D02*
D03*
X39900Y6500D02*
D03*
Y16500D02*
D03*
X29900Y6500D02*
D03*
Y16500D02*
D03*
X19900Y6500D02*
D03*
Y16500D02*
D03*
X212300Y102500D02*
D03*
Y92500D02*
D03*
X202300Y102500D02*
D03*
Y92500D02*
D03*
X192300D02*
D03*
D71*
X342400Y289195D02*
D03*
Y263605D02*
D03*
D72*
X77531Y90038D02*
D03*
Y85707D02*
D03*
Y81376D02*
D03*
X73200Y90038D02*
D03*
Y85707D02*
D03*
Y81376D02*
D03*
X68869Y90038D02*
D03*
Y85707D02*
D03*
Y81376D02*
D03*
Y122276D02*
D03*
Y126607D02*
D03*
Y130938D02*
D03*
X73200Y122276D02*
D03*
Y126607D02*
D03*
Y130938D02*
D03*
X77531Y122276D02*
D03*
Y126607D02*
D03*
Y130938D02*
D03*
Y171838D02*
D03*
Y167507D02*
D03*
Y163176D02*
D03*
X73200Y171838D02*
D03*
Y167507D02*
D03*
Y163176D02*
D03*
X68869Y171838D02*
D03*
Y167507D02*
D03*
Y163176D02*
D03*
Y204076D02*
D03*
Y208407D02*
D03*
Y212738D02*
D03*
X73200Y204076D02*
D03*
Y208407D02*
D03*
Y212738D02*
D03*
X77531Y204076D02*
D03*
Y208407D02*
D03*
Y212738D02*
D03*
Y253638D02*
D03*
Y249307D02*
D03*
Y244976D02*
D03*
X73200Y253638D02*
D03*
Y249307D02*
D03*
Y244976D02*
D03*
X68869Y253638D02*
D03*
Y249307D02*
D03*
Y244976D02*
D03*
X294249Y199004D02*
D03*
Y203335D02*
D03*
X298579Y199004D02*
D03*
Y203335D02*
D03*
X302910Y199004D02*
D03*
Y203335D02*
D03*
X357600Y248200D02*
D03*
X271300Y81200D02*
D03*
X136200Y107100D02*
D03*
X124600Y101628D02*
D03*
X176700Y95700D02*
D03*
X182200Y105600D02*
D03*
X167700Y112900D02*
D03*
X165000Y114500D02*
D03*
X177400Y127500D02*
D03*
X140300Y110000D02*
D03*
X83600Y36100D02*
D03*
X90000Y50820D02*
D03*
Y54160D02*
D03*
X93100Y54420D02*
D03*
Y57760D02*
D03*
X96600Y57620D02*
D03*
Y60960D02*
D03*
X135200Y55000D02*
D03*
Y58000D02*
D03*
X138200D02*
D03*
X165000Y204900D02*
D03*
Y207900D02*
D03*
Y210900D02*
D03*
X150700Y232000D02*
D03*
X153800Y226900D02*
D03*
X153700Y232000D02*
D03*
Y236600D02*
D03*
X170000Y243600D02*
D03*
X174200Y242700D02*
D03*
X141000Y226900D02*
D03*
X144000D02*
D03*
X150800D02*
D03*
X150700Y236600D02*
D03*
X167000Y246000D02*
D03*
X191400Y239620D02*
D03*
X188800Y30900D02*
D03*
X185100D02*
D03*
X181400D02*
D03*
X199900D02*
D03*
X196200D02*
D03*
X192500D02*
D03*
X188800Y34000D02*
D03*
X185100D02*
D03*
X181400D02*
D03*
X166800Y31000D02*
D03*
X199900Y34000D02*
D03*
X196200D02*
D03*
X192500D02*
D03*
X163100Y30900D02*
D03*
X159400D02*
D03*
X155700D02*
D03*
X152000D02*
D03*
X170500Y31000D02*
D03*
X188800Y49000D02*
D03*
X185100D02*
D03*
X181400D02*
D03*
X166800Y46000D02*
D03*
X199900Y49000D02*
D03*
X196200D02*
D03*
X192500D02*
D03*
X163100Y45900D02*
D03*
X159400D02*
D03*
X155700D02*
D03*
X152000D02*
D03*
X170500Y46000D02*
D03*
Y43000D02*
D03*
Y39900D02*
D03*
X152000Y42900D02*
D03*
X155700D02*
D03*
X159400D02*
D03*
X163100D02*
D03*
Y33800D02*
D03*
Y39800D02*
D03*
Y36800D02*
D03*
X159400D02*
D03*
Y39800D02*
D03*
X155700D02*
D03*
X152000D02*
D03*
Y36800D02*
D03*
X155700D02*
D03*
X159400Y33800D02*
D03*
X192500Y46000D02*
D03*
X196200D02*
D03*
X199900D02*
D03*
Y39900D02*
D03*
Y42900D02*
D03*
X196200D02*
D03*
X188800D02*
D03*
X192500D02*
D03*
Y39900D02*
D03*
Y36900D02*
D03*
X196200Y39900D02*
D03*
Y36900D02*
D03*
X199900D02*
D03*
X188800D02*
D03*
X185100Y39900D02*
D03*
Y36900D02*
D03*
X181400Y42900D02*
D03*
X188800Y39900D02*
D03*
X181400D02*
D03*
Y36900D02*
D03*
X170500D02*
D03*
Y33900D02*
D03*
X166800Y36900D02*
D03*
Y33900D02*
D03*
X185100Y42900D02*
D03*
X166800Y39900D02*
D03*
Y43000D02*
D03*
X181400Y46000D02*
D03*
X185100D02*
D03*
X188800D02*
D03*
X152000Y33800D02*
D03*
X155700D02*
D03*
X266500Y281200D02*
D03*
X263500D02*
D03*
X260500D02*
D03*
X191400Y232940D02*
D03*
Y236280D02*
D03*
X150700Y291280D02*
D03*
X154500D02*
D03*
X150700Y294620D02*
D03*
X158400Y291340D02*
D03*
Y298020D02*
D03*
Y294680D02*
D03*
X154500Y294620D02*
D03*
Y297960D02*
D03*
X150700D02*
D03*
X288748Y314348D02*
D03*
X224100Y251500D02*
D03*
Y254500D02*
D03*
Y248500D02*
D03*
X228300Y254500D02*
D03*
Y251500D02*
D03*
Y248500D02*
D03*
X220100Y251500D02*
D03*
X224800Y229900D02*
D03*
X199400Y256800D02*
D03*
X202400D02*
D03*
X320100Y314900D02*
D03*
X312500Y314600D02*
D03*
X280100Y244600D02*
D03*
X304400Y314400D02*
D03*
X296600Y314000D02*
D03*
X272100Y276800D02*
D03*
X279500Y262300D02*
D03*
X223600Y211100D02*
D03*
X221700Y177800D02*
D03*
X202200Y232300D02*
D03*
Y225700D02*
D03*
Y235300D02*
D03*
X212000Y235000D02*
D03*
Y232000D02*
D03*
X117700Y265600D02*
D03*
X116400Y262260D02*
D03*
X120200D02*
D03*
Y258920D02*
D03*
X124100Y258980D02*
D03*
X120900Y265600D02*
D03*
X124100Y262320D02*
D03*
X130400Y268800D02*
D03*
X48500Y268900D02*
D03*
X289800Y172700D02*
D03*
Y169700D02*
D03*
Y166700D02*
D03*
X267900Y65100D02*
D03*
X260300Y61781D02*
D03*
X283525Y166800D02*
D03*
Y169800D02*
D03*
X281300Y176800D02*
D03*
Y179800D02*
D03*
Y182800D02*
D03*
Y186000D02*
D03*
X283525Y172800D02*
D03*
X280300Y189200D02*
D03*
X283325D02*
D03*
X280300Y192200D02*
D03*
X283325D02*
D03*
X280300Y195200D02*
D03*
X283325D02*
D03*
X289375Y198200D02*
D03*
X283325D02*
D03*
X280300D02*
D03*
X286350D02*
D03*
X289375Y201200D02*
D03*
X283325D02*
D03*
X280300D02*
D03*
X286350D02*
D03*
X276900Y198275D02*
D03*
Y192225D02*
D03*
Y195250D02*
D03*
Y201300D02*
D03*
X161500Y195800D02*
D03*
X112900Y26300D02*
D03*
X124500Y142800D02*
D03*
Y183200D02*
D03*
X123800Y224600D02*
D03*
X120500Y183200D02*
D03*
X116700D02*
D03*
X99600Y265300D02*
D03*
X102800D02*
D03*
X96600Y265200D02*
D03*
X99600Y224200D02*
D03*
X102800D02*
D03*
X96600Y224100D02*
D03*
X99500Y183400D02*
D03*
X102700D02*
D03*
X96500Y183300D02*
D03*
X99700Y142500D02*
D03*
X102900D02*
D03*
X96700Y142400D02*
D03*
X96500Y101600D02*
D03*
X102700Y101700D02*
D03*
X99500D02*
D03*
X49700Y94700D02*
D03*
X49800Y91100D02*
D03*
X49500Y76400D02*
D03*
X49400Y80000D02*
D03*
X116700Y88140D02*
D03*
X120650D02*
D03*
X116700Y91512D02*
D03*
X120650D02*
D03*
X116700Y94884D02*
D03*
X120650D02*
D03*
X116700Y98256D02*
D03*
X120650D02*
D03*
Y101600D02*
D03*
X116700D02*
D03*
X124600Y98256D02*
D03*
Y94884D02*
D03*
Y91512D02*
D03*
Y88140D02*
D03*
X109000Y101560D02*
D03*
Y98220D02*
D03*
Y94880D02*
D03*
Y91540D02*
D03*
Y88200D02*
D03*
X50000Y135100D02*
D03*
X50100Y131500D02*
D03*
X49400Y117200D02*
D03*
X49300Y120800D02*
D03*
X117000Y128540D02*
D03*
X120700D02*
D03*
X117000Y132080D02*
D03*
X120700D02*
D03*
X117000Y135620D02*
D03*
X120700D02*
D03*
X117000Y139160D02*
D03*
X120700D02*
D03*
Y142700D02*
D03*
X117000D02*
D03*
X124500Y139220D02*
D03*
Y135680D02*
D03*
Y132140D02*
D03*
Y128600D02*
D03*
X109300Y141960D02*
D03*
Y138620D02*
D03*
Y135280D02*
D03*
Y131940D02*
D03*
Y128600D02*
D03*
X49700Y176500D02*
D03*
X49800Y172900D02*
D03*
X49600Y158200D02*
D03*
X49500Y161800D02*
D03*
X116700Y169940D02*
D03*
X120500D02*
D03*
X116700Y173280D02*
D03*
X120500D02*
D03*
X116700Y176620D02*
D03*
X120500D02*
D03*
X116700Y179960D02*
D03*
X120500D02*
D03*
X124400Y180020D02*
D03*
Y176680D02*
D03*
Y173340D02*
D03*
Y170000D02*
D03*
X109000Y183360D02*
D03*
Y180020D02*
D03*
Y176680D02*
D03*
Y173340D02*
D03*
Y170000D02*
D03*
X49700Y217400D02*
D03*
X49800Y213800D02*
D03*
X50200Y199100D02*
D03*
X50100Y202700D02*
D03*
X115700Y210840D02*
D03*
X119700D02*
D03*
X115700Y214280D02*
D03*
X119700D02*
D03*
X115700Y217720D02*
D03*
X119700D02*
D03*
X115700Y221160D02*
D03*
X119700D02*
D03*
Y224600D02*
D03*
X115700D02*
D03*
X123800Y221220D02*
D03*
Y217780D02*
D03*
Y214340D02*
D03*
Y210900D02*
D03*
X109000Y224260D02*
D03*
Y220920D02*
D03*
Y217580D02*
D03*
Y214240D02*
D03*
Y210900D02*
D03*
Y251800D02*
D03*
Y255140D02*
D03*
Y258480D02*
D03*
Y261820D02*
D03*
Y265160D02*
D03*
X124100Y252300D02*
D03*
Y255640D02*
D03*
X116400Y258920D02*
D03*
X120200Y255580D02*
D03*
X116400D02*
D03*
X120200Y252240D02*
D03*
X116400D02*
D03*
X50100Y244800D02*
D03*
X50200Y241200D02*
D03*
X49800Y254700D02*
D03*
X49700Y258300D02*
D03*
X357404Y212700D02*
D03*
Y209700D02*
D03*
Y206700D02*
D03*
X348329D02*
D03*
X354379Y203700D02*
D03*
X357404D02*
D03*
X354379Y200700D02*
D03*
X357404D02*
D03*
X351354D02*
D03*
X354379Y197700D02*
D03*
X357404D02*
D03*
X351354D02*
D03*
X354379Y194700D02*
D03*
X357404D02*
D03*
Y191700D02*
D03*
X351354D02*
D03*
X354379Y188700D02*
D03*
X351354D02*
D03*
X348329D02*
D03*
X354379Y185700D02*
D03*
X357404D02*
D03*
X351354D02*
D03*
X348329D02*
D03*
X354379Y182700D02*
D03*
X357404D02*
D03*
X351354D02*
D03*
X348329D02*
D03*
X354379Y179700D02*
D03*
X357404D02*
D03*
X351354D02*
D03*
X348329D02*
D03*
X354379Y176700D02*
D03*
X357404D02*
D03*
X351354D02*
D03*
X348329D02*
D03*
X349504Y159700D02*
D03*
Y162725D02*
D03*
Y168775D02*
D03*
Y165750D02*
D03*
X346504Y159700D02*
D03*
Y162725D02*
D03*
Y168775D02*
D03*
Y165750D02*
D03*
X334504Y159700D02*
D03*
Y162725D02*
D03*
Y168775D02*
D03*
Y165750D02*
D03*
X331504Y159700D02*
D03*
Y162725D02*
D03*
Y168775D02*
D03*
Y165750D02*
D03*
X325504Y159700D02*
D03*
Y162725D02*
D03*
Y165750D02*
D03*
X322504Y159700D02*
D03*
Y162725D02*
D03*
X319504Y159700D02*
D03*
X316504D02*
D03*
Y162725D02*
D03*
Y171700D02*
D03*
X331504D02*
D03*
X334504D02*
D03*
X346504D02*
D03*
X349504D02*
D03*
X334504Y174700D02*
D03*
Y177700D02*
D03*
X348329Y191700D02*
D03*
Y194700D02*
D03*
X316504Y165750D02*
D03*
X319504D02*
D03*
Y162725D02*
D03*
Y168775D02*
D03*
X316504D02*
D03*
X322504D02*
D03*
Y165750D02*
D03*
Y171700D02*
D03*
X325504D02*
D03*
Y168775D02*
D03*
X348329Y203700D02*
D03*
Y200700D02*
D03*
X351354Y203700D02*
D03*
X354379Y206700D02*
D03*
X351354D02*
D03*
Y209700D02*
D03*
X354379D02*
D03*
Y212700D02*
D03*
X351354D02*
D03*
X348329D02*
D03*
Y209700D02*
D03*
X345304Y212700D02*
D03*
X337504Y159700D02*
D03*
X343504D02*
D03*
X339254Y212700D02*
D03*
X343504Y162725D02*
D03*
Y165750D02*
D03*
Y168775D02*
D03*
Y171700D02*
D03*
Y174700D02*
D03*
Y177700D02*
D03*
X336229Y212700D02*
D03*
X340504Y159700D02*
D03*
X337504Y162725D02*
D03*
X340504D02*
D03*
X337504Y165750D02*
D03*
X340504D02*
D03*
X337504Y168775D02*
D03*
X340504D02*
D03*
X337504Y171700D02*
D03*
X340504D02*
D03*
X337504Y174700D02*
D03*
X340504D02*
D03*
X337504Y177700D02*
D03*
X340504D02*
D03*
X342279Y212700D02*
D03*
X328504Y159700D02*
D03*
Y162725D02*
D03*
Y165750D02*
D03*
Y171700D02*
D03*
Y168775D02*
D03*
X319504Y171700D02*
D03*
X136500Y206500D02*
D03*
X132100Y194900D02*
D03*
X138700Y148500D02*
D03*
X135900Y145400D02*
D03*
X131500Y146100D02*
D03*
X129200Y136300D02*
D03*
X129000Y132500D02*
D03*
X192700Y172200D02*
D03*
X42026Y329400D02*
D03*
X45916D02*
D03*
X49805D02*
D03*
X53695D02*
D03*
Y325300D02*
D03*
Y321300D02*
D03*
X49805D02*
D03*
Y325300D02*
D03*
X45916D02*
D03*
X38137D02*
D03*
X42026D02*
D03*
Y321300D02*
D03*
X45916D02*
D03*
X34247D02*
D03*
X30358Y325300D02*
D03*
X38137Y321300D02*
D03*
X30358D02*
D03*
X26468D02*
D03*
X22579D02*
D03*
X18689D02*
D03*
X14800D02*
D03*
X34247Y325300D02*
D03*
X26468D02*
D03*
X14800D02*
D03*
X22579D02*
D03*
X18689D02*
D03*
Y329400D02*
D03*
X22579D02*
D03*
X14800D02*
D03*
X26468D02*
D03*
X30358D02*
D03*
X34247D02*
D03*
X38137D02*
D03*
X80921Y325400D02*
D03*
X77031Y321400D02*
D03*
X73142Y325400D02*
D03*
X80921Y321400D02*
D03*
X73142D02*
D03*
X69253D02*
D03*
X65363D02*
D03*
X61474D02*
D03*
X57584D02*
D03*
X77031Y325400D02*
D03*
X69253D02*
D03*
X57584D02*
D03*
X65363D02*
D03*
X61474D02*
D03*
Y329500D02*
D03*
X65363D02*
D03*
X57584D02*
D03*
X69253D02*
D03*
X73142D02*
D03*
X77031D02*
D03*
X80921D02*
D03*
X224211Y55400D02*
D03*
Y52400D02*
D03*
X220133D02*
D03*
X216055D02*
D03*
X211978D02*
D03*
X207900D02*
D03*
X220133Y55400D02*
D03*
X207900D02*
D03*
X216055D02*
D03*
X211978D02*
D03*
Y58500D02*
D03*
X216055D02*
D03*
X207900D02*
D03*
X220133D02*
D03*
X224211D02*
D03*
X236444Y52400D02*
D03*
X232367D02*
D03*
X228289D02*
D03*
Y55400D02*
D03*
X236444D02*
D03*
X232367D02*
D03*
Y58500D02*
D03*
X236444D02*
D03*
X228289D02*
D03*
Y49500D02*
D03*
X232367D02*
D03*
X236444D02*
D03*
X207900D02*
D03*
X211978D02*
D03*
X216055D02*
D03*
X220133D02*
D03*
X224211D02*
D03*
X160600Y93400D02*
D03*
X351354Y194700D02*
D03*
X354379Y191700D02*
D03*
X348329Y197700D02*
D03*
X333204Y212700D02*
D03*
X357404Y188700D02*
D03*
X292500Y124900D02*
D03*
X147900Y213000D02*
D03*
X149100Y159300D02*
D03*
X29600Y288600D02*
D03*
X42200Y288800D02*
D03*
X36000Y308900D02*
D03*
X245300Y94600D02*
D03*
X39000Y293000D02*
D03*
X25300Y294500D02*
D03*
X48700Y288900D02*
D03*
X71800Y288100D02*
D03*
X62500Y303400D02*
D03*
X49300Y307000D02*
D03*
X127500Y266200D02*
D03*
X174500Y135300D02*
D03*
X169800Y150900D02*
D03*
X172900Y131900D02*
D03*
X136300Y226300D02*
D03*
X195400Y227100D02*
D03*
X234100Y329600D02*
D03*
X237700Y281400D02*
D03*
X200000Y172900D02*
D03*
X204400Y171800D02*
D03*
X295000Y263100D02*
D03*
X242100Y281000D02*
D03*
X267500Y301300D02*
D03*
X213600Y123300D02*
D03*
X201175Y194700D02*
D03*
X204500Y194400D02*
D03*
X206600Y192200D02*
D03*
X217000Y183000D02*
D03*
X287400Y146000D02*
D03*
X224800Y189800D02*
D03*
X260300Y112200D02*
D03*
X316300Y112900D02*
D03*
X186200Y162500D02*
D03*
X184300Y87200D02*
D03*
X307800Y228200D02*
D03*
X295100Y223700D02*
D03*
X291500Y161500D02*
D03*
X285800Y185900D02*
D03*
X55682Y317900D02*
D03*
X19765Y300565D02*
D03*
X17643Y298443D02*
D03*
X20742Y308187D02*
D03*
X19043Y305643D02*
D03*
X22000Y295600D02*
D03*
X28000Y282600D02*
D03*
X36600Y286100D02*
D03*
X138500Y212300D02*
D03*
X140700Y175000D02*
D03*
X133300Y189100D02*
D03*
X144200Y199800D02*
D03*
Y190600D02*
D03*
X140600Y192800D02*
D03*
X144000Y184000D02*
D03*
X141500Y186800D02*
D03*
X146500Y173200D02*
D03*
X168783Y127983D02*
D03*
X159300Y85700D02*
D03*
X84000Y44200D02*
D03*
X140900Y141000D02*
D03*
X133200Y138500D02*
D03*
X189100Y109200D02*
D03*
X291300Y90800D02*
D03*
X275500Y54900D02*
D03*
X254700Y83500D02*
D03*
X257500Y79800D02*
D03*
X305900Y56900D02*
D03*
X260400Y91100D02*
D03*
X267753Y153700D02*
D03*
X241000Y158000D02*
D03*
X247700Y158500D02*
D03*
X167700Y153100D02*
D03*
X167200Y157300D02*
D03*
X204000Y140300D02*
D03*
X202200Y153400D02*
D03*
X212000Y186700D02*
D03*
X212400Y197500D02*
D03*
X199000Y110400D02*
D03*
X196100Y113200D02*
D03*
X196500Y83400D02*
D03*
X193400Y109600D02*
D03*
X198400Y97600D02*
D03*
X147300Y318700D02*
D03*
X143600D02*
D03*
X180500Y327900D02*
D03*
X176800D02*
D03*
X173100D02*
D03*
X158400D02*
D03*
Y324800D02*
D03*
X176800D02*
D03*
X158400Y318800D02*
D03*
Y321800D02*
D03*
X162100Y318800D02*
D03*
Y321800D02*
D03*
X173100Y318800D02*
D03*
Y321800D02*
D03*
X180500D02*
D03*
X173100Y324800D02*
D03*
X176800Y318800D02*
D03*
Y321800D02*
D03*
X180500Y318800D02*
D03*
X191600D02*
D03*
X187900D02*
D03*
Y321800D02*
D03*
X184200Y318800D02*
D03*
Y321800D02*
D03*
Y324800D02*
D03*
X180500D02*
D03*
X187900D02*
D03*
X191600D02*
D03*
Y321800D02*
D03*
Y327900D02*
D03*
X187900D02*
D03*
X184200D02*
D03*
X151000Y318700D02*
D03*
X147300Y321700D02*
D03*
X143600D02*
D03*
Y324700D02*
D03*
X147300D02*
D03*
X151000D02*
D03*
Y321700D02*
D03*
X154700D02*
D03*
Y324700D02*
D03*
Y318700D02*
D03*
Y327800D02*
D03*
X151000D02*
D03*
X147300D02*
D03*
X143600D02*
D03*
X162100Y324800D02*
D03*
Y327900D02*
D03*
Y330900D02*
D03*
X143600Y330800D02*
D03*
X147300D02*
D03*
X151000D02*
D03*
X154700D02*
D03*
X184200Y330900D02*
D03*
X187900D02*
D03*
X191600D02*
D03*
X158400D02*
D03*
X173100D02*
D03*
X176800D02*
D03*
X180500D02*
D03*
X162100Y315900D02*
D03*
X143600Y315800D02*
D03*
X147300D02*
D03*
X151000D02*
D03*
X154700D02*
D03*
X184200Y315900D02*
D03*
X187900D02*
D03*
X191600D02*
D03*
X158400D02*
D03*
X173100D02*
D03*
X176800D02*
D03*
X180500D02*
D03*
X184200Y312800D02*
D03*
X187900D02*
D03*
X191600D02*
D03*
X173100D02*
D03*
X176800D02*
D03*
X180500D02*
D03*
X290300Y75300D02*
D03*
X269900Y72600D02*
D03*
X299900Y79800D02*
D03*
X274300Y79200D02*
D03*
X252900Y103300D02*
D03*
X253200Y106400D02*
D03*
X259800Y116300D02*
D03*
X263700Y116600D02*
D03*
X222700Y105700D02*
D03*
X225700D02*
D03*
X228700D02*
D03*
X231700D02*
D03*
X234700D02*
D03*
Y102600D02*
D03*
X231700D02*
D03*
X228700D02*
D03*
X225700D02*
D03*
X222700D02*
D03*
X243500Y129600D02*
D03*
X240400D02*
D03*
X237300Y141900D02*
D03*
Y144900D02*
D03*
X240400D02*
D03*
Y141900D02*
D03*
X251900Y155000D02*
D03*
X134400Y131500D02*
D03*
X137400D02*
D03*
X140400D02*
D03*
Y128500D02*
D03*
X137400D02*
D03*
X140400Y125500D02*
D03*
X149800Y117900D02*
D03*
X146800D02*
D03*
X149800Y115000D02*
D03*
X163300Y148600D02*
D03*
X167600D02*
D03*
X177100D02*
D03*
X181300D02*
D03*
X165400Y146600D02*
D03*
X179300D02*
D03*
X185100Y130900D02*
D03*
X188300Y128000D02*
D03*
X191300Y131300D02*
D03*
X177700Y136500D02*
D03*
X178600Y133500D02*
D03*
Y130500D02*
D03*
X180900Y136600D02*
D03*
X181200Y128400D02*
D03*
X202200Y132700D02*
D03*
X208300Y134800D02*
D03*
X191000Y134400D02*
D03*
X199500Y130400D02*
D03*
X185100Y134100D02*
D03*
X196500Y131600D02*
D03*
X206500Y137800D02*
D03*
X63500Y146900D02*
D03*
X63900Y188000D02*
D03*
X64200Y228800D02*
D03*
X139700Y269380D02*
D03*
Y272720D02*
D03*
Y276060D02*
D03*
Y278900D02*
D03*
X139900Y262500D02*
D03*
Y259160D02*
D03*
X144500Y277800D02*
D03*
Y274960D02*
D03*
X150500Y275200D02*
D03*
Y272360D02*
D03*
X176000Y201800D02*
D03*
Y198800D02*
D03*
Y195800D02*
D03*
X180600D02*
D03*
Y198800D02*
D03*
Y201800D02*
D03*
Y204800D02*
D03*
Y207800D02*
D03*
Y210800D02*
D03*
X179900Y191400D02*
D03*
Y188400D02*
D03*
X175300D02*
D03*
Y191400D02*
D03*
X158800Y216600D02*
D03*
X154200D02*
D03*
X220100Y254500D02*
D03*
X202200Y238300D02*
D03*
X212000Y238000D02*
D03*
X226200Y315800D02*
D03*
Y312150D02*
D03*
Y308500D02*
D03*
Y319450D02*
D03*
Y323100D02*
D03*
X254800Y314200D02*
D03*
X347700Y253000D02*
D03*
X100400Y47600D02*
D03*
X74700Y59700D02*
D03*
X74100Y63360D02*
D03*
X78200Y60020D02*
D03*
Y63360D02*
D03*
X81400Y60120D02*
D03*
Y63460D02*
D03*
X132200Y58000D02*
D03*
Y55000D02*
D03*
X138200D02*
D03*
X141200Y58000D02*
D03*
Y55000D02*
D03*
X144200Y61000D02*
D03*
Y58000D02*
D03*
Y55000D02*
D03*
X147200Y64000D02*
D03*
Y61000D02*
D03*
Y58000D02*
D03*
Y55000D02*
D03*
X150200Y64000D02*
D03*
Y61000D02*
D03*
Y58000D02*
D03*
Y55000D02*
D03*
X129600Y42600D02*
D03*
X138900D02*
D03*
X132600D02*
D03*
X126600D02*
D03*
X135900D02*
D03*
X141900D02*
D03*
X96200Y29900D02*
D03*
X101400D02*
D03*
X34400D02*
D03*
X31400Y26900D02*
D03*
Y29900D02*
D03*
X34400Y26900D02*
D03*
X28400D02*
D03*
Y29900D02*
D03*
X43400D02*
D03*
X40400Y26900D02*
D03*
Y29900D02*
D03*
X43400Y26900D02*
D03*
X37400D02*
D03*
Y29900D02*
D03*
X302700Y110000D02*
D03*
X305700Y107000D02*
D03*
X302700D02*
D03*
X305700Y110000D02*
D03*
Y104000D02*
D03*
X302700D02*
D03*
X305700Y115300D02*
D03*
X302700Y118300D02*
D03*
X305700D02*
D03*
X302700Y115300D02*
D03*
X281500Y110300D02*
D03*
X284500D02*
D03*
X249300Y151300D02*
D03*
X249800Y101300D02*
D03*
X195400Y220300D02*
D03*
X212900Y220600D02*
D03*
X215300Y223000D02*
D03*
X218000Y225600D02*
D03*
X162100Y165500D02*
D03*
X164800D02*
D03*
X170600Y163300D02*
D03*
X206700Y131200D02*
D03*
X186300Y192300D02*
D03*
X189100Y192400D02*
D03*
X314400Y91600D02*
D03*
Y88600D02*
D03*
Y85600D02*
D03*
Y82600D02*
D03*
Y79600D02*
D03*
X311400D02*
D03*
Y82600D02*
D03*
Y85600D02*
D03*
Y88600D02*
D03*
Y91600D02*
D03*
X308400Y79600D02*
D03*
Y82600D02*
D03*
Y85600D02*
D03*
Y88600D02*
D03*
Y91600D02*
D03*
X63700Y105900D02*
D03*
X227800Y184800D02*
D03*
X222500Y171900D02*
D03*
X232800Y182000D02*
D03*
X243700Y168100D02*
D03*
X247300D02*
D03*
X247500Y165300D02*
D03*
X220600Y228100D02*
D03*
X262500Y251100D02*
D03*
X288159Y251041D02*
D03*
X278400Y265600D02*
D03*
X265670Y272867D02*
D03*
X264300Y264500D02*
D03*
X263500Y267400D02*
D03*
X258700Y269800D02*
D03*
X255100Y279800D02*
D03*
X256700Y277300D02*
D03*
X276000Y277000D02*
D03*
X279000D02*
D03*
X282000D02*
D03*
X287200Y258500D02*
D03*
Y261500D02*
D03*
Y264500D02*
D03*
X283200Y262500D02*
D03*
X282300Y258300D02*
D03*
Y254700D02*
D03*
X288068Y238400D02*
D03*
X284179D02*
D03*
X280290D02*
D03*
X276400D02*
D03*
Y234300D02*
D03*
X284179D02*
D03*
X276400Y230300D02*
D03*
X280290D02*
D03*
X288068D02*
D03*
X280290Y234300D02*
D03*
X284179Y230300D02*
D03*
X288068Y234300D02*
D03*
X267168Y238100D02*
D03*
X263279D02*
D03*
X259389D02*
D03*
X253500D02*
D03*
Y234000D02*
D03*
X263279D02*
D03*
X253500Y230000D02*
D03*
X259389D02*
D03*
X267168D02*
D03*
X259389Y234000D02*
D03*
X263279Y230000D02*
D03*
X267168Y234000D02*
D03*
X265800Y41000D02*
D03*
X260200Y43400D02*
D03*
Y40300D02*
D03*
Y37300D02*
D03*
X257200Y57081D02*
D03*
Y53981D02*
D03*
X258400Y265100D02*
D03*
X243900Y120400D02*
D03*
X244400Y107200D02*
D03*
X255100Y100300D02*
D03*
X262500Y257000D02*
D03*
X243100Y256100D02*
D03*
X249300Y248900D02*
D03*
X249700Y256100D02*
D03*
Y244700D02*
D03*
X242000Y240900D02*
D03*
X72700Y295600D02*
D03*
X72900Y274000D02*
D03*
X139200Y248100D02*
D03*
Y251440D02*
D03*
X132300Y278900D02*
D03*
X135200Y275400D02*
D03*
X135500Y279000D02*
D03*
X103660Y279300D02*
D03*
X107000D02*
D03*
X87860Y293100D02*
D03*
X91200D02*
D03*
X68300Y295300D02*
D03*
X83400Y287800D02*
D03*
X84100Y296100D02*
D03*
X67200Y286000D02*
D03*
Y272800D02*
D03*
X87800Y273600D02*
D03*
D73*
X14300Y280600D02*
D03*
X345900Y318100D02*
D03*
X221000Y72600D02*
D03*
X63300Y49600D02*
D03*
M02*
