%FSLAX25Y25*%
%MOIN*%
G70*
G01*
G75*
G04 Layer_Color=65535*
%ADD10R,0.03543X0.02756*%
%ADD11R,0.02756X0.03543*%
%ADD12R,0.03150X0.03543*%
%ADD13R,0.01181X0.02559*%
%ADD14R,0.13780X0.08465*%
%ADD15R,0.05315X0.11024*%
%ADD16R,0.05906X0.13386*%
%ADD17R,0.03937X0.21654*%
%ADD18R,0.03347X0.01378*%
%ADD19R,0.02559X0.01181*%
%ADD20R,0.03543X0.03150*%
%ADD21C,0.03937*%
%ADD22R,0.13386X0.05906*%
%ADD23R,0.17716X0.03937*%
%ADD24R,0.12402X0.12402*%
%ADD25O,0.04134X0.00787*%
%ADD26O,0.00787X0.04134*%
%ADD27O,0.02362X0.08661*%
%ADD28R,0.21654X0.03937*%
%ADD29R,0.02756X0.13583*%
%ADD30R,0.25590X0.05709*%
%ADD31R,0.02362X0.04331*%
%ADD32R,0.01378X0.03543*%
%ADD33R,0.21850X0.21260*%
%ADD34R,0.03937X0.12008*%
%ADD35R,0.02362X0.03543*%
%ADD36R,0.03543X0.02362*%
%ADD37R,0.05118X0.07087*%
%ADD38R,0.07087X0.05118*%
%ADD39O,0.08661X0.02362*%
%ADD40R,0.04528X0.06890*%
%ADD41R,0.09055X0.12205*%
%ADD42R,0.00980X0.04331*%
%ADD43R,0.05000X0.11496*%
%ADD44R,0.11496X0.05000*%
%ADD45R,0.09449X0.06693*%
%ADD46O,0.01181X0.07087*%
%ADD47O,0.07087X0.01181*%
%ADD48R,0.15157X0.20276*%
%ADD49R,0.12205X0.07874*%
%ADD50R,0.03347X0.04134*%
%ADD51R,0.04134X0.03347*%
%ADD52R,0.03937X0.17716*%
%ADD53R,0.12598X0.03937*%
%ADD54R,0.01378X0.03347*%
%ADD55R,0.06890X0.04528*%
%ADD56C,0.00800*%
%ADD57C,0.01200*%
%ADD58C,0.00600*%
%ADD59C,0.02000*%
%ADD60C,0.01000*%
%ADD61C,0.02500*%
%ADD62C,0.01500*%
%ADD63R,0.10255X0.13405*%
%ADD64R,0.05906X0.05906*%
%ADD65C,0.05906*%
%ADD66C,0.23622*%
%ADD67C,0.06000*%
%ADD68C,0.02400*%
%ADD69C,0.04000*%
%ADD70C,0.05943*%
%ADD71C,0.05550*%
%ADD72C,0.03600*%
%ADD73C,0.14998*%
%ADD74C,0.00984*%
%ADD75C,0.02362*%
%ADD76C,0.01575*%
%ADD77C,0.00787*%
%ADD78R,0.06700X0.01600*%
%ADD79R,0.01600X0.06700*%
%ADD80R,0.12900X0.03400*%
%ADD81R,0.14400X0.11900*%
G36*
X127350Y272000D02*
X113850Y294800D01*
X140950D01*
X127350Y272000D01*
D02*
G37*
G36*
X315623Y286200D02*
Y286157D01*
Y286114D01*
Y286071D01*
Y286029D01*
Y285986D01*
Y285943D01*
Y285900D01*
Y285857D01*
Y285814D01*
Y285771D01*
Y285728D01*
X315580D01*
Y285685D01*
X315537D01*
Y285642D01*
X315494D01*
Y285599D01*
X315451D01*
Y285556D01*
X315408D01*
Y285513D01*
X315365D01*
Y285470D01*
X315322D01*
Y285427D01*
X315279D01*
Y285385D01*
X315236D01*
Y285342D01*
X315193D01*
Y285299D01*
X315150D01*
Y285256D01*
X315107D01*
Y285213D01*
X315065D01*
Y285170D01*
X315021D01*
Y285127D01*
X314979D01*
Y285084D01*
X314936D01*
Y285041D01*
X314893D01*
Y284998D01*
X314850D01*
Y284955D01*
X314807D01*
Y284912D01*
X314764D01*
Y284869D01*
X314721D01*
Y284826D01*
X314678D01*
Y284784D01*
X314635D01*
Y284741D01*
X314592D01*
Y284698D01*
X314549D01*
Y284655D01*
X314506D01*
Y284612D01*
X314463D01*
Y284569D01*
X314421D01*
Y284526D01*
X314378D01*
Y284483D01*
X314335D01*
Y284440D01*
X314292D01*
Y284397D01*
X314249D01*
Y284354D01*
X314206D01*
Y284311D01*
X314163D01*
Y284268D01*
X314120D01*
Y284226D01*
X314077D01*
Y284183D01*
X314034D01*
Y284140D01*
X313991D01*
Y284097D01*
X313948D01*
Y284054D01*
X313905D01*
Y284011D01*
X313862D01*
Y283968D01*
Y283925D01*
X313820D01*
Y283882D01*
X313777D01*
Y283839D01*
X313734D01*
Y283796D01*
X313691D01*
Y283753D01*
X313648D01*
Y283710D01*
X313605D01*
Y283667D01*
X313562D01*
Y283625D01*
X313519D01*
Y283581D01*
X313476D01*
Y283539D01*
X313433D01*
Y283496D01*
X313390D01*
Y283453D01*
X313347D01*
Y283410D01*
X313304D01*
Y283367D01*
X313261D01*
Y283324D01*
X313218D01*
Y283281D01*
X313176D01*
Y283238D01*
X313133D01*
Y283195D01*
X313090D01*
Y283152D01*
X313047D01*
Y283109D01*
X313004D01*
Y283066D01*
X312961D01*
Y283024D01*
X312918D01*
Y282980D01*
X312875D01*
Y282938D01*
X312832D01*
Y282895D01*
X312789D01*
Y282852D01*
X312746D01*
Y282809D01*
X312703D01*
Y282766D01*
X312660D01*
Y282723D01*
X312617D01*
Y282680D01*
X312575D01*
Y282637D01*
X312532D01*
Y282594D01*
X312489D01*
Y282551D01*
X312446D01*
Y282508D01*
X312403D01*
Y282465D01*
X312360D01*
Y282422D01*
X312317D01*
Y282380D01*
X312274D01*
Y282337D01*
X312231D01*
Y282294D01*
X312188D01*
Y282251D01*
X312145D01*
Y282208D01*
X312102D01*
Y282165D01*
X312059D01*
Y282122D01*
X312017D01*
Y282079D01*
X311974D01*
Y282036D01*
X311931D01*
Y281993D01*
X311888D01*
Y281950D01*
X311845D01*
Y281907D01*
X311802D01*
Y281864D01*
X311759D01*
Y281821D01*
X311716D01*
Y281779D01*
X311673D01*
Y281736D01*
Y281693D01*
X311759D01*
Y281650D01*
Y281607D01*
Y281564D01*
Y281521D01*
Y281478D01*
Y281435D01*
Y281392D01*
Y281349D01*
Y281306D01*
Y281263D01*
Y281220D01*
Y281177D01*
Y281135D01*
Y281092D01*
Y281049D01*
Y281006D01*
Y280963D01*
Y280920D01*
Y280877D01*
Y280834D01*
Y280791D01*
Y280748D01*
Y280705D01*
Y280662D01*
Y280619D01*
Y280576D01*
Y280534D01*
Y280491D01*
Y280448D01*
Y280405D01*
Y280362D01*
Y280319D01*
Y280276D01*
Y280233D01*
Y280190D01*
Y280147D01*
Y280104D01*
Y280061D01*
Y280018D01*
Y279976D01*
Y279932D01*
X310600D01*
Y279890D01*
Y279847D01*
Y279804D01*
X310557D01*
Y279761D01*
Y279718D01*
Y279675D01*
Y279632D01*
Y279589D01*
Y279546D01*
Y279503D01*
Y279460D01*
Y279417D01*
Y279374D01*
X310514D01*
Y279331D01*
Y279289D01*
Y279246D01*
Y279203D01*
Y279160D01*
Y279117D01*
Y279074D01*
Y279031D01*
Y278988D01*
Y278945D01*
Y278902D01*
X310471D01*
Y278859D01*
Y278816D01*
Y278773D01*
Y278731D01*
Y278688D01*
Y278645D01*
Y278602D01*
Y278559D01*
Y278516D01*
Y278473D01*
Y278430D01*
X310428D01*
Y278387D01*
Y278344D01*
Y278301D01*
Y278258D01*
Y278215D01*
Y278172D01*
Y278130D01*
Y278086D01*
Y278044D01*
Y278001D01*
Y277958D01*
X310385D01*
Y277915D01*
Y277872D01*
Y277829D01*
Y277786D01*
Y277743D01*
Y277700D01*
Y277657D01*
Y277614D01*
Y277571D01*
Y277529D01*
X310342D01*
Y277485D01*
Y277443D01*
Y277400D01*
Y277357D01*
Y277314D01*
Y277271D01*
Y277228D01*
Y277185D01*
Y277142D01*
Y277099D01*
Y277056D01*
X310299D01*
Y277013D01*
Y276970D01*
Y276927D01*
Y276885D01*
Y276842D01*
Y276799D01*
Y276756D01*
Y276713D01*
Y276670D01*
Y276627D01*
Y276584D01*
X310256D01*
Y276541D01*
Y276498D01*
Y276455D01*
Y276412D01*
Y276369D01*
Y276326D01*
Y276284D01*
Y276241D01*
Y276198D01*
Y276155D01*
Y276112D01*
X310213D01*
Y276069D01*
Y276026D01*
Y275983D01*
Y275940D01*
Y275897D01*
Y275854D01*
Y275811D01*
Y275768D01*
Y275725D01*
Y275682D01*
X310171D01*
Y275640D01*
Y275597D01*
Y275554D01*
Y275511D01*
Y275468D01*
Y275425D01*
Y275382D01*
Y275339D01*
Y275296D01*
Y275253D01*
Y275210D01*
X310128D01*
Y275167D01*
Y275124D01*
Y275081D01*
Y275039D01*
Y274996D01*
Y274953D01*
Y274910D01*
Y274867D01*
Y274824D01*
Y274781D01*
Y274738D01*
X310085D01*
Y274695D01*
Y274652D01*
Y274609D01*
Y274566D01*
Y274523D01*
Y274480D01*
Y274437D01*
Y274395D01*
Y274352D01*
Y274309D01*
X310042D01*
Y274266D01*
Y274223D01*
Y274180D01*
Y274137D01*
Y274094D01*
Y274051D01*
Y274008D01*
Y273965D01*
Y273922D01*
Y273879D01*
Y273836D01*
X309999D01*
Y273794D01*
Y273751D01*
Y273708D01*
Y273665D01*
Y273622D01*
Y273579D01*
Y273536D01*
Y273493D01*
Y273450D01*
Y273407D01*
Y273364D01*
X309956D01*
Y273321D01*
Y273278D01*
Y273236D01*
Y273193D01*
X309999D01*
Y273150D01*
X310042D01*
Y273107D01*
Y273064D01*
X310085D01*
Y273021D01*
X310128D01*
Y272978D01*
X310171D01*
Y272935D01*
X310213D01*
Y272892D01*
X310256D01*
Y272849D01*
X310299D01*
Y272806D01*
X310342D01*
Y272763D01*
X310385D01*
Y272720D01*
X310428D01*
Y272677D01*
X310471D01*
Y272635D01*
X310514D01*
Y272591D01*
X310557D01*
Y272549D01*
X310600D01*
Y272506D01*
X310643D01*
Y272463D01*
X310686D01*
Y272420D01*
X310729D01*
Y272377D01*
X310771D01*
Y272334D01*
X310814D01*
Y272291D01*
X310857D01*
Y272248D01*
Y272205D01*
X310900D01*
Y272162D01*
X310943D01*
Y272119D01*
X310986D01*
Y272076D01*
X311029D01*
Y272033D01*
X311072D01*
Y271990D01*
X311115D01*
Y271948D01*
X311158D01*
Y271905D01*
X311201D01*
Y271862D01*
X311244D01*
Y271819D01*
X311287D01*
Y271776D01*
X311330D01*
Y271733D01*
X311372D01*
Y271690D01*
X311416D01*
Y271647D01*
X311458D01*
Y271604D01*
X311501D01*
Y271561D01*
X311544D01*
Y271518D01*
X311587D01*
Y271475D01*
X311630D01*
Y271432D01*
X311673D01*
Y271390D01*
Y271347D01*
X311716D01*
Y271304D01*
X311759D01*
Y271261D01*
X311802D01*
Y271218D01*
X311845D01*
Y271175D01*
X311888D01*
Y271132D01*
X311931D01*
Y271089D01*
X311974D01*
Y271046D01*
X312017D01*
Y271003D01*
X312059D01*
Y270960D01*
X312102D01*
Y270917D01*
X312145D01*
Y270874D01*
X312188D01*
Y270831D01*
X312231D01*
Y270789D01*
X312274D01*
Y270746D01*
X312317D01*
Y270703D01*
X312360D01*
Y270660D01*
X312403D01*
Y270617D01*
X312446D01*
Y270574D01*
X312489D01*
Y270531D01*
Y270488D01*
X312532D01*
Y270445D01*
X312575D01*
Y270402D01*
X312617D01*
Y270359D01*
X312660D01*
Y270316D01*
X312703D01*
Y270273D01*
X312746D01*
Y270230D01*
X312789D01*
Y270187D01*
X312832D01*
Y270145D01*
X312875D01*
Y270102D01*
X312918D01*
Y270059D01*
X312961D01*
Y270016D01*
X313004D01*
Y269973D01*
X313047D01*
Y269930D01*
X313090D01*
Y269887D01*
X313133D01*
Y269844D01*
X313176D01*
Y269801D01*
X313218D01*
Y269758D01*
X313261D01*
Y269715D01*
Y269672D01*
X313304D01*
Y269629D01*
X313347D01*
Y269586D01*
X313390D01*
Y269544D01*
X313433D01*
Y269501D01*
X313476D01*
Y269458D01*
X313519D01*
Y269415D01*
X313562D01*
Y269372D01*
X313605D01*
Y269329D01*
X313648D01*
Y269286D01*
X313691D01*
Y269243D01*
X313734D01*
Y269200D01*
X313777D01*
Y269157D01*
X313820D01*
Y269114D01*
X313862D01*
Y269071D01*
X313905D01*
Y269028D01*
X313948D01*
Y268985D01*
X313991D01*
Y268942D01*
X314034D01*
Y268900D01*
X314077D01*
Y268857D01*
Y268814D01*
X314120D01*
Y268771D01*
X314163D01*
Y268728D01*
X314206D01*
Y268685D01*
X314249D01*
Y268642D01*
X314292D01*
Y268599D01*
X314335D01*
Y268556D01*
X314378D01*
Y268513D01*
X314421D01*
Y268470D01*
X314463D01*
Y268427D01*
X314506D01*
Y268384D01*
X314549D01*
Y268341D01*
Y268299D01*
X314506D01*
Y268256D01*
X314463D01*
Y268213D01*
X314421D01*
Y268170D01*
X314378D01*
Y268127D01*
X314335D01*
Y268084D01*
X314292D01*
Y268127D01*
X314249D01*
Y268170D01*
X314206D01*
Y268213D01*
X314163D01*
Y268256D01*
X314120D01*
Y268299D01*
X314077D01*
Y268341D01*
X314034D01*
Y268384D01*
X313991D01*
Y268427D01*
X313948D01*
Y268470D01*
X313905D01*
Y268513D01*
X313862D01*
Y268556D01*
X313820D01*
Y268599D01*
X313777D01*
Y268642D01*
Y268685D01*
X313734D01*
Y268728D01*
X313691D01*
Y268771D01*
X313648D01*
Y268814D01*
X313605D01*
Y268857D01*
X313562D01*
Y268900D01*
X313519D01*
Y268942D01*
X313476D01*
Y268985D01*
X313433D01*
Y269028D01*
X313390D01*
Y269071D01*
X313347D01*
Y269114D01*
X313304D01*
Y269157D01*
X313261D01*
Y269200D01*
X313218D01*
Y269243D01*
X313176D01*
Y269286D01*
X313133D01*
Y269329D01*
X313090D01*
Y269372D01*
X313047D01*
Y269415D01*
X313004D01*
Y269458D01*
Y269501D01*
X312961D01*
Y269544D01*
X312918D01*
Y269586D01*
X312875D01*
Y269629D01*
X312832D01*
Y269672D01*
X312789D01*
Y269715D01*
X312746D01*
Y269758D01*
X312703D01*
Y269801D01*
X312660D01*
Y269844D01*
X312617D01*
Y269887D01*
X312575D01*
Y269930D01*
X312532D01*
Y269973D01*
X312489D01*
Y270016D01*
X312446D01*
Y270059D01*
X312403D01*
Y270102D01*
X312360D01*
Y270145D01*
X312317D01*
Y270187D01*
X312274D01*
Y270230D01*
X312231D01*
Y270273D01*
X312188D01*
Y270316D01*
Y270359D01*
X312145D01*
Y270402D01*
X312102D01*
Y270445D01*
X312059D01*
Y270488D01*
X312017D01*
Y270531D01*
X311974D01*
Y270574D01*
X311931D01*
Y270617D01*
X311888D01*
Y270660D01*
X311845D01*
Y270703D01*
X311802D01*
Y270746D01*
X311759D01*
Y270789D01*
X311716D01*
Y270831D01*
X311673D01*
Y270874D01*
X311630D01*
Y270917D01*
X311587D01*
Y270960D01*
X311544D01*
Y271003D01*
X311501D01*
Y271046D01*
X311458D01*
Y271089D01*
X311416D01*
Y271132D01*
Y271175D01*
X311372D01*
Y271218D01*
X311330D01*
Y271261D01*
X311287D01*
Y271304D01*
X311244D01*
Y271347D01*
X311201D01*
Y271390D01*
X311158D01*
Y271432D01*
X311115D01*
Y271475D01*
X311029D01*
Y271432D01*
Y271390D01*
Y271347D01*
X311072D01*
Y271304D01*
Y271261D01*
Y271218D01*
Y271175D01*
Y271132D01*
X311029D01*
Y271089D01*
Y271046D01*
Y271003D01*
Y270960D01*
Y270917D01*
Y270874D01*
X310986D01*
Y270831D01*
Y270789D01*
Y270746D01*
X310943D01*
Y270703D01*
Y270660D01*
Y270617D01*
X310900D01*
Y270574D01*
Y270531D01*
X310857D01*
Y270488D01*
X310814D01*
Y270445D01*
Y270402D01*
X310771D01*
Y270359D01*
X310729D01*
Y270316D01*
Y270273D01*
X310686D01*
Y270230D01*
X310643D01*
Y270187D01*
X310600D01*
Y270145D01*
X310557D01*
Y270102D01*
X310514D01*
Y270059D01*
X310428D01*
Y270016D01*
X310385D01*
Y269973D01*
X310299D01*
Y269930D01*
X310213D01*
Y269887D01*
X310128D01*
Y269844D01*
X309999D01*
Y269801D01*
X309827D01*
Y269758D01*
X309355D01*
Y269801D01*
X309183D01*
Y269844D01*
X309054D01*
Y269887D01*
X308968D01*
Y269930D01*
X308883D01*
Y269973D01*
X308797D01*
Y270016D01*
X308754D01*
Y270059D01*
X308711D01*
Y270102D01*
X308625D01*
Y270145D01*
X308582D01*
Y270187D01*
X308539D01*
Y270230D01*
X308496D01*
Y270273D01*
X308453D01*
Y270316D01*
Y270359D01*
X308410D01*
Y270402D01*
X308367D01*
Y270445D01*
Y270488D01*
X308325D01*
Y270531D01*
X304632D01*
Y270488D01*
Y270445D01*
Y270402D01*
Y270359D01*
Y270316D01*
Y270273D01*
Y270230D01*
Y270187D01*
Y270145D01*
Y270102D01*
Y270059D01*
Y270016D01*
Y269973D01*
Y269930D01*
Y269887D01*
Y269844D01*
Y269801D01*
Y269758D01*
X303731D01*
Y269801D01*
Y269844D01*
Y269887D01*
Y269930D01*
Y269973D01*
Y270016D01*
Y270059D01*
Y270102D01*
Y270145D01*
Y270187D01*
Y270230D01*
Y270273D01*
Y270316D01*
Y270359D01*
Y270402D01*
Y270445D01*
Y270488D01*
Y270531D01*
Y270574D01*
X303602D01*
Y270617D01*
X303559D01*
Y270660D01*
X303516D01*
Y270703D01*
Y270746D01*
X303473D01*
Y270789D01*
Y270831D01*
Y270874D01*
Y270917D01*
Y270960D01*
Y271003D01*
Y271046D01*
Y271089D01*
Y271132D01*
Y271175D01*
Y271218D01*
X303431D01*
Y271261D01*
Y271304D01*
Y271347D01*
Y271390D01*
Y271432D01*
Y271475D01*
Y271518D01*
Y271561D01*
Y271604D01*
Y271647D01*
Y271690D01*
Y271733D01*
X303388D01*
Y271776D01*
Y271819D01*
Y271862D01*
Y271905D01*
Y271948D01*
Y271990D01*
Y272033D01*
Y272076D01*
Y272119D01*
Y272162D01*
Y272205D01*
X303345D01*
Y272248D01*
Y272291D01*
Y272334D01*
Y272377D01*
Y272420D01*
Y272463D01*
Y272506D01*
Y272549D01*
Y272591D01*
Y272635D01*
Y272677D01*
Y272720D01*
X303302D01*
Y272763D01*
Y272806D01*
Y272849D01*
Y272892D01*
Y272935D01*
Y272978D01*
Y273021D01*
Y273064D01*
Y273107D01*
Y273150D01*
X303216D01*
Y273107D01*
X303173D01*
Y273064D01*
X303130D01*
Y273021D01*
X303087D01*
Y272978D01*
X303044D01*
Y272935D01*
X303001D01*
Y272892D01*
X302958D01*
Y272849D01*
X302915D01*
Y272806D01*
X302872D01*
Y272763D01*
X302830D01*
Y272720D01*
X302787D01*
Y272677D01*
X302744D01*
Y272635D01*
X302701D01*
Y272591D01*
X302658D01*
Y272549D01*
X302615D01*
Y272506D01*
X302572D01*
Y272463D01*
X302529D01*
Y272420D01*
X302486D01*
Y272377D01*
X302443D01*
Y272334D01*
X302400D01*
Y272291D01*
X302357D01*
Y272248D01*
X302314D01*
Y272205D01*
Y272162D01*
X302271D01*
Y272119D01*
X302228D01*
Y272076D01*
X302186D01*
Y272033D01*
X302143D01*
Y271990D01*
X302100D01*
Y271948D01*
X302057D01*
Y271905D01*
X302014D01*
Y271862D01*
X301971D01*
Y271819D01*
X301928D01*
Y271776D01*
X301885D01*
Y271733D01*
X301842D01*
Y271690D01*
X301799D01*
Y271647D01*
X301756D01*
Y271604D01*
X301713D01*
Y271561D01*
X301670D01*
Y271518D01*
X301627D01*
Y271475D01*
X301585D01*
Y271432D01*
X301542D01*
Y271390D01*
X301499D01*
Y271347D01*
X301456D01*
Y271304D01*
X301413D01*
Y271261D01*
X301370D01*
Y271218D01*
X301327D01*
Y271175D01*
X301284D01*
Y271132D01*
X301241D01*
Y271089D01*
X301198D01*
Y271046D01*
X301155D01*
Y271003D01*
X301112D01*
Y270960D01*
X301069D01*
Y270917D01*
X301027D01*
Y270874D01*
X300984D01*
Y270831D01*
X300941D01*
Y270789D01*
X300898D01*
Y270746D01*
X300855D01*
Y270703D01*
X300812D01*
Y270660D01*
X300769D01*
Y270617D01*
X300726D01*
Y270574D01*
X300683D01*
Y270531D01*
X300640D01*
Y270488D01*
X300597D01*
Y270445D01*
X300554D01*
Y270402D01*
X300511D01*
Y270359D01*
X300468D01*
Y270316D01*
X300425D01*
Y270273D01*
X300382D01*
Y270230D01*
X300340D01*
Y270187D01*
X300297D01*
Y270145D01*
X300254D01*
Y270102D01*
X300211D01*
Y270059D01*
X300168D01*
Y270016D01*
X300125D01*
Y269973D01*
X300082D01*
Y269930D01*
X300039D01*
Y269887D01*
X299996D01*
Y269844D01*
Y269801D01*
X299953D01*
Y269758D01*
X299910D01*
Y269715D01*
X299867D01*
Y269672D01*
X299824D01*
Y269629D01*
X299781D01*
Y269586D01*
X299739D01*
Y269544D01*
X299696D01*
Y269501D01*
X299653D01*
Y269458D01*
X299610D01*
Y269415D01*
X299567D01*
Y269372D01*
X299524D01*
Y269329D01*
X299481D01*
Y269286D01*
X299438D01*
Y269243D01*
X299395D01*
Y269200D01*
X299352D01*
Y269157D01*
X299309D01*
Y269114D01*
X299266D01*
Y269071D01*
X299223D01*
Y269028D01*
X299181D01*
Y268985D01*
X299138D01*
Y268942D01*
X299095D01*
Y268900D01*
X299052D01*
Y268857D01*
X299009D01*
Y268814D01*
X298966D01*
Y268771D01*
X298923D01*
Y268728D01*
X298880D01*
Y268685D01*
X298837D01*
Y268642D01*
X298794D01*
Y268599D01*
X298751D01*
Y268556D01*
X298708D01*
Y268513D01*
X298665D01*
Y268470D01*
X298622D01*
Y268427D01*
X298580D01*
Y268384D01*
X298536D01*
Y268341D01*
X298494D01*
Y268299D01*
X298451D01*
Y268256D01*
X298408D01*
Y268213D01*
X298365D01*
Y268170D01*
X298322D01*
Y268127D01*
X298279D01*
Y268084D01*
X298236D01*
Y268041D01*
X298150D01*
Y268084D01*
X298107D01*
Y268127D01*
X298064D01*
Y268170D01*
X298021D01*
Y268213D01*
X297978D01*
Y268256D01*
X297936D01*
Y268299D01*
X297978D01*
Y268341D01*
X298021D01*
Y268384D01*
X298064D01*
Y268427D01*
X298107D01*
Y268470D01*
X298150D01*
Y268513D01*
X298193D01*
Y268556D01*
X298236D01*
Y268599D01*
X298279D01*
Y268642D01*
X298322D01*
Y268685D01*
X298365D01*
Y268728D01*
X298408D01*
Y268771D01*
X298451D01*
Y268814D01*
X298494D01*
Y268857D01*
X298536D01*
Y268900D01*
X298580D01*
Y268942D01*
X298622D01*
Y268985D01*
X298665D01*
Y269028D01*
X298708D01*
Y269071D01*
X298751D01*
Y269114D01*
X298794D01*
Y269157D01*
X298837D01*
Y269200D01*
X298880D01*
Y269243D01*
X298923D01*
Y269286D01*
X298966D01*
Y269329D01*
X299009D01*
Y269372D01*
X299052D01*
Y269415D01*
X299095D01*
Y269458D01*
X299138D01*
Y269501D01*
X299181D01*
Y269544D01*
X299223D01*
Y269586D01*
X299266D01*
Y269629D01*
X299309D01*
Y269672D01*
X299352D01*
Y269715D01*
X299395D01*
Y269758D01*
X299438D01*
Y269801D01*
X299481D01*
Y269844D01*
X299524D01*
Y269887D01*
X299567D01*
Y269930D01*
X299610D01*
Y269973D01*
X299653D01*
Y270016D01*
Y270059D01*
X299696D01*
Y270102D01*
X299739D01*
Y270145D01*
X299781D01*
Y270187D01*
X299824D01*
Y270230D01*
X299867D01*
Y270273D01*
X299910D01*
Y270316D01*
X299953D01*
Y270359D01*
X299996D01*
Y270402D01*
X300039D01*
Y270445D01*
X300082D01*
Y270488D01*
X300125D01*
Y270531D01*
X300168D01*
Y270574D01*
X300211D01*
Y270617D01*
X300254D01*
Y270660D01*
X300297D01*
Y270703D01*
X300340D01*
Y270746D01*
X300382D01*
Y270789D01*
X300425D01*
Y270831D01*
X300468D01*
Y270874D01*
X300511D01*
Y270917D01*
X300554D01*
Y270960D01*
X300597D01*
Y271003D01*
X300640D01*
Y271046D01*
X300683D01*
Y271089D01*
X300726D01*
Y271132D01*
X300769D01*
Y271175D01*
X300812D01*
Y271218D01*
X300855D01*
Y271261D01*
X300898D01*
Y271304D01*
X300941D01*
Y271347D01*
X300984D01*
Y271390D01*
X301027D01*
Y271432D01*
X301069D01*
Y271475D01*
X301112D01*
Y271518D01*
X301155D01*
Y271561D01*
X301198D01*
Y271604D01*
X301241D01*
Y271647D01*
X301284D01*
Y271690D01*
X301327D01*
Y271733D01*
X301370D01*
Y271776D01*
X301413D01*
Y271819D01*
X301456D01*
Y271862D01*
X301499D01*
Y271905D01*
X301542D01*
Y271948D01*
X301585D01*
Y271990D01*
X301627D01*
Y272033D01*
X301670D01*
Y272076D01*
X301713D01*
Y272119D01*
X301756D01*
Y272162D01*
X301799D01*
Y272205D01*
X301842D01*
Y272248D01*
X301885D01*
Y272291D01*
X301928D01*
Y272334D01*
X301971D01*
Y272377D01*
X302014D01*
Y272420D01*
X302057D01*
Y272463D01*
Y272506D01*
X302100D01*
Y272549D01*
X302143D01*
Y272591D01*
X302186D01*
Y272635D01*
X302228D01*
Y272677D01*
X302271D01*
Y272720D01*
X302314D01*
Y272763D01*
X302357D01*
Y272806D01*
X302400D01*
Y272849D01*
X302443D01*
Y272892D01*
X302486D01*
Y272935D01*
X302529D01*
Y272978D01*
X302572D01*
Y273021D01*
X302615D01*
Y273064D01*
X302658D01*
Y273107D01*
X302701D01*
Y273150D01*
X302744D01*
Y273193D01*
X302787D01*
Y273236D01*
X302830D01*
Y273278D01*
X302872D01*
Y273321D01*
X302915D01*
Y273364D01*
X302958D01*
Y273407D01*
X303001D01*
Y273450D01*
X303044D01*
Y273493D01*
X303087D01*
Y273536D01*
X303130D01*
Y273579D01*
X303173D01*
Y273622D01*
X303216D01*
Y273665D01*
X303259D01*
Y273708D01*
X303216D01*
Y273751D01*
Y273794D01*
Y273836D01*
Y273879D01*
Y273922D01*
Y273965D01*
Y274008D01*
Y274051D01*
Y274094D01*
Y274137D01*
Y274180D01*
Y274223D01*
X303173D01*
Y274266D01*
Y274309D01*
Y274352D01*
Y274395D01*
Y274437D01*
Y274480D01*
Y274523D01*
Y274566D01*
Y274609D01*
Y274652D01*
Y274695D01*
X303130D01*
Y274738D01*
Y274781D01*
Y274824D01*
Y274867D01*
Y274910D01*
Y274953D01*
Y274996D01*
Y275039D01*
Y275081D01*
Y275124D01*
Y275167D01*
Y275210D01*
X303087D01*
Y275253D01*
Y275296D01*
Y275339D01*
Y275382D01*
Y275425D01*
Y275468D01*
Y275511D01*
Y275554D01*
Y275597D01*
Y275640D01*
Y275682D01*
Y275725D01*
X303044D01*
Y275768D01*
Y275811D01*
Y275854D01*
Y275897D01*
Y275940D01*
Y275983D01*
Y276026D01*
Y276069D01*
Y276112D01*
Y276155D01*
Y276198D01*
X303001D01*
Y276241D01*
Y276284D01*
Y276326D01*
Y276369D01*
Y276412D01*
Y276455D01*
Y276498D01*
Y276541D01*
Y276584D01*
Y276627D01*
Y276670D01*
Y276713D01*
X302958D01*
Y276756D01*
Y276799D01*
Y276842D01*
Y276885D01*
Y276927D01*
Y276970D01*
Y277013D01*
Y277056D01*
Y277099D01*
Y277142D01*
Y277185D01*
Y277228D01*
X302915D01*
Y277271D01*
Y277314D01*
Y277357D01*
Y277400D01*
Y277443D01*
Y277485D01*
Y277529D01*
Y277571D01*
Y277614D01*
Y277657D01*
Y277700D01*
X302872D01*
Y277743D01*
Y277786D01*
Y277829D01*
Y277872D01*
Y277915D01*
Y277958D01*
Y278001D01*
Y278044D01*
Y278086D01*
Y278130D01*
Y278172D01*
Y278215D01*
X302830D01*
Y278258D01*
Y278301D01*
Y278344D01*
Y278387D01*
Y278430D01*
Y278473D01*
Y278516D01*
Y278559D01*
Y278602D01*
Y278645D01*
Y278688D01*
X302787D01*
Y278731D01*
Y278773D01*
Y278816D01*
Y278859D01*
Y278902D01*
Y278945D01*
Y278988D01*
Y279031D01*
Y279074D01*
Y279117D01*
Y279160D01*
Y279203D01*
X302744D01*
Y279246D01*
Y279289D01*
Y279331D01*
Y279374D01*
Y279417D01*
Y279460D01*
Y279503D01*
Y279546D01*
Y279589D01*
Y279632D01*
Y279675D01*
Y279718D01*
X302701D01*
Y279761D01*
Y279804D01*
Y279847D01*
Y279890D01*
Y279932D01*
Y279976D01*
Y280018D01*
Y280061D01*
Y280104D01*
Y280147D01*
Y280190D01*
X302658D01*
Y280233D01*
Y280276D01*
Y280319D01*
Y280362D01*
Y280405D01*
X302615D01*
Y280448D01*
X302572D01*
Y280491D01*
X302529D01*
Y280534D01*
X302486D01*
Y280576D01*
X302443D01*
Y280619D01*
X302400D01*
Y280662D01*
X302357D01*
Y280705D01*
X302314D01*
Y280748D01*
X302271D01*
Y280791D01*
X302228D01*
Y280834D01*
X302186D01*
Y280877D01*
X302143D01*
Y280920D01*
X302100D01*
Y280963D01*
X302057D01*
Y281006D01*
X302014D01*
Y281049D01*
Y281092D01*
X301971D01*
Y281135D01*
X301928D01*
Y281177D01*
X301885D01*
Y281220D01*
X301842D01*
Y281263D01*
X301799D01*
Y281306D01*
X301756D01*
Y281349D01*
X301713D01*
Y281392D01*
X301670D01*
Y281435D01*
X301627D01*
Y281478D01*
X301585D01*
Y281521D01*
X301542D01*
Y281564D01*
X301499D01*
Y281607D01*
X301456D01*
Y281650D01*
X301413D01*
Y281693D01*
X301370D01*
Y281736D01*
X301327D01*
Y281779D01*
X301284D01*
Y281821D01*
X301241D01*
Y281864D01*
Y281907D01*
X301198D01*
Y281950D01*
X301155D01*
Y281993D01*
X301112D01*
Y282036D01*
X301069D01*
Y282079D01*
X301027D01*
Y282122D01*
X300984D01*
Y282165D01*
X300941D01*
Y282208D01*
X300898D01*
Y282251D01*
X300855D01*
Y282294D01*
X300812D01*
Y282337D01*
X300769D01*
Y282380D01*
X300726D01*
Y282422D01*
X300683D01*
Y282465D01*
X300640D01*
Y282508D01*
X300597D01*
Y282551D01*
X300554D01*
Y282594D01*
X300511D01*
Y282637D01*
X300468D01*
Y282680D01*
Y282723D01*
X300425D01*
Y282766D01*
X300382D01*
Y282809D01*
X300340D01*
Y282852D01*
X300297D01*
Y282895D01*
X300254D01*
Y282938D01*
X300211D01*
Y282980D01*
X300168D01*
Y283024D01*
X300125D01*
Y283066D01*
X300082D01*
Y283109D01*
X300039D01*
Y283152D01*
X299996D01*
Y283195D01*
X299953D01*
Y283238D01*
X299910D01*
Y283281D01*
X299867D01*
Y283324D01*
X299824D01*
Y283367D01*
X299781D01*
Y283410D01*
X299739D01*
Y283453D01*
X299696D01*
Y283496D01*
Y283539D01*
X299653D01*
Y283581D01*
X299610D01*
Y283625D01*
X299567D01*
Y283667D01*
X299524D01*
Y283710D01*
X299481D01*
Y283753D01*
X299438D01*
Y283796D01*
X299395D01*
Y283839D01*
X299352D01*
Y283882D01*
X299309D01*
Y283925D01*
X299266D01*
Y283968D01*
X299223D01*
Y284011D01*
X299181D01*
Y284054D01*
X299138D01*
Y284097D01*
X299095D01*
Y284140D01*
X299052D01*
Y284183D01*
X299009D01*
Y284226D01*
X298966D01*
Y284268D01*
X298923D01*
Y284311D01*
Y284354D01*
X298880D01*
Y284397D01*
X298837D01*
Y284440D01*
X298794D01*
Y284483D01*
X298751D01*
Y284526D01*
X298708D01*
Y284569D01*
X298665D01*
Y284612D01*
X298622D01*
Y284655D01*
X298580D01*
Y284698D01*
X298536D01*
Y284741D01*
X298494D01*
Y284784D01*
X298451D01*
Y284826D01*
X298408D01*
Y284869D01*
X298365D01*
Y284912D01*
X298322D01*
Y284955D01*
X298279D01*
Y284998D01*
X298236D01*
Y285041D01*
X298193D01*
Y285084D01*
X298150D01*
Y285127D01*
X298107D01*
Y285170D01*
Y285213D01*
X298064D01*
Y285256D01*
X298021D01*
Y285299D01*
X297978D01*
Y285342D01*
X297936D01*
Y285385D01*
X297893D01*
Y285427D01*
X297850D01*
Y285470D01*
X297807D01*
Y285513D01*
X297764D01*
Y285556D01*
X297721D01*
Y285599D01*
X297678D01*
Y285642D01*
X297635D01*
Y285685D01*
X297592D01*
Y285728D01*
Y285771D01*
Y285814D01*
Y285857D01*
Y285900D01*
Y285943D01*
Y285986D01*
Y286029D01*
Y286071D01*
Y286114D01*
Y286157D01*
Y286200D01*
X297635D01*
Y286157D01*
X297678D01*
Y286114D01*
X297721D01*
Y286071D01*
X297764D01*
Y286029D01*
X297807D01*
Y285986D01*
X297850D01*
Y285943D01*
X297893D01*
Y285900D01*
X297936D01*
Y285857D01*
Y285814D01*
X297978D01*
Y285771D01*
X298021D01*
Y285728D01*
X298064D01*
Y285685D01*
X298107D01*
Y285642D01*
X298150D01*
Y285599D01*
X298193D01*
Y285556D01*
X298236D01*
Y285513D01*
X298279D01*
Y285470D01*
X298322D01*
Y285427D01*
X298365D01*
Y285385D01*
X298408D01*
Y285342D01*
X298451D01*
Y285299D01*
X298494D01*
Y285256D01*
X298536D01*
Y285213D01*
X298580D01*
Y285170D01*
X298622D01*
Y285127D01*
X298665D01*
Y285084D01*
X298708D01*
Y285041D01*
X298751D01*
Y284998D01*
Y284955D01*
X298794D01*
Y284912D01*
X298837D01*
Y284869D01*
X298880D01*
Y284826D01*
X298923D01*
Y284784D01*
X298966D01*
Y284741D01*
X299009D01*
Y284698D01*
X299052D01*
Y284655D01*
X299095D01*
Y284612D01*
X299138D01*
Y284569D01*
X299181D01*
Y284526D01*
X299223D01*
Y284483D01*
X299266D01*
Y284440D01*
X299309D01*
Y284397D01*
X299352D01*
Y284354D01*
X299395D01*
Y284311D01*
X299438D01*
Y284268D01*
X299481D01*
Y284226D01*
X299524D01*
Y284183D01*
X299567D01*
Y284140D01*
Y284097D01*
X299610D01*
Y284054D01*
X299653D01*
Y284011D01*
X299696D01*
Y283968D01*
X299739D01*
Y283925D01*
X299781D01*
Y283882D01*
X299824D01*
Y283839D01*
X299867D01*
Y283796D01*
X299910D01*
Y283753D01*
X299953D01*
Y283710D01*
X299996D01*
Y283667D01*
X300039D01*
Y283625D01*
X300082D01*
Y283581D01*
X300125D01*
Y283539D01*
X300168D01*
Y283496D01*
X300211D01*
Y283453D01*
X300254D01*
Y283410D01*
X300297D01*
Y283367D01*
X300340D01*
Y283324D01*
Y283281D01*
X300382D01*
Y283238D01*
X300425D01*
Y283195D01*
X300468D01*
Y283152D01*
X300511D01*
Y283109D01*
X300554D01*
Y283066D01*
X300597D01*
Y283024D01*
X300640D01*
Y282980D01*
X300683D01*
Y282938D01*
X300726D01*
Y282895D01*
X300769D01*
Y282852D01*
X300812D01*
Y282809D01*
X300855D01*
Y282766D01*
X300898D01*
Y282723D01*
X300941D01*
Y282680D01*
X300984D01*
Y282637D01*
X301027D01*
Y282594D01*
X301069D01*
Y282551D01*
X301112D01*
Y282508D01*
X301155D01*
Y282465D01*
Y282422D01*
X301198D01*
Y282380D01*
X301241D01*
Y282337D01*
X301284D01*
Y282294D01*
X301327D01*
Y282251D01*
X301370D01*
Y282208D01*
X301413D01*
Y282165D01*
X301456D01*
Y282122D01*
X301499D01*
Y282079D01*
X301542D01*
Y282036D01*
X301585D01*
Y281993D01*
X301627D01*
Y281950D01*
X301670D01*
Y281907D01*
X301713D01*
Y281864D01*
X301756D01*
Y281821D01*
X301799D01*
Y281779D01*
X301842D01*
Y281736D01*
X301885D01*
Y281693D01*
X301928D01*
Y281650D01*
X301971D01*
Y281607D01*
Y281564D01*
X302014D01*
Y281521D01*
X302057D01*
Y281478D01*
X302100D01*
Y281435D01*
X302143D01*
Y281392D01*
X302186D01*
Y281349D01*
X302228D01*
Y281306D01*
X302271D01*
Y281263D01*
X302314D01*
Y281220D01*
X302357D01*
Y281177D01*
X302400D01*
Y281135D01*
X302443D01*
Y281092D01*
X302486D01*
Y281049D01*
X302529D01*
Y281006D01*
X302572D01*
Y280963D01*
X302615D01*
Y281006D01*
Y281049D01*
Y281092D01*
Y281135D01*
Y281177D01*
Y281220D01*
X302572D01*
Y281263D01*
Y281306D01*
Y281349D01*
Y281392D01*
Y281435D01*
Y281478D01*
Y281521D01*
Y281564D01*
Y281607D01*
Y281650D01*
Y281693D01*
X302529D01*
Y281736D01*
Y281779D01*
Y281821D01*
Y281864D01*
Y281907D01*
Y281950D01*
Y281993D01*
Y282036D01*
Y282079D01*
Y282122D01*
Y282165D01*
Y282208D01*
X302486D01*
Y282251D01*
Y282294D01*
Y282337D01*
Y282380D01*
Y282422D01*
Y282465D01*
Y282508D01*
Y282551D01*
X301842D01*
Y282594D01*
Y282637D01*
Y282680D01*
Y282723D01*
Y282766D01*
Y282809D01*
Y282852D01*
Y282895D01*
Y282938D01*
Y282980D01*
Y283024D01*
X302400D01*
Y283066D01*
X302443D01*
Y283109D01*
Y283152D01*
X302486D01*
Y283195D01*
Y283238D01*
X302529D01*
Y283281D01*
Y283324D01*
X302572D01*
Y283367D01*
X302615D01*
Y283410D01*
Y283453D01*
X302658D01*
Y283496D01*
X302701D01*
Y283539D01*
X302744D01*
Y283581D01*
X302787D01*
Y283625D01*
X302830D01*
Y283667D01*
X302872D01*
Y283710D01*
X302915D01*
Y283753D01*
X302958D01*
Y283796D01*
X303044D01*
Y283839D01*
X303087D01*
Y283882D01*
X303173D01*
Y283925D01*
X303259D01*
Y283968D01*
X303345D01*
Y284011D01*
X303431D01*
Y284054D01*
X303473D01*
Y284097D01*
Y284140D01*
Y284183D01*
Y284226D01*
Y284268D01*
Y284311D01*
Y284354D01*
Y284397D01*
X304289D01*
Y284354D01*
X304504D01*
Y284397D01*
X304718D01*
Y284440D01*
X305019D01*
Y284483D01*
X305362D01*
Y284526D01*
X305749D01*
Y284569D01*
Y284612D01*
Y284655D01*
Y284698D01*
Y284741D01*
X308239D01*
Y284698D01*
Y284655D01*
Y284612D01*
Y284569D01*
Y284526D01*
Y284483D01*
X308367D01*
Y284440D01*
X308625D01*
Y284397D01*
X308840D01*
Y284354D01*
X309054D01*
Y284311D01*
X309226D01*
Y284268D01*
X309355D01*
Y284226D01*
X309484D01*
Y284183D01*
X309612D01*
Y284140D01*
X309741D01*
Y284097D01*
X309827D01*
Y284054D01*
X309913D01*
Y284011D01*
X309999D01*
Y283968D01*
X310085D01*
Y283925D01*
X310128D01*
Y283882D01*
X310213D01*
Y283839D01*
X310256D01*
Y283796D01*
X310342D01*
Y283753D01*
X310385D01*
Y283710D01*
X310428D01*
Y283667D01*
X310471D01*
Y283625D01*
X310514D01*
Y283581D01*
X310557D01*
Y283539D01*
X310600D01*
Y283581D01*
X310643D01*
Y283625D01*
X310686D01*
Y283667D01*
X310729D01*
Y283710D01*
X310814D01*
Y283753D01*
X310900D01*
Y283796D01*
X311072D01*
Y283839D01*
X311158D01*
Y283796D01*
X311330D01*
Y283753D01*
X311458D01*
Y283710D01*
X311501D01*
Y283667D01*
X311544D01*
Y283625D01*
X311587D01*
Y283581D01*
X311630D01*
Y283539D01*
X311673D01*
Y283496D01*
Y283453D01*
X311716D01*
Y283410D01*
Y283367D01*
X311759D01*
Y283324D01*
Y283281D01*
Y283238D01*
Y283195D01*
X311802D01*
Y283152D01*
Y283109D01*
X311759D01*
Y283066D01*
Y283024D01*
Y282980D01*
Y282938D01*
X311716D01*
Y282895D01*
Y282852D01*
X311673D01*
Y282809D01*
Y282766D01*
X311630D01*
Y282723D01*
X311587D01*
Y282680D01*
X311544D01*
Y282637D01*
X311501D01*
Y282594D01*
X311416D01*
Y282551D01*
X311330D01*
Y282508D01*
X310900D01*
Y282551D01*
X310814D01*
Y282508D01*
Y282465D01*
Y282422D01*
Y282380D01*
Y282337D01*
Y282294D01*
Y282251D01*
Y282208D01*
Y282165D01*
Y282122D01*
X310771D01*
Y282079D01*
Y282036D01*
Y281993D01*
Y281950D01*
Y281907D01*
Y281864D01*
Y281821D01*
Y281779D01*
Y281736D01*
Y281693D01*
X311158D01*
Y281736D01*
X311201D01*
Y281779D01*
X311244D01*
Y281821D01*
X311287D01*
Y281864D01*
X311330D01*
Y281907D01*
X311372D01*
Y281950D01*
X311416D01*
Y281993D01*
X311458D01*
Y282036D01*
X311501D01*
Y282079D01*
X311544D01*
Y282122D01*
X311587D01*
Y282165D01*
X311630D01*
Y282208D01*
X311673D01*
Y282251D01*
X311716D01*
Y282294D01*
X311759D01*
Y282337D01*
X311802D01*
Y282380D01*
X311845D01*
Y282422D01*
Y282465D01*
X311888D01*
Y282508D01*
X311931D01*
Y282551D01*
X311974D01*
Y282594D01*
X312017D01*
Y282637D01*
X312059D01*
Y282680D01*
X312102D01*
Y282723D01*
X312145D01*
Y282766D01*
X312188D01*
Y282809D01*
X312231D01*
Y282852D01*
X312274D01*
Y282895D01*
X312317D01*
Y282938D01*
X312360D01*
Y282980D01*
X312403D01*
Y283024D01*
X312446D01*
Y283066D01*
X312489D01*
Y283109D01*
X312532D01*
Y283152D01*
X312575D01*
Y283195D01*
X312617D01*
Y283238D01*
X312660D01*
Y283281D01*
X312703D01*
Y283324D01*
X312746D01*
Y283367D01*
X312789D01*
Y283410D01*
X312832D01*
Y283453D01*
X312875D01*
Y283496D01*
X312918D01*
Y283539D01*
X312961D01*
Y283581D01*
X313004D01*
Y283625D01*
X313047D01*
Y283667D01*
X313090D01*
Y283710D01*
X313133D01*
Y283753D01*
X313176D01*
Y283796D01*
X313218D01*
Y283839D01*
X313261D01*
Y283882D01*
X313304D01*
Y283925D01*
X313347D01*
Y283968D01*
X313390D01*
Y284011D01*
X313433D01*
Y284054D01*
X313476D01*
Y284097D01*
X313519D01*
Y284140D01*
X313562D01*
Y284183D01*
X313605D01*
Y284226D01*
X313648D01*
Y284268D01*
X313691D01*
Y284311D01*
X313734D01*
Y284354D01*
X313777D01*
Y284397D01*
X313820D01*
Y284440D01*
X313862D01*
Y284483D01*
X313905D01*
Y284526D01*
X313948D01*
Y284569D01*
X313991D01*
Y284612D01*
X314034D01*
Y284655D01*
X314077D01*
Y284698D01*
X314120D01*
Y284741D01*
X314163D01*
Y284784D01*
X314206D01*
Y284826D01*
X314249D01*
Y284869D01*
Y284912D01*
X314292D01*
Y284955D01*
X314335D01*
Y284998D01*
X314378D01*
Y285041D01*
X314421D01*
Y285084D01*
X314463D01*
Y285127D01*
X314506D01*
Y285170D01*
X314549D01*
Y285213D01*
X314592D01*
Y285256D01*
X314635D01*
Y285299D01*
X314678D01*
Y285342D01*
X314721D01*
Y285385D01*
X314764D01*
Y285427D01*
X314807D01*
Y285470D01*
X314850D01*
Y285513D01*
X314893D01*
Y285556D01*
X314936D01*
Y285599D01*
X314979D01*
Y285642D01*
X315021D01*
Y285685D01*
X315065D01*
Y285728D01*
X315107D01*
Y285771D01*
X315150D01*
Y285814D01*
X315193D01*
Y285857D01*
X315236D01*
Y285900D01*
X315279D01*
Y285943D01*
X315322D01*
Y285986D01*
X315365D01*
Y286029D01*
X315408D01*
Y286071D01*
X315451D01*
Y286114D01*
X315494D01*
Y286157D01*
X315537D01*
Y286200D01*
X315580D01*
Y286243D01*
X315623D01*
Y286200D01*
D02*
G37*
G36*
X313948Y264263D02*
Y264220D01*
Y264177D01*
Y264134D01*
Y264091D01*
Y264049D01*
Y264006D01*
Y263963D01*
Y263920D01*
Y263877D01*
Y263834D01*
Y263791D01*
Y263748D01*
Y263705D01*
Y263662D01*
Y263619D01*
Y263576D01*
Y263533D01*
Y263490D01*
Y263447D01*
Y263405D01*
Y263362D01*
Y263319D01*
Y263276D01*
Y263233D01*
Y263190D01*
Y263147D01*
Y263104D01*
Y263061D01*
Y263018D01*
Y262975D01*
Y262932D01*
Y262889D01*
Y262846D01*
Y262804D01*
Y262761D01*
Y262718D01*
Y262675D01*
Y262632D01*
Y262589D01*
Y262546D01*
Y262503D01*
Y262460D01*
Y262417D01*
Y262374D01*
Y262331D01*
Y262288D01*
Y262245D01*
Y262203D01*
Y262160D01*
Y262117D01*
Y262074D01*
Y262031D01*
Y261988D01*
Y261945D01*
Y261902D01*
Y261859D01*
Y261816D01*
Y261773D01*
Y261730D01*
Y261687D01*
Y261645D01*
Y261601D01*
Y261559D01*
Y261516D01*
Y261473D01*
Y261430D01*
Y261387D01*
Y261344D01*
Y261301D01*
Y261258D01*
Y261215D01*
Y261172D01*
Y261129D01*
Y261086D01*
Y261043D01*
Y261000D01*
Y260958D01*
Y260915D01*
Y260872D01*
Y260829D01*
Y260786D01*
Y260743D01*
Y260700D01*
X299052D01*
Y260743D01*
Y260786D01*
Y260829D01*
Y260872D01*
Y260915D01*
Y260958D01*
Y261000D01*
Y261043D01*
Y261086D01*
Y261129D01*
Y261172D01*
Y261215D01*
Y261258D01*
Y261301D01*
Y261344D01*
Y261387D01*
Y261430D01*
Y261473D01*
Y261516D01*
Y261559D01*
Y261601D01*
Y261645D01*
Y261687D01*
Y261730D01*
Y261773D01*
Y261816D01*
Y261859D01*
Y261902D01*
Y261945D01*
Y261988D01*
Y262031D01*
Y262074D01*
Y262117D01*
Y262160D01*
Y262203D01*
Y262245D01*
Y262288D01*
Y262331D01*
Y262374D01*
Y262417D01*
Y262460D01*
Y262503D01*
Y262546D01*
Y262589D01*
Y262632D01*
Y262675D01*
Y262718D01*
Y262761D01*
Y262804D01*
Y262846D01*
Y262889D01*
Y262932D01*
Y262975D01*
Y263018D01*
Y263061D01*
Y263104D01*
Y263147D01*
Y263190D01*
Y263233D01*
Y263276D01*
Y263319D01*
Y263362D01*
Y263405D01*
Y263447D01*
Y263490D01*
Y263533D01*
Y263576D01*
Y263619D01*
Y263662D01*
Y263705D01*
Y263748D01*
Y263791D01*
Y263834D01*
Y263877D01*
Y263920D01*
Y263963D01*
Y264006D01*
Y264049D01*
Y264091D01*
Y264134D01*
Y264177D01*
Y264220D01*
Y264263D01*
Y264306D01*
X313948D01*
Y264263D01*
D02*
G37*
%LPC*%
G36*
X310042Y280061D02*
X309999D01*
Y280018D01*
X309956D01*
Y279976D01*
X309913D01*
Y279932D01*
X309870D01*
Y279890D01*
X309827D01*
Y279847D01*
X309784D01*
Y279804D01*
X309741D01*
Y279761D01*
X309698D01*
Y279718D01*
X309655D01*
Y279675D01*
X309612D01*
Y279632D01*
X309570D01*
Y279589D01*
X309526D01*
Y279546D01*
X309484D01*
Y279503D01*
X309441D01*
Y279460D01*
X309398D01*
Y279417D01*
X309355D01*
Y279374D01*
X309312D01*
Y279331D01*
X309269D01*
Y279289D01*
X309226D01*
Y279246D01*
Y279203D01*
X309183D01*
Y279160D01*
X309140D01*
Y279117D01*
X309097D01*
Y279074D01*
X309054D01*
Y279031D01*
X309011D01*
Y278988D01*
X308968D01*
Y278945D01*
X308926D01*
Y278902D01*
X308883D01*
Y278859D01*
X308840D01*
Y278816D01*
X308797D01*
Y278773D01*
X308754D01*
Y278731D01*
X308711D01*
Y278688D01*
X308668D01*
Y278645D01*
X308625D01*
Y278602D01*
X308582D01*
Y278559D01*
X308539D01*
Y278516D01*
X308496D01*
Y278473D01*
X308453D01*
Y278430D01*
X308410D01*
Y278387D01*
X308367D01*
Y278344D01*
X308325D01*
Y278301D01*
X308282D01*
Y278258D01*
X308239D01*
Y278215D01*
X308196D01*
Y278172D01*
X308153D01*
Y278130D01*
X308110D01*
Y278086D01*
X308067D01*
Y278044D01*
X308024D01*
Y278001D01*
X307981D01*
Y277958D01*
X307938D01*
Y277915D01*
X307895D01*
Y277872D01*
X307852D01*
Y277829D01*
X307809D01*
Y277786D01*
X307766D01*
Y277743D01*
X307723D01*
Y277700D01*
X307681D01*
Y277657D01*
X307638D01*
Y277614D01*
X307595D01*
Y277571D01*
X307552D01*
Y277529D01*
X307509D01*
Y277485D01*
X307466D01*
Y277443D01*
X307423D01*
Y277400D01*
X307380D01*
Y277357D01*
X307337D01*
Y277314D01*
X307294D01*
Y277271D01*
X307251D01*
Y277228D01*
X307208D01*
Y277185D01*
X307165D01*
Y277142D01*
X307122D01*
Y277099D01*
X307080D01*
Y277056D01*
X307037D01*
Y277013D01*
X306994D01*
Y276970D01*
X306951D01*
Y276927D01*
Y276885D01*
X306908D01*
Y276842D01*
X306865D01*
Y276799D01*
X306822D01*
Y276756D01*
X306779D01*
Y276713D01*
X306736D01*
Y276670D01*
X306693D01*
Y276627D01*
X306736D01*
Y276584D01*
X306779D01*
Y276541D01*
X306822D01*
Y276498D01*
Y276455D01*
X306865D01*
Y276412D01*
X306908D01*
Y276369D01*
X306951D01*
Y276326D01*
X306994D01*
Y276284D01*
X307037D01*
Y276241D01*
X307080D01*
Y276198D01*
X307122D01*
Y276155D01*
X307165D01*
Y276112D01*
X307208D01*
Y276069D01*
X307251D01*
Y276026D01*
X307294D01*
Y275983D01*
X307337D01*
Y275940D01*
X307380D01*
Y275897D01*
X307423D01*
Y275854D01*
X307466D01*
Y275811D01*
X307509D01*
Y275768D01*
X307552D01*
Y275725D01*
X307595D01*
Y275682D01*
X307638D01*
Y275640D01*
Y275597D01*
X307681D01*
Y275554D01*
X307723D01*
Y275511D01*
X307766D01*
Y275468D01*
X307809D01*
Y275425D01*
X307852D01*
Y275382D01*
X307895D01*
Y275339D01*
X307938D01*
Y275296D01*
X307981D01*
Y275253D01*
X308024D01*
Y275210D01*
X308067D01*
Y275167D01*
X308110D01*
Y275124D01*
X308153D01*
Y275081D01*
X308196D01*
Y275039D01*
X308239D01*
Y274996D01*
X308282D01*
Y274953D01*
X308325D01*
Y274910D01*
X308367D01*
Y274867D01*
X308410D01*
Y274824D01*
X308453D01*
Y274781D01*
Y274738D01*
X308496D01*
Y274695D01*
X308539D01*
Y274652D01*
X308582D01*
Y274609D01*
X308625D01*
Y274566D01*
X308668D01*
Y274523D01*
X308711D01*
Y274480D01*
X308754D01*
Y274437D01*
X308797D01*
Y274395D01*
X308840D01*
Y274352D01*
X308883D01*
Y274309D01*
X308926D01*
Y274266D01*
X308968D01*
Y274223D01*
X309011D01*
Y274180D01*
X309054D01*
Y274137D01*
X309097D01*
Y274094D01*
X309140D01*
Y274051D01*
X309183D01*
Y274008D01*
X309226D01*
Y273965D01*
Y273922D01*
X309269D01*
Y273879D01*
X309312D01*
Y273836D01*
X309355D01*
Y273794D01*
X309398D01*
Y273751D01*
X309441D01*
Y273708D01*
X309484D01*
Y273665D01*
X309526D01*
Y273708D01*
Y273751D01*
Y273794D01*
Y273836D01*
X309570D01*
Y273879D01*
Y273922D01*
Y273965D01*
Y274008D01*
Y274051D01*
Y274094D01*
Y274137D01*
Y274180D01*
Y274223D01*
Y274266D01*
Y274309D01*
X309612D01*
Y274352D01*
Y274395D01*
Y274437D01*
Y274480D01*
Y274523D01*
Y274566D01*
Y274609D01*
Y274652D01*
Y274695D01*
Y274738D01*
Y274781D01*
X309655D01*
Y274824D01*
Y274867D01*
Y274910D01*
Y274953D01*
Y274996D01*
Y275039D01*
Y275081D01*
Y275124D01*
Y275167D01*
Y275210D01*
X309698D01*
Y275253D01*
Y275296D01*
Y275339D01*
Y275382D01*
Y275425D01*
Y275468D01*
Y275511D01*
Y275554D01*
Y275597D01*
Y275640D01*
Y275682D01*
X309741D01*
Y275725D01*
Y275768D01*
Y275811D01*
Y275854D01*
Y275897D01*
Y275940D01*
Y275983D01*
Y276026D01*
Y276069D01*
Y276112D01*
Y276155D01*
X309784D01*
Y276198D01*
Y276241D01*
Y276284D01*
Y276326D01*
Y276369D01*
Y276412D01*
Y276455D01*
Y276498D01*
Y276541D01*
Y276584D01*
X309827D01*
Y276627D01*
Y276670D01*
Y276713D01*
Y276756D01*
Y276799D01*
Y276842D01*
Y276885D01*
Y276927D01*
Y276970D01*
Y277013D01*
Y277056D01*
X309870D01*
Y277099D01*
Y277142D01*
Y277185D01*
Y277228D01*
Y277271D01*
Y277314D01*
Y277357D01*
Y277400D01*
Y277443D01*
Y277485D01*
Y277529D01*
X309913D01*
Y277571D01*
Y277614D01*
Y277657D01*
Y277700D01*
Y277743D01*
Y277786D01*
Y277829D01*
Y277872D01*
Y277915D01*
Y277958D01*
Y278001D01*
X309956D01*
Y278044D01*
Y278086D01*
Y278130D01*
Y278172D01*
Y278215D01*
Y278258D01*
Y278301D01*
Y278344D01*
Y278387D01*
Y278430D01*
X309999D01*
Y278473D01*
Y278516D01*
Y278559D01*
Y278602D01*
Y278645D01*
Y278688D01*
Y278731D01*
Y278773D01*
Y278816D01*
Y278859D01*
Y278902D01*
X310042D01*
Y278945D01*
Y278988D01*
Y279031D01*
Y279074D01*
Y279117D01*
Y279160D01*
Y279203D01*
Y279246D01*
Y279289D01*
Y279331D01*
Y279374D01*
X310085D01*
Y279417D01*
Y279460D01*
Y279503D01*
Y279546D01*
Y279589D01*
Y279632D01*
Y279675D01*
Y279718D01*
Y279761D01*
Y279804D01*
Y279847D01*
X310128D01*
Y279890D01*
Y279932D01*
X310042D01*
Y279976D01*
Y280018D01*
Y280061D01*
D02*
G37*
G36*
X309655Y272033D02*
X309526D01*
Y271990D01*
X309312D01*
Y271948D01*
X309226D01*
Y271905D01*
X309140D01*
Y271862D01*
X309097D01*
Y271819D01*
X309054D01*
Y271776D01*
X309011D01*
Y271733D01*
X308968D01*
Y271690D01*
X308926D01*
Y271647D01*
X308883D01*
Y271604D01*
Y271561D01*
X308840D01*
Y271518D01*
Y271475D01*
Y271432D01*
Y271390D01*
X308797D01*
Y271347D01*
Y271304D01*
Y271261D01*
Y271218D01*
Y271175D01*
Y271132D01*
Y271089D01*
Y271046D01*
X308840D01*
Y271003D01*
Y270960D01*
Y270917D01*
X308883D01*
Y270874D01*
Y270831D01*
X308926D01*
Y270789D01*
Y270746D01*
X308968D01*
Y270703D01*
X309011D01*
Y270660D01*
X309054D01*
Y270617D01*
X309097D01*
Y270574D01*
X309140D01*
Y270531D01*
X309226D01*
Y270488D01*
X309355D01*
Y270445D01*
X309827D01*
Y270488D01*
X309956D01*
Y270531D01*
X310042D01*
Y270574D01*
X310085D01*
Y270617D01*
X310128D01*
Y270660D01*
X310171D01*
Y270703D01*
X310213D01*
Y270746D01*
X310256D01*
Y270789D01*
Y270831D01*
X310299D01*
Y270874D01*
X310342D01*
Y270917D01*
Y270960D01*
Y271003D01*
Y271046D01*
X310385D01*
Y271089D01*
Y271132D01*
Y271175D01*
Y271218D01*
Y271261D01*
Y271304D01*
Y271347D01*
Y271390D01*
Y271432D01*
X310342D01*
Y271475D01*
Y271518D01*
Y271561D01*
X310299D01*
Y271604D01*
Y271647D01*
X310256D01*
Y271690D01*
X310213D01*
Y271733D01*
X310171D01*
Y271776D01*
X310128D01*
Y271819D01*
X310085D01*
Y271862D01*
X310042D01*
Y271905D01*
X309956D01*
Y271948D01*
X309870D01*
Y271990D01*
X309655D01*
Y272033D01*
D02*
G37*
G36*
X306479Y276369D02*
X306393D01*
Y276326D01*
X306350D01*
Y276284D01*
X306307D01*
Y276241D01*
X306264D01*
Y276198D01*
X306221D01*
Y276155D01*
X306178D01*
Y276112D01*
X306135D01*
Y276069D01*
X306092D01*
Y276026D01*
X306049D01*
Y275983D01*
X306006D01*
Y275940D01*
X305963D01*
Y275897D01*
X305920D01*
Y275854D01*
X305877D01*
Y275811D01*
X305835D01*
Y275768D01*
X305792D01*
Y275725D01*
X305749D01*
Y275682D01*
X305706D01*
Y275640D01*
X305663D01*
Y275597D01*
X305620D01*
Y275554D01*
X305577D01*
Y275511D01*
X305534D01*
Y275468D01*
X305491D01*
Y275425D01*
X305448D01*
Y275382D01*
X305405D01*
Y275339D01*
X305362D01*
Y275296D01*
X305319D01*
Y275253D01*
X305276D01*
Y275210D01*
X305234D01*
Y275167D01*
X305191D01*
Y275124D01*
X305148D01*
Y275081D01*
X305105D01*
Y275039D01*
X305062D01*
Y274996D01*
X305019D01*
Y274953D01*
X304976D01*
Y274910D01*
X304933D01*
Y274867D01*
X304890D01*
Y274824D01*
X304847D01*
Y274781D01*
X304804D01*
Y274738D01*
X304761D01*
Y274695D01*
X304718D01*
Y274652D01*
X304676D01*
Y274609D01*
X304632D01*
Y274566D01*
Y274523D01*
X304590D01*
Y274480D01*
X304547D01*
Y274437D01*
X304504D01*
Y274395D01*
X304461D01*
Y274352D01*
X304418D01*
Y274309D01*
X304375D01*
Y274266D01*
X304332D01*
Y274223D01*
X304289D01*
Y274180D01*
X304246D01*
Y274137D01*
X304203D01*
Y274094D01*
X304160D01*
Y274051D01*
X304117D01*
Y274008D01*
X304075D01*
Y273965D01*
X304031D01*
Y273922D01*
X303989D01*
Y273879D01*
X303946D01*
Y273836D01*
X303903D01*
Y273794D01*
X303860D01*
Y273751D01*
X303817D01*
Y273708D01*
X303774D01*
Y273665D01*
X303731D01*
Y273622D01*
Y273579D01*
Y273536D01*
Y273493D01*
Y273450D01*
Y273407D01*
Y273364D01*
Y273321D01*
Y273278D01*
Y273236D01*
X303774D01*
Y273193D01*
Y273150D01*
Y273107D01*
Y273064D01*
Y273021D01*
Y272978D01*
Y272935D01*
Y272892D01*
Y272849D01*
Y272806D01*
Y272763D01*
Y272720D01*
X303817D01*
Y272677D01*
Y272635D01*
Y272591D01*
Y272549D01*
Y272506D01*
Y272463D01*
Y272420D01*
Y272377D01*
Y272334D01*
Y272291D01*
Y272248D01*
X303860D01*
Y272205D01*
Y272162D01*
Y272119D01*
Y272076D01*
Y272033D01*
Y271990D01*
Y271948D01*
Y271905D01*
Y271862D01*
Y271819D01*
Y271776D01*
Y271733D01*
X303903D01*
Y271690D01*
Y271647D01*
Y271604D01*
Y271561D01*
Y271518D01*
Y271475D01*
Y271432D01*
Y271390D01*
Y271347D01*
Y271304D01*
Y271261D01*
Y271218D01*
X303946D01*
Y271175D01*
Y271132D01*
Y271089D01*
Y271046D01*
Y271003D01*
X308153D01*
Y271046D01*
Y271089D01*
Y271132D01*
Y271175D01*
Y271218D01*
Y271261D01*
Y271304D01*
Y271347D01*
Y271390D01*
Y271432D01*
Y271475D01*
Y271518D01*
Y271561D01*
X308196D01*
Y271604D01*
Y271647D01*
Y271690D01*
X308239D01*
Y271733D01*
Y271776D01*
Y271819D01*
X308282D01*
Y271862D01*
Y271905D01*
X308325D01*
Y271948D01*
Y271990D01*
X308367D01*
Y272033D01*
X308410D01*
Y272076D01*
Y272119D01*
X308453D01*
Y272162D01*
X308496D01*
Y272205D01*
X308539D01*
Y272248D01*
X308582D01*
Y272291D01*
X308625D01*
Y272334D01*
X308668D01*
Y272377D01*
X308754D01*
Y272420D01*
X308797D01*
Y272463D01*
X308883D01*
Y272506D01*
X308926D01*
Y272549D01*
X309054D01*
Y272591D01*
X309140D01*
Y272635D01*
X309312D01*
Y272677D01*
X309441D01*
Y272720D01*
Y272763D01*
Y272806D01*
Y272849D01*
Y272892D01*
Y272935D01*
X309484D01*
Y272978D01*
Y273021D01*
Y273064D01*
Y273107D01*
Y273150D01*
Y273193D01*
X309441D01*
Y273236D01*
X309398D01*
Y273278D01*
X309355D01*
Y273321D01*
X309312D01*
Y273364D01*
X309269D01*
Y273407D01*
X309226D01*
Y273450D01*
X309183D01*
Y273493D01*
X309140D01*
Y273536D01*
X309097D01*
Y273579D01*
X309054D01*
Y273622D01*
Y273665D01*
X309011D01*
Y273708D01*
X308968D01*
Y273751D01*
X308926D01*
Y273794D01*
X308883D01*
Y273836D01*
X308840D01*
Y273879D01*
X308797D01*
Y273922D01*
X308754D01*
Y273965D01*
X308711D01*
Y274008D01*
X308668D01*
Y274051D01*
X308625D01*
Y274094D01*
X308582D01*
Y274137D01*
X308539D01*
Y274180D01*
X308496D01*
Y274223D01*
X308453D01*
Y274266D01*
X308410D01*
Y274309D01*
X308367D01*
Y274352D01*
X308325D01*
Y274395D01*
X308282D01*
Y274437D01*
Y274480D01*
X308239D01*
Y274523D01*
X308196D01*
Y274566D01*
X308153D01*
Y274609D01*
X308110D01*
Y274652D01*
X308067D01*
Y274695D01*
X308024D01*
Y274738D01*
X307981D01*
Y274781D01*
X307938D01*
Y274824D01*
X307895D01*
Y274867D01*
X307852D01*
Y274910D01*
X307809D01*
Y274953D01*
X307766D01*
Y274996D01*
X307723D01*
Y275039D01*
X307681D01*
Y275081D01*
X307638D01*
Y275124D01*
X307595D01*
Y275167D01*
X307552D01*
Y275210D01*
X307509D01*
Y275253D01*
Y275296D01*
X307466D01*
Y275339D01*
X307423D01*
Y275382D01*
X307380D01*
Y275425D01*
X307337D01*
Y275468D01*
X307294D01*
Y275511D01*
X307251D01*
Y275554D01*
X307208D01*
Y275597D01*
X307165D01*
Y275640D01*
X307122D01*
Y275682D01*
X307080D01*
Y275725D01*
X307037D01*
Y275768D01*
X306994D01*
Y275811D01*
X306951D01*
Y275854D01*
X306908D01*
Y275897D01*
X306865D01*
Y275940D01*
X306822D01*
Y275983D01*
X306779D01*
Y276026D01*
X306736D01*
Y276069D01*
Y276112D01*
X306693D01*
Y276155D01*
X306650D01*
Y276198D01*
X306607D01*
Y276241D01*
X306564D01*
Y276284D01*
X306522D01*
Y276326D01*
X306479D01*
Y276369D01*
D02*
G37*
G36*
X303259Y279761D02*
X303173D01*
Y279718D01*
X303216D01*
Y279675D01*
Y279632D01*
Y279589D01*
Y279546D01*
Y279503D01*
Y279460D01*
Y279417D01*
Y279374D01*
Y279331D01*
Y279289D01*
Y279246D01*
Y279203D01*
X303259D01*
Y279160D01*
Y279117D01*
Y279074D01*
Y279031D01*
Y278988D01*
Y278945D01*
Y278902D01*
Y278859D01*
Y278816D01*
Y278773D01*
Y278731D01*
X303302D01*
Y278688D01*
Y278645D01*
Y278602D01*
Y278559D01*
Y278516D01*
Y278473D01*
Y278430D01*
Y278387D01*
Y278344D01*
Y278301D01*
Y278258D01*
Y278215D01*
X303345D01*
Y278172D01*
Y278130D01*
Y278086D01*
Y278044D01*
Y278001D01*
Y277958D01*
Y277915D01*
Y277872D01*
Y277829D01*
Y277786D01*
Y277743D01*
Y277700D01*
X303388D01*
Y277657D01*
Y277614D01*
Y277571D01*
Y277529D01*
Y277485D01*
Y277443D01*
Y277400D01*
Y277357D01*
Y277314D01*
Y277271D01*
Y277228D01*
X303431D01*
Y277185D01*
Y277142D01*
Y277099D01*
Y277056D01*
Y277013D01*
Y276970D01*
Y276927D01*
Y276885D01*
Y276842D01*
Y276799D01*
Y276756D01*
Y276713D01*
X303473D01*
Y276670D01*
Y276627D01*
Y276584D01*
Y276541D01*
Y276498D01*
Y276455D01*
Y276412D01*
Y276369D01*
Y276326D01*
Y276284D01*
Y276241D01*
X303516D01*
Y276198D01*
Y276155D01*
Y276112D01*
Y276069D01*
Y276026D01*
Y275983D01*
Y275940D01*
Y275897D01*
Y275854D01*
Y275811D01*
Y275768D01*
Y275725D01*
X303559D01*
Y275682D01*
Y275640D01*
Y275597D01*
Y275554D01*
Y275511D01*
Y275468D01*
Y275425D01*
Y275382D01*
Y275339D01*
Y275296D01*
Y275253D01*
Y275210D01*
X303602D01*
Y275167D01*
Y275124D01*
Y275081D01*
Y275039D01*
Y274996D01*
Y274953D01*
Y274910D01*
Y274867D01*
Y274824D01*
Y274781D01*
Y274738D01*
X303645D01*
Y274695D01*
Y274652D01*
Y274609D01*
Y274566D01*
Y274523D01*
Y274480D01*
Y274437D01*
Y274395D01*
Y274352D01*
Y274309D01*
Y274266D01*
Y274223D01*
X303688D01*
Y274180D01*
Y274137D01*
X303731D01*
Y274180D01*
X303774D01*
Y274223D01*
X303817D01*
Y274266D01*
X303860D01*
Y274309D01*
X303903D01*
Y274352D01*
X303946D01*
Y274395D01*
X303989D01*
Y274437D01*
X304031D01*
Y274480D01*
X304075D01*
Y274523D01*
X304117D01*
Y274566D01*
X304160D01*
Y274609D01*
X304203D01*
Y274652D01*
X304246D01*
Y274695D01*
X304289D01*
Y274738D01*
X304332D01*
Y274781D01*
X304375D01*
Y274824D01*
X304418D01*
Y274867D01*
X304461D01*
Y274910D01*
X304504D01*
Y274953D01*
Y274996D01*
X304547D01*
Y275039D01*
X304590D01*
Y275081D01*
X304632D01*
Y275124D01*
X304676D01*
Y275167D01*
X304718D01*
Y275210D01*
X304761D01*
Y275253D01*
X304804D01*
Y275296D01*
X304847D01*
Y275339D01*
X304890D01*
Y275382D01*
X304933D01*
Y275425D01*
X304976D01*
Y275468D01*
X305019D01*
Y275511D01*
X305062D01*
Y275554D01*
X305105D01*
Y275597D01*
X305148D01*
Y275640D01*
X305191D01*
Y275682D01*
X305234D01*
Y275725D01*
X305276D01*
Y275768D01*
X305319D01*
Y275811D01*
X305362D01*
Y275854D01*
X305405D01*
Y275897D01*
X305448D01*
Y275940D01*
X305491D01*
Y275983D01*
X305534D01*
Y276026D01*
X305577D01*
Y276069D01*
X305620D01*
Y276112D01*
X305663D01*
Y276155D01*
X305706D01*
Y276198D01*
X305749D01*
Y276241D01*
X305792D01*
Y276284D01*
X305835D01*
Y276326D01*
X305877D01*
Y276369D01*
X305920D01*
Y276412D01*
X305963D01*
Y276455D01*
X306006D01*
Y276498D01*
X306049D01*
Y276541D01*
X306092D01*
Y276584D01*
X306135D01*
Y276627D01*
X306178D01*
Y276670D01*
X306135D01*
Y276713D01*
X306092D01*
Y276756D01*
X306049D01*
Y276799D01*
X306006D01*
Y276842D01*
X305963D01*
Y276885D01*
Y276927D01*
X305920D01*
Y276970D01*
X305877D01*
Y277013D01*
X305835D01*
Y277056D01*
X305792D01*
Y277099D01*
X305749D01*
Y277142D01*
X305706D01*
Y277185D01*
X305663D01*
Y277228D01*
X305620D01*
Y277271D01*
X305577D01*
Y277314D01*
X305534D01*
Y277357D01*
X305491D01*
Y277400D01*
X305448D01*
Y277443D01*
X305405D01*
Y277485D01*
X305362D01*
Y277529D01*
X305319D01*
Y277571D01*
X305276D01*
Y277614D01*
X305234D01*
Y277657D01*
X305191D01*
Y277700D01*
X305148D01*
Y277743D01*
Y277786D01*
X305105D01*
Y277829D01*
X305062D01*
Y277872D01*
X305019D01*
Y277915D01*
X304976D01*
Y277958D01*
X304933D01*
Y278001D01*
X304890D01*
Y278044D01*
X304847D01*
Y278086D01*
X304804D01*
Y278130D01*
X304761D01*
Y278172D01*
X304718D01*
Y278215D01*
X304676D01*
Y278258D01*
X304632D01*
Y278301D01*
X304590D01*
Y278344D01*
X304547D01*
Y278387D01*
X304504D01*
Y278430D01*
X304461D01*
Y278473D01*
X304418D01*
Y278516D01*
X304375D01*
Y278559D01*
Y278602D01*
X304332D01*
Y278645D01*
X304289D01*
Y278688D01*
X304246D01*
Y278731D01*
X304203D01*
Y278773D01*
X304160D01*
Y278816D01*
X304117D01*
Y278859D01*
X304075D01*
Y278902D01*
X304031D01*
Y278945D01*
X303989D01*
Y278988D01*
X303946D01*
Y279031D01*
X303903D01*
Y279074D01*
X303860D01*
Y279117D01*
X303817D01*
Y279160D01*
X303774D01*
Y279203D01*
X303731D01*
Y279246D01*
X303688D01*
Y279289D01*
X303645D01*
Y279331D01*
X303602D01*
Y279374D01*
Y279417D01*
X303559D01*
Y279460D01*
X303516D01*
Y279503D01*
X303473D01*
Y279546D01*
X303431D01*
Y279589D01*
X303388D01*
Y279632D01*
X303345D01*
Y279675D01*
X303302D01*
Y279718D01*
X303259D01*
Y279761D01*
D02*
G37*
G36*
X305749Y284054D02*
X305534D01*
Y284011D01*
X305105D01*
Y283968D01*
X304804D01*
Y283925D01*
X304590D01*
Y283882D01*
X304375D01*
Y283839D01*
X304289D01*
Y283796D01*
Y283753D01*
Y283710D01*
Y283667D01*
Y283625D01*
Y283581D01*
Y283539D01*
Y283496D01*
Y283453D01*
Y283410D01*
Y283367D01*
Y283324D01*
Y283281D01*
Y283238D01*
Y283195D01*
Y283152D01*
Y283109D01*
Y283066D01*
Y283024D01*
X310342D01*
Y283066D01*
X310299D01*
Y283109D01*
Y283152D01*
X310256D01*
Y283195D01*
Y283238D01*
X310213D01*
Y283281D01*
X310171D01*
Y283324D01*
X310128D01*
Y283367D01*
X310085D01*
Y283410D01*
X310042D01*
Y283453D01*
X309956D01*
Y283496D01*
X309913D01*
Y283539D01*
X309827D01*
Y283581D01*
X309741D01*
Y283625D01*
X309655D01*
Y283667D01*
X309570D01*
Y283710D01*
X309441D01*
Y283753D01*
X309312D01*
Y283796D01*
X309183D01*
Y283839D01*
X309011D01*
Y283882D01*
X308797D01*
Y283925D01*
X308582D01*
Y283968D01*
X308325D01*
Y284011D01*
X308239D01*
Y283968D01*
Y283925D01*
Y283882D01*
Y283839D01*
Y283796D01*
Y283753D01*
Y283710D01*
Y283667D01*
Y283625D01*
Y283581D01*
Y283539D01*
Y283496D01*
X305749D01*
Y283539D01*
Y283581D01*
Y283625D01*
Y283667D01*
Y283710D01*
Y283753D01*
Y283796D01*
Y283839D01*
Y283882D01*
Y283925D01*
Y283968D01*
Y284011D01*
Y284054D01*
D02*
G37*
G36*
X307766Y284268D02*
X306221D01*
Y284226D01*
Y284183D01*
Y284140D01*
Y284097D01*
Y284054D01*
Y284011D01*
Y283968D01*
X307766D01*
Y284011D01*
Y284054D01*
Y284097D01*
Y284140D01*
Y284183D01*
Y284226D01*
Y284268D01*
D02*
G37*
G36*
X303473Y283539D02*
X303388D01*
Y283496D01*
X303345D01*
Y283453D01*
X303259D01*
Y283410D01*
X303216D01*
Y283367D01*
X303173D01*
Y283324D01*
X303087D01*
Y283281D01*
X303044D01*
Y283238D01*
X303001D01*
Y283195D01*
Y283152D01*
X302958D01*
Y283109D01*
X302915D01*
Y283066D01*
Y283024D01*
X303473D01*
Y283066D01*
Y283109D01*
Y283152D01*
Y283195D01*
Y283238D01*
Y283281D01*
Y283324D01*
Y283367D01*
Y283410D01*
Y283453D01*
Y283496D01*
Y283539D01*
D02*
G37*
G36*
X310342Y282508D02*
X302958D01*
Y282465D01*
Y282422D01*
Y282380D01*
Y282337D01*
Y282294D01*
Y282251D01*
Y282208D01*
X303001D01*
Y282165D01*
Y282122D01*
Y282079D01*
Y282036D01*
Y281993D01*
Y281950D01*
Y281907D01*
Y281864D01*
Y281821D01*
Y281779D01*
Y281736D01*
Y281693D01*
X303044D01*
Y281650D01*
Y281607D01*
Y281564D01*
Y281521D01*
Y281478D01*
Y281435D01*
Y281392D01*
Y281349D01*
Y281306D01*
Y281263D01*
Y281220D01*
X303087D01*
Y281177D01*
Y281135D01*
Y281092D01*
Y281049D01*
Y281006D01*
Y280963D01*
Y280920D01*
Y280877D01*
Y280834D01*
Y280791D01*
Y280748D01*
Y280705D01*
X303130D01*
Y280662D01*
Y280619D01*
Y280576D01*
Y280534D01*
Y280491D01*
Y280448D01*
Y280405D01*
Y280362D01*
X303173D01*
Y280319D01*
X303216D01*
Y280276D01*
X303259D01*
Y280233D01*
X303302D01*
Y280190D01*
X303345D01*
Y280147D01*
X303388D01*
Y280104D01*
X303431D01*
Y280061D01*
X303473D01*
Y280018D01*
X303516D01*
Y279976D01*
X303559D01*
Y279932D01*
X303602D01*
Y279890D01*
Y279847D01*
X303645D01*
Y279804D01*
X303688D01*
Y279761D01*
X303731D01*
Y279718D01*
X303774D01*
Y279675D01*
X303817D01*
Y279632D01*
X303860D01*
Y279589D01*
X303903D01*
Y279546D01*
X303946D01*
Y279503D01*
X303989D01*
Y279460D01*
X304031D01*
Y279417D01*
X304075D01*
Y279374D01*
X304117D01*
Y279331D01*
X304160D01*
Y279289D01*
X304203D01*
Y279246D01*
X304246D01*
Y279203D01*
X304289D01*
Y279160D01*
X304332D01*
Y279117D01*
X304375D01*
Y279074D01*
X304418D01*
Y279031D01*
Y278988D01*
X304461D01*
Y278945D01*
X304504D01*
Y278902D01*
X304547D01*
Y278859D01*
X304590D01*
Y278816D01*
X304632D01*
Y278773D01*
X304676D01*
Y278731D01*
X304718D01*
Y278688D01*
X304761D01*
Y278645D01*
X304804D01*
Y278602D01*
X304847D01*
Y278559D01*
X304890D01*
Y278516D01*
X304933D01*
Y278473D01*
X304976D01*
Y278430D01*
X305019D01*
Y278387D01*
X305062D01*
Y278344D01*
X305105D01*
Y278301D01*
X305148D01*
Y278258D01*
X305191D01*
Y278215D01*
Y278172D01*
X305234D01*
Y278130D01*
X305276D01*
Y278086D01*
X305319D01*
Y278044D01*
X305362D01*
Y278001D01*
X305405D01*
Y277958D01*
X305448D01*
Y277915D01*
X305491D01*
Y277872D01*
X305534D01*
Y277829D01*
X305577D01*
Y277786D01*
X305620D01*
Y277743D01*
X305663D01*
Y277700D01*
X305706D01*
Y277657D01*
X305749D01*
Y277614D01*
X305792D01*
Y277571D01*
X305835D01*
Y277529D01*
X305877D01*
Y277485D01*
X305920D01*
Y277443D01*
X305963D01*
Y277400D01*
X306006D01*
Y277357D01*
Y277314D01*
X306049D01*
Y277271D01*
X306092D01*
Y277228D01*
X306135D01*
Y277185D01*
X306178D01*
Y277142D01*
X306221D01*
Y277099D01*
X306264D01*
Y277056D01*
X306307D01*
Y277013D01*
X306350D01*
Y276970D01*
X306393D01*
Y276927D01*
X306479D01*
Y276970D01*
X306522D01*
Y277013D01*
X306564D01*
Y277056D01*
X306607D01*
Y277099D01*
X306650D01*
Y277142D01*
X306693D01*
Y277185D01*
X306736D01*
Y277228D01*
X306779D01*
Y277271D01*
X306822D01*
Y277314D01*
X306865D01*
Y277357D01*
X306908D01*
Y277400D01*
X306951D01*
Y277443D01*
Y277485D01*
X306994D01*
Y277529D01*
X307037D01*
Y277571D01*
X307080D01*
Y277614D01*
X307122D01*
Y277657D01*
X307165D01*
Y277700D01*
X307208D01*
Y277743D01*
X307251D01*
Y277786D01*
X307294D01*
Y277829D01*
X307337D01*
Y277872D01*
X307380D01*
Y277915D01*
X307423D01*
Y277958D01*
X307466D01*
Y278001D01*
X307509D01*
Y278044D01*
X307552D01*
Y278086D01*
X307595D01*
Y278130D01*
X307638D01*
Y278172D01*
X307681D01*
Y278215D01*
X307723D01*
Y278258D01*
X307766D01*
Y278301D01*
X307809D01*
Y278344D01*
X307852D01*
Y278387D01*
X307895D01*
Y278430D01*
X307938D01*
Y278473D01*
X307981D01*
Y278516D01*
X308024D01*
Y278559D01*
X308067D01*
Y278602D01*
X308110D01*
Y278645D01*
X308153D01*
Y278688D01*
X308196D01*
Y278731D01*
X308239D01*
Y278773D01*
X308282D01*
Y278816D01*
X308325D01*
Y278859D01*
X308367D01*
Y278902D01*
Y278945D01*
X305663D01*
Y278988D01*
Y279031D01*
Y279074D01*
Y279117D01*
Y279160D01*
Y279203D01*
Y279246D01*
Y279289D01*
Y279331D01*
Y279374D01*
Y279417D01*
Y279460D01*
Y279503D01*
Y279546D01*
Y279589D01*
Y279632D01*
Y279675D01*
Y279718D01*
Y279761D01*
Y279804D01*
Y279847D01*
Y279890D01*
Y279932D01*
X308754D01*
Y279890D01*
Y279847D01*
Y279804D01*
Y279761D01*
Y279718D01*
Y279675D01*
Y279632D01*
Y279589D01*
Y279546D01*
Y279503D01*
Y279460D01*
Y279417D01*
Y279374D01*
Y279331D01*
X308840D01*
Y279374D01*
X308883D01*
Y279417D01*
X308926D01*
Y279460D01*
X308968D01*
Y279503D01*
X309011D01*
Y279546D01*
X309054D01*
Y279589D01*
X309097D01*
Y279632D01*
X309140D01*
Y279675D01*
X309183D01*
Y279718D01*
X309226D01*
Y279761D01*
X309269D01*
Y279804D01*
X309312D01*
Y279847D01*
X309355D01*
Y279890D01*
X309398D01*
Y279932D01*
Y279976D01*
X309441D01*
Y280018D01*
X309484D01*
Y280061D01*
X309526D01*
Y280104D01*
X309570D01*
Y280147D01*
X309612D01*
Y280190D01*
X309655D01*
Y280233D01*
X309698D01*
Y280276D01*
X309741D01*
Y280319D01*
X309784D01*
Y280362D01*
X309827D01*
Y280405D01*
X309870D01*
Y280448D01*
X309913D01*
Y280491D01*
X309956D01*
Y280534D01*
X309999D01*
Y280576D01*
X310042D01*
Y280619D01*
Y280662D01*
Y280705D01*
Y280748D01*
Y280791D01*
Y280834D01*
Y280877D01*
Y280920D01*
Y280963D01*
Y281006D01*
Y281049D01*
Y281092D01*
Y281135D01*
Y281177D01*
Y281220D01*
Y281263D01*
Y281306D01*
Y281349D01*
Y281392D01*
Y281435D01*
Y281478D01*
Y281521D01*
Y281564D01*
Y281607D01*
Y281650D01*
Y281693D01*
X310299D01*
Y281736D01*
Y281779D01*
Y281821D01*
Y281864D01*
Y281907D01*
Y281950D01*
Y281993D01*
Y282036D01*
Y282079D01*
Y282122D01*
X310342D01*
Y282165D01*
Y282208D01*
Y282251D01*
Y282294D01*
Y282337D01*
Y282380D01*
Y282422D01*
Y282465D01*
Y282508D01*
D02*
G37*
G36*
X311372Y281263D02*
X311201D01*
Y281220D01*
X311158D01*
Y281177D01*
X311115D01*
Y281135D01*
X311072D01*
Y281092D01*
X311029D01*
Y281049D01*
X310986D01*
Y281006D01*
X310943D01*
Y280963D01*
X310900D01*
Y280920D01*
X310857D01*
Y280877D01*
X310814D01*
Y280834D01*
X310771D01*
Y280791D01*
X310729D01*
Y280748D01*
X310686D01*
Y280705D01*
X310643D01*
Y280662D01*
Y280619D01*
Y280576D01*
Y280534D01*
Y280491D01*
Y280448D01*
Y280405D01*
Y280362D01*
X311372D01*
Y280405D01*
Y280448D01*
Y280491D01*
Y280534D01*
Y280576D01*
Y280619D01*
Y280662D01*
Y280705D01*
Y280748D01*
Y280791D01*
Y280834D01*
Y280877D01*
Y280920D01*
Y280963D01*
Y281006D01*
Y281049D01*
Y281092D01*
Y281135D01*
Y281177D01*
Y281220D01*
Y281263D01*
D02*
G37*
%LPD*%
G36*
X309741Y271647D02*
X309827D01*
Y271604D01*
X309913D01*
Y271561D01*
X309956D01*
Y271518D01*
Y271475D01*
X309999D01*
Y271432D01*
X310042D01*
Y271390D01*
Y271347D01*
Y271304D01*
X310085D01*
Y271261D01*
Y271218D01*
Y271175D01*
Y271132D01*
X310042D01*
Y271089D01*
Y271046D01*
Y271003D01*
X309999D01*
Y270960D01*
X309956D01*
Y270917D01*
X309913D01*
Y270874D01*
X309870D01*
Y270831D01*
X309827D01*
Y270789D01*
X309741D01*
Y270746D01*
X309441D01*
Y270789D01*
X309355D01*
Y270831D01*
X309312D01*
Y270874D01*
X309269D01*
Y270917D01*
X309226D01*
Y270960D01*
X309183D01*
Y271003D01*
Y271046D01*
X309140D01*
Y271089D01*
Y271132D01*
Y271175D01*
X309097D01*
Y271218D01*
Y271261D01*
X309140D01*
Y271304D01*
Y271347D01*
Y271390D01*
Y271432D01*
X309183D01*
Y271475D01*
X309226D01*
Y271518D01*
Y271561D01*
X309312D01*
Y271604D01*
X309355D01*
Y271647D01*
X309441D01*
Y271690D01*
X309741D01*
Y271647D01*
D02*
G37*
D58*
X301733Y104734D02*
X302099Y105100D01*
Y105833D01*
X301733Y106200D01*
X300267D01*
X299900Y105833D01*
Y105100D01*
X300267Y104734D01*
X302099Y102534D02*
X301733Y103268D01*
X301000Y104001D01*
X300267D01*
X299900Y103634D01*
Y102901D01*
X300267Y102534D01*
X300633D01*
X301000Y102901D01*
Y104001D01*
X299900Y100702D02*
X302099D01*
X301000Y101801D01*
Y100335D01*
X128100Y127800D02*
Y129999D01*
X129200D01*
X129566Y129633D01*
Y128900D01*
X129200Y128533D01*
X128100D01*
X128833D02*
X129566Y127800D01*
X130299D02*
X131032D01*
X130666D01*
Y129999D01*
X130299Y129633D01*
X132132D02*
X132499Y129999D01*
X133232D01*
X133598Y129633D01*
Y128167D01*
X133232Y127800D01*
X132499D01*
X132132Y128167D01*
Y129633D01*
X135798Y129999D02*
X134331D01*
Y128900D01*
X135064Y129266D01*
X135431D01*
X135798Y128900D01*
Y128167D01*
X135431Y127800D01*
X134698D01*
X134331Y128167D01*
X45900Y37200D02*
Y39399D01*
X47000D01*
X47366Y39033D01*
Y38300D01*
X47000Y37933D01*
X45900D01*
X46633D02*
X47366Y37200D01*
X48099Y37567D02*
X48466Y37200D01*
X49199D01*
X49566Y37567D01*
Y39033D01*
X49199Y39399D01*
X48466D01*
X48099Y39033D01*
Y38666D01*
X48466Y38300D01*
X49566D01*
X50299Y39033D02*
X50665Y39399D01*
X51398D01*
X51765Y39033D01*
Y37567D01*
X51398Y37200D01*
X50665D01*
X50299Y37567D01*
Y39033D01*
X221700Y154200D02*
Y156399D01*
X222800D01*
X223166Y156033D01*
Y155300D01*
X222800Y154933D01*
X221700D01*
X222433D02*
X223166Y154200D01*
X223899Y156033D02*
X224266Y156399D01*
X224999D01*
X225365Y156033D01*
Y155666D01*
X224999Y155300D01*
X225365Y154933D01*
Y154567D01*
X224999Y154200D01*
X224266D01*
X223899Y154567D01*
Y154933D01*
X224266Y155300D01*
X223899Y155666D01*
Y156033D01*
X224266Y155300D02*
X224999D01*
X226099Y154567D02*
X226465Y154200D01*
X227198D01*
X227565Y154567D01*
Y156033D01*
X227198Y156399D01*
X226465D01*
X226099Y156033D01*
Y155666D01*
X226465Y155300D01*
X227565D01*
X145601Y228133D02*
Y225800D01*
X147351D01*
Y226966D01*
Y225800D01*
X149100D01*
Y229299D02*
X146767D01*
X145601Y230465D01*
X146767Y231631D01*
X149100D01*
X147351D01*
Y229299D01*
X149100Y232798D02*
X145601D01*
X149100Y235130D01*
X145601D01*
X149100Y236297D02*
Y237463D01*
Y236880D01*
X145601D01*
X146184Y236297D01*
X182401Y246600D02*
X184233D01*
X184600Y246967D01*
Y247700D01*
X184233Y248066D01*
X182401D01*
X184233Y248799D02*
X184600Y249166D01*
Y249899D01*
X184233Y250266D01*
X182767D01*
X182401Y249899D01*
Y249166D01*
X182767Y248799D01*
X183134D01*
X183500Y249166D01*
Y250266D01*
X221000Y216000D02*
X218801D01*
Y217100D01*
X219167Y217466D01*
X219900D01*
X220267Y217100D01*
Y216000D01*
Y216733D02*
X221000Y217466D01*
X219167Y218199D02*
X218801Y218566D01*
Y219299D01*
X219167Y219666D01*
X219534D01*
X219900Y219299D01*
X220267Y219666D01*
X220633D01*
X221000Y219299D01*
Y218566D01*
X220633Y218199D01*
X220267D01*
X219900Y218566D01*
X219534Y218199D01*
X219167D01*
X219900Y218566D02*
Y219299D01*
X218801Y220399D02*
Y221865D01*
X219167D01*
X220633Y220399D01*
X221000D01*
X264866Y283667D02*
Y285133D01*
X264500Y285499D01*
X263767D01*
X263400Y285133D01*
Y283667D01*
X263767Y283300D01*
X264500D01*
X264133Y284033D02*
X264866Y283300D01*
X264500D02*
X264866Y283667D01*
X265599Y283300D02*
X266332D01*
X265966D01*
Y285499D01*
X265599Y285133D01*
X267432D02*
X267799Y285499D01*
X268532D01*
X268898Y285133D01*
Y283667D01*
X268532Y283300D01*
X267799D01*
X267432Y283667D01*
Y285133D01*
X210833Y252834D02*
X211199Y253200D01*
Y253933D01*
X210833Y254300D01*
X209367D01*
X209000Y253933D01*
Y253200D01*
X209367Y252834D01*
X211199Y250635D02*
X210833Y251368D01*
X210100Y252101D01*
X209367D01*
X209000Y251734D01*
Y251001D01*
X209367Y250635D01*
X209733D01*
X210100Y251001D01*
Y252101D01*
X209000Y249901D02*
Y249168D01*
Y249535D01*
X211199D01*
X210833Y249901D01*
X299400Y78100D02*
Y75901D01*
X298300D01*
X297934Y76267D01*
Y77000D01*
X298300Y77367D01*
X299400D01*
X298667D02*
X297934Y78100D01*
X297201Y76267D02*
X296834Y75901D01*
X296101D01*
X295735Y76267D01*
Y76634D01*
X296101Y77000D01*
X295735Y77367D01*
Y77733D01*
X296101Y78100D01*
X296834D01*
X297201Y77733D01*
Y77367D01*
X296834Y77000D01*
X297201Y76634D01*
Y76267D01*
X296834Y77000D02*
X296101D01*
X293902Y78100D02*
Y75901D01*
X295001Y77000D01*
X293535D01*
X292834Y70767D02*
X293200Y70401D01*
X293933D01*
X294300Y70767D01*
Y72233D01*
X293933Y72600D01*
X293200D01*
X292834Y72233D01*
X290634Y70401D02*
X291368Y70767D01*
X292101Y71500D01*
Y72233D01*
X291734Y72600D01*
X291001D01*
X290634Y72233D01*
Y71867D01*
X291001Y71500D01*
X292101D01*
X289901Y70767D02*
X289535Y70401D01*
X288802D01*
X288435Y70767D01*
Y72233D01*
X288802Y72600D01*
X289535D01*
X289901Y72233D01*
Y70767D01*
X210201Y110166D02*
Y108700D01*
X211300D01*
Y109433D01*
Y108700D01*
X212400D01*
X210201Y110899D02*
Y111632D01*
Y111266D01*
X212400D01*
Y110899D01*
Y111632D01*
X210201Y112732D02*
X212400D01*
Y113832D01*
X212033Y114198D01*
X210567D01*
X210201Y113832D01*
Y112732D01*
Y116398D02*
Y114931D01*
X211300D01*
X210934Y115664D01*
Y116031D01*
X211300Y116398D01*
X212033D01*
X212400Y116031D01*
Y115298D01*
X212033Y114931D01*
X145866Y194999D02*
X144400D01*
Y193900D01*
X145133D01*
X144400D01*
Y192800D01*
X146599Y194999D02*
X147332D01*
X146966D01*
Y192800D01*
X146599D01*
X147332D01*
X148432Y194999D02*
Y192800D01*
X149532D01*
X149898Y193167D01*
Y194633D01*
X149532Y194999D01*
X148432D01*
X151731Y192800D02*
Y194999D01*
X150631Y193900D01*
X152097D01*
X279234Y30601D02*
X280700D01*
Y31700D01*
X279967D01*
X280700D01*
Y32800D01*
X278501Y30601D02*
X277768D01*
X278134D01*
Y32800D01*
X278501D01*
X277768D01*
X276668Y30601D02*
Y32800D01*
X275568D01*
X275202Y32433D01*
Y30967D01*
X275568Y30601D01*
X276668D01*
X274469Y30967D02*
X274102Y30601D01*
X273369D01*
X273003Y30967D01*
Y31334D01*
X273369Y31700D01*
X273736D01*
X273369D01*
X273003Y32067D01*
Y32433D01*
X273369Y32800D01*
X274102D01*
X274469Y32433D01*
X207201Y234166D02*
Y232700D01*
X208300D01*
Y233433D01*
Y232700D01*
X209400D01*
X207201Y234899D02*
Y235632D01*
Y235266D01*
X209400D01*
Y234899D01*
Y235632D01*
X207201Y236732D02*
X209400D01*
Y237832D01*
X209033Y238198D01*
X207567D01*
X207201Y237832D01*
Y236732D01*
X209400Y240398D02*
Y238931D01*
X207934Y240398D01*
X207567D01*
X207201Y240031D01*
Y239298D01*
X207567Y238931D01*
X3866Y308199D02*
X2400D01*
Y307100D01*
X3133D01*
X2400D01*
Y306000D01*
X4599Y308199D02*
X5332D01*
X4966D01*
Y306000D01*
X4599D01*
X5332D01*
X6432Y308199D02*
Y306000D01*
X7532D01*
X7898Y306367D01*
Y307833D01*
X7532Y308199D01*
X6432D01*
X8631Y306000D02*
X9364D01*
X8998D01*
Y308199D01*
X8631Y307833D01*
X323000Y149900D02*
X320801D01*
Y151000D01*
X321167Y151366D01*
X321900D01*
X322267Y151000D01*
Y149900D01*
X323000Y152099D02*
Y152832D01*
Y152466D01*
X320801D01*
X321167Y152099D01*
Y153932D02*
X320801Y154299D01*
Y155032D01*
X321167Y155398D01*
X322633D01*
X323000Y155032D01*
Y154299D01*
X322633Y153932D01*
X321167D01*
X265600Y148899D02*
Y147067D01*
X265967Y146700D01*
X266700D01*
X267066Y147067D01*
Y148899D01*
X267799Y148533D02*
X268166Y148899D01*
X268899D01*
X269266Y148533D01*
Y148166D01*
X268899Y147800D01*
X268532D01*
X268899D01*
X269266Y147433D01*
Y147067D01*
X268899Y146700D01*
X268166D01*
X267799Y147067D01*
X27600Y292300D02*
Y290101D01*
X26500D01*
X26134Y290467D01*
Y291200D01*
X26500Y291567D01*
X27600D01*
X26867D02*
X26134Y292300D01*
X25401Y290467D02*
X25034Y290101D01*
X24301D01*
X23934Y290467D01*
Y290834D01*
X24301Y291200D01*
X24668D01*
X24301D01*
X23934Y291567D01*
Y291933D01*
X24301Y292300D01*
X25034D01*
X25401Y291933D01*
X21735Y292300D02*
X23201D01*
X21735Y290834D01*
Y290467D01*
X22102Y290101D01*
X22835D01*
X23201Y290467D01*
X2300Y265600D02*
Y267799D01*
X3400D01*
X3766Y267433D01*
Y266700D01*
X3400Y266333D01*
X2300D01*
X4499Y265600D02*
X5232D01*
X4866D01*
Y267799D01*
X4499Y267433D01*
X244234Y130967D02*
X244600Y130601D01*
X245333D01*
X245700Y130967D01*
Y132433D01*
X245333Y132800D01*
X244600D01*
X244234Y132433D01*
X243501Y130967D02*
X243134Y130601D01*
X242401D01*
X242035Y130967D01*
Y131334D01*
X242401Y131700D01*
X242035Y132067D01*
Y132433D01*
X242401Y132800D01*
X243134D01*
X243501Y132433D01*
Y132067D01*
X243134Y131700D01*
X243501Y131334D01*
Y130967D01*
X243134Y131700D02*
X242401D01*
X341500Y229800D02*
X343699D01*
Y228700D01*
X343333Y228334D01*
X342600D01*
X342233Y228700D01*
Y229800D01*
Y229067D02*
X341500Y228334D01*
Y227601D02*
Y226868D01*
Y227234D01*
X343699D01*
X343333Y227601D01*
Y225768D02*
X343699Y225401D01*
Y224668D01*
X343333Y224302D01*
X341867D01*
X341500Y224668D01*
Y225401D01*
X341867Y225768D01*
X343333D01*
X358599Y238800D02*
X356767D01*
X356400Y238433D01*
Y237700D01*
X356767Y237334D01*
X358599D01*
X356400Y235501D02*
X358599D01*
X357500Y236601D01*
Y235135D01*
X355000Y253100D02*
Y255299D01*
X356100D01*
X356466Y254933D01*
Y254200D01*
X356100Y253833D01*
X355000D01*
X355733D02*
X356466Y253100D01*
X357199D02*
X357932D01*
X357566D01*
Y255299D01*
X357199Y254933D01*
X359032D02*
X359399Y255299D01*
X360132D01*
X360498Y254933D01*
Y254566D01*
X360132Y254200D01*
X359765D01*
X360132D01*
X360498Y253833D01*
Y253467D01*
X360132Y253100D01*
X359399D01*
X359032Y253467D01*
X288800Y148000D02*
X286601D01*
Y149100D01*
X286967Y149466D01*
X287700D01*
X288067Y149100D01*
Y148000D01*
Y148733D02*
X288800Y149466D01*
Y150199D02*
Y150932D01*
Y150566D01*
X286601D01*
X286967Y150199D01*
X288800Y153498D02*
Y152032D01*
X287334Y153498D01*
X286967D01*
X286601Y153132D01*
Y152399D01*
X286967Y152032D01*
X299800Y146100D02*
X301999D01*
Y145000D01*
X301633Y144634D01*
X300900D01*
X300533Y145000D01*
Y146100D01*
Y145367D02*
X299800Y144634D01*
Y143901D02*
Y143168D01*
Y143534D01*
X301999D01*
X301633Y143901D01*
X299800Y142068D02*
Y141335D01*
Y141701D01*
X301999D01*
X301633Y142068D01*
X302333Y156134D02*
X302699Y156500D01*
Y157233D01*
X302333Y157600D01*
X300867D01*
X300500Y157233D01*
Y156500D01*
X300867Y156134D01*
X300500Y155401D02*
Y154668D01*
Y155034D01*
X302699D01*
X302333Y155401D01*
X302699Y153568D02*
Y152102D01*
X302333D01*
X300867Y153568D01*
X300500D01*
X276867Y245334D02*
X278333D01*
X278699Y245700D01*
Y246433D01*
X278333Y246800D01*
X276867D01*
X276500Y246433D01*
Y245700D01*
X277233Y246067D02*
X276500Y245334D01*
Y245700D02*
X276867Y245334D01*
X278333Y244601D02*
X278699Y244234D01*
Y243501D01*
X278333Y243134D01*
X277966D01*
X277600Y243501D01*
X277233Y243134D01*
X276867D01*
X276500Y243501D01*
Y244234D01*
X276867Y244601D01*
X277233D01*
X277600Y244234D01*
X277966Y244601D01*
X278333D01*
X277600Y244234D02*
Y243501D01*
X255600Y157100D02*
Y159299D01*
X256700D01*
X257066Y158933D01*
Y158200D01*
X256700Y157833D01*
X255600D01*
X256333D02*
X257066Y157100D01*
X259265Y159299D02*
X257799D01*
Y158200D01*
X258532Y158566D01*
X258899D01*
X259265Y158200D01*
Y157467D01*
X258899Y157100D01*
X258166D01*
X257799Y157467D01*
X259999Y158933D02*
X260365Y159299D01*
X261098D01*
X261465Y158933D01*
Y158566D01*
X261098Y158200D01*
X260732D01*
X261098D01*
X261465Y157833D01*
Y157467D01*
X261098Y157100D01*
X260365D01*
X259999Y157467D01*
X235500Y62400D02*
Y64599D01*
X236600D01*
X236966Y64233D01*
Y63500D01*
X236600Y63133D01*
X235500D01*
X236233D02*
X236966Y62400D01*
X239165Y64599D02*
X237699D01*
Y63500D01*
X238432Y63866D01*
X238799D01*
X239165Y63500D01*
Y62766D01*
X238799Y62400D01*
X238066D01*
X237699Y62766D01*
X239899Y62400D02*
X240632D01*
X240265D01*
Y64599D01*
X239899Y64233D01*
X156400Y202000D02*
X158599D01*
Y200900D01*
X158233Y200534D01*
X157500D01*
X157133Y200900D01*
Y202000D01*
Y201267D02*
X156400Y200534D01*
X158599Y198335D02*
Y199801D01*
X157500D01*
X157866Y199068D01*
Y198701D01*
X157500Y198335D01*
X156767D01*
X156400Y198701D01*
Y199434D01*
X156767Y199801D01*
X158233Y197601D02*
X158599Y197235D01*
Y196502D01*
X158233Y196135D01*
X156767D01*
X156400Y196502D01*
Y197235D01*
X156767Y197601D01*
X158233D01*
X56300Y22501D02*
Y24333D01*
X55933Y24700D01*
X55200D01*
X54834Y24333D01*
Y22501D01*
X54101D02*
X52635D01*
Y22867D01*
X54101Y24333D01*
Y24700D01*
X92401Y32900D02*
X94234D01*
X94600Y33267D01*
Y34000D01*
X94234Y34366D01*
X92401D01*
Y36566D02*
X92767Y35832D01*
X93500Y35099D01*
X94234D01*
X94600Y35466D01*
Y36199D01*
X94234Y36566D01*
X93867D01*
X93500Y36199D01*
Y35099D01*
X73200Y35800D02*
Y37999D01*
X74300D01*
X74666Y37633D01*
Y36900D01*
X74300Y36533D01*
X73200D01*
X73933D02*
X74666Y35800D01*
X76499D02*
Y37999D01*
X75399Y36900D01*
X76866D01*
X78698Y35800D02*
Y37999D01*
X77599Y36900D01*
X79065D01*
X85800Y24400D02*
Y22201D01*
X84700D01*
X84334Y22567D01*
Y23300D01*
X84700Y23667D01*
X85800D01*
X85067D02*
X84334Y24400D01*
X82501D02*
Y22201D01*
X83601Y23300D01*
X82134D01*
X81401Y22567D02*
X81035Y22201D01*
X80302D01*
X79935Y22567D01*
Y22934D01*
X80302Y23300D01*
X80668D01*
X80302D01*
X79935Y23667D01*
Y24033D01*
X80302Y24400D01*
X81035D01*
X81401Y24033D01*
X94100Y24500D02*
Y22301D01*
X93000D01*
X92634Y22667D01*
Y23400D01*
X93000Y23767D01*
X94100D01*
X93367D02*
X92634Y24500D01*
X90801D02*
Y22301D01*
X91901Y23400D01*
X90434D01*
X88235Y24500D02*
X89701D01*
X88235Y23034D01*
Y22667D01*
X88602Y22301D01*
X89335D01*
X89701Y22667D01*
X236200Y177200D02*
X238399D01*
Y176100D01*
X238033Y175734D01*
X237300D01*
X236933Y176100D01*
Y177200D01*
Y176467D02*
X236200Y175734D01*
Y173901D02*
X238399D01*
X237300Y175001D01*
Y173535D01*
X238033Y172801D02*
X238399Y172435D01*
Y171702D01*
X238033Y171335D01*
X236567D01*
X236200Y171702D01*
Y172435D01*
X236567Y172801D01*
X238033D01*
X230300Y168200D02*
Y166001D01*
X229200D01*
X228834Y166367D01*
Y167100D01*
X229200Y167467D01*
X230300D01*
X229567D02*
X228834Y168200D01*
X228101Y166367D02*
X227734Y166001D01*
X227001D01*
X226635Y166367D01*
Y166734D01*
X227001Y167100D01*
X227368D01*
X227001D01*
X226635Y167467D01*
Y167833D01*
X227001Y168200D01*
X227734D01*
X228101Y167833D01*
X225901D02*
X225535Y168200D01*
X224802D01*
X224435Y167833D01*
Y166367D01*
X224802Y166001D01*
X225535D01*
X225901Y166367D01*
Y166734D01*
X225535Y167100D01*
X224435D01*
X55500Y295600D02*
Y293401D01*
X54400D01*
X54034Y293767D01*
Y294500D01*
X54400Y294867D01*
X55500D01*
X54767D02*
X54034Y295600D01*
X53301Y293767D02*
X52934Y293401D01*
X52201D01*
X51834Y293767D01*
Y294134D01*
X52201Y294500D01*
X52568D01*
X52201D01*
X51834Y294867D01*
Y295233D01*
X52201Y295600D01*
X52934D01*
X53301Y295233D01*
X51101Y293767D02*
X50735Y293401D01*
X50002D01*
X49635Y293767D01*
Y294134D01*
X50002Y294500D01*
X49635Y294867D01*
Y295233D01*
X50002Y295600D01*
X50735D01*
X51101Y295233D01*
Y294867D01*
X50735Y294500D01*
X51101Y294134D01*
Y293767D01*
X50735Y294500D02*
X50002D01*
X63100Y295600D02*
Y293401D01*
X62000D01*
X61634Y293767D01*
Y294500D01*
X62000Y294867D01*
X63100D01*
X62367D02*
X61634Y295600D01*
X60901Y293767D02*
X60534Y293401D01*
X59801D01*
X59434Y293767D01*
Y294134D01*
X59801Y294500D01*
X60168D01*
X59801D01*
X59434Y294867D01*
Y295233D01*
X59801Y295600D01*
X60534D01*
X60901Y295233D01*
X58701Y293401D02*
X57235D01*
Y293767D01*
X58701Y295233D01*
Y295600D01*
X104900Y47900D02*
Y50099D01*
X106000D01*
X106366Y49733D01*
Y49000D01*
X106000Y48633D01*
X104900D01*
X105633D02*
X106366Y47900D01*
X108199D02*
Y50099D01*
X107099Y49000D01*
X108565D01*
X109299Y47900D02*
X110032D01*
X109665D01*
Y50099D01*
X109299Y49733D01*
X278300Y57400D02*
Y59599D01*
X279400D01*
X279766Y59233D01*
Y58500D01*
X279400Y58133D01*
X278300D01*
X279033D02*
X279766Y57400D01*
X280499Y59233D02*
X280866Y59599D01*
X281599D01*
X281965Y59233D01*
Y58866D01*
X281599Y58500D01*
X281965Y58133D01*
Y57766D01*
X281599Y57400D01*
X280866D01*
X280499Y57766D01*
Y58133D01*
X280866Y58500D01*
X280499Y58866D01*
Y59233D01*
X280866Y58500D02*
X281599D01*
X282699Y59233D02*
X283065Y59599D01*
X283798D01*
X284165Y59233D01*
Y57766D01*
X283798Y57400D01*
X283065D01*
X282699Y57766D01*
Y59233D01*
X316100Y42200D02*
Y40001D01*
X315000D01*
X314634Y40367D01*
Y41100D01*
X315000Y41467D01*
X316100D01*
X315367D02*
X314634Y42200D01*
X313901Y40001D02*
X312435D01*
Y40367D01*
X313901Y41833D01*
Y42200D01*
X311701Y41833D02*
X311335Y42200D01*
X310602D01*
X310235Y41833D01*
Y40367D01*
X310602Y40001D01*
X311335D01*
X311701Y40367D01*
Y40734D01*
X311335Y41100D01*
X310235D01*
X290300Y45800D02*
Y43601D01*
X289200D01*
X288834Y43967D01*
Y44700D01*
X289200Y45067D01*
X290300D01*
X289567D02*
X288834Y45800D01*
X288101Y43601D02*
X286634D01*
Y43967D01*
X288101Y45433D01*
Y45800D01*
X285901Y43967D02*
X285535Y43601D01*
X284802D01*
X284435Y43967D01*
Y44334D01*
X284802Y44700D01*
X284435Y45067D01*
Y45433D01*
X284802Y45800D01*
X285535D01*
X285901Y45433D01*
Y45067D01*
X285535Y44700D01*
X285901Y44334D01*
Y43967D01*
X285535Y44700D02*
X284802D01*
X307600Y48600D02*
X305401D01*
Y49700D01*
X305767Y50066D01*
X306500D01*
X306867Y49700D01*
Y48600D01*
Y49333D02*
X307600Y50066D01*
X305401Y50799D02*
Y52266D01*
X305767D01*
X307233Y50799D01*
X307600D01*
X305401Y52999D02*
Y54465D01*
X305767D01*
X307233Y52999D01*
X307600D01*
X307300Y70600D02*
X305101D01*
Y71700D01*
X305467Y72066D01*
X306200D01*
X306567Y71700D01*
Y70600D01*
Y71333D02*
X307300Y72066D01*
X305101Y72799D02*
Y74265D01*
X305467D01*
X306933Y72799D01*
X307300D01*
Y76465D02*
Y74999D01*
X305834Y76465D01*
X305467D01*
X305101Y76098D01*
Y75365D01*
X305467Y74999D01*
X318500Y139300D02*
X320699D01*
Y138200D01*
X320333Y137834D01*
X319600D01*
X319233Y138200D01*
Y139300D01*
Y138567D02*
X318500Y137834D01*
X320699Y137101D02*
Y135635D01*
X320333D01*
X318867Y137101D01*
X318500D01*
X320699Y133435D02*
X320333Y134168D01*
X319600Y134901D01*
X318867D01*
X318500Y134535D01*
Y133802D01*
X318867Y133435D01*
X319233D01*
X319600Y133802D01*
Y134901D01*
X253800Y97300D02*
Y95101D01*
X252700D01*
X252334Y95467D01*
Y96200D01*
X252700Y96567D01*
X253800D01*
X253067D02*
X252334Y97300D01*
X251601Y95101D02*
X250134D01*
Y95467D01*
X251601Y96934D01*
Y97300D01*
X247935Y95101D02*
X249401D01*
Y96200D01*
X248668Y95834D01*
X248302D01*
X247935Y96200D01*
Y96934D01*
X248302Y97300D01*
X249035D01*
X249401Y96934D01*
X307500Y64700D02*
X305301D01*
Y65800D01*
X305667Y66166D01*
X306400D01*
X306767Y65800D01*
Y64700D01*
Y65433D02*
X307500Y66166D01*
X305301Y66899D02*
Y68366D01*
X305667D01*
X307133Y66899D01*
X307500D01*
Y69099D02*
Y69832D01*
Y69465D01*
X305301D01*
X305667Y69099D01*
X310500Y148800D02*
Y150999D01*
X311600D01*
X311966Y150633D01*
Y149900D01*
X311600Y149533D01*
X310500D01*
X311233D02*
X311966Y148800D01*
X312699Y150999D02*
X314165D01*
Y150633D01*
X312699Y149167D01*
Y148800D01*
X315998D02*
Y150999D01*
X314899Y149900D01*
X316365D01*
X253700Y94000D02*
Y91801D01*
X252600D01*
X252234Y92167D01*
Y92900D01*
X252600Y93267D01*
X253700D01*
X252967D02*
X252234Y94000D01*
X251501Y91801D02*
X250034D01*
Y92167D01*
X251501Y93634D01*
Y94000D01*
X249301Y92167D02*
X248935Y91801D01*
X248202D01*
X247835Y92167D01*
Y92534D01*
X248202Y92900D01*
X248568D01*
X248202D01*
X247835Y93267D01*
Y93634D01*
X248202Y94000D01*
X248935D01*
X249301Y93634D01*
X288400Y82000D02*
Y79801D01*
X287300D01*
X286934Y80167D01*
Y80900D01*
X287300Y81267D01*
X288400D01*
X287667D02*
X286934Y82000D01*
X284735Y79801D02*
X285468Y80167D01*
X286201Y80900D01*
Y81634D01*
X285834Y82000D01*
X285101D01*
X284735Y81634D01*
Y81267D01*
X285101Y80900D01*
X286201D01*
X282535Y79801D02*
X283268Y80167D01*
X284001Y80900D01*
Y81634D01*
X283635Y82000D01*
X282902D01*
X282535Y81634D01*
Y81267D01*
X282902Y80900D01*
X284001D01*
X301700Y114000D02*
X299501D01*
Y115100D01*
X299867Y115466D01*
X300600D01*
X300967Y115100D01*
Y114000D01*
Y114733D02*
X301700Y115466D01*
X299501Y116199D02*
Y117666D01*
X299867D01*
X301333Y116199D01*
X301700D01*
X299867Y118399D02*
X299501Y118765D01*
Y119498D01*
X299867Y119865D01*
X301333D01*
X301700Y119498D01*
Y118765D01*
X301333Y118399D01*
X299867D01*
X306900Y111600D02*
Y113799D01*
X308000D01*
X308366Y113433D01*
Y112700D01*
X308000Y112333D01*
X306900D01*
X307633D02*
X308366Y111600D01*
X310565Y113799D02*
X309832Y113433D01*
X309099Y112700D01*
Y111967D01*
X309466Y111600D01*
X310199D01*
X310565Y111967D01*
Y112333D01*
X310199Y112700D01*
X309099D01*
X311299Y111967D02*
X311665Y111600D01*
X312398D01*
X312765Y111967D01*
Y113433D01*
X312398Y113799D01*
X311665D01*
X311299Y113433D01*
Y113066D01*
X311665Y112700D01*
X312765D01*
X318100Y130400D02*
X320299D01*
Y129300D01*
X319933Y128934D01*
X319200D01*
X318833Y129300D01*
Y130400D01*
Y129667D02*
X318100Y128934D01*
X320299Y126734D02*
X319933Y127468D01*
X319200Y128201D01*
X318467D01*
X318100Y127834D01*
Y127101D01*
X318467Y126734D01*
X318833D01*
X319200Y127101D01*
Y128201D01*
X319933Y126001D02*
X320299Y125635D01*
Y124902D01*
X319933Y124535D01*
X319566D01*
X319200Y124902D01*
X318833Y124535D01*
X318467D01*
X318100Y124902D01*
Y125635D01*
X318467Y126001D01*
X318833D01*
X319200Y125635D01*
X319566Y126001D01*
X319933D01*
X319200Y125635D02*
Y124902D01*
X306900Y94800D02*
X304701D01*
Y95900D01*
X305067Y96266D01*
X305800D01*
X306167Y95900D01*
Y94800D01*
Y95533D02*
X306900Y96266D01*
X304701Y98466D02*
X305067Y97732D01*
X305800Y96999D01*
X306533D01*
X306900Y97366D01*
Y98099D01*
X306533Y98466D01*
X306167D01*
X305800Y98099D01*
Y96999D01*
X304701Y99199D02*
Y100665D01*
X305067D01*
X306533Y99199D01*
X306900D01*
X275200Y92900D02*
Y95099D01*
X276300D01*
X276666Y94733D01*
Y94000D01*
X276300Y93633D01*
X275200D01*
X275933D02*
X276666Y92900D01*
X278866Y95099D02*
X278132Y94733D01*
X277399Y94000D01*
Y93266D01*
X277766Y92900D01*
X278499D01*
X278866Y93266D01*
Y93633D01*
X278499Y94000D01*
X277399D01*
X281065Y95099D02*
X279599D01*
Y94000D01*
X280332Y94366D01*
X280698D01*
X281065Y94000D01*
Y93266D01*
X280698Y92900D01*
X279965D01*
X279599Y93266D01*
X269800Y109400D02*
Y111599D01*
X270900D01*
X271266Y111233D01*
Y110500D01*
X270900Y110133D01*
X269800D01*
X270533D02*
X271266Y109400D01*
X273465Y111599D02*
X272732Y111233D01*
X271999Y110500D01*
Y109767D01*
X272366Y109400D01*
X273099D01*
X273465Y109767D01*
Y110133D01*
X273099Y110500D01*
X271999D01*
X274199Y111233D02*
X274565Y111599D01*
X275298D01*
X275665Y111233D01*
Y109767D01*
X275298Y109400D01*
X274565D01*
X274199Y109767D01*
Y111233D01*
X80500Y280800D02*
Y282999D01*
X81600D01*
X81966Y282633D01*
Y281900D01*
X81600Y281533D01*
X80500D01*
X81233D02*
X81966Y280800D01*
X84166Y282999D02*
X83432Y282633D01*
X82699Y281900D01*
Y281167D01*
X83066Y280800D01*
X83799D01*
X84166Y281167D01*
Y281533D01*
X83799Y281900D01*
X82699D01*
X85998Y280800D02*
Y282999D01*
X84899Y281900D01*
X86365D01*
X68200Y282400D02*
Y284599D01*
X69300D01*
X69666Y284233D01*
Y283500D01*
X69300Y283133D01*
X68200D01*
X68933D02*
X69666Y282400D01*
X71865Y284599D02*
X71132Y284233D01*
X70399Y283500D01*
Y282767D01*
X70766Y282400D01*
X71499D01*
X71865Y282767D01*
Y283133D01*
X71499Y283500D01*
X70399D01*
X72599Y284233D02*
X72965Y284599D01*
X73698D01*
X74065Y284233D01*
Y283866D01*
X73698Y283500D01*
X73332D01*
X73698D01*
X74065Y283133D01*
Y282767D01*
X73698Y282400D01*
X72965D01*
X72599Y282767D01*
X65200Y281800D02*
X67399D01*
Y280700D01*
X67033Y280334D01*
X66300D01*
X65933Y280700D01*
Y281800D01*
Y281067D02*
X65200Y280334D01*
X67399Y278134D02*
X67033Y278868D01*
X66300Y279601D01*
X65566D01*
X65200Y279234D01*
Y278501D01*
X65566Y278134D01*
X65933D01*
X66300Y278501D01*
Y279601D01*
X65200Y275935D02*
Y277401D01*
X66666Y275935D01*
X67033D01*
X67399Y276302D01*
Y277035D01*
X67033Y277401D01*
X59500Y288100D02*
Y285901D01*
X58400D01*
X58034Y286267D01*
Y287000D01*
X58400Y287367D01*
X59500D01*
X58767D02*
X58034Y288100D01*
X55835Y285901D02*
X56568Y286267D01*
X57301Y287000D01*
Y287733D01*
X56934Y288100D01*
X56201D01*
X55835Y287733D01*
Y287367D01*
X56201Y287000D01*
X57301D01*
X55101Y288100D02*
X54368D01*
X54735D01*
Y285901D01*
X55101Y286267D01*
X280600Y107800D02*
X282799D01*
Y106700D01*
X282433Y106334D01*
X281700D01*
X281333Y106700D01*
Y107800D01*
Y107067D02*
X280600Y106334D01*
X282799Y104135D02*
Y105601D01*
X281700D01*
X282066Y104868D01*
Y104501D01*
X281700Y104135D01*
X280967D01*
X280600Y104501D01*
Y105234D01*
X280967Y105601D01*
Y103401D02*
X280600Y103035D01*
Y102302D01*
X280967Y101935D01*
X282433D01*
X282799Y102302D01*
Y103035D01*
X282433Y103401D01*
X282066D01*
X281700Y103035D01*
Y101935D01*
X289400Y106200D02*
X287201D01*
Y107300D01*
X287567Y107666D01*
X288300D01*
X288667Y107300D01*
Y106200D01*
Y106933D02*
X289400Y107666D01*
X287201Y109865D02*
Y108399D01*
X288300D01*
X287934Y109132D01*
Y109499D01*
X288300Y109865D01*
X289033D01*
X289400Y109499D01*
Y108766D01*
X289033Y108399D01*
X287567Y110599D02*
X287201Y110965D01*
Y111698D01*
X287567Y112065D01*
X287934D01*
X288300Y111698D01*
X288667Y112065D01*
X289033D01*
X289400Y111698D01*
Y110965D01*
X289033Y110599D01*
X288667D01*
X288300Y110965D01*
X287934Y110599D01*
X287567D01*
X288300Y110965D02*
Y111698D01*
X249000Y131400D02*
X246801D01*
Y132500D01*
X247167Y132866D01*
X247900D01*
X248267Y132500D01*
Y131400D01*
Y132133D02*
X249000Y132866D01*
X246801Y135065D02*
Y133599D01*
X247900D01*
X247534Y134332D01*
Y134699D01*
X247900Y135065D01*
X248633D01*
X249000Y134699D01*
Y133966D01*
X248633Y133599D01*
X246801Y135799D02*
Y137265D01*
X247167D01*
X248633Y135799D01*
X249000D01*
X240300Y102900D02*
X238101D01*
Y104000D01*
X238467Y104366D01*
X239200D01*
X239567Y104000D01*
Y102900D01*
Y103633D02*
X240300Y104366D01*
X238101Y106565D02*
Y105099D01*
X239200D01*
X238834Y105832D01*
Y106199D01*
X239200Y106565D01*
X239933D01*
X240300Y106199D01*
Y105466D01*
X239933Y105099D01*
X238101Y108765D02*
X238467Y108032D01*
X239200Y107299D01*
X239933D01*
X240300Y107665D01*
Y108398D01*
X239933Y108765D01*
X239567D01*
X239200Y108398D01*
Y107299D01*
X268700Y92300D02*
Y90101D01*
X267600D01*
X267234Y90467D01*
Y91200D01*
X267600Y91567D01*
X268700D01*
X267967D02*
X267234Y92300D01*
X265035Y90101D02*
X266501D01*
Y91200D01*
X265768Y90834D01*
X265401D01*
X265035Y91200D01*
Y91934D01*
X265401Y92300D01*
X266134D01*
X266501Y91934D01*
X262835Y92300D02*
X264301D01*
X262835Y90834D01*
Y90467D01*
X263202Y90101D01*
X263935D01*
X264301Y90467D01*
X204600Y191100D02*
Y188901D01*
X203500D01*
X203134Y189267D01*
Y190000D01*
X203500Y190367D01*
X204600D01*
X203867D02*
X203134Y191100D01*
X200935D02*
X202401D01*
X200935Y189634D01*
Y189267D01*
X201301Y188901D01*
X202034D01*
X202401Y189267D01*
X198735Y191100D02*
X200201D01*
X198735Y189634D01*
Y189267D01*
X199102Y188901D01*
X199835D01*
X200201Y189267D01*
X195900Y196200D02*
Y194001D01*
X194800D01*
X194434Y194367D01*
Y195100D01*
X194800Y195467D01*
X195900D01*
X195167D02*
X194434Y196200D01*
X192235D02*
X193701D01*
X192235Y194734D01*
Y194367D01*
X192601Y194001D01*
X193334D01*
X193701Y194367D01*
X191501Y196200D02*
X190768D01*
X191135D01*
Y194001D01*
X191501Y194367D01*
X188100Y196200D02*
Y194001D01*
X187000D01*
X186634Y194367D01*
Y195100D01*
X187000Y195467D01*
X188100D01*
X187367D02*
X186634Y196200D01*
X184434D02*
X185901D01*
X184434Y194734D01*
Y194367D01*
X184801Y194001D01*
X185534D01*
X185901Y194367D01*
X183701D02*
X183335Y194001D01*
X182602D01*
X182235Y194367D01*
Y195833D01*
X182602Y196200D01*
X183335D01*
X183701Y195833D01*
Y194367D01*
X211100Y206000D02*
X213299D01*
Y204900D01*
X212933Y204534D01*
X212200D01*
X211833Y204900D01*
Y206000D01*
Y205267D02*
X211100Y204534D01*
Y203801D02*
Y203068D01*
Y203434D01*
X213299D01*
X212933Y203801D01*
X211467Y201968D02*
X211100Y201601D01*
Y200868D01*
X211467Y200502D01*
X212933D01*
X213299Y200868D01*
Y201601D01*
X212933Y201968D01*
X212566D01*
X212200Y201601D01*
Y200502D01*
X225300Y203600D02*
Y205799D01*
X226400D01*
X226766Y205433D01*
Y204700D01*
X226400Y204333D01*
X225300D01*
X226033D02*
X226766Y203600D01*
X228965Y205799D02*
X227499D01*
Y204700D01*
X228232Y205066D01*
X228599D01*
X228965Y204700D01*
Y203967D01*
X228599Y203600D01*
X227866D01*
X227499Y203967D01*
X228700Y126100D02*
Y128299D01*
X229800D01*
X230166Y127933D01*
Y127200D01*
X229800Y126833D01*
X228700D01*
X229433D02*
X230166Y126100D01*
X230899D02*
X231632D01*
X231266D01*
Y128299D01*
X230899Y127933D01*
X96566Y49667D02*
Y51133D01*
X96200Y51499D01*
X95467D01*
X95100Y51133D01*
Y49667D01*
X95467Y49300D01*
X96200D01*
X95833Y50033D02*
X96566Y49300D01*
X96200D02*
X96566Y49667D01*
X98765Y51499D02*
X98032Y51133D01*
X97299Y50400D01*
Y49667D01*
X97666Y49300D01*
X98399D01*
X98765Y49667D01*
Y50033D01*
X98399Y50400D01*
X97299D01*
X72733Y30934D02*
X73099Y31300D01*
Y32033D01*
X72733Y32400D01*
X71267D01*
X70900Y32033D01*
Y31300D01*
X71267Y30934D01*
X70900Y28734D02*
Y30201D01*
X72366Y28734D01*
X72733D01*
X73099Y29101D01*
Y29834D01*
X72733Y30201D01*
X71267Y28001D02*
X70900Y27635D01*
Y26902D01*
X71267Y26535D01*
X72733D01*
X73099Y26902D01*
Y27635D01*
X72733Y28001D01*
X72366D01*
X72000Y27635D01*
Y26535D01*
X116533Y32034D02*
X116899Y32400D01*
Y33133D01*
X116533Y33500D01*
X115067D01*
X114700Y33133D01*
Y32400D01*
X115067Y32034D01*
X114700Y29834D02*
Y31301D01*
X116166Y29834D01*
X116533D01*
X116899Y30201D01*
Y30934D01*
X116533Y31301D01*
Y29101D02*
X116899Y28735D01*
Y28002D01*
X116533Y27635D01*
X116166D01*
X115800Y28002D01*
X115433Y27635D01*
X115067D01*
X114700Y28002D01*
Y28735D01*
X115067Y29101D01*
X115433D01*
X115800Y28735D01*
X116166Y29101D01*
X116533D01*
X115800Y28735D02*
Y28002D01*
X244600Y284000D02*
Y286199D01*
X245700D01*
X246066Y285833D01*
Y285100D01*
X245700Y284733D01*
X244600D01*
X245333D02*
X246066Y284000D01*
X247899D02*
Y286199D01*
X246799Y285100D01*
X248266D01*
X248999Y285833D02*
X249365Y286199D01*
X250098D01*
X250465Y285833D01*
Y285466D01*
X250098Y285100D01*
X250465Y284733D01*
Y284367D01*
X250098Y284000D01*
X249365D01*
X248999Y284367D01*
Y284733D01*
X249365Y285100D01*
X248999Y285466D01*
Y285833D01*
X249365Y285100D02*
X250098D01*
X248200Y59581D02*
X246001D01*
Y60681D01*
X246367Y61047D01*
X247100D01*
X247467Y60681D01*
Y59581D01*
Y60314D02*
X248200Y61047D01*
Y62880D02*
X246001D01*
X247100Y61780D01*
Y63247D01*
X246001Y63980D02*
Y65446D01*
X246367D01*
X247833Y63980D01*
X248200D01*
X118700Y304900D02*
Y307099D01*
X119800D01*
X120166Y306733D01*
Y306000D01*
X119800Y305633D01*
X118700D01*
X119433D02*
X120166Y304900D01*
X122365D02*
X120899D01*
X122365Y306366D01*
Y306733D01*
X121999Y307099D01*
X121266D01*
X120899Y306733D01*
X124565Y307099D02*
X123099D01*
Y306000D01*
X123832Y306366D01*
X124198D01*
X124565Y306000D01*
Y305267D01*
X124198Y304900D01*
X123465D01*
X123099Y305267D01*
X147600Y250300D02*
Y248101D01*
X146500D01*
X146134Y248467D01*
Y249200D01*
X146500Y249567D01*
X147600D01*
X146867D02*
X146134Y250300D01*
X143935D02*
X145401D01*
X143935Y248834D01*
Y248467D01*
X144301Y248101D01*
X145034D01*
X145401Y248467D01*
X143201D02*
X142835Y248101D01*
X142102D01*
X141735Y248467D01*
Y248834D01*
X142102Y249200D01*
X141735Y249567D01*
Y249933D01*
X142102Y250300D01*
X142835D01*
X143201Y249933D01*
Y249567D01*
X142835Y249200D01*
X143201Y248834D01*
Y248467D01*
X142835Y249200D02*
X142102D01*
X160400Y282200D02*
Y284399D01*
X161500D01*
X161866Y284033D01*
Y283300D01*
X161500Y282933D01*
X160400D01*
X161133D02*
X161866Y282200D01*
X164066D02*
X162599D01*
X164066Y283666D01*
Y284033D01*
X163699Y284399D01*
X162966D01*
X162599Y284033D01*
X164799Y284399D02*
X166265D01*
Y284033D01*
X164799Y282567D01*
Y282200D01*
X191400Y15900D02*
X193599D01*
Y14800D01*
X193233Y14434D01*
X192500D01*
X192133Y14800D01*
Y15900D01*
Y15167D02*
X191400Y14434D01*
Y12235D02*
Y13701D01*
X192866Y12235D01*
X193233D01*
X193599Y12601D01*
Y13334D01*
X193233Y13701D01*
X193599Y10035D02*
X193233Y10768D01*
X192500Y11501D01*
X191767D01*
X191400Y11135D01*
Y10402D01*
X191767Y10035D01*
X192133D01*
X192500Y10402D01*
Y11501D01*
X16400Y23300D02*
Y25499D01*
X17500D01*
X17866Y25133D01*
Y24400D01*
X17500Y24033D01*
X16400D01*
X18599Y25133D02*
X18966Y25499D01*
X19699D01*
X20065Y25133D01*
Y24766D01*
X19699Y24400D01*
X20065Y24033D01*
Y23667D01*
X19699Y23300D01*
X18966D01*
X18599Y23667D01*
Y24033D01*
X18966Y24400D01*
X18599Y24766D01*
Y25133D01*
X18966Y24400D02*
X19699D01*
X136401Y319900D02*
X138600D01*
Y321000D01*
X138233Y321366D01*
X136767D01*
X136401Y321000D01*
Y319900D01*
X138600Y322099D02*
Y322832D01*
Y322466D01*
X136401D01*
X136767Y322099D01*
Y323932D02*
X136401Y324299D01*
Y325032D01*
X136767Y325398D01*
X138233D01*
X138600Y325032D01*
Y324299D01*
X138233Y323932D01*
X136767D01*
X131701Y258300D02*
X133900D01*
Y259400D01*
X133533Y259766D01*
X132067D01*
X131701Y259400D01*
Y258300D01*
X133533Y260499D02*
X133900Y260866D01*
Y261599D01*
X133533Y261965D01*
X132067D01*
X131701Y261599D01*
Y260866D01*
X132067Y260499D01*
X132434D01*
X132800Y260866D01*
Y261965D01*
X166300Y265101D02*
Y267300D01*
X165200D01*
X164834Y266933D01*
Y265467D01*
X165200Y265101D01*
X166300D01*
X164101Y265467D02*
X163734Y265101D01*
X163001D01*
X162635Y265467D01*
Y265834D01*
X163001Y266200D01*
X162635Y266567D01*
Y266933D01*
X163001Y267300D01*
X163734D01*
X164101Y266933D01*
Y266567D01*
X163734Y266200D01*
X164101Y265834D01*
Y265467D01*
X163734Y266200D02*
X163001D01*
X144401Y23500D02*
X146600D01*
Y24600D01*
X146233Y24966D01*
X144767D01*
X144401Y24600D01*
Y23500D01*
Y25699D02*
Y27165D01*
X144767D01*
X146233Y25699D01*
X146600D01*
X237667Y270966D02*
X237301Y270600D01*
Y269867D01*
X237667Y269500D01*
X239133D01*
X239500Y269867D01*
Y270600D01*
X239133Y270966D01*
X237667Y271699D02*
X237301Y272066D01*
Y272799D01*
X237667Y273165D01*
X238034D01*
X238400Y272799D01*
Y272432D01*
Y272799D01*
X238767Y273165D01*
X239133D01*
X239500Y272799D01*
Y272066D01*
X239133Y271699D01*
X239500Y274998D02*
X237301D01*
X238400Y273899D01*
Y275365D01*
X263666Y61933D02*
X263300Y62299D01*
X262567D01*
X262200Y61933D01*
Y60466D01*
X262567Y60100D01*
X263300D01*
X263666Y60466D01*
X264399Y61933D02*
X264766Y62299D01*
X265499D01*
X265865Y61933D01*
Y61566D01*
X265499Y61200D01*
X265132D01*
X265499D01*
X265865Y60833D01*
Y60466D01*
X265499Y60100D01*
X264766D01*
X264399Y60466D01*
X266599Y61933D02*
X266965Y62299D01*
X267698D01*
X268065Y61933D01*
Y61566D01*
X267698Y61200D01*
X267332D01*
X267698D01*
X268065Y60833D01*
Y60466D01*
X267698Y60100D01*
X266965D01*
X266599Y60466D01*
X140967Y215866D02*
X140601Y215500D01*
Y214767D01*
X140967Y214400D01*
X142433D01*
X142800Y214767D01*
Y215500D01*
X142433Y215866D01*
X140967Y216599D02*
X140601Y216966D01*
Y217699D01*
X140967Y218066D01*
X141334D01*
X141700Y217699D01*
Y217332D01*
Y217699D01*
X142067Y218066D01*
X142433D01*
X142800Y217699D01*
Y216966D01*
X142433Y216599D01*
X142800Y220265D02*
Y218799D01*
X141334Y220265D01*
X140967D01*
X140601Y219898D01*
Y219165D01*
X140967Y218799D01*
X131166Y306633D02*
X130800Y306999D01*
X130067D01*
X129700Y306633D01*
Y305167D01*
X130067Y304800D01*
X130800D01*
X131166Y305167D01*
X133365Y304800D02*
X131899D01*
X133365Y306266D01*
Y306633D01*
X132999Y306999D01*
X132266D01*
X131899Y306633D01*
X134099D02*
X134465Y306999D01*
X135198D01*
X135565Y306633D01*
Y305167D01*
X135198Y304800D01*
X134465D01*
X134099Y305167D01*
Y306633D01*
X132467Y265766D02*
X132101Y265400D01*
Y264667D01*
X132467Y264300D01*
X133933D01*
X134300Y264667D01*
Y265400D01*
X133933Y265766D01*
X134300Y267966D02*
Y266499D01*
X132834Y267966D01*
X132467D01*
X132101Y267599D01*
Y266866D01*
X132467Y266499D01*
Y268699D02*
X132101Y269065D01*
Y269798D01*
X132467Y270165D01*
X132834D01*
X133200Y269798D01*
Y269432D01*
Y269798D01*
X133567Y270165D01*
X133933D01*
X134300Y269798D01*
Y269065D01*
X133933Y268699D01*
X150566Y284133D02*
X150200Y284499D01*
X149467D01*
X149100Y284133D01*
Y282667D01*
X149467Y282300D01*
X150200D01*
X150566Y282667D01*
X152766Y282300D02*
X151299D01*
X152766Y283766D01*
Y284133D01*
X152399Y284499D01*
X151666D01*
X151299Y284133D01*
X154965Y282300D02*
X153499D01*
X154965Y283766D01*
Y284133D01*
X154598Y284499D01*
X153865D01*
X153499Y284133D01*
X176667Y12566D02*
X176301Y12200D01*
Y11467D01*
X176667Y11100D01*
X178133D01*
X178500Y11467D01*
Y12200D01*
X178133Y12566D01*
X178500Y14765D02*
Y13299D01*
X177034Y14765D01*
X176667D01*
X176301Y14399D01*
Y13666D01*
X176667Y13299D01*
X178500Y15499D02*
Y16232D01*
Y15865D01*
X176301D01*
X176667Y15499D01*
X229600Y297701D02*
Y299533D01*
X229233Y299900D01*
X228500D01*
X228134Y299533D01*
Y297701D01*
X225935D02*
X227401D01*
Y298800D01*
X226668Y298434D01*
X226301D01*
X225935Y298800D01*
Y299533D01*
X226301Y299900D01*
X227034D01*
X227401Y299533D01*
X225201Y300267D02*
X223735D01*
X223002Y297701D02*
Y299900D01*
Y298800D01*
X221536D01*
Y297701D01*
Y299900D01*
X219337Y298067D02*
X219703Y297701D01*
X220436D01*
X220803Y298067D01*
Y298434D01*
X220436Y298800D01*
X219703D01*
X219337Y299167D01*
Y299533D01*
X219703Y299900D01*
X220436D01*
X220803Y299533D01*
X217504Y299900D02*
Y297701D01*
X218603Y298800D01*
X217137D01*
X215700Y287299D02*
Y285467D01*
X216067Y285100D01*
X216800D01*
X217166Y285467D01*
Y287299D01*
X219366D02*
X217899D01*
Y286200D01*
X218632Y286566D01*
X218999D01*
X219366Y286200D01*
Y285467D01*
X218999Y285100D01*
X218266D01*
X217899Y285467D01*
X220099Y284733D02*
X221565D01*
X222298Y287299D02*
Y285100D01*
Y286200D01*
X223764D01*
Y287299D01*
Y285100D01*
X225963Y286933D02*
X225597Y287299D01*
X224864D01*
X224497Y286933D01*
Y286566D01*
X224864Y286200D01*
X225597D01*
X225963Y285833D01*
Y285467D01*
X225597Y285100D01*
X224864D01*
X224497Y285467D01*
X228163Y285100D02*
X226696D01*
X228163Y286566D01*
Y286933D01*
X227796Y287299D01*
X227063D01*
X226696Y286933D01*
X146899Y46200D02*
X145067D01*
X144700Y45833D01*
Y45100D01*
X145067Y44734D01*
X146899D01*
Y42535D02*
Y44001D01*
X145800D01*
X146166Y43268D01*
Y42901D01*
X145800Y42535D01*
X145067D01*
X144700Y42901D01*
Y43634D01*
X145067Y44001D01*
X144333Y41801D02*
Y40335D01*
X146899Y39602D02*
X144700D01*
X145800D01*
Y38136D01*
X146899D01*
X144700D01*
X146533Y35937D02*
X146899Y36303D01*
Y37036D01*
X146533Y37403D01*
X146166D01*
X145800Y37036D01*
Y36303D01*
X145433Y35937D01*
X145067D01*
X144700Y36303D01*
Y37036D01*
X145067Y37403D01*
X144700Y35204D02*
Y34470D01*
Y34837D01*
X146899D01*
X146533Y35204D01*
X158300Y211500D02*
X160499D01*
Y210400D01*
X160133Y210034D01*
X159400D01*
X159033Y210400D01*
Y211500D01*
Y210767D02*
X158300Y210034D01*
Y208201D02*
X160499D01*
X159400Y209301D01*
Y207835D01*
X160499Y205635D02*
X160133Y206368D01*
X159400Y207101D01*
X158667D01*
X158300Y206735D01*
Y206002D01*
X158667Y205635D01*
X159033D01*
X159400Y206002D01*
Y207101D01*
X85000Y269800D02*
Y267601D01*
X83900D01*
X83534Y267967D01*
Y268700D01*
X83900Y269067D01*
X85000D01*
X84267D02*
X83534Y269800D01*
X82801Y267967D02*
X82434Y267601D01*
X81701D01*
X81335Y267967D01*
Y268334D01*
X81701Y268700D01*
X82068D01*
X81701D01*
X81335Y269067D01*
Y269433D01*
X81701Y269800D01*
X82434D01*
X82801Y269433D01*
X80601Y267967D02*
X80235Y267601D01*
X79502D01*
X79135Y267967D01*
Y268334D01*
X79502Y268700D01*
X79868D01*
X79502D01*
X79135Y269067D01*
Y269433D01*
X79502Y269800D01*
X80235D01*
X80601Y269433D01*
X274900Y156400D02*
Y158599D01*
X276000D01*
X276366Y158233D01*
Y157500D01*
X276000Y157133D01*
X274900D01*
X275633D02*
X276366Y156400D01*
X277099Y158233D02*
X277466Y158599D01*
X278199D01*
X278566Y158233D01*
Y157866D01*
X278199Y157500D01*
X277832D01*
X278199D01*
X278566Y157133D01*
Y156767D01*
X278199Y156400D01*
X277466D01*
X277099Y156767D01*
X280765Y158599D02*
X280032Y158233D01*
X279299Y157500D01*
Y156767D01*
X279665Y156400D01*
X280398D01*
X280765Y156767D01*
Y157133D01*
X280398Y157500D01*
X279299D01*
X277600Y145600D02*
Y143401D01*
X276500D01*
X276134Y143767D01*
Y144500D01*
X276500Y144867D01*
X277600D01*
X276867D02*
X276134Y145600D01*
X275401Y143767D02*
X275034Y143401D01*
X274301D01*
X273935Y143767D01*
Y144134D01*
X274301Y144500D01*
X274668D01*
X274301D01*
X273935Y144867D01*
Y145233D01*
X274301Y145600D01*
X275034D01*
X275401Y145233D01*
X271735Y143401D02*
X273201D01*
Y144500D01*
X272468Y144134D01*
X272102D01*
X271735Y144500D01*
Y145233D01*
X272102Y145600D01*
X272835D01*
X273201Y145233D01*
X252500Y143500D02*
X250301D01*
Y144600D01*
X250667Y144966D01*
X251400D01*
X251767Y144600D01*
Y143500D01*
Y144233D02*
X252500Y144966D01*
X250667Y145699D02*
X250301Y146066D01*
Y146799D01*
X250667Y147166D01*
X251034D01*
X251400Y146799D01*
Y146432D01*
Y146799D01*
X251767Y147166D01*
X252133D01*
X252500Y146799D01*
Y146066D01*
X252133Y145699D01*
X252500Y148998D02*
X250301D01*
X251400Y147899D01*
Y149365D01*
X154900Y245400D02*
Y243201D01*
X153800D01*
X153434Y243567D01*
Y244300D01*
X153800Y244667D01*
X154900D01*
X154167D02*
X153434Y245400D01*
X151234D02*
X152701D01*
X151234Y243934D01*
Y243567D01*
X151601Y243201D01*
X152334D01*
X152701Y243567D01*
X149402Y245400D02*
Y243201D01*
X150501Y244300D01*
X149035D01*
X154900Y263600D02*
Y265799D01*
X156000D01*
X156366Y265433D01*
Y264700D01*
X156000Y264333D01*
X154900D01*
X155633D02*
X156366Y263600D01*
X158565D02*
X157099D01*
X158565Y265066D01*
Y265433D01*
X158199Y265799D01*
X157466D01*
X157099Y265433D01*
X159299D02*
X159665Y265799D01*
X160398D01*
X160765Y265433D01*
Y265066D01*
X160398Y264700D01*
X160032D01*
X160398D01*
X160765Y264333D01*
Y263967D01*
X160398Y263600D01*
X159665D01*
X159299Y263967D01*
X49000Y267000D02*
X51199D01*
Y265900D01*
X50833Y265534D01*
X50100D01*
X49733Y265900D01*
Y267000D01*
Y266267D02*
X49000Y265534D01*
X50833Y264801D02*
X51199Y264434D01*
Y263701D01*
X50833Y263334D01*
X50466D01*
X50100Y263701D01*
Y264068D01*
Y263701D01*
X49733Y263334D01*
X49367D01*
X49000Y263701D01*
Y264434D01*
X49367Y264801D01*
X50833Y262601D02*
X51199Y262235D01*
Y261502D01*
X50833Y261135D01*
X49367D01*
X49000Y261502D01*
Y262235D01*
X49367Y262601D01*
X50833D01*
X168500Y255800D02*
X170699D01*
Y254700D01*
X170333Y254334D01*
X169600D01*
X169233Y254700D01*
Y255800D01*
Y255067D02*
X168500Y254334D01*
Y253601D02*
Y252868D01*
Y253234D01*
X170699D01*
X170333Y253601D01*
Y251768D02*
X170699Y251401D01*
Y250668D01*
X170333Y250302D01*
X169966D01*
X169600Y250668D01*
X169233Y250302D01*
X168867D01*
X168500Y250668D01*
Y251401D01*
X168867Y251768D01*
X169233D01*
X169600Y251401D01*
X169966Y251768D01*
X170333D01*
X169600Y251401D02*
Y250668D01*
X33900Y262000D02*
Y259801D01*
X32800D01*
X32434Y260167D01*
Y260900D01*
X32800Y261267D01*
X33900D01*
X33167D02*
X32434Y262000D01*
X30235D02*
X31701D01*
X30235Y260534D01*
Y260167D01*
X30601Y259801D01*
X31334D01*
X31701Y260167D01*
X29501Y261633D02*
X29135Y262000D01*
X28402D01*
X28035Y261633D01*
Y260167D01*
X28402Y259801D01*
X29135D01*
X29501Y260167D01*
Y260534D01*
X29135Y260900D01*
X28035D01*
X188300Y81000D02*
Y83199D01*
X189400D01*
X189766Y82833D01*
Y82100D01*
X189400Y81733D01*
X188300D01*
X189033D02*
X189766Y81000D01*
X190499D02*
X191232D01*
X190866D01*
Y83199D01*
X190499Y82833D01*
X192332Y83199D02*
X193798D01*
Y82833D01*
X192332Y81366D01*
Y81000D01*
X204400Y323600D02*
Y325799D01*
X205500D01*
X205866Y325433D01*
Y324700D01*
X205500Y324333D01*
X204400D01*
X205133D02*
X205866Y323600D01*
X206599D02*
X207332D01*
X206966D01*
Y325799D01*
X206599Y325433D01*
X209898Y325799D02*
X208432D01*
Y324700D01*
X209165Y325066D01*
X209532D01*
X209898Y324700D01*
Y323967D01*
X209532Y323600D01*
X208799D01*
X208432Y323967D01*
X204500Y265200D02*
X206699D01*
Y264100D01*
X206333Y263734D01*
X205600D01*
X205233Y264100D01*
Y265200D01*
Y264467D02*
X204500Y263734D01*
Y263001D02*
Y262268D01*
Y262634D01*
X206699D01*
X206333Y263001D01*
X204500Y260068D02*
X206699D01*
X205600Y261168D01*
Y259702D01*
X204200Y276200D02*
X206399D01*
Y275100D01*
X206033Y274734D01*
X205300D01*
X204933Y275100D01*
Y276200D01*
Y275467D02*
X204200Y274734D01*
Y274001D02*
Y273268D01*
Y273634D01*
X206399D01*
X206033Y274001D01*
X206399Y270702D02*
X206033Y271435D01*
X205300Y272168D01*
X204567D01*
X204200Y271801D01*
Y271068D01*
X204567Y270702D01*
X204933D01*
X205300Y271068D01*
Y272168D01*
X238333Y80066D02*
X236867D01*
X236501Y79700D01*
Y78966D01*
X236867Y78600D01*
X238333D01*
X238700Y78966D01*
Y79700D01*
X237967Y79333D02*
X238700Y80066D01*
Y79700D02*
X238333Y80066D01*
X236501Y82266D02*
Y80799D01*
X237600D01*
X237234Y81532D01*
Y81899D01*
X237600Y82266D01*
X238333D01*
X238700Y81899D01*
Y81166D01*
X238333Y80799D01*
X40266Y305967D02*
Y307433D01*
X39900Y307799D01*
X39167D01*
X38800Y307433D01*
Y305967D01*
X39167Y305600D01*
X39900D01*
X39533Y306333D02*
X40266Y305600D01*
X39900D02*
X40266Y305967D01*
X42099Y305600D02*
Y307799D01*
X40999Y306700D01*
X42465D01*
X182434Y298933D02*
Y297467D01*
X182800Y297101D01*
X183533D01*
X183900Y297467D01*
Y298933D01*
X183533Y299300D01*
X182800D01*
X183167Y298567D02*
X182434Y299300D01*
X182800D02*
X182434Y298933D01*
X181701Y297467D02*
X181334Y297101D01*
X180601D01*
X180235Y297467D01*
Y297834D01*
X180601Y298200D01*
X180968D01*
X180601D01*
X180235Y298567D01*
Y298933D01*
X180601Y299300D01*
X181334D01*
X181701Y298933D01*
X180966Y75766D02*
Y77233D01*
X180600Y77599D01*
X179867D01*
X179500Y77233D01*
Y75766D01*
X179867Y75400D01*
X180600D01*
X180233Y76133D02*
X180966Y75400D01*
X180600D02*
X180966Y75766D01*
X183166Y75400D02*
X181699D01*
X183166Y76866D01*
Y77233D01*
X182799Y77599D01*
X182066D01*
X181699Y77233D01*
X184066Y280067D02*
Y281533D01*
X183700Y281899D01*
X182967D01*
X182600Y281533D01*
Y280067D01*
X182967Y279700D01*
X183700D01*
X183333Y280433D02*
X184066Y279700D01*
X183700D02*
X184066Y280067D01*
X184799Y279700D02*
X185532D01*
X185166D01*
Y281899D01*
X184799Y281533D01*
X201500Y109600D02*
Y113099D01*
X203249D01*
X203833Y112516D01*
Y111349D01*
X203249Y110766D01*
X201500D01*
X204999Y113099D02*
X207331D01*
Y112516D01*
X204999Y110183D01*
Y109600D01*
X324100Y39900D02*
X321901D01*
Y41000D01*
X322267Y41366D01*
X323000D01*
X323367Y41000D01*
Y39900D01*
X324100Y42099D02*
Y42832D01*
Y42466D01*
X321901D01*
X322267Y42099D01*
X324100Y45398D02*
Y43932D01*
X322634Y45398D01*
X322267D01*
X321901Y45032D01*
Y44299D01*
X322267Y43932D01*
X125800Y321000D02*
X127999D01*
Y319900D01*
X127633Y319534D01*
X126900D01*
X126533Y319900D01*
Y321000D01*
X127999Y317335D02*
Y318801D01*
X126900D01*
X127266Y318068D01*
Y317701D01*
X126900Y317335D01*
X126167D01*
X125800Y317701D01*
Y318434D01*
X126167Y318801D01*
X208700Y25700D02*
Y27899D01*
X209800D01*
X210166Y27533D01*
Y26800D01*
X209800Y26433D01*
X208700D01*
X211999Y25700D02*
Y27899D01*
X210899Y26800D01*
X212366D01*
X84033Y302934D02*
X84399Y303300D01*
Y304033D01*
X84033Y304400D01*
X82566D01*
X82200Y304033D01*
Y303300D01*
X82566Y302934D01*
X84033Y302201D02*
X84399Y301834D01*
Y301101D01*
X84033Y300734D01*
X83666D01*
X83300Y301101D01*
Y301468D01*
Y301101D01*
X82933Y300734D01*
X82566D01*
X82200Y301101D01*
Y301834D01*
X82566Y302201D01*
X84033Y300001D02*
X84399Y299635D01*
Y298902D01*
X84033Y298535D01*
X82566D01*
X82200Y298902D01*
Y299635D01*
X82566Y300001D01*
X84033D01*
X302066Y133833D02*
X301700Y134199D01*
X300967D01*
X300600Y133833D01*
Y132367D01*
X300967Y132000D01*
X301700D01*
X302066Y132367D01*
X304265Y132000D02*
X302799D01*
X304265Y133466D01*
Y133833D01*
X303899Y134199D01*
X303166D01*
X302799Y133833D01*
X304999Y134199D02*
X306465D01*
Y133833D01*
X304999Y132367D01*
Y132000D01*
X50166Y276933D02*
X49800Y277299D01*
X49067D01*
X48700Y276933D01*
Y275467D01*
X49067Y275100D01*
X49800D01*
X50166Y275467D01*
X52365Y275100D02*
X50899D01*
X52365Y276566D01*
Y276933D01*
X51999Y277299D01*
X51266D01*
X50899Y276933D01*
X54565Y277299D02*
X53099D01*
Y276200D01*
X53832Y276566D01*
X54198D01*
X54565Y276200D01*
Y275467D01*
X54198Y275100D01*
X53465D01*
X53099Y275467D01*
X24867Y269866D02*
X24501Y269500D01*
Y268767D01*
X24867Y268400D01*
X26333D01*
X26700Y268767D01*
Y269500D01*
X26333Y269866D01*
X26700Y272065D02*
Y270599D01*
X25234Y272065D01*
X24867D01*
X24501Y271699D01*
Y270966D01*
X24867Y270599D01*
X26700Y273898D02*
X24501D01*
X25600Y272799D01*
Y274265D01*
X201234Y309867D02*
X201600Y309501D01*
X202333D01*
X202700Y309867D01*
Y311333D01*
X202333Y311700D01*
X201600D01*
X201234Y311333D01*
X200501Y311700D02*
X199768D01*
X200134D01*
Y309501D01*
X200501Y309867D01*
X198668Y311333D02*
X198301Y311700D01*
X197568D01*
X197202Y311333D01*
Y309867D01*
X197568Y309501D01*
X198301D01*
X198668Y309867D01*
Y310234D01*
X198301Y310600D01*
X197202D01*
X227434Y302567D02*
X227800Y302201D01*
X228533D01*
X228900Y302567D01*
Y304033D01*
X228533Y304400D01*
X227800D01*
X227434Y304033D01*
X226701Y304400D02*
X225968D01*
X226334D01*
Y302201D01*
X226701Y302567D01*
X224868D02*
X224501Y302201D01*
X223768D01*
X223402Y302567D01*
Y302934D01*
X223768Y303300D01*
X223402Y303667D01*
Y304033D01*
X223768Y304400D01*
X224501D01*
X224868Y304033D01*
Y303667D01*
X224501Y303300D01*
X224868Y302934D01*
Y302567D01*
X224501Y303300D02*
X223768D01*
X222669Y304767D02*
X221202D01*
X220469Y302201D02*
Y304400D01*
Y303300D01*
X219003D01*
Y302201D01*
Y304400D01*
X216804Y302567D02*
X217171Y302201D01*
X217903D01*
X218270Y302567D01*
Y302934D01*
X217903Y303300D01*
X217171D01*
X216804Y303667D01*
Y304033D01*
X217171Y304400D01*
X217903D01*
X218270Y304033D01*
X214971Y304400D02*
Y302201D01*
X216071Y303300D01*
X214605D01*
X216666Y291233D02*
X216300Y291599D01*
X215567D01*
X215200Y291233D01*
Y289767D01*
X215567Y289400D01*
X216300D01*
X216666Y289767D01*
X217399Y289400D02*
X218132D01*
X217766D01*
Y291599D01*
X217399Y291233D01*
X219232D02*
X219599Y291599D01*
X220332D01*
X220698Y291233D01*
Y290866D01*
X220332Y290500D01*
X220698Y290133D01*
Y289767D01*
X220332Y289400D01*
X219599D01*
X219232Y289767D01*
Y290133D01*
X219599Y290500D01*
X219232Y290866D01*
Y291233D01*
X219599Y290500D02*
X220332D01*
X221431Y289033D02*
X222898D01*
X223631Y291599D02*
Y289400D01*
Y290500D01*
X225097D01*
Y291599D01*
Y289400D01*
X227296Y291233D02*
X226929Y291599D01*
X226197D01*
X225830Y291233D01*
Y290866D01*
X226197Y290500D01*
X226929D01*
X227296Y290133D01*
Y289767D01*
X226929Y289400D01*
X226197D01*
X225830Y289767D01*
X229495Y289400D02*
X228029D01*
X229495Y290866D01*
Y291233D01*
X229129Y291599D01*
X228396D01*
X228029Y291233D01*
X105866Y55533D02*
X105500Y55899D01*
X104767D01*
X104400Y55533D01*
Y54066D01*
X104767Y53700D01*
X105500D01*
X105866Y54066D01*
X106599Y53700D02*
X107332D01*
X106966D01*
Y55899D01*
X106599Y55533D01*
X108432D02*
X108799Y55899D01*
X109532D01*
X109898Y55533D01*
Y55166D01*
X109532Y54800D01*
X109898Y54433D01*
Y54066D01*
X109532Y53700D01*
X108799D01*
X108432Y54066D01*
Y54433D01*
X108799Y54800D01*
X108432Y55166D01*
Y55533D01*
X108799Y54800D02*
X109532D01*
X110631Y53333D02*
X112098D01*
X112831Y55899D02*
Y53700D01*
Y54800D01*
X114297D01*
Y55899D01*
Y53700D01*
X116496Y55533D02*
X116130Y55899D01*
X115396D01*
X115030Y55533D01*
Y55166D01*
X115396Y54800D01*
X116130D01*
X116496Y54433D01*
Y54066D01*
X116130Y53700D01*
X115396D01*
X115030Y54066D01*
X117229Y53700D02*
X117962D01*
X117596D01*
Y55899D01*
X117229Y55533D01*
X16100Y265401D02*
Y267600D01*
Y266500D01*
X14634D01*
Y265401D01*
Y267600D01*
X12801D02*
Y265401D01*
X13901Y266500D01*
X12434D01*
X358700Y304601D02*
Y306800D01*
Y305700D01*
X357234D01*
Y304601D01*
Y306800D01*
X356501Y304967D02*
X356134Y304601D01*
X355401D01*
X355034Y304967D01*
Y305334D01*
X355401Y305700D01*
X355768D01*
X355401D01*
X355034Y306067D01*
Y306433D01*
X355401Y306800D01*
X356134D01*
X356501Y306433D01*
X225400Y87599D02*
Y85400D01*
Y86500D01*
X226866D01*
Y87599D01*
Y85400D01*
X229065D02*
X227599D01*
X229065Y86866D01*
Y87233D01*
X228699Y87599D01*
X227966D01*
X227599Y87233D01*
X55700Y64299D02*
Y62100D01*
Y63200D01*
X57166D01*
Y64299D01*
Y62100D01*
X57899D02*
X58632D01*
X58266D01*
Y64299D01*
X57899Y63933D01*
X234400Y157199D02*
Y156833D01*
X235133Y156100D01*
X235866Y156833D01*
Y157199D01*
X235133Y156100D02*
Y155000D01*
X236599D02*
X237332D01*
X236966D01*
Y157199D01*
X236599Y156833D01*
X162400Y189999D02*
Y188167D01*
X162767Y187800D01*
X163500D01*
X163866Y188167D01*
Y189999D01*
X164599Y187800D02*
X165332D01*
X164966D01*
Y189999D01*
X164599Y189633D01*
X244566Y155833D02*
X244200Y156199D01*
X243467D01*
X243100Y155833D01*
Y154367D01*
X243467Y154000D01*
X244200D01*
X244566Y154367D01*
X246765Y156199D02*
X246032Y155833D01*
X245299Y155100D01*
Y154367D01*
X245666Y154000D01*
X246399D01*
X246765Y154367D01*
Y154733D01*
X246399Y155100D01*
X245299D01*
X311633Y236934D02*
X311999Y237300D01*
Y238033D01*
X311633Y238400D01*
X310167D01*
X309800Y238033D01*
Y237300D01*
X310167Y236934D01*
Y236201D02*
X309800Y235834D01*
Y235101D01*
X310167Y234735D01*
X311633D01*
X311999Y235101D01*
Y235834D01*
X311633Y236201D01*
X311266D01*
X310900Y235834D01*
Y234735D01*
X288567Y242466D02*
X288201Y242100D01*
Y241367D01*
X288567Y241000D01*
X290033D01*
X290400Y241367D01*
Y242100D01*
X290033Y242466D01*
X290400Y243199D02*
Y243932D01*
Y243566D01*
X288201D01*
X288567Y243199D01*
Y245032D02*
X288201Y245399D01*
Y246132D01*
X288567Y246498D01*
X290033D01*
X290400Y246132D01*
Y245399D01*
X290033Y245032D01*
X288567D01*
X289667Y254366D02*
X289301Y254000D01*
Y253267D01*
X289667Y252900D01*
X291133D01*
X291500Y253267D01*
Y254000D01*
X291133Y254366D01*
X291500Y255099D02*
Y255832D01*
Y255466D01*
X289301D01*
X289667Y255099D01*
X291500Y256932D02*
Y257665D01*
Y257299D01*
X289301D01*
X289667Y256932D01*
X301334Y223367D02*
X301700Y223001D01*
X302433D01*
X302800Y223367D01*
Y224833D01*
X302433Y225200D01*
X301700D01*
X301334Y224833D01*
X300601Y225200D02*
X299868D01*
X300234D01*
Y223001D01*
X300601Y223367D01*
X297302Y225200D02*
X298768D01*
X297302Y223734D01*
Y223367D01*
X297668Y223001D01*
X298401D01*
X298768Y223367D01*
X312433Y223234D02*
X312799Y223600D01*
Y224333D01*
X312433Y224700D01*
X310967D01*
X310600Y224333D01*
Y223600D01*
X310967Y223234D01*
X310600Y222501D02*
Y221768D01*
Y222134D01*
X312799D01*
X312433Y222501D01*
Y220668D02*
X312799Y220301D01*
Y219568D01*
X312433Y219202D01*
X312066D01*
X311700Y219568D01*
Y219935D01*
Y219568D01*
X311333Y219202D01*
X310967D01*
X310600Y219568D01*
Y220301D01*
X310967Y220668D01*
X253734Y165767D02*
X254100Y165401D01*
X254833D01*
X255200Y165767D01*
Y167233D01*
X254833Y167600D01*
X254100D01*
X253734Y167233D01*
X253001Y167600D02*
X252268D01*
X252634D01*
Y165401D01*
X253001Y165767D01*
X250068Y167600D02*
Y165401D01*
X251168Y166500D01*
X249702D01*
X292167Y167666D02*
X291801Y167300D01*
Y166567D01*
X292167Y166200D01*
X293633D01*
X294000Y166567D01*
Y167300D01*
X293633Y167666D01*
X294000Y168399D02*
Y169132D01*
Y168766D01*
X291801D01*
X292167Y168399D01*
X291801Y171698D02*
Y170232D01*
X292900D01*
X292534Y170965D01*
Y171332D01*
X292900Y171698D01*
X293633D01*
X294000Y171332D01*
Y170599D01*
X293633Y170232D01*
X290766Y186433D02*
X290400Y186799D01*
X289667D01*
X289300Y186433D01*
Y184967D01*
X289667Y184600D01*
X290400D01*
X290766Y184967D01*
X291499Y184600D02*
X292232D01*
X291866D01*
Y186799D01*
X291499Y186433D01*
X294798Y186799D02*
X294065Y186433D01*
X293332Y185700D01*
Y184967D01*
X293699Y184600D01*
X294432D01*
X294798Y184967D01*
Y185333D01*
X294432Y185700D01*
X293332D01*
X230001Y230100D02*
X232200D01*
Y231566D01*
Y232299D02*
Y233032D01*
Y232666D01*
X230001D01*
X230367Y232299D01*
X287300Y159800D02*
Y157601D01*
X286200D01*
X285834Y157967D01*
Y158700D01*
X286200Y159067D01*
X287300D01*
X286567D02*
X285834Y159800D01*
X283634Y157601D02*
X284368Y157967D01*
X285101Y158700D01*
Y159433D01*
X284734Y159800D01*
X284001D01*
X283634Y159433D01*
Y159067D01*
X284001Y158700D01*
X285101D01*
X300100Y181500D02*
X302299D01*
Y180400D01*
X301933Y180034D01*
X301200D01*
X300833Y180400D01*
Y181500D01*
Y180767D02*
X300100Y180034D01*
X302299Y179301D02*
Y177834D01*
X301933D01*
X300467Y179301D01*
X300100D01*
X309800Y179900D02*
X311999D01*
Y178800D01*
X311633Y178434D01*
X310900D01*
X310533Y178800D01*
Y179900D01*
Y179167D02*
X309800Y178434D01*
X311633Y177701D02*
X311999Y177334D01*
Y176601D01*
X311633Y176234D01*
X311266D01*
X310900Y176601D01*
X310533Y176234D01*
X310167D01*
X309800Y176601D01*
Y177334D01*
X310167Y177701D01*
X310533D01*
X310900Y177334D01*
X311266Y177701D01*
X311633D01*
X310900Y177334D02*
Y176601D01*
X288400Y173700D02*
Y171501D01*
X287300D01*
X286934Y171867D01*
Y172600D01*
X287300Y172967D01*
X288400D01*
X287667D02*
X286934Y173700D01*
X286201Y173333D02*
X285834Y173700D01*
X285101D01*
X284735Y173333D01*
Y171867D01*
X285101Y171501D01*
X285834D01*
X286201Y171867D01*
Y172234D01*
X285834Y172600D01*
X284735D01*
X296300Y219699D02*
Y217867D01*
X296667Y217500D01*
X297400D01*
X297766Y217867D01*
Y219699D01*
X299966Y217500D02*
X298499D01*
X299966Y218966D01*
Y219333D01*
X299599Y219699D01*
X298866D01*
X298499Y219333D01*
X313200Y159200D02*
Y157001D01*
X312100D01*
X311734Y157367D01*
Y158100D01*
X312100Y158467D01*
X313200D01*
X312467D02*
X311734Y159200D01*
X309535D02*
X311001D01*
X309535Y157734D01*
Y157367D01*
X309901Y157001D01*
X310634D01*
X311001Y157367D01*
X303900Y163200D02*
Y161001D01*
X302800D01*
X302434Y161367D01*
Y162100D01*
X302800Y162467D01*
X303900D01*
X303167D02*
X302434Y163200D01*
X301701Y161367D02*
X301334Y161001D01*
X300601D01*
X300235Y161367D01*
Y161734D01*
X300601Y162100D01*
X300968D01*
X300601D01*
X300235Y162467D01*
Y162833D01*
X300601Y163200D01*
X301334D01*
X301701Y162833D01*
X144067Y165966D02*
X143701Y165600D01*
Y164867D01*
X144067Y164500D01*
X145533D01*
X145900Y164867D01*
Y165600D01*
X145533Y165966D01*
X145900Y166699D02*
Y167432D01*
Y167066D01*
X143701D01*
X144067Y166699D01*
X197033Y190034D02*
X197399Y190400D01*
Y191133D01*
X197033Y191500D01*
X195567D01*
X195200Y191133D01*
Y190400D01*
X195567Y190034D01*
X195200Y187835D02*
Y189301D01*
X196666Y187835D01*
X197033D01*
X197399Y188201D01*
Y188934D01*
X197033Y189301D01*
X142967Y121766D02*
X142601Y121400D01*
Y120667D01*
X142967Y120300D01*
X144433D01*
X144800Y120667D01*
Y121400D01*
X144433Y121766D01*
X142967Y122499D02*
X142601Y122866D01*
Y123599D01*
X142967Y123966D01*
X143334D01*
X143700Y123599D01*
Y123232D01*
Y123599D01*
X144067Y123966D01*
X144433D01*
X144800Y123599D01*
Y122866D01*
X144433Y122499D01*
X224634Y128267D02*
X225000Y127901D01*
X225733D01*
X226100Y128267D01*
Y129733D01*
X225733Y130100D01*
X225000D01*
X224634Y129733D01*
X222801Y130100D02*
Y127901D01*
X223901Y129000D01*
X222434D01*
X184534Y108567D02*
X184900Y108201D01*
X185633D01*
X186000Y108567D01*
Y110033D01*
X185633Y110400D01*
X184900D01*
X184534Y110033D01*
X182334Y108201D02*
X183801D01*
Y109300D01*
X183068Y108934D01*
X182701D01*
X182334Y109300D01*
Y110033D01*
X182701Y110400D01*
X183434D01*
X183801Y110033D01*
X147966Y138233D02*
X147600Y138599D01*
X146867D01*
X146500Y138233D01*
Y136767D01*
X146867Y136400D01*
X147600D01*
X147966Y136767D01*
X148699Y138599D02*
X150165D01*
Y138233D01*
X148699Y136767D01*
Y136400D01*
X239900Y184500D02*
X237701D01*
Y185600D01*
X238067Y185966D01*
X238800D01*
X239167Y185600D01*
Y184500D01*
Y185233D02*
X239900Y185966D01*
Y187799D02*
X237701D01*
X238800Y186699D01*
Y188165D01*
X257167Y97366D02*
X256801Y97000D01*
Y96267D01*
X257167Y95900D01*
X258633D01*
X259000Y96267D01*
Y97000D01*
X258633Y97366D01*
X257167Y98099D02*
X256801Y98466D01*
Y99199D01*
X257167Y99566D01*
X257534D01*
X257900Y99199D01*
Y98832D01*
Y99199D01*
X258267Y99566D01*
X258633D01*
X259000Y99199D01*
Y98466D01*
X258633Y98099D01*
X256801Y101765D02*
X257167Y101032D01*
X257900Y100299D01*
X258633D01*
X259000Y100665D01*
Y101398D01*
X258633Y101765D01*
X258267D01*
X257900Y101398D01*
Y100299D01*
X247167Y140966D02*
X246801Y140600D01*
Y139867D01*
X247167Y139500D01*
X248633D01*
X249000Y139867D01*
Y140600D01*
X248633Y140966D01*
X247167Y141699D02*
X246801Y142066D01*
Y142799D01*
X247167Y143166D01*
X247534D01*
X247900Y142799D01*
Y142432D01*
Y142799D01*
X248267Y143166D01*
X248633D01*
X249000Y142799D01*
Y142066D01*
X248633Y141699D01*
X246801Y143899D02*
Y145365D01*
X247167D01*
X248633Y143899D01*
X249000D01*
X51967Y280266D02*
X51601Y279900D01*
Y279167D01*
X51967Y278800D01*
X53434D01*
X53800Y279167D01*
Y279900D01*
X53434Y280266D01*
X51967Y280999D02*
X51601Y281366D01*
Y282099D01*
X51967Y282466D01*
X52334D01*
X52700Y282099D01*
Y281732D01*
Y282099D01*
X53067Y282466D01*
X53434D01*
X53800Y282099D01*
Y281366D01*
X53434Y280999D01*
Y283199D02*
X53800Y283565D01*
Y284298D01*
X53434Y284665D01*
X51967D01*
X51601Y284298D01*
Y283565D01*
X51967Y283199D01*
X52334D01*
X52700Y283565D01*
Y284665D01*
X94634Y269167D02*
X95000Y268801D01*
X95733D01*
X96100Y269167D01*
Y270633D01*
X95733Y271000D01*
X95000D01*
X94634Y270633D01*
X92801Y271000D02*
Y268801D01*
X93901Y269900D01*
X92435D01*
X91701Y269167D02*
X91335Y268801D01*
X90602D01*
X90235Y269167D01*
Y270633D01*
X90602Y271000D01*
X91335D01*
X91701Y270633D01*
Y269167D01*
X285266Y103533D02*
X284900Y103899D01*
X284167D01*
X283800Y103533D01*
Y102067D01*
X284167Y101700D01*
X284900D01*
X285266Y102067D01*
X285999Y103533D02*
X286366Y103899D01*
X287099D01*
X287466Y103533D01*
Y103166D01*
X287099Y102800D01*
X286732D01*
X287099D01*
X287466Y102433D01*
Y102067D01*
X287099Y101700D01*
X286366D01*
X285999Y102067D01*
X288199Y103533D02*
X288565Y103899D01*
X289298D01*
X289665Y103533D01*
Y103166D01*
X289298Y102800D01*
X289665Y102433D01*
Y102067D01*
X289298Y101700D01*
X288565D01*
X288199Y102067D01*
Y102433D01*
X288565Y102800D01*
X288199Y103166D01*
Y103533D01*
X288565Y102800D02*
X289298D01*
X319933Y106134D02*
X320299Y106500D01*
Y107233D01*
X319933Y107600D01*
X318467D01*
X318100Y107233D01*
Y106500D01*
X318467Y106134D01*
X318100Y104301D02*
X320299D01*
X319200Y105401D01*
Y103935D01*
X318100Y101735D02*
Y103201D01*
X319566Y101735D01*
X319933D01*
X320299Y102102D01*
Y102835D01*
X319933Y103201D01*
X320233Y120534D02*
X320599Y120900D01*
Y121633D01*
X320233Y122000D01*
X318767D01*
X318400Y121633D01*
Y120900D01*
X318767Y120534D01*
X318400Y118701D02*
X320599D01*
X319500Y119801D01*
Y118334D01*
X320233Y117601D02*
X320599Y117235D01*
Y116502D01*
X320233Y116135D01*
X319866D01*
X319500Y116502D01*
Y116868D01*
Y116502D01*
X319133Y116135D01*
X318767D01*
X318400Y116502D01*
Y117235D01*
X318767Y117601D01*
X270767Y84866D02*
X270401Y84500D01*
Y83767D01*
X270767Y83400D01*
X272233D01*
X272600Y83767D01*
Y84500D01*
X272233Y84866D01*
X272600Y86699D02*
X270401D01*
X271500Y85599D01*
Y87066D01*
X272600Y87799D02*
Y88532D01*
Y88165D01*
X270401D01*
X270767Y87799D01*
X256367Y119066D02*
X256001Y118700D01*
Y117967D01*
X256367Y117600D01*
X257833D01*
X258200Y117967D01*
Y118700D01*
X257833Y119066D01*
X258200Y120899D02*
X256001D01*
X257100Y119799D01*
Y121265D01*
X256001Y123465D02*
Y121999D01*
X257100D01*
X256734Y122732D01*
Y123098D01*
X257100Y123465D01*
X257833D01*
X258200Y123098D01*
Y122365D01*
X257833Y121999D01*
X305467Y137066D02*
X305101Y136700D01*
Y135967D01*
X305467Y135600D01*
X306933D01*
X307300Y135967D01*
Y136700D01*
X306933Y137066D01*
X307300Y138899D02*
X305101D01*
X306200Y137799D01*
Y139266D01*
X305101Y141465D02*
X305467Y140732D01*
X306200Y139999D01*
X306933D01*
X307300Y140365D01*
Y141098D01*
X306933Y141465D01*
X306567D01*
X306200Y141098D01*
Y139999D01*
X300767Y61466D02*
X300401Y61100D01*
Y60366D01*
X300767Y60000D01*
X302233D01*
X302600Y60366D01*
Y61100D01*
X302233Y61466D01*
X302600Y63299D02*
X300401D01*
X301500Y62199D01*
Y63665D01*
X302600Y65498D02*
X300401D01*
X301500Y64399D01*
Y65865D01*
X300867Y54566D02*
X300501Y54200D01*
Y53466D01*
X300867Y53100D01*
X302333D01*
X302700Y53466D01*
Y54200D01*
X302333Y54566D01*
X302700Y56399D02*
X300501D01*
X301600Y55299D01*
Y56766D01*
X300501Y57499D02*
Y58965D01*
X300867D01*
X302333Y57499D01*
X302700D01*
X291966Y59233D02*
X291600Y59599D01*
X290867D01*
X290500Y59233D01*
Y57766D01*
X290867Y57400D01*
X291600D01*
X291966Y57766D01*
X293799Y57400D02*
Y59599D01*
X292699Y58500D01*
X294165D01*
X294899Y59233D02*
X295265Y59599D01*
X295998D01*
X296365Y59233D01*
Y58866D01*
X295998Y58500D01*
X296365Y58133D01*
Y57766D01*
X295998Y57400D01*
X295265D01*
X294899Y57766D01*
Y58133D01*
X295265Y58500D01*
X294899Y58866D01*
Y59233D01*
X295265Y58500D02*
X295998D01*
X232100Y97701D02*
Y99900D01*
X231000D01*
X230634Y99533D01*
Y98067D01*
X231000Y97701D01*
X232100D01*
X229901Y99900D02*
X229168D01*
X229534D01*
Y97701D01*
X229901Y98067D01*
X219300Y186401D02*
Y188600D01*
X218200D01*
X217834Y188233D01*
Y186767D01*
X218200Y186401D01*
X219300D01*
X215634Y188600D02*
X217101D01*
X215634Y187134D01*
Y186767D01*
X216001Y186401D01*
X216734D01*
X217101Y186767D01*
X213299Y215100D02*
X211100D01*
Y214000D01*
X211467Y213634D01*
X212933D01*
X213299Y214000D01*
Y215100D01*
X212933Y212901D02*
X213299Y212534D01*
Y211801D01*
X212933Y211435D01*
X212566D01*
X212200Y211801D01*
Y212168D01*
Y211801D01*
X211833Y211435D01*
X211467D01*
X211100Y211801D01*
Y212534D01*
X211467Y212901D01*
X181201Y212800D02*
X183400D01*
Y213900D01*
X183033Y214266D01*
X181567D01*
X181201Y213900D01*
Y212800D01*
X183400Y216099D02*
X181201D01*
X182300Y214999D01*
Y216465D01*
X192200Y224399D02*
Y222200D01*
X193300D01*
X193666Y222567D01*
Y224033D01*
X193300Y224399D01*
X192200D01*
X195865D02*
X194399D01*
Y223300D01*
X195132Y223666D01*
X195499D01*
X195865Y223300D01*
Y222567D01*
X195499Y222200D01*
X194766D01*
X194399Y222567D01*
X199800Y223599D02*
Y221400D01*
X200900D01*
X201266Y221767D01*
Y223233D01*
X200900Y223599D01*
X199800D01*
X203466D02*
X202732Y223233D01*
X201999Y222500D01*
Y221767D01*
X202366Y221400D01*
X203099D01*
X203466Y221767D01*
Y222133D01*
X203099Y222500D01*
X201999D01*
X248333Y128166D02*
X246867D01*
X246501Y127800D01*
Y127067D01*
X246867Y126700D01*
X248333D01*
X248700Y127067D01*
Y127800D01*
X247967Y127433D02*
X248700Y128166D01*
Y127800D02*
X248333Y128166D01*
X246501Y128899D02*
Y130366D01*
X246867D01*
X248333Y128899D01*
X248700D01*
X346700Y221700D02*
Y223899D01*
X347800D01*
X348166Y223533D01*
Y222800D01*
X347800Y222433D01*
X346700D01*
X348899Y223533D02*
X349266Y223899D01*
X349999D01*
X350365Y223533D01*
Y223166D01*
X349999Y222800D01*
X349632D01*
X349999D01*
X350365Y222433D01*
Y222067D01*
X349999Y221700D01*
X349266D01*
X348899Y222067D01*
X29100Y115900D02*
X31299D01*
Y114800D01*
X30933Y114434D01*
X30200D01*
X29833Y114800D01*
Y115900D01*
X29100Y112234D02*
Y113701D01*
X30566Y112234D01*
X30933D01*
X31299Y112601D01*
Y113334D01*
X30933Y113701D01*
X334700Y304199D02*
Y302000D01*
X335800D01*
X336166Y302367D01*
Y302733D01*
X335800Y303100D01*
X334700D01*
X335800D01*
X336166Y303466D01*
Y303833D01*
X335800Y304199D01*
X334700D01*
X336899Y302000D02*
X337632D01*
X337266D01*
Y304199D01*
X336899Y303833D01*
X275234Y64567D02*
X275600Y64201D01*
X276333D01*
X276700Y64567D01*
Y66034D01*
X276333Y66400D01*
X275600D01*
X275234Y66034D01*
X273035Y66400D02*
X274501D01*
X273035Y64934D01*
Y64567D01*
X273401Y64201D01*
X274134D01*
X274501Y64567D01*
X270835Y64201D02*
X271568Y64567D01*
X272301Y65300D01*
Y66034D01*
X271935Y66400D01*
X271202D01*
X270835Y66034D01*
Y65667D01*
X271202Y65300D01*
X272301D01*
X147133Y155534D02*
X147499Y155900D01*
Y156633D01*
X147133Y157000D01*
X145667D01*
X145300Y156633D01*
Y155900D01*
X145667Y155534D01*
X147133Y154801D02*
X147499Y154434D01*
Y153701D01*
X147133Y153334D01*
X146766D01*
X146400Y153701D01*
Y154068D01*
Y153701D01*
X146033Y153334D01*
X145667D01*
X145300Y153701D01*
Y154434D01*
X145667Y154801D01*
X145300Y152601D02*
Y151868D01*
Y152235D01*
X147499D01*
X147133Y152601D01*
X139766Y178833D02*
X139400Y179199D01*
X138667D01*
X138300Y178833D01*
Y177367D01*
X138667Y177000D01*
X139400D01*
X139766Y177367D01*
X140499Y178833D02*
X140866Y179199D01*
X141599D01*
X141965Y178833D01*
Y178466D01*
X141599Y178100D01*
X141232D01*
X141599D01*
X141965Y177733D01*
Y177367D01*
X141599Y177000D01*
X140866D01*
X140499Y177367D01*
X144165Y179199D02*
X142699D01*
Y178100D01*
X143432Y178466D01*
X143798D01*
X144165Y178100D01*
Y177367D01*
X143798Y177000D01*
X143065D01*
X142699Y177367D01*
X291933Y266634D02*
X292299Y267000D01*
Y267733D01*
X291933Y268100D01*
X290467D01*
X290100Y267733D01*
Y267000D01*
X290467Y266634D01*
X290100Y264801D02*
X292299D01*
X291200Y265901D01*
Y264435D01*
X290467Y263701D02*
X290100Y263335D01*
Y262602D01*
X290467Y262235D01*
X291933D01*
X292299Y262602D01*
Y263335D01*
X291933Y263701D01*
X291566D01*
X291200Y263335D01*
Y262235D01*
X284400Y278599D02*
Y276400D01*
X285500D01*
X285866Y276767D01*
Y278233D01*
X285500Y278599D01*
X284400D01*
X286599Y276400D02*
X287332D01*
X286966D01*
Y278599D01*
X286599Y278233D01*
X289898Y278599D02*
X288432D01*
Y277500D01*
X289165Y277866D01*
X289532D01*
X289898Y277500D01*
Y276767D01*
X289532Y276400D01*
X288799D01*
X288432Y276767D01*
X276967Y258534D02*
X278433D01*
X278799Y258900D01*
Y259633D01*
X278433Y260000D01*
X276967D01*
X276600Y259633D01*
Y258900D01*
X277333Y259267D02*
X276600Y258534D01*
Y258900D02*
X276967Y258534D01*
Y257801D02*
X276600Y257434D01*
Y256701D01*
X276967Y256334D01*
X278433D01*
X278799Y256701D01*
Y257434D01*
X278433Y257801D01*
X278066D01*
X277700Y257434D01*
Y256334D01*
X282600Y78100D02*
X284799D01*
Y77000D01*
X284433Y76634D01*
X283700D01*
X283333Y77000D01*
Y78100D01*
Y77367D02*
X282600Y76634D01*
X284433Y75901D02*
X284799Y75534D01*
Y74801D01*
X284433Y74435D01*
X284066D01*
X283700Y74801D01*
Y75168D01*
Y74801D01*
X283333Y74435D01*
X282967D01*
X282600Y74801D01*
Y75534D01*
X282967Y75901D01*
X282600Y73701D02*
Y72968D01*
Y73335D01*
X284799D01*
X284433Y73701D01*
X139200Y143700D02*
Y141501D01*
X138100D01*
X137734Y141867D01*
Y142600D01*
X138100Y142967D01*
X139200D01*
X138467D02*
X137734Y143700D01*
X135901D02*
Y141501D01*
X137001Y142600D01*
X135535D01*
X133335Y141501D02*
X134801D01*
Y142600D01*
X134068Y142234D01*
X133702D01*
X133335Y142600D01*
Y143333D01*
X133702Y143700D01*
X134435D01*
X134801Y143333D01*
X135100Y150500D02*
Y148301D01*
X134000D01*
X133634Y148667D01*
Y149400D01*
X134000Y149767D01*
X135100D01*
X134367D02*
X133634Y150500D01*
X131801D02*
Y148301D01*
X132901Y149400D01*
X131435D01*
X130701Y150133D02*
X130335Y150500D01*
X129602D01*
X129235Y150133D01*
Y148667D01*
X129602Y148301D01*
X130335D01*
X130701Y148667D01*
Y149034D01*
X130335Y149400D01*
X129235D01*
X132800Y181300D02*
Y183499D01*
X133900D01*
X134266Y183133D01*
Y182400D01*
X133900Y182033D01*
X132800D01*
X133533D02*
X134266Y181300D01*
X136466Y183499D02*
X134999D01*
Y182400D01*
X135732Y182766D01*
X136099D01*
X136466Y182400D01*
Y181667D01*
X136099Y181300D01*
X135366D01*
X134999Y181667D01*
X138298Y181300D02*
Y183499D01*
X137199Y182400D01*
X138665D01*
X127100Y174000D02*
Y176199D01*
X128200D01*
X128566Y175833D01*
Y175100D01*
X128200Y174733D01*
X127100D01*
X127833D02*
X128566Y174000D01*
X130765Y176199D02*
X129299D01*
Y175100D01*
X130032Y175466D01*
X130399D01*
X130765Y175100D01*
Y174367D01*
X130399Y174000D01*
X129666D01*
X129299Y174367D01*
X132965Y176199D02*
X131499D01*
Y175100D01*
X132232Y175466D01*
X132598D01*
X132965Y175100D01*
Y174367D01*
X132598Y174000D01*
X131865D01*
X131499Y174367D01*
X254200Y284800D02*
Y286999D01*
X255300D01*
X255666Y286633D01*
Y285900D01*
X255300Y285533D01*
X254200D01*
X254933D02*
X255666Y284800D01*
X256399Y286633D02*
X256766Y286999D01*
X257499D01*
X257866Y286633D01*
Y286266D01*
X257499Y285900D01*
X257866Y285533D01*
Y285167D01*
X257499Y284800D01*
X256766D01*
X256399Y285167D01*
Y285533D01*
X256766Y285900D01*
X256399Y286266D01*
Y286633D01*
X256766Y285900D02*
X257499D01*
X260065Y284800D02*
X258599D01*
X260065Y286266D01*
Y286633D01*
X259698Y286999D01*
X258965D01*
X258599Y286633D01*
X254200Y281700D02*
Y283899D01*
X255300D01*
X255666Y283533D01*
Y282800D01*
X255300Y282433D01*
X254200D01*
X254933D02*
X255666Y281700D01*
X256399Y283533D02*
X256766Y283899D01*
X257499D01*
X257866Y283533D01*
Y283166D01*
X257499Y282800D01*
X257866Y282433D01*
Y282067D01*
X257499Y281700D01*
X256766D01*
X256399Y282067D01*
Y282433D01*
X256766Y282800D01*
X256399Y283166D01*
Y283533D01*
X256766Y282800D02*
X257499D01*
X260065Y283899D02*
X258599D01*
Y282800D01*
X259332Y283166D01*
X259698D01*
X260065Y282800D01*
Y282067D01*
X259698Y281700D01*
X258965D01*
X258599Y282067D01*
X254200Y290700D02*
Y292899D01*
X255300D01*
X255666Y292533D01*
Y291800D01*
X255300Y291433D01*
X254200D01*
X254933D02*
X255666Y290700D01*
X256399Y292533D02*
X256766Y292899D01*
X257499D01*
X257866Y292533D01*
Y292166D01*
X257499Y291800D01*
X257866Y291433D01*
Y291067D01*
X257499Y290700D01*
X256766D01*
X256399Y291067D01*
Y291433D01*
X256766Y291800D01*
X256399Y292166D01*
Y292533D01*
X256766Y291800D02*
X257499D01*
X258599Y292533D02*
X258965Y292899D01*
X259698D01*
X260065Y292533D01*
Y292166D01*
X259698Y291800D01*
X260065Y291433D01*
Y291067D01*
X259698Y290700D01*
X258965D01*
X258599Y291067D01*
Y291433D01*
X258965Y291800D01*
X258599Y292166D01*
Y292533D01*
X258965Y291800D02*
X259698D01*
X254200Y287800D02*
Y289999D01*
X255300D01*
X255666Y289633D01*
Y288900D01*
X255300Y288533D01*
X254200D01*
X254933D02*
X255666Y287800D01*
X256399Y288167D02*
X256766Y287800D01*
X257499D01*
X257866Y288167D01*
Y289633D01*
X257499Y289999D01*
X256766D01*
X256399Y289633D01*
Y289266D01*
X256766Y288900D01*
X257866D01*
X260065Y287800D02*
X258599D01*
X260065Y289266D01*
Y289633D01*
X259698Y289999D01*
X258965D01*
X258599Y289633D01*
X268266Y193633D02*
X267900Y193999D01*
X267167D01*
X266800Y193633D01*
Y192167D01*
X267167Y191800D01*
X267900D01*
X268266Y192167D01*
X270465Y193999D02*
X268999D01*
Y192900D01*
X269732Y193266D01*
X270099D01*
X270465Y192900D01*
Y192167D01*
X270099Y191800D01*
X269366D01*
X268999Y192167D01*
X271199Y193999D02*
X272665D01*
Y193633D01*
X271199Y192167D01*
Y191800D01*
X269634Y159467D02*
X270000Y159101D01*
X270733D01*
X271100Y159467D01*
Y160933D01*
X270733Y161300D01*
X270000D01*
X269634Y160933D01*
X267435Y159101D02*
X268901D01*
Y160200D01*
X268168Y159834D01*
X267801D01*
X267435Y160200D01*
Y160933D01*
X267801Y161300D01*
X268534D01*
X268901Y160933D01*
X266701Y159467D02*
X266335Y159101D01*
X265602D01*
X265235Y159467D01*
Y159834D01*
X265602Y160200D01*
X265235Y160567D01*
Y160933D01*
X265602Y161300D01*
X266335D01*
X266701Y160933D01*
Y160567D01*
X266335Y160200D01*
X266701Y159834D01*
Y159467D01*
X266335Y160200D02*
X265602D01*
X284000Y38800D02*
Y40999D01*
X285100D01*
X285466Y40633D01*
Y39900D01*
X285100Y39533D01*
X284000D01*
X286199Y38800D02*
X286932D01*
X286566D01*
Y40999D01*
X286199Y40633D01*
X288032D02*
X288399Y40999D01*
X289132D01*
X289498Y40633D01*
Y40266D01*
X289132Y39900D01*
X288765D01*
X289132D01*
X289498Y39533D01*
Y39167D01*
X289132Y38800D01*
X288399D01*
X288032Y39167D01*
X81200Y40700D02*
X79001D01*
Y41800D01*
X79367Y42166D01*
X80100D01*
X80467Y41800D01*
Y40700D01*
Y41433D02*
X81200Y42166D01*
Y42899D02*
Y43632D01*
Y43266D01*
X79001D01*
X79367Y42899D01*
Y44732D02*
X79001Y45099D01*
Y45832D01*
X79367Y46198D01*
X80834D01*
X81200Y45832D01*
Y45099D01*
X80834Y44732D01*
X79367D01*
X81200Y48031D02*
X79001D01*
X80100Y46931D01*
Y48397D01*
X273900Y295600D02*
Y293401D01*
X272800D01*
X272434Y293767D01*
Y294500D01*
X272800Y294867D01*
X273900D01*
X271701Y295233D02*
X271334Y295600D01*
X270601D01*
X270234Y295233D01*
Y293767D01*
X270601Y293401D01*
X271334D01*
X271701Y293767D01*
Y294134D01*
X271334Y294500D01*
X270234D01*
X320900Y74100D02*
Y76299D01*
X322000D01*
X322366Y75933D01*
Y75200D01*
X322000Y74833D01*
X320900D01*
X323099Y74100D02*
X323832D01*
X323466D01*
Y76299D01*
X323099Y75933D01*
X324932Y74100D02*
X325665D01*
X325299D01*
Y76299D01*
X324932Y75933D01*
X285300Y295700D02*
Y293501D01*
X284200D01*
X283834Y293867D01*
Y294600D01*
X284200Y294967D01*
X285300D01*
X283101Y295700D02*
X282368D01*
X282734D01*
Y293501D01*
X283101Y293867D01*
X280168Y295700D02*
Y293501D01*
X281268Y294600D01*
X279802D01*
X48133Y50334D02*
X48499Y50700D01*
Y51433D01*
X48133Y51800D01*
X46667D01*
X46300Y51433D01*
Y50700D01*
X46667Y50334D01*
X48499Y48134D02*
Y49601D01*
X47400D01*
X47766Y48868D01*
Y48501D01*
X47400Y48134D01*
X46667D01*
X46300Y48501D01*
Y49234D01*
X46667Y49601D01*
Y47401D02*
X46300Y47035D01*
Y46302D01*
X46667Y45935D01*
X48133D01*
X48499Y46302D01*
Y47035D01*
X48133Y47401D01*
X47766D01*
X47400Y47035D01*
Y45935D01*
X138001Y62533D02*
Y60200D01*
X139751D01*
Y61366D01*
Y60200D01*
X141500D01*
Y63699D02*
X139167D01*
X138001Y64865D01*
X139167Y66031D01*
X141500D01*
X139751D01*
Y63699D01*
X141500Y67198D02*
X138001D01*
X141500Y69530D01*
X138001D01*
X8600Y30200D02*
Y28001D01*
X7500D01*
X7134Y28367D01*
Y29100D01*
X7500Y29467D01*
X8600D01*
X4935Y28001D02*
X5668Y28367D01*
X6401Y29100D01*
Y29833D01*
X6034Y30200D01*
X5301D01*
X4935Y29833D01*
Y29467D01*
X5301Y29100D01*
X6401D01*
X42600Y40600D02*
Y38401D01*
X41500D01*
X41134Y38767D01*
Y39500D01*
X41500Y39867D01*
X42600D01*
X41867D02*
X41134Y40600D01*
X40401Y38767D02*
X40034Y38401D01*
X39301D01*
X38934Y38767D01*
Y39134D01*
X39301Y39500D01*
X38934Y39867D01*
Y40233D01*
X39301Y40600D01*
X40034D01*
X40401Y40233D01*
Y39867D01*
X40034Y39500D01*
X40401Y39134D01*
Y38767D01*
X40034Y39500D02*
X39301D01*
X38201Y40600D02*
X37468D01*
X37835D01*
Y38401D01*
X38201Y38767D01*
X37800Y57700D02*
Y59899D01*
X38900D01*
X39266Y59533D01*
Y58800D01*
X38900Y58433D01*
X37800D01*
X38533D02*
X39266Y57700D01*
X39999Y59533D02*
X40366Y59899D01*
X41099D01*
X41465Y59533D01*
Y59166D01*
X41099Y58800D01*
X41465Y58433D01*
Y58066D01*
X41099Y57700D01*
X40366D01*
X39999Y58066D01*
Y58433D01*
X40366Y58800D01*
X39999Y59166D01*
Y59533D01*
X40366Y58800D02*
X41099D01*
X42199Y59533D02*
X42565Y59899D01*
X43298D01*
X43665Y59533D01*
Y59166D01*
X43298Y58800D01*
X42932D01*
X43298D01*
X43665Y58433D01*
Y58066D01*
X43298Y57700D01*
X42565D01*
X42199Y58066D01*
X148566Y112133D02*
X148200Y112499D01*
X147467D01*
X147100Y112133D01*
Y111766D01*
X147467Y111400D01*
X148200D01*
X148566Y111033D01*
Y110667D01*
X148200Y110300D01*
X147467D01*
X147100Y110667D01*
X149299Y110300D02*
X150032D01*
X149666D01*
Y112499D01*
X149299Y112133D01*
X280000Y11000D02*
Y8801D01*
X278900D01*
X278534Y9167D01*
Y9900D01*
X278900Y10267D01*
X280000D01*
X279267D02*
X278534Y11000D01*
X277801Y9167D02*
X277434Y8801D01*
X276701D01*
X276335Y9167D01*
Y9534D01*
X276701Y9900D01*
X276335Y10267D01*
Y10633D01*
X276701Y11000D01*
X277434D01*
X277801Y10633D01*
Y10267D01*
X277434Y9900D01*
X277801Y9534D01*
Y9167D01*
X277434Y9900D02*
X276701D01*
X274135Y8801D02*
X274868Y9167D01*
X275601Y9900D01*
Y10633D01*
X275235Y11000D01*
X274502D01*
X274135Y10633D01*
Y10267D01*
X274502Y9900D01*
X275601D01*
X261866Y48267D02*
Y49733D01*
X261500Y50099D01*
X260767D01*
X260400Y49733D01*
Y48267D01*
X260767Y47900D01*
X261500D01*
X261133Y48633D02*
X261866Y47900D01*
X261500D02*
X261866Y48267D01*
X262599Y47900D02*
X263332D01*
X262966D01*
Y50099D01*
X262599Y49733D01*
X264432Y47900D02*
X265165D01*
X264799D01*
Y50099D01*
X264432Y49733D01*
X234101Y111500D02*
X235933D01*
X236300Y111867D01*
Y112600D01*
X235933Y112966D01*
X234101D01*
X236300Y113699D02*
Y114432D01*
Y114066D01*
X234101D01*
X234467Y113699D01*
Y115532D02*
X234101Y115899D01*
Y116632D01*
X234467Y116998D01*
X235933D01*
X236300Y116632D01*
Y115899D01*
X235933Y115532D01*
X234467D01*
X235767Y123866D02*
X235401Y123500D01*
Y122767D01*
X235767Y122400D01*
X237233D01*
X237600Y122767D01*
Y123500D01*
X237233Y123866D01*
X235401Y126066D02*
X235767Y125332D01*
X236500Y124599D01*
X237233D01*
X237600Y124966D01*
Y125699D01*
X237233Y126066D01*
X236867D01*
X236500Y125699D01*
Y124599D01*
X237600Y128265D02*
Y126799D01*
X236134Y128265D01*
X235767D01*
X235401Y127898D01*
Y127165D01*
X235767Y126799D01*
X235700Y252900D02*
Y255099D01*
X236800D01*
X237166Y254733D01*
Y254000D01*
X236800Y253633D01*
X235700D01*
X236433D02*
X237166Y252900D01*
X237899Y253267D02*
X238266Y252900D01*
X238999D01*
X239366Y253267D01*
Y254733D01*
X238999Y255099D01*
X238266D01*
X237899Y254733D01*
Y254366D01*
X238266Y254000D01*
X239366D01*
X240099Y252900D02*
X240832D01*
X240465D01*
Y255099D01*
X240099Y254733D01*
X237100Y242500D02*
X234901D01*
Y243600D01*
X235267Y243966D01*
X236000D01*
X236367Y243600D01*
Y242500D01*
Y243233D02*
X237100Y243966D01*
X236733Y244699D02*
X237100Y245066D01*
Y245799D01*
X236733Y246165D01*
X235267D01*
X234901Y245799D01*
Y245066D01*
X235267Y244699D01*
X235634D01*
X236000Y245066D01*
Y246165D01*
X235267Y246899D02*
X234901Y247265D01*
Y247998D01*
X235267Y248365D01*
X235634D01*
X236000Y247998D01*
Y247632D01*
Y247998D01*
X236367Y248365D01*
X236733D01*
X237100Y247998D01*
Y247265D01*
X236733Y246899D01*
X240500Y259900D02*
X238301D01*
Y261000D01*
X238667Y261366D01*
X239400D01*
X239767Y261000D01*
Y259900D01*
Y260633D02*
X240500Y261366D01*
X240133Y262099D02*
X240500Y262466D01*
Y263199D01*
X240133Y263565D01*
X238667D01*
X238301Y263199D01*
Y262466D01*
X238667Y262099D01*
X239034D01*
X239400Y262466D01*
Y263565D01*
X240500Y265398D02*
X238301D01*
X239400Y264299D01*
Y265765D01*
X237700Y259700D02*
X235501D01*
Y260800D01*
X235867Y261166D01*
X236600D01*
X236967Y260800D01*
Y259700D01*
Y260433D02*
X237700Y261166D01*
X237333Y261899D02*
X237700Y262266D01*
Y262999D01*
X237333Y263366D01*
X235867D01*
X235501Y262999D01*
Y262266D01*
X235867Y261899D01*
X236234D01*
X236600Y262266D01*
Y263366D01*
X235501Y265565D02*
Y264099D01*
X236600D01*
X236234Y264832D01*
Y265198D01*
X236600Y265565D01*
X237333D01*
X237700Y265198D01*
Y264465D01*
X237333Y264099D01*
X266500Y53100D02*
Y55299D01*
X267600D01*
X267966Y54933D01*
Y54200D01*
X267600Y53833D01*
X266500D01*
X267233D02*
X267966Y53100D01*
X268699Y53466D02*
X269066Y53100D01*
X269799D01*
X270165Y53466D01*
Y54933D01*
X269799Y55299D01*
X269066D01*
X268699Y54933D01*
Y54566D01*
X269066Y54200D01*
X270165D01*
X272365Y55299D02*
X271632Y54933D01*
X270899Y54200D01*
Y53466D01*
X271265Y53100D01*
X271998D01*
X272365Y53466D01*
Y53833D01*
X271998Y54200D01*
X270899D01*
X139767Y116934D02*
X141233D01*
X141599Y117300D01*
Y118033D01*
X141233Y118400D01*
X139767D01*
X139400Y118033D01*
Y117300D01*
X140133Y117667D02*
X139400Y116934D01*
Y117300D02*
X139767Y116934D01*
X139400Y116201D02*
Y115468D01*
Y115834D01*
X141599D01*
X141233Y116201D01*
X139400Y112902D02*
Y114368D01*
X140866Y112902D01*
X141233D01*
X141599Y113268D01*
Y114001D01*
X141233Y114368D01*
X88366Y298533D02*
X88000Y298899D01*
X87266D01*
X86900Y298533D01*
Y297067D01*
X87266Y296700D01*
X88000D01*
X88366Y297067D01*
X90566Y298899D02*
X89832Y298533D01*
X89099Y297800D01*
Y297067D01*
X89466Y296700D01*
X90199D01*
X90566Y297067D01*
Y297433D01*
X90199Y297800D01*
X89099D01*
X91299Y298533D02*
X91665Y298899D01*
X92398D01*
X92765Y298533D01*
Y298166D01*
X92398Y297800D01*
X92032D01*
X92398D01*
X92765Y297433D01*
Y297067D01*
X92398Y296700D01*
X91665D01*
X91299Y297067D01*
X115799Y284000D02*
X113600D01*
Y282534D01*
Y280334D02*
Y281801D01*
X115066Y280334D01*
X115433D01*
X115799Y280701D01*
Y281434D01*
X115433Y281801D01*
X122100Y67063D02*
Y68529D01*
X121367Y67796D02*
X122833D01*
X122100Y103063D02*
Y104529D01*
X126000Y107800D02*
Y109266D01*
X125267Y108533D02*
X126733D01*
X122100Y143963D02*
Y145429D01*
X126000Y151900D02*
Y153366D01*
X125267Y152633D02*
X126733D01*
X122100Y184863D02*
Y186329D01*
X125900Y189300D02*
Y190766D01*
X125167Y190033D02*
X126633D01*
X122100Y225763D02*
Y227229D01*
X126800Y233300D02*
Y234766D01*
X126067Y234033D02*
X127533D01*
X124700Y267300D02*
Y268766D01*
X147766Y13100D02*
X146300D01*
X147766Y14566D01*
Y14933D01*
X147400Y15299D01*
X146667D01*
X146300Y14933D01*
X147000Y4300D02*
X147733D01*
X147367D01*
Y6499D01*
X147000Y6133D01*
X7566Y4100D02*
X6100D01*
X7566Y5566D01*
Y5933D01*
X7200Y6299D01*
X6466D01*
X6100Y5933D01*
X9765Y6299D02*
X8299D01*
Y5200D01*
X9032Y5566D01*
X9399D01*
X9765Y5200D01*
Y4467D01*
X9399Y4100D01*
X8666D01*
X8299Y4467D01*
X7666Y15400D02*
X6200D01*
X7666Y16866D01*
Y17233D01*
X7300Y17599D01*
X6566D01*
X6200Y17233D01*
X9866Y17599D02*
X9132Y17233D01*
X8399Y16500D01*
Y15767D01*
X8766Y15400D01*
X9499D01*
X9866Y15767D01*
Y16133D01*
X9499Y16500D01*
X8399D01*
X184300Y90500D02*
X185033D01*
X184667D01*
Y92699D01*
X184300Y92333D01*
X183766Y100500D02*
X182300D01*
X183766Y101966D01*
Y102333D01*
X183400Y102699D01*
X182667D01*
X182300Y102333D01*
X219766Y92699D02*
X218300D01*
Y91600D01*
X219033Y91966D01*
X219400D01*
X219766Y91600D01*
Y90867D01*
X219400Y90500D01*
X218667D01*
X218300Y90867D01*
X219766Y102699D02*
X219033Y102333D01*
X218300Y101600D01*
Y100866D01*
X218667Y100500D01*
X219400D01*
X219766Y100866D01*
Y101233D01*
X219400Y101600D01*
X218300D01*
X343778Y248824D02*
X342312D01*
X343045Y248091D02*
Y249557D01*
X110100Y273099D02*
Y271633D01*
X110833Y270900D01*
X111566Y271633D01*
Y273099D01*
X112299Y270900D02*
X113032D01*
X112666D01*
Y273099D01*
X112299Y272733D01*
X114132Y270900D02*
Y271267D01*
X114499D01*
Y270900D01*
X114132D01*
X115965Y272733D02*
X116331Y273099D01*
X117064D01*
X117431Y272733D01*
Y271267D01*
X117064Y270900D01*
X116331D01*
X115965Y271267D01*
Y272733D01*
X119264Y270900D02*
Y273099D01*
X118164Y272000D01*
X119630D01*
X36500Y217251D02*
X39999D01*
X38249Y219000D01*
Y216667D01*
X36500Y212002D02*
X38833D01*
X39999Y210836D01*
X38833Y209670D01*
X36500D01*
X38249D01*
Y212002D01*
X39999Y208503D02*
X36500Y206171D01*
X39999D02*
X36500Y208503D01*
X39999Y205005D02*
Y203838D01*
Y204421D01*
X36500D01*
Y205005D01*
Y203838D01*
X39416Y199756D02*
X39999Y200339D01*
Y201506D01*
X39416Y202089D01*
X38833D01*
X38249Y201506D01*
Y200339D01*
X37666Y199756D01*
X37083D01*
X36500Y200339D01*
Y201506D01*
X37083Y202089D01*
X36500Y195091D02*
Y193342D01*
X37083Y192759D01*
X37666Y193342D01*
Y194508D01*
X38249Y195091D01*
X38833Y194508D01*
Y192759D01*
X39416Y191009D02*
X38833D01*
Y191592D01*
Y190426D01*
Y191009D01*
X37083D01*
X36500Y190426D01*
Y186927D02*
Y188093D01*
X37083Y188677D01*
X38249D01*
X38833Y188093D01*
Y186927D01*
X38249Y186344D01*
X37666D01*
Y188677D01*
X35334Y185178D02*
X38833D01*
Y183428D01*
X38249Y182845D01*
X37083D01*
X36500Y183428D01*
Y185178D01*
X35334Y181679D02*
X38833D01*
Y179929D01*
X38249Y179346D01*
X37083D01*
X36500Y179929D01*
Y181679D01*
Y176430D02*
Y177597D01*
X37083Y178180D01*
X38249D01*
X38833Y177597D01*
Y176430D01*
X38249Y175847D01*
X37666D01*
Y178180D01*
X38833Y174681D02*
X36500D01*
X37666D01*
X38249Y174098D01*
X38833Y173515D01*
Y172932D01*
X36500Y167683D02*
X38833D01*
Y167100D01*
X38249Y166517D01*
X36500D01*
X38249D01*
X38833Y165934D01*
X38249Y165351D01*
X36500D01*
Y163601D02*
Y162435D01*
X37083Y161852D01*
X38249D01*
X38833Y162435D01*
Y163601D01*
X38249Y164184D01*
X37083D01*
X36500Y163601D01*
X39416Y160102D02*
X38833D01*
Y160686D01*
Y159519D01*
Y160102D01*
X37083D01*
X36500Y159519D01*
Y157187D02*
Y156020D01*
X37083Y155437D01*
X38249D01*
X38833Y156020D01*
Y157187D01*
X38249Y157770D01*
X37083D01*
X36500Y157187D01*
X38833Y154271D02*
X36500D01*
X37666D01*
X38249Y153688D01*
X38833Y153105D01*
Y152522D01*
X36500Y150772D02*
Y149023D01*
X37083Y148440D01*
X37666Y149023D01*
Y150189D01*
X38249Y150772D01*
X38833Y150189D01*
Y148440D01*
X38999Y101567D02*
Y103900D01*
X37249D01*
X37833Y102734D01*
Y102151D01*
X37249Y101567D01*
X36083D01*
X35500Y102151D01*
Y103317D01*
X36083Y103900D01*
X38416Y99818D02*
X37833D01*
Y100401D01*
Y99235D01*
Y99818D01*
X36083D01*
X35500Y99235D01*
X38999Y97485D02*
X35500D01*
X37249D01*
X37833Y96902D01*
Y95736D01*
X37249Y95153D01*
X35500D01*
X37833Y89904D02*
Y88738D01*
X37249Y88155D01*
X35500D01*
Y89904D01*
X36083Y90488D01*
X36666Y89904D01*
Y88155D01*
X37833Y86989D02*
X35500Y84656D01*
X36666Y85822D01*
X37833Y84656D01*
X35500Y86989D01*
Y83490D02*
Y82324D01*
Y82907D01*
X37833D01*
Y83490D01*
X35500Y80574D02*
Y78825D01*
X36083Y78242D01*
X36666Y78825D01*
Y79991D01*
X37249Y80574D01*
X37833Y79991D01*
Y78242D01*
X26700Y67133D02*
Y65383D01*
X27283Y64800D01*
X27866Y65383D01*
X28449Y64800D01*
X29033Y65383D01*
Y67133D01*
X30199Y64800D02*
X31365D01*
X30782D01*
Y67133D01*
X30199D01*
X33115D02*
Y64800D01*
Y65966D01*
X33698Y66549D01*
X34281Y67133D01*
X34864D01*
X38363Y64800D02*
X37197D01*
X36614Y65383D01*
Y66549D01*
X37197Y67133D01*
X38363D01*
X38946Y66549D01*
Y65966D01*
X36614D01*
X40112Y64217D02*
X42445D01*
X45361Y64800D02*
X44194D01*
X43611Y65383D01*
Y66549D01*
X44194Y67133D01*
X45361D01*
X45944Y66549D01*
Y65966D01*
X43611D01*
X47110Y64800D02*
Y67133D01*
X48860D01*
X49443Y66549D01*
Y64800D01*
X52942Y68299D02*
Y64800D01*
X51192D01*
X50609Y65383D01*
Y66549D01*
X51192Y67133D01*
X52942D01*
X82500Y306901D02*
Y310400D01*
Y308651D01*
X81917Y308067D01*
X80751D01*
X80167Y308651D01*
Y310400D01*
X77252D02*
X78418D01*
X79001Y309817D01*
Y308651D01*
X78418Y308067D01*
X77252D01*
X76669Y308651D01*
Y309234D01*
X79001D01*
X74919Y308067D02*
X73753D01*
X73170Y308651D01*
Y310400D01*
X74919D01*
X75502Y309817D01*
X74919Y309234D01*
X73170D01*
X69671Y306901D02*
Y310400D01*
X71420D01*
X72003Y309817D01*
Y308651D01*
X71420Y308067D01*
X69671D01*
X62673D02*
X64423D01*
X65006Y308651D01*
Y309817D01*
X64423Y310400D01*
X62673D01*
X60924D02*
X59757D01*
X59174Y309817D01*
Y308651D01*
X59757Y308067D01*
X60924D01*
X61507Y308651D01*
Y309817D01*
X60924Y310400D01*
X58008D02*
Y308067D01*
X56258D01*
X55675Y308651D01*
Y310400D01*
X54509D02*
Y308067D01*
X52760D01*
X52176Y308651D01*
Y310400D01*
X321017Y289767D02*
X319851D01*
X319267Y290351D01*
Y292100D01*
X321017D01*
X321600Y291517D01*
X321017Y290934D01*
X319267D01*
X318101Y292100D02*
Y289767D01*
X317518D01*
X316935Y290351D01*
Y292100D01*
Y290351D01*
X316352Y289767D01*
X315769Y290351D01*
Y292100D01*
X314602Y288601D02*
Y292100D01*
X312853D01*
X312270Y291517D01*
Y290934D01*
Y290351D01*
X312853Y289767D01*
X314602D01*
X311103Y292683D02*
X308771D01*
X307605Y292100D02*
X306438D01*
X307021D01*
Y288601D01*
X307605D01*
X304689Y292100D02*
X303522D01*
X304106D01*
Y289767D01*
X304689D01*
X300607Y293266D02*
X300024D01*
X299441Y292683D01*
Y289767D01*
X301190D01*
X301773Y290351D01*
Y291517D01*
X301190Y292100D01*
X299441D01*
X298274Y288601D02*
Y292100D01*
Y290351D01*
X297691Y289767D01*
X296525D01*
X295942Y290351D01*
Y292100D01*
X294192Y289184D02*
Y289767D01*
X294775D01*
X293609D01*
X294192D01*
Y291517D01*
X293609Y292100D01*
X238001Y287000D02*
Y289333D01*
Y288166D01*
X241500D01*
X238001Y290499D02*
X241500D01*
X239751D01*
Y292831D01*
X238001D01*
X241500D01*
Y296330D02*
Y293998D01*
X239167Y296330D01*
X238584D01*
X238001Y295747D01*
Y294581D01*
X238584Y293998D01*
X242083Y297497D02*
Y299829D01*
X238001Y303328D02*
Y300995D01*
X241500D01*
Y303328D01*
X239751Y300995D02*
Y302162D01*
X241500Y304494D02*
Y305661D01*
Y305078D01*
X238001D01*
X238584Y304494D01*
X308500Y213134D02*
Y216633D01*
X310249D01*
X310833Y216049D01*
Y214883D01*
X310249Y214300D01*
X308500D01*
X312582D02*
X313748D01*
X314331Y214883D01*
Y216049D01*
X313748Y216633D01*
X312582D01*
X311999Y216049D01*
Y214883D01*
X312582Y214300D01*
X315498Y216633D02*
Y214883D01*
X316081Y214300D01*
X316664Y214883D01*
X317247Y214300D01*
X317830Y214883D01*
Y216633D01*
X320746Y214300D02*
X319580D01*
X318997Y214883D01*
Y216049D01*
X319580Y216633D01*
X320746D01*
X321329Y216049D01*
Y215466D01*
X318997D01*
X322496Y216633D02*
Y214300D01*
Y215466D01*
X323079Y216049D01*
X323662Y216633D01*
X324245D01*
X329493Y214300D02*
X330660D01*
X330076D01*
Y216633D01*
X329493D01*
X332409Y214300D02*
Y216633D01*
X334158D01*
X334741Y216049D01*
Y214300D01*
X303600Y74649D02*
Y73483D01*
X303017Y72900D01*
X301851D01*
X301267Y73483D01*
Y74649D01*
X301851Y75233D01*
X302434D01*
Y72900D01*
X303600Y76399D02*
X301267D01*
Y78148D01*
X301851Y78731D01*
X303600D01*
X300101Y82230D02*
X303600D01*
Y80481D01*
X303017Y79898D01*
X301851D01*
X301267Y80481D01*
Y82230D01*
X303600Y83397D02*
Y85146D01*
X303017Y85729D01*
X302434Y85146D01*
Y83980D01*
X301851Y83397D01*
X301267Y83980D01*
Y85729D01*
X300684Y87479D02*
X301267D01*
Y86896D01*
Y88062D01*
Y87479D01*
X303017D01*
X303600Y88062D01*
Y90394D02*
Y91561D01*
X303017Y92144D01*
X301851D01*
X301267Y91561D01*
Y90394D01*
X301851Y89811D01*
X303017D01*
X303600Y90394D01*
X304766Y93310D02*
X301267D01*
Y95060D01*
X301851Y95643D01*
X303017D01*
X303600Y95060D01*
Y93310D01*
Y96809D02*
Y98558D01*
X303017Y99142D01*
X302434Y98558D01*
Y97392D01*
X301851Y96809D01*
X301267Y97392D01*
Y99142D01*
X335833Y77299D02*
Y73800D01*
X334083D01*
X333500Y74383D01*
Y75549D01*
X334083Y76133D01*
X335833D01*
X337582Y73800D02*
X338748D01*
X339331Y74383D01*
Y75549D01*
X338748Y76133D01*
X337582D01*
X336999Y75549D01*
Y74383D01*
X337582Y73800D01*
X341081D02*
X342247D01*
X342830Y74383D01*
Y75549D01*
X342247Y76133D01*
X341081D01*
X340498Y75549D01*
Y74383D01*
X341081Y73800D01*
X343997Y76133D02*
Y73800D01*
Y74966D01*
X344580Y75549D01*
X345163Y76133D01*
X345746D01*
X322300Y4533D02*
Y2200D01*
Y3366D01*
X322883Y3949D01*
X323466Y4533D01*
X324049D01*
X327548Y2200D02*
X326382D01*
X325799Y2783D01*
Y3949D01*
X326382Y4533D01*
X327548D01*
X328131Y3949D01*
Y3366D01*
X325799D01*
X331047Y2200D02*
X329881D01*
X329298Y2783D01*
Y3949D01*
X329881Y4533D01*
X331047D01*
X331630Y3949D01*
Y3366D01*
X329298D01*
X332797Y2200D02*
X333963D01*
X333380D01*
Y5699D01*
X332797D01*
X339211Y2200D02*
X340377D01*
X339794D01*
Y5699D01*
X339211D01*
X343876Y2200D02*
X342710D01*
X342127Y2783D01*
Y3949D01*
X342710Y4533D01*
X343876D01*
X344460Y3949D01*
Y3366D01*
X342127D01*
X345626Y2200D02*
Y4533D01*
X347375D01*
X347958Y3949D01*
Y2200D01*
X349125D02*
X350874D01*
X351457Y2783D01*
X350874Y3366D01*
X349708D01*
X349125Y3949D01*
X349708Y4533D01*
X351457D01*
X317300Y33600D02*
Y31851D01*
X317883Y31267D01*
X318466Y31851D01*
Y33017D01*
X319049Y33600D01*
X319633Y33017D01*
Y31267D01*
X317300Y28352D02*
Y29518D01*
X317883Y30101D01*
X319049D01*
X319633Y29518D01*
Y28352D01*
X319049Y27768D01*
X318466D01*
Y30101D01*
X319633Y24270D02*
Y26019D01*
X319049Y26602D01*
X317883D01*
X317300Y26019D01*
Y24270D01*
X319633Y23103D02*
X317883D01*
X317300Y22520D01*
Y20771D01*
X319633D01*
Y19604D02*
X317300D01*
X318466D01*
X319049Y19021D01*
X319633Y18438D01*
Y17855D01*
X317300Y14356D02*
Y15522D01*
X317883Y16106D01*
X319049D01*
X319633Y15522D01*
Y14356D01*
X319049Y13773D01*
X318466D01*
Y16106D01*
X316717Y12607D02*
Y10274D01*
X317300Y9108D02*
Y7359D01*
X317883Y6775D01*
X318466Y7359D01*
Y8525D01*
X319049Y9108D01*
X319633Y8525D01*
Y6775D01*
Y5609D02*
X317883D01*
X317300Y5026D01*
X317883Y4443D01*
X317300Y3860D01*
X317883Y3277D01*
X319633D01*
X205200Y44099D02*
Y40600D01*
X206949D01*
X207533Y41183D01*
Y41766D01*
Y42349D01*
X206949Y42933D01*
X205200D01*
X210448Y40600D02*
X209282D01*
X208699Y41183D01*
Y42349D01*
X209282Y42933D01*
X210448D01*
X211031Y42349D01*
Y41766D01*
X208699D01*
X214530Y44099D02*
Y40600D01*
X212781D01*
X212198Y41183D01*
Y42349D01*
X212781Y42933D01*
X214530D01*
D59*
X196532Y244187D02*
G03*
X196532Y244187I-492J0D01*
G01*
X64075Y72420D02*
G03*
X64075Y72420I-1013J0D01*
G01*
Y113320D02*
G03*
X64075Y113320I-1013J0D01*
G01*
Y154220D02*
G03*
X64075Y154220I-1013J0D01*
G01*
Y195120D02*
G03*
X64075Y195120I-1013J0D01*
G01*
Y236020D02*
G03*
X64075Y236020I-1013J0D01*
G01*
X356904Y243700D02*
G03*
X356904Y243700I-700J0D01*
G01*
X55252Y34521D02*
G03*
X55252Y34521I-492J0D01*
G01*
X104673Y33740D02*
G03*
X104673Y33740I-460J0D01*
G01*
X235051Y304800D02*
G03*
X235051Y304800I-1000J0D01*
G01*
X231451Y255900D02*
G03*
X231451Y255900I-1000J0D01*
G01*
X140800Y49107D02*
G03*
X140800Y49107I-1000J0D01*
G01*
X265000Y65600D02*
G03*
X265000Y65600I-1000J0D01*
G01*
X28300Y279700D02*
G03*
X28300Y279700I-1000J0D01*
G01*
X194000Y255300D02*
G03*
X194000Y255300I-1000J0D01*
G01*
X311179Y210669D02*
G03*
X311179Y210669I-1000J0D01*
G01*
X246832Y110587D02*
G03*
X246832Y110587I-492J0D01*
G01*
D60*
X365922Y276400D02*
G03*
X365922Y276400I-23622J0D01*
G01*
X274900Y266900D02*
X275100Y267100D01*
X289000D01*
X255600Y264600D02*
Y266700D01*
X256100Y267200D01*
X258900D01*
X260000Y268300D01*
Y277800D01*
X257600Y280200D02*
X260000Y277800D01*
X257600Y280200D02*
Y281000D01*
X308100Y57900D02*
X308700D01*
X306700Y59300D02*
X308100Y57900D01*
X305000Y59300D02*
X306700D01*
X303900Y58200D02*
X305000Y59300D01*
X303500Y58200D02*
X303900D01*
X304000Y62200D02*
X308200D01*
X247300Y105100D02*
X249400Y107200D01*
X247300Y97500D02*
Y105100D01*
X136600Y147500D02*
Y151000D01*
Y147500D02*
X138100Y146000D01*
Y144400D02*
Y146000D01*
X135400Y174100D02*
Y180400D01*
X136100D01*
X115000Y45700D02*
Y52600D01*
X115300D01*
X47700Y272300D02*
X49100D01*
Y274200D01*
X149400Y246300D02*
Y257800D01*
X149300Y246300D02*
X149400D01*
X157041Y220547D02*
Y226058D01*
X156926Y244000D02*
X188439Y243972D01*
X157041Y220547D02*
X164915D01*
X188045Y220940D02*
Y225861D01*
X180171Y220842D02*
X188045D01*
X325001Y155780D02*
X345768D01*
X359450Y84027D02*
Y150071D01*
X325001Y147906D02*
Y155780D01*
X325395Y77433D02*
X346064D01*
X325296Y77433D02*
Y85307D01*
X20645Y121924D02*
X26353D01*
X2928Y127633D02*
Y256668D01*
X26353Y121924D02*
Y129798D01*
X20645Y263264D02*
X25960D01*
X26058Y255389D02*
Y263263D01*
X325296Y7355D02*
Y15229D01*
X325395Y7355D02*
X346064D01*
X325001Y30485D02*
Y38359D01*
X359450Y13950D02*
Y32552D01*
X325001Y38359D02*
X345768D01*
X114048Y313013D02*
X123595D01*
Y332698D01*
X1745Y313013D02*
X11194D01*
X1745Y332698D02*
X123595D01*
X1745Y313013D02*
Y332698D01*
X268905Y8399D02*
Y24029D01*
Y-14928D02*
Y702D01*
X207193Y-14967D02*
Y663D01*
X259850Y24029D02*
X268807D01*
X207193Y23990D02*
X216150D01*
X207193Y8360D02*
Y23990D01*
X207095Y-14947D02*
X268905D01*
X375113Y170200D02*
Y220200D01*
X336176Y170298D02*
X351806D01*
X336176D02*
Y179255D01*
X336137Y211145D02*
Y220102D01*
X359503Y170298D02*
X375133D01*
X359464Y220200D02*
X375094D01*
X336137D02*
X351767D01*
X20748Y69367D02*
X26260D01*
X2835Y69269D02*
Y116513D01*
X26260Y69367D02*
Y77241D01*
X20945Y116119D02*
X25866D01*
X25965Y108245D02*
Y116119D01*
X284055Y36906D02*
X291929D01*
X284055Y16139D02*
Y36808D01*
X307185Y37202D02*
X315059D01*
X290650Y2753D02*
X309252D01*
X315059Y16434D02*
Y37202D01*
X266475Y297955D02*
X274349D01*
X274349Y298053D02*
Y318722D01*
X243345Y297659D02*
X251219D01*
X249152Y332108D02*
X267754D01*
X243345Y297659D02*
Y318427D01*
X325296Y42055D02*
Y49929D01*
X325395Y42055D02*
X346064D01*
X325001Y65185D02*
Y73059D01*
X359450Y48650D02*
Y67252D01*
X325001Y73059D02*
X345768D01*
X277630Y297566D02*
Y318334D01*
X283737Y332000D02*
X325661Y332015D01*
X277630Y297566D02*
X285504D01*
X332256Y297960D02*
Y318629D01*
X324382Y297861D02*
X332256D01*
X167171Y59642D02*
X175045D01*
X175045Y59740D02*
Y64661D01*
X144041Y59346D02*
X151915D01*
X143926Y82800D02*
X175439Y82772D01*
X144041Y59346D02*
Y64858D01*
X25972Y55871D02*
Y63745D01*
X20953Y63745D02*
X25874D01*
X26268Y32741D02*
Y40615D01*
X2814Y32626D02*
X2843Y64139D01*
X20756Y32741D02*
X26268D01*
X171595Y85389D02*
Y109011D01*
X146005D02*
X171595D01*
X146005Y85389D02*
Y109011D01*
Y85389D02*
X171595D01*
X132701Y66900D02*
Y69566D01*
Y68233D01*
X136700D01*
X132701Y72898D02*
Y71565D01*
X133368Y70899D01*
X136033D01*
X136700Y71565D01*
Y72898D01*
X136033Y73564D01*
X133368D01*
X132701Y72898D01*
Y74897D02*
Y77563D01*
Y76230D01*
X136700D01*
X132701Y78896D02*
X136033D01*
X136700Y79563D01*
Y80896D01*
X136033Y81562D01*
X132701D01*
X136700Y82895D02*
X132701D01*
X134034Y84228D01*
X132701Y85561D01*
X136700D01*
X132701Y86894D02*
X136700D01*
Y88893D01*
X136033Y89559D01*
X133368D01*
X132701Y88893D01*
Y86894D01*
Y90892D02*
X136033D01*
X136700Y91559D01*
Y92892D01*
X136033Y93558D01*
X132701D01*
Y94891D02*
Y96224D01*
Y95557D01*
X136700D01*
Y94891D01*
Y96224D01*
Y98223D02*
X132701D01*
X136700Y100889D01*
X132701D01*
Y104221D02*
Y102888D01*
X133368Y102222D01*
X136033D01*
X136700Y102888D01*
Y104221D01*
X136033Y104888D01*
X133368D01*
X132701Y104221D01*
X127101Y73366D02*
Y70700D01*
X129101D01*
Y72033D01*
Y70700D01*
X131100D01*
Y74699D02*
X128434D01*
X127101Y76032D01*
X128434Y77364D01*
X131100D01*
X129101D01*
Y74699D01*
X127101Y78697D02*
X131100D01*
Y80697D01*
X130433Y81363D01*
X129767D01*
X129101Y80697D01*
Y78697D01*
Y80697D01*
X128434Y81363D01*
X127768D01*
X127101Y80697D01*
Y78697D01*
Y82696D02*
Y85362D01*
Y84029D01*
X131100D01*
X127101Y88694D02*
Y87361D01*
X127768Y86695D01*
X130433D01*
X131100Y87361D01*
Y88694D01*
X130433Y89361D01*
X127768D01*
X127101Y88694D01*
Y90694D02*
Y93359D01*
Y92026D01*
X131100D01*
X127101Y94692D02*
X130433D01*
X131100Y95359D01*
Y96692D01*
X130433Y97358D01*
X127101D01*
X131100Y98691D02*
X127101D01*
X128434Y100024D01*
X127101Y101357D01*
X131100D01*
D74*
X137615Y118450D02*
G03*
X137615Y118450I-492J0D01*
G01*
X262943Y279123D02*
G03*
X262943Y279123I-492J0D01*
G01*
X301191Y136249D02*
G03*
X301191Y136249I-492J0D01*
G01*
X266552Y253713D02*
G03*
X266552Y253713I-492J0D01*
G01*
X94842Y47223D02*
G03*
X94842Y47223I-492J0D01*
G01*
X160614Y121876D02*
G03*
X160614Y121876I-492J0D01*
G01*
X258015Y127350D02*
G03*
X258015Y127350I-492J0D01*
G01*
X266652Y265213D02*
G03*
X266652Y265213I-492J0D01*
G01*
X271706Y44740D02*
G03*
X271706Y44740I-492J0D01*
G01*
D75*
X167012Y130931D02*
G03*
X167012Y130931I-1181J0D01*
G01*
D76*
X234687Y108500D02*
G03*
X234687Y108500I-787J0D01*
G01*
X210387Y188100D02*
G03*
X210387Y188100I-787J0D01*
G01*
X204687Y219075D02*
G03*
X204687Y219075I-787J0D01*
G01*
X183812Y218975D02*
G03*
X183812Y218975I-787J0D01*
G01*
X191036D02*
G03*
X191036Y218975I-787J0D01*
G01*
X198261D02*
G03*
X198261Y218975I-787J0D01*
G01*
D77*
X247622Y261513D02*
Y263087D01*
X250378Y261513D02*
Y263087D01*
X242022Y261513D02*
Y263087D01*
X244778Y261513D02*
Y263087D01*
X241713Y243422D02*
X243287D01*
X241713Y246178D02*
X243287D01*
X241813Y248822D02*
X243387D01*
X241813Y251578D02*
X243387D01*
X271313Y51378D02*
X272887D01*
X271313Y48622D02*
X272887D01*
X278122Y75413D02*
Y76987D01*
X280878Y75413D02*
Y76987D01*
X132213Y126428D02*
X133787D01*
X132213Y123672D02*
X133787D01*
X128954Y114906D02*
X135646D01*
X128954Y115694D02*
X135646D01*
X128954Y114906D02*
Y115694D01*
X135646Y114906D02*
Y115694D01*
X112068Y278432D02*
Y294968D01*
X95532Y278432D02*
Y294968D01*
X81728Y294718D02*
X85272D01*
X81728Y284482D02*
X85272D01*
X47322Y30613D02*
Y32187D01*
X50078Y30613D02*
Y32187D01*
X223722Y145413D02*
Y146987D01*
X226478Y145413D02*
Y146987D01*
X191709Y245269D02*
X192891D01*
X191709Y253931D02*
X192891D01*
Y245269D02*
Y253931D01*
X191709Y245269D02*
Y253931D01*
X222722Y217913D02*
Y219487D01*
X225478Y217913D02*
Y219487D01*
X265206Y277646D02*
X265994D01*
X265206Y270953D02*
X265994D01*
X265206D02*
Y277646D01*
X265994Y270953D02*
Y277646D01*
X297878Y86413D02*
Y87987D01*
X295122Y86413D02*
Y87987D01*
X83928Y74979D02*
Y77833D01*
X81074Y74979D02*
X83928D01*
Y93581D02*
Y96435D01*
X81074D02*
X83928D01*
X62472D02*
X65326D01*
X62472Y93581D02*
Y96435D01*
Y74979D02*
Y77833D01*
Y74979D02*
X65326D01*
X62472Y115879D02*
X65326D01*
X62472D02*
Y118733D01*
Y134481D02*
Y137335D01*
X65326D01*
X81074D02*
X83928D01*
Y134481D02*
Y137335D01*
X81074Y115879D02*
X83928D01*
Y118733D01*
Y156779D02*
Y159633D01*
X81074Y156779D02*
X83928D01*
Y175381D02*
Y178235D01*
X81074D02*
X83928D01*
X62472D02*
X65326D01*
X62472Y175381D02*
Y178235D01*
Y156779D02*
Y159633D01*
Y156779D02*
X65326D01*
X62472Y197679D02*
X65326D01*
X62472D02*
Y200533D01*
Y216281D02*
Y219135D01*
X65326D01*
X81074D02*
X83928D01*
Y216281D02*
Y219135D01*
X81074Y197679D02*
X83928D01*
Y200533D01*
Y238579D02*
Y241433D01*
X81074Y238579D02*
X83928D01*
Y257181D02*
Y260035D01*
X81074D02*
X83928D01*
X62472D02*
X65326D01*
X62472Y257181D02*
Y260035D01*
Y238579D02*
Y241433D01*
Y238579D02*
X65326D01*
X265029Y123257D02*
Y130343D01*
X299675Y123257D02*
Y130343D01*
X265029Y123257D02*
X299675D01*
X265029Y130343D02*
X299675D01*
X67513Y104178D02*
X69087D01*
X67513Y101422D02*
X69087D01*
X67513Y145078D02*
X69087D01*
X67513Y142322D02*
X69087D01*
X67513Y185978D02*
X69087D01*
X67513Y183222D02*
X69087D01*
X67513Y226878D02*
X69087D01*
X67513Y224122D02*
X69087D01*
X67513Y267778D02*
X69087D01*
X67513Y265022D02*
X69087D01*
X77613Y99922D02*
X79187D01*
X77613Y102678D02*
X79187D01*
X77613Y140822D02*
X79187D01*
X77613Y143578D02*
X79187D01*
X77613Y181722D02*
X79187D01*
X77613Y184478D02*
X79187D01*
X77613Y222622D02*
X79187D01*
X77613Y225378D02*
X79187D01*
X77613Y263622D02*
X79187D01*
X77613Y266378D02*
X79187D01*
X67713Y70078D02*
X69287D01*
X67713Y67322D02*
X69287D01*
X67713Y110978D02*
X69287D01*
X67713Y108222D02*
X69287D01*
X67713Y151978D02*
X69287D01*
X67713Y149222D02*
X69287D01*
X67713Y192978D02*
X69287D01*
X67713Y190222D02*
X69287D01*
X67713Y233878D02*
X69287D01*
X67713Y231122D02*
X69287D01*
X91813Y81078D02*
X93387D01*
X91813Y78322D02*
X93387D01*
X91813Y121978D02*
X93387D01*
X91813Y119222D02*
X93387D01*
X91813Y162878D02*
X93387D01*
X91813Y160122D02*
X93387D01*
X91913Y203178D02*
X93487D01*
X91913Y200422D02*
X93487D01*
X91813Y244378D02*
X93387D01*
X91813Y241622D02*
X93387D01*
X91813Y94829D02*
X93387D01*
X91813Y97585D02*
X93387D01*
X91813Y135729D02*
X93387D01*
X91813Y138485D02*
X93387D01*
X91813Y176629D02*
X93387D01*
X91813Y179385D02*
X93387D01*
X91913Y216429D02*
X93487D01*
X91913Y219185D02*
X93487D01*
X91813Y257629D02*
X93387D01*
X91813Y260385D02*
X93387D01*
X91813Y84422D02*
X93387D01*
X91813Y87178D02*
X93387D01*
X91813Y125322D02*
X93387D01*
X91813Y128078D02*
X93387D01*
X91813Y166222D02*
X93387D01*
X91813Y168978D02*
X93387D01*
X91913Y206222D02*
X93487D01*
X91913Y208978D02*
X93487D01*
X91813Y247422D02*
X93387D01*
X91813Y250178D02*
X93387D01*
X91813Y90029D02*
X93387D01*
X91813Y92785D02*
X93387D01*
X91813Y130929D02*
X93387D01*
X91813Y133685D02*
X93387D01*
X91813Y171829D02*
X93387D01*
X91813Y174585D02*
X93387D01*
X91913Y211529D02*
X93487D01*
X91913Y214285D02*
X93487D01*
X91813Y252729D02*
X93387D01*
X91813Y255485D02*
X93387D01*
X26778Y301713D02*
Y303287D01*
X24022Y301713D02*
Y303287D01*
X99314Y73677D02*
Y100449D01*
X126086Y73677D02*
Y100449D01*
X99314Y73677D02*
X109747D01*
X99314Y100449D02*
X109747D01*
X115653Y73677D02*
X126086D01*
X115653Y100449D02*
X126086D01*
X99314Y114577D02*
Y141349D01*
X126086Y114577D02*
Y141349D01*
X99314Y114577D02*
X109747D01*
X99314Y141349D02*
X109747D01*
X115653Y114577D02*
X126086D01*
X115653Y141349D02*
X126086D01*
X99314Y155477D02*
Y182249D01*
X126086Y155477D02*
Y182249D01*
X99314Y155477D02*
X109747D01*
X99314Y182249D02*
X109747D01*
X115653Y155477D02*
X126086D01*
X115653Y182249D02*
X126086D01*
X99314Y196377D02*
Y223149D01*
X126086Y196377D02*
Y223149D01*
X99314Y196377D02*
X109747D01*
X99314Y223149D02*
X109747D01*
X115653Y196377D02*
X126086D01*
X115653Y223149D02*
X126086D01*
X99314Y237277D02*
Y264049D01*
X126086Y237277D02*
Y264049D01*
X99314Y237277D02*
X109747D01*
X99314Y264049D02*
X109747D01*
X115653Y237277D02*
X126086D01*
X115653Y264049D02*
X126086D01*
X315002Y229416D02*
Y231384D01*
X339806Y229416D02*
Y231384D01*
X354706Y238016D02*
Y239984D01*
X342502Y238016D02*
Y239984D01*
X354706D01*
X342502Y238016D02*
X354706D01*
X349816Y250978D02*
X351391D01*
X349816Y248222D02*
X351391D01*
X293813Y151678D02*
X295387D01*
X293813Y148922D02*
X295387D01*
X293965Y143722D02*
X295539D01*
X293965Y146478D02*
X295539D01*
X269210Y252631D02*
X270391D01*
X269210Y243969D02*
X270391D01*
X269210D02*
Y252631D01*
X270391Y243969D02*
Y252631D01*
X257613Y155378D02*
X259187D01*
X257613Y152622D02*
X259187D01*
X240122Y54813D02*
Y56387D01*
X242878Y54813D02*
Y56387D01*
X150013Y202178D02*
X151587D01*
X150013Y199422D02*
X151587D01*
X59091Y24777D02*
Y33439D01*
X57910Y24777D02*
Y33439D01*
Y24777D02*
X59091D01*
X57910Y33439D02*
X59091D01*
X103131Y29606D02*
Y30394D01*
X94469Y29606D02*
Y30394D01*
X103131D01*
X94469Y29606D02*
X103131D01*
X74622Y28813D02*
Y30387D01*
X77378Y28813D02*
Y30387D01*
X81822Y28713D02*
Y30287D01*
X84578Y28713D02*
Y30287D01*
X88322Y28813D02*
Y30387D01*
X91078Y28813D02*
Y30387D01*
X234278Y173513D02*
Y175087D01*
X231522Y173513D02*
Y175087D01*
X228678Y173513D02*
Y175087D01*
X225922Y173513D02*
Y175087D01*
X54378Y300013D02*
Y301587D01*
X51622Y300013D02*
Y301587D01*
X59978Y300013D02*
Y301587D01*
X57222Y300013D02*
Y301587D01*
X108778Y41513D02*
Y43087D01*
X106022Y41513D02*
Y43087D01*
X282878Y50913D02*
Y52487D01*
X280122Y50913D02*
Y52487D01*
X312913Y46878D02*
X314487D01*
X312913Y44122D02*
X314487D01*
X285822Y50913D02*
Y52487D01*
X288578Y50913D02*
Y52487D01*
X312913Y49722D02*
X314487D01*
X312913Y52478D02*
X314487D01*
X312913Y74874D02*
X314487D01*
X312913Y72118D02*
X314487D01*
X317382Y134813D02*
Y136387D01*
X314626Y134813D02*
Y136387D01*
X252365Y116678D02*
X253939D01*
X252365Y113922D02*
X253939D01*
X312913Y66218D02*
X314487D01*
X312913Y68974D02*
X314487D01*
X312616Y142722D02*
X314191D01*
X312616Y145478D02*
X314191D01*
X252365Y108822D02*
X253939D01*
X252365Y111578D02*
X253939D01*
X284674Y86513D02*
Y88087D01*
X287430Y86513D02*
Y88087D01*
X311778Y118513D02*
Y120087D01*
X309022Y118513D02*
Y120087D01*
X308526Y105213D02*
Y106787D01*
X311282Y105213D02*
Y106787D01*
X312216Y126322D02*
X313791D01*
X312216Y129078D02*
X313791D01*
X311717Y96422D02*
X313291D01*
X311717Y99178D02*
X313291D01*
X279374Y86513D02*
Y88087D01*
X282130Y86513D02*
Y88087D01*
X271174Y103413D02*
Y104987D01*
X273930Y103413D02*
Y104987D01*
X82813Y279478D02*
X84387D01*
X82813Y276722D02*
X84387D01*
X72313Y280878D02*
X73887D01*
X72313Y278122D02*
X73887D01*
X63678Y279613D02*
Y281187D01*
X60922Y279613D02*
Y281187D01*
X57013Y292278D02*
X58587D01*
X57013Y289522D02*
X58587D01*
X279030Y103413D02*
Y104987D01*
X276274Y103413D02*
Y104987D01*
X294313Y107922D02*
X295887D01*
X294313Y110678D02*
X295887D01*
X253365Y135178D02*
X254939D01*
X253365Y132422D02*
X254939D01*
X263665Y108378D02*
X265239D01*
X263665Y105622D02*
X265239D01*
X263665Y94022D02*
X265239D01*
X263665Y96778D02*
X265239D01*
X202553Y200913D02*
Y202487D01*
X199797Y200913D02*
Y202487D01*
X195328Y200913D02*
Y202487D01*
X192573Y200913D02*
Y202487D01*
X188104Y200913D02*
Y202487D01*
X185348Y200913D02*
Y202487D01*
X208980Y201013D02*
Y202587D01*
X206224Y201013D02*
Y202587D01*
X228378Y197213D02*
Y198787D01*
X225622Y197213D02*
Y198787D01*
X227913Y121822D02*
X229487D01*
X227913Y124578D02*
X229487D01*
X97894Y39053D02*
Y45746D01*
X97106Y39053D02*
Y45746D01*
Y39053D02*
X97894D01*
X97106Y45746D02*
X97894D01*
X248113Y282378D02*
X249687D01*
X248113Y279622D02*
X249687D01*
X252913Y65059D02*
X254487D01*
X252913Y62303D02*
X254487D01*
X121013Y300422D02*
X122587D01*
X121013Y303178D02*
X122587D01*
X147178Y255213D02*
Y256787D01*
X144422Y255213D02*
Y256787D01*
X162313Y280578D02*
X163887D01*
X162313Y277822D02*
X163887D01*
X186522Y12313D02*
Y13887D01*
X189278Y12313D02*
Y13887D01*
X14900Y1500D02*
Y21500D01*
X144900Y1500D02*
Y21500D01*
X14900D02*
X144900D01*
X14900Y1500D02*
X144900D01*
X165889Y302232D02*
Y309910D01*
X139511Y302232D02*
X165889D01*
X139511D02*
Y309910D01*
X135153Y254088D02*
Y265112D01*
X141847Y254088D02*
Y265112D01*
X135153Y254088D02*
X136138D01*
X135153Y265112D02*
X136138D01*
X140862Y254088D02*
X141847D01*
X140862Y265112D02*
X141847D01*
X154388Y268754D02*
X165412D01*
X154388Y275447D02*
X165412D01*
Y268754D02*
Y269738D01*
X154388Y268754D02*
Y269738D01*
X165412Y274462D02*
Y275447D01*
X154388Y274462D02*
Y275447D01*
X174589Y17832D02*
Y25510D01*
X148211Y17832D02*
X174589D01*
X148211D02*
Y25510D01*
X247125Y269450D02*
X250275D01*
X247125Y275750D02*
X250275D01*
X254425Y52031D02*
X257575D01*
X254425Y58331D02*
X257575D01*
X150650Y211625D02*
Y214775D01*
X144350Y211625D02*
Y214775D01*
X221108Y326443D02*
X228194D01*
X221108Y306757D02*
X228194D01*
X221108D02*
Y326443D01*
X228194Y306757D02*
Y326443D01*
X224594Y257857D02*
Y277542D01*
X217508Y257857D02*
Y277542D01*
Y257857D02*
X224594D01*
X217508Y277542D02*
X224594D01*
X118157Y36164D02*
Y43251D01*
X137843Y36164D02*
Y43251D01*
X118157Y36164D02*
X137843D01*
X118157Y43251D02*
X137843D01*
X153922Y207813D02*
Y209387D01*
X156678Y207813D02*
Y209387D01*
X80113Y273978D02*
X81687D01*
X80113Y271222D02*
X81687D01*
X278970Y150013D02*
Y151587D01*
X281726Y150013D02*
Y151587D01*
X276326Y150113D02*
Y151687D01*
X273570Y150113D02*
Y151687D01*
X257165Y144722D02*
X258739D01*
X257165Y147478D02*
X258739D01*
X152378Y262713D02*
Y264287D01*
X149622Y262713D02*
Y264287D01*
X158013Y261878D02*
X159587D01*
X158013Y259122D02*
X159587D01*
X41713Y263922D02*
X43287D01*
X41713Y266678D02*
X43287D01*
X157132Y250249D02*
X161068D01*
X157132Y256351D02*
X161068D01*
X31513Y263922D02*
X33087D01*
X31513Y266678D02*
X33087D01*
X190113Y76122D02*
X191687D01*
X190113Y78878D02*
X191687D01*
X207476Y316913D02*
Y318487D01*
X204720Y316913D02*
Y318487D01*
X203478Y261613D02*
Y263187D01*
X200722Y261613D02*
Y263187D01*
X203078Y272913D02*
Y274487D01*
X200322Y272913D02*
Y274487D01*
X258143Y67558D02*
Y87243D01*
X251057Y67558D02*
Y87243D01*
Y67558D02*
X258143D01*
X251057Y87243D02*
X258143D01*
X48943Y285557D02*
Y292643D01*
X29258Y285557D02*
Y292643D01*
X48943D01*
X29258Y285557D02*
X48943D01*
X195689Y302432D02*
Y310109D01*
X169311Y302432D02*
X195689D01*
X169311D02*
Y310109D01*
X177611Y52191D02*
Y59868D01*
X203989D01*
Y52191D02*
Y59868D01*
X187143Y257258D02*
Y276942D01*
X180057Y257258D02*
Y276942D01*
Y257258D02*
X187143D01*
X180057Y276942D02*
X187143D01*
X198133Y87500D02*
X217300D01*
X187300D02*
X217300D01*
X187300Y107500D02*
X217300D01*
X187300Y87500D02*
Y107500D01*
X217300Y87500D02*
Y107500D01*
X71625Y298050D02*
X74775D01*
X71625Y304350D02*
X74775D01*
X228200Y133257D02*
X234700D01*
X228200D02*
Y152943D01*
X241200D01*
Y133257D02*
Y152943D01*
X234700Y133257D02*
X241200D01*
X161894Y126994D02*
X211106D01*
X161894Y176206D02*
X211106D01*
X161894Y126994D02*
Y176206D01*
X211106Y126994D02*
Y176206D01*
X48432Y74812D02*
X52368D01*
X48432Y80914D02*
X52368D01*
X48432Y115712D02*
X52368D01*
X48432Y121814D02*
X52368D01*
X48432Y156612D02*
X52368D01*
X48432Y162714D02*
X52368D01*
X48432Y197512D02*
X52368D01*
X48432Y203614D02*
X52368D01*
X48632Y239649D02*
X52569D01*
X48632Y245751D02*
X52569D01*
X48432Y89712D02*
X52368D01*
X48432Y95814D02*
X52368D01*
X48432Y130612D02*
X52368D01*
X48432Y136714D02*
X52368D01*
X48432Y171512D02*
X52368D01*
X48432Y177614D02*
X52368D01*
X48432Y212412D02*
X52368D01*
X48432Y218514D02*
X52368D01*
X48432Y253312D02*
X52368D01*
X48432Y259414D02*
X52368D01*
X299092Y239112D02*
X302242D01*
X299092Y232813D02*
X302242D01*
X299092Y248812D02*
X302242D01*
X299092Y242513D02*
X302242D01*
X299092Y258512D02*
X302242D01*
X299092Y252213D02*
X302242D01*
X248428Y169882D02*
X251972D01*
X248428Y180118D02*
X251972D01*
X233503Y227313D02*
Y240797D01*
X283897Y227313D02*
Y240797D01*
X233503Y190403D02*
Y203887D01*
X283897Y190403D02*
Y203887D01*
X233503Y240797D02*
X283897D01*
X233503Y190403D02*
X283897D01*
X284213Y164278D02*
X285788D01*
X284213Y161522D02*
X285788D01*
X298245Y178975D02*
Y180550D01*
X295489Y178975D02*
Y180550D01*
X307845Y179175D02*
Y180750D01*
X305089Y179175D02*
Y180750D01*
X287278Y178412D02*
Y179987D01*
X284522Y178412D02*
Y179987D01*
X288737Y197626D02*
Y204713D01*
X308422Y197626D02*
Y204713D01*
X306189Y168075D02*
Y169650D01*
X308945Y168075D02*
Y169650D01*
X300789Y168275D02*
Y169850D01*
X303545Y168275D02*
Y169850D01*
X247731Y182949D02*
X251669D01*
X247731Y189051D02*
X251669D01*
X288477Y100150D02*
X291627D01*
X288477Y93850D02*
X291627D01*
X256047Y123806D02*
Y124594D01*
X249354Y123806D02*
Y124594D01*
X256047D01*
X249354Y123806D02*
X256047D01*
X276488Y274946D02*
X287512D01*
X276488Y268253D02*
X287512D01*
X276488Y273962D02*
Y274946D01*
X287512Y273962D02*
Y274946D01*
X276488Y268253D02*
Y269238D01*
X287512Y268253D02*
Y269238D01*
X269309Y264131D02*
X270491D01*
X269309Y255469D02*
X270491D01*
X269309D02*
Y264131D01*
X270491Y255469D02*
Y264131D01*
X134920Y155613D02*
Y157187D01*
X137676Y155613D02*
Y157187D01*
X129318Y155613D02*
Y157187D01*
X132074Y155613D02*
Y157187D01*
X134170Y167513D02*
Y169087D01*
X136926Y167513D02*
Y169087D01*
X128718Y167513D02*
Y169087D01*
X131474Y167513D02*
Y169087D01*
X255513Y248522D02*
X257087D01*
X255513Y251278D02*
X257087D01*
X255513Y242922D02*
X257087D01*
X255513Y245678D02*
X257087D01*
X255513Y260122D02*
X257087D01*
X255513Y262878D02*
X257087D01*
X255513Y254222D02*
X257087D01*
X255513Y256978D02*
X257087D01*
X268235Y187070D02*
X271779D01*
X268235Y176834D02*
X271779D01*
X268335Y173570D02*
X271879D01*
X268335Y163334D02*
X271879D01*
X87522Y42213D02*
Y43787D01*
X90278Y42213D02*
Y43787D01*
X39413Y42322D02*
X40987D01*
X39413Y45078D02*
X40987D01*
X39413Y55978D02*
X40987D01*
X39413Y53222D02*
X40987D01*
X261469Y40409D02*
X270131D01*
X261469Y41591D02*
X270131D01*
X261469Y40409D02*
Y41591D01*
X270131Y40409D02*
Y41591D01*
X242009Y111669D02*
Y120331D01*
X243191Y111669D02*
Y120331D01*
X242009D02*
X243191D01*
X242009Y111669D02*
X243191D01*
X274049Y18531D02*
Y22468D01*
X280151Y18531D02*
Y22468D01*
D78*
X138550Y256900D02*
D03*
D79*
X162600Y272150D02*
D03*
X279300Y271550D02*
D03*
D80*
X202350Y86000D02*
D03*
D81*
X205600Y295750D02*
D03*
M02*
