M48
;Layer_Color=9474304
;FILE_FORMAT=2:5
INCH,TZ
;TYPE=PLATED
T1F00S00C0.01200
;TYPE=NON_PLATED
T2F00S00C0.02559
%
T01
X130405Y-133252
X140305Y-129152
X2273079Y-137230
X2274680Y-139730
X2285679Y-138530
X2289980Y-138930
X2296779Y-137430
X2312779Y-136304
Y-139304
X2315779
X2318780
X2321779
X2324780
X2327780
X2330779
X2333780
Y-136304
X2330779
X2327780
X2324780
X2321779
X2318780
X2315779
Y-133304
X2312779
Y-130304
Y-127304
Y-124304
X2315779
Y-127304
Y-130304
X2318780
Y-133304
X2321779
X2324780
X2327780
X2330779
X2333780
Y-130304
X2330779
X2327780
X2324780
X2321779
Y-127304
X2324780
X2327780
X2330779
X2333780
Y-124304
X2330779
X2327780
X2324780
X2321779
X2318780
Y-127304
Y-121304
X2315779
X2312779
X2321779
X2324780
X2327780
X2330779
X2333780
X165600Y-35227
X160800Y-32927
X157800
X154800
X151800
Y-29427
X154800
X157800
X160800
X160790Y-26021
X157790
X154790
X151790
X110100Y-26227
X106000Y-26027
X106311Y-29123
X101500Y-28727
X96900Y-29027
X99300Y-33800
X103800
X109710Y-32632
X111100Y-29827
X91200Y-37627
X90200Y-22927
X92211Y-15664
X91311Y-5764
X115900Y-4727
X116000Y-927
X84800Y-27927
X78700Y-30427
X66400Y-11027
X177400Y-4127
X180600Y-4227
X184100
X187600
X191100
X194600
X41600Y-6027
X38100
X34600
X31100
X27600
X24400Y-5927
X24500Y-14527
X27700Y-14627
X31200
X34700
X38200
X41700
Y-18527
X38200
X34700
X31200
X27700
X24500Y-18427
X46911Y-32964
X51811Y-32364
T02
X197860Y-23917
X205734
X10630Y-16043
X2756
M30
