%FSLAX25Y25*%
%MOIN*%
G70*
G01*
G75*
G04 Layer_Color=16711935*
%ADD10R,0.06299X0.06299*%
%ADD11C,0.00800*%
%ADD12R,0.13900X8.43450*%
%ADD13R,0.12800X0.39900*%
%ADD14R,0.13700X8.34950*%
%ADD15C,0.06299*%
%ADD16C,0.01000*%
%ADD17C,0.12402*%
%ADD18C,0.02400*%
%ADD19R,0.02756X0.03543*%
%ADD20R,0.04724X0.06299*%
%ADD21R,0.08465X0.05906*%
%ADD22R,0.07874X0.05118*%
%ADD23C,0.02500*%
%ADD24C,0.01000*%
%ADD25R,8.76200X0.23800*%
%ADD26R,8.47300X0.35000*%
%ADD27C,0.06899*%
%ADD28C,0.01600*%
%ADD29C,0.13002*%
%ADD30R,0.03356X0.04143*%
%ADD31R,0.05324X0.06899*%
%ADD32R,0.09065X0.06506*%
%ADD33R,0.08474X0.05718*%
D27*
X159401Y62048D02*
D03*
X773507D02*
D03*
X324807D02*
D03*
X608107D02*
D03*
D28*
X78700Y25500D02*
D03*
X393800Y36400D02*
D03*
X539400D02*
D03*
X854400Y25600D02*
D03*
X854300Y1039400D02*
D03*
X539400Y1028600D02*
D03*
X393800D02*
D03*
X78800Y1039400D02*
D03*
D29*
X27582Y25615D02*
D03*
X905536D02*
D03*
X905600Y1039500D02*
D03*
X27700Y1039400D02*
D03*
D30*
X469476Y533712D02*
D03*
X463571D02*
D03*
D31*
X151921Y62048D02*
D03*
X166882D02*
D03*
X780987D02*
D03*
X766027D02*
D03*
X332287D02*
D03*
X317327D02*
D03*
X615587D02*
D03*
X600627D02*
D03*
D32*
X28370Y754297D02*
D03*
Y709809D02*
D03*
Y762612D02*
D03*
Y807100D02*
D03*
D33*
X38804Y746816D02*
D03*
Y736816D02*
D03*
Y726816D02*
D03*
Y716816D02*
D03*
Y769620D02*
D03*
Y779620D02*
D03*
Y789620D02*
D03*
Y799620D02*
D03*
M02*
