%FSLAX25Y25*%
%MOIN*%
G70*
G01*
G75*
G04 Layer_Color=16711935*
%ADD10R,0.06299X0.06299*%
%ADD11C,0.00800*%
%ADD12R,0.13900X8.43450*%
%ADD13R,0.12800X0.39900*%
%ADD14R,0.13700X8.34950*%
%ADD15C,0.06299*%
%ADD16C,0.01000*%
%ADD17C,0.12402*%
%ADD18C,0.02400*%
%ADD19R,0.02756X0.03543*%
%ADD20R,0.04724X0.06299*%
%ADD21R,0.08465X0.05906*%
%ADD22R,0.07874X0.05118*%
%ADD23C,0.02500*%
%ADD24C,0.01000*%
%ADD25R,8.76200X0.23800*%
%ADD26R,8.47300X0.35000*%
%ADD27C,0.06899*%
%ADD28C,0.01600*%
%ADD29C,0.13002*%
%ADD30R,0.03356X0.04143*%
%ADD31R,0.05324X0.06899*%
%ADD32R,0.09065X0.06506*%
%ADD33R,0.08474X0.05718*%
%ADD34R,0.07865X0.05306*%
%ADD35R,0.07274X0.04518*%
%ADD36C,0.00787*%
%ADD37C,0.00600*%
%ADD38R,0.02700X0.08700*%
D24*
X929134Y989888D02*
G03*
X933071Y996707I-3937J6819D01*
G01*
Y1061058D02*
G03*
X929134Y1064995I-3937J0D01*
G01*
X627953D02*
G03*
X624016Y1061058I0J-3937D01*
G01*
X616142Y1043342D02*
G03*
X624016Y1051216I0J7874D01*
G01*
X309055D02*
G03*
X316929Y1043342I7874J0D01*
G01*
X309055Y1061058D02*
G03*
X305118Y1064995I-3937J0D01*
G01*
X3937D02*
G03*
X0Y1061058I0J-3937D01*
G01*
Y996707D02*
G03*
X3937Y989888I7874J0D01*
G01*
X17717Y979659D02*
G03*
X15748Y983068I-3937J0D01*
G01*
Y81961D02*
G03*
X17717Y85370I-1969J3410D01*
G01*
X3937Y75142D02*
G03*
X0Y68323I3937J-6819D01*
G01*
Y3971D02*
G03*
X3937Y34I3937J0D01*
G01*
X324803D02*
G03*
X328740Y3971I0J3937D01*
G01*
X336614Y21688D02*
G03*
X328740Y13814I0J-7874D01*
G01*
X604331D02*
G03*
X596457Y21688I-7874J0D01*
G01*
X604331Y3971D02*
G03*
X608268Y34I3937J0D01*
G01*
X929134D02*
G03*
X933071Y3971I0J3937D01*
G01*
Y68323D02*
G03*
X929134Y75142I-7874J0D01*
G01*
X915355Y85370D02*
G03*
X917323Y81961I3937J0D01*
G01*
Y983068D02*
G03*
X915355Y979659I1969J-3410D01*
G01*
X933071Y996707D02*
Y1061058D01*
X627953Y1064995D02*
X929134D01*
X624016Y1051216D02*
Y1061058D01*
X316929Y1043342D02*
X616142D01*
X309055Y1051216D02*
Y1061058D01*
X3937Y1064995D02*
X305118D01*
X0Y996707D02*
Y1061058D01*
X3937Y989888D02*
X15748Y983068D01*
X17717Y85370D02*
Y979659D01*
X3937Y75142D02*
X15748Y81961D01*
X0Y3971D02*
Y68323D01*
X3937Y34D02*
X324803D01*
X328740Y3971D02*
Y13814D01*
X336614Y21688D02*
X596457D01*
X604331Y3971D02*
Y13814D01*
X608268Y34D02*
X929134D01*
X933071Y3971D02*
Y68323D01*
X917323Y81961D02*
X929134Y75142D01*
X915355Y85370D02*
Y979659D01*
X917323Y983068D02*
X929134Y989888D01*
M02*
