%FSLAX25Y25*%
%MOIN*%
G70*
G01*
G75*
G04 Layer_Color=32896*
%ADD10R,0.06299X0.06299*%
%ADD11C,0.00800*%
%ADD12R,0.13900X8.43450*%
%ADD13R,0.12800X0.39900*%
%ADD14R,0.13700X8.34950*%
%ADD15C,0.06299*%
%ADD16C,0.01000*%
%ADD17C,0.12402*%
%ADD18C,0.02400*%
%ADD19R,0.02756X0.03543*%
%ADD20R,0.04724X0.06299*%
%ADD21R,0.08465X0.05906*%
%ADD22R,0.07874X0.05118*%
%ADD23C,0.02500*%
%ADD24C,0.01000*%
%ADD25R,8.76200X0.23800*%
%ADD26R,8.47300X0.35000*%
%ADD27C,0.06899*%
%ADD28C,0.01600*%
%ADD29C,0.13002*%
%ADD30R,0.03356X0.04143*%
%ADD31R,0.05324X0.06899*%
%ADD32R,0.09065X0.06506*%
%ADD33R,0.08474X0.05718*%
%ADD34R,0.07865X0.05306*%
%ADD35R,0.07274X0.04518*%
%ADD36C,0.00787*%
%ADD37C,0.00600*%
%ADD38R,0.02700X0.08700*%
D24*
X783880Y75348D02*
Y69350D01*
X780880D01*
X779881Y70350D01*
Y74348D01*
X780880Y75348D01*
X783880D01*
X777881Y69350D02*
X775882D01*
X776882D01*
Y75348D01*
X777881Y74348D01*
X169844Y75348D02*
Y69350D01*
X166845D01*
X165845Y70350D01*
Y74348D01*
X166845Y75348D01*
X169844D01*
X159847Y69350D02*
X163846D01*
X159847Y73349D01*
Y74348D01*
X160847Y75348D01*
X162846D01*
X163846Y74348D01*
X37903Y812756D02*
Y818754D01*
X34904D01*
X33904Y817754D01*
Y815755D01*
X34904Y814755D01*
X37903D01*
X31905Y812756D02*
X29905D01*
X30905D01*
Y818754D01*
X31905Y817754D01*
X43103Y710653D02*
X49101D01*
Y713652D01*
X48101Y714651D01*
X46102D01*
X45102Y713652D01*
Y710653D01*
X43103Y720649D02*
Y716651D01*
X47102Y720649D01*
X48101D01*
X49101Y719650D01*
Y717650D01*
X48101Y716651D01*
X473723Y545812D02*
Y551810D01*
X470724D01*
X469725Y550811D01*
Y548811D01*
X470724Y547812D01*
X473723D01*
X471724D02*
X469725Y545812D01*
X467725Y551810D02*
X463727D01*
X465726D01*
Y545812D01*
X461727D02*
X459728D01*
X460728D01*
Y551810D01*
X461727Y550811D01*
X335223Y75396D02*
Y69398D01*
X332224D01*
X331225Y70397D01*
Y74396D01*
X332224Y75396D01*
X335223D01*
X329225Y74396D02*
X328226Y75396D01*
X326226D01*
X325227Y74396D01*
Y73396D01*
X326226Y72397D01*
X327226D01*
X326226D01*
X325227Y71397D01*
Y70397D01*
X326226Y69398D01*
X328226D01*
X329225Y70397D01*
X618523Y75296D02*
Y69298D01*
X615524D01*
X614525Y70297D01*
Y74296D01*
X615524Y75296D01*
X618523D01*
X609526Y69298D02*
Y75296D01*
X612525Y72297D01*
X608527D01*
D36*
X465736Y535090D02*
X467311D01*
X465736Y532334D02*
X467311D01*
D37*
X170494Y57948D02*
Y66048D01*
X148094Y57948D02*
X170494D01*
X148094D02*
Y66048D01*
X170494D01*
X762200D02*
X784600D01*
X762200Y57948D02*
Y66048D01*
Y57948D02*
X784600D01*
Y66048D01*
X39835Y705716D02*
Y758416D01*
X15635D02*
X39835D01*
X15635Y705716D02*
Y758416D01*
Y705716D02*
X39835D01*
X15635Y758520D02*
X39835D01*
X15635D02*
Y811220D01*
X39835D01*
Y758520D02*
Y811220D01*
X313500Y66048D02*
X335900D01*
X313500Y57948D02*
Y66048D01*
Y57948D02*
X335900D01*
Y66048D01*
X596800D02*
X619200D01*
X596800Y57948D02*
Y66048D01*
Y57948D02*
X619200D01*
Y66048D01*
D38*
X146744Y61998D02*
D03*
X760850D02*
D03*
X312150D02*
D03*
X595450D02*
D03*
M02*
