%FSLAX25Y25*%
%MOIN*%
G70*
G01*
G75*
G04 Layer_Color=2752767*
%ADD10R,0.06299X0.06299*%
%ADD11C,0.00800*%
%ADD12R,0.13900X8.43450*%
%ADD13R,0.12800X0.39900*%
%ADD14R,0.13700X8.34950*%
%ADD15C,0.06299*%
%ADD16C,0.01000*%
%ADD17C,0.12402*%
%ADD18C,0.02400*%
%ADD19R,0.02756X0.03543*%
%ADD20R,0.04724X0.06299*%
%ADD21R,0.08465X0.05906*%
%ADD22R,0.07874X0.05118*%
%ADD23C,0.02500*%
%ADD24C,0.01000*%
%ADD25R,8.76200X0.23800*%
%ADD26R,8.47300X0.35000*%
%ADD27C,0.06899*%
%ADD28C,0.01600*%
%ADD29C,0.13002*%
%ADD30R,0.03356X0.04143*%
%ADD31R,0.05324X0.06899*%
%ADD32R,0.09065X0.06506*%
%ADD33R,0.08474X0.05718*%
%ADD34R,0.07865X0.05306*%
%ADD35R,0.07274X0.04518*%
%ADD36C,0.00787*%
%ADD37C,0.00600*%
%ADD38R,0.02700X0.08700*%
%ADD39C,0.00500*%
%ADD40C,0.00667*%
D39*
X157401Y60048D02*
Y64048D01*
X161401D01*
Y60048D01*
X157401D01*
X771507D02*
Y64048D01*
X775507D01*
Y60048D01*
X771507D01*
X27582Y23615D02*
X25583Y27615D01*
X29583D01*
X27582Y23615D01*
X905536D02*
X903536Y27615D01*
X907536D01*
X905536Y23615D01*
X905600Y1037500D02*
X903600Y1041500D01*
X907600D01*
X905600Y1037500D01*
X27700Y1037400D02*
X25700Y1041400D01*
X29700D01*
X27700Y1037400D01*
X322807Y60048D02*
Y64048D01*
X326807D01*
Y60048D01*
X322807D01*
X606107D02*
Y64048D01*
X610107D01*
Y60048D01*
X606107D01*
X473123Y527212D02*
X474123Y528212D01*
X475123D01*
X474123Y529212D01*
X475123Y530212D01*
X474123D01*
X473123Y531212D01*
X472123Y530212D01*
X471123D01*
X472123Y529212D01*
X471123Y528212D01*
X472123D01*
X473123Y527212D01*
X469823D02*
X470823Y528212D01*
X471823D01*
X470823Y529212D01*
X471823Y530212D01*
X470823D01*
X469823Y531212D01*
X468823Y530212D01*
X467823D01*
X468823Y529212D01*
X467823Y528212D01*
X468823D01*
X469823Y527212D01*
X466523D02*
X467523Y528212D01*
X468523D01*
X467523Y529212D01*
X468523Y530212D01*
X467523D01*
X466523Y531212D01*
X465523Y530212D01*
X464523D01*
X465523Y529212D01*
X464523Y528212D01*
X465523D01*
X466523Y527212D01*
X463323D02*
X464323Y528212D01*
X465323D01*
X464323Y529212D01*
X465323Y530212D01*
X464323D01*
X463323Y531212D01*
X462323Y530212D01*
X461323D01*
X462323Y529212D01*
X461323Y528212D01*
X462323D01*
X463323Y527212D01*
X460223D02*
X461223Y528212D01*
X462223D01*
X461223Y529212D01*
X462223Y530212D01*
X461223D01*
X460223Y531212D01*
X459223Y530212D01*
X458223D01*
X459223Y529212D01*
X458223Y528212D01*
X459223D01*
X460223Y527212D01*
X34977Y814240D02*
X35977Y815240D01*
X36977D01*
X35977Y816241D01*
X36977Y817241D01*
X35977D01*
X34977Y818241D01*
X33977Y817241D01*
X32977D01*
X33977Y816241D01*
X32977Y815240D01*
X33977D01*
X34977Y814240D01*
X30977D02*
X31977Y815240D01*
X32977D01*
X31977Y816241D01*
X32977Y817241D01*
X31977D01*
X30977Y818241D01*
X29977Y817241D01*
X28977D01*
X29977Y816241D01*
X28977Y815240D01*
X29977D01*
X30977Y814240D01*
X26977D02*
X27977Y815240D01*
X28977D01*
X27977Y816241D01*
X28977Y817241D01*
X27977D01*
X26977Y818241D01*
X25977Y817241D01*
X24977D01*
X25977Y816241D01*
X24977Y815240D01*
X25977D01*
X26977Y814240D01*
Y818241D02*
X27977Y819240D01*
X28977D01*
X27977Y820240D01*
X28977Y821241D01*
X27977D01*
X26977Y822241D01*
X25977Y821241D01*
X24977D01*
X25977Y820240D01*
X24977Y819240D01*
X25977D01*
X26977Y818241D01*
X30977D02*
X31977Y819240D01*
X32977D01*
X31977Y820240D01*
X32977Y821241D01*
X31977D01*
X30977Y822241D01*
X29977Y821241D01*
X28977D01*
X29977Y820240D01*
X28977Y819240D01*
X29977D01*
X30977Y818241D01*
X34977D02*
X35977Y819240D01*
X36977D01*
X35977Y820240D01*
X36977Y821241D01*
X35977D01*
X34977Y822241D01*
X33977Y821241D01*
X32977D01*
X33977Y820240D01*
X32977Y819240D01*
X33977D01*
X34977Y818241D01*
X26977Y822241D02*
X27977Y823240D01*
X28977D01*
X27977Y824240D01*
X28977Y825241D01*
X27977D01*
X26977Y826241D01*
X25977Y825241D01*
X24977D01*
X25977Y824240D01*
X24977Y823240D01*
X25977D01*
X26977Y822241D01*
X30977D02*
X31977Y823240D01*
X32977D01*
X31977Y824240D01*
X32977Y825241D01*
X31977D01*
X30977Y826241D01*
X29977Y825241D01*
X28977D01*
X29977Y824240D01*
X28977Y823240D01*
X29977D01*
X30977Y822241D01*
X34977D02*
X35977Y823240D01*
X36977D01*
X35977Y824240D01*
X36977Y825241D01*
X35977D01*
X34977Y826241D01*
X33977Y825241D01*
X32977D01*
X33977Y824240D01*
X32977Y823240D01*
X33977D01*
X34977Y822241D01*
X26977Y826241D02*
X27977Y827240D01*
X28977D01*
X27977Y828240D01*
X28977Y829241D01*
X27977D01*
X26977Y830241D01*
X25977Y829241D01*
X24977D01*
X25977Y828240D01*
X24977Y827240D01*
X25977D01*
X26977Y826241D01*
X30977D02*
X31977Y827240D01*
X32977D01*
X31977Y828240D01*
X32977Y829241D01*
X31977D01*
X30977Y830241D01*
X29977Y829241D01*
X28977D01*
X29977Y828240D01*
X28977Y827240D01*
X29977D01*
X30977Y826241D01*
X34977D02*
X35977Y827240D01*
X36977D01*
X35977Y828240D01*
X36977Y829241D01*
X35977D01*
X34977Y830241D01*
X33977Y829241D01*
X32977D01*
X33977Y828240D01*
X32977Y827240D01*
X33977D01*
X34977Y826241D01*
X26977Y830241D02*
X27977Y831240D01*
X28977D01*
X27977Y832240D01*
X28977Y833241D01*
X27977D01*
X26977Y834241D01*
X25977Y833241D01*
X24977D01*
X25977Y832240D01*
X24977Y831240D01*
X25977D01*
X26977Y830241D01*
X30977D02*
X31977Y831240D01*
X32977D01*
X31977Y832240D01*
X32977Y833241D01*
X31977D01*
X30977Y834241D01*
X29977Y833241D01*
X28977D01*
X29977Y832240D01*
X28977Y831240D01*
X29977D01*
X30977Y830241D01*
X34977D02*
X35977Y831240D01*
X36977D01*
X35977Y832240D01*
X36977Y833241D01*
X35977D01*
X34977Y834241D01*
X33977Y833241D01*
X32977D01*
X33977Y832240D01*
X32977Y831240D01*
X33977D01*
X34977Y830241D01*
X897623Y787250D02*
X898623Y788250D01*
X899623D01*
X898623Y789250D01*
X899623Y790250D01*
X898623D01*
X897623Y791250D01*
X896623Y790250D01*
X895623D01*
X896623Y789250D01*
X895623Y788250D01*
X896623D01*
X897623Y787250D01*
X901623D02*
X902623Y788250D01*
X903623D01*
X902623Y789250D01*
X903623Y790250D01*
X902623D01*
X901623Y791250D01*
X900623Y790250D01*
X899623D01*
X900623Y789250D01*
X899623Y788250D01*
X900623D01*
X901623Y787250D01*
X905623D02*
X906623Y788250D01*
X907623D01*
X906623Y789250D01*
X907623Y790250D01*
X906623D01*
X905623Y791250D01*
X904623Y790250D01*
X903623D01*
X904623Y789250D01*
X903623Y788250D01*
X904623D01*
X905623Y787250D01*
X897623Y791250D02*
X898623Y792250D01*
X899623D01*
X898623Y793250D01*
X899623Y794250D01*
X898623D01*
X897623Y795250D01*
X896623Y794250D01*
X895623D01*
X896623Y793250D01*
X895623Y792250D01*
X896623D01*
X897623Y791250D01*
X901623D02*
X902623Y792250D01*
X903623D01*
X902623Y793250D01*
X903623Y794250D01*
X902623D01*
X901623Y795250D01*
X900623Y794250D01*
X899623D01*
X900623Y793250D01*
X899623Y792250D01*
X900623D01*
X901623Y791250D01*
X905623D02*
X906623Y792250D01*
X907623D01*
X906623Y793250D01*
X907623Y794250D01*
X906623D01*
X905623Y795250D01*
X904623Y794250D01*
X903623D01*
X904623Y793250D01*
X903623Y792250D01*
X904623D01*
X905623Y791250D01*
X897623Y795250D02*
X898623Y796250D01*
X899623D01*
X898623Y797250D01*
X899623Y798250D01*
X898623D01*
X897623Y799250D01*
X896623Y798250D01*
X895623D01*
X896623Y797250D01*
X895623Y796250D01*
X896623D01*
X897623Y795250D01*
X901623D02*
X902623Y796250D01*
X903623D01*
X902623Y797250D01*
X903623Y798250D01*
X902623D01*
X901623Y799250D01*
X900623Y798250D01*
X899623D01*
X900623Y797250D01*
X899623Y796250D01*
X900623D01*
X901623Y795250D01*
X905623D02*
X906623Y796250D01*
X907623D01*
X906623Y797250D01*
X907623Y798250D01*
X906623D01*
X905623Y799250D01*
X904623Y798250D01*
X903623D01*
X904623Y797250D01*
X903623Y796250D01*
X904623D01*
X905623Y795250D01*
X897623Y799250D02*
X898623Y800250D01*
X899623D01*
X898623Y801250D01*
X899623Y802250D01*
X898623D01*
X897623Y803250D01*
X896623Y802250D01*
X895623D01*
X896623Y801250D01*
X895623Y800250D01*
X896623D01*
X897623Y799250D01*
X901623D02*
X902623Y800250D01*
X903623D01*
X902623Y801250D01*
X903623Y802250D01*
X902623D01*
X901623Y803250D01*
X900623Y802250D01*
X899623D01*
X900623Y801250D01*
X899623Y800250D01*
X900623D01*
X901623Y799250D01*
X905623D02*
X906623Y800250D01*
X907623D01*
X906623Y801250D01*
X907623Y802250D01*
X906623D01*
X905623Y803250D01*
X904623Y802250D01*
X903623D01*
X904623Y801250D01*
X903623Y800250D01*
X904623D01*
X905623Y799250D01*
Y803250D02*
X906623Y804250D01*
X907623D01*
X906623Y805250D01*
X907623Y806250D01*
X906623D01*
X905623Y807250D01*
X904623Y806250D01*
X903623D01*
X904623Y805250D01*
X903623Y804250D01*
X904623D01*
X905623Y803250D01*
X901623D02*
X902623Y804250D01*
X903623D01*
X902623Y805250D01*
X903623Y806250D01*
X902623D01*
X901623Y807250D01*
X900623Y806250D01*
X899623D01*
X900623Y805250D01*
X899623Y804250D01*
X900623D01*
X901623Y803250D01*
X897623D02*
X898623Y804250D01*
X899623D01*
X898623Y805250D01*
X899623Y806250D01*
X898623D01*
X897623Y807250D01*
X896623Y806250D01*
X895623D01*
X896623Y805250D01*
X895623Y804250D01*
X896623D01*
X897623Y803250D01*
X34977Y842540D02*
X35977Y843540D01*
X36977D01*
X35977Y844541D01*
X36977Y845541D01*
X35977D01*
X34977Y846541D01*
X33977Y845541D01*
X32977D01*
X33977Y844541D01*
X32977Y843540D01*
X33977D01*
X34977Y842540D01*
X30977D02*
X31977Y843540D01*
X32977D01*
X31977Y844541D01*
X32977Y845541D01*
X31977D01*
X30977Y846541D01*
X29977Y845541D01*
X28977D01*
X29977Y844541D01*
X28977Y843540D01*
X29977D01*
X30977Y842540D01*
X26977D02*
X27977Y843540D01*
X28977D01*
X27977Y844541D01*
X28977Y845541D01*
X27977D01*
X26977Y846541D01*
X25977Y845541D01*
X24977D01*
X25977Y844541D01*
X24977Y843540D01*
X25977D01*
X26977Y842540D01*
X34977Y838540D02*
X35977Y839540D01*
X36977D01*
X35977Y840541D01*
X36977Y841541D01*
X35977D01*
X34977Y842540D01*
X33977Y841541D01*
X32977D01*
X33977Y840541D01*
X32977Y839540D01*
X33977D01*
X34977Y838540D01*
X30977D02*
X31977Y839540D01*
X32977D01*
X31977Y840541D01*
X32977Y841541D01*
X31977D01*
X30977Y842540D01*
X29977Y841541D01*
X28977D01*
X29977Y840541D01*
X28977Y839540D01*
X29977D01*
X30977Y838540D01*
X26977D02*
X27977Y839540D01*
X28977D01*
X27977Y840541D01*
X28977Y841541D01*
X27977D01*
X26977Y842540D01*
X25977Y841541D01*
X24977D01*
X25977Y840541D01*
X24977Y839540D01*
X25977D01*
X26977Y838540D01*
X34977Y834540D02*
X35977Y835540D01*
X36977D01*
X35977Y836541D01*
X36977Y837541D01*
X35977D01*
X34977Y838540D01*
X33977Y837541D01*
X32977D01*
X33977Y836541D01*
X32977Y835540D01*
X33977D01*
X34977Y834540D01*
X30977D02*
X31977Y835540D01*
X32977D01*
X31977Y836541D01*
X32977Y837541D01*
X31977D01*
X30977Y838540D01*
X29977Y837541D01*
X28977D01*
X29977Y836541D01*
X28977Y835540D01*
X29977D01*
X30977Y834540D01*
X26977D02*
X27977Y835540D01*
X28977D01*
X27977Y836541D01*
X28977Y837541D01*
X27977D01*
X26977Y838540D01*
X25977Y837541D01*
X24977D01*
X25977Y836541D01*
X24977Y835540D01*
X25977D01*
X26977Y834540D01*
X897623Y783250D02*
X898623Y784250D01*
X899623D01*
X898623Y785250D01*
X899623Y786250D01*
X898623D01*
X897623Y787250D01*
X896623Y786250D01*
X895623D01*
X896623Y785250D01*
X895623Y784250D01*
X896623D01*
X897623Y783250D01*
X901623D02*
X902623Y784250D01*
X903623D01*
X902623Y785250D01*
X903623Y786250D01*
X902623D01*
X901623Y787250D01*
X900623Y786250D01*
X899623D01*
X900623Y785250D01*
X899623Y784250D01*
X900623D01*
X901623Y783250D01*
X905623D02*
X906623Y784250D01*
X907623D01*
X906623Y785250D01*
X907623Y786250D01*
X906623D01*
X905623Y787250D01*
X904623Y786250D01*
X903623D01*
X904623Y785250D01*
X903623Y784250D01*
X904623D01*
X905623Y783250D01*
Y779250D02*
X906623Y780250D01*
X907623D01*
X906623Y781250D01*
X907623Y782250D01*
X906623D01*
X905623Y783250D01*
X904623Y782250D01*
X903623D01*
X904623Y781250D01*
X903623Y780250D01*
X904623D01*
X905623Y779250D01*
X901623D02*
X902623Y780250D01*
X903623D01*
X902623Y781250D01*
X903623Y782250D01*
X902623D01*
X901623Y783250D01*
X900623Y782250D01*
X899623D01*
X900623Y781250D01*
X899623Y780250D01*
X900623D01*
X901623Y779250D01*
X897623D02*
X898623Y780250D01*
X899623D01*
X898623Y781250D01*
X899623Y782250D01*
X898623D01*
X897623Y783250D01*
X896623Y782250D01*
X895623D01*
X896623Y781250D01*
X895623Y780250D01*
X896623D01*
X897623Y779250D01*
X905623Y775250D02*
X906623Y776250D01*
X907623D01*
X906623Y777250D01*
X907623Y778250D01*
X906623D01*
X905623Y779250D01*
X904623Y778250D01*
X903623D01*
X904623Y777250D01*
X903623Y776250D01*
X904623D01*
X905623Y775250D01*
X901623D02*
X902623Y776250D01*
X903623D01*
X902623Y777250D01*
X903623Y778250D01*
X902623D01*
X901623Y779250D01*
X900623Y778250D01*
X899623D01*
X900623Y777250D01*
X899623Y776250D01*
X900623D01*
X901623Y775250D01*
X897623D02*
X898623Y776250D01*
X899623D01*
X898623Y777250D01*
X899623Y778250D01*
X898623D01*
X897623Y779250D01*
X896623Y778250D01*
X895623D01*
X896623Y777250D01*
X895623Y776250D01*
X896623D01*
X897623Y775250D01*
X905623Y771250D02*
X906623Y772250D01*
X907623D01*
X906623Y773250D01*
X907623Y774250D01*
X906623D01*
X905623Y775250D01*
X904623Y774250D01*
X903623D01*
X904623Y773250D01*
X903623Y772250D01*
X904623D01*
X905623Y771250D01*
X901623D02*
X902623Y772250D01*
X903623D01*
X902623Y773250D01*
X903623Y774250D01*
X902623D01*
X901623Y775250D01*
X900623Y774250D01*
X899623D01*
X900623Y773250D01*
X899623Y772250D01*
X900623D01*
X901623Y771250D01*
X897623D02*
X898623Y772250D01*
X899623D01*
X898623Y773250D01*
X899623Y774250D01*
X898623D01*
X897623Y775250D01*
X896623Y774250D01*
X895623D01*
X896623Y773250D01*
X895623Y772250D01*
X896623D01*
X897623Y771250D01*
X905623Y767250D02*
X906623Y768250D01*
X907623D01*
X906623Y769250D01*
X907623Y770250D01*
X906623D01*
X905623Y771250D01*
X904623Y770250D01*
X903623D01*
X904623Y769250D01*
X903623Y768250D01*
X904623D01*
X905623Y767250D01*
X901623D02*
X902623Y768250D01*
X903623D01*
X902623Y769250D01*
X903623Y770250D01*
X902623D01*
X901623Y771250D01*
X900623Y770250D01*
X899623D01*
X900623Y769250D01*
X899623Y768250D01*
X900623D01*
X901623Y767250D01*
X897623D02*
X898623Y768250D01*
X899623D01*
X898623Y769250D01*
X899623Y770250D01*
X898623D01*
X897623Y771250D01*
X896623Y770250D01*
X895623D01*
X896623Y769250D01*
X895623Y768250D01*
X896623D01*
X897623Y767250D01*
X897600Y759200D02*
X898600Y760200D01*
X899600D01*
X898600Y761200D01*
X899600Y762200D01*
X898600D01*
X897600Y763200D01*
X896600Y762200D01*
X895600D01*
X896600Y761200D01*
X895600Y760200D01*
X896600D01*
X897600Y759200D01*
X901600D02*
X902600Y760200D01*
X903600D01*
X902600Y761200D01*
X903600Y762200D01*
X902600D01*
X901600Y763200D01*
X900600Y762200D01*
X899600D01*
X900600Y761200D01*
X899600Y760200D01*
X900600D01*
X901600Y759200D01*
X905600D02*
X906600Y760200D01*
X907600D01*
X906600Y761200D01*
X907600Y762200D01*
X906600D01*
X905600Y763200D01*
X904600Y762200D01*
X903600D01*
X904600Y761200D01*
X903600Y760200D01*
X904600D01*
X905600Y759200D01*
X897600Y763200D02*
X898600Y764200D01*
X899600D01*
X898600Y765200D01*
X899600Y766200D01*
X898600D01*
X897600Y767200D01*
X896600Y766200D01*
X895600D01*
X896600Y765200D01*
X895600Y764200D01*
X896600D01*
X897600Y763200D01*
X901600D02*
X902600Y764200D01*
X903600D01*
X902600Y765200D01*
X903600Y766200D01*
X902600D01*
X901600Y767200D01*
X900600Y766200D01*
X899600D01*
X900600Y765200D01*
X899600Y764200D01*
X900600D01*
X901600Y763200D01*
X905600D02*
X906600Y764200D01*
X907600D01*
X906600Y765200D01*
X907600Y766200D01*
X906600D01*
X905600Y767200D01*
X904600Y766200D01*
X903600D01*
X904600Y765200D01*
X903600Y764200D01*
X904600D01*
X905600Y763200D01*
X897600Y811300D02*
X898600Y812300D01*
X899600D01*
X898600Y813300D01*
X899600Y814300D01*
X898600D01*
X897600Y815300D01*
X896600Y814300D01*
X895600D01*
X896600Y813300D01*
X895600Y812300D01*
X896600D01*
X897600Y811300D01*
X901600D02*
X902600Y812300D01*
X903600D01*
X902600Y813300D01*
X903600Y814300D01*
X902600D01*
X901600Y815300D01*
X900600Y814300D01*
X899600D01*
X900600Y813300D01*
X899600Y812300D01*
X900600D01*
X901600Y811300D01*
X905600D02*
X906600Y812300D01*
X907600D01*
X906600Y813300D01*
X907600Y814300D01*
X906600D01*
X905600Y815300D01*
X904600Y814300D01*
X903600D01*
X904600Y813300D01*
X903600Y812300D01*
X904600D01*
X905600Y811300D01*
Y807300D02*
X906600Y808300D01*
X907600D01*
X906600Y809300D01*
X907600Y810300D01*
X906600D01*
X905600Y811300D01*
X904600Y810300D01*
X903600D01*
X904600Y809300D01*
X903600Y808300D01*
X904600D01*
X905600Y807300D01*
X901600D02*
X902600Y808300D01*
X903600D01*
X902600Y809300D01*
X903600Y810300D01*
X902600D01*
X901600Y811300D01*
X900600Y810300D01*
X899600D01*
X900600Y809300D01*
X899600Y808300D01*
X900600D01*
X901600Y807300D01*
X897600D02*
X898600Y808300D01*
X899600D01*
X898600Y809300D01*
X899600Y810300D01*
X898600D01*
X897600Y811300D01*
X896600Y810300D01*
X895600D01*
X896600Y809300D01*
X895600Y808300D01*
X896600D01*
X897600Y807300D01*
D40*
X80700Y25500D02*
G03*
X80700Y25500I-2000J0D01*
G01*
X395800Y36400D02*
G03*
X395800Y36400I-2000J0D01*
G01*
X541400D02*
G03*
X541400Y36400I-2000J0D01*
G01*
X856400Y25600D02*
G03*
X856400Y25600I-2000J0D01*
G01*
X856300Y1039400D02*
G03*
X856300Y1039400I-2000J0D01*
G01*
X541400Y1028600D02*
G03*
X541400Y1028600I-2000J0D01*
G01*
X395800D02*
G03*
X395800Y1028600I-2000J0D01*
G01*
X80800Y1039400D02*
G03*
X80800Y1039400I-2000J0D01*
G01*
M02*
