%FSLAX25Y25*%
%MOIN*%
G70*
G01*
G75*
G04 Layer_Physical_Order=1*
G04 Layer_Color=255*
%ADD10R,0.05512X0.23622*%
%ADD11R,0.05000X0.11496*%
%ADD12R,0.11496X0.05000*%
%ADD13C,0.02000*%
%ADD14C,0.02500*%
%ADD15C,0.01000*%
G36*
X204951Y97900D02*
X205141Y97441D01*
X205600Y97251D01*
X241251D01*
Y89200D01*
X241441Y88741D01*
X271551Y58631D01*
Y46749D01*
X246300D01*
X245841Y46559D01*
X245822Y46513D01*
X245331Y46611D01*
Y63800D01*
X245207Y64424D01*
X244853Y64954D01*
X233554Y76253D01*
X233024Y76607D01*
X232400Y76731D01*
X228953D01*
X227330Y78354D01*
X226801Y78707D01*
X226177Y78831D01*
X182000D01*
Y129900D01*
X204951D01*
Y97900D01*
D02*
G37*
G36*
X252289Y130146D02*
X254052Y129722D01*
X255728Y129028D01*
X257274Y128081D01*
X258653Y126903D01*
X259831Y125524D01*
X260779Y123977D01*
X261473Y122302D01*
X261896Y120538D01*
X262038Y118730D01*
X262021Y118504D01*
X262021D01*
X262030Y118493D01*
X262027Y118480D01*
Y92119D01*
X262016Y92064D01*
X262011Y92064D01*
X261989Y91790D01*
X262162Y89597D01*
X262675Y87459D01*
X263517Y85427D01*
X264666Y83552D01*
X266094Y81879D01*
X267766Y80451D01*
X269642Y79302D01*
X271673Y78460D01*
X273812Y77947D01*
X276004Y77774D01*
X276279Y77796D01*
X276279Y77796D01*
Y77796D01*
X276279Y77797D01*
X292800D01*
Y66719D01*
X292683Y66622D01*
X291870Y65632D01*
X291266Y64502D01*
X290894Y63275D01*
X290768Y62000D01*
X290894Y60725D01*
X291266Y59498D01*
X291870Y58368D01*
X292683Y57378D01*
X292800Y57281D01*
Y26300D01*
X246300D01*
Y46100D01*
X272200D01*
Y58900D01*
X241900Y89200D01*
Y97900D01*
X205600D01*
Y130277D01*
X250230D01*
X250244Y130279D01*
X250255Y130270D01*
Y130270D01*
X250481Y130288D01*
X252289Y130146D01*
D02*
G37*
D10*
X191565Y115311D02*
D03*
X201565D02*
D03*
X211565D02*
D03*
X221565D02*
D03*
X168665D02*
D03*
X158665D02*
D03*
X148665D02*
D03*
X138665D02*
D03*
D11*
X48368Y39756D02*
D03*
X36557D02*
D03*
Y57945D02*
D03*
X48368D02*
D03*
X12935D02*
D03*
Y39756D02*
D03*
X24746D02*
D03*
Y57945D02*
D03*
X238546D02*
D03*
Y39756D02*
D03*
X226735D02*
D03*
Y57945D02*
D03*
X262168D02*
D03*
X250357D02*
D03*
Y39756D02*
D03*
X262168D02*
D03*
X155268D02*
D03*
X143457D02*
D03*
Y57945D02*
D03*
X155268D02*
D03*
X119835D02*
D03*
Y39756D02*
D03*
X131646D02*
D03*
Y57945D02*
D03*
D12*
X-3404Y19992D02*
D03*
X64706D02*
D03*
X278506D02*
D03*
X210396D02*
D03*
X103496D02*
D03*
X171606D02*
D03*
D13*
X138665Y96535D02*
Y115311D01*
X158000Y114646D02*
X158665Y115311D01*
X238546Y39756D02*
X243019D01*
X243700Y40437D01*
X205263Y29937D02*
X229135D01*
X158000Y96523D02*
Y114646D01*
X243700Y40437D02*
Y63800D01*
X238546Y54008D02*
Y61154D01*
X232400Y75100D02*
X243700Y63800D01*
X225100Y74600D02*
X238546Y61154D01*
X226177Y77200D02*
X228277Y75100D01*
X232400D01*
X226735Y35819D02*
Y38265D01*
X222300Y37500D02*
X225969D01*
X226735Y38265D01*
X19719Y39756D02*
X20646Y40683D01*
X12935Y39756D02*
X19719D01*
X54933Y50204D02*
X57390Y47747D01*
X36557Y46694D02*
X40067Y50204D01*
X54933D01*
X229135Y29937D02*
X232300Y33102D01*
X226735Y51102D02*
X232300Y45537D01*
Y33102D02*
Y45537D01*
X143400Y35819D02*
Y41520D01*
X140860Y47997D02*
X143400Y45457D01*
X139800Y47997D02*
X140860D01*
X139550Y47747D02*
X139800Y47997D01*
X150260Y50597D02*
X153500Y53837D01*
X114940Y50597D02*
X150260D01*
X16000Y50100D02*
X19000Y53100D01*
Y56000D01*
X20945Y57945D01*
X24746D01*
X9100Y50100D02*
X16000D01*
X7500Y51700D02*
X9100Y50100D01*
X20646Y46167D02*
X21583Y47104D01*
X20506Y49704D02*
X28704D01*
X20646Y40683D02*
Y46167D01*
X6300Y47200D02*
X18002D01*
X20506Y49704D01*
X21583Y47104D02*
X27929D01*
X32207Y42826D01*
X28704Y49704D02*
X30600Y51600D01*
Y55600D01*
X32945Y57945D01*
X36557D01*
Y39756D02*
Y46694D01*
Y35819D02*
Y39756D01*
X148665Y95435D02*
Y115311D01*
X168665Y89535D02*
Y115311D01*
Y89535D02*
X181000Y77200D01*
X226177D01*
X158000Y96523D02*
X179923Y74600D01*
X225100D01*
X148665Y95435D02*
X174000Y70100D01*
X195800D01*
X203234Y62666D01*
Y56566D02*
Y62666D01*
Y56566D02*
X222300Y37500D01*
X138665Y96535D02*
X205263Y29937D01*
X226735Y51102D02*
Y57945D01*
X112937Y52600D02*
X114940Y50597D01*
D14*
X53700Y12300D02*
X154200D01*
X29900Y6000D02*
X158400D01*
X24746Y11154D02*
X29900Y6000D01*
X24746Y11154D02*
Y35819D01*
X48368Y17632D02*
X53700Y12300D01*
X48368Y17632D02*
Y35819D01*
X33290Y32158D02*
X39823D01*
X32207Y33242D02*
X33290Y32158D01*
X32207Y33242D02*
Y42826D01*
X39823Y32158D02*
X40907Y33242D01*
Y43159D01*
X45101Y47354D01*
X59232Y39756D02*
X119835D01*
X45101Y47354D02*
X51634D01*
X59232Y39756D01*
X12700Y76500D02*
X137800D01*
X15800Y73400D02*
X123800D01*
X120400Y54008D02*
Y64800D01*
X114900Y70300D02*
X120400Y64800D01*
X131400Y54008D02*
Y65800D01*
X123800Y73400D02*
X131400Y65800D01*
X143500Y54008D02*
Y70800D01*
X137800Y76500D02*
X143500Y70800D01*
X131600Y32837D02*
X137100Y27337D01*
X131600Y32837D02*
Y39756D01*
X57390Y47747D02*
X139550D01*
X149300Y45037D02*
X152500Y48237D01*
X149300Y30037D02*
Y45037D01*
X146600Y27337D02*
X149300Y30037D01*
X137100Y27337D02*
X146600D01*
X154200Y12300D02*
X155700Y13800D01*
Y35819D01*
X152500Y48237D02*
X158700D01*
X158400Y6000D02*
X161500Y9100D01*
Y45437D01*
X158700Y48237D02*
X161500Y45437D01*
X18600Y70300D02*
X114900D01*
X12935Y54008D02*
Y64635D01*
X18600Y70300D01*
X7500Y65100D02*
X15800Y73400D01*
X3600Y67400D02*
X12700Y76500D01*
X3600Y49900D02*
Y67400D01*
Y49900D02*
X6300Y47200D01*
X7500Y51700D02*
Y65100D01*
X48368Y57945D02*
X58255D01*
X63600Y52600D01*
X112937D01*
D15*
X87102Y62000D02*
D03*
X-18000D02*
D03*
X297305D02*
D03*
X192203D02*
D03*
M02*
