M48
;Layer_Color=9474304
;FILE_FORMAT=2:5
INCH,TZ
;TYPE=PLATED
T1F00S00C0.01200
T2F00S00C0.06693
T3F00S00C0.45276
;TYPE=NON_PLATED
T4F00S00C0.22047
%
T01
X460223Y529212
X463323
X466523
X469823
X473123
X897600Y761200
X901600
X905600
Y765200
X901600
X897600
X897623Y769250
Y773250
Y777250
Y781250
Y785250
Y789250
X901623
X905623
Y793250
X901623
X897623
Y797250
X901623
X905623
Y801250
X901623
X897623
Y805250
X901623
X905623
X905600Y809300
Y813300
X901600
X897600
Y809300
X901600
X901623Y785250
X905623
Y781250
X901623
Y777250
X905623
Y773250
X901623
Y769250
X905623
X34977Y816241
X30977
X26977
Y820240
X30977
X34977
Y824240
X30977
X26977
Y828240
X30977
X34977
Y832240
X30977
X26977
Y836541
Y840541
Y844541
X30977
X34977
Y840541
X30977
Y836541
X34977
T02
X773507Y62048
X608107
X324807
X159401
T03
X27582Y25615
X905536
X905600Y1039500
X27700Y1039400
T04
X78700Y25500
X393800Y36400
X539400
X854400Y25600
X854300Y1039400
X539400Y1028600
X393800
X78800Y1039400
M30
